<?xml version="1.0" encoding="iso-8859-1"?>
<!DOCTYPE svg PUBLIC "-//W3C//DTD SVG 1.0//EN" "http://www.w3.org/TR/2001/REC-SVG-20010904/DTD/svg10.dtd">
<svg width="823" height="899" xmlns="http://www.w3.org/2000/svg" xmlns:xlink="http://www.w3.org/1999/xlink">
<g style="stroke:black;fill:lightgreen" transform="translate(30,30)">
<line x1="245" y1="662" x2="245" y2="653" style="stroke:blue; stroke-width:1"/>
<line x1="245" y1="653" x2="291" y2="653" style="stroke:blue; stroke-width:1"/>
<line x1="245" y1="662" x2="245" y2="671" style="stroke:blue; stroke-width:1"/>
<line x1="245" y1="671" x2="291" y2="671" style="stroke:blue; stroke-width:1"/>
<line x1="199" y1="676" x2="199" y2="689" style="stroke:blue; stroke-width:1"/>
<line x1="199" y1="689" x2="245" y2="689" style="stroke:blue; stroke-width:1"/>
<line x1="199" y1="826" x2="199" y2="835" style="stroke:blue; stroke-width:1"/>
<line x1="199" y1="835" x2="245" y2="835" style="stroke:blue; stroke-width:1"/>
<line x1="199" y1="826" x2="199" y2="817" style="stroke:blue; stroke-width:1"/>
<line x1="199" y1="817" x2="245" y2="817" style="stroke:blue; stroke-width:1"/>
<line x1="153" y1="839" x2="153" y2="853" style="stroke:blue; stroke-width:1"/>
<line x1="153" y1="853" x2="199" y2="853" style="stroke:blue; stroke-width:1"/>
<line x1="245" y1="753" x2="245" y2="762" style="stroke:blue; stroke-width:1"/>
<line x1="245" y1="762" x2="291" y2="762" style="stroke:blue; stroke-width:1"/>
<line x1="245" y1="753" x2="245" y2="744" style="stroke:blue; stroke-width:1"/>
<line x1="245" y1="744" x2="291" y2="744" style="stroke:blue; stroke-width:1"/>
<line x1="199" y1="767" x2="199" y2="780" style="stroke:blue; stroke-width:1"/>
<line x1="199" y1="780" x2="245" y2="780" style="stroke:blue; stroke-width:1"/>
<line x1="153" y1="782" x2="153" y2="798" style="stroke:blue; stroke-width:1"/>
<line x1="153" y1="798" x2="199" y2="798" style="stroke:blue; stroke-width:1"/>
<line x1="291" y1="626" x2="291" y2="635" style="stroke:blue; stroke-width:1"/>
<line x1="291" y1="635" x2="336" y2="635" style="stroke:blue; stroke-width:1"/>
<line x1="291" y1="626" x2="291" y2="616" style="stroke:blue; stroke-width:1"/>
<line x1="291" y1="616" x2="336" y2="616" style="stroke:blue; stroke-width:1"/>
<line x1="291" y1="589" x2="291" y2="580" style="stroke:blue; stroke-width:1"/>
<line x1="291" y1="580" x2="336" y2="580" style="stroke:blue; stroke-width:1"/>
<line x1="291" y1="589" x2="291" y2="598" style="stroke:blue; stroke-width:1"/>
<line x1="291" y1="598" x2="336" y2="598" style="stroke:blue; stroke-width:1"/>
<line x1="336" y1="535" x2="336" y2="544" style="stroke:blue; stroke-width:1"/>
<line x1="336" y1="544" x2="382" y2="544" style="stroke:blue; stroke-width:1"/>
<line x1="336" y1="535" x2="336" y2="525" style="stroke:blue; stroke-width:1"/>
<line x1="336" y1="525" x2="382" y2="525" style="stroke:blue; stroke-width:1"/>
<line x1="565" y1="262" x2="565" y2="253" style="stroke:blue; stroke-width:1"/>
<line x1="565" y1="253" x2="611" y2="253" style="stroke:blue; stroke-width:1"/>
<line x1="565" y1="262" x2="565" y2="271" style="stroke:blue; stroke-width:1"/>
<line x1="565" y1="271" x2="611" y2="271" style="stroke:blue; stroke-width:1"/>
<line x1="565" y1="298" x2="565" y2="307" style="stroke:blue; stroke-width:1"/>
<line x1="565" y1="307" x2="611" y2="307" style="stroke:blue; stroke-width:1"/>
<line x1="565" y1="298" x2="565" y2="289" style="stroke:blue; stroke-width:1"/>
<line x1="565" y1="289" x2="611" y2="289" style="stroke:blue; stroke-width:1"/>
<line x1="520" y1="334" x2="520" y2="325" style="stroke:blue; stroke-width:1"/>
<line x1="520" y1="325" x2="565" y2="325" style="stroke:blue; stroke-width:1"/>
<line x1="520" y1="334" x2="520" y2="344" style="stroke:blue; stroke-width:1"/>
<line x1="520" y1="344" x2="565" y2="344" style="stroke:blue; stroke-width:1"/>
<line x1="520" y1="371" x2="520" y2="380" style="stroke:blue; stroke-width:1"/>
<line x1="520" y1="380" x2="565" y2="380" style="stroke:blue; stroke-width:1"/>
<line x1="520" y1="371" x2="520" y2="362" style="stroke:blue; stroke-width:1"/>
<line x1="520" y1="362" x2="565" y2="362" style="stroke:blue; stroke-width:1"/>
<line x1="474" y1="384" x2="474" y2="398" style="stroke:blue; stroke-width:1"/>
<line x1="474" y1="398" x2="520" y2="398" style="stroke:blue; stroke-width:1"/>
<line x1="474" y1="425" x2="474" y2="416" style="stroke:blue; stroke-width:1"/>
<line x1="474" y1="416" x2="520" y2="416" style="stroke:blue; stroke-width:1"/>
<line x1="474" y1="425" x2="474" y2="434" style="stroke:blue; stroke-width:1"/>
<line x1="474" y1="434" x2="520" y2="434" style="stroke:blue; stroke-width:1"/>
<line x1="428" y1="439" x2="428" y2="453" style="stroke:blue; stroke-width:1"/>
<line x1="428" y1="453" x2="474" y2="453" style="stroke:blue; stroke-width:1"/>
<line x1="428" y1="480" x2="428" y2="471" style="stroke:blue; stroke-width:1"/>
<line x1="428" y1="471" x2="474" y2="471" style="stroke:blue; stroke-width:1"/>
<line x1="428" y1="480" x2="428" y2="489" style="stroke:blue; stroke-width:1"/>
<line x1="428" y1="489" x2="474" y2="489" style="stroke:blue; stroke-width:1"/>
<line x1="382" y1="494" x2="382" y2="507" style="stroke:blue; stroke-width:1"/>
<line x1="382" y1="507" x2="428" y2="507" style="stroke:blue; stroke-width:1"/>
<line x1="245" y1="525" x2="245" y2="562" style="stroke:blue; stroke-width:1"/>
<line x1="245" y1="562" x2="291" y2="562" style="stroke:blue; stroke-width:1"/>
<line x1="336" y1="171" x2="336" y2="180" style="stroke:blue; stroke-width:1"/>
<line x1="336" y1="180" x2="382" y2="180" style="stroke:blue; stroke-width:1"/>
<line x1="336" y1="171" x2="336" y2="162" style="stroke:blue; stroke-width:1"/>
<line x1="336" y1="162" x2="382" y2="162" style="stroke:blue; stroke-width:1"/>
<line x1="611" y1="25" x2="611" y2="34" style="stroke:blue; stroke-width:1"/>
<line x1="611" y1="34" x2="657" y2="34" style="stroke:blue; stroke-width:1"/>
<line x1="611" y1="25" x2="611" y2="16" style="stroke:blue; stroke-width:1"/>
<line x1="611" y1="16" x2="657" y2="16" style="stroke:blue; stroke-width:1"/>
<line x1="565" y1="39" x2="565" y2="52" style="stroke:blue; stroke-width:1"/>
<line x1="565" y1="52" x2="611" y2="52" style="stroke:blue; stroke-width:1"/>
<line x1="520" y1="55" x2="520" y2="71" style="stroke:blue; stroke-width:1"/>
<line x1="520" y1="71" x2="565" y2="71" style="stroke:blue; stroke-width:1"/>
<line x1="474" y1="72" x2="474" y2="89" style="stroke:blue; stroke-width:1"/>
<line x1="474" y1="89" x2="520" y2="89" style="stroke:blue; stroke-width:1"/>
<line x1="428" y1="89" x2="428" y2="107" style="stroke:blue; stroke-width:1"/>
<line x1="428" y1="107" x2="474" y2="107" style="stroke:blue; stroke-width:1"/>
<line x1="382" y1="107" x2="382" y2="125" style="stroke:blue; stroke-width:1"/>
<line x1="382" y1="125" x2="428" y2="125" style="stroke:blue; stroke-width:1"/>
<line x1="336" y1="125" x2="336" y2="143" style="stroke:blue; stroke-width:1"/>
<line x1="336" y1="143" x2="382" y2="143" style="stroke:blue; stroke-width:1"/>
<line x1="245" y1="173" x2="245" y2="198" style="stroke:blue; stroke-width:1"/>
<line x1="245" y1="198" x2="291" y2="198" style="stroke:blue; stroke-width:1"/>
<line x1="245" y1="225" x2="245" y2="234" style="stroke:blue; stroke-width:1"/>
<line x1="245" y1="234" x2="291" y2="234" style="stroke:blue; stroke-width:1"/>
<line x1="245" y1="225" x2="245" y2="216" style="stroke:blue; stroke-width:1"/>
<line x1="245" y1="216" x2="291" y2="216" style="stroke:blue; stroke-width:1"/>
<line x1="199" y1="717" x2="199" y2="726" style="stroke:blue; stroke-width:1"/>
<line x1="199" y1="726" x2="245" y2="726" style="stroke:blue; stroke-width:1"/>
<line x1="199" y1="717" x2="199" y2="707" style="stroke:blue; stroke-width:1"/>
<line x1="199" y1="707" x2="245" y2="707" style="stroke:blue; stroke-width:1"/>
<line x1="199" y1="676" x2="199" y2="662" style="stroke:blue; stroke-width:1"/>
<line x1="199" y1="662" x2="245" y2="662" style="stroke:blue; stroke-width:1"/>
<line x1="153" y1="696" x2="153" y2="676" style="stroke:blue; stroke-width:1"/>
<line x1="153" y1="676" x2="199" y2="676" style="stroke:blue; stroke-width:1"/>
<line x1="245" y1="607" x2="245" y2="626" style="stroke:blue; stroke-width:1"/>
<line x1="245" y1="626" x2="291" y2="626" style="stroke:blue; stroke-width:1"/>
<line x1="199" y1="566" x2="199" y2="607" style="stroke:blue; stroke-width:1"/>
<line x1="199" y1="607" x2="245" y2="607" style="stroke:blue; stroke-width:1"/>
<line x1="245" y1="607" x2="245" y2="589" style="stroke:blue; stroke-width:1"/>
<line x1="245" y1="589" x2="291" y2="589" style="stroke:blue; stroke-width:1"/>
<line x1="153" y1="383" x2="153" y2="566" style="stroke:blue; stroke-width:1"/>
<line x1="153" y1="566" x2="199" y2="566" style="stroke:blue; stroke-width:1"/>
<line x1="199" y1="566" x2="199" y2="525" style="stroke:blue; stroke-width:1"/>
<line x1="199" y1="525" x2="245" y2="525" style="stroke:blue; stroke-width:1"/>
<line x1="291" y1="489" x2="291" y2="535" style="stroke:blue; stroke-width:1"/>
<line x1="291" y1="535" x2="336" y2="535" style="stroke:blue; stroke-width:1"/>
<line x1="245" y1="525" x2="245" y2="489" style="stroke:blue; stroke-width:1"/>
<line x1="245" y1="489" x2="291" y2="489" style="stroke:blue; stroke-width:1"/>
<line x1="382" y1="494" x2="382" y2="480" style="stroke:blue; stroke-width:1"/>
<line x1="382" y1="480" x2="428" y2="480" style="stroke:blue; stroke-width:1"/>
<line x1="336" y1="443" x2="336" y2="494" style="stroke:blue; stroke-width:1"/>
<line x1="336" y1="494" x2="382" y2="494" style="stroke:blue; stroke-width:1"/>
<line x1="291" y1="489" x2="291" y2="443" style="stroke:blue; stroke-width:1"/>
<line x1="291" y1="443" x2="336" y2="443" style="stroke:blue; stroke-width:1"/>
<line x1="428" y1="439" x2="428" y2="425" style="stroke:blue; stroke-width:1"/>
<line x1="428" y1="425" x2="474" y2="425" style="stroke:blue; stroke-width:1"/>
<line x1="382" y1="392" x2="382" y2="439" style="stroke:blue; stroke-width:1"/>
<line x1="382" y1="439" x2="428" y2="439" style="stroke:blue; stroke-width:1"/>
<line x1="336" y1="443" x2="336" y2="392" style="stroke:blue; stroke-width:1"/>
<line x1="336" y1="392" x2="382" y2="392" style="stroke:blue; stroke-width:1"/>
<line x1="520" y1="280" x2="520" y2="298" style="stroke:blue; stroke-width:1"/>
<line x1="520" y1="298" x2="565" y2="298" style="stroke:blue; stroke-width:1"/>
<line x1="474" y1="307" x2="474" y2="280" style="stroke:blue; stroke-width:1"/>
<line x1="474" y1="280" x2="520" y2="280" style="stroke:blue; stroke-width:1"/>
<line x1="520" y1="280" x2="520" y2="262" style="stroke:blue; stroke-width:1"/>
<line x1="520" y1="262" x2="565" y2="262" style="stroke:blue; stroke-width:1"/>
<line x1="428" y1="346" x2="428" y2="307" style="stroke:blue; stroke-width:1"/>
<line x1="428" y1="307" x2="474" y2="307" style="stroke:blue; stroke-width:1"/>
<line x1="474" y1="307" x2="474" y2="334" style="stroke:blue; stroke-width:1"/>
<line x1="474" y1="334" x2="520" y2="334" style="stroke:blue; stroke-width:1"/>
<line x1="382" y1="392" x2="382" y2="346" style="stroke:blue; stroke-width:1"/>
<line x1="382" y1="346" x2="428" y2="346" style="stroke:blue; stroke-width:1"/>
<line x1="428" y1="346" x2="428" y2="384" style="stroke:blue; stroke-width:1"/>
<line x1="428" y1="384" x2="474" y2="384" style="stroke:blue; stroke-width:1"/>
<line x1="474" y1="384" x2="474" y2="371" style="stroke:blue; stroke-width:1"/>
<line x1="474" y1="371" x2="520" y2="371" style="stroke:blue; stroke-width:1"/>
<line x1="108" y1="539" x2="108" y2="383" style="stroke:blue; stroke-width:1"/>
<line x1="108" y1="383" x2="153" y2="383" style="stroke:blue; stroke-width:1"/>
<line x1="199" y1="199" x2="199" y2="173" style="stroke:blue; stroke-width:1"/>
<line x1="199" y1="173" x2="245" y2="173" style="stroke:blue; stroke-width:1"/>
<line x1="291" y1="148" x2="291" y2="171" style="stroke:blue; stroke-width:1"/>
<line x1="291" y1="171" x2="336" y2="171" style="stroke:blue; stroke-width:1"/>
<line x1="245" y1="173" x2="245" y2="148" style="stroke:blue; stroke-width:1"/>
<line x1="245" y1="148" x2="291" y2="148" style="stroke:blue; stroke-width:1"/>
<line x1="291" y1="148" x2="291" y2="125" style="stroke:blue; stroke-width:1"/>
<line x1="291" y1="125" x2="336" y2="125" style="stroke:blue; stroke-width:1"/>
<line x1="336" y1="125" x2="336" y2="107" style="stroke:blue; stroke-width:1"/>
<line x1="336" y1="107" x2="382" y2="107" style="stroke:blue; stroke-width:1"/>
<line x1="382" y1="107" x2="382" y2="89" style="stroke:blue; stroke-width:1"/>
<line x1="382" y1="89" x2="428" y2="89" style="stroke:blue; stroke-width:1"/>
<line x1="428" y1="89" x2="428" y2="72" style="stroke:blue; stroke-width:1"/>
<line x1="428" y1="72" x2="474" y2="72" style="stroke:blue; stroke-width:1"/>
<line x1="520" y1="55" x2="520" y2="39" style="stroke:blue; stroke-width:1"/>
<line x1="520" y1="39" x2="565" y2="39" style="stroke:blue; stroke-width:1"/>
<line x1="565" y1="39" x2="565" y2="25" style="stroke:blue; stroke-width:1"/>
<line x1="565" y1="25" x2="611" y2="25" style="stroke:blue; stroke-width:1"/>
<line x1="474" y1="72" x2="474" y2="55" style="stroke:blue; stroke-width:1"/>
<line x1="474" y1="55" x2="520" y2="55" style="stroke:blue; stroke-width:1"/>
<line x1="153" y1="383" x2="153" y2="199" style="stroke:blue; stroke-width:1"/>
<line x1="153" y1="199" x2="199" y2="199" style="stroke:blue; stroke-width:1"/>
<line x1="199" y1="199" x2="199" y2="225" style="stroke:blue; stroke-width:1"/>
<line x1="199" y1="225" x2="245" y2="225" style="stroke:blue; stroke-width:1"/>
<line x1="62" y1="675" x2="62" y2="539" style="stroke:blue; stroke-width:1"/>
<line x1="62" y1="539" x2="108" y2="539" style="stroke:blue; stroke-width:1"/>
<line x1="108" y1="811" x2="108" y2="839" style="stroke:blue; stroke-width:1"/>
<line x1="108" y1="839" x2="153" y2="839" style="stroke:blue; stroke-width:1"/>
<line x1="153" y1="839" x2="153" y2="826" style="stroke:blue; stroke-width:1"/>
<line x1="153" y1="826" x2="199" y2="826" style="stroke:blue; stroke-width:1"/>
<line x1="62" y1="675" x2="62" y2="811" style="stroke:blue; stroke-width:1"/>
<line x1="62" y1="811" x2="108" y2="811" style="stroke:blue; stroke-width:1"/>
<line x1="199" y1="767" x2="199" y2="753" style="stroke:blue; stroke-width:1"/>
<line x1="199" y1="753" x2="245" y2="753" style="stroke:blue; stroke-width:1"/>
<line x1="153" y1="782" x2="153" y2="767" style="stroke:blue; stroke-width:1"/>
<line x1="153" y1="767" x2="199" y2="767" style="stroke:blue; stroke-width:1"/>
<line x1="108" y1="811" x2="108" y2="782" style="stroke:blue; stroke-width:1"/>
<line x1="108" y1="782" x2="153" y2="782" style="stroke:blue; stroke-width:1"/>
<line x1="108" y1="539" x2="108" y2="696" style="stroke:blue; stroke-width:1"/>
<line x1="108" y1="696" x2="153" y2="696" style="stroke:blue; stroke-width:1"/>
<line x1="153" y1="696" x2="153" y2="717" style="stroke:blue; stroke-width:1"/>
<line x1="153" y1="717" x2="199" y2="717" style="stroke:blue; stroke-width:1"/>
<line x1="16" y1="675" x2="16" y2="675" style="stroke:blue; stroke-width:1"/>
<line x1="16" y1="675" x2="62" y2="675" style="stroke:blue; stroke-width:1"/>
<text x="20" y="669" font-weight = "10" font-family="verdana" fill="black" font-size="15">Root</text>
<text x="203" y="857" font-weight = "10" font-family="verdana" fill="black" font-size="15">KJ473795-AB085735</text>
<text x="249" y="839" font-weight = "10" font-family="verdana" fill="black" font-size="15">KJ473796-AB085735</text>
<text x="249" y="821" font-weight = "10" font-family="verdana" fill="black" font-size="15">EU420138-ON640726</text>
<text x="203" y="802" font-weight = "10" font-family="verdana" fill="black" font-size="15">KJ473797-AB085735</text>
<text x="249" y="784" font-weight = "10" font-family="verdana" fill="black" font-size="15">KJ473800-AB085735</text>
<text x="295" y="766" font-weight = "10" font-family="verdana" fill="black" font-size="15">KJ473798-AB085735</text>
<text x="295" y="748" font-weight = "10" font-family="verdana" fill="black" font-size="15">KJ473799-AB085735</text>
<text x="249" y="730" font-weight = "10" font-family="verdana" fill="black" font-size="15">NC_014470-MZ936290</text>
<text x="249" y="711" font-weight = "10" font-family="verdana" fill="black" font-size="15">GU190215-MZ936290</text>
<text x="249" y="693" font-weight = "10" font-family="verdana" fill="black" font-size="15">MN996532-KP972690</text>
<text x="295" y="675" font-weight = "10" font-family="verdana" fill="black" font-size="15">MG772934-HM134917</text>
<text x="295" y="657" font-weight = "10" font-family="verdana" fill="black" font-size="15">MG772933-HM134917</text>
<text x="340" y="639" font-weight = "10" font-family="verdana" fill="black" font-size="15">DQ412043-KX261916</text>
<text x="340" y="620" font-weight = "10" font-family="verdana" fill="black" font-size="15">DQ648857-KX261916</text>
<text x="340" y="602" font-weight = "10" font-family="verdana" fill="black" font-size="15">KJ473814-HM134917</text>
<text x="340" y="584" font-weight = "10" font-family="verdana" fill="black" font-size="15">JX993987-ON012504</text>
<text x="295" y="566" font-weight = "10" font-family="verdana" fill="black" font-size="15">KJ473815-HM134917</text>
<text x="386" y="548" font-weight = "10" font-family="verdana" fill="black" font-size="15">KY417147-HM134917</text>
<text x="386" y="529" font-weight = "10" font-family="verdana" fill="black" font-size="15">KY417148-HM134917</text>
<text x="432" y="511" font-weight = "10" font-family="verdana" fill="black" font-size="15">FJ588686-HM134917</text>
<text x="478" y="493" font-weight = "10" font-family="verdana" fill="black" font-size="15">KY417143-HM134917</text>
<text x="478" y="475" font-weight = "10" font-family="verdana" fill="black" font-size="15">KY417149-HM134917</text>
<text x="478" y="457" font-weight = "10" font-family="verdana" fill="black" font-size="15">KJ473816-HM134917</text>
<text x="524" y="438" font-weight = "10" font-family="verdana" fill="black" font-size="15">KY770859-HM134917</text>
<text x="524" y="420" font-weight = "10" font-family="verdana" fill="black" font-size="15">KY770858-HM134917</text>
<text x="524" y="402" font-weight = "10" font-family="verdana" fill="black" font-size="15">KY417146-HM134917</text>
<text x="569" y="384" font-weight = "10" font-family="verdana" fill="black" font-size="15">KT444582-HM134917</text>
<text x="569" y="366" font-weight = "10" font-family="verdana" fill="black" font-size="15">KY417150-HM134917</text>
<text x="569" y="348" font-weight = "10" font-family="verdana" fill="black" font-size="15">KY417152-HM134917</text>
<text x="569" y="329" font-weight = "10" font-family="verdana" fill="black" font-size="15">KY417151-HM134917</text>
<text x="615" y="311" font-weight = "10" font-family="verdana" fill="black" font-size="15">KF367457-HM134917</text>
<text x="615" y="293" font-weight = "10" font-family="verdana" fill="black" font-size="15">KC881006-HM134917</text>
<text x="615" y="275" font-weight = "10" font-family="verdana" fill="black" font-size="15">KC881005-HM134917</text>
<text x="615" y="257" font-weight = "10" font-family="verdana" fill="black" font-size="15">KY417144-HM134917</text>
<text x="295" y="238" font-weight = "10" font-family="verdana" fill="black" font-size="15">GQ153543-HM134917</text>
<text x="295" y="220" font-weight = "10" font-family="verdana" fill="black" font-size="15">GQ153542-HM134917</text>
<text x="295" y="202" font-weight = "10" font-family="verdana" fill="black" font-size="15">GQ153547-HM134917</text>
<text x="386" y="184" font-weight = "10" font-family="verdana" fill="black" font-size="15">DQ084200-HM134917</text>
<text x="386" y="166" font-weight = "10" font-family="verdana" fill="black" font-size="15">DQ022305-HM134917</text>
<text x="386" y="147" font-weight = "10" font-family="verdana" fill="black" font-size="15">DQ084199-HM134917</text>
<text x="432" y="129" font-weight = "10" font-family="verdana" fill="black" font-size="15">GQ153541-HM134917</text>
<text x="478" y="111" font-weight = "10" font-family="verdana" fill="black" font-size="15">GQ153539-HM134917</text>
<text x="524" y="93" font-weight = "10" font-family="verdana" fill="black" font-size="15">GQ153540-HM134917</text>
<text x="569" y="75" font-weight = "10" font-family="verdana" fill="black" font-size="15">GQ153548-HM134917</text>
<text x="615" y="56" font-weight = "10" font-family="verdana" fill="black" font-size="15">GQ153546-HM134917</text>
<text x="661" y="38" font-weight = "10" font-family="verdana" fill="black" font-size="15">GQ153545-HM134917</text>
<text x="661" y="20" font-weight = "10" font-family="verdana" fill="black" font-size="15">GQ153544-HM134917</text>
<line x1="176.25" y1="853" x2="218.12149521697" y2="819.71978695297" style="stroke:red; stroke-width:1;stroke-dasharray: 5, 5"/>
<line x1="221.23258651776" y1="823.63400602171" x2="215.01040391618" y2="815.80556788422" style="stroke:red; stroke-width:1"/>
<line x1="221.23258651776" y1="823.63400602171" x2="222.03571428571" y2="816.60869565217" style="stroke:red; stroke-width:1"/>
<line x1="222.03571428571" y1="816.60869565217" x2="215.01040391618" y2="815.80556788422" style="stroke:red; stroke-width:1"/>
<text x="199.14285714286" y="834.80434782609" font-weight = "10" font-family="verdana" fill="red" font-size="15">2(100%)</text>
<line x1="588.32142857143" y1="307.13043478261" x2="454.17747496792" y2="467.0604539435" style="stroke:red; stroke-width:1;stroke-dasharray: 5, 5"/>
<line x1="450.34662456358" y1="463.84726468987" x2="458.00832537225" y2="470.27364319713" style="stroke:red; stroke-width:1"/>
<line x1="450.34662456358" y1="463.84726468987" x2="450.96428571429" y2="470.89130434783" style="stroke:red; stroke-width:1"/>
<line x1="450.96428571429" y1="470.89130434783" x2="458.00832537225" y2="470.27364319713" style="stroke:red; stroke-width:1"/>
<text x="519.64285714286" y="389.01086956522" font-weight = "10" font-family="verdana" fill="red" font-size="15">3(100%)</text>
<line x1="450.96428571429" y1="452.69565217391" x2="494.30971544592" y2="375.17927643022" style="stroke:red; stroke-width:1;stroke-dasharray: 5, 5"/>
<line x1="498.67377448483" y1="377.6195609843" x2="489.94565640701" y2="372.73899187613" style="stroke:red; stroke-width:1"/>
<line x1="498.67377448483" y1="377.6195609843" x2="496.75" y2="370.8152173913" style="stroke:red; stroke-width:1"/>
<line x1="496.75" y1="370.8152173913" x2="489.94565640701" y2="372.73899187613" style="stroke:red; stroke-width:1"/>
<text x="473.85714285714" y="411.75543478261" font-weight = "10" font-family="verdana" fill="red" font-size="15">4(100%)</text>
<line x1="588.32142857143" y1="252.54347826087" x2="544.78342257364" y2="339.05544229162" style="stroke:red; stroke-width:1;stroke-dasharray: 5, 5"/>
<line x1="540.31712573482" y1="336.8077340037" x2="549.24971941245" y2="341.30315057954" style="stroke:red; stroke-width:1"/>
<line x1="540.31712573482" y1="336.8077340037" x2="542.53571428571" y2="343.52173913043" style="stroke:red; stroke-width:1"/>
<line x1="542.53571428571" y1="343.52173913043" x2="549.24971941245" y2="341.30315057954" style="stroke:red; stroke-width:1"/>
<text x="565.42857142857" y="298.03260869565" font-weight = "10" font-family="verdana" fill="red" font-size="15">5(100%)</text>
<line x1="588.32142857143" y1="52.391304347826" x2="363.76212731013" y2="177.32992773017" style="stroke:red; stroke-width:1;stroke-dasharray: 5, 5"/>
<line x1="361.33118547508" y1="172.9606575629" x2="366.19306914518" y2="181.69919789745" style="stroke:red; stroke-width:1"/>
<line x1="361.33118547508" y1="172.9606575629" x2="359.39285714286" y2="179.76086956522" style="stroke:red; stroke-width:1"/>
<line x1="359.39285714286" y1="179.76086956522" x2="366.19306914518" y2="181.69919789745" style="stroke:red; stroke-width:1"/>
<text x="473.85714285714" y="116.07608695652" font-weight = "10" font-family="verdana" fill="red" font-size="15">6(100%)</text>
<line x1="588.32142857143" y1="307.13043478261" x2="588.32142857143" y2="257.54347826087" style="stroke:red; stroke-width:1;stroke-dasharray: 5, 5"/>
<line x1="593.32142857143" y1="257.54347826087" x2="583.32142857143" y2="257.54347826087" style="stroke:red; stroke-width:1"/>
<line x1="593.32142857143" y1="257.54347826087" x2="588.32142857143" y2="252.54347826087" style="stroke:red; stroke-width:1"/>
<line x1="588.32142857143" y1="252.54347826087" x2="583.32142857143" y2="257.54347826087" style="stroke:red; stroke-width:1"/>
<text x="588.32142857143" y="279.83695652174" font-weight = "10" font-family="verdana" fill="red" font-size="15">7(100%)</text>
<line x1="542.53571428571" y1="298.03260869565" x2="542.53571428571" y2="320.32608695652" style="stroke:red; stroke-width:1;stroke-dasharray: 5, 5"/>
<line x1="537.53571428571" y1="320.32608695652" x2="547.53571428571" y2="320.32608695652" style="stroke:red; stroke-width:1"/>
<line x1="537.53571428571" y1="320.32608695652" x2="542.53571428571" y2="325.32608695652" style="stroke:red; stroke-width:1"/>
<line x1="542.53571428571" y1="325.32608695652" x2="547.53571428571" y2="320.32608695652" style="stroke:red; stroke-width:1"/>
<text x="542.53571428571" y="311.67934782609" font-weight = "10" font-family="verdana" fill="red" font-size="15">8(100%)</text>
<line x1="450.96428571429" y1="452.69565217391" x2="450.96428571429" y2="484.08695652174" style="stroke:red; stroke-width:1;stroke-dasharray: 5, 5"/>
<line x1="445.96428571429" y1="484.08695652174" x2="455.96428571429" y2="484.08695652174" style="stroke:red; stroke-width:1"/>
<line x1="445.96428571429" y1="484.08695652174" x2="450.96428571429" y2="489.08695652174" style="stroke:red; stroke-width:1"/>
<line x1="450.96428571429" y1="489.08695652174" x2="455.96428571429" y2="484.08695652174" style="stroke:red; stroke-width:1"/>
<text x="450.96428571429" y="470.89130434783" font-weight = "10" font-family="verdana" fill="red" font-size="15">9(100%)</text>
<line x1="634.10714285714" y1="16" x2="592.23564764018" y2="49.280213047034" style="stroke:red; stroke-width:1;stroke-dasharray: 5, 5"/>
<line x1="589.12455633938" y1="45.365993978288" x2="595.34673894097" y2="53.194432115781" style="stroke:red; stroke-width:1"/>
<line x1="589.12455633938" y1="45.365993978288" x2="588.32142857143" y2="52.391304347826" style="stroke:red; stroke-width:1"/>
<line x1="588.32142857143" y1="52.391304347826" x2="595.34673894097" y2="53.194432115781" style="stroke:red; stroke-width:1"/>
<text x="611.21428571429" y="34.195652173913" font-weight = "10" font-family="verdana" fill="red" font-size="15">10(100%)</text>
<line x1="450.96428571429" y1="452.69565217391" x2="493.53681074637" y2="401.9395460565" style="stroke:red; stroke-width:1;stroke-dasharray: 5, 5"/>
<line x1="497.3676611507" y1="405.15273531013" x2="489.70596034204" y2="398.72635680288" style="stroke:red; stroke-width:1"/>
<line x1="497.3676611507" y1="405.15273531013" x2="496.75" y2="398.10869565217" style="stroke:red; stroke-width:1"/>
<line x1="496.75" y1="398.10869565217" x2="489.70596034204" y2="398.72635680288" style="stroke:red; stroke-width:1"/>
<text x="473.85714285714" y="425.40217391304" font-weight = "10" font-family="verdana" fill="red" font-size="15">11(100%)</text>
<line x1="313.60714285714" y1="534.57608695652" x2="401.71856103676" y2="442.65839058026" style="stroke:red; stroke-width:1;stroke-dasharray: 5, 5"/>
<line x1="405.32803857354" y1="446.11840097207" x2="398.10908349997" y2="439.19838018845" style="stroke:red; stroke-width:1"/>
<line x1="405.32803857354" y1="446.11840097207" x2="405.17857142857" y2="439.04891304348" style="stroke:red; stroke-width:1"/>
<line x1="405.17857142857" y1="439.04891304348" x2="398.10908349997" y2="439.19838018845" style="stroke:red; stroke-width:1"/>
<text x="359.39285714286" y="486.8125" font-weight = "10" font-family="verdana" fill="red" font-size="15">12(100%)</text>
<line x1="634.10714285714" y1="16" x2="363.92901358881" y2="141.26640457259" style="stroke:red; stroke-width:1;stroke-dasharray: 5, 5"/>
<line x1="361.82585294401" y1="136.73024812664" x2="366.03217423361" y2="145.80256101854" style="stroke:red; stroke-width:1"/>
<line x1="361.82585294401" y1="136.73024812664" x2="359.39285714286" y2="143.36956521739" style="stroke:red; stroke-width:1"/>
<line x1="359.39285714286" y1="143.36956521739" x2="366.03217423361" y2="145.80256101854" style="stroke:red; stroke-width:1"/>
<text x="496.75" y="79.684782608696" font-weight = "10" font-family="verdana" fill="red" font-size="15">13(100%)</text>
<line x1="267.82142857143" y1="561.86956521739" x2="309.31233160309" y2="537.13628153742" style="stroke:red; stroke-width:1;stroke-dasharray: 5, 5"/>
<line x1="311.87252618399" y1="541.43109279147" x2="306.75213702219" y2="532.84147028337" style="stroke:red; stroke-width:1"/>
<line x1="311.87252618399" y1="541.43109279147" x2="313.60714285714" y2="534.57608695652" style="stroke:red; stroke-width:1"/>
<line x1="313.60714285714" y1="534.57608695652" x2="306.75213702219" y2="532.84147028337" style="stroke:red; stroke-width:1"/>
<text x="290.71428571429" y="548.22282608696" font-weight = "10" font-family="verdana" fill="red" font-size="15">14(100%)</text>
<line x1="267.82142857143" y1="561.86956521739" x2="400.53204805123" y2="509.12917862496" style="stroke:red; stroke-width:1;stroke-dasharray: 5, 5"/>
<line x1="402.37861798054" y1="513.7757020023" x2="398.68547812192" y2="504.48265524762" style="stroke:red; stroke-width:1"/>
<line x1="402.37861798054" y1="513.7757020023" x2="405.17857142857" y2="507.28260869565" style="stroke:red; stroke-width:1"/>
<line x1="405.17857142857" y1="507.28260869565" x2="398.68547812192" y2="504.48265524762" style="stroke:red; stroke-width:1"/>
<text x="336.5" y="534.57608695652" font-weight = "10" font-family="verdana" fill="red" font-size="15">15(100%)</text>
<line x1="634.10714285714" y1="16" x2="501.16808643351" y2="86.44155930146" style="stroke:red; stroke-width:1;stroke-dasharray: 5, 5"/>
<line x1="498.82703703932" y1="82.023472867952" x2="503.5091358277" y2="90.859645734969" style="stroke:red; stroke-width:1"/>
<line x1="498.82703703932" y1="82.023472867952" x2="496.75" y2="88.782608695652" style="stroke:red; stroke-width:1"/>
<line x1="496.75" y1="88.782608695652" x2="503.5091358277" y2="90.859645734969" style="stroke:red; stroke-width:1"/>
<text x="565.42857142857" y="52.391304347826" font-weight = "10" font-family="verdana" fill="red" font-size="15">16(100%)</text>
<line x1="450.96428571429" y1="106.97826086957" x2="629.62922067019" y2="18.22445788623" style="stroke:red; stroke-width:1;stroke-dasharray: 5, 5"/>
<line x1="631.85367855642" y1="22.702380073181" x2="627.40476278396" y2="13.746535699278" style="stroke:red; stroke-width:1"/>
<line x1="631.85367855642" y1="22.702380073181" x2="634.10714285714" y2="16" style="stroke:red; stroke-width:1"/>
<line x1="634.10714285714" y1="16" x2="627.40476278396" y2="13.746535699278" style="stroke:red; stroke-width:1"/>
<text x="542.53571428571" y="61.489130434783" font-weight = "10" font-family="verdana" fill="red" font-size="15">17(100%)</text>
<line x1="542.53571428571" y1="70.586956521739" x2="455.61080909163" y2="105.13169094025" style="stroke:red; stroke-width:1;stroke-dasharray: 5, 5"/>
<line x1="453.76423916231" y1="100.48516756291" x2="457.45737902094" y2="109.77821431759" style="stroke:red; stroke-width:1"/>
<line x1="453.76423916231" y1="100.48516756291" x2="450.96428571429" y2="106.97826086957" style="stroke:red; stroke-width:1"/>
<line x1="450.96428571429" y1="106.97826086957" x2="457.45737902094" y2="109.77821431759" style="stroke:red; stroke-width:1"/>
<text x="496.75" y="88.782608695652" font-weight = "10" font-family="verdana" fill="red" font-size="15">18(100%)</text>
<line x1="542.53571428571" y1="70.586956521739" x2="363.87077932981" y2="159.34075950507" style="stroke:red; stroke-width:1;stroke-dasharray: 5, 5"/>
<line x1="361.64632144358" y1="154.86283731812" x2="366.09523721604" y2="163.81868169203" style="stroke:red; stroke-width:1"/>
<line x1="361.64632144358" y1="154.86283731812" x2="359.39285714286" y2="161.5652173913" style="stroke:red; stroke-width:1"/>
<line x1="359.39285714286" y1="161.5652173913" x2="366.09523721604" y2="163.81868169203" style="stroke:red; stroke-width:1"/>
<text x="450.96428571429" y="116.07608695652" font-weight = "10" font-family="verdana" fill="red" font-size="15">19(100%)</text>
<line x1="359.39285714286" y1="107.26256793478" x2="225.82854679748" y2="221.99202186353" style="stroke:red; stroke-width:1;stroke-dasharray: 5, 5"/>
<line x1="222.57056866101" y1="218.19918935177" x2="229.08652493395" y2="225.78485437529" style="stroke:red; stroke-width:1"/>
<line x1="222.57056866101" y1="218.19918935177" x2="222.03571428571" y2="225.25" style="stroke:red; stroke-width:1"/>
<line x1="222.03571428571" y1="225.25" x2="229.08652493395" y2="225.78485437529" style="stroke:red; stroke-width:1"/>
<text x="290.71428571429" y="166.25628396739" font-weight = "10" font-family="verdana" fill="red" font-size="15">20(100%)</text>
<line x1="222.03571428571" y1="172.97303838315" x2="222.03571428571" y2="520.33610733696" style="stroke:red; stroke-width:1;stroke-dasharray: 5, 5"/>
<line x1="217.03571428571" y1="520.33610733696" x2="227.03571428571" y2="520.33610733696" style="stroke:red; stroke-width:1"/>
<line x1="217.03571428571" y1="520.33610733696" x2="222.03571428571" y2="525.33610733696" style="stroke:red; stroke-width:1"/>
<line x1="222.03571428571" y1="525.33610733696" x2="227.03571428571" y2="520.33610733696" style="stroke:red; stroke-width:1"/>
<text x="222.03571428571" y="349.15457286005" font-weight = "10" font-family="verdana" fill="red" font-size="15">21(100%)</text>
<line x1="313.60714285714" y1="580.0652173913" x2="223.13299797439" y2="177.85114954492" style="stroke:red; stroke-width:1;stroke-dasharray: 5, 5"/>
<line x1="228.01110913616" y1="176.75386585624" x2="218.25488681262" y2="178.9484332336" style="stroke:red; stroke-width:1"/>
<line x1="228.01110913616" y1="176.75386585624" x2="222.03571428571" y2="172.97303838315" style="stroke:red; stroke-width:1"/>
<line x1="222.03571428571" y1="172.97303838315" x2="218.25488681262" y2="178.9484332336" style="stroke:red; stroke-width:1"/>
<text x="267.82142857143" y="376.51912788723" font-weight = "10" font-family="verdana" fill="red" font-size="15">22(100%)</text>
<line x1="267.82142857143" y1="561.86956521739" x2="179.38584544182" y2="671.69797564022" style="stroke:red; stroke-width:1;stroke-dasharray: 5, 5"/>
<line x1="175.49142977769" y1="668.5621301984" x2="183.28026110595" y2="674.83382108203" style="stroke:red; stroke-width:1"/>
<line x1="175.49142977769" y1="668.5621301984" x2="176.25" y2="675.59239130435" style="stroke:red; stroke-width:1"/>
<line x1="176.25" y1="675.59239130435" x2="183.28026110595" y2="674.83382108203" style="stroke:red; stroke-width:1"/>
<text x="222.03571428571" y="618.73097826087" font-weight = "10" font-family="verdana" fill="red" font-size="15">1(100%)</text>
</g></svg>