<?xml version="1.0" encoding="iso-8859-1"?>
<!DOCTYPE svg PUBLIC "-//W3C//DTD SVG 1.0//EN" "http://www.w3.org/TR/2001/REC-SVG-20010904/DTD/svg10.dtd">
<svg width="823" height="748" xmlns="http://www.w3.org/2000/svg" xmlns:xlink="http://www.w3.org/1999/xlink">
<g style="stroke:black;fill:lightgreen" transform="translate(30,30)">
<line x1="245" y1="545" x2="245" y2="538" style="stroke:blue; stroke-width:1"/>
<line x1="245" y1="538" x2="291" y2="538" style="stroke:blue; stroke-width:1"/>
<line x1="245" y1="545" x2="245" y2="553" style="stroke:blue; stroke-width:1"/>
<line x1="245" y1="553" x2="291" y2="553" style="stroke:blue; stroke-width:1"/>
<line x1="199" y1="557" x2="199" y2="568" style="stroke:blue; stroke-width:1"/>
<line x1="199" y1="568" x2="245" y2="568" style="stroke:blue; stroke-width:1"/>
<line x1="199" y1="680" x2="199" y2="687" style="stroke:blue; stroke-width:1"/>
<line x1="199" y1="687" x2="245" y2="687" style="stroke:blue; stroke-width:1"/>
<line x1="199" y1="680" x2="199" y2="672" style="stroke:blue; stroke-width:1"/>
<line x1="199" y1="672" x2="245" y2="672" style="stroke:blue; stroke-width:1"/>
<line x1="153" y1="691" x2="153" y2="702" style="stroke:blue; stroke-width:1"/>
<line x1="153" y1="702" x2="199" y2="702" style="stroke:blue; stroke-width:1"/>
<line x1="245" y1="620" x2="245" y2="627" style="stroke:blue; stroke-width:1"/>
<line x1="245" y1="627" x2="291" y2="627" style="stroke:blue; stroke-width:1"/>
<line x1="245" y1="620" x2="245" y2="613" style="stroke:blue; stroke-width:1"/>
<line x1="245" y1="613" x2="291" y2="613" style="stroke:blue; stroke-width:1"/>
<line x1="199" y1="631" x2="199" y2="642" style="stroke:blue; stroke-width:1"/>
<line x1="199" y1="642" x2="245" y2="642" style="stroke:blue; stroke-width:1"/>
<line x1="153" y1="644" x2="153" y2="657" style="stroke:blue; stroke-width:1"/>
<line x1="153" y1="657" x2="199" y2="657" style="stroke:blue; stroke-width:1"/>
<line x1="291" y1="516" x2="291" y2="523" style="stroke:blue; stroke-width:1"/>
<line x1="291" y1="523" x2="336" y2="523" style="stroke:blue; stroke-width:1"/>
<line x1="291" y1="516" x2="291" y2="508" style="stroke:blue; stroke-width:1"/>
<line x1="291" y1="508" x2="336" y2="508" style="stroke:blue; stroke-width:1"/>
<line x1="291" y1="486" x2="291" y2="478" style="stroke:blue; stroke-width:1"/>
<line x1="291" y1="478" x2="336" y2="478" style="stroke:blue; stroke-width:1"/>
<line x1="291" y1="486" x2="291" y2="493" style="stroke:blue; stroke-width:1"/>
<line x1="291" y1="493" x2="336" y2="493" style="stroke:blue; stroke-width:1"/>
<line x1="336" y1="441" x2="336" y2="448" style="stroke:blue; stroke-width:1"/>
<line x1="336" y1="448" x2="382" y2="448" style="stroke:blue; stroke-width:1"/>
<line x1="336" y1="441" x2="336" y2="434" style="stroke:blue; stroke-width:1"/>
<line x1="336" y1="434" x2="382" y2="434" style="stroke:blue; stroke-width:1"/>
<line x1="565" y1="217" x2="565" y2="210" style="stroke:blue; stroke-width:1"/>
<line x1="565" y1="210" x2="611" y2="210" style="stroke:blue; stroke-width:1"/>
<line x1="565" y1="217" x2="565" y2="225" style="stroke:blue; stroke-width:1"/>
<line x1="565" y1="225" x2="611" y2="225" style="stroke:blue; stroke-width:1"/>
<line x1="565" y1="247" x2="565" y2="255" style="stroke:blue; stroke-width:1"/>
<line x1="565" y1="255" x2="611" y2="255" style="stroke:blue; stroke-width:1"/>
<line x1="565" y1="247" x2="565" y2="240" style="stroke:blue; stroke-width:1"/>
<line x1="565" y1="240" x2="611" y2="240" style="stroke:blue; stroke-width:1"/>
<line x1="520" y1="277" x2="520" y2="270" style="stroke:blue; stroke-width:1"/>
<line x1="520" y1="270" x2="565" y2="270" style="stroke:blue; stroke-width:1"/>
<line x1="520" y1="277" x2="520" y2="284" style="stroke:blue; stroke-width:1"/>
<line x1="520" y1="284" x2="565" y2="284" style="stroke:blue; stroke-width:1"/>
<line x1="520" y1="307" x2="520" y2="314" style="stroke:blue; stroke-width:1"/>
<line x1="520" y1="314" x2="565" y2="314" style="stroke:blue; stroke-width:1"/>
<line x1="520" y1="307" x2="520" y2="299" style="stroke:blue; stroke-width:1"/>
<line x1="520" y1="299" x2="565" y2="299" style="stroke:blue; stroke-width:1"/>
<line x1="474" y1="318" x2="474" y2="329" style="stroke:blue; stroke-width:1"/>
<line x1="474" y1="329" x2="520" y2="329" style="stroke:blue; stroke-width:1"/>
<line x1="474" y1="352" x2="474" y2="344" style="stroke:blue; stroke-width:1"/>
<line x1="474" y1="344" x2="520" y2="344" style="stroke:blue; stroke-width:1"/>
<line x1="474" y1="352" x2="474" y2="359" style="stroke:blue; stroke-width:1"/>
<line x1="474" y1="359" x2="520" y2="359" style="stroke:blue; stroke-width:1"/>
<line x1="428" y1="363" x2="428" y2="374" style="stroke:blue; stroke-width:1"/>
<line x1="428" y1="374" x2="474" y2="374" style="stroke:blue; stroke-width:1"/>
<line x1="428" y1="396" x2="428" y2="389" style="stroke:blue; stroke-width:1"/>
<line x1="428" y1="389" x2="474" y2="389" style="stroke:blue; stroke-width:1"/>
<line x1="428" y1="396" x2="428" y2="404" style="stroke:blue; stroke-width:1"/>
<line x1="428" y1="404" x2="474" y2="404" style="stroke:blue; stroke-width:1"/>
<line x1="382" y1="407" x2="382" y2="419" style="stroke:blue; stroke-width:1"/>
<line x1="382" y1="419" x2="428" y2="419" style="stroke:blue; stroke-width:1"/>
<line x1="245" y1="433" x2="245" y2="463" style="stroke:blue; stroke-width:1"/>
<line x1="245" y1="463" x2="291" y2="463" style="stroke:blue; stroke-width:1"/>
<line x1="336" y1="143" x2="336" y2="150" style="stroke:blue; stroke-width:1"/>
<line x1="336" y1="150" x2="382" y2="150" style="stroke:blue; stroke-width:1"/>
<line x1="336" y1="143" x2="336" y2="135" style="stroke:blue; stroke-width:1"/>
<line x1="336" y1="135" x2="382" y2="135" style="stroke:blue; stroke-width:1"/>
<line x1="611" y1="23" x2="611" y2="31" style="stroke:blue; stroke-width:1"/>
<line x1="611" y1="31" x2="657" y2="31" style="stroke:blue; stroke-width:1"/>
<line x1="611" y1="23" x2="611" y2="16" style="stroke:blue; stroke-width:1"/>
<line x1="611" y1="16" x2="657" y2="16" style="stroke:blue; stroke-width:1"/>
<line x1="565" y1="35" x2="565" y2="46" style="stroke:blue; stroke-width:1"/>
<line x1="565" y1="46" x2="611" y2="46" style="stroke:blue; stroke-width:1"/>
<line x1="520" y1="48" x2="520" y2="61" style="stroke:blue; stroke-width:1"/>
<line x1="520" y1="61" x2="565" y2="61" style="stroke:blue; stroke-width:1"/>
<line x1="474" y1="62" x2="474" y2="76" style="stroke:blue; stroke-width:1"/>
<line x1="474" y1="76" x2="520" y2="76" style="stroke:blue; stroke-width:1"/>
<line x1="428" y1="76" x2="428" y2="91" style="stroke:blue; stroke-width:1"/>
<line x1="428" y1="91" x2="474" y2="91" style="stroke:blue; stroke-width:1"/>
<line x1="382" y1="91" x2="382" y2="105" style="stroke:blue; stroke-width:1"/>
<line x1="382" y1="105" x2="428" y2="105" style="stroke:blue; stroke-width:1"/>
<line x1="336" y1="106" x2="336" y2="120" style="stroke:blue; stroke-width:1"/>
<line x1="336" y1="120" x2="382" y2="120" style="stroke:blue; stroke-width:1"/>
<line x1="245" y1="145" x2="245" y2="165" style="stroke:blue; stroke-width:1"/>
<line x1="245" y1="165" x2="291" y2="165" style="stroke:blue; stroke-width:1"/>
<line x1="245" y1="187" x2="245" y2="195" style="stroke:blue; stroke-width:1"/>
<line x1="245" y1="195" x2="291" y2="195" style="stroke:blue; stroke-width:1"/>
<line x1="245" y1="187" x2="245" y2="180" style="stroke:blue; stroke-width:1"/>
<line x1="245" y1="180" x2="291" y2="180" style="stroke:blue; stroke-width:1"/>
<line x1="199" y1="590" x2="199" y2="598" style="stroke:blue; stroke-width:1"/>
<line x1="199" y1="598" x2="245" y2="598" style="stroke:blue; stroke-width:1"/>
<line x1="199" y1="590" x2="199" y2="583" style="stroke:blue; stroke-width:1"/>
<line x1="199" y1="583" x2="245" y2="583" style="stroke:blue; stroke-width:1"/>
<line x1="199" y1="557" x2="199" y2="545" style="stroke:blue; stroke-width:1"/>
<line x1="199" y1="545" x2="245" y2="545" style="stroke:blue; stroke-width:1"/>
<line x1="153" y1="573" x2="153" y2="557" style="stroke:blue; stroke-width:1"/>
<line x1="153" y1="557" x2="199" y2="557" style="stroke:blue; stroke-width:1"/>
<line x1="245" y1="501" x2="245" y2="516" style="stroke:blue; stroke-width:1"/>
<line x1="245" y1="516" x2="291" y2="516" style="stroke:blue; stroke-width:1"/>
<line x1="199" y1="467" x2="199" y2="501" style="stroke:blue; stroke-width:1"/>
<line x1="199" y1="501" x2="245" y2="501" style="stroke:blue; stroke-width:1"/>
<line x1="245" y1="501" x2="245" y2="486" style="stroke:blue; stroke-width:1"/>
<line x1="245" y1="486" x2="291" y2="486" style="stroke:blue; stroke-width:1"/>
<line x1="153" y1="317" x2="153" y2="467" style="stroke:blue; stroke-width:1"/>
<line x1="153" y1="467" x2="199" y2="467" style="stroke:blue; stroke-width:1"/>
<line x1="199" y1="467" x2="199" y2="433" style="stroke:blue; stroke-width:1"/>
<line x1="199" y1="433" x2="245" y2="433" style="stroke:blue; stroke-width:1"/>
<line x1="291" y1="404" x2="291" y2="441" style="stroke:blue; stroke-width:1"/>
<line x1="291" y1="441" x2="336" y2="441" style="stroke:blue; stroke-width:1"/>
<line x1="245" y1="433" x2="245" y2="404" style="stroke:blue; stroke-width:1"/>
<line x1="245" y1="404" x2="291" y2="404" style="stroke:blue; stroke-width:1"/>
<line x1="382" y1="407" x2="382" y2="396" style="stroke:blue; stroke-width:1"/>
<line x1="382" y1="396" x2="428" y2="396" style="stroke:blue; stroke-width:1"/>
<line x1="336" y1="366" x2="336" y2="407" style="stroke:blue; stroke-width:1"/>
<line x1="336" y1="407" x2="382" y2="407" style="stroke:blue; stroke-width:1"/>
<line x1="291" y1="404" x2="291" y2="366" style="stroke:blue; stroke-width:1"/>
<line x1="291" y1="366" x2="336" y2="366" style="stroke:blue; stroke-width:1"/>
<line x1="428" y1="363" x2="428" y2="352" style="stroke:blue; stroke-width:1"/>
<line x1="428" y1="352" x2="474" y2="352" style="stroke:blue; stroke-width:1"/>
<line x1="382" y1="325" x2="382" y2="363" style="stroke:blue; stroke-width:1"/>
<line x1="382" y1="363" x2="428" y2="363" style="stroke:blue; stroke-width:1"/>
<line x1="336" y1="366" x2="336" y2="325" style="stroke:blue; stroke-width:1"/>
<line x1="336" y1="325" x2="382" y2="325" style="stroke:blue; stroke-width:1"/>
<line x1="520" y1="232" x2="520" y2="247" style="stroke:blue; stroke-width:1"/>
<line x1="520" y1="247" x2="565" y2="247" style="stroke:blue; stroke-width:1"/>
<line x1="474" y1="255" x2="474" y2="232" style="stroke:blue; stroke-width:1"/>
<line x1="474" y1="232" x2="520" y2="232" style="stroke:blue; stroke-width:1"/>
<line x1="520" y1="232" x2="520" y2="217" style="stroke:blue; stroke-width:1"/>
<line x1="520" y1="217" x2="565" y2="217" style="stroke:blue; stroke-width:1"/>
<line x1="428" y1="286" x2="428" y2="255" style="stroke:blue; stroke-width:1"/>
<line x1="428" y1="255" x2="474" y2="255" style="stroke:blue; stroke-width:1"/>
<line x1="474" y1="255" x2="474" y2="277" style="stroke:blue; stroke-width:1"/>
<line x1="474" y1="277" x2="520" y2="277" style="stroke:blue; stroke-width:1"/>
<line x1="382" y1="325" x2="382" y2="286" style="stroke:blue; stroke-width:1"/>
<line x1="382" y1="286" x2="428" y2="286" style="stroke:blue; stroke-width:1"/>
<line x1="428" y1="286" x2="428" y2="318" style="stroke:blue; stroke-width:1"/>
<line x1="428" y1="318" x2="474" y2="318" style="stroke:blue; stroke-width:1"/>
<line x1="474" y1="318" x2="474" y2="307" style="stroke:blue; stroke-width:1"/>
<line x1="474" y1="307" x2="520" y2="307" style="stroke:blue; stroke-width:1"/>
<line x1="108" y1="445" x2="108" y2="317" style="stroke:blue; stroke-width:1"/>
<line x1="108" y1="317" x2="153" y2="317" style="stroke:blue; stroke-width:1"/>
<line x1="199" y1="166" x2="199" y2="145" style="stroke:blue; stroke-width:1"/>
<line x1="199" y1="145" x2="245" y2="145" style="stroke:blue; stroke-width:1"/>
<line x1="291" y1="124" x2="291" y2="143" style="stroke:blue; stroke-width:1"/>
<line x1="291" y1="143" x2="336" y2="143" style="stroke:blue; stroke-width:1"/>
<line x1="245" y1="145" x2="245" y2="124" style="stroke:blue; stroke-width:1"/>
<line x1="245" y1="124" x2="291" y2="124" style="stroke:blue; stroke-width:1"/>
<line x1="291" y1="124" x2="291" y2="106" style="stroke:blue; stroke-width:1"/>
<line x1="291" y1="106" x2="336" y2="106" style="stroke:blue; stroke-width:1"/>
<line x1="336" y1="106" x2="336" y2="91" style="stroke:blue; stroke-width:1"/>
<line x1="336" y1="91" x2="382" y2="91" style="stroke:blue; stroke-width:1"/>
<line x1="382" y1="91" x2="382" y2="76" style="stroke:blue; stroke-width:1"/>
<line x1="382" y1="76" x2="428" y2="76" style="stroke:blue; stroke-width:1"/>
<line x1="428" y1="76" x2="428" y2="62" style="stroke:blue; stroke-width:1"/>
<line x1="428" y1="62" x2="474" y2="62" style="stroke:blue; stroke-width:1"/>
<line x1="520" y1="48" x2="520" y2="35" style="stroke:blue; stroke-width:1"/>
<line x1="520" y1="35" x2="565" y2="35" style="stroke:blue; stroke-width:1"/>
<line x1="565" y1="35" x2="565" y2="23" style="stroke:blue; stroke-width:1"/>
<line x1="565" y1="23" x2="611" y2="23" style="stroke:blue; stroke-width:1"/>
<line x1="474" y1="62" x2="474" y2="48" style="stroke:blue; stroke-width:1"/>
<line x1="474" y1="48" x2="520" y2="48" style="stroke:blue; stroke-width:1"/>
<line x1="153" y1="317" x2="153" y2="166" style="stroke:blue; stroke-width:1"/>
<line x1="153" y1="166" x2="199" y2="166" style="stroke:blue; stroke-width:1"/>
<line x1="199" y1="166" x2="199" y2="187" style="stroke:blue; stroke-width:1"/>
<line x1="199" y1="187" x2="245" y2="187" style="stroke:blue; stroke-width:1"/>
<line x1="62" y1="556" x2="62" y2="445" style="stroke:blue; stroke-width:1"/>
<line x1="62" y1="445" x2="108" y2="445" style="stroke:blue; stroke-width:1"/>
<line x1="108" y1="668" x2="108" y2="691" style="stroke:blue; stroke-width:1"/>
<line x1="108" y1="691" x2="153" y2="691" style="stroke:blue; stroke-width:1"/>
<line x1="153" y1="691" x2="153" y2="680" style="stroke:blue; stroke-width:1"/>
<line x1="153" y1="680" x2="199" y2="680" style="stroke:blue; stroke-width:1"/>
<line x1="62" y1="556" x2="62" y2="668" style="stroke:blue; stroke-width:1"/>
<line x1="62" y1="668" x2="108" y2="668" style="stroke:blue; stroke-width:1"/>
<line x1="199" y1="631" x2="199" y2="620" style="stroke:blue; stroke-width:1"/>
<line x1="199" y1="620" x2="245" y2="620" style="stroke:blue; stroke-width:1"/>
<line x1="153" y1="644" x2="153" y2="631" style="stroke:blue; stroke-width:1"/>
<line x1="153" y1="631" x2="199" y2="631" style="stroke:blue; stroke-width:1"/>
<line x1="108" y1="668" x2="108" y2="644" style="stroke:blue; stroke-width:1"/>
<line x1="108" y1="644" x2="153" y2="644" style="stroke:blue; stroke-width:1"/>
<line x1="108" y1="445" x2="108" y2="573" style="stroke:blue; stroke-width:1"/>
<line x1="108" y1="573" x2="153" y2="573" style="stroke:blue; stroke-width:1"/>
<line x1="153" y1="573" x2="153" y2="590" style="stroke:blue; stroke-width:1"/>
<line x1="153" y1="590" x2="199" y2="590" style="stroke:blue; stroke-width:1"/>
<line x1="16" y1="556" x2="16" y2="556" style="stroke:blue; stroke-width:1"/>
<line x1="16" y1="556" x2="62" y2="556" style="stroke:blue; stroke-width:1"/>
<text x="20" y="550" font-weight = "10" font-family="verdana" fill="black" font-size="15">Root</text>
<text x="203" y="706" font-weight = "10" font-family="verdana" fill="black" font-size="15">KJ473795-AB085735</text>
<text x="249" y="691" font-weight = "10" font-family="verdana" fill="black" font-size="15">KJ473796-AB085735</text>
<text x="249" y="676" font-weight = "10" font-family="verdana" fill="black" font-size="15">EU420138-ON640726</text>
<text x="203" y="661" font-weight = "10" font-family="verdana" fill="black" font-size="15">KJ473797-AB085735</text>
<text x="249" y="646" font-weight = "10" font-family="verdana" fill="black" font-size="15">KJ473800-AB085735</text>
<text x="295" y="631" font-weight = "10" font-family="verdana" fill="black" font-size="15">KJ473798-AB085735</text>
<text x="295" y="617" font-weight = "10" font-family="verdana" fill="black" font-size="15">KJ473799-AB085735</text>
<text x="249" y="602" font-weight = "10" font-family="verdana" fill="black" font-size="15">NC_014470-MZ936290</text>
<text x="249" y="587" font-weight = "10" font-family="verdana" fill="black" font-size="15">GU190215-MZ936290</text>
<text x="249" y="572" font-weight = "10" font-family="verdana" fill="black" font-size="15">MN996532-KP972690</text>
<text x="295" y="557" font-weight = "10" font-family="verdana" fill="black" font-size="15">MG772934-HM134917</text>
<text x="295" y="542" font-weight = "10" font-family="verdana" fill="black" font-size="15">MG772933-HM134917</text>
<text x="340" y="527" font-weight = "10" font-family="verdana" fill="black" font-size="15">DQ412043-KX261916</text>
<text x="340" y="512" font-weight = "10" font-family="verdana" fill="black" font-size="15">DQ648857-KX261916</text>
<text x="340" y="497" font-weight = "10" font-family="verdana" fill="black" font-size="15">KJ473814-HM134917</text>
<text x="340" y="482" font-weight = "10" font-family="verdana" fill="black" font-size="15">JX993987-ON012504</text>
<text x="295" y="467" font-weight = "10" font-family="verdana" fill="black" font-size="15">KJ473815-HM134917</text>
<text x="386" y="452" font-weight = "10" font-family="verdana" fill="black" font-size="15">KY417147-HM134917</text>
<text x="386" y="438" font-weight = "10" font-family="verdana" fill="black" font-size="15">KY417148-HM134917</text>
<text x="432" y="423" font-weight = "10" font-family="verdana" fill="black" font-size="15">FJ588686-HM134917</text>
<text x="478" y="408" font-weight = "10" font-family="verdana" fill="black" font-size="15">KY417143-HM134917</text>
<text x="478" y="393" font-weight = "10" font-family="verdana" fill="black" font-size="15">KY417149-HM134917</text>
<text x="478" y="378" font-weight = "10" font-family="verdana" fill="black" font-size="15">KJ473816-HM134917</text>
<text x="524" y="363" font-weight = "10" font-family="verdana" fill="black" font-size="15">KY770859-HM134917</text>
<text x="524" y="348" font-weight = "10" font-family="verdana" fill="black" font-size="15">KY770858-HM134917</text>
<text x="524" y="333" font-weight = "10" font-family="verdana" fill="black" font-size="15">KY417146-HM134917</text>
<text x="569" y="318" font-weight = "10" font-family="verdana" fill="black" font-size="15">KT444582-HM134917</text>
<text x="569" y="303" font-weight = "10" font-family="verdana" fill="black" font-size="15">KY417150-HM134917</text>
<text x="569" y="288" font-weight = "10" font-family="verdana" fill="black" font-size="15">KY417152-HM134917</text>
<text x="569" y="274" font-weight = "10" font-family="verdana" fill="black" font-size="15">KY417151-HM134917</text>
<text x="615" y="259" font-weight = "10" font-family="verdana" fill="black" font-size="15">KF367457-HM134917</text>
<text x="615" y="244" font-weight = "10" font-family="verdana" fill="black" font-size="15">KC881006-HM134917</text>
<text x="615" y="229" font-weight = "10" font-family="verdana" fill="black" font-size="15">KC881005-HM134917</text>
<text x="615" y="214" font-weight = "10" font-family="verdana" fill="black" font-size="15">KY417144-HM134917</text>
<text x="295" y="199" font-weight = "10" font-family="verdana" fill="black" font-size="15">GQ153543-HM134917</text>
<text x="295" y="184" font-weight = "10" font-family="verdana" fill="black" font-size="15">GQ153542-HM134917</text>
<text x="295" y="169" font-weight = "10" font-family="verdana" fill="black" font-size="15">GQ153547-HM134917</text>
<text x="386" y="154" font-weight = "10" font-family="verdana" fill="black" font-size="15">DQ084200-HM134917</text>
<text x="386" y="139" font-weight = "10" font-family="verdana" fill="black" font-size="15">DQ022305-HM134917</text>
<text x="386" y="124" font-weight = "10" font-family="verdana" fill="black" font-size="15">DQ084199-HM134917</text>
<text x="432" y="109" font-weight = "10" font-family="verdana" fill="black" font-size="15">GQ153541-HM134917</text>
<text x="478" y="95" font-weight = "10" font-family="verdana" fill="black" font-size="15">GQ153539-HM134917</text>
<text x="524" y="80" font-weight = "10" font-family="verdana" fill="black" font-size="15">GQ153540-HM134917</text>
<text x="569" y="65" font-weight = "10" font-family="verdana" fill="black" font-size="15">GQ153548-HM134917</text>
<text x="615" y="50" font-weight = "10" font-family="verdana" fill="black" font-size="15">GQ153546-HM134917</text>
<text x="661" y="35" font-weight = "10" font-family="verdana" fill="black" font-size="15">GQ153545-HM134917</text>
<text x="661" y="20" font-weight = "10" font-family="verdana" fill="black" font-size="15">GQ153544-HM134917</text>
<line x1="313.60714285714" y1="493.21739130435" x2="272.31391400232" y2="513.39205910882" style="stroke:red; stroke-width:1;stroke-dasharray: 5, 5"/>
<line x1="270.1190165894" y1="508.89957367793" x2="274.50881141524" y2="517.88454453971" style="stroke:red; stroke-width:1"/>
<line x1="270.1190165894" y1="508.89957367793" x2="267.82142857143" y2="515.58695652174" style="stroke:red; stroke-width:1"/>
<line x1="267.82142857143" y1="515.58695652174" x2="274.50881141524" y2="517.88454453971" style="stroke:red; stroke-width:1"/>
<text x="290.71428571429" y="504.40217391304" font-weight = "10" font-family="verdana" fill="red" font-size="15">2</text>
<line x1="542.53571428571" y1="60.739130434783" x2="583.56725688793" y2="47.37458674789" style="stroke:red; stroke-width:1;stroke-dasharray: 5, 5"/>
<line x1="585.1157566793" y1="52.128758431383" x2="582.01875709657" y2="42.620415064396" style="stroke:red; stroke-width:1"/>
<line x1="585.1157566793" y1="52.128758431383" x2="588.32142857143" y2="45.826086956522" style="stroke:red; stroke-width:1"/>
<line x1="588.32142857143" y1="45.826086956522" x2="582.01875709657" y2="42.620415064396" style="stroke:red; stroke-width:1"/>
<text x="565.42857142857" y="53.282608695652" font-weight = "10" font-family="verdana" fill="red" font-size="15">3</text>
<line x1="450.96428571429" y1="403.73913043478" x2="364.14702882635" y2="432.01671759994" style="stroke:red; stroke-width:1;stroke-dasharray: 5, 5"/>
<line x1="362.59852903498" y1="427.26254591644" x2="365.69552861772" y2="436.77088928343" style="stroke:red; stroke-width:1"/>
<line x1="362.59852903498" y1="427.26254591644" x2="359.39285714286" y2="433.5652173913" style="stroke:red; stroke-width:1"/>
<line x1="359.39285714286" y1="433.5652173913" x2="365.69552861772" y2="436.77088928343" style="stroke:red; stroke-width:1"/>
<text x="405.17857142857" y="418.65217391304" font-weight = "10" font-family="verdana" fill="red" font-size="15">4</text>
<line x1="542.53571428571" y1="247.15217391304" x2="542.53571428571" y2="279.4347826087" style="stroke:red; stroke-width:1;stroke-dasharray: 5, 5"/>
<line x1="537.53571428571" y1="279.4347826087" x2="547.53571428571" y2="279.4347826087" style="stroke:red; stroke-width:1"/>
<line x1="537.53571428571" y1="279.4347826087" x2="542.53571428571" y2="284.4347826087" style="stroke:red; stroke-width:1"/>
<line x1="542.53571428571" y1="284.4347826087" x2="547.53571428571" y2="279.4347826087" style="stroke:red; stroke-width:1"/>
<text x="542.53571428571" y="265.79347826087" font-weight = "10" font-family="verdana" fill="red" font-size="15">5</text>
<line x1="496.75" y1="75.652173913043" x2="318.30188628014" y2="141.04058348661" style="stroke:red; stroke-width:1;stroke-dasharray: 5, 5"/>
<line x1="316.58160020153" y1="136.34584006362" x2="320.02217235874" y2="145.73532690961" style="stroke:red; stroke-width:1"/>
<line x1="316.58160020153" y1="136.34584006362" x2="313.60714285714" y2="142.76086956522" style="stroke:red; stroke-width:1"/>
<line x1="313.60714285714" y1="142.76086956522" x2="320.02217235874" y2="145.73532690961" style="stroke:red; stroke-width:1"/>
<text x="405.17857142857" y="109.20652173913" font-weight = "10" font-family="verdana" fill="red" font-size="15">6</text>
<line x1="450.96428571429" y1="403.73913043478" x2="494.61455067061" y2="311.32539374065" style="stroke:red; stroke-width:1;stroke-dasharray: 5, 5"/>
<line x1="499.13559658517" y1="313.46084307004" x2="490.09350475604" y2="309.18994441126" style="stroke:red; stroke-width:1"/>
<line x1="499.13559658517" y1="313.46084307004" x2="496.75" y2="306.80434782609" style="stroke:red; stroke-width:1"/>
<line x1="496.75" y1="306.80434782609" x2="490.09350475604" y2="309.18994441126" style="stroke:red; stroke-width:1"/>
<text x="473.85714285714" y="355.27173913043" font-weight = "10" font-family="verdana" fill="red" font-size="15">7</text>
<line x1="359.39285714286" y1="448.47826086957" x2="539.17115210938" y2="250.85078464704" style="stroke:red; stroke-width:1;stroke-dasharray: 5, 5"/>
<line x1="542.86976284338" y1="254.21534682337" x2="535.47254137539" y2="247.48622247071" style="stroke:red; stroke-width:1"/>
<line x1="542.86976284338" y1="254.21534682337" x2="542.53571428571" y2="247.15217391304" style="stroke:red; stroke-width:1"/>
<line x1="542.53571428571" y1="247.15217391304" x2="535.47254137539" y2="247.48622247071" style="stroke:red; stroke-width:1"/>
<text x="450.96428571429" y="347.8152173913" font-weight = "10" font-family="verdana" fill="red" font-size="15">8</text>
<line x1="496.75" y1="329.17391304348" x2="409.21151371187" y2="393.32704165368" style="stroke:red; stroke-width:1;stroke-dasharray: 5, 5"/>
<line x1="406.25594666989" y1="389.29409937038" x2="412.16708075384" y2="397.35998393697" style="stroke:red; stroke-width:1"/>
<line x1="406.25594666989" y1="389.29409937038" x2="405.17857142857" y2="396.28260869565" style="stroke:red; stroke-width:1"/>
<line x1="405.17857142857" y1="396.28260869565" x2="412.16708075384" y2="397.35998393697" style="stroke:red; stroke-width:1"/>
<text x="450.96428571429" y="362.72826086957" font-weight = "10" font-family="verdana" fill="red" font-size="15">9</text>
<line x1="496.75" y1="75.652173913043" x2="409.93274311207" y2="103.9297610782" style="stroke:red; stroke-width:1;stroke-dasharray: 5, 5"/>
<line x1="408.3842433207" y1="99.175589394704" x2="411.48124290343" y2="108.68393276169" style="stroke:red; stroke-width:1"/>
<line x1="408.3842433207" y1="99.175589394704" x2="405.17857142857" y2="105.47826086957" style="stroke:red; stroke-width:1"/>
<line x1="405.17857142857" y1="105.47826086957" x2="411.48124290343" y2="108.68393276169" style="stroke:red; stroke-width:1"/>
<text x="450.96428571429" y="90.565217391304" font-weight = "10" font-family="verdana" fill="red" font-size="15">10</text>
<line x1="359.39285714286" y1="448.47826086957" x2="492.97511351491" y2="332.45266768887" style="stroke:red; stroke-width:1;stroke-dasharray: 5, 5"/>
<line x1="496.25386816031" y1="336.22755417396" x2="489.69635886952" y2="328.67778120378" style="stroke:red; stroke-width:1"/>
<line x1="496.25386816031" y1="336.22755417396" x2="496.75" y2="329.17391304348" style="stroke:red; stroke-width:1"/>
<line x1="496.75" y1="329.17391304348" x2="489.69635886952" y2="328.67778120378" style="stroke:red; stroke-width:1"/>
<text x="428.07142857143" y="388.82608695652" font-weight = "10" font-family="verdana" fill="red" font-size="15">11</text>
<line x1="359.39285714286" y1="448.47826086957" x2="538.95954404565" y2="273.01616417815" style="stroke:red; stroke-width:1;stroke-dasharray: 5, 5"/>
<line x1="542.45396909336" y1="276.59233441821" x2="535.46511899794" y2="269.43999393808" style="stroke:red; stroke-width:1"/>
<line x1="542.45396909336" y1="276.59233441821" x2="542.53571428571" y2="269.52173913043" style="stroke:red; stroke-width:1"/>
<line x1="542.53571428571" y1="269.52173913043" x2="535.46511899794" y2="269.43999393808" style="stroke:red; stroke-width:1"/>
<text x="450.96428571429" y="359" font-weight = "10" font-family="verdana" fill="red" font-size="15">12</text>
<line x1="359.39285714286" y1="448.47826086957" x2="447.53073382029" y2="355.17813386921" style="stroke:red; stroke-width:1;stroke-dasharray: 5, 5"/>
<line x1="451.16538942862" y1="358.61168576321" x2="443.89607821195" y2="351.74458197521" style="stroke:red; stroke-width:1"/>
<line x1="451.16538942862" y1="358.61168576321" x2="450.96428571429" y2="351.54347826087" style="stroke:red; stroke-width:1"/>
<line x1="450.96428571429" y1="351.54347826087" x2="443.89607821195" y2="351.74458197521" style="stroke:red; stroke-width:1"/>
<text x="405.17857142857" y="400.01086956522" font-weight = "10" font-family="verdana" fill="red" font-size="15">13</text>
<line x1="405.17857142857" y1="418.65217391304" x2="363.58233981277" y2="445.74911540651" style="stroke:red; stroke-width:1;stroke-dasharray: 5, 5"/>
<line x1="360.85319434971" y1="441.5596327366" x2="366.31148527582" y2="449.93859807642" style="stroke:red; stroke-width:1"/>
<line x1="360.85319434971" y1="441.5596327366" x2="359.39285714286" y2="448.47826086957" style="stroke:red; stroke-width:1"/>
<line x1="359.39285714286" y1="448.47826086957" x2="366.31148527582" y2="449.93859807642" style="stroke:red; stroke-width:1"/>
<text x="382.28571428571" y="433.5652173913" font-weight = "10" font-family="verdana" fill="red" font-size="15">14</text>
<line x1="405.17857142857" y1="418.65217391304" x2="584.88787667743" y2="228.41726430399" style="stroke:red; stroke-width:1;stroke-dasharray: 5, 5"/>
<line x1="588.52253228577" y1="231.85081619799" x2="581.25322106909" y2="224.98371240999" style="stroke:red; stroke-width:1"/>
<line x1="588.52253228577" y1="231.85081619799" x2="588.32142857143" y2="224.78260869565" style="stroke:red; stroke-width:1"/>
<line x1="588.32142857143" y1="224.78260869565" x2="581.25322106909" y2="224.98371240999" style="stroke:red; stroke-width:1"/>
<text x="496.75" y="321.71739130435" font-weight = "10" font-family="verdana" fill="red" font-size="15">15</text>
<line x1="450.96428571429" y1="373.91304347826" x2="408.75474166864" y2="415.15774886533" style="stroke:red; stroke-width:1;stroke-dasharray: 5, 5"/>
<line x1="405.26031662093" y1="411.58157862527" x2="412.24916671635" y2="418.7339191054" style="stroke:red; stroke-width:1"/>
<line x1="405.26031662093" y1="411.58157862527" x2="405.17857142857" y2="418.65217391304" style="stroke:red; stroke-width:1"/>
<line x1="405.17857142857" y1="418.65217391304" x2="412.24916671635" y2="418.7339191054" style="stroke:red; stroke-width:1"/>
<text x="428.07142857143" y="396.28260869565" font-weight = "10" font-family="verdana" fill="red" font-size="15">16</text>
<line x1="496.75" y1="75.652173913043" x2="364.14702882635" y2="118.84280455646" style="stroke:red; stroke-width:1;stroke-dasharray: 5, 5"/>
<line x1="362.59852903498" y1="114.08863287296" x2="365.69552861772" y2="123.59697623995" style="stroke:red; stroke-width:1"/>
<line x1="362.59852903498" y1="114.08863287296" x2="359.39285714286" y2="120.39130434783" style="stroke:red; stroke-width:1"/>
<line x1="359.39285714286" y1="120.39130434783" x2="365.69552861772" y2="123.59697623995" style="stroke:red; stroke-width:1"/>
<text x="428.07142857143" y="98.021739130435" font-weight = "10" font-family="verdana" fill="red" font-size="15">17</text>
<line x1="267.82142857143" y1="165.13043478261" x2="492.0930789997" y2="77.472362583744" style="stroke:red; stroke-width:1;stroke-dasharray: 5, 5"/>
<line x1="493.9132676704" y1="82.129283584046" x2="490.272890329" y2="72.815441583442" style="stroke:red; stroke-width:1"/>
<line x1="493.9132676704" y1="82.129283584046" x2="496.75" y2="75.652173913043" style="stroke:red; stroke-width:1"/>
<line x1="496.75" y1="75.652173913043" x2="490.272890329" y2="72.815441583442" style="stroke:red; stroke-width:1"/>
<text x="382.28571428571" y="120.39130434783" font-weight = "10" font-family="verdana" fill="red" font-size="15">18</text>
<line x1="267.82142857143" y1="165.13043478261" x2="446.33339518562" y2="92.450649148633" style="stroke:red; stroke-width:1;stroke-dasharray: 5, 5"/>
<line x1="448.21882694295" y1="97.081539677296" x2="444.44796342829" y2="87.81975861997" style="stroke:red; stroke-width:1"/>
<line x1="448.21882694295" y1="97.081539677296" x2="450.96428571429" y2="90.565217391304" style="stroke:red; stroke-width:1"/>
<line x1="450.96428571429" y1="90.565217391304" x2="444.44796342829" y2="87.81975861997" style="stroke:red; stroke-width:1"/>
<text x="359.39285714286" y="127.84782608696" font-weight = "10" font-family="verdana" fill="red" font-size="15">19</text>
<line x1="176.25" y1="590.15217391304" x2="131.28958727919" y2="321.50060470522" style="stroke:red; stroke-width:1;stroke-dasharray: 5, 5"/>
<line x1="136.22100465424" y1="320.67530314031" x2="126.35816990414" y2="322.32590627012" style="stroke:red; stroke-width:1"/>
<line x1="136.22100465424" y1="320.67530314031" x2="130.46428571429" y2="316.56918733016" style="stroke:red; stroke-width:1"/>
<line x1="130.46428571429" y1="316.56918733016" x2="126.35816990414" y2="322.32590627012" style="stroke:red; stroke-width:1"/>
<text x="153.35714285714" y="453.3606806216" font-weight = "10" font-family="verdana" fill="red" font-size="15">20</text>
<line x1="267.82142857143" y1="612.52173913043" x2="226.22519695563" y2="639.6186806239" style="stroke:red; stroke-width:1;stroke-dasharray: 5, 5"/>
<line x1="223.49605149257" y1="635.42919795399" x2="228.95434241868" y2="643.80816329381" style="stroke:red; stroke-width:1"/>
<line x1="223.49605149257" y1="635.42919795399" x2="222.03571428571" y2="642.34782608696" style="stroke:red; stroke-width:1"/>
<line x1="222.03571428571" y1="642.34782608696" x2="228.95434241868" y2="643.80816329381" style="stroke:red; stroke-width:1"/>
<text x="244.92857142857" y="627.4347826087" font-weight = "10" font-family="verdana" fill="red" font-size="15">1</text>
</g></svg>