<?xml version="1.0" encoding="iso-8859-1"?>
<!DOCTYPE svg PUBLIC "-//W3C//DTD SVG 1.0//EN" "http://www.w3.org/TR/2001/REC-SVG-20010904/DTD/svg10.dtd">
<svg width="823" height="899" xmlns="http://www.w3.org/2000/svg" xmlns:xlink="http://www.w3.org/1999/xlink">
<g style="stroke:black;fill:lightgreen" transform="translate(30,30)">
<line x1="245" y1="662" x2="245" y2="653" style="stroke:blue; stroke-width:1"/>
<line x1="245" y1="653" x2="291" y2="653" style="stroke:blue; stroke-width:1"/>
<line x1="245" y1="662" x2="245" y2="671" style="stroke:blue; stroke-width:1"/>
<line x1="245" y1="671" x2="291" y2="671" style="stroke:blue; stroke-width:1"/>
<line x1="199" y1="676" x2="199" y2="689" style="stroke:blue; stroke-width:1"/>
<line x1="199" y1="689" x2="245" y2="689" style="stroke:blue; stroke-width:1"/>
<line x1="199" y1="826" x2="199" y2="835" style="stroke:blue; stroke-width:1"/>
<line x1="199" y1="835" x2="245" y2="835" style="stroke:blue; stroke-width:1"/>
<line x1="199" y1="826" x2="199" y2="817" style="stroke:blue; stroke-width:1"/>
<line x1="199" y1="817" x2="245" y2="817" style="stroke:blue; stroke-width:1"/>
<line x1="153" y1="839" x2="153" y2="853" style="stroke:blue; stroke-width:1"/>
<line x1="153" y1="853" x2="199" y2="853" style="stroke:blue; stroke-width:1"/>
<line x1="245" y1="753" x2="245" y2="762" style="stroke:blue; stroke-width:1"/>
<line x1="245" y1="762" x2="291" y2="762" style="stroke:blue; stroke-width:1"/>
<line x1="245" y1="753" x2="245" y2="744" style="stroke:blue; stroke-width:1"/>
<line x1="245" y1="744" x2="291" y2="744" style="stroke:blue; stroke-width:1"/>
<line x1="199" y1="767" x2="199" y2="780" style="stroke:blue; stroke-width:1"/>
<line x1="199" y1="780" x2="245" y2="780" style="stroke:blue; stroke-width:1"/>
<line x1="153" y1="782" x2="153" y2="798" style="stroke:blue; stroke-width:1"/>
<line x1="153" y1="798" x2="199" y2="798" style="stroke:blue; stroke-width:1"/>
<line x1="291" y1="626" x2="291" y2="635" style="stroke:blue; stroke-width:1"/>
<line x1="291" y1="635" x2="336" y2="635" style="stroke:blue; stroke-width:1"/>
<line x1="291" y1="626" x2="291" y2="616" style="stroke:blue; stroke-width:1"/>
<line x1="291" y1="616" x2="336" y2="616" style="stroke:blue; stroke-width:1"/>
<line x1="291" y1="589" x2="291" y2="580" style="stroke:blue; stroke-width:1"/>
<line x1="291" y1="580" x2="336" y2="580" style="stroke:blue; stroke-width:1"/>
<line x1="291" y1="589" x2="291" y2="598" style="stroke:blue; stroke-width:1"/>
<line x1="291" y1="598" x2="336" y2="598" style="stroke:blue; stroke-width:1"/>
<line x1="336" y1="535" x2="336" y2="544" style="stroke:blue; stroke-width:1"/>
<line x1="336" y1="544" x2="382" y2="544" style="stroke:blue; stroke-width:1"/>
<line x1="336" y1="535" x2="336" y2="525" style="stroke:blue; stroke-width:1"/>
<line x1="336" y1="525" x2="382" y2="525" style="stroke:blue; stroke-width:1"/>
<line x1="565" y1="262" x2="565" y2="253" style="stroke:blue; stroke-width:1"/>
<line x1="565" y1="253" x2="611" y2="253" style="stroke:blue; stroke-width:1"/>
<line x1="565" y1="262" x2="565" y2="271" style="stroke:blue; stroke-width:1"/>
<line x1="565" y1="271" x2="611" y2="271" style="stroke:blue; stroke-width:1"/>
<line x1="565" y1="298" x2="565" y2="307" style="stroke:blue; stroke-width:1"/>
<line x1="565" y1="307" x2="611" y2="307" style="stroke:blue; stroke-width:1"/>
<line x1="565" y1="298" x2="565" y2="289" style="stroke:blue; stroke-width:1"/>
<line x1="565" y1="289" x2="611" y2="289" style="stroke:blue; stroke-width:1"/>
<line x1="520" y1="334" x2="520" y2="325" style="stroke:blue; stroke-width:1"/>
<line x1="520" y1="325" x2="565" y2="325" style="stroke:blue; stroke-width:1"/>
<line x1="520" y1="334" x2="520" y2="344" style="stroke:blue; stroke-width:1"/>
<line x1="520" y1="344" x2="565" y2="344" style="stroke:blue; stroke-width:1"/>
<line x1="520" y1="371" x2="520" y2="380" style="stroke:blue; stroke-width:1"/>
<line x1="520" y1="380" x2="565" y2="380" style="stroke:blue; stroke-width:1"/>
<line x1="520" y1="371" x2="520" y2="362" style="stroke:blue; stroke-width:1"/>
<line x1="520" y1="362" x2="565" y2="362" style="stroke:blue; stroke-width:1"/>
<line x1="474" y1="384" x2="474" y2="398" style="stroke:blue; stroke-width:1"/>
<line x1="474" y1="398" x2="520" y2="398" style="stroke:blue; stroke-width:1"/>
<line x1="474" y1="425" x2="474" y2="416" style="stroke:blue; stroke-width:1"/>
<line x1="474" y1="416" x2="520" y2="416" style="stroke:blue; stroke-width:1"/>
<line x1="474" y1="425" x2="474" y2="434" style="stroke:blue; stroke-width:1"/>
<line x1="474" y1="434" x2="520" y2="434" style="stroke:blue; stroke-width:1"/>
<line x1="428" y1="439" x2="428" y2="453" style="stroke:blue; stroke-width:1"/>
<line x1="428" y1="453" x2="474" y2="453" style="stroke:blue; stroke-width:1"/>
<line x1="428" y1="480" x2="428" y2="471" style="stroke:blue; stroke-width:1"/>
<line x1="428" y1="471" x2="474" y2="471" style="stroke:blue; stroke-width:1"/>
<line x1="428" y1="480" x2="428" y2="489" style="stroke:blue; stroke-width:1"/>
<line x1="428" y1="489" x2="474" y2="489" style="stroke:blue; stroke-width:1"/>
<line x1="382" y1="494" x2="382" y2="507" style="stroke:blue; stroke-width:1"/>
<line x1="382" y1="507" x2="428" y2="507" style="stroke:blue; stroke-width:1"/>
<line x1="245" y1="525" x2="245" y2="562" style="stroke:blue; stroke-width:1"/>
<line x1="245" y1="562" x2="291" y2="562" style="stroke:blue; stroke-width:1"/>
<line x1="336" y1="171" x2="336" y2="180" style="stroke:blue; stroke-width:1"/>
<line x1="336" y1="180" x2="382" y2="180" style="stroke:blue; stroke-width:1"/>
<line x1="336" y1="171" x2="336" y2="162" style="stroke:blue; stroke-width:1"/>
<line x1="336" y1="162" x2="382" y2="162" style="stroke:blue; stroke-width:1"/>
<line x1="611" y1="25" x2="611" y2="34" style="stroke:blue; stroke-width:1"/>
<line x1="611" y1="34" x2="657" y2="34" style="stroke:blue; stroke-width:1"/>
<line x1="611" y1="25" x2="611" y2="16" style="stroke:blue; stroke-width:1"/>
<line x1="611" y1="16" x2="657" y2="16" style="stroke:blue; stroke-width:1"/>
<line x1="565" y1="39" x2="565" y2="52" style="stroke:blue; stroke-width:1"/>
<line x1="565" y1="52" x2="611" y2="52" style="stroke:blue; stroke-width:1"/>
<line x1="520" y1="55" x2="520" y2="71" style="stroke:blue; stroke-width:1"/>
<line x1="520" y1="71" x2="565" y2="71" style="stroke:blue; stroke-width:1"/>
<line x1="474" y1="72" x2="474" y2="89" style="stroke:blue; stroke-width:1"/>
<line x1="474" y1="89" x2="520" y2="89" style="stroke:blue; stroke-width:1"/>
<line x1="428" y1="89" x2="428" y2="107" style="stroke:blue; stroke-width:1"/>
<line x1="428" y1="107" x2="474" y2="107" style="stroke:blue; stroke-width:1"/>
<line x1="382" y1="107" x2="382" y2="125" style="stroke:blue; stroke-width:1"/>
<line x1="382" y1="125" x2="428" y2="125" style="stroke:blue; stroke-width:1"/>
<line x1="336" y1="125" x2="336" y2="143" style="stroke:blue; stroke-width:1"/>
<line x1="336" y1="143" x2="382" y2="143" style="stroke:blue; stroke-width:1"/>
<line x1="245" y1="173" x2="245" y2="198" style="stroke:blue; stroke-width:1"/>
<line x1="245" y1="198" x2="291" y2="198" style="stroke:blue; stroke-width:1"/>
<line x1="245" y1="225" x2="245" y2="234" style="stroke:blue; stroke-width:1"/>
<line x1="245" y1="234" x2="291" y2="234" style="stroke:blue; stroke-width:1"/>
<line x1="245" y1="225" x2="245" y2="216" style="stroke:blue; stroke-width:1"/>
<line x1="245" y1="216" x2="291" y2="216" style="stroke:blue; stroke-width:1"/>
<line x1="199" y1="717" x2="199" y2="726" style="stroke:blue; stroke-width:1"/>
<line x1="199" y1="726" x2="245" y2="726" style="stroke:blue; stroke-width:1"/>
<line x1="199" y1="717" x2="199" y2="707" style="stroke:blue; stroke-width:1"/>
<line x1="199" y1="707" x2="245" y2="707" style="stroke:blue; stroke-width:1"/>
<line x1="199" y1="676" x2="199" y2="662" style="stroke:blue; stroke-width:1"/>
<line x1="199" y1="662" x2="245" y2="662" style="stroke:blue; stroke-width:1"/>
<line x1="153" y1="696" x2="153" y2="676" style="stroke:blue; stroke-width:1"/>
<line x1="153" y1="676" x2="199" y2="676" style="stroke:blue; stroke-width:1"/>
<line x1="245" y1="607" x2="245" y2="626" style="stroke:blue; stroke-width:1"/>
<line x1="245" y1="626" x2="291" y2="626" style="stroke:blue; stroke-width:1"/>
<line x1="199" y1="566" x2="199" y2="607" style="stroke:blue; stroke-width:1"/>
<line x1="199" y1="607" x2="245" y2="607" style="stroke:blue; stroke-width:1"/>
<line x1="245" y1="607" x2="245" y2="589" style="stroke:blue; stroke-width:1"/>
<line x1="245" y1="589" x2="291" y2="589" style="stroke:blue; stroke-width:1"/>
<line x1="153" y1="383" x2="153" y2="566" style="stroke:blue; stroke-width:1"/>
<line x1="153" y1="566" x2="199" y2="566" style="stroke:blue; stroke-width:1"/>
<line x1="199" y1="566" x2="199" y2="525" style="stroke:blue; stroke-width:1"/>
<line x1="199" y1="525" x2="245" y2="525" style="stroke:blue; stroke-width:1"/>
<line x1="291" y1="489" x2="291" y2="535" style="stroke:blue; stroke-width:1"/>
<line x1="291" y1="535" x2="336" y2="535" style="stroke:blue; stroke-width:1"/>
<line x1="245" y1="525" x2="245" y2="489" style="stroke:blue; stroke-width:1"/>
<line x1="245" y1="489" x2="291" y2="489" style="stroke:blue; stroke-width:1"/>
<line x1="382" y1="494" x2="382" y2="480" style="stroke:blue; stroke-width:1"/>
<line x1="382" y1="480" x2="428" y2="480" style="stroke:blue; stroke-width:1"/>
<line x1="336" y1="443" x2="336" y2="494" style="stroke:blue; stroke-width:1"/>
<line x1="336" y1="494" x2="382" y2="494" style="stroke:blue; stroke-width:1"/>
<line x1="291" y1="489" x2="291" y2="443" style="stroke:blue; stroke-width:1"/>
<line x1="291" y1="443" x2="336" y2="443" style="stroke:blue; stroke-width:1"/>
<line x1="428" y1="439" x2="428" y2="425" style="stroke:blue; stroke-width:1"/>
<line x1="428" y1="425" x2="474" y2="425" style="stroke:blue; stroke-width:1"/>
<line x1="382" y1="392" x2="382" y2="439" style="stroke:blue; stroke-width:1"/>
<line x1="382" y1="439" x2="428" y2="439" style="stroke:blue; stroke-width:1"/>
<line x1="336" y1="443" x2="336" y2="392" style="stroke:blue; stroke-width:1"/>
<line x1="336" y1="392" x2="382" y2="392" style="stroke:blue; stroke-width:1"/>
<line x1="520" y1="280" x2="520" y2="298" style="stroke:blue; stroke-width:1"/>
<line x1="520" y1="298" x2="565" y2="298" style="stroke:blue; stroke-width:1"/>
<line x1="474" y1="307" x2="474" y2="280" style="stroke:blue; stroke-width:1"/>
<line x1="474" y1="280" x2="520" y2="280" style="stroke:blue; stroke-width:1"/>
<line x1="520" y1="280" x2="520" y2="262" style="stroke:blue; stroke-width:1"/>
<line x1="520" y1="262" x2="565" y2="262" style="stroke:blue; stroke-width:1"/>
<line x1="428" y1="346" x2="428" y2="307" style="stroke:blue; stroke-width:1"/>
<line x1="428" y1="307" x2="474" y2="307" style="stroke:blue; stroke-width:1"/>
<line x1="474" y1="307" x2="474" y2="334" style="stroke:blue; stroke-width:1"/>
<line x1="474" y1="334" x2="520" y2="334" style="stroke:blue; stroke-width:1"/>
<line x1="382" y1="392" x2="382" y2="346" style="stroke:blue; stroke-width:1"/>
<line x1="382" y1="346" x2="428" y2="346" style="stroke:blue; stroke-width:1"/>
<line x1="428" y1="346" x2="428" y2="384" style="stroke:blue; stroke-width:1"/>
<line x1="428" y1="384" x2="474" y2="384" style="stroke:blue; stroke-width:1"/>
<line x1="474" y1="384" x2="474" y2="371" style="stroke:blue; stroke-width:1"/>
<line x1="474" y1="371" x2="520" y2="371" style="stroke:blue; stroke-width:1"/>
<line x1="108" y1="539" x2="108" y2="383" style="stroke:blue; stroke-width:1"/>
<line x1="108" y1="383" x2="153" y2="383" style="stroke:blue; stroke-width:1"/>
<line x1="199" y1="199" x2="199" y2="173" style="stroke:blue; stroke-width:1"/>
<line x1="199" y1="173" x2="245" y2="173" style="stroke:blue; stroke-width:1"/>
<line x1="291" y1="148" x2="291" y2="171" style="stroke:blue; stroke-width:1"/>
<line x1="291" y1="171" x2="336" y2="171" style="stroke:blue; stroke-width:1"/>
<line x1="245" y1="173" x2="245" y2="148" style="stroke:blue; stroke-width:1"/>
<line x1="245" y1="148" x2="291" y2="148" style="stroke:blue; stroke-width:1"/>
<line x1="291" y1="148" x2="291" y2="125" style="stroke:blue; stroke-width:1"/>
<line x1="291" y1="125" x2="336" y2="125" style="stroke:blue; stroke-width:1"/>
<line x1="336" y1="125" x2="336" y2="107" style="stroke:blue; stroke-width:1"/>
<line x1="336" y1="107" x2="382" y2="107" style="stroke:blue; stroke-width:1"/>
<line x1="382" y1="107" x2="382" y2="89" style="stroke:blue; stroke-width:1"/>
<line x1="382" y1="89" x2="428" y2="89" style="stroke:blue; stroke-width:1"/>
<line x1="428" y1="89" x2="428" y2="72" style="stroke:blue; stroke-width:1"/>
<line x1="428" y1="72" x2="474" y2="72" style="stroke:blue; stroke-width:1"/>
<line x1="520" y1="55" x2="520" y2="39" style="stroke:blue; stroke-width:1"/>
<line x1="520" y1="39" x2="565" y2="39" style="stroke:blue; stroke-width:1"/>
<line x1="565" y1="39" x2="565" y2="25" style="stroke:blue; stroke-width:1"/>
<line x1="565" y1="25" x2="611" y2="25" style="stroke:blue; stroke-width:1"/>
<line x1="474" y1="72" x2="474" y2="55" style="stroke:blue; stroke-width:1"/>
<line x1="474" y1="55" x2="520" y2="55" style="stroke:blue; stroke-width:1"/>
<line x1="153" y1="383" x2="153" y2="199" style="stroke:blue; stroke-width:1"/>
<line x1="153" y1="199" x2="199" y2="199" style="stroke:blue; stroke-width:1"/>
<line x1="199" y1="199" x2="199" y2="225" style="stroke:blue; stroke-width:1"/>
<line x1="199" y1="225" x2="245" y2="225" style="stroke:blue; stroke-width:1"/>
<line x1="62" y1="675" x2="62" y2="539" style="stroke:blue; stroke-width:1"/>
<line x1="62" y1="539" x2="108" y2="539" style="stroke:blue; stroke-width:1"/>
<line x1="108" y1="811" x2="108" y2="839" style="stroke:blue; stroke-width:1"/>
<line x1="108" y1="839" x2="153" y2="839" style="stroke:blue; stroke-width:1"/>
<line x1="153" y1="839" x2="153" y2="826" style="stroke:blue; stroke-width:1"/>
<line x1="153" y1="826" x2="199" y2="826" style="stroke:blue; stroke-width:1"/>
<line x1="62" y1="675" x2="62" y2="811" style="stroke:blue; stroke-width:1"/>
<line x1="62" y1="811" x2="108" y2="811" style="stroke:blue; stroke-width:1"/>
<line x1="199" y1="767" x2="199" y2="753" style="stroke:blue; stroke-width:1"/>
<line x1="199" y1="753" x2="245" y2="753" style="stroke:blue; stroke-width:1"/>
<line x1="153" y1="782" x2="153" y2="767" style="stroke:blue; stroke-width:1"/>
<line x1="153" y1="767" x2="199" y2="767" style="stroke:blue; stroke-width:1"/>
<line x1="108" y1="811" x2="108" y2="782" style="stroke:blue; stroke-width:1"/>
<line x1="108" y1="782" x2="153" y2="782" style="stroke:blue; stroke-width:1"/>
<line x1="108" y1="539" x2="108" y2="696" style="stroke:blue; stroke-width:1"/>
<line x1="108" y1="696" x2="153" y2="696" style="stroke:blue; stroke-width:1"/>
<line x1="153" y1="696" x2="153" y2="717" style="stroke:blue; stroke-width:1"/>
<line x1="153" y1="717" x2="199" y2="717" style="stroke:blue; stroke-width:1"/>
<line x1="16" y1="675" x2="16" y2="675" style="stroke:blue; stroke-width:1"/>
<line x1="16" y1="675" x2="62" y2="675" style="stroke:blue; stroke-width:1"/>
<text x="20" y="669" font-weight = "10" font-family="verdana" fill="black" font-size="15">Root</text>
<text x="203" y="857" font-weight = "10" font-family="verdana" fill="black" font-size="15">KJ473795-AB085735</text>
<text x="249" y="839" font-weight = "10" font-family="verdana" fill="black" font-size="15">KJ473796-AB085735</text>
<text x="249" y="821" font-weight = "10" font-family="verdana" fill="black" font-size="15">EU420138-ON640726</text>
<text x="203" y="802" font-weight = "10" font-family="verdana" fill="black" font-size="15">KJ473797-AB085735</text>
<text x="249" y="784" font-weight = "10" font-family="verdana" fill="black" font-size="15">KJ473800-AB085735</text>
<text x="295" y="766" font-weight = "10" font-family="verdana" fill="black" font-size="15">KJ473798-AB085735</text>
<text x="295" y="748" font-weight = "10" font-family="verdana" fill="black" font-size="15">KJ473799-AB085735</text>
<text x="249" y="730" font-weight = "10" font-family="verdana" fill="black" font-size="15">NC_014470-MZ936290</text>
<text x="249" y="711" font-weight = "10" font-family="verdana" fill="black" font-size="15">GU190215-MZ936290</text>
<text x="249" y="693" font-weight = "10" font-family="verdana" fill="black" font-size="15">MN996532-KP972690</text>
<text x="295" y="675" font-weight = "10" font-family="verdana" fill="black" font-size="15">MG772934-HM134917</text>
<text x="295" y="657" font-weight = "10" font-family="verdana" fill="black" font-size="15">MG772933-HM134917</text>
<text x="340" y="639" font-weight = "10" font-family="verdana" fill="black" font-size="15">DQ412043-KX261916</text>
<text x="340" y="620" font-weight = "10" font-family="verdana" fill="black" font-size="15">DQ648857-KX261916</text>
<text x="340" y="602" font-weight = "10" font-family="verdana" fill="black" font-size="15">KJ473814-HM134917</text>
<text x="340" y="584" font-weight = "10" font-family="verdana" fill="black" font-size="15">JX993987-ON012504</text>
<text x="295" y="566" font-weight = "10" font-family="verdana" fill="black" font-size="15">KJ473815-HM134917</text>
<text x="386" y="548" font-weight = "10" font-family="verdana" fill="black" font-size="15">KY417147-HM134917</text>
<text x="386" y="529" font-weight = "10" font-family="verdana" fill="black" font-size="15">KY417148-HM134917</text>
<text x="432" y="511" font-weight = "10" font-family="verdana" fill="black" font-size="15">FJ588686-HM134917</text>
<text x="478" y="493" font-weight = "10" font-family="verdana" fill="black" font-size="15">KY417143-HM134917</text>
<text x="478" y="475" font-weight = "10" font-family="verdana" fill="black" font-size="15">KY417149-HM134917</text>
<text x="478" y="457" font-weight = "10" font-family="verdana" fill="black" font-size="15">KJ473816-HM134917</text>
<text x="524" y="438" font-weight = "10" font-family="verdana" fill="black" font-size="15">KY770859-HM134917</text>
<text x="524" y="420" font-weight = "10" font-family="verdana" fill="black" font-size="15">KY770858-HM134917</text>
<text x="524" y="402" font-weight = "10" font-family="verdana" fill="black" font-size="15">KY417146-HM134917</text>
<text x="569" y="384" font-weight = "10" font-family="verdana" fill="black" font-size="15">KT444582-HM134917</text>
<text x="569" y="366" font-weight = "10" font-family="verdana" fill="black" font-size="15">KY417150-HM134917</text>
<text x="569" y="348" font-weight = "10" font-family="verdana" fill="black" font-size="15">KY417152-HM134917</text>
<text x="569" y="329" font-weight = "10" font-family="verdana" fill="black" font-size="15">KY417151-HM134917</text>
<text x="615" y="311" font-weight = "10" font-family="verdana" fill="black" font-size="15">KF367457-HM134917</text>
<text x="615" y="293" font-weight = "10" font-family="verdana" fill="black" font-size="15">KC881006-HM134917</text>
<text x="615" y="275" font-weight = "10" font-family="verdana" fill="black" font-size="15">KC881005-HM134917</text>
<text x="615" y="257" font-weight = "10" font-family="verdana" fill="black" font-size="15">KY417144-HM134917</text>
<text x="295" y="238" font-weight = "10" font-family="verdana" fill="black" font-size="15">GQ153543-HM134917</text>
<text x="295" y="220" font-weight = "10" font-family="verdana" fill="black" font-size="15">GQ153542-HM134917</text>
<text x="295" y="202" font-weight = "10" font-family="verdana" fill="black" font-size="15">GQ153547-HM134917</text>
<text x="386" y="184" font-weight = "10" font-family="verdana" fill="black" font-size="15">DQ084200-HM134917</text>
<text x="386" y="166" font-weight = "10" font-family="verdana" fill="black" font-size="15">DQ022305-HM134917</text>
<text x="386" y="147" font-weight = "10" font-family="verdana" fill="black" font-size="15">DQ084199-HM134917</text>
<text x="432" y="129" font-weight = "10" font-family="verdana" fill="black" font-size="15">GQ153541-HM134917</text>
<text x="478" y="111" font-weight = "10" font-family="verdana" fill="black" font-size="15">GQ153539-HM134917</text>
<text x="524" y="93" font-weight = "10" font-family="verdana" fill="black" font-size="15">GQ153540-HM134917</text>
<text x="569" y="75" font-weight = "10" font-family="verdana" fill="black" font-size="15">GQ153548-HM134917</text>
<text x="615" y="56" font-weight = "10" font-family="verdana" fill="black" font-size="15">GQ153546-HM134917</text>
<text x="661" y="38" font-weight = "10" font-family="verdana" fill="black" font-size="15">GQ153545-HM134917</text>
<text x="661" y="20" font-weight = "10" font-family="verdana" fill="black" font-size="15">GQ153544-HM134917</text>
<line x1="222.03571428571" y1="780.21739130435" x2="263.90720950268" y2="746.93717825731" style="stroke:red; stroke-width:1;stroke-dasharray: 5, 5"/>
<line x1="267.01830080347" y1="750.85139732606" x2="260.79611820189" y2="743.02295918857" style="stroke:red; stroke-width:1"/>
<line x1="267.01830080347" y1="750.85139732606" x2="267.82142857143" y2="743.82608695652" style="stroke:red; stroke-width:1"/>
<line x1="267.82142857143" y1="743.82608695652" x2="260.79611820189" y2="743.02295918857" style="stroke:red; stroke-width:1"/>
<text x="244.92857142857" y="762.02173913043" font-weight = "10" font-family="verdana" fill="red" font-size="15">2</text>
<line x1="267.82142857143" y1="197.95652173913" x2="354.48873575563" y2="180.73534040588" style="stroke:red; stroke-width:1;stroke-dasharray: 5, 5"/>
<line x1="355.46320659629" y1="185.63946179311" x2="353.51426491496" y2="175.83121901865" style="stroke:red; stroke-width:1"/>
<line x1="355.46320659629" y1="185.63946179311" x2="359.39285714286" y2="179.76086956522" style="stroke:red; stroke-width:1"/>
<line x1="359.39285714286" y1="179.76086956522" x2="353.51426491496" y2="175.83121901865" style="stroke:red; stroke-width:1"/>
<text x="313.60714285714" y="188.85869565217" font-weight = "10" font-family="verdana" fill="red" font-size="15">3</text>
<line x1="542.53571428571" y1="70.586956521739" x2="584.77442520601" y2="28.621853204572" style="stroke:red; stroke-width:1;stroke-dasharray: 5, 5"/>
<line x1="588.29845232362" y1="32.168856569993" x2="581.25039808839" y2="25.074849839151" style="stroke:red; stroke-width:1"/>
<line x1="588.29845232362" y1="32.168856569993" x2="588.32142857143" y2="25.097826086957" style="stroke:red; stroke-width:1"/>
<line x1="588.32142857143" y1="25.097826086957" x2="581.25039808839" y2="25.074849839151" style="stroke:red; stroke-width:1"/>
<text x="565.42857142857" y="47.842391304348" font-weight = "10" font-family="verdana" fill="red" font-size="15">4</text>
<line x1="450.96428571429" y1="489.08695652174" x2="494.94492300696" y2="375.47801666312" style="stroke:red; stroke-width:1;stroke-dasharray: 5, 5"/>
<line x1="499.60772227877" y1="377.28309365615" x2="490.28212373515" y2="373.67293967008" style="stroke:red; stroke-width:1"/>
<line x1="499.60772227877" y1="377.28309365615" x2="496.75" y2="370.8152173913" style="stroke:red; stroke-width:1"/>
<line x1="496.75" y1="370.8152173913" x2="490.28212373515" y2="373.67293967008" style="stroke:red; stroke-width:1"/>
<text x="473.85714285714" y="429.95108695652" font-weight = "10" font-family="verdana" fill="red" font-size="15">5</text>
<line x1="542.53571428571" y1="343.52173913043" x2="542.53571428571" y2="303.03260869565" style="stroke:red; stroke-width:1;stroke-dasharray: 5, 5"/>
<line x1="547.53571428571" y1="303.03260869565" x2="537.53571428571" y2="303.03260869565" style="stroke:red; stroke-width:1"/>
<line x1="547.53571428571" y1="303.03260869565" x2="542.53571428571" y2="298.03260869565" style="stroke:red; stroke-width:1"/>
<line x1="542.53571428571" y1="298.03260869565" x2="537.53571428571" y2="303.03260869565" style="stroke:red; stroke-width:1"/>
<text x="542.53571428571" y="320.77717391304" font-weight = "10" font-family="verdana" fill="red" font-size="15">6</text>
<line x1="450.96428571429" y1="71.724184782609" x2="408.43136754796" y2="121.37663541264" style="stroke:red; stroke-width:1;stroke-dasharray: 5, 5"/>
<line x1="404.63408991712" y1="118.12383929325" x2="412.2286451788" y2="124.62943153202" style="stroke:red; stroke-width:1"/>
<line x1="404.63408991712" y1="118.12383929325" x2="405.17857142857" y2="125.17391304348" style="stroke:red; stroke-width:1"/>
<line x1="405.17857142857" y1="125.17391304348" x2="412.2286451788" y2="124.62943153202" style="stroke:red; stroke-width:1"/>
<text x="428.07142857143" y="98.449048913043" font-weight = "10" font-family="verdana" fill="red" font-size="15">7</text>
<line x1="450.96428571429" y1="489.08695652174" x2="364.0393805202" y2="523.63169094025" style="stroke:red; stroke-width:1;stroke-dasharray: 5, 5"/>
<line x1="362.19281059089" y1="518.98516756291" x2="365.88595044951" y2="528.27821431759" style="stroke:red; stroke-width:1"/>
<line x1="362.19281059089" y1="518.98516756291" x2="359.39285714286" y2="525.47826086957" style="stroke:red; stroke-width:1"/>
<line x1="359.39285714286" y1="525.47826086957" x2="365.88595044951" y2="528.27821431759" style="stroke:red; stroke-width:1"/>
<text x="405.17857142857" y="507.28260869565" font-weight = "10" font-family="verdana" fill="red" font-size="15">8</text>
<line x1="359.39285714286" y1="543.67391304348" x2="539.16039706604" y2="347.2105375346" style="stroke:red; stroke-width:1;stroke-dasharray: 5, 5"/>
<line x1="542.84919547021" y1="350.58585475427" x2="535.47159866188" y2="343.83522031493" style="stroke:red; stroke-width:1"/>
<line x1="542.84919547021" y1="350.58585475427" x2="542.53571428571" y2="343.52173913043" style="stroke:red; stroke-width:1"/>
<line x1="542.53571428571" y1="343.52173913043" x2="535.47159866188" y2="343.83522031493" style="stroke:red; stroke-width:1"/>
<text x="450.96428571429" y="443.59782608696" font-weight = "10" font-family="verdana" fill="red" font-size="15">9</text>
<line x1="496.75" y1="398.10869565217" x2="408.90582748122" y2="476.65632946293" style="stroke:red; stroke-width:1;stroke-dasharray: 5, 5"/>
<line x1="405.57302650937" y1="472.92907341028" x2="412.23862845307" y2="480.38358551558" style="stroke:red; stroke-width:1"/>
<line x1="405.57302650937" y1="472.92907341028" x2="405.17857142857" y2="479.98913043478" style="stroke:red; stroke-width:1"/>
<line x1="405.17857142857" y1="479.98913043478" x2="412.23862845307" y2="480.38358551558" style="stroke:red; stroke-width:1"/>
<text x="450.96428571429" y="439.04891304348" font-weight = "10" font-family="verdana" fill="red" font-size="15">10</text>
<line x1="450.96428571429" y1="71.724184782609" x2="362.96195224797" y2="158.0635663335" style="stroke:red; stroke-width:1;stroke-dasharray: 5, 5"/>
<line x1="359.46030119016" y1="154.49447122838" x2="366.46360330578" y2="161.63266143861" style="stroke:red; stroke-width:1"/>
<line x1="359.46030119016" y1="154.49447122838" x2="359.39285714286" y2="161.5652173913" style="stroke:red; stroke-width:1"/>
<line x1="359.39285714286" y1="161.5652173913" x2="366.46360330578" y2="161.63266143861" style="stroke:red; stroke-width:1"/>
<text x="405.17857142857" y="116.64470108696" font-weight = "10" font-family="verdana" fill="red" font-size="15">11</text>
<line x1="359.39285714286" y1="543.67391304348" x2="493.31848196145" y2="401.74527150744" style="stroke:red; stroke-width:1;stroke-dasharray: 5, 5"/>
<line x1="496.95505781672" y1="405.17678954599" x2="489.68190610618" y2="398.3137534689" style="stroke:red; stroke-width:1"/>
<line x1="496.95505781672" y1="405.17678954599" x2="496.75" y2="398.10869565217" style="stroke:red; stroke-width:1"/>
<line x1="496.75" y1="398.10869565217" x2="489.68190610618" y2="398.3137534689" style="stroke:red; stroke-width:1"/>
<text x="428.07142857143" y="470.89130434783" font-weight = "10" font-family="verdana" fill="red" font-size="15">12</text>
<line x1="359.39285714286" y1="543.67391304348" x2="539.32252503208" y2="329.15693736085" style="stroke:red; stroke-width:1;stroke-dasharray: 5, 5"/>
<line x1="543.15337543642" y1="332.37012661448" x2="535.49167462775" y2="325.94374810722" style="stroke:red; stroke-width:1"/>
<line x1="543.15337543642" y1="332.37012661448" x2="542.53571428571" y2="325.32608695652" style="stroke:red; stroke-width:1"/>
<line x1="542.53571428571" y1="325.32608695652" x2="535.49167462775" y2="325.94374810722" style="stroke:red; stroke-width:1"/>
<text x="450.96428571429" y="434.5" font-weight = "10" font-family="verdana" fill="red" font-size="15">13</text>
<line x1="359.39285714286" y1="543.67391304348" x2="447.90328993553" y2="429.3556919467" style="stroke:red; stroke-width:1;stroke-dasharray: 5, 5"/>
<line x1="451.85680796918" y1="432.41668772546" x2="443.94977190187" y2="426.29469616794" style="stroke:red; stroke-width:1"/>
<line x1="451.85680796918" y1="432.41668772546" x2="450.96428571429" y2="425.40217391304" style="stroke:red; stroke-width:1"/>
<line x1="450.96428571429" y1="425.40217391304" x2="443.94977190187" y2="426.29469616794" style="stroke:red; stroke-width:1"/>
<text x="405.17857142857" y="484.53804347826" font-weight = "10" font-family="verdana" fill="red" font-size="15">14</text>
<line x1="405.17857142857" y1="507.28260869565" x2="363.3070762116" y2="540.56282174269" style="stroke:red; stroke-width:1;stroke-dasharray: 5, 5"/>
<line x1="360.19598491081" y1="536.64860267394" x2="366.4181675124" y2="544.47704081143" style="stroke:red; stroke-width:1"/>
<line x1="360.19598491081" y1="536.64860267394" x2="359.39285714286" y2="543.67391304348" style="stroke:red; stroke-width:1"/>
<line x1="359.39285714286" y1="543.67391304348" x2="366.4181675124" y2="544.47704081143" style="stroke:red; stroke-width:1"/>
<text x="382.28571428571" y="525.47826086957" font-weight = "10" font-family="verdana" fill="red" font-size="15">15</text>
<line x1="405.17857142857" y1="507.28260869565" x2="585.26043279267" y2="274.69264846844" style="stroke:red; stroke-width:1;stroke-dasharray: 5, 5"/>
<line x1="589.21395082632" y1="277.75364424719" x2="581.30691475902" y2="271.63165268968" style="stroke:red; stroke-width:1"/>
<line x1="589.21395082632" y1="277.75364424719" x2="588.32142857143" y2="270.73913043478" style="stroke:red; stroke-width:1"/>
<line x1="588.32142857143" y1="270.73913043478" x2="581.30691475902" y2="271.63165268968" style="stroke:red; stroke-width:1"/>
<text x="496.75" y="389.01086956522" font-weight = "10" font-family="verdana" fill="red" font-size="15">16</text>
<line x1="450.96428571429" y1="452.69565217391" x2="408.3917606822" y2="503.45175829132" style="stroke:red; stroke-width:1;stroke-dasharray: 5, 5"/>
<line x1="404.56091027787" y1="500.23856903769" x2="412.22261108653" y2="506.66494754495" style="stroke:red; stroke-width:1"/>
<line x1="404.56091027787" y1="500.23856903769" x2="405.17857142857" y2="507.28260869565" style="stroke:red; stroke-width:1"/>
<line x1="405.17857142857" y1="507.28260869565" x2="412.22261108653" y2="506.66494754495" style="stroke:red; stroke-width:1"/>
<text x="428.07142857143" y="479.98913043478" font-weight = "10" font-family="verdana" fill="red" font-size="15">17</text>
<line x1="450.96428571429" y1="71.724184782609" x2="363.33078318273" y2="140.28853641122" style="stroke:red; stroke-width:1;stroke-dasharray: 5, 5"/>
<line x1="360.24975437656" y1="136.35061037134" x2="366.41181198891" y2="144.22646245109" style="stroke:red; stroke-width:1"/>
<line x1="360.24975437656" y1="136.35061037134" x2="359.39285714286" y2="143.36956521739" style="stroke:red; stroke-width:1"/>
<line x1="359.39285714286" y1="143.36956521739" x2="366.41181198891" y2="144.22646245109" style="stroke:red; stroke-width:1"/>
<text x="405.17857142857" y="107.546875" font-weight = "10" font-family="verdana" fill="red" font-size="15">18</text>
<line x1="450.96428571429" y1="71.724184782609" x2="271.93826013318" y2="195.1189703489" style="stroke:red; stroke-width:1;stroke-dasharray: 5, 5"/>
<line x1="269.10070874295" y1="191.00213878715" x2="274.77581152341" y2="199.23580191065" style="stroke:red; stroke-width:1"/>
<line x1="269.10070874295" y1="191.00213878715" x2="267.82142857143" y2="197.95652173913" style="stroke:red; stroke-width:1"/>
<line x1="267.82142857143" y1="197.95652173913" x2="274.77581152341" y2="199.23580191065" style="stroke:red; stroke-width:1"/>
<text x="359.39285714286" y="134.84035326087" font-weight = "10" font-family="verdana" fill="red" font-size="15">19</text>
<line x1="176.25" y1="716.53260869565" x2="131.14374296283" y2="387.68307900496" style="stroke:red; stroke-width:1;stroke-dasharray: 5, 5"/>
<line x1="136.09736162471" y1="387.00362175642" x2="126.19012430094" y2="388.3625362535" style="stroke:red; stroke-width:1"/>
<line x1="136.09736162471" y1="387.00362175642" x2="130.46428571429" y2="382.72946034307" style="stroke:red; stroke-width:1"/>
<line x1="130.46428571429" y1="382.72946034307" x2="126.19012430094" y2="388.3625362535" style="stroke:red; stroke-width:1"/>
<text x="153.35714285714" y="549.63103451936" font-weight = "10" font-family="verdana" fill="red" font-size="15">20</text>
<line x1="222.03571428571" y1="816.60869565217" x2="180.16421906875" y2="849.88890869921" style="stroke:red; stroke-width:1;stroke-dasharray: 5, 5"/>
<line x1="177.05312776795" y1="845.97468963046" x2="183.27531036954" y2="853.80312776795" style="stroke:red; stroke-width:1"/>
<line x1="177.05312776795" y1="845.97468963046" x2="176.25" y2="853" style="stroke:red; stroke-width:1"/>
<line x1="176.25" y1="853" x2="183.27531036954" y2="853.80312776795" style="stroke:red; stroke-width:1"/>
<text x="199.14285714286" y="834.80434782609" font-weight = "10" font-family="verdana" fill="red" font-size="15">1</text>
</g></svg>