<svg class="toyplot-canvas-Canvas" xmlns:toyplot="http://www.sandia.gov/toyplot" xmlns:xlink="http://www.w3.org/1999/xlink" xmlns="http://www.w3.org/2000/svg" width="1300.0px" height="900.0px" viewBox="0 0 1300.0 900.0" preserveAspectRatio="xMidYMid meet" style="background-color:transparent;border-color:#292724;border-style:none;border-width:1.0;fill:rgb(16.1%,15.3%,14.1%);fill-opacity:1.0;font-family:Helvetica;font-size:12px;opacity:1.0;stroke:rgb(16.1%,15.3%,14.1%);stroke-opacity:1.0;stroke-width:1.0" id="tfad65885b17c449e94915a24b7b8d9c7"><g class="toyplot-coordinates-Cartesian" id="te5d4eee298704ebc85af6aaf397453ca"><clipPath id="tdce9a40094d34decb003814de6253cdb"><rect x="30.0" y="30.0" width="1240.0" height="840.0" /></clipPath><g clip-path="url(#tdce9a40094d34decb003814de6253cdb)"><g class="toytree-mark-Toytree" id="t988a685699234486aa540fa3c595f4c5"><g class="toytree-Edges" style="fill:none;stroke:rgb(55.3%,62.7%,79.6%);stroke-linecap:round;stroke-opacity:1;stroke-width:2.5"><path d="M 1250.0 87.0 L 1250.0 126.6 L 1111.2 126.6" id="135,134" /><path d="M 1111.2 126.6 L 1111.2 89.9 L 1002.7 89.9" id="134,133" /><path d="M 1111.2 126.6 L 1111.2 163.3 L 1048.9 163.3" id="134,132" /><path d="M 1048.9 163.3 L 1048.9 219.7 L 1048.3 219.7" id="132,131" /><path d="M 1048.3 219.7 L 1048.3 141.2 L 930.0 141.2" id="131,130" /><path d="M 1048.3 219.7 L 1048.3 298.2 L 828.6 298.2" id="131,129" /><path d="M 930.0 141.2 L 930.0 123.8 L 656.5 123.8" id="130,128" /><path d="M 930.0 141.2 L 930.0 158.5 L 836.1 158.5" id="130,127" /><path d="M 828.6 298.2 L 828.6 331.1 L 522.0 331.1" id="129,126" /><path d="M 836.1 158.5 L 836.1 176.2 L 774.8 176.2" id="127,125" /><path d="M 522.0 331.1 L 522.0 282.4 L 433.6 282.4" id="126,124" /><path d="M 522.0 331.1 L 522.0 379.8 L 480.3 379.8" id="126,123" /><path d="M 774.8 176.2 L 774.8 200.3 L 682.1 200.3" id="125,122" /><path d="M 480.3 379.8 L 480.3 307.9 L 423.6 307.9" id="123,121" /><path d="M 480.3 379.8 L 480.3 451.8 L 452.4 451.8" id="123,120" /><path d="M 682.1 200.3 L 682.1 173.4 L 513.6 173.4" id="122,119" /><path d="M 682.1 200.3 L 682.1 227.2 L 552.6 227.2" id="122,118" /><path d="M 423.6 307.9 L 423.6 316.3 L 409.1 316.3" id="121,117" /><path d="M 452.4 451.8 L 452.4 355.3 L 430.7 355.3" id="120,116" /><path d="M 452.4 451.8 L 452.4 548.4 L 441.8 548.4" id="120,115" /><path d="M 513.6 173.4 L 513.6 183.3 L 482.3 183.3" id="119,114" /><path d="M 552.6 227.2 L 552.6 214.4 L 505.7 214.4" id="118,113" /><path d="M 552.6 227.2 L 552.6 239.9 L 506.1 239.9" id="118,112" /><path d="M 430.7 355.3 L 430.7 339.0 L 423.8 339.0" id="116,111" /><path d="M 430.7 355.3 L 430.7 371.5 L 426.5 371.5" id="116,110" /><path d="M 441.8 548.4 L 441.8 506.7 L 436.1 506.7" id="115,109" /><path d="M 441.8 548.4 L 441.8 590.1 L 422.4 590.1" id="115,108" /><path d="M 482.3 183.3 L 482.3 191.8 L 478.8 191.8" id="114,107" /><path d="M 506.1 239.9 L 506.1 248.4 L 504.4 248.4" id="112,106" /><path d="M 426.5 371.5 L 426.5 387.1 L 422.8 387.1" id="110,105" /><path d="M 436.1 506.7 L 436.1 489.0 L 427.9 489.0" id="109,104" /><path d="M 436.1 506.7 L 436.1 524.4 L 423.7 524.4" id="109,103" /><path d="M 422.4 590.1 L 422.4 568.3 L 413.7 568.3" id="108,102" /><path d="M 422.4 590.1 L 422.4 611.8 L 415.6 611.8" id="108,101" /><path d="M 422.8 387.1 L 422.8 373.0 L 422.5 373.0" id="105,100" /><path d="M 422.8 387.1 L 422.8 401.2 L 422.7 401.2" id="105,99" /><path d="M 427.9 489.0 L 427.9 497.5 L 405.0 497.5" id="104,98" /><path d="M 423.7 524.4 L 423.7 534.3 L 395.0 534.3" id="103,97" /><path d="M 413.7 568.3 L 413.7 576.8 L 400.9 576.8" id="102,96" /><path d="M 415.6 611.8 L 415.6 629.8 L 411.9 629.8" id="101,95" /><path d="M 422.7 401.2 L 422.7 412.4 L 422.6 412.4" id="99,94" /><path d="M 395.0 534.3 L 395.0 542.8 L 386.8 542.8" id="97,93" /><path d="M 411.9 629.8 L 411.9 654.6 L 404.4 654.6" id="95,92" /><path d="M 422.6 412.4 L 422.6 423.6 L 422.6 423.6" id="94,91" /><path d="M 404.4 654.6 L 404.4 692.7 L 402.7 692.7" id="92,90" /><path d="M 422.6 423.6 L 422.6 434.5 L 422.5 434.5" id="91,89" /><path d="M 402.7 692.7 L 402.7 650.4 L 401.5 650.4" id="90,88" /><path d="M 402.7 692.7 L 402.7 735.0 L 401.3 735.0" id="90,87" /><path d="M 422.5 434.5 L 422.5 445.2 L 422.3 445.2" id="89,86" /><path d="M 401.5 650.4 L 401.5 633.4 L 398.3 633.4" id="88,85" /><path d="M 401.5 650.4 L 401.5 667.4 L 399.3 667.4" id="88,84" /><path d="M 401.3 735.0 L 401.3 704.2 L 398.5 704.2" id="87,83" /><path d="M 401.3 735.0 L 401.3 765.8 L 392.1 765.8" id="87,82" /><path d="M 422.3 445.2 L 422.3 455.1 L 422.2 455.1" id="86,81" /><path d="M 399.3 667.4 L 399.3 656.1 L 397.2 656.1" id="84,80" /><path d="M 399.3 667.4 L 399.3 678.7 L 396.5 678.7" id="84,79" /><path d="M 398.5 704.2 L 398.5 712.7 L 390.9 712.7" id="83,78" /><path d="M 392.1 765.8 L 392.1 738.2 L 388.1 738.2" id="82,77" /><path d="M 392.1 765.8 L 392.1 793.4 L 389.8 793.4" id="82,76" /><path d="M 422.2 455.1 L 422.2 463.6 L 422.1 463.6" id="81,75" /><path d="M 388.1 738.2 L 388.1 746.7 L 384.3 746.7" id="77,74" /><path d="M 389.8 793.4 L 389.8 772.1 L 388.6 772.1" id="76,73" /><path d="M 389.8 793.4 L 389.8 814.6 L 387.5 814.6" id="76,72" /><path d="M 388.6 772.1 L 388.6 780.6 L 386.3 780.6" id="73,71" /><path d="M 387.5 814.6 L 387.5 803.3 L 386.2 803.3" id="72,70" /><path d="M 387.5 814.6 L 387.5 825.9 L 385.8 825.9" id="72,69" /><path d="M 1250.0 87.0 L 1250.0 61.6 L 1235.9 61.6" id="135,68" /><path d="M 1250.0 87.0 L 1250.0 72.9 L 1235.3 72.9" id="135,67" /><path d="M 1002.7 89.9 L 1002.7 84.2 L 992.1 84.2" id="133,66" /><path d="M 1002.7 89.9 L 1002.7 95.5 L 989.6 95.5" id="133,65" /><path d="M 1048.9 163.3 L 1048.9 106.8 L 929.6 106.8" id="132,64" /><path d="M 656.5 123.8 L 656.5 118.2 L 618.7 118.2" id="128,63" /><path d="M 656.5 123.8 L 656.5 129.5 L 618.8 129.5" id="128,62" /><path d="M 836.1 158.5 L 836.1 140.8 L 540.4 140.8" id="127,61" /><path d="M 774.8 176.2 L 774.8 152.1 L 508.8 152.1" id="125,60" /><path d="M 513.6 173.4 L 513.6 163.5 L 472.0 163.5" id="119,59" /><path d="M 482.3 183.3 L 482.3 174.8 L 475.1 174.8" id="114,58" /><path d="M 478.8 191.8 L 478.8 186.1 L 469.8 186.1" id="107,57" /><path d="M 478.8 191.8 L 478.8 197.4 L 468.4 197.4" id="107,56" /><path d="M 505.7 214.4 L 505.7 208.8 L 471.0 208.8" id="113,55" /><path d="M 505.7 214.4 L 505.7 220.1 L 503.1 220.1" id="113,54" /><path d="M 506.1 239.9 L 506.1 231.4 L 501.4 231.4" id="112,53" /><path d="M 504.4 248.4 L 504.4 242.7 L 498.4 242.7" id="106,52" /><path d="M 504.4 248.4 L 504.4 254.1 L 472.6 254.1" id="106,51" /><path d="M 828.6 298.2 L 828.6 265.4 L 375.7 265.4" id="129,50" /><path d="M 433.6 282.4 L 433.6 276.7 L 433.6 276.7" id="124,49" /><path d="M 433.6 282.4 L 433.6 288.0 L 433.6 288.0" id="124,48" /><path d="M 423.6 307.9 L 423.6 299.4 L 354.3 299.4" id="121,47" /><path d="M 409.1 316.3 L 409.1 310.7 L 402.3 310.7" id="117,46" /><path d="M 409.1 316.3 L 409.1 322.0 L 399.3 322.0" id="117,45" /><path d="M 423.8 339.0 L 423.8 333.3 L 423.7 333.3" id="111,44" /><path d="M 423.8 339.0 L 423.8 344.7 L 423.7 344.7" id="111,43" /><path d="M 426.5 371.5 L 426.5 356.0 L 422.4 356.0" id="110,42" /><path d="M 422.5 373.0 L 422.5 367.3 L 422.5 367.3" id="100,41" /><path d="M 422.5 373.0 L 422.5 378.6 L 422.5 378.6" id="100,40" /><path d="M 422.7 401.2 L 422.7 390.0 L 422.6 390.0" id="99,39" /><path d="M 422.6 412.4 L 422.6 401.3 L 422.4 401.3" id="94,38" /><path d="M 422.6 423.6 L 422.6 412.6 L 422.5 412.6" id="91,37" /><path d="M 422.5 434.5 L 422.5 423.9 L 422.4 423.9" id="89,36" /><path d="M 422.3 445.2 L 422.3 435.3 L 422.1 435.3" id="86,35" /><path d="M 422.2 455.1 L 422.2 446.6 L 422.1 446.6" id="81,34" /><path d="M 422.1 463.6 L 422.1 457.9 L 422.1 457.9" id="75,33" /><path d="M 422.1 463.6 L 422.1 469.2 L 422.1 469.2" id="75,32" /><path d="M 427.9 489.0 L 427.9 480.5 L 407.6 480.5" id="104,31" /><path d="M 405.0 497.5 L 405.0 491.9 L 404.3 491.9" id="98,30" /><path d="M 405.0 497.5 L 405.0 503.2 L 403.7 503.2" id="98,29" /><path d="M 423.7 524.4 L 423.7 514.5 L 403.8 514.5" id="103,28" /><path d="M 395.0 534.3 L 395.0 525.8 L 382.5 525.8" id="97,27" /><path d="M 386.8 542.8 L 386.8 537.2 L 386.0 537.2" id="93,26" /><path d="M 386.8 542.8 L 386.8 548.5 L 386.1 548.5" id="93,25" /><path d="M 413.7 568.3 L 413.7 559.8 L 396.0 559.8" id="102,24" /><path d="M 400.9 576.8 L 400.9 571.1 L 380.8 571.1" id="96,23" /><path d="M 400.9 576.8 L 400.9 582.5 L 380.0 582.5" id="96,22" /><path d="M 415.6 611.8 L 415.6 593.8 L 401.0 593.8" id="101,21" /><path d="M 411.9 629.8 L 411.9 605.1 L 398.6 605.1" id="95,20" /><path d="M 404.4 654.6 L 404.4 616.4 L 395.4 616.4" id="92,19" /><path d="M 398.3 633.4 L 398.3 627.8 L 395.2 627.8" id="85,18" /><path d="M 398.3 633.4 L 398.3 639.1 L 395.4 639.1" id="85,17" /><path d="M 397.2 656.1 L 397.2 650.4 L 392.7 650.4" id="80,16" /><path d="M 397.2 656.1 L 397.2 661.7 L 392.3 661.7" id="80,15" /><path d="M 396.5 678.7 L 396.5 673.1 L 392.6 673.1" id="79,14" /><path d="M 396.5 678.7 L 396.5 684.4 L 391.4 684.4" id="79,13" /><path d="M 398.5 704.2 L 398.5 695.7 L 391.8 695.7" id="83,12" /><path d="M 390.9 712.7 L 390.9 707.0 L 390.8 707.0" id="78,11" /><path d="M 390.9 712.7 L 390.9 718.4 L 390.8 718.4" id="78,10" /><path d="M 388.1 738.2 L 388.1 729.7 L 383.3 729.7" id="77,9" /><path d="M 384.3 746.7 L 384.3 741.0 L 384.1 741.0" id="74,8" /><path d="M 384.3 746.7 L 384.3 752.3 L 384.0 752.3" id="74,7" /><path d="M 388.6 772.1 L 388.6 763.7 L 384.8 763.7" id="73,6" /><path d="M 386.3 780.6 L 386.3 775.0 L 384.7 775.0" id="71,5" /><path d="M 386.3 780.6 L 386.3 786.3 L 383.7 786.3" id="71,4" /><path d="M 386.2 803.3 L 386.2 797.6 L 384.1 797.6" id="70,3" /><path d="M 386.2 803.3 L 386.2 808.9 L 384.9 808.9" id="70,2" /><path d="M 385.8 825.9 L 385.8 820.3 L 385.5 820.3" id="69,1" /><path d="M 385.8 825.9 L 385.8 831.6 L 385.7 831.6" id="69,0" /></g><g class="toytree-AlignEdges" style="stroke:rgb(66.3%,66.3%,66.3%);stroke-dasharray:2, 4;stroke-linecap:round;stroke-opacity:1.0;stroke-width:2"><path d="M 354.3 831.6 L 385.7 831.6" /><path d="M 354.3 820.3 L 385.5 820.3" /><path d="M 354.3 808.9 L 384.9 808.9" /><path d="M 354.3 797.6 L 384.1 797.6" /><path d="M 354.3 786.3 L 383.7 786.3" /><path d="M 354.3 775.0 L 384.7 775.0" /><path d="M 354.3 763.7 L 384.8 763.7" /><path d="M 354.3 752.3 L 384.0 752.3" /><path d="M 354.3 741.0 L 384.1 741.0" /><path d="M 354.3 729.7 L 383.3 729.7" /><path d="M 354.3 718.4 L 390.8 718.4" /><path d="M 354.3 707.0 L 390.8 707.0" /><path d="M 354.3 695.7 L 391.8 695.7" /><path d="M 354.3 684.4 L 391.4 684.4" /><path d="M 354.3 673.1 L 392.6 673.1" /><path d="M 354.3 661.7 L 392.3 661.7" /><path d="M 354.3 650.4 L 392.7 650.4" /><path d="M 354.3 639.1 L 395.4 639.1" /><path d="M 354.3 627.8 L 395.2 627.8" /><path d="M 354.3 616.4 L 395.4 616.4" /><path d="M 354.3 605.1 L 398.6 605.1" /><path d="M 354.3 593.8 L 401.0 593.8" /><path d="M 354.3 582.5 L 380.0 582.5" /><path d="M 354.3 571.1 L 380.8 571.1" /><path d="M 354.3 559.8 L 396.0 559.8" /><path d="M 354.3 548.5 L 386.1 548.5" /><path d="M 354.3 537.2 L 386.0 537.2" /><path d="M 354.3 525.8 L 382.5 525.8" /><path d="M 354.3 514.5 L 403.8 514.5" /><path d="M 354.3 503.2 L 403.7 503.2" /><path d="M 354.3 491.9 L 404.3 491.9" /><path d="M 354.3 480.5 L 407.6 480.5" /><path d="M 354.3 469.2 L 422.1 469.2" /><path d="M 354.3 457.9 L 422.1 457.9" /><path d="M 354.3 446.6 L 422.1 446.6" /><path d="M 354.3 435.3 L 422.1 435.3" /><path d="M 354.3 423.9 L 422.4 423.9" /><path d="M 354.3 412.6 L 422.5 412.6" /><path d="M 354.3 401.3 L 422.4 401.3" /><path d="M 354.3 390.0 L 422.6 390.0" /><path d="M 354.3 378.6 L 422.5 378.6" /><path d="M 354.3 367.3 L 422.5 367.3" /><path d="M 354.3 356.0 L 422.4 356.0" /><path d="M 354.3 344.7 L 423.7 344.7" /><path d="M 354.3 333.3 L 423.7 333.3" /><path d="M 354.3 322.0 L 399.3 322.0" /><path d="M 354.3 310.7 L 402.3 310.7" /><path d="M 354.3 299.4 L 354.3 299.4" /><path d="M 354.3 288.0 L 433.6 288.0" /><path d="M 354.3 276.7 L 433.6 276.7" /><path d="M 354.3 265.4 L 375.7 265.4" /><path d="M 354.3 254.1 L 472.6 254.1" /><path d="M 354.3 242.7 L 498.4 242.7" /><path d="M 354.3 231.4 L 501.4 231.4" /><path d="M 354.3 220.1 L 503.1 220.1" /><path d="M 354.3 208.8 L 471.0 208.8" /><path d="M 354.3 197.4 L 468.4 197.4" /><path d="M 354.3 186.1 L 469.8 186.1" /><path d="M 354.3 174.8 L 475.1 174.8" /><path d="M 354.3 163.5 L 472.0 163.5" /><path d="M 354.3 152.1 L 508.8 152.1" /><path d="M 354.3 140.8 L 540.4 140.8" /><path d="M 354.3 129.5 L 618.8 129.5" /><path d="M 354.3 118.2 L 618.7 118.2" /><path d="M 354.3 106.8 L 929.6 106.8" /><path d="M 354.3 95.5 L 989.6 95.5" /><path d="M 354.3 84.2 L 992.1 84.2" /><path d="M 354.3 72.9 L 1235.3 72.9" /><path d="M 354.3 61.6 L 1235.9 61.6" /></g><g class="toytree-Nodes" style="fill:rgb(90.6%,54.1%,76.5%);fill-opacity:1.0;stroke:None;stroke-width:1"><g id="node-0" transform="translate(385.690,831.598)"><circle r="0.0" /></g><g id="node-1" transform="translate(385.521,820.274)"><circle r="0.0" /></g><g id="node-2" transform="translate(384.877,808.950)"><circle r="0.0" /></g><g id="node-3" transform="translate(384.074,797.625)"><circle r="0.0" /></g><g id="node-4" transform="translate(383.712,786.301)"><circle r="0.0" /></g><g id="node-5" transform="translate(384.709,774.977)"><circle r="0.0" /></g><g id="node-6" transform="translate(384.806,763.653)"><circle r="0.0" /></g><g id="node-7" transform="translate(384.020,752.329)"><circle r="0.0" /></g><g id="node-8" transform="translate(384.075,741.004)"><circle r="0.0" /></g><g id="node-9" transform="translate(383.333,729.680)"><circle r="0.0" /></g><g id="node-10" transform="translate(390.753,718.356)"><circle r="0.0" /></g><g id="node-11" transform="translate(390.809,707.032)"><circle r="0.0" /></g><g id="node-12" transform="translate(391.782,695.707)"><circle r="0.0" /></g><g id="node-13" transform="translate(391.442,684.383)"><circle r="0.0" /></g><g id="node-14" transform="translate(392.630,673.059)"><circle r="0.0" /></g><g id="node-15" transform="translate(392.266,661.735)"><circle r="0.0" /></g><g id="node-16" transform="translate(392.669,650.411)"><circle r="0.0" /></g><g id="node-17" transform="translate(395.439,639.086)"><circle r="0.0" /></g><g id="node-18" transform="translate(395.249,627.762)"><circle r="0.0" /></g><g id="node-19" transform="translate(395.376,616.438)"><circle r="0.0" /></g><g id="node-20" transform="translate(398.612,605.114)"><circle r="0.0" /></g><g id="node-21" transform="translate(401.007,593.789)"><circle r="0.0" /></g><g id="node-22" transform="translate(380.040,582.465)"><circle r="0.0" /></g><g id="node-23" transform="translate(380.778,571.141)"><circle r="0.0" /></g><g id="node-24" transform="translate(395.955,559.817)"><circle r="0.0" /></g><g id="node-25" transform="translate(386.074,548.492)"><circle r="0.0" /></g><g id="node-26" transform="translate(386.044,537.168)"><circle r="0.0" /></g><g id="node-27" transform="translate(382.543,525.844)"><circle r="0.0" /></g><g id="node-28" transform="translate(403.836,514.520)"><circle r="0.0" /></g><g id="node-29" transform="translate(403.667,503.196)"><circle r="0.0" /></g><g id="node-30" transform="translate(404.276,491.871)"><circle r="0.0" /></g><g id="node-31" transform="translate(407.639,480.547)"><circle r="0.0" /></g><g id="node-32" transform="translate(422.110,469.223)"><circle r="0.0" /></g><g id="node-33" transform="translate(422.083,457.899)"><circle r="0.0" /></g><g id="node-34" transform="translate(422.055,446.574)"><circle r="0.0" /></g><g id="node-35" transform="translate(422.055,435.250)"><circle r="0.0" /></g><g id="node-36" transform="translate(422.447,423.926)"><circle r="0.0" /></g><g id="node-37" transform="translate(422.475,412.602)"><circle r="0.0" /></g><g id="node-38" transform="translate(422.419,401.278)"><circle r="0.0" /></g><g id="node-39" transform="translate(422.615,389.953)"><circle r="0.0" /></g><g id="node-40" transform="translate(422.530,378.629)"><circle r="0.0" /></g><g id="node-41" transform="translate(422.530,367.305)"><circle r="0.0" /></g><g id="node-42" transform="translate(422.356,355.981)"><circle r="0.0" /></g><g id="node-43" transform="translate(423.690,344.656)"><circle r="0.0" /></g><g id="node-44" transform="translate(423.660,333.332)"><circle r="0.0" /></g><g id="node-45" transform="translate(399.272,322.008)"><circle r="0.0" /></g><g id="node-46" transform="translate(402.306,310.684)"><circle r="0.0" /></g><g id="node-47" transform="translate(354.282,299.359)"><circle r="0.0" /></g><g id="node-48" transform="translate(433.633,288.035)"><circle r="0.0" /></g><g id="node-49" transform="translate(433.633,276.711)"><circle r="0.0" /></g><g id="node-50" transform="translate(375.683,265.387)"><circle r="0.0" /></g><g id="node-51" transform="translate(472.624,254.063)"><circle r="0.0" /></g><g id="node-52" transform="translate(498.444,242.738)"><circle r="0.0" /></g><g id="node-53" transform="translate(501.435,231.414)"><circle r="0.0" /></g><g id="node-54" transform="translate(503.104,220.090)"><circle r="0.0" /></g><g id="node-55" transform="translate(470.995,208.766)"><circle r="0.0" /></g><g id="node-56" transform="translate(468.422,197.441)"><circle r="0.0" /></g><g id="node-57" transform="translate(469.794,186.117)"><circle r="0.0" /></g><g id="node-58" transform="translate(475.057,174.793)"><circle r="0.0" /></g><g id="node-59" transform="translate(472.039,163.469)"><circle r="0.0" /></g><g id="node-60" transform="translate(508.763,152.145)"><circle r="0.0" /></g><g id="node-61" transform="translate(540.419,140.820)"><circle r="0.0" /></g><g id="node-62" transform="translate(618.787,129.496)"><circle r="0.0" /></g><g id="node-63" transform="translate(618.740,118.172)"><circle r="0.0" /></g><g id="node-64" transform="translate(929.614,106.848)"><circle r="0.0" /></g><g id="node-65" transform="translate(989.647,95.523)"><circle r="0.0" /></g><g id="node-66" transform="translate(992.095,84.199)"><circle r="0.0" /></g><g id="node-67" transform="translate(1235.340,72.875)"><circle r="0.0" /></g><g id="node-68" transform="translate(1235.928,61.551)"><circle r="0.0" /></g><g id="node-69" transform="translate(385.829,825.936)"><circle r="12.5" /></g><g id="node-70" transform="translate(386.194,803.288)"><circle r="12.5" /></g><g id="node-71" transform="translate(386.262,780.639)"><circle r="12.5" /></g><g id="node-72" transform="translate(387.549,814.612)"><circle r="12.5" /></g><g id="node-73" transform="translate(388.592,772.146)"><circle r="12.5" /></g><g id="node-74" transform="translate(384.272,746.666)"><circle r="12.5" /></g><g id="node-75" transform="translate(422.111,463.561)"><circle r="12.5" /></g><g id="node-76" transform="translate(389.828,793.379)"><circle r="12.5" /></g><g id="node-77" transform="translate(388.127,738.173)"><circle r="12.5" /></g><g id="node-78" transform="translate(390.865,712.694)"><circle r="12.5" /></g><g id="node-79" transform="translate(396.547,678.721)"><circle r="12.5" /></g><g id="node-80" transform="translate(397.160,656.073)"><circle r="12.5" /></g><g id="node-81" transform="translate(422.195,455.068)"><circle r="12.5" /></g><g id="node-82" transform="translate(392.122,765.776)"><circle r="12.5" /></g><g id="node-83" transform="translate(398.539,704.201)"><circle r="12.5" /></g><g id="node-84" transform="translate(399.257,667.397)"><circle r="12.5" /></g><g id="node-85" transform="translate(398.268,633.424)"><circle r="12.5" /></g><g id="node-86" transform="translate(422.335,445.159)"><circle r="12.5" /></g><g id="node-87" transform="translate(401.262,734.988)"><circle r="12.5" /></g><g id="node-88" transform="translate(401.519,650.411)"><circle r="12.5" /></g><g id="node-89" transform="translate(422.475,434.542)"><circle r="12.5" /></g><g id="node-90" transform="translate(402.700,692.699)"><circle r="12.5" /></g><g id="node-91" transform="translate(422.559,423.572)"><circle r="12.5" /></g><g id="node-92" transform="translate(404.432,654.569)"><circle r="12.5" /></g><g id="node-93" transform="translate(386.787,542.830)"><circle r="12.5" /></g><g id="node-94" transform="translate(422.587,412.425)"><circle r="12.5" /></g><g id="node-95" transform="translate(411.863,629.841)"><circle r="12.5" /></g><g id="node-96" transform="translate(400.918,576.803)"><circle r="12.5" /></g><g id="node-97" transform="translate(394.988,534.337)"><circle r="12.5" /></g><g id="node-98" transform="translate(404.997,497.533)"><circle r="12.5" /></g><g id="node-99" transform="translate(422.671,401.189)"><circle r="12.5" /></g><g id="node-100" transform="translate(422.531,372.967)"><circle r="12.5" /></g><g id="node-101" transform="translate(415.584,611.815)"><circle r="12.5" /></g><g id="node-102" transform="translate(413.679,568.310)"><circle r="12.5" /></g><g id="node-103" transform="translate(423.724,524.428)"><circle r="12.5" /></g><g id="node-104" transform="translate(427.929,489.040)"><circle r="12.5" /></g><g id="node-105" transform="translate(422.755,387.078)"><circle r="12.5" /></g><g id="node-106" transform="translate(504.411,248.400)"><circle r="12.5" /></g><g id="node-107" transform="translate(478.796,191.779)"><circle r="12.5" /></g><g id="node-108" transform="translate(422.387,590.063)"><circle r="12.5" /></g><g id="node-109" transform="translate(436.126,506.734)"><circle r="12.5" /></g><g id="node-110" transform="translate(426.535,371.529)"><circle r="12.5" /></g><g id="node-111" transform="translate(423.829,338.994)"><circle r="12.5" /></g><g id="node-112" transform="translate(506.072,239.907)"><circle r="12.5" /></g><g id="node-113" transform="translate(505.692,214.428)"><circle r="12.5" /></g><g id="node-114" transform="translate(482.256,183.286)"><circle r="12.5" /></g><g id="node-115" transform="translate(441.764,548.398)"><circle r="12.5" /></g><g id="node-116" transform="translate(430.712,355.262)"><circle r="12.5" /></g><g id="node-117" transform="translate(409.077,316.346)"><circle r="12.5" /></g><g id="node-118" transform="translate(552.606,227.168)"><circle r="12.5" /></g><g id="node-119" transform="translate(513.558,173.377)"><circle r="12.5" /></g><g id="node-120" transform="translate(452.444,451.830)"><circle r="12.5" /></g><g id="node-121" transform="translate(423.627,307.853)"><circle r="12.5" /></g><g id="node-122" transform="translate(682.149,200.272)"><circle r="12.5" /></g><g id="node-123" transform="translate(480.290,379.841)"><circle r="12.5" /></g><g id="node-124" transform="translate(433.634,282.373)"><circle r="12.5" /></g><g id="node-125" transform="translate(774.800,176.209)"><circle r="12.5" /></g><g id="node-126" transform="translate(522.006,331.107)"><circle r="12.5" /></g><g id="node-127" transform="translate(836.079,158.514)"><circle r="12.5" /></g><g id="node-128" transform="translate(656.495,123.834)"><circle r="12.5" /></g><g id="node-129" transform="translate(828.566,298.247)"><circle r="12.5" /></g><g id="node-130" transform="translate(929.974,141.174)"><circle r="12.5" /></g><g id="node-131" transform="translate(1048.300,219.711)"><circle r="12.5" /></g><g id="node-132" transform="translate(1048.881,163.279)"><circle r="12.5" /></g><g id="node-133" transform="translate(1002.724,89.861)"><circle r="12.5" /></g><g id="node-134" transform="translate(1111.180,126.570)"><circle r="12.5" /></g><g id="node-135" transform="translate(1250.000,86.999)"><circle r="0.0" /></g></g><g class="toytree-NodeLabels" style="fill:rgb(14.9%,14.9%,14.9%);fill-opacity:1.0;font-size:9px;stroke:none"><g transform="translate(378.32,828.24)"><text>100</text></g><g transform="translate(378.69,805.59)"><text>100</text></g><g transform="translate(378.76,782.94)"><text>100</text></g><g transform="translate(380.04,816.91)"><text>100</text></g><g transform="translate(383.59,774.45)"><text>58</text></g><g transform="translate(376.77,748.97)"><text>100</text></g><g transform="translate(414.61,465.86)"><text>100</text></g><g transform="translate(382.32,795.68)"><text>100</text></g><g transform="translate(380.62,740.47)"><text>100</text></g><g transform="translate(383.36,714.99)"><text>100</text></g><g transform="translate(389.04,681.02)"><text>100</text></g><g transform="translate(392.16,658.37)"><text>84</text></g><g transform="translate(414.69,457.37)"><text>100</text></g><g transform="translate(384.62,768.08)"><text>100</text></g><g transform="translate(393.54,706.50)"><text>98</text></g><g transform="translate(394.25,669.70)"><text>74</text></g><g transform="translate(390.76,635.72)"><text>100</text></g><g transform="translate(414.83,447.46)"><text>100</text></g><g transform="translate(396.26,737.29)"><text>28</text></g><g transform="translate(396.51,652.71)"><text>64</text></g><g transform="translate(417.47,436.84)"><text>98</text></g><g transform="translate(397.70,695.00)"><text>23</text></g><g transform="translate(417.56,425.87)"><text>97</text></g><g transform="translate(396.93,656.87)"><text>100</text></g><g transform="translate(379.28,545.13)"><text>100</text></g><g transform="translate(417.58,414.72)"><text>97</text></g><g transform="translate(406.86,632.14)"><text>69</text></g><g transform="translate(393.41,579.10)"><text>100</text></g><g transform="translate(387.48,536.64)"><text>100</text></g><g transform="translate(397.49,499.83)"><text>100</text></g><g transform="translate(417.67,403.49)"><text>95</text></g><g transform="translate(415.02,375.27)"><text>100</text></g><g transform="translate(410.58,614.11)"><text>99</text></g><g transform="translate(408.67,570.61)"><text>98</text></g><g transform="translate(416.22,526.73)"><text>100</text></g><g transform="translate(420.42,491.34)"><text>100</text></g><g transform="translate(415.25,389.38)"><text>100</text></g><g transform="translate(499.41,250.70)"><text>66</text></g><g transform="translate(473.79,194.08)"><text>68</text></g><g transform="translate(414.88,592.36)"><text>100</text></g><g transform="translate(431.12,509.03)"><text>98</text></g><g transform="translate(419.03,373.83)"><text>100</text></g><g transform="translate(416.32,341.29)"><text>100</text></g><g transform="translate(498.57,242.21)"><text>100</text></g><g transform="translate(498.19,216.73)"><text>100</text></g><g transform="translate(474.75,185.59)"><text>100</text></g><g transform="translate(434.26,550.70)"><text>100</text></g><g transform="translate(423.21,357.56)"><text>100</text></g><g transform="translate(401.57,318.65)"><text>100</text></g><g transform="translate(545.10,229.47)"><text>100</text></g><g transform="translate(506.05,175.68)"><text>100</text></g><g transform="translate(444.94,454.13)"><text>100</text></g><g transform="translate(416.12,310.15)"><text>100</text></g><g transform="translate(674.64,202.57)"><text>100</text></g><g transform="translate(475.29,382.14)"><text>87</text></g><g transform="translate(426.13,284.67)"><text>100</text></g><g transform="translate(767.29,178.51)"><text>100</text></g><g transform="translate(514.50,333.41)"><text>100</text></g><g transform="translate(828.57,160.81)"><text>100</text></g><g transform="translate(648.99,126.13)"><text>100</text></g><g transform="translate(821.06,300.55)"><text>100</text></g><g transform="translate(922.47,143.47)"><text>100</text></g><g transform="translate(1040.79,222.01)"><text>100</text></g><g transform="translate(1041.38,165.58)"><text>100</text></g><g transform="translate(995.22,92.16)"><text>100</text></g><g transform="translate(1103.67,128.87)"><text>100</text></g></g><g class="toytree-TipLabels" style="fill:rgb(40%,76.1%,64.7%);fill-opacity:1.0;font-family:helvetica;font-size:10px;font-weight:normal;stroke:none;white-space:pre"><g transform="translate(354.28,831.60)rotate(0)"><text x="-110.61" y="2.55" style="">KC881006.1_Rs3367</text></g><g transform="translate(354.28,820.27)rotate(0)"><text x="-99.49" y="2.55" style="">KF367457.1_WIV1</text></g><g transform="translate(354.28,808.95)rotate(0)"><text x="-126.16" y="2.55" style="">KC881005.1_RsSHC014</text></g><g transform="translate(354.28,797.63)rotate(0)"><text x="-110.06" y="2.55" style="">KY417144.1_Rs4084</text></g><g transform="translate(354.28,786.30)rotate(0)"><text x="-110.06" y="2.55" style="">KY417151.1_Rs7327</text></g><g transform="translate(354.28,774.98)rotate(0)"><text x="-110.06" y="2.55" style="">KY417152.1_Rs9401</text></g><g transform="translate(354.28,763.65)rotate(0)"><text x="-187.86" y="2.55" style="">MK211376.1_BtRs-BetaCoV/YN2018B</text></g><g transform="translate(354.28,752.33)rotate(0)"><text x="-110.06" y="2.55" style="">KY417150.1_Rs4874</text></g><g transform="translate(354.28,741.00)rotate(0)"><text x="-105.05" y="2.55" style="">KT444582.1_WIV16</text></g><g transform="translate(354.28,729.68)rotate(0)"><text x="-110.06" y="2.55" style="">KY417146.1_Rs4231</text></g><g transform="translate(354.28,718.36)rotate(0)"><text x="-126.74" y="2.55" style="">KY770858.1_Anlong-103</text></g><g transform="translate(354.28,707.03)rotate(0)"><text x="-126.74" y="2.55" style="">KY770859.1_Anlong-112</text></g><g transform="translate(354.28,695.71)rotate(0)"><text x="-177.86" y="2.55" style="">KJ473816.1_BtRs-BetaCoV/YN2013</text></g><g transform="translate(354.28,684.38)rotate(0)"><text x="-110.06" y="2.55" style="">KY417149.1_Rs4255</text></g><g transform="translate(354.28,673.06)rotate(0)"><text x="-110.06" y="2.55" style="">KY417143.1_Rs4081</text></g><g transform="translate(354.28,661.73)rotate(0)"><text x="-110.06" y="2.55" style="">KY417148.1_Rs4247</text></g><g transform="translate(354.28,650.41)rotate(0)"><text x="-110.06" y="2.55" style="">KY417147.1_Rs4237</text></g><g transform="translate(354.28,639.09)rotate(0)"><text x="-109.51" y="2.55" style="">KY417142.1_As6526</text></g><g transform="translate(354.28,627.76)rotate(0)"><text x="-188.41" y="2.55" style="">MK211377.1_BtRs-BetaCoV/YN2018C</text></g><g transform="translate(354.28,616.44)rotate(0)"><text x="-136.74" y="2.55" style="">FJ588686.1_BtRs672/2006</text></g><g transform="translate(354.28,605.11)rotate(0)"><text x="-95.60" y="2.55" style="">DQ071615.1_Rp3</text></g><g transform="translate(354.28,593.79)rotate(0)"><text x="-178.42" y="2.55" style="">KJ473815.1_BtRs-BetaCoV/GX2013</text></g><g transform="translate(354.28,582.47)rotate(0)"><text x="-146.20" y="2.55" style="">JX993988.1_Cp/Yunnan2011</text></g><g transform="translate(354.28,571.14)rotate(0)"><text x="-111.17" y="2.55" style="">KF569996.1_LYRa11</text></g><g transform="translate(354.28,559.82)rotate(0)"><text x="-93.38" y="2.55" style="">KU973692.1_F46</text></g><g transform="translate(354.28,548.49)rotate(0)"><text x="-175.09" y="2.55" style="">KJ473813.1_BtRf-BetaCoV/SX2013</text></g><g transform="translate(354.28,537.17)rotate(0)"><text x="-181.20" y="2.55" style="">KJ473812.1_BtRf-BetaCoV/HeB2013</text></g><g transform="translate(354.28,525.84)rotate(0)"><text x="-172.31" y="2.55" style="">KJ473811.1_BtRf-BetaCoV/JL2012</text></g><g transform="translate(354.28,514.52)rotate(0)"><text x="-147.86" y="2.55" style="">JX993987.1_Rp/Shaanxi2011</text></g><g transform="translate(354.28,503.20)rotate(0)"><text x="-98.37" y="2.55" style="">DQ412043.1_Rm1</text></g><g transform="translate(354.28,491.87)rotate(0)"><text x="-150.64" y="2.55" style="">DQ648857.1_BtCoV/279/2005</text></g><g transform="translate(354.28,480.55)rotate(0)"><text x="-183.42" y="2.55" style="">KJ473814.1_BtRs-BetaCoV/HuB2013</text></g><g transform="translate(354.28,469.22)rotate(0)"><text x="-113.38" y="2.55" style="">GQ153544.1_HKU3-9</text></g><g transform="translate(354.28,457.90)rotate(0)"><text x="-118.94" y="2.55" style="">GQ153545.1_HKU3-10</text></g><g transform="translate(354.28,446.57)rotate(0)"><text x="-118.94" y="2.55" style="">GQ153546.1_HKU3-11</text></g><g transform="translate(354.28,435.25)rotate(0)"><text x="-118.94" y="2.55" style="">GQ153548.1_HKU3-13</text></g><g transform="translate(354.28,423.93)rotate(0)"><text x="-113.38" y="2.55" style="">GQ153540.1_HKU3-5</text></g><g transform="translate(354.28,412.60)rotate(0)"><text x="-113.38" y="2.55" style="">GQ153539.1_HKU3-4</text></g><g transform="translate(354.28,401.28)rotate(0)"><text x="-113.38" y="2.55" style="">GQ153541.1_HKU3-6</text></g><g transform="translate(354.28,389.95)rotate(0)"><text x="-112.82" y="2.55" style="">DQ084199.1_HKU3-2</text></g><g transform="translate(354.28,378.63)rotate(0)"><text x="-112.82" y="2.55" style="">DQ084200.1_HKU3-3</text></g><g transform="translate(354.28,367.30)rotate(0)"><text x="-112.82" y="2.55" style="">DQ022305.2_HKU3-1</text></g><g transform="translate(354.28,355.98)rotate(0)"><text x="-118.94" y="2.55" style="">GQ153547.1_HKU3-12</text></g><g transform="translate(354.28,344.66)rotate(0)"><text x="-113.38" y="2.55" style="">GQ153542.1_HKU3-7</text></g><g transform="translate(354.28,333.33)rotate(0)"><text x="-113.38" y="2.55" style="">GQ153543.1_HKU3-8</text></g><g transform="translate(354.28,322.01)rotate(0)"><text x="-144.50" y="2.55" style="">MG772934.1_SL-CoVZXC21</text></g><g transform="translate(354.28,310.68)rotate(0)"><text x="-137.83" y="2.55" style="">MG772933.1_SL-CoVZC45</text></g><g transform="translate(354.28,299.36)rotate(0)"><text x="-115.60" y="2.55" style="">MN996532.2_RaTG13</text></g><g transform="translate(354.28,288.04)rotate(0)"><text x="-167.30" y="2.55" style="">GU190215.1_BM48-31/BGR/2008</text></g><g transform="translate(354.28,276.71)rotate(0)"><text x="-172.30" y="2.55" style="">NC_014470.1_BM48-31/BGR/2008</text></g><g transform="translate(354.28,265.39)rotate(0)"><text x="-225.66" y="2.55" style="">KF636752.1_Hp-betacoronavirus/Zhejiang2013</text></g><g transform="translate(354.28,254.06)rotate(0)"><text x="-187.31" y="2.55" style="">KJ473798.1_BtMf-AlphaCoV/HuB2013</text></g><g transform="translate(354.28,242.74)rotate(0)"><text x="-187.86" y="2.55" style="">KJ473800.1_BtMf-AlphaCoV/HeN2013</text></g><g transform="translate(354.28,231.41)rotate(0)"><text x="-178.97" y="2.55" style="">KJ473799.1_BtMf-AlphaCoV/FJ2012</text></g><g transform="translate(354.28,220.09)rotate(0)"><text x="-182.86" y="2.55" style="">KJ473797.1_BtMf-AlphaCoV/GD2012</text></g><g transform="translate(354.28,208.77)rotate(0)"><text x="-172.27" y="2.55" style="">EU420139.1_HKU8-strain-AFCD77</text></g><g transform="translate(354.28,197.44)rotate(0)"><text x="-205.63" y="2.55" style="">EU420138.1_Miniopterus-bat-coronavirus1</text></g><g transform="translate(354.28,186.12)rotate(0)"><text x="-181.75" y="2.55" style="">KJ473795.1_BtMf-AlphaCoV/AH2011</text></g><g transform="translate(354.28,174.79)rotate(0)"><text x="-179.53" y="2.55" style="">KJ473796.1_BtMf-AlphaCoV/JX2012</text></g><g transform="translate(354.28,163.47)rotate(0)"><text x="-163.39" y="2.55" style="">EU420137.1_1B-strain-AFCD307</text></g><g transform="translate(354.28,152.14)rotate(0)"><text x="-186.20" y="2.55" style="">KJ473807.1_BtRf-AlphaCoV/HuB2013</text></g><g transform="translate(354.28,140.82)rotate(0)"><text x="-188.42" y="2.55" style="">KJ473806.1_BtMr-AlphaCoV/SAX2011</text></g><g transform="translate(354.28,129.50)rotate(0)"><text x="-101.71" y="2.55" style="">EF203065.1_HKU2</text></g><g transform="translate(354.28,118.17)rotate(0)"><text x="-180.64" y="2.55" style="">KJ473808.1_BtRf-AlphaCoV/YN2012</text></g><g transform="translate(354.28,106.85)rotate(0)"><text x="-177.31" y="2.55" style="">KJ473821.1_BtVs-BetaCoV/SC2013</text></g><g transform="translate(354.28,95.52)rotate(0)"><text x="-178.98" y="2.55" style="">KJ473820.1_BtPa-BetaCoV/GD2013</text></g><g transform="translate(354.28,84.20)rotate(0)"><text x="-101.71" y="2.55" style="">EF065509.1_HKU5</text></g><g transform="translate(354.28,72.87)rotate(0)"><text x="-101.71" y="2.55" style="">EF065505.1_HKU4</text></g><g transform="translate(354.28,61.55)rotate(0)"><text x="-177.87" y="2.55" style="">KJ473822.1_BtTp-BetaCoV/GX2012</text></g></g></g></g><g class="toyplot-coordinates-Axis" id="t07a5a27984b345469f25e3ff1d7fb53c" transform="translate(50.0,850.0)translate(0,20.0)"><line x1="304.2815448380427" y1="0" x2="1200.0" y2="0" style="" /><g><line x1="304.2815448380427" y1="0" x2="304.2815448380427" y2="-5" style="" /><line x1="378.92474943487247" y1="0" x2="378.92474943487247" y2="-5" style="" /><line x1="453.5679540317023" y1="0" x2="453.5679540317023" y2="-5" style="" /><line x1="528.2111586285321" y1="0" x2="528.2111586285321" y2="-5" style="" /><line x1="602.8543632253618" y1="0" x2="602.8543632253618" y2="-5" style="" /><line x1="677.4975678221916" y1="0" x2="677.4975678221916" y2="-5" style="" /><line x1="752.1407724190215" y1="0" x2="752.1407724190215" y2="-5" style="" /><line x1="826.7839770158511" y1="0" x2="826.7839770158511" y2="-5" style="" /><line x1="901.4271816126809" y1="0" x2="901.4271816126809" y2="-5" style="" /><line x1="976.0703862095107" y1="0" x2="976.0703862095107" y2="-5" style="" /><line x1="1050.7135908063406" y1="0" x2="1050.7135908063406" y2="-5" style="" /><line x1="1125.3567954031703" y1="0" x2="1125.3567954031703" y2="-5" style="" /><line x1="1200.0" y1="0" x2="1200.0" y2="-5" style="" /></g><g><g transform="translate(304.2815448380427,6)"><text x="-6.95" y="8.555" style="fill:rgb(16.1%,15.3%,14.1%);fill-opacity:1.0;font-family:helvetica;font-size:10.0px;font-weight:normal;stroke:none;vertical-align:baseline;white-space:pre">0.0</text></g><g transform="translate(378.92474943487247,6)"><text x="-6.95" y="8.555" style="fill:rgb(16.1%,15.3%,14.1%);fill-opacity:1.0;font-family:helvetica;font-size:10.0px;font-weight:normal;stroke:none;vertical-align:baseline;white-space:pre">0.2</text></g><g transform="translate(453.5679540317023,6)"><text x="-6.95" y="8.555" style="fill:rgb(16.1%,15.3%,14.1%);fill-opacity:1.0;font-family:helvetica;font-size:10.0px;font-weight:normal;stroke:none;vertical-align:baseline;white-space:pre">0.3</text></g><g transform="translate(528.2111586285321,6)"><text x="-6.95" y="8.555" style="fill:rgb(16.1%,15.3%,14.1%);fill-opacity:1.0;font-family:helvetica;font-size:10.0px;font-weight:normal;stroke:none;vertical-align:baseline;white-space:pre">0.5</text></g><g transform="translate(602.8543632253618,6)"><text x="-6.95" y="8.555" style="fill:rgb(16.1%,15.3%,14.1%);fill-opacity:1.0;font-family:helvetica;font-size:10.0px;font-weight:normal;stroke:none;vertical-align:baseline;white-space:pre">0.6</text></g><g transform="translate(677.4975678221916,6)"><text x="-6.95" y="8.555" style="fill:rgb(16.1%,15.3%,14.1%);fill-opacity:1.0;font-family:helvetica;font-size:10.0px;font-weight:normal;stroke:none;vertical-align:baseline;white-space:pre">0.8</text></g><g transform="translate(752.1407724190215,6)"><text x="-6.95" y="8.555" style="fill:rgb(16.1%,15.3%,14.1%);fill-opacity:1.0;font-family:helvetica;font-size:10.0px;font-weight:normal;stroke:none;vertical-align:baseline;white-space:pre">0.9</text></g><g transform="translate(826.7839770158511,6)"><text x="-6.95" y="8.555" style="fill:rgb(16.1%,15.3%,14.1%);fill-opacity:1.0;font-family:helvetica;font-size:10.0px;font-weight:normal;stroke:none;vertical-align:baseline;white-space:pre">1.1</text></g><g transform="translate(901.4271816126809,6)"><text x="-6.95" y="8.555" style="fill:rgb(16.1%,15.3%,14.1%);fill-opacity:1.0;font-family:helvetica;font-size:10.0px;font-weight:normal;stroke:none;vertical-align:baseline;white-space:pre">1.2</text></g><g transform="translate(976.0703862095107,6)"><text x="-6.95" y="8.555" style="fill:rgb(16.1%,15.3%,14.1%);fill-opacity:1.0;font-family:helvetica;font-size:10.0px;font-weight:normal;stroke:none;vertical-align:baseline;white-space:pre">1.4</text></g><g transform="translate(1050.7135908063406,6)"><text x="-6.95" y="8.555" style="fill:rgb(16.1%,15.3%,14.1%);fill-opacity:1.0;font-family:helvetica;font-size:10.0px;font-weight:normal;stroke:none;vertical-align:baseline;white-space:pre">1.5</text></g><g transform="translate(1125.3567954031703,6)"><text x="-6.95" y="8.555" style="fill:rgb(16.1%,15.3%,14.1%);fill-opacity:1.0;font-family:helvetica;font-size:10.0px;font-weight:normal;stroke:none;vertical-align:baseline;white-space:pre">1.7</text></g><g transform="translate(1200.0,6)"><text x="-6.95" y="8.555" style="fill:rgb(16.1%,15.3%,14.1%);fill-opacity:1.0;font-family:helvetica;font-size:10.0px;font-weight:normal;stroke:none;vertical-align:baseline;white-space:pre">1.8</text></g></g><g class="toyplot-coordinates-Axis-coordinates" style="visibility:hidden" transform=""><line x1="0" x2="0" y1="-3.0" y2="4.5" style="stroke:rgb(43.9%,50.2%,56.5%);stroke-opacity:1.0;stroke-width:1.0" /><text x="0" y="-6" style="alignment-baseline:alphabetic;fill:rgb(43.9%,50.2%,56.5%);fill-opacity:1.0;font-size:10px;font-weight:normal;stroke:none;text-anchor:middle" /></g></g></g></svg>