<svg class="toyplot-canvas-Canvas" xmlns:toyplot="http://www.sandia.gov/toyplot" xmlns:xlink="http://www.w3.org/1999/xlink" xmlns="http://www.w3.org/2000/svg" width="1300.0px" height="900.0px" viewBox="0 0 1300.0 900.0" preserveAspectRatio="xMidYMid meet" style="background-color:transparent;border-color:#292724;border-style:none;border-width:1.0;fill:rgb(16.1%,15.3%,14.1%);fill-opacity:1.0;font-family:Helvetica;font-size:12px;opacity:1.0;stroke:rgb(16.1%,15.3%,14.1%);stroke-opacity:1.0;stroke-width:1.0" id="t267d1c1934244adeb0f5b44cd72c24d8"><g class="toyplot-coordinates-Cartesian" id="t8ac0417a4d244f1ea46031ae779e9529"><clipPath id="t2d0c661997924b66aa71b1b44e6de014"><rect x="30.0" y="30.0" width="1240.0" height="840.0" /></clipPath><g clip-path="url(#t2d0c661997924b66aa71b1b44e6de014)"><g class="toytree-mark-Toytree" id="ta7c4f506331349cfb300113610c679a0"><g class="toytree-Edges" style="fill:none;stroke:rgb(55.3%,62.7%,79.6%);stroke-linecap:round;stroke-opacity:1;stroke-width:2.5"><path d="M 50.0 87.0 L 50.0 126.6 L 190.1 126.6" id="135,134" /><path d="M 190.1 126.6 L 190.1 89.9 L 299.6 89.9" id="134,133" /><path d="M 190.1 126.6 L 190.1 163.3 L 253.0 163.3" id="134,132" /><path d="M 253.0 163.3 L 253.0 219.7 L 253.6 219.7" id="132,131" /><path d="M 253.6 219.7 L 253.6 141.2 L 373.0 141.2" id="131,130" /><path d="M 253.6 219.7 L 253.6 298.2 L 475.4 298.2" id="131,129" /><path d="M 373.0 141.2 L 373.0 123.8 L 649.1 123.8" id="130,128" /><path d="M 373.0 141.2 L 373.0 158.5 L 467.8 158.5" id="130,127" /><path d="M 475.4 298.2 L 475.4 331.1 L 784.9 331.1" id="129,126" /><path d="M 467.8 158.5 L 467.8 176.2 L 529.7 176.2" id="127,125" /><path d="M 784.9 331.1 L 784.9 282.4 L 874.1 282.4" id="126,124" /><path d="M 784.9 331.1 L 784.9 379.8 L 827.0 379.8" id="126,123" /><path d="M 529.7 176.2 L 529.7 200.3 L 623.2 200.3" id="125,122" /><path d="M 827.0 379.8 L 827.0 307.9 L 884.2 307.9" id="123,121" /><path d="M 827.0 379.8 L 827.0 451.8 L 855.1 451.8" id="123,120" /><path d="M 623.2 200.3 L 623.2 173.4 L 793.4 173.4" id="122,119" /><path d="M 623.2 200.3 L 623.2 227.2 L 754.0 227.2" id="122,118" /><path d="M 884.2 307.9 L 884.2 316.3 L 898.8 316.3" id="121,117" /><path d="M 855.1 451.8 L 855.1 355.3 L 877.0 355.3" id="120,116" /><path d="M 855.1 451.8 L 855.1 548.4 L 865.8 548.4" id="120,115" /><path d="M 793.4 173.4 L 793.4 183.3 L 825.0 183.3" id="119,114" /><path d="M 754.0 227.2 L 754.0 214.4 L 801.3 214.4" id="118,113" /><path d="M 754.0 227.2 L 754.0 239.9 L 800.9 239.9" id="118,112" /><path d="M 877.0 355.3 L 877.0 339.0 L 884.0 339.0" id="116,111" /><path d="M 877.0 355.3 L 877.0 371.5 L 881.2 371.5" id="116,110" /><path d="M 865.8 548.4 L 865.8 506.7 L 871.5 506.7" id="115,109" /><path d="M 865.8 548.4 L 865.8 590.1 L 885.4 590.1" id="115,108" /><path d="M 825.0 183.3 L 825.0 191.8 L 828.5 191.8" id="114,107" /><path d="M 800.9 239.9 L 800.9 248.4 L 802.6 248.4" id="112,106" /><path d="M 881.2 371.5 L 881.2 387.1 L 885.0 387.1" id="110,105" /><path d="M 871.5 506.7 L 871.5 489.0 L 879.8 489.0" id="109,104" /><path d="M 871.5 506.7 L 871.5 524.4 L 884.1 524.4" id="109,103" /><path d="M 885.4 590.1 L 885.4 568.3 L 894.2 568.3" id="108,102" /><path d="M 885.4 590.1 L 885.4 611.8 L 892.3 611.8" id="108,101" /><path d="M 885.0 387.1 L 885.0 373.0 L 885.3 373.0" id="105,100" /><path d="M 885.0 387.1 L 885.0 401.2 L 885.1 401.2" id="105,99" /><path d="M 879.8 489.0 L 879.8 497.5 L 903.0 497.5" id="104,98" /><path d="M 884.1 524.4 L 884.1 534.3 L 913.1 534.3" id="103,97" /><path d="M 894.2 568.3 L 894.2 576.8 L 907.1 576.8" id="102,96" /><path d="M 892.3 611.8 L 892.3 629.8 L 896.0 629.8" id="101,95" /><path d="M 885.1 401.2 L 885.1 412.4 L 885.2 412.4" id="99,94" /><path d="M 913.1 534.3 L 913.1 542.8 L 921.3 542.8" id="97,93" /><path d="M 896.0 629.8 L 896.0 654.6 L 903.5 654.6" id="95,92" /><path d="M 885.2 412.4 L 885.2 423.6 L 885.2 423.6" id="94,91" /><path d="M 903.5 654.6 L 903.5 692.7 L 905.3 692.7" id="92,90" /><path d="M 885.2 423.6 L 885.2 434.5 L 885.3 434.5" id="91,89" /><path d="M 905.3 692.7 L 905.3 650.4 L 906.5 650.4" id="90,88" /><path d="M 905.3 692.7 L 905.3 735.0 L 906.7 735.0" id="90,87" /><path d="M 885.3 434.5 L 885.3 445.2 L 885.5 445.2" id="89,86" /><path d="M 906.5 650.4 L 906.5 633.4 L 909.8 633.4" id="88,85" /><path d="M 906.5 650.4 L 906.5 667.4 L 908.8 667.4" id="88,84" /><path d="M 906.7 735.0 L 906.7 704.2 L 909.5 704.2" id="87,83" /><path d="M 906.7 735.0 L 906.7 765.8 L 916.0 765.8" id="87,82" /><path d="M 885.5 445.2 L 885.5 455.1 L 885.6 455.1" id="86,81" /><path d="M 908.8 667.4 L 908.8 656.1 L 910.9 656.1" id="84,80" /><path d="M 908.8 667.4 L 908.8 678.7 L 911.5 678.7" id="84,79" /><path d="M 909.5 704.2 L 909.5 712.7 L 917.2 712.7" id="83,78" /><path d="M 916.0 765.8 L 916.0 738.2 L 920.0 738.2" id="82,77" /><path d="M 916.0 765.8 L 916.0 793.4 L 918.3 793.4" id="82,76" /><path d="M 885.6 455.1 L 885.6 463.6 L 885.7 463.6" id="81,75" /><path d="M 920.0 738.2 L 920.0 746.7 L 923.9 746.7" id="77,74" /><path d="M 918.3 793.4 L 918.3 772.1 L 919.5 772.1" id="76,73" /><path d="M 918.3 793.4 L 918.3 814.6 L 920.6 814.6" id="76,72" /><path d="M 919.5 772.1 L 919.5 780.6 L 921.9 780.6" id="73,71" /><path d="M 920.6 814.6 L 920.6 803.3 L 921.9 803.3" id="72,70" /><path d="M 920.6 814.6 L 920.6 825.9 L 922.3 825.9" id="72,69" /><path d="M 50.0 87.0 L 50.0 61.6 L 64.2 61.6" id="135,68" /><path d="M 50.0 87.0 L 50.0 72.9 L 64.8 72.9" id="135,67" /><path d="M 299.6 89.9 L 299.6 84.2 L 310.3 84.2" id="133,66" /><path d="M 299.6 89.9 L 299.6 95.5 L 312.8 95.5" id="133,65" /><path d="M 253.0 163.3 L 253.0 106.8 L 373.4 106.8" id="132,64" /><path d="M 649.1 123.8 L 649.1 118.2 L 687.2 118.2" id="128,63" /><path d="M 649.1 123.8 L 649.1 129.5 L 687.2 129.5" id="128,62" /><path d="M 467.8 158.5 L 467.8 140.8 L 766.3 140.8" id="127,61" /><path d="M 529.7 176.2 L 529.7 152.1 L 798.2 152.1" id="125,60" /><path d="M 793.4 173.4 L 793.4 163.5 L 835.3 163.5" id="119,59" /><path d="M 825.0 183.3 L 825.0 174.8 L 832.2 174.8" id="114,58" /><path d="M 828.5 191.8 L 828.5 186.1 L 837.6 186.1" id="107,57" /><path d="M 828.5 191.8 L 828.5 197.4 L 838.9 197.4" id="107,56" /><path d="M 801.3 214.4 L 801.3 208.8 L 836.3 208.8" id="113,55" /><path d="M 801.3 214.4 L 801.3 220.1 L 803.9 220.1" id="113,54" /><path d="M 800.9 239.9 L 800.9 231.4 L 805.6 231.4" id="112,53" /><path d="M 802.6 248.4 L 802.6 242.7 L 808.6 242.7" id="106,52" /><path d="M 802.6 248.4 L 802.6 254.1 L 834.7 254.1" id="106,51" /><path d="M 475.4 298.2 L 475.4 265.4 L 932.6 265.4" id="129,50" /><path d="M 874.1 282.4 L 874.1 276.7 L 874.1 276.7" id="124,49" /><path d="M 874.1 282.4 L 874.1 288.0 L 874.1 288.0" id="124,48" /><path d="M 884.2 307.9 L 884.2 299.4 L 954.2 299.4" id="121,47" /><path d="M 898.8 316.3 L 898.8 310.7 L 905.7 310.7" id="117,46" /><path d="M 898.8 316.3 L 898.8 322.0 L 908.7 322.0" id="117,45" /><path d="M 884.0 339.0 L 884.0 333.3 L 884.1 333.3" id="111,44" /><path d="M 884.0 339.0 L 884.0 344.7 L 884.1 344.7" id="111,43" /><path d="M 881.2 371.5 L 881.2 356.0 L 885.4 356.0" id="110,42" /><path d="M 885.3 373.0 L 885.3 367.3 L 885.3 367.3" id="100,41" /><path d="M 885.3 373.0 L 885.3 378.6 L 885.3 378.6" id="100,40" /><path d="M 885.1 401.2 L 885.1 390.0 L 885.2 390.0" id="99,39" /><path d="M 885.2 412.4 L 885.2 401.3 L 885.4 401.3" id="94,38" /><path d="M 885.2 423.6 L 885.2 412.6 L 885.3 412.6" id="91,37" /><path d="M 885.3 434.5 L 885.3 423.9 L 885.3 423.9" id="89,36" /><path d="M 885.5 445.2 L 885.5 435.3 L 885.7 435.3" id="86,35" /><path d="M 885.6 455.1 L 885.6 446.6 L 885.7 446.6" id="81,34" /><path d="M 885.7 463.6 L 885.7 457.9 L 885.7 457.9" id="75,33" /><path d="M 885.7 463.6 L 885.7 469.2 L 885.7 469.2" id="75,32" /><path d="M 879.8 489.0 L 879.8 480.5 L 900.3 480.5" id="104,31" /><path d="M 903.0 497.5 L 903.0 491.9 L 903.7 491.9" id="98,30" /><path d="M 903.0 497.5 L 903.0 503.2 L 904.3 503.2" id="98,29" /><path d="M 884.1 524.4 L 884.1 514.5 L 904.1 514.5" id="103,28" /><path d="M 913.1 534.3 L 913.1 525.8 L 925.6 525.8" id="97,27" /><path d="M 921.3 542.8 L 921.3 537.2 L 922.1 537.2" id="93,26" /><path d="M 921.3 542.8 L 921.3 548.5 L 922.1 548.5" id="93,25" /><path d="M 894.2 568.3 L 894.2 559.8 L 912.1 559.8" id="102,24" /><path d="M 907.1 576.8 L 907.1 571.1 L 927.4 571.1" id="96,23" /><path d="M 907.1 576.8 L 907.1 582.5 L 928.2 582.5" id="96,22" /><path d="M 892.3 611.8 L 892.3 593.8 L 907.0 593.8" id="101,21" /><path d="M 896.0 629.8 L 896.0 605.1 L 909.4 605.1" id="95,20" /><path d="M 903.5 654.6 L 903.5 616.4 L 912.7 616.4" id="92,19" /><path d="M 909.8 633.4 L 909.8 627.8 L 912.8 627.8" id="85,18" /><path d="M 909.8 633.4 L 909.8 639.1 L 912.6 639.1" id="85,17" /><path d="M 910.9 656.1 L 910.9 650.4 L 915.4 650.4" id="80,16" /><path d="M 910.9 656.1 L 910.9 661.7 L 915.8 661.7" id="80,15" /><path d="M 911.5 678.7 L 911.5 673.1 L 915.4 673.1" id="79,14" /><path d="M 911.5 678.7 L 911.5 684.4 L 916.6 684.4" id="79,13" /><path d="M 909.5 704.2 L 909.5 695.7 L 916.3 695.7" id="83,12" /><path d="M 917.2 712.7 L 917.2 707.0 L 917.3 707.0" id="78,11" /><path d="M 917.2 712.7 L 917.2 718.4 L 917.3 718.4" id="78,10" /><path d="M 920.0 738.2 L 920.0 729.7 L 924.8 729.7" id="77,9" /><path d="M 923.9 746.7 L 923.9 741.0 L 924.1 741.0" id="74,8" /><path d="M 923.9 746.7 L 923.9 752.3 L 924.1 752.3" id="74,7" /><path d="M 919.5 772.1 L 919.5 763.7 L 923.3 763.7" id="73,6" /><path d="M 921.9 780.6 L 921.9 775.0 L 923.4 775.0" id="71,5" /><path d="M 921.9 780.6 L 921.9 786.3 L 924.4 786.3" id="71,4" /><path d="M 921.9 803.3 L 921.9 797.6 L 924.1 797.6" id="70,3" /><path d="M 921.9 803.3 L 921.9 808.9 L 923.3 808.9" id="70,2" /><path d="M 922.3 825.9 L 922.3 820.3 L 922.6 820.3" id="69,1" /><path d="M 922.3 825.9 L 922.3 831.6 L 922.5 831.6" id="69,0" /></g><g class="toytree-AlignEdges" style="stroke:rgb(66.3%,66.3%,66.3%);stroke-dasharray:2, 4;stroke-linecap:round;stroke-opacity:1.0;stroke-width:2"><path d="M 954.2 831.6 L 922.5 831.6" /><path d="M 954.2 820.3 L 922.6 820.3" /><path d="M 954.2 808.9 L 923.3 808.9" /><path d="M 954.2 797.6 L 924.1 797.6" /><path d="M 954.2 786.3 L 924.4 786.3" /><path d="M 954.2 775.0 L 923.4 775.0" /><path d="M 954.2 763.7 L 923.3 763.7" /><path d="M 954.2 752.3 L 924.1 752.3" /><path d="M 954.2 741.0 L 924.1 741.0" /><path d="M 954.2 729.7 L 924.8 729.7" /><path d="M 954.2 718.4 L 917.3 718.4" /><path d="M 954.2 707.0 L 917.3 707.0" /><path d="M 954.2 695.7 L 916.3 695.7" /><path d="M 954.2 684.4 L 916.6 684.4" /><path d="M 954.2 673.1 L 915.4 673.1" /><path d="M 954.2 661.7 L 915.8 661.7" /><path d="M 954.2 650.4 L 915.4 650.4" /><path d="M 954.2 639.1 L 912.6 639.1" /><path d="M 954.2 627.8 L 912.8 627.8" /><path d="M 954.2 616.4 L 912.7 616.4" /><path d="M 954.2 605.1 L 909.4 605.1" /><path d="M 954.2 593.8 L 907.0 593.8" /><path d="M 954.2 582.5 L 928.2 582.5" /><path d="M 954.2 571.1 L 927.4 571.1" /><path d="M 954.2 559.8 L 912.1 559.8" /><path d="M 954.2 548.5 L 922.1 548.5" /><path d="M 954.2 537.2 L 922.1 537.2" /><path d="M 954.2 525.8 L 925.6 525.8" /><path d="M 954.2 514.5 L 904.1 514.5" /><path d="M 954.2 503.2 L 904.3 503.2" /><path d="M 954.2 491.9 L 903.7 491.9" /><path d="M 954.2 480.5 L 900.3 480.5" /><path d="M 954.2 469.2 L 885.7 469.2" /><path d="M 954.2 457.9 L 885.7 457.9" /><path d="M 954.2 446.6 L 885.7 446.6" /><path d="M 954.2 435.3 L 885.7 435.3" /><path d="M 954.2 423.9 L 885.3 423.9" /><path d="M 954.2 412.6 L 885.3 412.6" /><path d="M 954.2 401.3 L 885.4 401.3" /><path d="M 954.2 390.0 L 885.2 390.0" /><path d="M 954.2 378.6 L 885.3 378.6" /><path d="M 954.2 367.3 L 885.3 367.3" /><path d="M 954.2 356.0 L 885.4 356.0" /><path d="M 954.2 344.7 L 884.1 344.7" /><path d="M 954.2 333.3 L 884.1 333.3" /><path d="M 954.2 322.0 L 908.7 322.0" /><path d="M 954.2 310.7 L 905.7 310.7" /><path d="M 954.2 299.4 L 954.2 299.4" /><path d="M 954.2 288.0 L 874.1 288.0" /><path d="M 954.2 276.7 L 874.1 276.7" /><path d="M 954.2 265.4 L 932.6 265.4" /><path d="M 954.2 254.1 L 834.7 254.1" /><path d="M 954.2 242.7 L 808.6 242.7" /><path d="M 954.2 231.4 L 805.6 231.4" /><path d="M 954.2 220.1 L 803.9 220.1" /><path d="M 954.2 208.8 L 836.3 208.8" /><path d="M 954.2 197.4 L 838.9 197.4" /><path d="M 954.2 186.1 L 837.6 186.1" /><path d="M 954.2 174.8 L 832.2 174.8" /><path d="M 954.2 163.5 L 835.3 163.5" /><path d="M 954.2 152.1 L 798.2 152.1" /><path d="M 954.2 140.8 L 766.3 140.8" /><path d="M 954.2 129.5 L 687.2 129.5" /><path d="M 954.2 118.2 L 687.2 118.2" /><path d="M 954.2 106.8 L 373.4 106.8" /><path d="M 954.2 95.5 L 312.8 95.5" /><path d="M 954.2 84.2 L 310.3 84.2" /><path d="M 954.2 72.9 L 64.8 72.9" /><path d="M 954.2 61.6 L 64.2 61.6" /></g><g class="toytree-Nodes" style="fill:rgb(40%,76.1%,64.7%);fill-opacity:1.0;stroke:None;stroke-width:1"><g id="node-0" transform="translate(922.451,831.598)"><circle r="0.0" /></g><g id="node-1" transform="translate(922.621,820.274)"><circle r="0.0" /></g><g id="node-2" transform="translate(923.271,808.950)"><circle r="0.0" /></g><g id="node-3" transform="translate(924.082,797.625)"><circle r="0.0" /></g><g id="node-4" transform="translate(924.447,786.301)"><circle r="0.0" /></g><g id="node-5" transform="translate(923.441,774.977)"><circle r="0.0" /></g><g id="node-6" transform="translate(923.343,763.653)"><circle r="0.0" /></g><g id="node-7" transform="translate(924.136,752.329)"><circle r="0.0" /></g><g id="node-8" transform="translate(924.080,741.004)"><circle r="0.0" /></g><g id="node-9" transform="translate(924.829,729.680)"><circle r="0.0" /></g><g id="node-10" transform="translate(917.340,718.356)"><circle r="0.0" /></g><g id="node-11" transform="translate(917.283,707.032)"><circle r="0.0" /></g><g id="node-12" transform="translate(916.301,695.707)"><circle r="0.0" /></g><g id="node-13" transform="translate(916.644,684.383)"><circle r="0.0" /></g><g id="node-14" transform="translate(915.445,673.059)"><circle r="0.0" /></g><g id="node-15" transform="translate(915.812,661.735)"><circle r="0.0" /></g><g id="node-16" transform="translate(915.405,650.411)"><circle r="0.0" /></g><g id="node-17" transform="translate(912.609,639.086)"><circle r="0.0" /></g><g id="node-18" transform="translate(912.802,627.762)"><circle r="0.0" /></g><g id="node-19" transform="translate(912.673,616.438)"><circle r="0.0" /></g><g id="node-20" transform="translate(909.407,605.114)"><circle r="0.0" /></g><g id="node-21" transform="translate(906.989,593.789)"><circle r="0.0" /></g><g id="node-22" transform="translate(928.153,582.465)"><circle r="0.0" /></g><g id="node-23" transform="translate(927.408,571.141)"><circle r="0.0" /></g><g id="node-24" transform="translate(912.089,559.817)"><circle r="0.0" /></g><g id="node-25" transform="translate(922.063,548.492)"><circle r="0.0" /></g><g id="node-26" transform="translate(922.093,537.168)"><circle r="0.0" /></g><g id="node-27" transform="translate(925.627,525.844)"><circle r="0.0" /></g><g id="node-28" transform="translate(904.134,514.520)"><circle r="0.0" /></g><g id="node-29" transform="translate(904.304,503.196)"><circle r="0.0" /></g><g id="node-30" transform="translate(903.689,491.871)"><circle r="0.0" /></g><g id="node-31" transform="translate(900.295,480.547)"><circle r="0.0" /></g><g id="node-32" transform="translate(885.687,469.223)"><circle r="0.0" /></g><g id="node-33" transform="translate(885.714,457.899)"><circle r="0.0" /></g><g id="node-34" transform="translate(885.743,446.574)"><circle r="0.0" /></g><g id="node-35" transform="translate(885.743,435.250)"><circle r="0.0" /></g><g id="node-36" transform="translate(885.347,423.926)"><circle r="0.0" /></g><g id="node-37" transform="translate(885.319,412.602)"><circle r="0.0" /></g><g id="node-38" transform="translate(885.375,401.278)"><circle r="0.0" /></g><g id="node-39" transform="translate(885.178,389.953)"><circle r="0.0" /></g><g id="node-40" transform="translate(885.264,378.629)"><circle r="0.0" /></g><g id="node-41" transform="translate(885.264,367.305)"><circle r="0.0" /></g><g id="node-42" transform="translate(885.439,355.981)"><circle r="0.0" /></g><g id="node-43" transform="translate(884.092,344.656)"><circle r="0.0" /></g><g id="node-44" transform="translate(884.123,333.332)"><circle r="0.0" /></g><g id="node-45" transform="translate(908.740,322.008)"><circle r="0.0" /></g><g id="node-46" transform="translate(905.678,310.684)"><circle r="0.0" /></g><g id="node-47" transform="translate(954.155,299.359)"><circle r="0.0" /></g><g id="node-48" transform="translate(874.055,288.035)"><circle r="0.0" /></g><g id="node-49" transform="translate(874.055,276.711)"><circle r="0.0" /></g><g id="node-50" transform="translate(932.551,265.387)"><circle r="0.0" /></g><g id="node-51" transform="translate(834.698,254.063)"><circle r="0.0" /></g><g id="node-52" transform="translate(808.634,242.738)"><circle r="0.0" /></g><g id="node-53" transform="translate(805.615,231.414)"><circle r="0.0" /></g><g id="node-54" transform="translate(803.930,220.090)"><circle r="0.0" /></g><g id="node-55" transform="translate(836.342,208.766)"><circle r="0.0" /></g><g id="node-56" transform="translate(838.940,197.441)"><circle r="0.0" /></g><g id="node-57" transform="translate(837.554,186.117)"><circle r="0.0" /></g><g id="node-58" transform="translate(832.242,174.793)"><circle r="0.0" /></g><g id="node-59" transform="translate(835.288,163.469)"><circle r="0.0" /></g><g id="node-60" transform="translate(798.218,152.145)"><circle r="0.0" /></g><g id="node-61" transform="translate(766.264,140.820)"><circle r="0.0" /></g><g id="node-62" transform="translate(687.158,129.496)"><circle r="0.0" /></g><g id="node-63" transform="translate(687.205,118.172)"><circle r="0.0" /></g><g id="node-64" transform="translate(373.404,106.848)"><circle r="0.0" /></g><g id="node-65" transform="translate(312.805,95.523)"><circle r="0.0" /></g><g id="node-66" transform="translate(310.334,84.199)"><circle r="0.0" /></g><g id="node-67" transform="translate(64.798,72.875)"><circle r="0.0" /></g><g id="node-68" transform="translate(64.204,61.551)"><circle r="0.0" /></g><g id="node-69" transform="translate(922.310,825.936)"><circle r="12.5" /></g><g id="node-70" transform="translate(921.941,803.288)"><circle r="12.5" /></g><g id="node-71" transform="translate(921.873,780.639)"><circle r="12.5" /></g><g id="node-72" transform="translate(920.573,814.612)"><circle r="12.5" /></g><g id="node-73" transform="translate(919.521,772.146)"><circle r="12.5" /></g><g id="node-74" transform="translate(923.882,746.666)"><circle r="12.5" /></g><g id="node-75" transform="translate(885.686,463.561)"><circle r="12.5" /></g><g id="node-76" transform="translate(918.274,793.379)"><circle r="12.5" /></g><g id="node-77" transform="translate(919.990,738.173)"><circle r="12.5" /></g><g id="node-78" transform="translate(917.227,712.694)"><circle r="12.5" /></g><g id="node-79" transform="translate(911.491,678.721)"><circle r="12.5" /></g><g id="node-80" transform="translate(910.872,656.073)"><circle r="12.5" /></g><g id="node-81" transform="translate(885.601,455.068)"><circle r="12.5" /></g><g id="node-82" transform="translate(915.958,765.776)"><circle r="12.5" /></g><g id="node-83" transform="translate(909.480,704.201)"><circle r="12.5" /></g><g id="node-84" transform="translate(908.755,667.397)"><circle r="12.5" /></g><g id="node-85" transform="translate(909.754,633.424)"><circle r="12.5" /></g><g id="node-86" transform="translate(885.460,445.159)"><circle r="12.5" /></g><g id="node-87" transform="translate(906.732,734.988)"><circle r="12.5" /></g><g id="node-88" transform="translate(906.472,650.411)"><circle r="12.5" /></g><g id="node-89" transform="translate(885.319,434.542)"><circle r="12.5" /></g><g id="node-90" transform="translate(905.280,692.699)"><circle r="12.5" /></g><g id="node-91" transform="translate(885.234,423.572)"><circle r="12.5" /></g><g id="node-92" transform="translate(903.532,654.569)"><circle r="12.5" /></g><g id="node-93" transform="translate(921.343,542.830)"><circle r="12.5" /></g><g id="node-94" transform="translate(885.206,412.425)"><circle r="12.5" /></g><g id="node-95" transform="translate(896.031,629.841)"><circle r="12.5" /></g><g id="node-96" transform="translate(907.079,576.803)"><circle r="12.5" /></g><g id="node-97" transform="translate(913.065,534.337)"><circle r="12.5" /></g><g id="node-98" transform="translate(902.961,497.533)"><circle r="12.5" /></g><g id="node-99" transform="translate(885.121,401.189)"><circle r="12.5" /></g><g id="node-100" transform="translate(885.263,372.967)"><circle r="12.5" /></g><g id="node-101" transform="translate(892.275,611.815)"><circle r="12.5" /></g><g id="node-102" transform="translate(894.198,568.310)"><circle r="12.5" /></g><g id="node-103" transform="translate(884.058,524.428)"><circle r="12.5" /></g><g id="node-104" transform="translate(879.814,489.040)"><circle r="12.5" /></g><g id="node-105" transform="translate(885.036,387.078)"><circle r="12.5" /></g><g id="node-106" transform="translate(802.611,248.400)"><circle r="12.5" /></g><g id="node-107" transform="translate(828.467,191.779)"><circle r="12.5" /></g><g id="node-108" transform="translate(885.408,590.063)"><circle r="12.5" /></g><g id="node-109" transform="translate(871.539,506.734)"><circle r="12.5" /></g><g id="node-110" transform="translate(881.220,371.529)"><circle r="12.5" /></g><g id="node-111" transform="translate(883.952,338.994)"><circle r="12.5" /></g><g id="node-112" transform="translate(800.934,239.907)"><circle r="12.5" /></g><g id="node-113" transform="translate(801.318,214.428)"><circle r="12.5" /></g><g id="node-114" transform="translate(824.975,183.286)"><circle r="12.5" /></g><g id="node-115" transform="translate(865.848,548.398)"><circle r="12.5" /></g><g id="node-116" transform="translate(877.004,355.262)"><circle r="12.5" /></g><g id="node-117" transform="translate(898.843,316.346)"><circle r="12.5" /></g><g id="node-118" transform="translate(753.962,227.168)"><circle r="12.5" /></g><g id="node-119" transform="translate(793.378,173.377)"><circle r="12.5" /></g><g id="node-120" transform="translate(855.068,451.830)"><circle r="12.5" /></g><g id="node-121" transform="translate(884.156,307.853)"><circle r="12.5" /></g><g id="node-122" transform="translate(623.199,200.272)"><circle r="12.5" /></g><g id="node-123" transform="translate(826.959,379.841)"><circle r="12.5" /></g><g id="node-124" transform="translate(874.054,282.373)"><circle r="12.5" /></g><g id="node-125" transform="translate(529.676,176.209)"><circle r="12.5" /></g><g id="node-126" transform="translate(784.850,331.107)"><circle r="12.5" /></g><g id="node-127" transform="translate(467.820,158.514)"><circle r="12.5" /></g><g id="node-128" transform="translate(649.094,123.834)"><circle r="12.5" /></g><g id="node-129" transform="translate(475.403,298.247)"><circle r="12.5" /></g><g id="node-130" transform="translate(373.040,141.174)"><circle r="12.5" /></g><g id="node-131" transform="translate(253.599,219.711)"><circle r="12.5" /></g><g id="node-132" transform="translate(253.013,163.279)"><circle r="12.5" /></g><g id="node-133" transform="translate(299.605,89.861)"><circle r="12.5" /></g><g id="node-134" transform="translate(190.127,126.570)"><circle r="12.5" /></g><g id="node-135" transform="translate(50.000,86.999)"><circle r="0.0" /></g></g><g class="toytree-NodeLabels" style="fill:rgb(14.9%,14.9%,14.9%);fill-opacity:1.0;font-size:9px;stroke:none"><g transform="translate(914.80,828.24)"><text>100</text></g><g transform="translate(914.44,805.59)"><text>100</text></g><g transform="translate(914.37,782.94)"><text>100</text></g><g transform="translate(913.07,816.91)"><text>100</text></g><g transform="translate(914.52,774.45)"><text>58</text></g><g transform="translate(916.38,748.97)"><text>100</text></g><g transform="translate(878.18,465.86)"><text>100</text></g><g transform="translate(910.77,795.68)"><text>100</text></g><g transform="translate(912.48,740.47)"><text>100</text></g><g transform="translate(909.72,714.99)"><text>100</text></g><g transform="translate(903.99,681.02)"><text>100</text></g><g transform="translate(905.87,658.37)"><text>84</text></g><g transform="translate(878.10,457.37)"><text>100</text></g><g transform="translate(908.45,768.08)"><text>100</text></g><g transform="translate(904.48,706.50)"><text>98</text></g><g transform="translate(903.75,669.70)"><text>74</text></g><g transform="translate(902.25,635.72)"><text>100</text></g><g transform="translate(877.95,447.46)"><text>100</text></g><g transform="translate(901.73,737.29)"><text>28</text></g><g transform="translate(901.47,652.71)"><text>64</text></g><g transform="translate(880.31,436.84)"><text>98</text></g><g transform="translate(900.28,695.00)"><text>23</text></g><g transform="translate(880.23,425.87)"><text>97</text></g><g transform="translate(896.03,656.87)"><text>100</text></g><g transform="translate(913.84,545.13)"><text>100</text></g><g transform="translate(880.20,414.72)"><text>97</text></g><g transform="translate(891.03,632.14)"><text>69</text></g><g transform="translate(899.57,579.10)"><text>100</text></g><g transform="translate(905.56,536.64)"><text>100</text></g><g transform="translate(895.46,499.83)"><text>100</text></g><g transform="translate(880.12,403.49)"><text>95</text></g><g transform="translate(877.76,375.27)"><text>100</text></g><g transform="translate(887.27,614.11)"><text>99</text></g><g transform="translate(889.19,570.61)"><text>98</text></g><g transform="translate(876.55,526.73)"><text>100</text></g><g transform="translate(872.31,491.34)"><text>100</text></g><g transform="translate(877.53,389.38)"><text>100</text></g><g transform="translate(797.61,250.70)"><text>66</text></g><g transform="translate(823.46,194.08)"><text>68</text></g><g transform="translate(877.90,592.36)"><text>100</text></g><g transform="translate(866.54,509.03)"><text>98</text></g><g transform="translate(873.71,373.83)"><text>100</text></g><g transform="translate(876.45,341.29)"><text>100</text></g><g transform="translate(793.43,242.21)"><text>100</text></g><g transform="translate(793.81,216.73)"><text>100</text></g><g transform="translate(817.47,185.59)"><text>100</text></g><g transform="translate(858.34,550.70)"><text>100</text></g><g transform="translate(869.50,357.56)"><text>100</text></g><g transform="translate(891.34,318.65)"><text>100</text></g><g transform="translate(746.46,229.47)"><text>100</text></g><g transform="translate(785.87,175.68)"><text>100</text></g><g transform="translate(847.56,454.13)"><text>100</text></g><g transform="translate(876.65,310.15)"><text>100</text></g><g transform="translate(615.69,202.57)"><text>100</text></g><g transform="translate(821.96,382.14)"><text>87</text></g><g transform="translate(866.55,284.67)"><text>100</text></g><g transform="translate(522.17,178.51)"><text>100</text></g><g transform="translate(777.34,333.41)"><text>100</text></g><g transform="translate(460.31,160.81)"><text>100</text></g><g transform="translate(641.59,126.13)"><text>100</text></g><g transform="translate(467.90,300.55)"><text>100</text></g><g transform="translate(365.53,143.47)"><text>100</text></g><g transform="translate(246.09,222.01)"><text>100</text></g><g transform="translate(245.51,165.58)"><text>100</text></g><g transform="translate(292.10,92.16)"><text>100</text></g><g transform="translate(182.62,128.87)"><text>100</text></g></g><g class="toytree-TipLabels" style="fill:rgb(90.6%,54.1%,76.5%);fill-opacity:1.0;font-family:helvetica;font-size:10px;font-weight:normal;stroke:none;white-space:pre"><g transform="translate(954.15,831.60)rotate(0)"><text x="15.00" y="2.55" style="">KC881006.1_Rs3367</text></g><g transform="translate(954.15,820.27)rotate(0)"><text x="15.00" y="2.55" style="">KF367457.1_WIV1</text></g><g transform="translate(954.15,808.95)rotate(0)"><text x="15.00" y="2.55" style="">KC881005.1_RsSHC014</text></g><g transform="translate(954.15,797.63)rotate(0)"><text x="15.00" y="2.55" style="">KY417144.1_Rs4084</text></g><g transform="translate(954.15,786.30)rotate(0)"><text x="15.00" y="2.55" style="">KY417151.1_Rs7327</text></g><g transform="translate(954.15,774.98)rotate(0)"><text x="15.00" y="2.55" style="">KY417152.1_Rs9401</text></g><g transform="translate(954.15,763.65)rotate(0)"><text x="15.00" y="2.55" style="">MK211376.1_BtRs-BetaCoV/YN2018B</text></g><g transform="translate(954.15,752.33)rotate(0)"><text x="15.00" y="2.55" style="">KY417150.1_Rs4874</text></g><g transform="translate(954.15,741.00)rotate(0)"><text x="15.00" y="2.55" style="">KT444582.1_WIV16</text></g><g transform="translate(954.15,729.68)rotate(0)"><text x="15.00" y="2.55" style="">KY417146.1_Rs4231</text></g><g transform="translate(954.15,718.36)rotate(0)"><text x="15.00" y="2.55" style="">KY770858.1_Anlong-103</text></g><g transform="translate(954.15,707.03)rotate(0)"><text x="15.00" y="2.55" style="">KY770859.1_Anlong-112</text></g><g transform="translate(954.15,695.71)rotate(0)"><text x="15.00" y="2.55" style="">KJ473816.1_BtRs-BetaCoV/YN2013</text></g><g transform="translate(954.15,684.38)rotate(0)"><text x="15.00" y="2.55" style="">KY417149.1_Rs4255</text></g><g transform="translate(954.15,673.06)rotate(0)"><text x="15.00" y="2.55" style="">KY417143.1_Rs4081</text></g><g transform="translate(954.15,661.73)rotate(0)"><text x="15.00" y="2.55" style="">KY417148.1_Rs4247</text></g><g transform="translate(954.15,650.41)rotate(0)"><text x="15.00" y="2.55" style="">KY417147.1_Rs4237</text></g><g transform="translate(954.15,639.09)rotate(0)"><text x="15.00" y="2.55" style="">KY417142.1_As6526</text></g><g transform="translate(954.15,627.76)rotate(0)"><text x="15.00" y="2.55" style="">MK211377.1_BtRs-BetaCoV/YN2018C</text></g><g transform="translate(954.15,616.44)rotate(0)"><text x="15.00" y="2.55" style="">FJ588686.1_BtRs672/2006</text></g><g transform="translate(954.15,605.11)rotate(0)"><text x="15.00" y="2.55" style="">DQ071615.1_Rp3</text></g><g transform="translate(954.15,593.79)rotate(0)"><text x="15.00" y="2.55" style="">KJ473815.1_BtRs-BetaCoV/GX2013</text></g><g transform="translate(954.15,582.47)rotate(0)"><text x="15.00" y="2.55" style="">JX993988.1_Cp/Yunnan2011</text></g><g transform="translate(954.15,571.14)rotate(0)"><text x="15.00" y="2.55" style="">KF569996.1_LYRa11</text></g><g transform="translate(954.15,559.82)rotate(0)"><text x="15.00" y="2.55" style="">KU973692.1_F46</text></g><g transform="translate(954.15,548.49)rotate(0)"><text x="15.00" y="2.55" style="">KJ473813.1_BtRf-BetaCoV/SX2013</text></g><g transform="translate(954.15,537.17)rotate(0)"><text x="15.00" y="2.55" style="">KJ473812.1_BtRf-BetaCoV/HeB2013</text></g><g transform="translate(954.15,525.84)rotate(0)"><text x="15.00" y="2.55" style="">KJ473811.1_BtRf-BetaCoV/JL2012</text></g><g transform="translate(954.15,514.52)rotate(0)"><text x="15.00" y="2.55" style="">JX993987.1_Rp/Shaanxi2011</text></g><g transform="translate(954.15,503.20)rotate(0)"><text x="15.00" y="2.55" style="">DQ412043.1_Rm1</text></g><g transform="translate(954.15,491.87)rotate(0)"><text x="15.00" y="2.55" style="">DQ648857.1_BtCoV/279/2005</text></g><g transform="translate(954.15,480.55)rotate(0)"><text x="15.00" y="2.55" style="">KJ473814.1_BtRs-BetaCoV/HuB2013</text></g><g transform="translate(954.15,469.22)rotate(0)"><text x="15.00" y="2.55" style="">GQ153544.1_HKU3-9</text></g><g transform="translate(954.15,457.90)rotate(0)"><text x="15.00" y="2.55" style="">GQ153545.1_HKU3-10</text></g><g transform="translate(954.15,446.57)rotate(0)"><text x="15.00" y="2.55" style="">GQ153546.1_HKU3-11</text></g><g transform="translate(954.15,435.25)rotate(0)"><text x="15.00" y="2.55" style="">GQ153548.1_HKU3-13</text></g><g transform="translate(954.15,423.93)rotate(0)"><text x="15.00" y="2.55" style="">GQ153540.1_HKU3-5</text></g><g transform="translate(954.15,412.60)rotate(0)"><text x="15.00" y="2.55" style="">GQ153539.1_HKU3-4</text></g><g transform="translate(954.15,401.28)rotate(0)"><text x="15.00" y="2.55" style="">GQ153541.1_HKU3-6</text></g><g transform="translate(954.15,389.95)rotate(0)"><text x="15.00" y="2.55" style="">DQ084199.1_HKU3-2</text></g><g transform="translate(954.15,378.63)rotate(0)"><text x="15.00" y="2.55" style="">DQ084200.1_HKU3-3</text></g><g transform="translate(954.15,367.30)rotate(0)"><text x="15.00" y="2.55" style="">DQ022305.2_HKU3-1</text></g><g transform="translate(954.15,355.98)rotate(0)"><text x="15.00" y="2.55" style="">GQ153547.1_HKU3-12</text></g><g transform="translate(954.15,344.66)rotate(0)"><text x="15.00" y="2.55" style="">GQ153542.1_HKU3-7</text></g><g transform="translate(954.15,333.33)rotate(0)"><text x="15.00" y="2.55" style="">GQ153543.1_HKU3-8</text></g><g transform="translate(954.15,322.01)rotate(0)"><text x="15.00" y="2.55" style="">MG772934.1_SL-CoVZXC21</text></g><g transform="translate(954.15,310.68)rotate(0)"><text x="15.00" y="2.55" style="">MG772933.1_SL-CoVZC45</text></g><g transform="translate(954.15,299.36)rotate(0)"><text x="15.00" y="2.55" style="">MN996532.2_RaTG13</text></g><g transform="translate(954.15,288.04)rotate(0)"><text x="15.00" y="2.55" style="">GU190215.1_BM48-31/BGR/2008</text></g><g transform="translate(954.15,276.71)rotate(0)"><text x="15.00" y="2.55" style="">NC_014470.1_BM48-31/BGR/2008</text></g><g transform="translate(954.15,265.39)rotate(0)"><text x="15.00" y="2.55" style="">KF636752.1_Hp-betacoronavirus/Zhejiang2013</text></g><g transform="translate(954.15,254.06)rotate(0)"><text x="15.00" y="2.55" style="">KJ473798.1_BtMf-AlphaCoV/HuB2013</text></g><g transform="translate(954.15,242.74)rotate(0)"><text x="15.00" y="2.55" style="">KJ473800.1_BtMf-AlphaCoV/HeN2013</text></g><g transform="translate(954.15,231.41)rotate(0)"><text x="15.00" y="2.55" style="">KJ473799.1_BtMf-AlphaCoV/FJ2012</text></g><g transform="translate(954.15,220.09)rotate(0)"><text x="15.00" y="2.55" style="">KJ473797.1_BtMf-AlphaCoV/GD2012</text></g><g transform="translate(954.15,208.77)rotate(0)"><text x="15.00" y="2.55" style="">EU420139.1_HKU8-strain-AFCD77</text></g><g transform="translate(954.15,197.44)rotate(0)"><text x="15.00" y="2.55" style="">EU420138.1_Miniopterus-bat-coronavirus1</text></g><g transform="translate(954.15,186.12)rotate(0)"><text x="15.00" y="2.55" style="">KJ473795.1_BtMf-AlphaCoV/AH2011</text></g><g transform="translate(954.15,174.79)rotate(0)"><text x="15.00" y="2.55" style="">KJ473796.1_BtMf-AlphaCoV/JX2012</text></g><g transform="translate(954.15,163.47)rotate(0)"><text x="15.00" y="2.55" style="">EU420137.1_1B-strain-AFCD307</text></g><g transform="translate(954.15,152.14)rotate(0)"><text x="15.00" y="2.55" style="">KJ473807.1_BtRf-AlphaCoV/HuB2013</text></g><g transform="translate(954.15,140.82)rotate(0)"><text x="15.00" y="2.55" style="">KJ473806.1_BtMr-AlphaCoV/SAX2011</text></g><g transform="translate(954.15,129.50)rotate(0)"><text x="15.00" y="2.55" style="">EF203065.1_HKU2</text></g><g transform="translate(954.15,118.17)rotate(0)"><text x="15.00" y="2.55" style="">KJ473808.1_BtRf-AlphaCoV/YN2012</text></g><g transform="translate(954.15,106.85)rotate(0)"><text x="15.00" y="2.55" style="">KJ473821.1_BtVs-BetaCoV/SC2013</text></g><g transform="translate(954.15,95.52)rotate(0)"><text x="15.00" y="2.55" style="">KJ473820.1_BtPa-BetaCoV/GD2013</text></g><g transform="translate(954.15,84.20)rotate(0)"><text x="15.00" y="2.55" style="">EF065509.1_HKU5</text></g><g transform="translate(954.15,72.87)rotate(0)"><text x="15.00" y="2.55" style="">EF065505.1_HKU4</text></g><g transform="translate(954.15,61.55)rotate(0)"><text x="15.00" y="2.55" style="">KJ473822.1_BtTp-BetaCoV/GX2012</text></g></g></g></g><g class="toyplot-coordinates-Axis" id="t3234f9f87f2d437f99c4e62b36c5ea5a" transform="translate(50.0,850.0)translate(0,20.0)"><line x1="0" y1="0" x2="904.1545795707144" y2="0" style="" /><g><line x1="904.1545795707144" y1="0" x2="904.1545795707144" y2="-5" style="" /><line x1="828.8083646064882" y1="0" x2="828.8083646064882" y2="-5" style="" /><line x1="753.462149642262" y1="0" x2="753.462149642262" y2="-5" style="" /><line x1="678.1159346780358" y1="0" x2="678.1159346780358" y2="-5" style="" /><line x1="602.7697197138095" y1="0" x2="602.7697197138095" y2="-5" style="" /><line x1="527.4235047495835" y1="0" x2="527.4235047495835" y2="-5" style="" /><line x1="452.07728978535715" y1="0" x2="452.07728978535715" y2="-5" style="" /><line x1="376.731074821131" y1="0" x2="376.731074821131" y2="-5" style="" /><line x1="301.38485985690477" y1="0" x2="301.38485985690477" y2="-5" style="" /><line x1="226.03864489267852" y1="0" x2="226.03864489267852" y2="-5" style="" /><line x1="150.69242992845238" y1="0" x2="150.69242992845238" y2="-5" style="" /><line x1="75.34621496422614" y1="0" x2="75.34621496422614" y2="-5" style="" /><line x1="0.0" y1="0" x2="0.0" y2="-5" style="" /></g><g><g transform="translate(904.1545795707144,6)"><text x="-6.95" y="8.555" style="fill:rgb(16.1%,15.3%,14.1%);fill-opacity:1.0;font-family:helvetica;font-size:10.0px;font-weight:normal;stroke:none;vertical-align:baseline;white-space:pre">0.0</text></g><g transform="translate(828.8083646064882,6)"><text x="-6.95" y="8.555" style="fill:rgb(16.1%,15.3%,14.1%);fill-opacity:1.0;font-family:helvetica;font-size:10.0px;font-weight:normal;stroke:none;vertical-align:baseline;white-space:pre">0.2</text></g><g transform="translate(753.462149642262,6)"><text x="-6.95" y="8.555" style="fill:rgb(16.1%,15.3%,14.1%);fill-opacity:1.0;font-family:helvetica;font-size:10.0px;font-weight:normal;stroke:none;vertical-align:baseline;white-space:pre">0.3</text></g><g transform="translate(678.1159346780358,6)"><text x="-6.95" y="8.555" style="fill:rgb(16.1%,15.3%,14.1%);fill-opacity:1.0;font-family:helvetica;font-size:10.0px;font-weight:normal;stroke:none;vertical-align:baseline;white-space:pre">0.5</text></g><g transform="translate(602.7697197138095,6)"><text x="-6.95" y="8.555" style="fill:rgb(16.1%,15.3%,14.1%);fill-opacity:1.0;font-family:helvetica;font-size:10.0px;font-weight:normal;stroke:none;vertical-align:baseline;white-space:pre">0.6</text></g><g transform="translate(527.4235047495835,6)"><text x="-6.95" y="8.555" style="fill:rgb(16.1%,15.3%,14.1%);fill-opacity:1.0;font-family:helvetica;font-size:10.0px;font-weight:normal;stroke:none;vertical-align:baseline;white-space:pre">0.8</text></g><g transform="translate(452.07728978535715,6)"><text x="-6.95" y="8.555" style="fill:rgb(16.1%,15.3%,14.1%);fill-opacity:1.0;font-family:helvetica;font-size:10.0px;font-weight:normal;stroke:none;vertical-align:baseline;white-space:pre">0.9</text></g><g transform="translate(376.731074821131,6)"><text x="-6.95" y="8.555" style="fill:rgb(16.1%,15.3%,14.1%);fill-opacity:1.0;font-family:helvetica;font-size:10.0px;font-weight:normal;stroke:none;vertical-align:baseline;white-space:pre">1.1</text></g><g transform="translate(301.38485985690477,6)"><text x="-6.95" y="8.555" style="fill:rgb(16.1%,15.3%,14.1%);fill-opacity:1.0;font-family:helvetica;font-size:10.0px;font-weight:normal;stroke:none;vertical-align:baseline;white-space:pre">1.2</text></g><g transform="translate(226.03864489267852,6)"><text x="-6.95" y="8.555" style="fill:rgb(16.1%,15.3%,14.1%);fill-opacity:1.0;font-family:helvetica;font-size:10.0px;font-weight:normal;stroke:none;vertical-align:baseline;white-space:pre">1.4</text></g><g transform="translate(150.69242992845238,6)"><text x="-6.95" y="8.555" style="fill:rgb(16.1%,15.3%,14.1%);fill-opacity:1.0;font-family:helvetica;font-size:10.0px;font-weight:normal;stroke:none;vertical-align:baseline;white-space:pre">1.5</text></g><g transform="translate(75.34621496422614,6)"><text x="-6.95" y="8.555" style="fill:rgb(16.1%,15.3%,14.1%);fill-opacity:1.0;font-family:helvetica;font-size:10.0px;font-weight:normal;stroke:none;vertical-align:baseline;white-space:pre">1.7</text></g><g transform="translate(0.0,6)"><text x="-6.95" y="8.555" style="fill:rgb(16.1%,15.3%,14.1%);fill-opacity:1.0;font-family:helvetica;font-size:10.0px;font-weight:normal;stroke:none;vertical-align:baseline;white-space:pre">1.8</text></g></g><g class="toyplot-coordinates-Axis-coordinates" style="visibility:hidden" transform=""><line x1="0" x2="0" y1="-3.0" y2="4.5" style="stroke:rgb(43.9%,50.2%,56.5%);stroke-opacity:1.0;stroke-width:1.0" /><text x="0" y="-6" style="alignment-baseline:alphabetic;fill:rgb(43.9%,50.2%,56.5%);fill-opacity:1.0;font-size:10px;font-weight:normal;stroke:none;text-anchor:middle" /></g></g></g></svg>