<?xml version="1.0" encoding="iso-8859-1"?>
<!DOCTYPE svg PUBLIC "-//W3C//DTD SVG 1.0//EN" "http://www.w3.org/TR/2001/REC-SVG-20010904/DTD/svg10.dtd">
<svg width="912" height="723" xmlns="http://www.w3.org/2000/svg" xmlns:xlink="http://www.w3.org/1999/xlink">
<g style="stroke:black;fill:lightgreen" transform="translate(30,30)">
<line x1="624" y1="63" x2="624" y2="16" style="stroke:blue; stroke-width:1"/>
<line x1="624" y1="16" x2="738" y2="16" style="stroke:blue; stroke-width:1"/>
<line x1="624" y1="79" x2="624" y2="126" style="stroke:blue; stroke-width:1"/>
<line x1="624" y1="126" x2="738" y2="126" style="stroke:blue; stroke-width:1"/>
<line x1="503" y1="162" x2="503" y2="236" style="stroke:blue; stroke-width:1"/>
<line x1="503" y1="236" x2="616" y2="236" style="stroke:blue; stroke-width:1"/>
<line x1="381" y1="258" x2="381" y2="346" style="stroke:blue; stroke-width:1"/>
<line x1="381" y1="346" x2="495" y2="346" style="stroke:blue; stroke-width:1"/>
<line x1="259" y1="361" x2="259" y2="457" style="stroke:blue; stroke-width:1"/>
<line x1="259" y1="457" x2="373" y2="457" style="stroke:blue; stroke-width:1"/>
<line x1="259" y1="630" x2="259" y2="677" style="stroke:blue; stroke-width:1"/>
<line x1="259" y1="677" x2="373" y2="677" style="stroke:blue; stroke-width:1"/>
<line x1="259" y1="614" x2="259" y2="567" style="stroke:blue; stroke-width:1"/>
<line x1="259" y1="567" x2="373" y2="567" style="stroke:blue; stroke-width:1"/>
<line x1="503" y1="146" x2="503" y2="71" style="stroke:blue; stroke-width:1"/>
<line x1="503" y1="71" x2="616" y2="71" style="stroke:blue; stroke-width:1"/>
<line x1="381" y1="242" x2="381" y2="154" style="stroke:blue; stroke-width:1"/>
<line x1="381" y1="154" x2="495" y2="154" style="stroke:blue; stroke-width:1"/>
<line x1="259" y1="345" x2="259" y2="250" style="stroke:blue; stroke-width:1"/>
<line x1="259" y1="250" x2="373" y2="250" style="stroke:blue; stroke-width:1"/>
<line x1="138" y1="480" x2="138" y2="353" style="stroke:blue; stroke-width:1"/>
<line x1="138" y1="353" x2="251" y2="353" style="stroke:blue; stroke-width:1"/>
<line x1="138" y1="496" x2="138" y2="622" style="stroke:blue; stroke-width:1"/>
<line x1="138" y1="622" x2="251" y2="622" style="stroke:blue; stroke-width:1"/>
<line x1="24" y1="488" x2="130" y2="488" style="stroke:blue; stroke-width:1"/>
<text x="20" y="485" font-weight = "10" font-family="verdana" fill="black" font-size="18">Root</text>
<text x="133" y="494" font-weight = "10" font-family="verdana" fill="black" font-size="16">14</text>
<text x="255" y="628" font-weight = "10" font-family="verdana" fill="black" font-size="16">13</text>
<text x="385" y="684" font-weight = "10" font-family="verdana" fill="black" font-size="18">ON640726.1_Miniopterus_magnater</text>
<text x="385" y="574" font-weight = "10" font-family="verdana" fill="black" font-size="18">AB085735.1_Miniopterus_fuliginosus</text>
<text x="255" y="359" font-weight = "10" font-family="verdana" fill="black" font-size="16">12</text>
<text x="385" y="464" font-weight = "10" font-family="verdana" fill="black" font-size="18">KP972690.1_Rhinolophus_affinis</text>
<text x="376" y="256" font-weight = "10" font-family="verdana" fill="black" font-size="16">11</text>
<text x="507" y="353" font-weight = "10" font-family="verdana" fill="black" font-size="18">MZ936290.1_Rhinolophus_blasii</text>
<text x="498" y="160" font-weight = "10" font-family="verdana" fill="black" font-size="16">10</text>
<text x="628" y="243" font-weight = "10" font-family="verdana" fill="black" font-size="18">HM134917.1_Rhinolophus_sinicus</text>
<text x="620" y="77" font-weight = "10" font-family="verdana" fill="black" font-size="16">9</text>
<text x="750" y="133" font-weight = "10" font-family="verdana" fill="black" font-size="18">KX261916.1_Rhinolophus_macrotis</text>
<text x="750" y="23" font-weight = "10" font-family="verdana" fill="black" font-size="18">ON012504.1_Rhinolophus_pusillus</text>
<line x1="320.16666666667" y1="456.66666666667" x2="681.46031116999" y2="129.52269541092" style="stroke:red; stroke-width:1;stroke-dasharray: 5, 5"/>
<line x1="684.81633991424" y1="133.2290509076" x2="678.10428242574" y2="125.81633991424" style="stroke:red; stroke-width:1"/>
<line x1="684.81633991424" y1="133.2290509076" x2="685.16666666667" y2="126.16666666667" style="stroke:red; stroke-width:1"/>
<line x1="685.16666666667" y1="126.16666666667" x2="678.10428242574" y2="125.81633991424" style="stroke:red; stroke-width:1"/>
<text x="502.66666666667" y="291.41666666667" font-weight = "10" font-family="verdana" fill="red" font-size="18">50.5% [201 : 341]</text>
<line x1="685.16666666667" y1="126.16666666667" x2="567.20635549668" y2="232.97730458908" style="stroke:red; stroke-width:1;stroke-dasharray: 5, 5"/>
<line x1="563.85032675243" y1="229.2709490924" x2="570.56238424093" y2="236.68366008576" style="stroke:red; stroke-width:1"/>
<line x1="563.85032675243" y1="229.2709490924" x2="563.5" y2="236.33333333333" style="stroke:red; stroke-width:1"/>
<line x1="563.5" y1="236.33333333333" x2="570.56238424093" y2="236.68366008576" style="stroke:red; stroke-width:1"/>
<text x="624.33333333333" y="181.25" font-weight = "10" font-family="verdana" fill="red" font-size="18">62.0864864864865% [301 : 481]</text>
<line x1="563.5" y1="236.33333333333" x2="323.87302216334" y2="453.31063792241" style="stroke:red; stroke-width:1;stroke-dasharray: 5, 5"/>
<line x1="320.51699341909" y1="449.60428242574" x2="327.2290509076" y2="457.01699341909" style="stroke:red; stroke-width:1"/>
<line x1="320.51699341909" y1="449.60428242574" x2="320.16666666667" y2="456.66666666667" style="stroke:red; stroke-width:1"/>
<line x1="320.16666666667" y1="456.66666666667" x2="327.2290509076" y2="457.01699341909" style="stroke:red; stroke-width:1"/>
<text x="441.83333333333" y="346.5" font-weight = "10" font-family="verdana" fill="red" font-size="18">45.55% [2341 : 2471]</text>
<line x1="441.83333333333" y1="153.70833333333" x2="322.02999957121" y2="452.02684010882" style="stroke:red; stroke-width:1;stroke-dasharray: 5, 5"/>
<line x1="317.39017301336" y1="450.16350720429" x2="326.66982612905" y2="453.89017301336" style="stroke:red; stroke-width:1"/>
<line x1="317.39017301336" y1="450.16350720429" x2="320.16666666667" y2="456.66666666667" style="stroke:red; stroke-width:1"/>
<line x1="320.16666666667" y1="456.66666666667" x2="326.66982612905" y2="453.89017301336" style="stroke:red; stroke-width:1"/>
<text x="381" y="305.1875" font-weight = "10" font-family="verdana" fill="red" font-size="18">62.7361702127659% [1 : 351]</text>
<line x1="685.16666666667" y1="126.16666666667" x2="323.87302216334" y2="453.31063792241" style="stroke:red; stroke-width:1;stroke-dasharray: 5, 5"/>
<line x1="320.51699341909" y1="449.60428242574" x2="327.2290509076" y2="457.01699341909" style="stroke:red; stroke-width:1"/>
<line x1="320.51699341909" y1="449.60428242574" x2="320.16666666667" y2="456.66666666667" style="stroke:red; stroke-width:1"/>
<line x1="320.16666666667" y1="456.66666666667" x2="327.2290509076" y2="457.01699341909" style="stroke:red; stroke-width:1"/>
<text x="502.66666666667" y="291.41666666667" font-weight = "10" font-family="verdana" fill="red" font-size="18">47.55% [4791 : 4911]</text>
<line x1="563.5" y1="236.33333333333" x2="682.74970463596" y2="20.377018910411" style="stroke:red; stroke-width:1;stroke-dasharray: 5, 5"/>
<line x1="687.12672354637" y1="22.793980941123" x2="678.37268572554" y2="17.9600568797" style="stroke:red; stroke-width:1"/>
<line x1="687.12672354637" y1="22.793980941123" x2="685.16666666667" y2="16" style="stroke:red; stroke-width:1"/>
<line x1="685.16666666667" y1="16" x2="678.37268572554" y2="17.9600568797" style="stroke:red; stroke-width:1"/>
<text x="624.33333333333" y="126.16666666667" font-weight = "10" font-family="verdana" fill="red" font-size="18">62.1527777777778% [151 : 371]</text>
<line x1="563.5" y1="71.083333333333" x2="443.85374868436" y2="341.92638853756" style="stroke:red; stroke-width:1;stroke-dasharray: 5, 5"/>
<line x1="439.28013722193" y1="339.90597318653" x2="448.4273601468" y2="343.9468038886" style="stroke:red; stroke-width:1"/>
<line x1="439.28013722193" y1="339.90597318653" x2="441.83333333333" y2="346.5" style="stroke:red; stroke-width:1"/>
<line x1="441.83333333333" y1="346.5" x2="448.4273601468" y2="343.9468038886" style="stroke:red; stroke-width:1"/>
<text x="502.66666666667" y="208.79166666667" font-weight = "10" font-family="verdana" fill="red" font-size="18">46.8333333333333% [2981 : 3101]</text>
<line x1="441.83333333333" y1="346.5" x2="323.87302216334" y2="453.31063792241" style="stroke:red; stroke-width:1;stroke-dasharray: 5, 5"/>
<line x1="320.51699341909" y1="449.60428242574" x2="327.2290509076" y2="457.01699341909" style="stroke:red; stroke-width:1"/>
<line x1="320.51699341909" y1="449.60428242574" x2="320.16666666667" y2="456.66666666667" style="stroke:red; stroke-width:1"/>
<line x1="320.16666666667" y1="456.66666666667" x2="327.2290509076" y2="457.01699341909" style="stroke:red; stroke-width:1"/>
<text x="381" y="401.58333333333" font-weight = "10" font-family="verdana" fill="red" font-size="18">55.1111111111111% [111 : 291]</text>
</g></svg>