<?xml version="1.0" encoding="iso-8859-1"?>
<!DOCTYPE svg PUBLIC "-//W3C//DTD SVG 1.0//EN" "http://www.w3.org/TR/2001/REC-SVG-20010904/DTD/svg10.dtd">
<svg width="823" height="899" xmlns="http://www.w3.org/2000/svg" xmlns:xlink="http://www.w3.org/1999/xlink">
<g style="stroke:black;fill:lightgreen" transform="translate(30,30)">
<line x1="245" y1="662" x2="245" y2="653" style="stroke:blue; stroke-width:1"/>
<line x1="245" y1="653" x2="291" y2="653" style="stroke:blue; stroke-width:1"/>
<line x1="245" y1="662" x2="245" y2="671" style="stroke:blue; stroke-width:1"/>
<line x1="245" y1="671" x2="291" y2="671" style="stroke:blue; stroke-width:1"/>
<line x1="199" y1="676" x2="199" y2="689" style="stroke:blue; stroke-width:1"/>
<line x1="199" y1="689" x2="245" y2="689" style="stroke:blue; stroke-width:1"/>
<line x1="199" y1="826" x2="199" y2="835" style="stroke:blue; stroke-width:1"/>
<line x1="199" y1="835" x2="245" y2="835" style="stroke:blue; stroke-width:1"/>
<line x1="199" y1="826" x2="199" y2="817" style="stroke:blue; stroke-width:1"/>
<line x1="199" y1="817" x2="245" y2="817" style="stroke:blue; stroke-width:1"/>
<line x1="153" y1="839" x2="153" y2="853" style="stroke:blue; stroke-width:1"/>
<line x1="153" y1="853" x2="199" y2="853" style="stroke:blue; stroke-width:1"/>
<line x1="245" y1="753" x2="245" y2="762" style="stroke:blue; stroke-width:1"/>
<line x1="245" y1="762" x2="291" y2="762" style="stroke:blue; stroke-width:1"/>
<line x1="245" y1="753" x2="245" y2="744" style="stroke:blue; stroke-width:1"/>
<line x1="245" y1="744" x2="291" y2="744" style="stroke:blue; stroke-width:1"/>
<line x1="199" y1="767" x2="199" y2="780" style="stroke:blue; stroke-width:1"/>
<line x1="199" y1="780" x2="245" y2="780" style="stroke:blue; stroke-width:1"/>
<line x1="153" y1="782" x2="153" y2="798" style="stroke:blue; stroke-width:1"/>
<line x1="153" y1="798" x2="199" y2="798" style="stroke:blue; stroke-width:1"/>
<line x1="291" y1="626" x2="291" y2="635" style="stroke:blue; stroke-width:1"/>
<line x1="291" y1="635" x2="336" y2="635" style="stroke:blue; stroke-width:1"/>
<line x1="291" y1="626" x2="291" y2="616" style="stroke:blue; stroke-width:1"/>
<line x1="291" y1="616" x2="336" y2="616" style="stroke:blue; stroke-width:1"/>
<line x1="291" y1="589" x2="291" y2="580" style="stroke:blue; stroke-width:1"/>
<line x1="291" y1="580" x2="336" y2="580" style="stroke:blue; stroke-width:1"/>
<line x1="291" y1="589" x2="291" y2="598" style="stroke:blue; stroke-width:1"/>
<line x1="291" y1="598" x2="336" y2="598" style="stroke:blue; stroke-width:1"/>
<line x1="336" y1="535" x2="336" y2="544" style="stroke:blue; stroke-width:1"/>
<line x1="336" y1="544" x2="382" y2="544" style="stroke:blue; stroke-width:1"/>
<line x1="336" y1="535" x2="336" y2="525" style="stroke:blue; stroke-width:1"/>
<line x1="336" y1="525" x2="382" y2="525" style="stroke:blue; stroke-width:1"/>
<line x1="565" y1="262" x2="565" y2="253" style="stroke:blue; stroke-width:1"/>
<line x1="565" y1="253" x2="611" y2="253" style="stroke:blue; stroke-width:1"/>
<line x1="565" y1="262" x2="565" y2="271" style="stroke:blue; stroke-width:1"/>
<line x1="565" y1="271" x2="611" y2="271" style="stroke:blue; stroke-width:1"/>
<line x1="565" y1="298" x2="565" y2="307" style="stroke:blue; stroke-width:1"/>
<line x1="565" y1="307" x2="611" y2="307" style="stroke:blue; stroke-width:1"/>
<line x1="565" y1="298" x2="565" y2="289" style="stroke:blue; stroke-width:1"/>
<line x1="565" y1="289" x2="611" y2="289" style="stroke:blue; stroke-width:1"/>
<line x1="520" y1="334" x2="520" y2="325" style="stroke:blue; stroke-width:1"/>
<line x1="520" y1="325" x2="565" y2="325" style="stroke:blue; stroke-width:1"/>
<line x1="520" y1="334" x2="520" y2="344" style="stroke:blue; stroke-width:1"/>
<line x1="520" y1="344" x2="565" y2="344" style="stroke:blue; stroke-width:1"/>
<line x1="520" y1="371" x2="520" y2="380" style="stroke:blue; stroke-width:1"/>
<line x1="520" y1="380" x2="565" y2="380" style="stroke:blue; stroke-width:1"/>
<line x1="520" y1="371" x2="520" y2="362" style="stroke:blue; stroke-width:1"/>
<line x1="520" y1="362" x2="565" y2="362" style="stroke:blue; stroke-width:1"/>
<line x1="474" y1="384" x2="474" y2="398" style="stroke:blue; stroke-width:1"/>
<line x1="474" y1="398" x2="520" y2="398" style="stroke:blue; stroke-width:1"/>
<line x1="474" y1="425" x2="474" y2="416" style="stroke:blue; stroke-width:1"/>
<line x1="474" y1="416" x2="520" y2="416" style="stroke:blue; stroke-width:1"/>
<line x1="474" y1="425" x2="474" y2="434" style="stroke:blue; stroke-width:1"/>
<line x1="474" y1="434" x2="520" y2="434" style="stroke:blue; stroke-width:1"/>
<line x1="428" y1="439" x2="428" y2="453" style="stroke:blue; stroke-width:1"/>
<line x1="428" y1="453" x2="474" y2="453" style="stroke:blue; stroke-width:1"/>
<line x1="428" y1="480" x2="428" y2="471" style="stroke:blue; stroke-width:1"/>
<line x1="428" y1="471" x2="474" y2="471" style="stroke:blue; stroke-width:1"/>
<line x1="428" y1="480" x2="428" y2="489" style="stroke:blue; stroke-width:1"/>
<line x1="428" y1="489" x2="474" y2="489" style="stroke:blue; stroke-width:1"/>
<line x1="382" y1="494" x2="382" y2="507" style="stroke:blue; stroke-width:1"/>
<line x1="382" y1="507" x2="428" y2="507" style="stroke:blue; stroke-width:1"/>
<line x1="245" y1="525" x2="245" y2="562" style="stroke:blue; stroke-width:1"/>
<line x1="245" y1="562" x2="291" y2="562" style="stroke:blue; stroke-width:1"/>
<line x1="336" y1="171" x2="336" y2="180" style="stroke:blue; stroke-width:1"/>
<line x1="336" y1="180" x2="382" y2="180" style="stroke:blue; stroke-width:1"/>
<line x1="336" y1="171" x2="336" y2="162" style="stroke:blue; stroke-width:1"/>
<line x1="336" y1="162" x2="382" y2="162" style="stroke:blue; stroke-width:1"/>
<line x1="611" y1="25" x2="611" y2="34" style="stroke:blue; stroke-width:1"/>
<line x1="611" y1="34" x2="657" y2="34" style="stroke:blue; stroke-width:1"/>
<line x1="611" y1="25" x2="611" y2="16" style="stroke:blue; stroke-width:1"/>
<line x1="611" y1="16" x2="657" y2="16" style="stroke:blue; stroke-width:1"/>
<line x1="565" y1="39" x2="565" y2="52" style="stroke:blue; stroke-width:1"/>
<line x1="565" y1="52" x2="611" y2="52" style="stroke:blue; stroke-width:1"/>
<line x1="520" y1="55" x2="520" y2="71" style="stroke:blue; stroke-width:1"/>
<line x1="520" y1="71" x2="565" y2="71" style="stroke:blue; stroke-width:1"/>
<line x1="474" y1="72" x2="474" y2="89" style="stroke:blue; stroke-width:1"/>
<line x1="474" y1="89" x2="520" y2="89" style="stroke:blue; stroke-width:1"/>
<line x1="428" y1="89" x2="428" y2="107" style="stroke:blue; stroke-width:1"/>
<line x1="428" y1="107" x2="474" y2="107" style="stroke:blue; stroke-width:1"/>
<line x1="382" y1="107" x2="382" y2="125" style="stroke:blue; stroke-width:1"/>
<line x1="382" y1="125" x2="428" y2="125" style="stroke:blue; stroke-width:1"/>
<line x1="336" y1="125" x2="336" y2="143" style="stroke:blue; stroke-width:1"/>
<line x1="336" y1="143" x2="382" y2="143" style="stroke:blue; stroke-width:1"/>
<line x1="245" y1="173" x2="245" y2="198" style="stroke:blue; stroke-width:1"/>
<line x1="245" y1="198" x2="291" y2="198" style="stroke:blue; stroke-width:1"/>
<line x1="245" y1="225" x2="245" y2="234" style="stroke:blue; stroke-width:1"/>
<line x1="245" y1="234" x2="291" y2="234" style="stroke:blue; stroke-width:1"/>
<line x1="245" y1="225" x2="245" y2="216" style="stroke:blue; stroke-width:1"/>
<line x1="245" y1="216" x2="291" y2="216" style="stroke:blue; stroke-width:1"/>
<line x1="199" y1="717" x2="199" y2="726" style="stroke:blue; stroke-width:1"/>
<line x1="199" y1="726" x2="245" y2="726" style="stroke:blue; stroke-width:1"/>
<line x1="199" y1="717" x2="199" y2="707" style="stroke:blue; stroke-width:1"/>
<line x1="199" y1="707" x2="245" y2="707" style="stroke:blue; stroke-width:1"/>
<line x1="199" y1="676" x2="199" y2="662" style="stroke:blue; stroke-width:1"/>
<line x1="199" y1="662" x2="245" y2="662" style="stroke:blue; stroke-width:1"/>
<line x1="153" y1="696" x2="153" y2="676" style="stroke:blue; stroke-width:1"/>
<line x1="153" y1="676" x2="199" y2="676" style="stroke:blue; stroke-width:1"/>
<line x1="245" y1="607" x2="245" y2="626" style="stroke:blue; stroke-width:1"/>
<line x1="245" y1="626" x2="291" y2="626" style="stroke:blue; stroke-width:1"/>
<line x1="199" y1="566" x2="199" y2="607" style="stroke:blue; stroke-width:1"/>
<line x1="199" y1="607" x2="245" y2="607" style="stroke:blue; stroke-width:1"/>
<line x1="245" y1="607" x2="245" y2="589" style="stroke:blue; stroke-width:1"/>
<line x1="245" y1="589" x2="291" y2="589" style="stroke:blue; stroke-width:1"/>
<line x1="153" y1="383" x2="153" y2="566" style="stroke:blue; stroke-width:1"/>
<line x1="153" y1="566" x2="199" y2="566" style="stroke:blue; stroke-width:1"/>
<line x1="199" y1="566" x2="199" y2="525" style="stroke:blue; stroke-width:1"/>
<line x1="199" y1="525" x2="245" y2="525" style="stroke:blue; stroke-width:1"/>
<line x1="291" y1="489" x2="291" y2="535" style="stroke:blue; stroke-width:1"/>
<line x1="291" y1="535" x2="336" y2="535" style="stroke:blue; stroke-width:1"/>
<line x1="245" y1="525" x2="245" y2="489" style="stroke:blue; stroke-width:1"/>
<line x1="245" y1="489" x2="291" y2="489" style="stroke:blue; stroke-width:1"/>
<line x1="382" y1="494" x2="382" y2="480" style="stroke:blue; stroke-width:1"/>
<line x1="382" y1="480" x2="428" y2="480" style="stroke:blue; stroke-width:1"/>
<line x1="336" y1="443" x2="336" y2="494" style="stroke:blue; stroke-width:1"/>
<line x1="336" y1="494" x2="382" y2="494" style="stroke:blue; stroke-width:1"/>
<line x1="291" y1="489" x2="291" y2="443" style="stroke:blue; stroke-width:1"/>
<line x1="291" y1="443" x2="336" y2="443" style="stroke:blue; stroke-width:1"/>
<line x1="428" y1="439" x2="428" y2="425" style="stroke:blue; stroke-width:1"/>
<line x1="428" y1="425" x2="474" y2="425" style="stroke:blue; stroke-width:1"/>
<line x1="382" y1="392" x2="382" y2="439" style="stroke:blue; stroke-width:1"/>
<line x1="382" y1="439" x2="428" y2="439" style="stroke:blue; stroke-width:1"/>
<line x1="336" y1="443" x2="336" y2="392" style="stroke:blue; stroke-width:1"/>
<line x1="336" y1="392" x2="382" y2="392" style="stroke:blue; stroke-width:1"/>
<line x1="520" y1="280" x2="520" y2="298" style="stroke:blue; stroke-width:1"/>
<line x1="520" y1="298" x2="565" y2="298" style="stroke:blue; stroke-width:1"/>
<line x1="474" y1="307" x2="474" y2="280" style="stroke:blue; stroke-width:1"/>
<line x1="474" y1="280" x2="520" y2="280" style="stroke:blue; stroke-width:1"/>
<line x1="520" y1="280" x2="520" y2="262" style="stroke:blue; stroke-width:1"/>
<line x1="520" y1="262" x2="565" y2="262" style="stroke:blue; stroke-width:1"/>
<line x1="428" y1="346" x2="428" y2="307" style="stroke:blue; stroke-width:1"/>
<line x1="428" y1="307" x2="474" y2="307" style="stroke:blue; stroke-width:1"/>
<line x1="474" y1="307" x2="474" y2="334" style="stroke:blue; stroke-width:1"/>
<line x1="474" y1="334" x2="520" y2="334" style="stroke:blue; stroke-width:1"/>
<line x1="382" y1="392" x2="382" y2="346" style="stroke:blue; stroke-width:1"/>
<line x1="382" y1="346" x2="428" y2="346" style="stroke:blue; stroke-width:1"/>
<line x1="428" y1="346" x2="428" y2="384" style="stroke:blue; stroke-width:1"/>
<line x1="428" y1="384" x2="474" y2="384" style="stroke:blue; stroke-width:1"/>
<line x1="474" y1="384" x2="474" y2="371" style="stroke:blue; stroke-width:1"/>
<line x1="474" y1="371" x2="520" y2="371" style="stroke:blue; stroke-width:1"/>
<line x1="108" y1="539" x2="108" y2="383" style="stroke:blue; stroke-width:1"/>
<line x1="108" y1="383" x2="153" y2="383" style="stroke:blue; stroke-width:1"/>
<line x1="199" y1="199" x2="199" y2="173" style="stroke:blue; stroke-width:1"/>
<line x1="199" y1="173" x2="245" y2="173" style="stroke:blue; stroke-width:1"/>
<line x1="291" y1="148" x2="291" y2="171" style="stroke:blue; stroke-width:1"/>
<line x1="291" y1="171" x2="336" y2="171" style="stroke:blue; stroke-width:1"/>
<line x1="245" y1="173" x2="245" y2="148" style="stroke:blue; stroke-width:1"/>
<line x1="245" y1="148" x2="291" y2="148" style="stroke:blue; stroke-width:1"/>
<line x1="291" y1="148" x2="291" y2="125" style="stroke:blue; stroke-width:1"/>
<line x1="291" y1="125" x2="336" y2="125" style="stroke:blue; stroke-width:1"/>
<line x1="336" y1="125" x2="336" y2="107" style="stroke:blue; stroke-width:1"/>
<line x1="336" y1="107" x2="382" y2="107" style="stroke:blue; stroke-width:1"/>
<line x1="382" y1="107" x2="382" y2="89" style="stroke:blue; stroke-width:1"/>
<line x1="382" y1="89" x2="428" y2="89" style="stroke:blue; stroke-width:1"/>
<line x1="428" y1="89" x2="428" y2="72" style="stroke:blue; stroke-width:1"/>
<line x1="428" y1="72" x2="474" y2="72" style="stroke:blue; stroke-width:1"/>
<line x1="520" y1="55" x2="520" y2="39" style="stroke:blue; stroke-width:1"/>
<line x1="520" y1="39" x2="565" y2="39" style="stroke:blue; stroke-width:1"/>
<line x1="565" y1="39" x2="565" y2="25" style="stroke:blue; stroke-width:1"/>
<line x1="565" y1="25" x2="611" y2="25" style="stroke:blue; stroke-width:1"/>
<line x1="474" y1="72" x2="474" y2="55" style="stroke:blue; stroke-width:1"/>
<line x1="474" y1="55" x2="520" y2="55" style="stroke:blue; stroke-width:1"/>
<line x1="153" y1="383" x2="153" y2="199" style="stroke:blue; stroke-width:1"/>
<line x1="153" y1="199" x2="199" y2="199" style="stroke:blue; stroke-width:1"/>
<line x1="199" y1="199" x2="199" y2="225" style="stroke:blue; stroke-width:1"/>
<line x1="199" y1="225" x2="245" y2="225" style="stroke:blue; stroke-width:1"/>
<line x1="62" y1="675" x2="62" y2="539" style="stroke:blue; stroke-width:1"/>
<line x1="62" y1="539" x2="108" y2="539" style="stroke:blue; stroke-width:1"/>
<line x1="108" y1="811" x2="108" y2="839" style="stroke:blue; stroke-width:1"/>
<line x1="108" y1="839" x2="153" y2="839" style="stroke:blue; stroke-width:1"/>
<line x1="153" y1="839" x2="153" y2="826" style="stroke:blue; stroke-width:1"/>
<line x1="153" y1="826" x2="199" y2="826" style="stroke:blue; stroke-width:1"/>
<line x1="62" y1="675" x2="62" y2="811" style="stroke:blue; stroke-width:1"/>
<line x1="62" y1="811" x2="108" y2="811" style="stroke:blue; stroke-width:1"/>
<line x1="199" y1="767" x2="199" y2="753" style="stroke:blue; stroke-width:1"/>
<line x1="199" y1="753" x2="245" y2="753" style="stroke:blue; stroke-width:1"/>
<line x1="153" y1="782" x2="153" y2="767" style="stroke:blue; stroke-width:1"/>
<line x1="153" y1="767" x2="199" y2="767" style="stroke:blue; stroke-width:1"/>
<line x1="108" y1="811" x2="108" y2="782" style="stroke:blue; stroke-width:1"/>
<line x1="108" y1="782" x2="153" y2="782" style="stroke:blue; stroke-width:1"/>
<line x1="108" y1="539" x2="108" y2="696" style="stroke:blue; stroke-width:1"/>
<line x1="108" y1="696" x2="153" y2="696" style="stroke:blue; stroke-width:1"/>
<line x1="153" y1="696" x2="153" y2="717" style="stroke:blue; stroke-width:1"/>
<line x1="153" y1="717" x2="199" y2="717" style="stroke:blue; stroke-width:1"/>
<line x1="16" y1="675" x2="16" y2="675" style="stroke:blue; stroke-width:1"/>
<line x1="16" y1="675" x2="62" y2="675" style="stroke:blue; stroke-width:1"/>
<text x="20" y="669" font-weight = "10" font-family="verdana" fill="black" font-size="15">Root</text>
<text x="203" y="857" font-weight = "10" font-family="verdana" fill="black" font-size="15">KJ473795-AB085735</text>
<text x="249" y="839" font-weight = "10" font-family="verdana" fill="black" font-size="15">KJ473796-AB085735</text>
<text x="249" y="821" font-weight = "10" font-family="verdana" fill="black" font-size="15">EU420138-ON640726</text>
<text x="203" y="802" font-weight = "10" font-family="verdana" fill="black" font-size="15">KJ473797-AB085735</text>
<text x="249" y="784" font-weight = "10" font-family="verdana" fill="black" font-size="15">KJ473800-AB085735</text>
<text x="295" y="766" font-weight = "10" font-family="verdana" fill="black" font-size="15">KJ473798-AB085735</text>
<text x="295" y="748" font-weight = "10" font-family="verdana" fill="black" font-size="15">KJ473799-AB085735</text>
<text x="249" y="730" font-weight = "10" font-family="verdana" fill="black" font-size="15">NC_014470-MZ936290</text>
<text x="249" y="711" font-weight = "10" font-family="verdana" fill="black" font-size="15">GU190215-MZ936290</text>
<text x="249" y="693" font-weight = "10" font-family="verdana" fill="black" font-size="15">MN996532-KP972690</text>
<text x="295" y="675" font-weight = "10" font-family="verdana" fill="black" font-size="15">MG772934-HM134917</text>
<text x="295" y="657" font-weight = "10" font-family="verdana" fill="black" font-size="15">MG772933-HM134917</text>
<text x="340" y="639" font-weight = "10" font-family="verdana" fill="black" font-size="15">DQ412043-KX261916</text>
<text x="340" y="620" font-weight = "10" font-family="verdana" fill="black" font-size="15">DQ648857-KX261916</text>
<text x="340" y="602" font-weight = "10" font-family="verdana" fill="black" font-size="15">KJ473814-HM134917</text>
<text x="340" y="584" font-weight = "10" font-family="verdana" fill="black" font-size="15">JX993987-ON012504</text>
<text x="295" y="566" font-weight = "10" font-family="verdana" fill="black" font-size="15">KJ473815-HM134917</text>
<text x="386" y="548" font-weight = "10" font-family="verdana" fill="black" font-size="15">KY417147-HM134917</text>
<text x="386" y="529" font-weight = "10" font-family="verdana" fill="black" font-size="15">KY417148-HM134917</text>
<text x="432" y="511" font-weight = "10" font-family="verdana" fill="black" font-size="15">FJ588686-HM134917</text>
<text x="478" y="493" font-weight = "10" font-family="verdana" fill="black" font-size="15">KY417143-HM134917</text>
<text x="478" y="475" font-weight = "10" font-family="verdana" fill="black" font-size="15">KY417149-HM134917</text>
<text x="478" y="457" font-weight = "10" font-family="verdana" fill="black" font-size="15">KJ473816-HM134917</text>
<text x="524" y="438" font-weight = "10" font-family="verdana" fill="black" font-size="15">KY770859-HM134917</text>
<text x="524" y="420" font-weight = "10" font-family="verdana" fill="black" font-size="15">KY770858-HM134917</text>
<text x="524" y="402" font-weight = "10" font-family="verdana" fill="black" font-size="15">KY417146-HM134917</text>
<text x="569" y="384" font-weight = "10" font-family="verdana" fill="black" font-size="15">KT444582-HM134917</text>
<text x="569" y="366" font-weight = "10" font-family="verdana" fill="black" font-size="15">KY417150-HM134917</text>
<text x="569" y="348" font-weight = "10" font-family="verdana" fill="black" font-size="15">KY417152-HM134917</text>
<text x="569" y="329" font-weight = "10" font-family="verdana" fill="black" font-size="15">KY417151-HM134917</text>
<text x="615" y="311" font-weight = "10" font-family="verdana" fill="black" font-size="15">KF367457-HM134917</text>
<text x="615" y="293" font-weight = "10" font-family="verdana" fill="black" font-size="15">KC881006-HM134917</text>
<text x="615" y="275" font-weight = "10" font-family="verdana" fill="black" font-size="15">KC881005-HM134917</text>
<text x="615" y="257" font-weight = "10" font-family="verdana" fill="black" font-size="15">KY417144-HM134917</text>
<text x="295" y="238" font-weight = "10" font-family="verdana" fill="black" font-size="15">GQ153543-HM134917</text>
<text x="295" y="220" font-weight = "10" font-family="verdana" fill="black" font-size="15">GQ153542-HM134917</text>
<text x="295" y="202" font-weight = "10" font-family="verdana" fill="black" font-size="15">GQ153547-HM134917</text>
<text x="386" y="184" font-weight = "10" font-family="verdana" fill="black" font-size="15">DQ084200-HM134917</text>
<text x="386" y="166" font-weight = "10" font-family="verdana" fill="black" font-size="15">DQ022305-HM134917</text>
<text x="386" y="147" font-weight = "10" font-family="verdana" fill="black" font-size="15">DQ084199-HM134917</text>
<text x="432" y="129" font-weight = "10" font-family="verdana" fill="black" font-size="15">GQ153541-HM134917</text>
<text x="478" y="111" font-weight = "10" font-family="verdana" fill="black" font-size="15">GQ153539-HM134917</text>
<text x="524" y="93" font-weight = "10" font-family="verdana" fill="black" font-size="15">GQ153540-HM134917</text>
<text x="569" y="75" font-weight = "10" font-family="verdana" fill="black" font-size="15">GQ153548-HM134917</text>
<text x="615" y="56" font-weight = "10" font-family="verdana" fill="black" font-size="15">GQ153546-HM134917</text>
<text x="661" y="38" font-weight = "10" font-family="verdana" fill="black" font-size="15">GQ153545-HM134917</text>
<text x="661" y="20" font-weight = "10" font-family="verdana" fill="black" font-size="15">GQ153544-HM134917</text>
<line x1="405.17857142857" y1="507.28260869565" x2="446.31776233695" y2="490.93352645105" style="stroke:red; stroke-width:1;stroke-dasharray: 5, 5"/>
<line x1="448.16433226626" y1="495.58004982839" x2="444.47119240763" y2="486.28700307371" style="stroke:red; stroke-width:1"/>
<line x1="448.16433226626" y1="495.58004982839" x2="450.96428571429" y2="489.08695652174" style="stroke:red; stroke-width:1"/>
<line x1="450.96428571429" y1="489.08695652174" x2="444.47119240763" y2="486.28700307371" style="stroke:red; stroke-width:1"/>
<text x="428.07142857143" y="498.1847826087" font-weight = "10" font-family="verdana" fill="red" font-size="15">2(100%)</text>
<line x1="176.25" y1="853" x2="218.12149521697" y2="819.71978695297" style="stroke:red; stroke-width:1;stroke-dasharray: 5, 5"/>
<line x1="221.23258651776" y1="823.63400602171" x2="215.01040391618" y2="815.80556788422" style="stroke:red; stroke-width:1"/>
<line x1="221.23258651776" y1="823.63400602171" x2="222.03571428571" y2="816.60869565217" style="stroke:red; stroke-width:1"/>
<line x1="222.03571428571" y1="816.60869565217" x2="215.01040391618" y2="815.80556788422" style="stroke:red; stroke-width:1"/>
<text x="199.14285714286" y="834.80434782609" font-weight = "10" font-family="verdana" fill="red" font-size="15">3(100%)</text>
<line x1="359.39285714286" y1="543.67391304348" x2="359.39285714286" y2="498.63586956522" style="stroke:red; stroke-width:1;stroke-dasharray: 5, 5"/>
<line x1="364.39285714286" y1="498.63586956522" x2="354.39285714286" y2="498.63586956522" style="stroke:red; stroke-width:1"/>
<line x1="364.39285714286" y1="498.63586956522" x2="359.39285714286" y2="493.63586956522" style="stroke:red; stroke-width:1"/>
<line x1="359.39285714286" y1="493.63586956522" x2="354.39285714286" y2="498.63586956522" style="stroke:red; stroke-width:1"/>
<text x="359.39285714286" y="518.65489130435" font-weight = "10" font-family="verdana" fill="red" font-size="15">4(100%)</text>
<line x1="405.17857142857" y1="345.79619565217" x2="178.87700185662" y2="712.2783330528" style="stroke:red; stroke-width:1;stroke-dasharray: 5, 5"/>
<line x1="174.62272621377" y1="709.65133119619" x2="183.13127749947" y2="714.90533490942" style="stroke:red; stroke-width:1"/>
<line x1="174.62272621377" y1="709.65133119619" x2="176.25" y2="716.53260869565" style="stroke:red; stroke-width:1"/>
<line x1="176.25" y1="716.53260869565" x2="183.13127749947" y2="714.90533490942" style="stroke:red; stroke-width:1"/>
<text x="290.71428571429" y="531.16440217391" font-weight = "10" font-family="verdana" fill="red" font-size="15">5(100%)</text>
<line x1="634.10714285714" y1="16" x2="501.16808643351" y2="86.44155930146" style="stroke:red; stroke-width:1;stroke-dasharray: 5, 5"/>
<line x1="498.82703703932" y1="82.023472867952" x2="503.5091358277" y2="90.859645734969" style="stroke:red; stroke-width:1"/>
<line x1="498.82703703932" y1="82.023472867952" x2="496.75" y2="88.782608695652" style="stroke:red; stroke-width:1"/>
<line x1="496.75" y1="88.782608695652" x2="503.5091358277" y2="90.859645734969" style="stroke:red; stroke-width:1"/>
<text x="565.42857142857" y="52.391304347826" font-weight = "10" font-family="verdana" fill="red" font-size="15">6(100%)</text>
<line x1="267.82142857143" y1="743.82608695652" x2="225.94993335446" y2="777.10630000356" style="stroke:red; stroke-width:1;stroke-dasharray: 5, 5"/>
<line x1="222.83884205367" y1="773.19208093481" x2="229.06102465525" y2="781.0205190723" style="stroke:red; stroke-width:1"/>
<line x1="222.83884205367" y1="773.19208093481" x2="222.03571428571" y2="780.21739130435" style="stroke:red; stroke-width:1"/>
<line x1="222.03571428571" y1="780.21739130435" x2="229.06102465525" y2="781.0205190723" style="stroke:red; stroke-width:1"/>
<text x="244.92857142857" y="762.02173913043" font-weight = "10" font-family="verdana" fill="red" font-size="15">7(100%)</text>
<line x1="634.10714285714" y1="16" x2="546.83052553977" y2="68.026761940838" style="stroke:red; stroke-width:1;stroke-dasharray: 5, 5"/>
<line x1="544.27033095886" y1="63.731950686787" x2="549.39072012067" y2="72.321573194889" style="stroke:red; stroke-width:1"/>
<line x1="544.27033095886" y1="63.731950686787" x2="542.53571428571" y2="70.586956521739" style="stroke:red; stroke-width:1"/>
<line x1="542.53571428571" y1="70.586956521739" x2="549.39072012067" y2="72.321573194889" style="stroke:red; stroke-width:1"/>
<text x="588.32142857143" y="43.29347826087" font-weight = "10" font-family="verdana" fill="red" font-size="15">8(100%)</text>
<line x1="588.32142857143" y1="25.097826086957" x2="455.25909696834" y2="104.41806628866" style="stroke:red; stroke-width:1;stroke-dasharray: 5, 5"/>
<line x1="452.69890238744" y1="100.12325503461" x2="457.81929154924" y2="108.71287754272" style="stroke:red; stroke-width:1"/>
<line x1="452.69890238744" y1="100.12325503461" x2="450.96428571429" y2="106.97826086957" style="stroke:red; stroke-width:1"/>
<line x1="450.96428571429" y1="106.97826086957" x2="457.81929154924" y2="108.71287754272" style="stroke:red; stroke-width:1"/>
<text x="519.64285714286" y="66.038043478261" font-weight = "10" font-family="verdana" fill="red" font-size="15">9(100%)</text>
<line x1="176.25" y1="798.41304347826" x2="263.52661731738" y2="746.38628153742" style="stroke:red; stroke-width:1;stroke-dasharray: 5, 5"/>
<line x1="266.08681189828" y1="750.68109279147" x2="260.96642273648" y2="742.09147028337" style="stroke:red; stroke-width:1"/>
<line x1="266.08681189828" y1="750.68109279147" x2="267.82142857143" y2="743.82608695652" style="stroke:red; stroke-width:1"/>
<line x1="267.82142857143" y1="743.82608695652" x2="260.96642273648" y2="742.09147028337" style="stroke:red; stroke-width:1"/>
<text x="222.03571428571" y="771.11956521739" font-weight = "10" font-family="verdana" fill="red" font-size="15">10(100%)</text>
<line x1="405.17857142857" y1="125.17391304348" x2="583.9337646371" y2="27.49540928664" style="stroke:red; stroke-width:1;stroke-dasharray: 5, 5"/>
<line x1="586.33134783678" y1="31.883073220967" x2="581.53618143742" y2="23.107745352313" style="stroke:red; stroke-width:1"/>
<line x1="586.33134783678" y1="31.883073220967" x2="588.32142857143" y2="25.097826086957" style="stroke:red; stroke-width:1"/>
<line x1="588.32142857143" y1="25.097826086957" x2="581.53618143742" y2="23.107745352313" style="stroke:red; stroke-width:1"/>
<text x="496.75" y="75.135869565217" font-weight = "10" font-family="verdana" fill="red" font-size="15">11(100%)</text>
<line x1="130.46428571429" y1="839.35326086957" x2="172.52274394735" y2="801.74584445012" style="stroke:red; stroke-width:1;stroke-dasharray: 5, 5"/>
<line x1="175.85554491921" y1="805.47310050276" x2="169.1899429755" y2="798.01858839747" style="stroke:red; stroke-width:1"/>
<line x1="175.85554491921" y1="805.47310050276" x2="176.25" y2="798.41304347826" style="stroke:red; stroke-width:1"/>
<line x1="176.25" y1="798.41304347826" x2="169.1899429755" y2="798.01858839747" style="stroke:red; stroke-width:1"/>
<text x="153.35714285714" y="818.88315217391" font-weight = "10" font-family="verdana" fill="red" font-size="15">12(100%)</text>
<line x1="359.39285714286" y1="179.76086956522" x2="316.82524894484" y2="129.14278752336" style="stroke:red; stroke-width:1;stroke-dasharray: 5, 5"/>
<line x1="320.65196989212" y1="125.92468143566" x2="312.99852799757" y2="132.36089361106" style="stroke:red; stroke-width:1"/>
<line x1="320.65196989212" y1="125.92468143566" x2="313.60714285714" y2="125.31606657609" style="stroke:red; stroke-width:1"/>
<line x1="313.60714285714" y1="125.31606657609" x2="312.99852799757" y2="132.36089361106" style="stroke:red; stroke-width:1"/>
<text x="336.5" y="152.53846807065" font-weight = "10" font-family="verdana" fill="red" font-size="15">13(100%)</text>
<line x1="176.25" y1="199.11151919158" x2="266.59766090372" y2="557.02163857856" style="stroke:red; stroke-width:1;stroke-dasharray: 5, 5"/>
<line x1="261.74973426489" y1="558.24540624627" x2="271.44558754255" y2="555.79787091085" style="stroke:red; stroke-width:1"/>
<line x1="261.74973426489" y1="558.24540624627" x2="267.82142857143" y2="561.86956521739" style="stroke:red; stroke-width:1"/>
<line x1="267.82142857143" y1="561.86956521739" x2="271.44558754255" y2="555.79787091085" style="stroke:red; stroke-width:1"/>
<text x="222.03571428571" y="380.49054220448" font-weight = "10" font-family="verdana" fill="red" font-size="15">14(100%)</text>
<line x1="176.25" y1="199.11151919158" x2="266.77169175149" y2="620.66578437566" style="stroke:red; stroke-width:1;stroke-dasharray: 5, 5"/>
<line x1="261.88312830106" y1="621.7155211956" x2="271.66025520191" y2="619.61604755572" style="stroke:red; stroke-width:1"/>
<line x1="261.88312830106" y1="621.7155211956" x2="267.82142857143" y2="625.55434782609" style="stroke:red; stroke-width:1"/>
<line x1="267.82142857143" y1="625.55434782609" x2="271.66025520191" y2="619.61604755572" style="stroke:red; stroke-width:1"/>
<text x="222.03571428571" y="412.33293350883" font-weight = "10" font-family="verdana" fill="red" font-size="15">15(100%)</text>
<line x1="176.25" y1="199.11151919158" x2="311.71254146992" y2="529.94894036456" style="stroke:red; stroke-width:1;stroke-dasharray: 5, 5"/>
<line x1="307.08539487795" y1="531.84354175179" x2="316.33968806188" y2="528.05433897733" style="stroke:red; stroke-width:1"/>
<line x1="307.08539487795" y1="531.84354175179" x2="313.60714285714" y2="534.57608695652" style="stroke:red; stroke-width:1"/>
<line x1="313.60714285714" y1="534.57608695652" x2="316.33968806188" y2="528.05433897733" style="stroke:red; stroke-width:1"/>
<text x="244.92857142857" y="366.84380307405" font-weight = "10" font-family="verdana" fill="red" font-size="15">16(100%)</text>
<line x1="176.25" y1="199.11151919158" x2="401.72700201029" y2="435.43136296769" style="stroke:red; stroke-width:1;stroke-dasharray: 5, 5"/>
<line x1="398.10945193451" y1="438.88293238597" x2="405.34455208608" y2="431.97979354942" style="stroke:red; stroke-width:1"/>
<line x1="398.10945193451" y1="438.88293238597" x2="405.17857142857" y2="439.04891304348" style="stroke:red; stroke-width:1"/>
<line x1="405.17857142857" y1="439.04891304348" x2="405.34455208608" y2="431.97979354942" style="stroke:red; stroke-width:1"/>
<text x="290.71428571429" y="319.08021611753" font-weight = "10" font-family="verdana" fill="red" font-size="15">17(100%)</text>
<line x1="267.82142857143" y1="589.16304347826" x2="177.39276769206" y2="203.97917591756" style="stroke:red; stroke-width:1;stroke-dasharray: 5, 5"/>
<line x1="182.26042441804" y1="202.8364082255" x2="172.52511096608" y2="205.12194360962" style="stroke:red; stroke-width:1"/>
<line x1="182.26042441804" y1="202.8364082255" x2="176.25" y2="199.11151919158" style="stroke:red; stroke-width:1"/>
<line x1="176.25" y1="199.11151919158" x2="172.52511096608" y2="205.12194360962" style="stroke:red; stroke-width:1"/>
<text x="222.03571428571" y="394.13728133492" font-weight = "10" font-family="verdana" fill="red" font-size="15">18(100%)</text>
<line x1="176.25" y1="566.34740149457" x2="219.87594899851" y2="657.43617172666" style="stroke:red; stroke-width:1;stroke-dasharray: 5, 5"/>
<line x1="215.36646855125" y1="659.59593701387" x2="224.38542944576" y2="655.27640643945" style="stroke:red; stroke-width:1"/>
<line x1="215.36646855125" y1="659.59593701387" x2="222.03571428571" y2="661.94565217391" style="stroke:red; stroke-width:1"/>
<line x1="222.03571428571" y1="661.94565217391" x2="224.38542944576" y2="655.27640643945" style="stroke:red; stroke-width:1"/>
<text x="199.14285714286" y="614.14652683424" font-weight = "10" font-family="verdana" fill="red" font-size="15">19(100%)</text>
<line x1="542.53571428571" y1="261.64130434783" x2="584.02661731738" y2="286.37458802779" style="stroke:red; stroke-width:1;stroke-dasharray: 5, 5"/>
<line x1="581.46642273648" y1="290.66939928185" x2="586.58681189828" y2="282.07977677374" style="stroke:red; stroke-width:1"/>
<line x1="581.46642273648" y1="290.66939928185" x2="588.32142857143" y2="288.9347826087" style="stroke:red; stroke-width:1"/>
<line x1="588.32142857143" y1="288.9347826087" x2="586.58681189828" y2="282.07977677374" style="stroke:red; stroke-width:1"/>
<text x="565.42857142857" y="275.28804347826" font-weight = "10" font-family="verdana" fill="red" font-size="15">1(100%)</text>
</g></svg>