<?xml version="1.0" encoding="iso-8859-1"?>
<!DOCTYPE svg PUBLIC "-//W3C//DTD SVG 1.0//EN" "http://www.w3.org/TR/2001/REC-SVG-20010904/DTD/svg10.dtd">
<svg width="823" height="899" xmlns="http://www.w3.org/2000/svg" xmlns:xlink="http://www.w3.org/1999/xlink">
<g style="stroke:black;fill:lightgreen" transform="translate(30,30)">
<line x1="245" y1="662" x2="245" y2="653" style="stroke:blue; stroke-width:1"/>
<line x1="245" y1="653" x2="291" y2="653" style="stroke:blue; stroke-width:1"/>
<line x1="245" y1="662" x2="245" y2="671" style="stroke:blue; stroke-width:1"/>
<line x1="245" y1="671" x2="291" y2="671" style="stroke:blue; stroke-width:1"/>
<line x1="199" y1="676" x2="199" y2="689" style="stroke:blue; stroke-width:1"/>
<line x1="199" y1="689" x2="245" y2="689" style="stroke:blue; stroke-width:1"/>
<line x1="199" y1="826" x2="199" y2="835" style="stroke:blue; stroke-width:1"/>
<line x1="199" y1="835" x2="245" y2="835" style="stroke:blue; stroke-width:1"/>
<line x1="199" y1="826" x2="199" y2="817" style="stroke:blue; stroke-width:1"/>
<line x1="199" y1="817" x2="245" y2="817" style="stroke:blue; stroke-width:1"/>
<line x1="153" y1="839" x2="153" y2="853" style="stroke:blue; stroke-width:1"/>
<line x1="153" y1="853" x2="199" y2="853" style="stroke:blue; stroke-width:1"/>
<line x1="245" y1="753" x2="245" y2="762" style="stroke:blue; stroke-width:1"/>
<line x1="245" y1="762" x2="291" y2="762" style="stroke:blue; stroke-width:1"/>
<line x1="245" y1="753" x2="245" y2="744" style="stroke:blue; stroke-width:1"/>
<line x1="245" y1="744" x2="291" y2="744" style="stroke:blue; stroke-width:1"/>
<line x1="199" y1="767" x2="199" y2="780" style="stroke:blue; stroke-width:1"/>
<line x1="199" y1="780" x2="245" y2="780" style="stroke:blue; stroke-width:1"/>
<line x1="153" y1="782" x2="153" y2="798" style="stroke:blue; stroke-width:1"/>
<line x1="153" y1="798" x2="199" y2="798" style="stroke:blue; stroke-width:1"/>
<line x1="291" y1="626" x2="291" y2="635" style="stroke:blue; stroke-width:1"/>
<line x1="291" y1="635" x2="336" y2="635" style="stroke:blue; stroke-width:1"/>
<line x1="291" y1="626" x2="291" y2="616" style="stroke:blue; stroke-width:1"/>
<line x1="291" y1="616" x2="336" y2="616" style="stroke:blue; stroke-width:1"/>
<line x1="291" y1="589" x2="291" y2="580" style="stroke:blue; stroke-width:1"/>
<line x1="291" y1="580" x2="336" y2="580" style="stroke:blue; stroke-width:1"/>
<line x1="291" y1="589" x2="291" y2="598" style="stroke:blue; stroke-width:1"/>
<line x1="291" y1="598" x2="336" y2="598" style="stroke:blue; stroke-width:1"/>
<line x1="336" y1="535" x2="336" y2="544" style="stroke:blue; stroke-width:1"/>
<line x1="336" y1="544" x2="382" y2="544" style="stroke:blue; stroke-width:1"/>
<line x1="336" y1="535" x2="336" y2="525" style="stroke:blue; stroke-width:1"/>
<line x1="336" y1="525" x2="382" y2="525" style="stroke:blue; stroke-width:1"/>
<line x1="565" y1="262" x2="565" y2="253" style="stroke:blue; stroke-width:1"/>
<line x1="565" y1="253" x2="611" y2="253" style="stroke:blue; stroke-width:1"/>
<line x1="565" y1="262" x2="565" y2="271" style="stroke:blue; stroke-width:1"/>
<line x1="565" y1="271" x2="611" y2="271" style="stroke:blue; stroke-width:1"/>
<line x1="565" y1="298" x2="565" y2="307" style="stroke:blue; stroke-width:1"/>
<line x1="565" y1="307" x2="611" y2="307" style="stroke:blue; stroke-width:1"/>
<line x1="565" y1="298" x2="565" y2="289" style="stroke:blue; stroke-width:1"/>
<line x1="565" y1="289" x2="611" y2="289" style="stroke:blue; stroke-width:1"/>
<line x1="520" y1="334" x2="520" y2="325" style="stroke:blue; stroke-width:1"/>
<line x1="520" y1="325" x2="565" y2="325" style="stroke:blue; stroke-width:1"/>
<line x1="520" y1="334" x2="520" y2="344" style="stroke:blue; stroke-width:1"/>
<line x1="520" y1="344" x2="565" y2="344" style="stroke:blue; stroke-width:1"/>
<line x1="520" y1="371" x2="520" y2="380" style="stroke:blue; stroke-width:1"/>
<line x1="520" y1="380" x2="565" y2="380" style="stroke:blue; stroke-width:1"/>
<line x1="520" y1="371" x2="520" y2="362" style="stroke:blue; stroke-width:1"/>
<line x1="520" y1="362" x2="565" y2="362" style="stroke:blue; stroke-width:1"/>
<line x1="474" y1="384" x2="474" y2="398" style="stroke:blue; stroke-width:1"/>
<line x1="474" y1="398" x2="520" y2="398" style="stroke:blue; stroke-width:1"/>
<line x1="474" y1="425" x2="474" y2="416" style="stroke:blue; stroke-width:1"/>
<line x1="474" y1="416" x2="520" y2="416" style="stroke:blue; stroke-width:1"/>
<line x1="474" y1="425" x2="474" y2="434" style="stroke:blue; stroke-width:1"/>
<line x1="474" y1="434" x2="520" y2="434" style="stroke:blue; stroke-width:1"/>
<line x1="428" y1="439" x2="428" y2="453" style="stroke:blue; stroke-width:1"/>
<line x1="428" y1="453" x2="474" y2="453" style="stroke:blue; stroke-width:1"/>
<line x1="428" y1="480" x2="428" y2="471" style="stroke:blue; stroke-width:1"/>
<line x1="428" y1="471" x2="474" y2="471" style="stroke:blue; stroke-width:1"/>
<line x1="428" y1="480" x2="428" y2="489" style="stroke:blue; stroke-width:1"/>
<line x1="428" y1="489" x2="474" y2="489" style="stroke:blue; stroke-width:1"/>
<line x1="382" y1="494" x2="382" y2="507" style="stroke:blue; stroke-width:1"/>
<line x1="382" y1="507" x2="428" y2="507" style="stroke:blue; stroke-width:1"/>
<line x1="245" y1="525" x2="245" y2="562" style="stroke:blue; stroke-width:1"/>
<line x1="245" y1="562" x2="291" y2="562" style="stroke:blue; stroke-width:1"/>
<line x1="336" y1="171" x2="336" y2="180" style="stroke:blue; stroke-width:1"/>
<line x1="336" y1="180" x2="382" y2="180" style="stroke:blue; stroke-width:1"/>
<line x1="336" y1="171" x2="336" y2="162" style="stroke:blue; stroke-width:1"/>
<line x1="336" y1="162" x2="382" y2="162" style="stroke:blue; stroke-width:1"/>
<line x1="611" y1="25" x2="611" y2="34" style="stroke:blue; stroke-width:1"/>
<line x1="611" y1="34" x2="657" y2="34" style="stroke:blue; stroke-width:1"/>
<line x1="611" y1="25" x2="611" y2="16" style="stroke:blue; stroke-width:1"/>
<line x1="611" y1="16" x2="657" y2="16" style="stroke:blue; stroke-width:1"/>
<line x1="565" y1="39" x2="565" y2="52" style="stroke:blue; stroke-width:1"/>
<line x1="565" y1="52" x2="611" y2="52" style="stroke:blue; stroke-width:1"/>
<line x1="520" y1="55" x2="520" y2="71" style="stroke:blue; stroke-width:1"/>
<line x1="520" y1="71" x2="565" y2="71" style="stroke:blue; stroke-width:1"/>
<line x1="474" y1="72" x2="474" y2="89" style="stroke:blue; stroke-width:1"/>
<line x1="474" y1="89" x2="520" y2="89" style="stroke:blue; stroke-width:1"/>
<line x1="428" y1="89" x2="428" y2="107" style="stroke:blue; stroke-width:1"/>
<line x1="428" y1="107" x2="474" y2="107" style="stroke:blue; stroke-width:1"/>
<line x1="382" y1="107" x2="382" y2="125" style="stroke:blue; stroke-width:1"/>
<line x1="382" y1="125" x2="428" y2="125" style="stroke:blue; stroke-width:1"/>
<line x1="336" y1="125" x2="336" y2="143" style="stroke:blue; stroke-width:1"/>
<line x1="336" y1="143" x2="382" y2="143" style="stroke:blue; stroke-width:1"/>
<line x1="245" y1="173" x2="245" y2="198" style="stroke:blue; stroke-width:1"/>
<line x1="245" y1="198" x2="291" y2="198" style="stroke:blue; stroke-width:1"/>
<line x1="245" y1="225" x2="245" y2="234" style="stroke:blue; stroke-width:1"/>
<line x1="245" y1="234" x2="291" y2="234" style="stroke:blue; stroke-width:1"/>
<line x1="245" y1="225" x2="245" y2="216" style="stroke:blue; stroke-width:1"/>
<line x1="245" y1="216" x2="291" y2="216" style="stroke:blue; stroke-width:1"/>
<line x1="199" y1="717" x2="199" y2="726" style="stroke:blue; stroke-width:1"/>
<line x1="199" y1="726" x2="245" y2="726" style="stroke:blue; stroke-width:1"/>
<line x1="199" y1="717" x2="199" y2="707" style="stroke:blue; stroke-width:1"/>
<line x1="199" y1="707" x2="245" y2="707" style="stroke:blue; stroke-width:1"/>
<line x1="199" y1="676" x2="199" y2="662" style="stroke:blue; stroke-width:1"/>
<line x1="199" y1="662" x2="245" y2="662" style="stroke:blue; stroke-width:1"/>
<line x1="153" y1="696" x2="153" y2="676" style="stroke:blue; stroke-width:1"/>
<line x1="153" y1="676" x2="199" y2="676" style="stroke:blue; stroke-width:1"/>
<line x1="245" y1="607" x2="245" y2="626" style="stroke:blue; stroke-width:1"/>
<line x1="245" y1="626" x2="291" y2="626" style="stroke:blue; stroke-width:1"/>
<line x1="199" y1="566" x2="199" y2="607" style="stroke:blue; stroke-width:1"/>
<line x1="199" y1="607" x2="245" y2="607" style="stroke:blue; stroke-width:1"/>
<line x1="245" y1="607" x2="245" y2="589" style="stroke:blue; stroke-width:1"/>
<line x1="245" y1="589" x2="291" y2="589" style="stroke:blue; stroke-width:1"/>
<line x1="153" y1="383" x2="153" y2="566" style="stroke:blue; stroke-width:1"/>
<line x1="153" y1="566" x2="199" y2="566" style="stroke:blue; stroke-width:1"/>
<line x1="199" y1="566" x2="199" y2="525" style="stroke:blue; stroke-width:1"/>
<line x1="199" y1="525" x2="245" y2="525" style="stroke:blue; stroke-width:1"/>
<line x1="291" y1="489" x2="291" y2="535" style="stroke:blue; stroke-width:1"/>
<line x1="291" y1="535" x2="336" y2="535" style="stroke:blue; stroke-width:1"/>
<line x1="245" y1="525" x2="245" y2="489" style="stroke:blue; stroke-width:1"/>
<line x1="245" y1="489" x2="291" y2="489" style="stroke:blue; stroke-width:1"/>
<line x1="382" y1="494" x2="382" y2="480" style="stroke:blue; stroke-width:1"/>
<line x1="382" y1="480" x2="428" y2="480" style="stroke:blue; stroke-width:1"/>
<line x1="336" y1="443" x2="336" y2="494" style="stroke:blue; stroke-width:1"/>
<line x1="336" y1="494" x2="382" y2="494" style="stroke:blue; stroke-width:1"/>
<line x1="291" y1="489" x2="291" y2="443" style="stroke:blue; stroke-width:1"/>
<line x1="291" y1="443" x2="336" y2="443" style="stroke:blue; stroke-width:1"/>
<line x1="428" y1="439" x2="428" y2="425" style="stroke:blue; stroke-width:1"/>
<line x1="428" y1="425" x2="474" y2="425" style="stroke:blue; stroke-width:1"/>
<line x1="382" y1="392" x2="382" y2="439" style="stroke:blue; stroke-width:1"/>
<line x1="382" y1="439" x2="428" y2="439" style="stroke:blue; stroke-width:1"/>
<line x1="336" y1="443" x2="336" y2="392" style="stroke:blue; stroke-width:1"/>
<line x1="336" y1="392" x2="382" y2="392" style="stroke:blue; stroke-width:1"/>
<line x1="520" y1="280" x2="520" y2="298" style="stroke:blue; stroke-width:1"/>
<line x1="520" y1="298" x2="565" y2="298" style="stroke:blue; stroke-width:1"/>
<line x1="474" y1="307" x2="474" y2="280" style="stroke:blue; stroke-width:1"/>
<line x1="474" y1="280" x2="520" y2="280" style="stroke:blue; stroke-width:1"/>
<line x1="520" y1="280" x2="520" y2="262" style="stroke:blue; stroke-width:1"/>
<line x1="520" y1="262" x2="565" y2="262" style="stroke:blue; stroke-width:1"/>
<line x1="428" y1="346" x2="428" y2="307" style="stroke:blue; stroke-width:1"/>
<line x1="428" y1="307" x2="474" y2="307" style="stroke:blue; stroke-width:1"/>
<line x1="474" y1="307" x2="474" y2="334" style="stroke:blue; stroke-width:1"/>
<line x1="474" y1="334" x2="520" y2="334" style="stroke:blue; stroke-width:1"/>
<line x1="382" y1="392" x2="382" y2="346" style="stroke:blue; stroke-width:1"/>
<line x1="382" y1="346" x2="428" y2="346" style="stroke:blue; stroke-width:1"/>
<line x1="428" y1="346" x2="428" y2="384" style="stroke:blue; stroke-width:1"/>
<line x1="428" y1="384" x2="474" y2="384" style="stroke:blue; stroke-width:1"/>
<line x1="474" y1="384" x2="474" y2="371" style="stroke:blue; stroke-width:1"/>
<line x1="474" y1="371" x2="520" y2="371" style="stroke:blue; stroke-width:1"/>
<line x1="108" y1="539" x2="108" y2="383" style="stroke:blue; stroke-width:1"/>
<line x1="108" y1="383" x2="153" y2="383" style="stroke:blue; stroke-width:1"/>
<line x1="199" y1="199" x2="199" y2="173" style="stroke:blue; stroke-width:1"/>
<line x1="199" y1="173" x2="245" y2="173" style="stroke:blue; stroke-width:1"/>
<line x1="291" y1="148" x2="291" y2="171" style="stroke:blue; stroke-width:1"/>
<line x1="291" y1="171" x2="336" y2="171" style="stroke:blue; stroke-width:1"/>
<line x1="245" y1="173" x2="245" y2="148" style="stroke:blue; stroke-width:1"/>
<line x1="245" y1="148" x2="291" y2="148" style="stroke:blue; stroke-width:1"/>
<line x1="291" y1="148" x2="291" y2="125" style="stroke:blue; stroke-width:1"/>
<line x1="291" y1="125" x2="336" y2="125" style="stroke:blue; stroke-width:1"/>
<line x1="336" y1="125" x2="336" y2="107" style="stroke:blue; stroke-width:1"/>
<line x1="336" y1="107" x2="382" y2="107" style="stroke:blue; stroke-width:1"/>
<line x1="382" y1="107" x2="382" y2="89" style="stroke:blue; stroke-width:1"/>
<line x1="382" y1="89" x2="428" y2="89" style="stroke:blue; stroke-width:1"/>
<line x1="428" y1="89" x2="428" y2="72" style="stroke:blue; stroke-width:1"/>
<line x1="428" y1="72" x2="474" y2="72" style="stroke:blue; stroke-width:1"/>
<line x1="520" y1="55" x2="520" y2="39" style="stroke:blue; stroke-width:1"/>
<line x1="520" y1="39" x2="565" y2="39" style="stroke:blue; stroke-width:1"/>
<line x1="565" y1="39" x2="565" y2="25" style="stroke:blue; stroke-width:1"/>
<line x1="565" y1="25" x2="611" y2="25" style="stroke:blue; stroke-width:1"/>
<line x1="474" y1="72" x2="474" y2="55" style="stroke:blue; stroke-width:1"/>
<line x1="474" y1="55" x2="520" y2="55" style="stroke:blue; stroke-width:1"/>
<line x1="153" y1="383" x2="153" y2="199" style="stroke:blue; stroke-width:1"/>
<line x1="153" y1="199" x2="199" y2="199" style="stroke:blue; stroke-width:1"/>
<line x1="199" y1="199" x2="199" y2="225" style="stroke:blue; stroke-width:1"/>
<line x1="199" y1="225" x2="245" y2="225" style="stroke:blue; stroke-width:1"/>
<line x1="62" y1="675" x2="62" y2="539" style="stroke:blue; stroke-width:1"/>
<line x1="62" y1="539" x2="108" y2="539" style="stroke:blue; stroke-width:1"/>
<line x1="108" y1="811" x2="108" y2="839" style="stroke:blue; stroke-width:1"/>
<line x1="108" y1="839" x2="153" y2="839" style="stroke:blue; stroke-width:1"/>
<line x1="153" y1="839" x2="153" y2="826" style="stroke:blue; stroke-width:1"/>
<line x1="153" y1="826" x2="199" y2="826" style="stroke:blue; stroke-width:1"/>
<line x1="62" y1="675" x2="62" y2="811" style="stroke:blue; stroke-width:1"/>
<line x1="62" y1="811" x2="108" y2="811" style="stroke:blue; stroke-width:1"/>
<line x1="199" y1="767" x2="199" y2="753" style="stroke:blue; stroke-width:1"/>
<line x1="199" y1="753" x2="245" y2="753" style="stroke:blue; stroke-width:1"/>
<line x1="153" y1="782" x2="153" y2="767" style="stroke:blue; stroke-width:1"/>
<line x1="153" y1="767" x2="199" y2="767" style="stroke:blue; stroke-width:1"/>
<line x1="108" y1="811" x2="108" y2="782" style="stroke:blue; stroke-width:1"/>
<line x1="108" y1="782" x2="153" y2="782" style="stroke:blue; stroke-width:1"/>
<line x1="108" y1="539" x2="108" y2="696" style="stroke:blue; stroke-width:1"/>
<line x1="108" y1="696" x2="153" y2="696" style="stroke:blue; stroke-width:1"/>
<line x1="153" y1="696" x2="153" y2="717" style="stroke:blue; stroke-width:1"/>
<line x1="153" y1="717" x2="199" y2="717" style="stroke:blue; stroke-width:1"/>
<line x1="16" y1="675" x2="16" y2="675" style="stroke:blue; stroke-width:1"/>
<line x1="16" y1="675" x2="62" y2="675" style="stroke:blue; stroke-width:1"/>
<text x="20" y="669" font-weight = "10" font-family="verdana" fill="black" font-size="15">Root</text>
<text x="203" y="857" font-weight = "10" font-family="verdana" fill="black" font-size="15">KJ473795-AB085735</text>
<text x="249" y="839" font-weight = "10" font-family="verdana" fill="black" font-size="15">KJ473796-AB085735</text>
<text x="249" y="821" font-weight = "10" font-family="verdana" fill="black" font-size="15">EU420138-ON640726</text>
<text x="203" y="802" font-weight = "10" font-family="verdana" fill="black" font-size="15">KJ473797-AB085735</text>
<text x="249" y="784" font-weight = "10" font-family="verdana" fill="black" font-size="15">KJ473800-AB085735</text>
<text x="295" y="766" font-weight = "10" font-family="verdana" fill="black" font-size="15">KJ473798-AB085735</text>
<text x="295" y="748" font-weight = "10" font-family="verdana" fill="black" font-size="15">KJ473799-AB085735</text>
<text x="249" y="730" font-weight = "10" font-family="verdana" fill="black" font-size="15">NC_014470-MZ936290</text>
<text x="249" y="711" font-weight = "10" font-family="verdana" fill="black" font-size="15">GU190215-MZ936290</text>
<text x="249" y="693" font-weight = "10" font-family="verdana" fill="black" font-size="15">MN996532-KP972690</text>
<text x="295" y="675" font-weight = "10" font-family="verdana" fill="black" font-size="15">MG772934-HM134917</text>
<text x="295" y="657" font-weight = "10" font-family="verdana" fill="black" font-size="15">MG772933-HM134917</text>
<text x="340" y="639" font-weight = "10" font-family="verdana" fill="black" font-size="15">DQ412043-KX261916</text>
<text x="340" y="620" font-weight = "10" font-family="verdana" fill="black" font-size="15">DQ648857-KX261916</text>
<text x="340" y="602" font-weight = "10" font-family="verdana" fill="black" font-size="15">KJ473814-HM134917</text>
<text x="340" y="584" font-weight = "10" font-family="verdana" fill="black" font-size="15">JX993987-ON012504</text>
<text x="295" y="566" font-weight = "10" font-family="verdana" fill="black" font-size="15">KJ473815-HM134917</text>
<text x="386" y="548" font-weight = "10" font-family="verdana" fill="black" font-size="15">KY417147-HM134917</text>
<text x="386" y="529" font-weight = "10" font-family="verdana" fill="black" font-size="15">KY417148-HM134917</text>
<text x="432" y="511" font-weight = "10" font-family="verdana" fill="black" font-size="15">FJ588686-HM134917</text>
<text x="478" y="493" font-weight = "10" font-family="verdana" fill="black" font-size="15">KY417143-HM134917</text>
<text x="478" y="475" font-weight = "10" font-family="verdana" fill="black" font-size="15">KY417149-HM134917</text>
<text x="478" y="457" font-weight = "10" font-family="verdana" fill="black" font-size="15">KJ473816-HM134917</text>
<text x="524" y="438" font-weight = "10" font-family="verdana" fill="black" font-size="15">KY770859-HM134917</text>
<text x="524" y="420" font-weight = "10" font-family="verdana" fill="black" font-size="15">KY770858-HM134917</text>
<text x="524" y="402" font-weight = "10" font-family="verdana" fill="black" font-size="15">KY417146-HM134917</text>
<text x="569" y="384" font-weight = "10" font-family="verdana" fill="black" font-size="15">KT444582-HM134917</text>
<text x="569" y="366" font-weight = "10" font-family="verdana" fill="black" font-size="15">KY417150-HM134917</text>
<text x="569" y="348" font-weight = "10" font-family="verdana" fill="black" font-size="15">KY417152-HM134917</text>
<text x="569" y="329" font-weight = "10" font-family="verdana" fill="black" font-size="15">KY417151-HM134917</text>
<text x="615" y="311" font-weight = "10" font-family="verdana" fill="black" font-size="15">KF367457-HM134917</text>
<text x="615" y="293" font-weight = "10" font-family="verdana" fill="black" font-size="15">KC881006-HM134917</text>
<text x="615" y="275" font-weight = "10" font-family="verdana" fill="black" font-size="15">KC881005-HM134917</text>
<text x="615" y="257" font-weight = "10" font-family="verdana" fill="black" font-size="15">KY417144-HM134917</text>
<text x="295" y="238" font-weight = "10" font-family="verdana" fill="black" font-size="15">GQ153543-HM134917</text>
<text x="295" y="220" font-weight = "10" font-family="verdana" fill="black" font-size="15">GQ153542-HM134917</text>
<text x="295" y="202" font-weight = "10" font-family="verdana" fill="black" font-size="15">GQ153547-HM134917</text>
<text x="386" y="184" font-weight = "10" font-family="verdana" fill="black" font-size="15">DQ084200-HM134917</text>
<text x="386" y="166" font-weight = "10" font-family="verdana" fill="black" font-size="15">DQ022305-HM134917</text>
<text x="386" y="147" font-weight = "10" font-family="verdana" fill="black" font-size="15">DQ084199-HM134917</text>
<text x="432" y="129" font-weight = "10" font-family="verdana" fill="black" font-size="15">GQ153541-HM134917</text>
<text x="478" y="111" font-weight = "10" font-family="verdana" fill="black" font-size="15">GQ153539-HM134917</text>
<text x="524" y="93" font-weight = "10" font-family="verdana" fill="black" font-size="15">GQ153540-HM134917</text>
<text x="569" y="75" font-weight = "10" font-family="verdana" fill="black" font-size="15">GQ153548-HM134917</text>
<text x="615" y="56" font-weight = "10" font-family="verdana" fill="black" font-size="15">GQ153546-HM134917</text>
<text x="661" y="38" font-weight = "10" font-family="verdana" fill="black" font-size="15">GQ153545-HM134917</text>
<text x="661" y="20" font-weight = "10" font-family="verdana" fill="black" font-size="15">GQ153544-HM134917</text>
<line x1="405.17857142857" y1="125.17391304348" x2="446.31776233695" y2="108.82483079888" style="stroke:red; stroke-width:1;stroke-dasharray: 5, 5"/>
<line x1="448.16433226626" y1="113.47135417622" x2="444.47119240763" y2="104.17830742154" style="stroke:red; stroke-width:1"/>
<line x1="448.16433226626" y1="113.47135417622" x2="450.96428571429" y2="106.97826086957" style="stroke:red; stroke-width:1"/>
<line x1="450.96428571429" y1="106.97826086957" x2="444.47119240763" y2="104.17830742154" style="stroke:red; stroke-width:1"/>
<text x="428.07142857143" y="116.07608695652" font-weight = "10" font-family="verdana" fill="red" font-size="15">2(100%)</text>
<line x1="222.03571428571" y1="816.60869565217" x2="180.16421906875" y2="849.88890869921" style="stroke:red; stroke-width:1;stroke-dasharray: 5, 5"/>
<line x1="177.05312776795" y1="845.97468963046" x2="183.27531036954" y2="853.80312776795" style="stroke:red; stroke-width:1"/>
<line x1="177.05312776795" y1="845.97468963046" x2="176.25" y2="853" style="stroke:red; stroke-width:1"/>
<line x1="176.25" y1="853" x2="183.27531036954" y2="853.80312776795" style="stroke:red; stroke-width:1"/>
<text x="199.14285714286" y="834.80434782609" font-weight = "10" font-family="verdana" fill="red" font-size="15">3(100%)</text>
<line x1="405.17857142857" y1="125.17391304348" x2="583.67490519409" y2="54.237874277137" style="stroke:red; stroke-width:1;stroke-dasharray: 5, 5"/>
<line x1="585.5214751234" y1="58.884397654477" x2="581.82833526478" y2="49.591350899797" style="stroke:red; stroke-width:1"/>
<line x1="585.5214751234" y1="58.884397654477" x2="588.32142857143" y2="52.391304347826" style="stroke:red; stroke-width:1"/>
<line x1="588.32142857143" y1="52.391304347826" x2="581.82833526478" y2="49.591350899797" style="stroke:red; stroke-width:1"/>
<text x="496.75" y="88.782608695652" font-weight = "10" font-family="verdana" fill="red" font-size="15">4(100%)</text>
<line x1="496.75" y1="88.782608695652" x2="409.82509480591" y2="123.32734311417" style="stroke:red; stroke-width:1;stroke-dasharray: 5, 5"/>
<line x1="407.9785248766" y1="118.68081973683" x2="411.67166473522" y2="127.97386649151" style="stroke:red; stroke-width:1"/>
<line x1="407.9785248766" y1="118.68081973683" x2="405.17857142857" y2="125.17391304348" style="stroke:red; stroke-width:1"/>
<line x1="405.17857142857" y1="125.17391304348" x2="411.67166473522" y2="127.97386649151" style="stroke:red; stroke-width:1"/>
<text x="450.96428571429" y="106.97826086957" font-weight = "10" font-family="verdana" fill="red" font-size="15">5(100%)</text>
<line x1="496.75" y1="88.782608695652" x2="629.4606194798" y2="36.042222103224" style="stroke:red; stroke-width:1;stroke-dasharray: 5, 5"/>
<line x1="631.30718940911" y1="40.688745480564" x2="627.61404955049" y2="31.395698725884" style="stroke:red; stroke-width:1"/>
<line x1="631.30718940911" y1="40.688745480564" x2="634.10714285714" y2="34.195652173913" style="stroke:red; stroke-width:1"/>
<line x1="634.10714285714" y1="34.195652173913" x2="627.61404955049" y2="31.395698725884" style="stroke:red; stroke-width:1"/>
<text x="565.42857142857" y="61.489130434783" font-weight = "10" font-family="verdana" fill="red" font-size="15">6(100%)</text>
<line x1="496.75" y1="88.782608695652" x2="537.88919090837" y2="72.43352645105" style="stroke:red; stroke-width:1;stroke-dasharray: 5, 5"/>
<line x1="539.73576083769" y1="77.08004982839" x2="536.04262097906" y2="67.787003073711" style="stroke:red; stroke-width:1"/>
<line x1="539.73576083769" y1="77.08004982839" x2="542.53571428571" y2="70.586956521739" style="stroke:red; stroke-width:1"/>
<line x1="542.53571428571" y1="70.586956521739" x2="536.04262097906" y2="67.787003073711" style="stroke:red; stroke-width:1"/>
<text x="519.64285714286" y="79.684782608696" font-weight = "10" font-family="verdana" fill="red" font-size="15">7(100%)</text>
<line x1="359.39285714286" y1="179.76086956522" x2="447.73137075641" y2="75.538403034769" style="stroke:red; stroke-width:1;stroke-dasharray: 5, 5"/>
<line x1="451.54558900857" y1="78.771317992649" x2="443.91715250424" y2="72.305488076888" style="stroke:red; stroke-width:1"/>
<line x1="451.54558900857" y1="78.771317992649" x2="450.96428571429" y2="71.724184782609" style="stroke:red; stroke-width:1"/>
<line x1="450.96428571429" y1="71.724184782609" x2="443.91715250424" y2="72.305488076888" style="stroke:red; stroke-width:1"/>
<text x="405.17857142857" y="125.74252717391" font-weight = "10" font-family="verdana" fill="red" font-size="15">8(100%)</text>
<line x1="405.17857142857" y1="479.98913043478" x2="362.93986050828" y2="521.95423375195" style="stroke:red; stroke-width:1;stroke-dasharray: 5, 5"/>
<line x1="359.41583339066" y1="518.40723038653" x2="366.46388762589" y2="525.50123711737" style="stroke:red; stroke-width:1"/>
<line x1="359.41583339066" y1="518.40723038653" x2="359.39285714286" y2="525.47826086957" style="stroke:red; stroke-width:1"/>
<line x1="359.39285714286" y1="525.47826086957" x2="366.46388762589" y2="525.50123711737" style="stroke:red; stroke-width:1"/>
<text x="382.28571428571" y="502.73369565217" font-weight = "10" font-family="verdana" fill="red" font-size="15">9(100%)</text>
<line x1="405.17857142857" y1="507.28260869565" x2="405.17857142857" y2="444.04891304348" style="stroke:red; stroke-width:1;stroke-dasharray: 5, 5"/>
<line x1="410.17857142857" y1="444.04891304348" x2="400.17857142857" y2="444.04891304348" style="stroke:red; stroke-width:1"/>
<line x1="410.17857142857" y1="444.04891304348" x2="405.17857142857" y2="439.04891304348" style="stroke:red; stroke-width:1"/>
<line x1="405.17857142857" y1="439.04891304348" x2="400.17857142857" y2="444.04891304348" style="stroke:red; stroke-width:1"/>
<text x="405.17857142857" y="473.16576086957" font-weight = "10" font-family="verdana" fill="red" font-size="15">10(100%)</text>
<line x1="588.32142857143" y1="270.73913043478" x2="588.32142857143" y2="302.13043478261" style="stroke:red; stroke-width:1;stroke-dasharray: 5, 5"/>
<line x1="583.32142857143" y1="302.13043478261" x2="593.32142857143" y2="302.13043478261" style="stroke:red; stroke-width:1"/>
<line x1="583.32142857143" y1="302.13043478261" x2="588.32142857143" y2="307.13043478261" style="stroke:red; stroke-width:1"/>
<line x1="588.32142857143" y1="307.13043478261" x2="593.32142857143" y2="302.13043478261" style="stroke:red; stroke-width:1"/>
<text x="588.32142857143" y="288.9347826087" font-weight = "10" font-family="verdana" fill="red" font-size="15">11(100%)</text>
<line x1="267.82142857143" y1="743.82608695652" x2="225.94993335446" y2="777.10630000356" style="stroke:red; stroke-width:1;stroke-dasharray: 5, 5"/>
<line x1="222.83884205367" y1="773.19208093481" x2="229.06102465525" y2="781.0205190723" style="stroke:red; stroke-width:1"/>
<line x1="222.83884205367" y1="773.19208093481" x2="222.03571428571" y2="780.21739130435" style="stroke:red; stroke-width:1"/>
<line x1="222.03571428571" y1="780.21739130435" x2="229.06102465525" y2="781.0205190723" style="stroke:red; stroke-width:1"/>
<text x="244.92857142857" y="762.02173913043" font-weight = "10" font-family="verdana" fill="red" font-size="15">12(100%)</text>
<line x1="588.32142857143" y1="270.73913043478" x2="544.4694592135" y2="375.30211834828" style="stroke:red; stroke-width:1;stroke-dasharray: 5, 5"/>
<line x1="539.85853408352" y1="373.3683734205" x2="549.08038434348" y2="377.23586327606" style="stroke:red; stroke-width:1"/>
<line x1="539.85853408352" y1="373.3683734205" x2="542.53571428571" y2="379.91304347826" style="stroke:red; stroke-width:1"/>
<line x1="542.53571428571" y1="379.91304347826" x2="549.08038434348" y2="377.23586327606" style="stroke:red; stroke-width:1"/>
<text x="565.42857142857" y="325.32608695652" font-weight = "10" font-family="verdana" fill="red" font-size="15">13(100%)</text>
<line x1="542.53571428571" y1="361.71739130435" x2="499.19028455408" y2="284.20101556065" style="stroke:red; stroke-width:1;stroke-dasharray: 5, 5"/>
<line x1="503.55434359299" y1="281.76073100657" x2="494.82622551517" y2="286.64130011473" style="stroke:red; stroke-width:1"/>
<line x1="503.55434359299" y1="281.76073100657" x2="496.75" y2="279.83695652174" style="stroke:red; stroke-width:1"/>
<line x1="496.75" y1="279.83695652174" x2="494.82622551517" y2="286.64130011473" style="stroke:red; stroke-width:1"/>
<text x="519.64285714286" y="320.77717391304" font-weight = "10" font-family="verdana" fill="red" font-size="15">14(100%)</text>
<line x1="405.17857142857" y1="345.79619565217" x2="178.87700185662" y2="712.2783330528" style="stroke:red; stroke-width:1;stroke-dasharray: 5, 5"/>
<line x1="174.62272621377" y1="709.65133119619" x2="183.13127749947" y2="714.90533490942" style="stroke:red; stroke-width:1"/>
<line x1="174.62272621377" y1="709.65133119619" x2="176.25" y2="716.53260869565" style="stroke:red; stroke-width:1"/>
<line x1="176.25" y1="716.53260869565" x2="183.13127749947" y2="714.90533490942" style="stroke:red; stroke-width:1"/>
<text x="290.71428571429" y="531.16440217391" font-weight = "10" font-family="verdana" fill="red" font-size="15">15(100%)</text>
<line x1="267.82142857143" y1="743.82608695652" x2="180.54481125405" y2="795.85284889736" style="stroke:red; stroke-width:1;stroke-dasharray: 5, 5"/>
<line x1="177.98461667315" y1="791.55803764331" x2="183.10500583495" y2="800.14766015141" style="stroke:red; stroke-width:1"/>
<line x1="177.98461667315" y1="791.55803764331" x2="176.25" y2="798.41304347826" style="stroke:red; stroke-width:1"/>
<line x1="176.25" y1="798.41304347826" x2="183.10500583495" y2="800.14766015141" style="stroke:red; stroke-width:1"/>
<text x="222.03571428571" y="771.11956521739" font-weight = "10" font-family="verdana" fill="red" font-size="15">16(100%)</text>
<line x1="313.60714285714" y1="598.26086956522" x2="403.47370295451" y2="350.49655983872" style="stroke:red; stroke-width:1;stroke-dasharray: 5, 5"/>
<line x1="408.17406714106" y1="352.20142831278" x2="398.77333876797" y2="348.79169136466" style="stroke:red; stroke-width:1"/>
<line x1="408.17406714106" y1="352.20142831278" x2="405.17857142857" y2="345.79619565217" style="stroke:red; stroke-width:1"/>
<line x1="405.17857142857" y1="345.79619565217" x2="398.77333876797" y2="348.79169136466" style="stroke:red; stroke-width:1"/>
<text x="359.39285714286" y="472.0285326087" font-weight = "10" font-family="verdana" fill="red" font-size="15">17(100%)</text>
<line x1="267.82142857143" y1="743.82608695652" x2="179.97725605265" y2="822.37372076728" style="stroke:red; stroke-width:1;stroke-dasharray: 5, 5"/>
<line x1="176.64445508079" y1="818.64646471463" x2="183.3100570245" y2="826.10097681992" style="stroke:red; stroke-width:1"/>
<line x1="176.64445508079" y1="818.64646471463" x2="176.25" y2="825.70652173913" style="stroke:red; stroke-width:1"/>
<line x1="176.25" y1="825.70652173913" x2="183.3100570245" y2="826.10097681992" style="stroke:red; stroke-width:1"/>
<text x="222.03571428571" y="784.76630434783" font-weight = "10" font-family="verdana" fill="red" font-size="15">18(100%)</text>
<line x1="359.39285714286" y1="493.63586956522" x2="225.88702545217" y2="604.1700592196" style="stroke:red; stroke-width:1;stroke-dasharray: 5, 5"/>
<line x1="222.69838901959" y1="600.31874805314" x2="229.07566188474" y2="608.02137038605" style="stroke:red; stroke-width:1"/>
<line x1="222.69838901959" y1="600.31874805314" x2="222.03571428571" y2="607.35869565217" style="stroke:red; stroke-width:1"/>
<line x1="222.03571428571" y1="607.35869565217" x2="229.07566188474" y2="608.02137038605" style="stroke:red; stroke-width:1"/>
<text x="290.71428571429" y="550.4972826087" font-weight = "10" font-family="verdana" fill="red" font-size="15">19(100%)</text>
<line x1="222.03571428571" y1="525.33610733696" x2="222.03571428571" y2="230.25" style="stroke:red; stroke-width:1;stroke-dasharray: 5, 5"/>
<line x1="227.03571428571" y1="230.25" x2="217.03571428571" y2="230.25" style="stroke:red; stroke-width:1"/>
<line x1="227.03571428571" y1="230.25" x2="222.03571428571" y2="225.25" style="stroke:red; stroke-width:1"/>
<line x1="222.03571428571" y1="225.25" x2="217.03571428571" y2="230.25" style="stroke:red; stroke-width:1"/>
<text x="222.03571428571" y="375.29305366848" font-weight = "10" font-family="verdana" fill="red" font-size="15">20(100%)</text>
<line x1="222.03571428571" y1="525.33610733696" x2="267.12889293715" y2="202.90832892391" style="stroke:red; stroke-width:1;stroke-dasharray: 5, 5"/>
<line x1="272.08070012194" y1="203.60086455819" x2="262.17708575237" y2="202.21579328964" style="stroke:red; stroke-width:1"/>
<line x1="272.08070012194" y1="203.60086455819" x2="267.82142857143" y2="197.95652173913" style="stroke:red; stroke-width:1"/>
<line x1="267.82142857143" y1="197.95652173913" x2="262.17708575237" y2="202.21579328964" style="stroke:red; stroke-width:1"/>
<text x="244.92857142857" y="361.64631453804" font-weight = "10" font-family="verdana" fill="red" font-size="15">21(100%)</text>
<line x1="130.46428571429" y1="382.72946034307" x2="220.47757475371" y2="657.19463110484" style="stroke:red; stroke-width:1;stroke-dasharray: 5, 5"/>
<line x1="215.72655368463" y1="658.75277063685" x2="225.22859582278" y2="655.63649157283" style="stroke:red; stroke-width:1"/>
<line x1="215.72655368463" y1="658.75277063685" x2="222.03571428571" y2="661.94565217391" style="stroke:red; stroke-width:1"/>
<line x1="222.03571428571" y1="661.94565217391" x2="225.22859582278" y2="655.63649157283" style="stroke:red; stroke-width:1"/>
<text x="176.25" y="522.33755625849" font-weight = "10" font-family="verdana" fill="red" font-size="15">22(100%)</text>
<line x1="450.96428571429" y1="470.89130434783" x2="363.3070762116" y2="540.56282174269" style="stroke:red; stroke-width:1;stroke-dasharray: 5, 5"/>
<line x1="360.19598491081" y1="536.64860267394" x2="366.4181675124" y2="544.47704081143" style="stroke:red; stroke-width:1"/>
<line x1="360.19598491081" y1="536.64860267394" x2="359.39285714286" y2="543.67391304348" style="stroke:red; stroke-width:1"/>
<line x1="359.39285714286" y1="543.67391304348" x2="366.4181675124" y2="544.47704081143" style="stroke:red; stroke-width:1"/>
<text x="405.17857142857" y="507.28260869565" font-weight = "10" font-family="verdana" fill="red" font-size="15">1(100%)</text>
</g></svg>