<?xml version="1.0" encoding="iso-8859-1"?>
<!DOCTYPE svg PUBLIC "-//W3C//DTD SVG 1.0//EN" "http://www.w3.org/TR/2001/REC-SVG-20010904/DTD/svg10.dtd">
<svg width="823" height="899" xmlns="http://www.w3.org/2000/svg" xmlns:xlink="http://www.w3.org/1999/xlink">
<g style="stroke:black;fill:lightgreen" transform="translate(30,30)">
<line x1="245" y1="662" x2="245" y2="653" style="stroke:blue; stroke-width:1"/>
<line x1="245" y1="653" x2="291" y2="653" style="stroke:blue; stroke-width:1"/>
<line x1="245" y1="662" x2="245" y2="671" style="stroke:blue; stroke-width:1"/>
<line x1="245" y1="671" x2="291" y2="671" style="stroke:blue; stroke-width:1"/>
<line x1="199" y1="676" x2="199" y2="689" style="stroke:blue; stroke-width:1"/>
<line x1="199" y1="689" x2="245" y2="689" style="stroke:blue; stroke-width:1"/>
<line x1="199" y1="826" x2="199" y2="835" style="stroke:blue; stroke-width:1"/>
<line x1="199" y1="835" x2="245" y2="835" style="stroke:blue; stroke-width:1"/>
<line x1="199" y1="826" x2="199" y2="817" style="stroke:blue; stroke-width:1"/>
<line x1="199" y1="817" x2="245" y2="817" style="stroke:blue; stroke-width:1"/>
<line x1="153" y1="839" x2="153" y2="853" style="stroke:blue; stroke-width:1"/>
<line x1="153" y1="853" x2="199" y2="853" style="stroke:blue; stroke-width:1"/>
<line x1="245" y1="753" x2="245" y2="762" style="stroke:blue; stroke-width:1"/>
<line x1="245" y1="762" x2="291" y2="762" style="stroke:blue; stroke-width:1"/>
<line x1="245" y1="753" x2="245" y2="744" style="stroke:blue; stroke-width:1"/>
<line x1="245" y1="744" x2="291" y2="744" style="stroke:blue; stroke-width:1"/>
<line x1="199" y1="767" x2="199" y2="780" style="stroke:blue; stroke-width:1"/>
<line x1="199" y1="780" x2="245" y2="780" style="stroke:blue; stroke-width:1"/>
<line x1="153" y1="782" x2="153" y2="798" style="stroke:blue; stroke-width:1"/>
<line x1="153" y1="798" x2="199" y2="798" style="stroke:blue; stroke-width:1"/>
<line x1="291" y1="626" x2="291" y2="635" style="stroke:blue; stroke-width:1"/>
<line x1="291" y1="635" x2="336" y2="635" style="stroke:blue; stroke-width:1"/>
<line x1="291" y1="626" x2="291" y2="616" style="stroke:blue; stroke-width:1"/>
<line x1="291" y1="616" x2="336" y2="616" style="stroke:blue; stroke-width:1"/>
<line x1="291" y1="589" x2="291" y2="580" style="stroke:blue; stroke-width:1"/>
<line x1="291" y1="580" x2="336" y2="580" style="stroke:blue; stroke-width:1"/>
<line x1="291" y1="589" x2="291" y2="598" style="stroke:blue; stroke-width:1"/>
<line x1="291" y1="598" x2="336" y2="598" style="stroke:blue; stroke-width:1"/>
<line x1="336" y1="535" x2="336" y2="544" style="stroke:blue; stroke-width:1"/>
<line x1="336" y1="544" x2="382" y2="544" style="stroke:blue; stroke-width:1"/>
<line x1="336" y1="535" x2="336" y2="525" style="stroke:blue; stroke-width:1"/>
<line x1="336" y1="525" x2="382" y2="525" style="stroke:blue; stroke-width:1"/>
<line x1="565" y1="262" x2="565" y2="253" style="stroke:blue; stroke-width:1"/>
<line x1="565" y1="253" x2="611" y2="253" style="stroke:blue; stroke-width:1"/>
<line x1="565" y1="262" x2="565" y2="271" style="stroke:blue; stroke-width:1"/>
<line x1="565" y1="271" x2="611" y2="271" style="stroke:blue; stroke-width:1"/>
<line x1="565" y1="298" x2="565" y2="307" style="stroke:blue; stroke-width:1"/>
<line x1="565" y1="307" x2="611" y2="307" style="stroke:blue; stroke-width:1"/>
<line x1="565" y1="298" x2="565" y2="289" style="stroke:blue; stroke-width:1"/>
<line x1="565" y1="289" x2="611" y2="289" style="stroke:blue; stroke-width:1"/>
<line x1="520" y1="334" x2="520" y2="325" style="stroke:blue; stroke-width:1"/>
<line x1="520" y1="325" x2="565" y2="325" style="stroke:blue; stroke-width:1"/>
<line x1="520" y1="334" x2="520" y2="344" style="stroke:blue; stroke-width:1"/>
<line x1="520" y1="344" x2="565" y2="344" style="stroke:blue; stroke-width:1"/>
<line x1="520" y1="371" x2="520" y2="380" style="stroke:blue; stroke-width:1"/>
<line x1="520" y1="380" x2="565" y2="380" style="stroke:blue; stroke-width:1"/>
<line x1="520" y1="371" x2="520" y2="362" style="stroke:blue; stroke-width:1"/>
<line x1="520" y1="362" x2="565" y2="362" style="stroke:blue; stroke-width:1"/>
<line x1="474" y1="384" x2="474" y2="398" style="stroke:blue; stroke-width:1"/>
<line x1="474" y1="398" x2="520" y2="398" style="stroke:blue; stroke-width:1"/>
<line x1="474" y1="425" x2="474" y2="416" style="stroke:blue; stroke-width:1"/>
<line x1="474" y1="416" x2="520" y2="416" style="stroke:blue; stroke-width:1"/>
<line x1="474" y1="425" x2="474" y2="434" style="stroke:blue; stroke-width:1"/>
<line x1="474" y1="434" x2="520" y2="434" style="stroke:blue; stroke-width:1"/>
<line x1="428" y1="439" x2="428" y2="453" style="stroke:blue; stroke-width:1"/>
<line x1="428" y1="453" x2="474" y2="453" style="stroke:blue; stroke-width:1"/>
<line x1="428" y1="480" x2="428" y2="471" style="stroke:blue; stroke-width:1"/>
<line x1="428" y1="471" x2="474" y2="471" style="stroke:blue; stroke-width:1"/>
<line x1="428" y1="480" x2="428" y2="489" style="stroke:blue; stroke-width:1"/>
<line x1="428" y1="489" x2="474" y2="489" style="stroke:blue; stroke-width:1"/>
<line x1="382" y1="494" x2="382" y2="507" style="stroke:blue; stroke-width:1"/>
<line x1="382" y1="507" x2="428" y2="507" style="stroke:blue; stroke-width:1"/>
<line x1="245" y1="525" x2="245" y2="562" style="stroke:blue; stroke-width:1"/>
<line x1="245" y1="562" x2="291" y2="562" style="stroke:blue; stroke-width:1"/>
<line x1="336" y1="171" x2="336" y2="180" style="stroke:blue; stroke-width:1"/>
<line x1="336" y1="180" x2="382" y2="180" style="stroke:blue; stroke-width:1"/>
<line x1="336" y1="171" x2="336" y2="162" style="stroke:blue; stroke-width:1"/>
<line x1="336" y1="162" x2="382" y2="162" style="stroke:blue; stroke-width:1"/>
<line x1="611" y1="25" x2="611" y2="34" style="stroke:blue; stroke-width:1"/>
<line x1="611" y1="34" x2="657" y2="34" style="stroke:blue; stroke-width:1"/>
<line x1="611" y1="25" x2="611" y2="16" style="stroke:blue; stroke-width:1"/>
<line x1="611" y1="16" x2="657" y2="16" style="stroke:blue; stroke-width:1"/>
<line x1="565" y1="39" x2="565" y2="52" style="stroke:blue; stroke-width:1"/>
<line x1="565" y1="52" x2="611" y2="52" style="stroke:blue; stroke-width:1"/>
<line x1="520" y1="55" x2="520" y2="71" style="stroke:blue; stroke-width:1"/>
<line x1="520" y1="71" x2="565" y2="71" style="stroke:blue; stroke-width:1"/>
<line x1="474" y1="72" x2="474" y2="89" style="stroke:blue; stroke-width:1"/>
<line x1="474" y1="89" x2="520" y2="89" style="stroke:blue; stroke-width:1"/>
<line x1="428" y1="89" x2="428" y2="107" style="stroke:blue; stroke-width:1"/>
<line x1="428" y1="107" x2="474" y2="107" style="stroke:blue; stroke-width:1"/>
<line x1="382" y1="107" x2="382" y2="125" style="stroke:blue; stroke-width:1"/>
<line x1="382" y1="125" x2="428" y2="125" style="stroke:blue; stroke-width:1"/>
<line x1="336" y1="125" x2="336" y2="143" style="stroke:blue; stroke-width:1"/>
<line x1="336" y1="143" x2="382" y2="143" style="stroke:blue; stroke-width:1"/>
<line x1="245" y1="173" x2="245" y2="198" style="stroke:blue; stroke-width:1"/>
<line x1="245" y1="198" x2="291" y2="198" style="stroke:blue; stroke-width:1"/>
<line x1="245" y1="225" x2="245" y2="234" style="stroke:blue; stroke-width:1"/>
<line x1="245" y1="234" x2="291" y2="234" style="stroke:blue; stroke-width:1"/>
<line x1="245" y1="225" x2="245" y2="216" style="stroke:blue; stroke-width:1"/>
<line x1="245" y1="216" x2="291" y2="216" style="stroke:blue; stroke-width:1"/>
<line x1="199" y1="717" x2="199" y2="726" style="stroke:blue; stroke-width:1"/>
<line x1="199" y1="726" x2="245" y2="726" style="stroke:blue; stroke-width:1"/>
<line x1="199" y1="717" x2="199" y2="707" style="stroke:blue; stroke-width:1"/>
<line x1="199" y1="707" x2="245" y2="707" style="stroke:blue; stroke-width:1"/>
<line x1="199" y1="676" x2="199" y2="662" style="stroke:blue; stroke-width:1"/>
<line x1="199" y1="662" x2="245" y2="662" style="stroke:blue; stroke-width:1"/>
<line x1="153" y1="696" x2="153" y2="676" style="stroke:blue; stroke-width:1"/>
<line x1="153" y1="676" x2="199" y2="676" style="stroke:blue; stroke-width:1"/>
<line x1="245" y1="607" x2="245" y2="626" style="stroke:blue; stroke-width:1"/>
<line x1="245" y1="626" x2="291" y2="626" style="stroke:blue; stroke-width:1"/>
<line x1="199" y1="566" x2="199" y2="607" style="stroke:blue; stroke-width:1"/>
<line x1="199" y1="607" x2="245" y2="607" style="stroke:blue; stroke-width:1"/>
<line x1="245" y1="607" x2="245" y2="589" style="stroke:blue; stroke-width:1"/>
<line x1="245" y1="589" x2="291" y2="589" style="stroke:blue; stroke-width:1"/>
<line x1="153" y1="383" x2="153" y2="566" style="stroke:blue; stroke-width:1"/>
<line x1="153" y1="566" x2="199" y2="566" style="stroke:blue; stroke-width:1"/>
<line x1="199" y1="566" x2="199" y2="525" style="stroke:blue; stroke-width:1"/>
<line x1="199" y1="525" x2="245" y2="525" style="stroke:blue; stroke-width:1"/>
<line x1="291" y1="489" x2="291" y2="535" style="stroke:blue; stroke-width:1"/>
<line x1="291" y1="535" x2="336" y2="535" style="stroke:blue; stroke-width:1"/>
<line x1="245" y1="525" x2="245" y2="489" style="stroke:blue; stroke-width:1"/>
<line x1="245" y1="489" x2="291" y2="489" style="stroke:blue; stroke-width:1"/>
<line x1="382" y1="494" x2="382" y2="480" style="stroke:blue; stroke-width:1"/>
<line x1="382" y1="480" x2="428" y2="480" style="stroke:blue; stroke-width:1"/>
<line x1="336" y1="443" x2="336" y2="494" style="stroke:blue; stroke-width:1"/>
<line x1="336" y1="494" x2="382" y2="494" style="stroke:blue; stroke-width:1"/>
<line x1="291" y1="489" x2="291" y2="443" style="stroke:blue; stroke-width:1"/>
<line x1="291" y1="443" x2="336" y2="443" style="stroke:blue; stroke-width:1"/>
<line x1="428" y1="439" x2="428" y2="425" style="stroke:blue; stroke-width:1"/>
<line x1="428" y1="425" x2="474" y2="425" style="stroke:blue; stroke-width:1"/>
<line x1="382" y1="392" x2="382" y2="439" style="stroke:blue; stroke-width:1"/>
<line x1="382" y1="439" x2="428" y2="439" style="stroke:blue; stroke-width:1"/>
<line x1="336" y1="443" x2="336" y2="392" style="stroke:blue; stroke-width:1"/>
<line x1="336" y1="392" x2="382" y2="392" style="stroke:blue; stroke-width:1"/>
<line x1="520" y1="280" x2="520" y2="298" style="stroke:blue; stroke-width:1"/>
<line x1="520" y1="298" x2="565" y2="298" style="stroke:blue; stroke-width:1"/>
<line x1="474" y1="307" x2="474" y2="280" style="stroke:blue; stroke-width:1"/>
<line x1="474" y1="280" x2="520" y2="280" style="stroke:blue; stroke-width:1"/>
<line x1="520" y1="280" x2="520" y2="262" style="stroke:blue; stroke-width:1"/>
<line x1="520" y1="262" x2="565" y2="262" style="stroke:blue; stroke-width:1"/>
<line x1="428" y1="346" x2="428" y2="307" style="stroke:blue; stroke-width:1"/>
<line x1="428" y1="307" x2="474" y2="307" style="stroke:blue; stroke-width:1"/>
<line x1="474" y1="307" x2="474" y2="334" style="stroke:blue; stroke-width:1"/>
<line x1="474" y1="334" x2="520" y2="334" style="stroke:blue; stroke-width:1"/>
<line x1="382" y1="392" x2="382" y2="346" style="stroke:blue; stroke-width:1"/>
<line x1="382" y1="346" x2="428" y2="346" style="stroke:blue; stroke-width:1"/>
<line x1="428" y1="346" x2="428" y2="384" style="stroke:blue; stroke-width:1"/>
<line x1="428" y1="384" x2="474" y2="384" style="stroke:blue; stroke-width:1"/>
<line x1="474" y1="384" x2="474" y2="371" style="stroke:blue; stroke-width:1"/>
<line x1="474" y1="371" x2="520" y2="371" style="stroke:blue; stroke-width:1"/>
<line x1="108" y1="539" x2="108" y2="383" style="stroke:blue; stroke-width:1"/>
<line x1="108" y1="383" x2="153" y2="383" style="stroke:blue; stroke-width:1"/>
<line x1="199" y1="199" x2="199" y2="173" style="stroke:blue; stroke-width:1"/>
<line x1="199" y1="173" x2="245" y2="173" style="stroke:blue; stroke-width:1"/>
<line x1="291" y1="148" x2="291" y2="171" style="stroke:blue; stroke-width:1"/>
<line x1="291" y1="171" x2="336" y2="171" style="stroke:blue; stroke-width:1"/>
<line x1="245" y1="173" x2="245" y2="148" style="stroke:blue; stroke-width:1"/>
<line x1="245" y1="148" x2="291" y2="148" style="stroke:blue; stroke-width:1"/>
<line x1="291" y1="148" x2="291" y2="125" style="stroke:blue; stroke-width:1"/>
<line x1="291" y1="125" x2="336" y2="125" style="stroke:blue; stroke-width:1"/>
<line x1="336" y1="125" x2="336" y2="107" style="stroke:blue; stroke-width:1"/>
<line x1="336" y1="107" x2="382" y2="107" style="stroke:blue; stroke-width:1"/>
<line x1="382" y1="107" x2="382" y2="89" style="stroke:blue; stroke-width:1"/>
<line x1="382" y1="89" x2="428" y2="89" style="stroke:blue; stroke-width:1"/>
<line x1="428" y1="89" x2="428" y2="72" style="stroke:blue; stroke-width:1"/>
<line x1="428" y1="72" x2="474" y2="72" style="stroke:blue; stroke-width:1"/>
<line x1="520" y1="55" x2="520" y2="39" style="stroke:blue; stroke-width:1"/>
<line x1="520" y1="39" x2="565" y2="39" style="stroke:blue; stroke-width:1"/>
<line x1="565" y1="39" x2="565" y2="25" style="stroke:blue; stroke-width:1"/>
<line x1="565" y1="25" x2="611" y2="25" style="stroke:blue; stroke-width:1"/>
<line x1="474" y1="72" x2="474" y2="55" style="stroke:blue; stroke-width:1"/>
<line x1="474" y1="55" x2="520" y2="55" style="stroke:blue; stroke-width:1"/>
<line x1="153" y1="383" x2="153" y2="199" style="stroke:blue; stroke-width:1"/>
<line x1="153" y1="199" x2="199" y2="199" style="stroke:blue; stroke-width:1"/>
<line x1="199" y1="199" x2="199" y2="225" style="stroke:blue; stroke-width:1"/>
<line x1="199" y1="225" x2="245" y2="225" style="stroke:blue; stroke-width:1"/>
<line x1="62" y1="675" x2="62" y2="539" style="stroke:blue; stroke-width:1"/>
<line x1="62" y1="539" x2="108" y2="539" style="stroke:blue; stroke-width:1"/>
<line x1="108" y1="811" x2="108" y2="839" style="stroke:blue; stroke-width:1"/>
<line x1="108" y1="839" x2="153" y2="839" style="stroke:blue; stroke-width:1"/>
<line x1="153" y1="839" x2="153" y2="826" style="stroke:blue; stroke-width:1"/>
<line x1="153" y1="826" x2="199" y2="826" style="stroke:blue; stroke-width:1"/>
<line x1="62" y1="675" x2="62" y2="811" style="stroke:blue; stroke-width:1"/>
<line x1="62" y1="811" x2="108" y2="811" style="stroke:blue; stroke-width:1"/>
<line x1="199" y1="767" x2="199" y2="753" style="stroke:blue; stroke-width:1"/>
<line x1="199" y1="753" x2="245" y2="753" style="stroke:blue; stroke-width:1"/>
<line x1="153" y1="782" x2="153" y2="767" style="stroke:blue; stroke-width:1"/>
<line x1="153" y1="767" x2="199" y2="767" style="stroke:blue; stroke-width:1"/>
<line x1="108" y1="811" x2="108" y2="782" style="stroke:blue; stroke-width:1"/>
<line x1="108" y1="782" x2="153" y2="782" style="stroke:blue; stroke-width:1"/>
<line x1="108" y1="539" x2="108" y2="696" style="stroke:blue; stroke-width:1"/>
<line x1="108" y1="696" x2="153" y2="696" style="stroke:blue; stroke-width:1"/>
<line x1="153" y1="696" x2="153" y2="717" style="stroke:blue; stroke-width:1"/>
<line x1="153" y1="717" x2="199" y2="717" style="stroke:blue; stroke-width:1"/>
<line x1="16" y1="675" x2="16" y2="675" style="stroke:blue; stroke-width:1"/>
<line x1="16" y1="675" x2="62" y2="675" style="stroke:blue; stroke-width:1"/>
<text x="20" y="669" font-weight = "10" font-family="verdana" fill="black" font-size="15">Root</text>
<text x="203" y="857" font-weight = "10" font-family="verdana" fill="black" font-size="15">KJ473795-AB085735</text>
<text x="249" y="839" font-weight = "10" font-family="verdana" fill="black" font-size="15">KJ473796-AB085735</text>
<text x="249" y="821" font-weight = "10" font-family="verdana" fill="black" font-size="15">EU420138-ON640726</text>
<text x="203" y="802" font-weight = "10" font-family="verdana" fill="black" font-size="15">KJ473797-AB085735</text>
<text x="249" y="784" font-weight = "10" font-family="verdana" fill="black" font-size="15">KJ473800-AB085735</text>
<text x="295" y="766" font-weight = "10" font-family="verdana" fill="black" font-size="15">KJ473798-AB085735</text>
<text x="295" y="748" font-weight = "10" font-family="verdana" fill="black" font-size="15">KJ473799-AB085735</text>
<text x="249" y="730" font-weight = "10" font-family="verdana" fill="black" font-size="15">NC_014470-MZ936290</text>
<text x="249" y="711" font-weight = "10" font-family="verdana" fill="black" font-size="15">GU190215-MZ936290</text>
<text x="249" y="693" font-weight = "10" font-family="verdana" fill="black" font-size="15">MN996532-KP972690</text>
<text x="295" y="675" font-weight = "10" font-family="verdana" fill="black" font-size="15">MG772934-HM134917</text>
<text x="295" y="657" font-weight = "10" font-family="verdana" fill="black" font-size="15">MG772933-HM134917</text>
<text x="340" y="639" font-weight = "10" font-family="verdana" fill="black" font-size="15">DQ412043-KX261916</text>
<text x="340" y="620" font-weight = "10" font-family="verdana" fill="black" font-size="15">DQ648857-KX261916</text>
<text x="340" y="602" font-weight = "10" font-family="verdana" fill="black" font-size="15">KJ473814-HM134917</text>
<text x="340" y="584" font-weight = "10" font-family="verdana" fill="black" font-size="15">JX993987-ON012504</text>
<text x="295" y="566" font-weight = "10" font-family="verdana" fill="black" font-size="15">KJ473815-HM134917</text>
<text x="386" y="548" font-weight = "10" font-family="verdana" fill="black" font-size="15">KY417147-HM134917</text>
<text x="386" y="529" font-weight = "10" font-family="verdana" fill="black" font-size="15">KY417148-HM134917</text>
<text x="432" y="511" font-weight = "10" font-family="verdana" fill="black" font-size="15">FJ588686-HM134917</text>
<text x="478" y="493" font-weight = "10" font-family="verdana" fill="black" font-size="15">KY417143-HM134917</text>
<text x="478" y="475" font-weight = "10" font-family="verdana" fill="black" font-size="15">KY417149-HM134917</text>
<text x="478" y="457" font-weight = "10" font-family="verdana" fill="black" font-size="15">KJ473816-HM134917</text>
<text x="524" y="438" font-weight = "10" font-family="verdana" fill="black" font-size="15">KY770859-HM134917</text>
<text x="524" y="420" font-weight = "10" font-family="verdana" fill="black" font-size="15">KY770858-HM134917</text>
<text x="524" y="402" font-weight = "10" font-family="verdana" fill="black" font-size="15">KY417146-HM134917</text>
<text x="569" y="384" font-weight = "10" font-family="verdana" fill="black" font-size="15">KT444582-HM134917</text>
<text x="569" y="366" font-weight = "10" font-family="verdana" fill="black" font-size="15">KY417150-HM134917</text>
<text x="569" y="348" font-weight = "10" font-family="verdana" fill="black" font-size="15">KY417152-HM134917</text>
<text x="569" y="329" font-weight = "10" font-family="verdana" fill="black" font-size="15">KY417151-HM134917</text>
<text x="615" y="311" font-weight = "10" font-family="verdana" fill="black" font-size="15">KF367457-HM134917</text>
<text x="615" y="293" font-weight = "10" font-family="verdana" fill="black" font-size="15">KC881006-HM134917</text>
<text x="615" y="275" font-weight = "10" font-family="verdana" fill="black" font-size="15">KC881005-HM134917</text>
<text x="615" y="257" font-weight = "10" font-family="verdana" fill="black" font-size="15">KY417144-HM134917</text>
<text x="295" y="238" font-weight = "10" font-family="verdana" fill="black" font-size="15">GQ153543-HM134917</text>
<text x="295" y="220" font-weight = "10" font-family="verdana" fill="black" font-size="15">GQ153542-HM134917</text>
<text x="295" y="202" font-weight = "10" font-family="verdana" fill="black" font-size="15">GQ153547-HM134917</text>
<text x="386" y="184" font-weight = "10" font-family="verdana" fill="black" font-size="15">DQ084200-HM134917</text>
<text x="386" y="166" font-weight = "10" font-family="verdana" fill="black" font-size="15">DQ022305-HM134917</text>
<text x="386" y="147" font-weight = "10" font-family="verdana" fill="black" font-size="15">DQ084199-HM134917</text>
<text x="432" y="129" font-weight = "10" font-family="verdana" fill="black" font-size="15">GQ153541-HM134917</text>
<text x="478" y="111" font-weight = "10" font-family="verdana" fill="black" font-size="15">GQ153539-HM134917</text>
<text x="524" y="93" font-weight = "10" font-family="verdana" fill="black" font-size="15">GQ153540-HM134917</text>
<text x="569" y="75" font-weight = "10" font-family="verdana" fill="black" font-size="15">GQ153548-HM134917</text>
<text x="615" y="56" font-weight = "10" font-family="verdana" fill="black" font-size="15">GQ153546-HM134917</text>
<text x="661" y="38" font-weight = "10" font-family="verdana" fill="black" font-size="15">GQ153545-HM134917</text>
<text x="661" y="20" font-weight = "10" font-family="verdana" fill="black" font-size="15">GQ153544-HM134917</text>
<line x1="496.75" y1="434.5" x2="455.61080909163" y2="450.8490822446" style="stroke:red; stroke-width:1;stroke-dasharray: 5, 5"/>
<line x1="453.76423916231" y1="446.20255886726" x2="457.45737902094" y2="455.49560562194" style="stroke:red; stroke-width:1"/>
<line x1="453.76423916231" y1="446.20255886726" x2="450.96428571429" y2="452.69565217391" style="stroke:red; stroke-width:1"/>
<line x1="450.96428571429" y1="452.69565217391" x2="457.45737902094" y2="455.49560562194" style="stroke:red; stroke-width:1"/>
<text x="473.85714285714" y="443.59782608696" font-weight = "10" font-family="verdana" fill="red" font-size="15">2</text>
<line x1="405.17857142857" y1="125.17391304348" x2="446.31776233695" y2="108.82483079888" style="stroke:red; stroke-width:1;stroke-dasharray: 5, 5"/>
<line x1="448.16433226626" y1="113.47135417622" x2="444.47119240763" y2="104.17830742154" style="stroke:red; stroke-width:1"/>
<line x1="448.16433226626" y1="113.47135417622" x2="450.96428571429" y2="106.97826086957" style="stroke:red; stroke-width:1"/>
<line x1="450.96428571429" y1="106.97826086957" x2="444.47119240763" y2="104.17830742154" style="stroke:red; stroke-width:1"/>
<text x="428.07142857143" y="116.07608695652" font-weight = "10" font-family="verdana" fill="red" font-size="15">3</text>
<line x1="176.25" y1="853" x2="218.12149521697" y2="819.71978695297" style="stroke:red; stroke-width:1;stroke-dasharray: 5, 5"/>
<line x1="221.23258651776" y1="823.63400602171" x2="215.01040391618" y2="815.80556788422" style="stroke:red; stroke-width:1"/>
<line x1="221.23258651776" y1="823.63400602171" x2="222.03571428571" y2="816.60869565217" style="stroke:red; stroke-width:1"/>
<line x1="222.03571428571" y1="816.60869565217" x2="215.01040391618" y2="815.80556788422" style="stroke:red; stroke-width:1"/>
<text x="199.14285714286" y="834.80434782609" font-weight = "10" font-family="verdana" fill="red" font-size="15">4</text>
<line x1="405.17857142857" y1="125.17391304348" x2="583.67490519409" y2="54.237874277137" style="stroke:red; stroke-width:1;stroke-dasharray: 5, 5"/>
<line x1="585.5214751234" y1="58.884397654477" x2="581.82833526478" y2="49.591350899797" style="stroke:red; stroke-width:1"/>
<line x1="585.5214751234" y1="58.884397654477" x2="588.32142857143" y2="52.391304347826" style="stroke:red; stroke-width:1"/>
<line x1="588.32142857143" y1="52.391304347826" x2="581.82833526478" y2="49.591350899797" style="stroke:red; stroke-width:1"/>
<text x="496.75" y="88.782608695652" font-weight = "10" font-family="verdana" fill="red" font-size="15">5</text>
<line x1="405.17857142857" y1="125.17391304348" x2="492.10347662266" y2="90.629178624963" style="stroke:red; stroke-width:1;stroke-dasharray: 5, 5"/>
<line x1="493.95004655197" y1="95.275702002303" x2="490.25690669335" y2="85.982655247624" style="stroke:red; stroke-width:1"/>
<line x1="493.95004655197" y1="95.275702002303" x2="496.75" y2="88.782608695652" style="stroke:red; stroke-width:1"/>
<line x1="496.75" y1="88.782608695652" x2="490.25690669335" y2="85.982655247624" style="stroke:red; stroke-width:1"/>
<text x="450.96428571429" y="106.97826086957" font-weight = "10" font-family="verdana" fill="red" font-size="15">6</text>
<line x1="405.17857142857" y1="125.17391304348" x2="629.4606194798" y2="36.042222103224" style="stroke:red; stroke-width:1;stroke-dasharray: 5, 5"/>
<line x1="631.30718940911" y1="40.688745480564" x2="627.61404955049" y2="31.395698725884" style="stroke:red; stroke-width:1"/>
<line x1="631.30718940911" y1="40.688745480564" x2="634.10714285714" y2="34.195652173913" style="stroke:red; stroke-width:1"/>
<line x1="634.10714285714" y1="34.195652173913" x2="627.61404955049" y2="31.395698725884" style="stroke:red; stroke-width:1"/>
<text x="519.64285714286" y="79.684782608696" font-weight = "10" font-family="verdana" fill="red" font-size="15">7</text>
<line x1="405.17857142857" y1="125.17391304348" x2="537.88919090837" y2="72.43352645105" style="stroke:red; stroke-width:1;stroke-dasharray: 5, 5"/>
<line x1="539.73576083769" y1="77.08004982839" x2="536.04262097906" y2="67.787003073711" style="stroke:red; stroke-width:1"/>
<line x1="539.73576083769" y1="77.08004982839" x2="542.53571428571" y2="70.586956521739" style="stroke:red; stroke-width:1"/>
<line x1="542.53571428571" y1="70.586956521739" x2="536.04262097906" y2="67.787003073711" style="stroke:red; stroke-width:1"/>
<text x="473.85714285714" y="97.880434782609" font-weight = "10" font-family="verdana" fill="red" font-size="15">8</text>
<line x1="359.39285714286" y1="179.76086956522" x2="359.39285714286" y2="112.26256793478" style="stroke:red; stroke-width:1;stroke-dasharray: 5, 5"/>
<line x1="364.39285714286" y1="112.26256793478" x2="354.39285714286" y2="112.26256793478" style="stroke:red; stroke-width:1"/>
<line x1="364.39285714286" y1="112.26256793478" x2="359.39285714286" y2="107.26256793478" style="stroke:red; stroke-width:1"/>
<line x1="359.39285714286" y1="107.26256793478" x2="354.39285714286" y2="112.26256793478" style="stroke:red; stroke-width:1"/>
<text x="359.39285714286" y="143.51171875" font-weight = "10" font-family="verdana" fill="red" font-size="15">9</text>
<line x1="450.96428571429" y1="470.89130434783" x2="318.1432993031" y2="532.47292631172" style="stroke:red; stroke-width:1;stroke-dasharray: 5, 5"/>
<line x1="316.04013865829" y1="527.93676986577" x2="320.2464599479" y2="537.00908275767" style="stroke:red; stroke-width:1"/>
<line x1="316.04013865829" y1="527.93676986577" x2="313.60714285714" y2="534.57608695652" style="stroke:red; stroke-width:1"/>
<line x1="313.60714285714" y1="534.57608695652" x2="320.2464599479" y2="537.00908275767" style="stroke:red; stroke-width:1"/>
<text x="382.28571428571" y="502.73369565217" font-weight = "10" font-family="verdana" fill="red" font-size="15">10</text>
<line x1="405.17857142857" y1="507.28260869565" x2="448.5240011602" y2="429.76623295195" style="stroke:red; stroke-width:1;stroke-dasharray: 5, 5"/>
<line x1="452.88806019911" y1="432.20651750604" x2="444.15994212129" y2="427.32594839787" style="stroke:red; stroke-width:1"/>
<line x1="452.88806019911" y1="432.20651750604" x2="450.96428571429" y2="425.40217391304" style="stroke:red; stroke-width:1"/>
<line x1="450.96428571429" y1="425.40217391304" x2="444.15994212129" y2="427.32594839787" style="stroke:red; stroke-width:1"/>
<text x="428.07142857143" y="466.34239130435" font-weight = "10" font-family="verdana" fill="red" font-size="15">11</text>
<line x1="588.32142857143" y1="307.13043478261" x2="545.19809926756" y2="375.68082110598" style="stroke:red; stroke-width:1;stroke-dasharray: 5, 5"/>
<line x1="540.96587689528" y1="373.01843612413" x2="549.43032163984" y2="378.34320608783" style="stroke:red; stroke-width:1"/>
<line x1="540.96587689528" y1="373.01843612413" x2="542.53571428571" y2="379.91304347826" style="stroke:red; stroke-width:1"/>
<line x1="542.53571428571" y1="379.91304347826" x2="549.43032163984" y2="378.34320608783" style="stroke:red; stroke-width:1"/>
<text x="565.42857142857" y="343.52173913043" font-weight = "10" font-family="verdana" fill="red" font-size="15">12</text>
<line x1="267.82142857143" y1="743.82608695652" x2="180.54481125405" y2="795.85284889736" style="stroke:red; stroke-width:1;stroke-dasharray: 5, 5"/>
<line x1="177.98461667315" y1="791.55803764331" x2="183.10500583495" y2="800.14766015141" style="stroke:red; stroke-width:1"/>
<line x1="177.98461667315" y1="791.55803764331" x2="176.25" y2="798.41304347826" style="stroke:red; stroke-width:1"/>
<line x1="176.25" y1="798.41304347826" x2="183.10500583495" y2="800.14766015141" style="stroke:red; stroke-width:1"/>
<text x="222.03571428571" y="771.11956521739" font-weight = "10" font-family="verdana" fill="red" font-size="15">13</text>
<line x1="588.32142857143" y1="270.73913043478" x2="588.32142857143" y2="302.13043478261" style="stroke:red; stroke-width:1;stroke-dasharray: 5, 5"/>
<line x1="583.32142857143" y1="302.13043478261" x2="593.32142857143" y2="302.13043478261" style="stroke:red; stroke-width:1"/>
<line x1="583.32142857143" y1="302.13043478261" x2="588.32142857143" y2="307.13043478261" style="stroke:red; stroke-width:1"/>
<line x1="588.32142857143" y1="307.13043478261" x2="593.32142857143" y2="302.13043478261" style="stroke:red; stroke-width:1"/>
<text x="588.32142857143" y="288.9347826087" font-weight = "10" font-family="verdana" fill="red" font-size="15">14</text>
<line x1="542.53571428571" y1="261.64130434783" x2="542.53571428571" y2="356.71739130435" style="stroke:red; stroke-width:1;stroke-dasharray: 5, 5"/>
<line x1="537.53571428571" y1="356.71739130435" x2="547.53571428571" y2="356.71739130435" style="stroke:red; stroke-width:1"/>
<line x1="537.53571428571" y1="356.71739130435" x2="542.53571428571" y2="361.71739130435" style="stroke:red; stroke-width:1"/>
<line x1="542.53571428571" y1="361.71739130435" x2="547.53571428571" y2="356.71739130435" style="stroke:red; stroke-width:1"/>
<text x="542.53571428571" y="311.67934782609" font-weight = "10" font-family="verdana" fill="red" font-size="15">15</text>
<line x1="496.75" y1="279.83695652174" x2="496.75" y2="393.10869565217" style="stroke:red; stroke-width:1;stroke-dasharray: 5, 5"/>
<line x1="491.75" y1="393.10869565217" x2="501.75" y2="393.10869565217" style="stroke:red; stroke-width:1"/>
<line x1="491.75" y1="393.10869565217" x2="496.75" y2="398.10869565217" style="stroke:red; stroke-width:1"/>
<line x1="496.75" y1="398.10869565217" x2="501.75" y2="393.10869565217" style="stroke:red; stroke-width:1"/>
<text x="496.75" y="338.97282608696" font-weight = "10" font-family="verdana" fill="red" font-size="15">16</text>
<line x1="450.96428571429" y1="307.13043478261" x2="179.03598228758" y2="712.38070519325" style="stroke:red; stroke-width:1;stroke-dasharray: 5, 5"/>
<line x1="174.88407878517" y1="709.59472290567" x2="183.18788578999" y2="715.16668748083" style="stroke:red; stroke-width:1"/>
<line x1="174.88407878517" y1="709.59472290567" x2="176.25" y2="716.53260869565" style="stroke:red; stroke-width:1"/>
<line x1="176.25" y1="716.53260869565" x2="183.18788578999" y2="715.16668748083" style="stroke:red; stroke-width:1"/>
<text x="313.60714285714" y="511.83152173913" font-weight = "10" font-family="verdana" fill="red" font-size="15">17</text>
<line x1="222.03571428571" y1="780.21739130435" x2="263.90720950268" y2="746.93717825731" style="stroke:red; stroke-width:1;stroke-dasharray: 5, 5"/>
<line x1="267.01830080347" y1="750.85139732606" x2="260.79611820189" y2="743.02295918857" style="stroke:red; stroke-width:1"/>
<line x1="267.01830080347" y1="750.85139732606" x2="267.82142857143" y2="743.82608695652" style="stroke:red; stroke-width:1"/>
<line x1="267.82142857143" y1="743.82608695652" x2="260.79611820189" y2="743.02295918857" style="stroke:red; stroke-width:1"/>
<text x="244.92857142857" y="762.02173913043" font-weight = "10" font-family="verdana" fill="red" font-size="15">18</text>
<line x1="130.46428571429" y1="839.35326086957" x2="217.83543354316" y2="782.92988861933" style="stroke:red; stroke-width:1;stroke-dasharray: 5, 5"/>
<line x1="220.54793085814" y1="787.13016936188" x2="215.12293622819" y2="778.72960787678" style="stroke:red; stroke-width:1"/>
<line x1="220.54793085814" y1="787.13016936188" x2="222.03571428571" y2="780.21739130435" style="stroke:red; stroke-width:1"/>
<line x1="222.03571428571" y1="780.21739130435" x2="215.12293622819" y2="778.72960787678" style="stroke:red; stroke-width:1"/>
<text x="176.25" y="809.78532608696" font-weight = "10" font-family="verdana" fill="red" font-size="15">19</text>
<line x1="313.60714285714" y1="598.26086956522" x2="448.83079255215" y2="311.65240414641" style="stroke:red; stroke-width:1;stroke-dasharray: 5, 5"/>
<line x1="453.35276191595" y1="313.78589730854" x2="444.30882318835" y2="309.51891098427" style="stroke:red; stroke-width:1"/>
<line x1="453.35276191595" y1="313.78589730854" x2="450.96428571429" y2="307.13043478261" style="stroke:red; stroke-width:1"/>
<line x1="450.96428571429" y1="307.13043478261" x2="444.30882318835" y2="309.51891098427" style="stroke:red; stroke-width:1"/>
<text x="382.28571428571" y="452.69565217391" font-weight = "10" font-family="verdana" fill="red" font-size="15">20</text>
<line x1="267.82142857143" y1="625.55434782609" x2="309.31233160309" y2="600.82106414612" style="stroke:red; stroke-width:1;stroke-dasharray: 5, 5"/>
<line x1="311.87252618399" y1="605.11587540017" x2="306.75213702219" y2="596.52625289207" style="stroke:red; stroke-width:1"/>
<line x1="311.87252618399" y1="605.11587540017" x2="313.60714285714" y2="598.26086956522" style="stroke:red; stroke-width:1"/>
<line x1="313.60714285714" y1="598.26086956522" x2="306.75213702219" y2="596.52625289207" style="stroke:red; stroke-width:1"/>
<text x="290.71428571429" y="611.90760869565" font-weight = "10" font-family="verdana" fill="red" font-size="15">21</text>
<line x1="222.03571428571" y1="607.35869565217" x2="355.54154597641" y2="496.8245059978" style="stroke:red; stroke-width:1;stroke-dasharray: 5, 5"/>
<line x1="358.73018240898" y1="500.67581716425" x2="352.35290954383" y2="492.97319483134" style="stroke:red; stroke-width:1"/>
<line x1="358.73018240898" y1="500.67581716425" x2="359.39285714286" y2="493.63586956522" style="stroke:red; stroke-width:1"/>
<line x1="359.39285714286" y1="493.63586956522" x2="352.35290954383" y2="492.97319483134" style="stroke:red; stroke-width:1"/>
<text x="290.71428571429" y="550.4972826087" font-weight = "10" font-family="verdana" fill="red" font-size="15">22</text>
<line x1="176.25" y1="566.34740149457" x2="221.37052707752" y2="230.20555506256" style="stroke:red; stroke-width:1;stroke-dasharray: 5, 5"/>
<line x1="226.32608214008" y1="230.87074227075" x2="216.41497201496" y2="229.54036785437" style="stroke:red; stroke-width:1"/>
<line x1="226.32608214008" y1="230.87074227075" x2="222.03571428571" y2="225.25" style="stroke:red; stroke-width:1"/>
<line x1="222.03571428571" y1="225.25" x2="216.41497201496" y2="229.54036785437" style="stroke:red; stroke-width:1"/>
<text x="199.14285714286" y="395.79870074728" font-weight = "10" font-family="verdana" fill="red" font-size="15">23</text>
<line x1="176.25" y1="566.34740149457" x2="266.61527592835" y2="202.80886094838" style="stroke:red; stroke-width:1;stroke-dasharray: 5, 5"/>
<line x1="271.46761513759" y1="204.01501359146" x2="261.7629367191" y2="201.6027083053" style="stroke:red; stroke-width:1"/>
<line x1="271.46761513759" y1="204.01501359146" x2="267.82142857143" y2="197.95652173913" style="stroke:red; stroke-width:1"/>
<line x1="267.82142857143" y1="197.95652173913" x2="261.7629367191" y2="201.6027083053" style="stroke:red; stroke-width:1"/>
<text x="222.03571428571" y="382.15196161685" font-weight = "10" font-family="verdana" fill="red" font-size="15">24</text>
<line x1="222.03571428571" y1="661.94565217391" x2="132.02242524629" y2="387.48048141215" style="stroke:red; stroke-width:1;stroke-dasharray: 5, 5"/>
<line x1="136.77344631537" y1="385.92234188014" x2="127.27140417722" y2="389.03862094415" style="stroke:red; stroke-width:1"/>
<line x1="136.77344631537" y1="385.92234188014" x2="130.46428571429" y2="382.72946034307" style="stroke:red; stroke-width:1"/>
<line x1="130.46428571429" y1="382.72946034307" x2="127.27140417722" y2="389.03862094415" style="stroke:red; stroke-width:1"/>
<text x="176.25" y="522.33755625849" font-weight = "10" font-family="verdana" fill="red" font-size="15">25</text>
<line x1="359.39285714286" y1="543.67391304348" x2="446.66947446023" y2="491.64715110264" style="stroke:red; stroke-width:1;stroke-dasharray: 5, 5"/>
<line x1="449.22966904114" y1="495.94196235669" x2="444.10927987933" y2="487.35233984859" style="stroke:red; stroke-width:1"/>
<line x1="449.22966904114" y1="495.94196235669" x2="450.96428571429" y2="489.08695652174" style="stroke:red; stroke-width:1"/>
<line x1="450.96428571429" y1="489.08695652174" x2="444.10927987933" y2="487.35233984859" style="stroke:red; stroke-width:1"/>
<text x="405.17857142857" y="516.38043478261" font-weight = "10" font-family="verdana" fill="red" font-size="15">1</text>
</g></svg>