<svg version="1.1" xmlns="http://www.w3.org/2000/svg" xmlns:xlink="http://www.w3.org/1999/xlink" width="1000" height="1000"><defs><clipPath id="SHyntOxfREdO"><path fill="none" stroke="none" d="M 5.5 33.5 L 995.5 33.5 L 995.5 995.5 L 5.5 995.5 L 5.5 33.5"/></clipPath><clipPath id="pssePDoQPrVs"><path fill="none" stroke="none" d="M 5.5 33.5 L 995.5 33.5 L 995.5 995.5 L 5.5 995.5 L 5.5 33.5"/></clipPath><clipPath id="eKEDcOrwNNSK"><path fill="none" stroke="none" d="M 5.5 33.5 L 995.5 33.5 L 995.5 995.5 L 5.5 995.5 L 5.5 33.5"/></clipPath><clipPath id="TphQAEICRUun"><path fill="none" stroke="none" d="M 5.5 33.5 L 995.5 33.5 L 995.5 995.5 L 5.5 995.5 L 5.5 33.5"/></clipPath></defs><path fill="rgb(255,255,255)" stroke="none" paint-order="stroke" d="M 0.5 0.5 L 1000.5 0.5 L 1000.5 1000.5 L 0.5 1000.5 L 0.5 0.5" fill-opacity="1"/><rect fill="#FFFFFF" stroke="none" x="5" y="33" width="990" height="962" transform="matrix(1, 0, 0, 1, 0.5, 0.5)"/><path fill="rgb(255,255,255)" stroke="none" paint-order="stroke" d="M 5.5 33.5 L 995.5 33.5 L 995.5 995.5 L 5.5 995.5 L 5.5 33.5" fill-opacity="1"/><path fill="none" stroke="rgb(229,229,229)" paint-order="fill" d="M 5.5 33.5 L 995.5 33.5 L 995.5 995.5 L 5.5 995.5 L 5.5 33.5" stroke-opacity="1" stroke-linejoin="bevel" stroke-miterlimit="10" stroke-dasharray=""/><path fill="none" stroke="none"/><path fill="none" stroke="rgb(15,15,15)" paint-order="fill" d="M 870.5 498.5 L 701.0704345703125 156.62640380859375" stroke-opacity="0.800000011920929" stroke-linejoin="bevel" stroke-miterlimit="10" stroke-width="3.759999990463257" stroke-dasharray="" clip-path="url(#SHyntOxfREdO)"/><path fill="none" stroke="rgb(56,56,56)" paint-order="fill" d="M 870.5 498.5 L 320.3656005859375 72.19062042236328" stroke-opacity="0.800000011920929" stroke-linejoin="bevel" stroke-miterlimit="10" stroke-width="3.119999885559082" stroke-dasharray="" clip-path="url(#SHyntOxfREdO)"/><path fill="none" stroke="rgb(56,56,56)" paint-order="fill" d="M 870.5 498.5 L 15.064044952392578 308.7744445800781" stroke-opacity="0.800000011920929" stroke-linejoin="bevel" stroke-miterlimit="10" stroke-width="3.119999885559082" stroke-dasharray="" clip-path="url(#SHyntOxfREdO)"/><path fill="none" stroke="rgb(56,56,56)" paint-order="fill" d="M 870.5 498.5 L 15.064044952392578 688.2255249023438" stroke-opacity="0.800000011920929" stroke-linejoin="bevel" stroke-miterlimit="10" stroke-width="3.119999885559082" stroke-dasharray="" clip-path="url(#SHyntOxfREdO)"/><path fill="none" stroke="rgb(56,56,56)" paint-order="fill" d="M 870.5 498.5 L 320.3655700683594 924.809326171875" stroke-opacity="0.800000011920929" stroke-linejoin="bevel" stroke-miterlimit="10" stroke-width="3.119999885559082" stroke-dasharray="" clip-path="url(#SHyntOxfREdO)"/><path fill="none" stroke="rgb(51,51,51)" paint-order="fill" d="M 870.5 498.5 L 701.0703735351562 840.3736572265625" stroke-opacity="0.800000011920929" stroke-linejoin="bevel" stroke-miterlimit="10" stroke-width="3.200000047683716" stroke-dasharray="" clip-path="url(#SHyntOxfREdO)"/><path fill="none" stroke="rgb(56,56,56)" paint-order="fill" d="M 701.0704345703125 156.62640380859375 L 320.3656005859375 72.19062042236328" stroke-opacity="0.800000011920929" stroke-linejoin="bevel" stroke-miterlimit="10" stroke-width="3.119999885559082" stroke-dasharray="" clip-path="url(#SHyntOxfREdO)"/><path fill="none" stroke="rgb(56,56,56)" paint-order="fill" d="M 701.0704345703125 156.62640380859375 L 15.064044952392578 308.7744445800781" stroke-opacity="0.800000011920929" stroke-linejoin="bevel" stroke-miterlimit="10" stroke-width="3.119999885559082" stroke-dasharray="" clip-path="url(#SHyntOxfREdO)"/><path fill="none" stroke="rgb(56,56,56)" paint-order="fill" d="M 701.0704345703125 156.62640380859375 L 15.064044952392578 688.2255249023438" stroke-opacity="0.800000011920929" stroke-linejoin="bevel" stroke-miterlimit="10" stroke-width="3.119999885559082" stroke-dasharray="" clip-path="url(#SHyntOxfREdO)"/><path fill="none" stroke="rgb(56,56,56)" paint-order="fill" d="M 701.0704345703125 156.62640380859375 L 320.3655700683594 924.809326171875" stroke-opacity="0.800000011920929" stroke-linejoin="bevel" stroke-miterlimit="10" stroke-width="3.119999885559082" stroke-dasharray="" clip-path="url(#SHyntOxfREdO)"/><path fill="none" stroke="rgb(51,51,51)" paint-order="fill" d="M 701.0704345703125 156.62640380859375 L 701.0703735351562 840.3736572265625" stroke-opacity="0.800000011920929" stroke-linejoin="bevel" stroke-miterlimit="10" stroke-width="3.200000047683716" stroke-dasharray="" clip-path="url(#SHyntOxfREdO)"/><path fill="none" stroke="rgb(28,28,28)" paint-order="fill" d="M 320.3656005859375 72.19062042236328 L 15.064044952392578 308.7744445800781" stroke-opacity="0.800000011920929" stroke-linejoin="bevel" stroke-miterlimit="10" stroke-width="3.559999942779541" stroke-dasharray="" clip-path="url(#SHyntOxfREdO)"/><path fill="none" stroke="rgb(28,28,28)" paint-order="fill" d="M 320.3656005859375 72.19062042236328 L 15.064044952392578 688.2255249023438" stroke-opacity="0.800000011920929" stroke-linejoin="bevel" stroke-miterlimit="10" stroke-width="3.559999942779541" stroke-dasharray="" clip-path="url(#SHyntOxfREdO)"/><path fill="none" stroke="rgb(33,33,33)" paint-order="fill" d="M 320.3656005859375 72.19062042236328 L 320.3655700683594 924.809326171875" stroke-opacity="0.800000011920929" stroke-linejoin="bevel" stroke-miterlimit="10" stroke-width="3.4800000190734863" stroke-dasharray="" clip-path="url(#SHyntOxfREdO)"/><path fill="none" stroke="rgb(28,28,28)" paint-order="fill" d="M 320.3656005859375 72.19062042236328 L 701.0703735351562 840.3736572265625" stroke-opacity="0.800000011920929" stroke-linejoin="bevel" stroke-miterlimit="10" stroke-width="3.559999942779541" stroke-dasharray="" clip-path="url(#SHyntOxfREdO)"/><path fill="none" stroke="rgb(28,28,28)" paint-order="fill" d="M 15.064044952392578 308.7744445800781 L 15.064044952392578 688.2255249023438" stroke-opacity="0.800000011920929" stroke-linejoin="bevel" stroke-miterlimit="10" stroke-width="3.559999942779541" stroke-dasharray="" clip-path="url(#SHyntOxfREdO)"/><path fill="none" stroke="rgb(30,30,30)" paint-order="fill" d="M 15.064044952392578 308.7744445800781 L 320.3655700683594 924.809326171875" stroke-opacity="0.800000011920929" stroke-linejoin="bevel" stroke-miterlimit="10" stroke-width="3.5199999809265137" stroke-dasharray="" clip-path="url(#SHyntOxfREdO)"/><path fill="none" stroke="rgb(28,28,28)" paint-order="fill" d="M 15.064044952392578 308.7744445800781 L 701.0703735351562 840.3736572265625" stroke-opacity="0.800000011920929" stroke-linejoin="bevel" stroke-miterlimit="10" stroke-width="3.559999942779541" stroke-dasharray="" clip-path="url(#SHyntOxfREdO)"/><path fill="none" stroke="rgb(25,25,25)" paint-order="fill" d="M 15.064044952392578 688.2255249023438 L 320.3655700683594 924.809326171875" stroke-opacity="0.800000011920929" stroke-linejoin="bevel" stroke-miterlimit="10" stroke-width="3.5999999046325684" stroke-dasharray="" clip-path="url(#SHyntOxfREdO)"/><path fill="none" stroke="rgb(20,20,20)" paint-order="fill" d="M 15.064044952392578 688.2255249023438 L 701.0703735351562 840.3736572265625" stroke-opacity="0.800000011920929" stroke-linejoin="bevel" stroke-miterlimit="10" stroke-width="3.680000066757202" stroke-dasharray="" clip-path="url(#SHyntOxfREdO)"/><path fill="none" stroke="rgb(28,28,28)" paint-order="fill" d="M 320.3655700683594 924.809326171875 L 701.0703735351562 840.3736572265625" stroke-opacity="0.800000011920929" stroke-linejoin="bevel" stroke-miterlimit="10" stroke-width="3.559999942779541" stroke-dasharray="" clip-path="url(#SHyntOxfREdO)"/><path fill="none" stroke="none"/><path fill="rgb(226,0,39)" stroke="rgb(0,0,0)" paint-order="fill" d="M 878 498.5 A 7.5 7.5 0 1 1 877.9999962500003 498.49250000125" fill-opacity="1" clip-path="url(#SHyntOxfREdO)" stroke-opacity="1" stroke-linejoin="bevel" stroke-miterlimit="10" stroke-dasharray=""/><path fill="rgb(91,17,60)" stroke="rgb(0,0,0)" paint-order="fill" d="M 708.5704345703125 156.62640380859375 A 7.5 7.5 0 1 1 708.5704308203128 156.61890380984374" fill-opacity="1" clip-path="url(#SHyntOxfREdO)" stroke-opacity="1" stroke-linejoin="bevel" stroke-miterlimit="10" stroke-dasharray=""/><path fill="rgb(255,52,255)" stroke="rgb(0,0,0)" paint-order="fill" d="M 327.8656005859375 72.19062042236328 A 7.5 7.5 0 1 1 327.8655968359378 72.18312042361327" fill-opacity="1" clip-path="url(#SHyntOxfREdO)" stroke-opacity="1" stroke-linejoin="bevel" stroke-miterlimit="10" stroke-dasharray=""/><path fill="rgb(0,0,166)" stroke="rgb(0,0,0)" paint-order="fill" d="M 22.564044952392578 308.7744445800781 A 7.5 7.5 0 1 1 22.56404120239289 308.7669445813281" fill-opacity="1" clip-path="url(#SHyntOxfREdO)" stroke-opacity="1" stroke-linejoin="bevel" stroke-miterlimit="10" stroke-dasharray=""/><path fill="rgb(73,75,90)" stroke="rgb(0,0,0)" paint-order="fill" d="M 22.564044952392578 688.2255249023438 A 7.5 7.5 0 1 1 22.56404120239289 688.2180249035938" fill-opacity="1" clip-path="url(#SHyntOxfREdO)" stroke-opacity="1" stroke-linejoin="bevel" stroke-miterlimit="10" stroke-dasharray=""/><path fill="rgb(0,134,237)" stroke="rgb(0,0,0)" paint-order="fill" d="M 327.8655700683594 924.809326171875 A 7.5 7.5 0 1 1 327.8655663183597 924.801826173125" fill-opacity="1" clip-path="url(#SHyntOxfREdO)" stroke-opacity="1" stroke-linejoin="bevel" stroke-miterlimit="10" stroke-dasharray=""/><path fill="rgb(188,101,233)" stroke="rgb(0,0,0)" paint-order="fill" d="M 708.5703735351562 840.3736572265625 A 7.5 7.5 0 1 1 708.5703697851566 840.3661572278126" fill-opacity="1" clip-path="url(#SHyntOxfREdO)" stroke-opacity="1" stroke-linejoin="bevel" stroke-miterlimit="10" stroke-dasharray=""/><path fill="none" stroke="none"/><path fill="none" stroke="rgb(200,23,28)" paint-order="fill" d="M 870.5 498.5 L 861.5730590820312 498.4658203125 L 852.792236328125 498.3632507324219 L 844.1575317382812 498.19232177734375 L 835.6688842773438 497.9530029296875 L 827.326416015625 497.64532470703125 L 819.1300659179688 497.2692565917969 L 811.0797729492188 496.8248291015625 L 803.1756591796875 496.31201171875 L 795.4176025390625 495.7308349609375 L 787.8057250976562 495.0812683105469 L 780.3399047851562 494.3633117675781 L 773.0202026367188 493.5770263671875 L 765.8466186523438 492.7223205566406 L 758.8191528320312 491.7992858886719 L 751.9378051757812 490.8078308105469 L 745.2025756835938 489.748046875 L 738.6134643554688 488.6198425292969 L 732.1704711914062 487.42327880859375 L 725.8735961914062 486.1583557128906 L 719.7228393554688 484.8250427246094 L 713.7181396484375 483.4233703613281 L 707.859619140625 481.95330810546875 L 702.1471557617188 480.4148864746094 L 696.5808715820312 478.8080749511719 L 691.16064453125 477.1329040527344 L 685.8865356445312 475.38934326171875 L 680.7586059570312 473.5774230957031 L 675.7767333984375 471.6971130371094 L 670.9409790039062 469.7484436035156 L 666.2513427734375 467.73138427734375 L 661.7078247070312 465.64593505859375 L 657.3104248046875 463.4921569824219 L 653.05908203125 461.26995849609375 L 648.9539184570312 458.9794006347656 L 644.994873046875 456.6204833984375 L 641.1819458007812 454.19317626953125 L 637.5150756835938 451.697509765625 L 633.994384765625 449.1334533691406 L 630.6197509765625 446.50103759765625 L 627.3912963867188 443.80023193359375 L 624.3088989257812 441.0310363769531 L 621.3726196289062 438.1935119628906 L 618.5824584960938 435.2875671386719 L 615.9384155273438 432.3132629394531 L 613.4404907226562 429.2705993652344 L 611.0886840820312 426.1595458984375 L 608.8829956054688 422.9801330566406 L 606.8234252929688 419.7323303222656 L 604.9099731445312 416.4161376953125 L 603.1426391601562 413.0316162109375 L 601.5213623046875 409.57867431640625 L 600.0462646484375 406.057373046875 L 598.7172241210938 402.46771240234375 L 597.5343627929688 398.8096618652344 L 596.49755859375 395.0832214355469 L 595.6068725585938 391.2884521484375 L 594.8623046875 387.4252624511719 L 594.263916015625 383.49371337890625 L 593.8115844726562 379.4938049316406 L 593.50537109375 375.4255065917969 L 593.3452758789062 371.288818359375 L 593.3312377929688 367.08380126953125 L 593.46337890625 362.81036376953125 L 593.7416381835938 358.46856689453125 L 594.166015625 354.05841064453125 L 594.7364501953125 349.5798645019531 L 595.4530639648438 345.032958984375 L 596.3157348632812 340.41766357421875 L 597.3245849609375 335.7339782714844 L 598.4794921875 330.98193359375 L 599.780517578125 326.1615295410156 L 601.2277221679688 321.2727355957031 L 602.8209838867188 316.3155517578125 L 604.5603637695312 311.2900085449219 L 606.4458618164062 306.19610595703125 L 608.4774780273438 301.0338134765625 L 610.6552124023438 295.80316162109375 L 612.97900390625 290.5041198730469 L 615.448974609375 285.1366882324219 L 618.0650634765625 279.7008972167969 L 620.8272705078125 274.19671630859375 L 623.7355346679688 268.62420654296875 L 626.7899780273438 262.9832763671875 L 629.990478515625 257.27398681640625 L 633.3370971679688 251.49632263183594 L 636.8298950195312 245.65028381347656 L 640.46875 239.73587036132812 L 644.2537231445312 233.75308227539062 L 648.184814453125 227.70191955566406 L 652.2620239257812 221.5823974609375 L 656.4853515625 215.3944854736328 L 660.8547973632812 209.13819885253906 L 665.370361328125 202.81353759765625 L 670.0320434570312 196.42050170898438 L 674.8397827148438 189.95907592773438 L 679.793701171875 183.42930603027344 L 684.8937377929688 176.8311309814453 L 690.1398315429688 170.16461181640625 L 695.5320434570312 163.42970275878906" stroke-opacity="0.800000011920929" stroke-linejoin="bevel" stroke-miterlimit="10" stroke-width="3.880000114440918" stroke-dasharray="2,4" clip-path="url(#pssePDoQPrVs)"/><path fill="none" stroke="rgb(200,23,28)" paint-order="fill" d="M 701.0704345703125 156.62640380859375 L 695.5320434570312 163.42970275878906 L 690.1398315429688 170.16461181640625 L 684.8937377929688 176.8311309814453 L 679.793701171875 183.42930603027344 L 674.8397827148438 189.95907592773438 L 670.0320434570312 196.42050170898438 L 665.370361328125 202.81353759765625 L 660.8547973632812 209.13819885253906 L 656.4853515625 215.3944854736328 L 652.2620239257812 221.5823974609375 L 648.184814453125 227.70191955566406 L 644.2537231445312 233.75308227539062 L 640.46875 239.73587036132812 L 636.8298950195312 245.65028381347656 L 633.3370971679688 251.49632263183594 L 629.990478515625 257.27398681640625 L 626.7899780273438 262.9832763671875 L 623.7355346679688 268.62420654296875 L 620.8272705078125 274.19671630859375 L 618.0650634765625 279.7008972167969 L 615.448974609375 285.1366882324219 L 612.97900390625 290.5041198730469 L 610.6552124023438 295.80316162109375 L 608.4774780273438 301.0338134765625 L 606.4458618164062 306.19610595703125 L 604.5603637695312 311.2900085449219 L 602.8209838867188 316.3155517578125 L 601.2277221679688 321.2727355957031 L 599.780517578125 326.1615295410156 L 598.4794921875 330.98193359375 L 597.3245849609375 335.7339782714844 L 596.3157348632812 340.41766357421875 L 595.4530639648438 345.032958984375 L 594.7364501953125 349.5798645019531 L 594.166015625 354.05841064453125 L 593.7416381835938 358.46856689453125 L 593.46337890625 362.81036376953125 L 593.3312377929688 367.08380126953125 L 593.3452758789062 371.288818359375 L 593.50537109375 375.4255065917969 L 593.8115844726562 379.4938049316406 L 594.263916015625 383.49371337890625 L 594.8623046875 387.4252624511719 L 595.6068725585938 391.2884521484375 L 596.49755859375 395.0832214355469 L 597.5343627929688 398.8096618652344 L 598.7172241210938 402.46771240234375 L 600.0462646484375 406.057373046875 L 601.5213623046875 409.57867431640625 L 603.1426391601562 413.0316162109375 L 604.9099731445312 416.4161376953125 L 606.8234252929688 419.7323303222656 L 608.8829956054688 422.9801330566406 L 611.0886840820312 426.1595458984375 L 613.4404907226562 429.2705993652344 L 615.9384155273438 432.3132629394531 L 618.5824584960938 435.2875671386719 L 621.3726196289062 438.1935119628906 L 624.3088989257812 441.0310363769531 L 627.3912963867188 443.80023193359375 L 630.6197509765625 446.50103759765625 L 633.994384765625 449.1334533691406 L 637.5150756835938 451.697509765625 L 641.1819458007812 454.19317626953125 L 644.994873046875 456.6204833984375 L 648.9539184570312 458.9794006347656 L 653.05908203125 461.26995849609375 L 657.3104248046875 463.4921569824219 L 661.7078247070312 465.64593505859375 L 666.2513427734375 467.73138427734375 L 670.9409790039062 469.7484436035156 L 675.7767333984375 471.6971130371094 L 680.7586059570312 473.5774230957031 L 685.8865356445312 475.38934326171875 L 691.16064453125 477.1329040527344 L 696.5808715820312 478.8080749511719 L 702.1471557617188 480.4148864746094 L 707.859619140625 481.95330810546875 L 713.7181396484375 483.4233703613281 L 719.7228393554688 484.8250427246094 L 725.8735961914062 486.1583557128906 L 732.1704711914062 487.42327880859375 L 738.6134643554688 488.6198425292969 L 745.2025756835938 489.748046875 L 751.9378051757812 490.8078308105469 L 758.8191528320312 491.7992858886719 L 765.8466186523438 492.7223205566406 L 773.0202026367188 493.5770263671875 L 780.3399047851562 494.3633117675781 L 787.8057250976562 495.0812683105469 L 795.4176025390625 495.7308349609375 L 803.1756591796875 496.31201171875 L 811.0797729492188 496.8248291015625 L 819.1300659179688 497.2692565917969 L 827.326416015625 497.64532470703125 L 835.6688842773438 497.9530029296875 L 844.1575317382812 498.19232177734375 L 852.792236328125 498.3632507324219 L 861.5730590820312 498.4658203125" stroke-opacity="0.800000011920929" stroke-linejoin="bevel" stroke-miterlimit="10" stroke-width="3.880000114440918" stroke-dasharray="2,4" clip-path="url(#pssePDoQPrVs)"/><path fill="none" stroke="rgb(211,32,32)" paint-order="fill" d="M 320.3656005859375 72.19062042236328 L 322.3482360839844 80.7168197631836 L 324.2908630371094 89.24298858642578 L 326.19342041015625 97.7691879272461 L 328.055908203125 106.29536437988281 L 329.87835693359375 114.82156372070312 L 331.6607666015625 123.34774017333984 L 333.403076171875 131.8739471435547 L 335.1053771972656 140.40011596679688 L 336.7676086425781 148.9263153076172 L 338.3897705078125 157.45248413085938 L 339.9718933105469 165.9786834716797 L 341.51397705078125 174.50486755371094 L 343.0159912109375 183.03106689453125 L 344.47796630859375 191.55723571777344 L 345.8998718261719 200.08343505859375 L 347.2817077636719 208.60960388183594 L 348.6235046386719 217.1358184814453 L 349.9252624511719 225.66201782226562 L 351.18695068359375 234.1881866455078 L 352.4085998535156 242.71438598632812 L 353.5901794433594 251.2405548095703 L 354.7317199707031 259.7667541503906 L 355.83319091796875 268.2929382324219 L 356.8946228027344 276.8191223144531 L 357.9159851074219 285.3453063964844 L 358.8973083496094 293.8714904785156 L 359.83856201171875 302.3976745605469 L 360.7397766113281 310.9238586425781 L 361.6009216308594 319.4500427246094 L 362.4220275878906 327.97625732421875 L 363.2030944824219 336.50244140625 L 363.944091796875 345.02862548828125 L 364.64501953125 353.5548095703125 L 365.305908203125 362.08099365234375 L 365.9267578125 370.607177734375 L 366.50750732421875 379.1333923339844 L 367.0482482910156 387.6595764160156 L 367.5489196777344 396.1857604980469 L 368.0095520019531 404.7119445800781 L 368.43011474609375 413.2381286621094 L 368.81060791015625 421.7643127441406 L 369.15106201171875 430.2904968261719 L 369.45147705078125 438.8166809082031 L 369.7118225097656 447.3428649902344 L 369.93212890625 455.8690490722656 L 370.11236572265625 464.3952331542969 L 370.2525329589844 472.92144775390625 L 370.3526916503906 481.4476318359375 L 370.4127502441406 489.97381591796875 L 370.43280029296875 498.5 L 370.4127502441406 507.02618408203125 L 370.3526916503906 515.5523681640625 L 370.2525329589844 524.0785522460938 L 370.11236572265625 532.604736328125 L 369.9320983886719 541.1309204101562 L 369.7118225097656 549.6571044921875 L 369.45147705078125 558.1832885742188 L 369.15106201171875 566.70947265625 L 368.81060791015625 575.2356567382812 L 368.4300842285156 583.7618408203125 L 368.009521484375 592.2880859375 L 367.5489196777344 600.8142700195312 L 367.0482482910156 609.3404541015625 L 366.50750732421875 617.8666381835938 L 365.9267272949219 626.392822265625 L 365.305908203125 634.9190063476562 L 364.64501953125 643.4451904296875 L 363.9440612792969 651.9713745117188 L 363.20306396484375 660.49755859375 L 362.4220275878906 669.0237426757812 L 361.6009216308594 677.5499267578125 L 360.7397766113281 686.0761108398438 L 359.83856201171875 694.602294921875 L 358.8973083496094 703.1284790039062 L 357.9159851074219 711.6546630859375 L 356.89459228515625 720.1808471679688 L 355.83319091796875 728.7070922851562 L 354.731689453125 737.2332153320312 L 353.5901794433594 745.7594604492188 L 352.4085693359375 754.2855834960938 L 351.18695068359375 762.8118286132812 L 349.92523193359375 771.3380126953125 L 348.6235046386719 779.8641967773438 L 347.2817077636719 788.390380859375 L 345.89984130859375 796.9165649414062 L 344.4779357910156 805.4427490234375 L 343.0159606933594 813.9689331054688 L 341.5139465332031 822.4951171875 L 339.9718933105469 831.0213012695312 L 338.3897705078125 839.5474853515625 L 336.767578125 848.0736694335938 L 335.1053466796875 856.599853515625 L 333.403076171875 865.1260375976562 L 331.6607360839844 873.6522216796875 L 329.8783264160156 882.1784057617188 L 328.0558776855469 890.70458984375 L 326.1933898925781 899.2308349609375 L 324.29083251953125 907.7569580078125 L 322.3482360839844 916.283203125" stroke-opacity="0.800000011920929" stroke-linejoin="bevel" stroke-miterlimit="10" stroke-width="3.680000066757202" stroke-dasharray="2,4" clip-path="url(#pssePDoQPrVs)"/><path fill="none" stroke="rgb(207,28,31)" paint-order="fill" d="M 15.064044952392578 688.2255249023438 L 23.12220573425293 684.4926147460938 L 31.079246520996094 680.8829345703125 L 38.93519592285156 677.3964233398438 L 46.689998626708984 674.0331420898438 L 54.34370803833008 670.7930908203125 L 61.896297454833984 667.6762084960938 L 69.34777069091797 664.6824951171875 L 76.69815063476562 661.8120727539062 L 83.94738006591797 659.0648193359375 L 91.09552001953125 656.4407958984375 L 98.14254760742188 653.93994140625 L 105.08844757080078 651.5623168945312 L 111.93325805664062 649.307861328125 L 118.67691802978516 647.1766357421875 L 125.31948852539062 645.1686401367188 L 131.86094665527344 643.2838745117188 L 138.30126953125 641.5222778320312 L 144.64051818847656 639.8838500976562 L 150.8786163330078 638.36865234375 L 157.01560974121094 636.9766845703125 L 163.05149841308594 635.7079467773438 L 168.9862518310547 634.5623779296875 L 174.8199005126953 633.5400390625 L 180.5524444580078 632.640869140625 L 186.18385314941406 631.8649291992188 L 191.71417236328125 631.2122192382812 L 197.14337158203125 630.6826782226562 L 202.47146606445312 630.2763671875 L 207.69842529296875 629.9932861328125 L 212.82427978515625 629.8333740234375 L 217.84902954101562 629.796630859375 L 222.77264404296875 629.8831787109375 L 227.59515380859375 630.0928955078125 L 232.31654357910156 630.42578125 L 236.9368438720703 630.8819580078125 L 241.4560089111328 631.4612426757812 L 245.87405395507812 632.163818359375 L 250.19100952148438 632.9895629882812 L 254.40682983398438 633.9385375976562 L 258.52154541015625 635.0106811523438 L 262.53515625 636.2060546875 L 266.4476318359375 637.524658203125 L 270.2590026855469 638.9664306640625 L 273.9692687988281 640.5314331054688 L 277.5783996582031 642.2196044921875 L 281.08642578125 644.031005859375 L 284.49334716796875 645.9656372070312 L 287.79913330078125 648.0234375 L 291.00384521484375 650.2044677734375 L 294.1073913574219 652.5087280273438 L 297.10986328125 654.9361572265625 L 300.0111999511719 657.48681640625 L 302.8114318847656 660.16064453125 L 305.51055908203125 662.9577026367188 L 308.1085510253906 665.8779907226562 L 310.6054382324219 668.9215087890625 L 313.001220703125 672.088134765625 L 315.2958679199219 675.3780517578125 L 317.4894104003906 678.7911376953125 L 319.58184814453125 682.3274536132812 L 321.5731506347656 685.9869384765625 L 323.46337890625 689.7697143554688 L 325.2524719238281 693.6755981445312 L 326.9404296875 697.7047729492188 L 328.52728271484375 701.8571166992188 L 330.0130310058594 706.1326293945312 L 331.3976745605469 710.5313720703125 L 332.6811828613281 715.0533447265625 L 333.86358642578125 719.698486328125 L 334.94488525390625 724.4668579101562 L 335.9250793457031 729.3584594726562 L 336.80413818359375 734.373291015625 L 337.5820617675781 739.51123046875 L 338.2589111328125 744.7724609375 L 338.8346252441406 750.1568603515625 L 339.3092346191406 755.6644897460938 L 339.6827392578125 761.2952880859375 L 339.9551086425781 767.04931640625 L 340.1263732910156 772.9265747070312 L 340.196533203125 778.927001953125 L 340.1655578613281 785.0506591796875 L 340.0334777832031 791.2975463867188 L 339.80029296875 797.6676025390625 L 339.4659729003906 804.1608276367188 L 339.0305480957031 810.77734375 L 338.4940185546875 817.5170288085938 L 337.85638427734375 824.3799438476562 L 337.11761474609375 831.3660278320312 L 336.2777404785156 838.475341796875 L 335.33673095703125 845.7078247070312 L 334.2946472167969 853.0635375976562 L 333.15142822265625 860.54248046875 L 331.9070739746094 868.1446533203125 L 330.5616455078125 875.8699951171875 L 329.1150817871094 883.718505859375 L 327.5674133300781 891.6902465820312 L 325.9186096191406 899.7852172851562 L 324.168701171875 908.00341796875 L 322.31768798828125 916.3447875976562" stroke-opacity="0.800000011920929" stroke-linejoin="bevel" stroke-miterlimit="10" stroke-width="3.759999990463257" stroke-dasharray="2,4" clip-path="url(#pssePDoQPrVs)"/><path fill="none" stroke="rgb(213,34,33)" paint-order="fill" d="M 320.3655700683594 924.809326171875 L 322.38629150390625 916.3599853515625 L 324.443115234375 908.0642700195312 L 326.5360107421875 899.9221801757812 L 328.6650085449219 891.9337158203125 L 330.830078125 884.098876953125 L 333.03125 876.417724609375 L 335.2685241699219 868.89013671875 L 337.5418701171875 861.5162353515625 L 339.8512878417969 854.2959594726562 L 342.1968078613281 847.2293090820312 L 344.5783996582031 840.3163452148438 L 346.99609375 833.5569458007812 L 349.44989013671875 826.9512329101562 L 351.93975830078125 820.4991455078125 L 354.4656982421875 814.20068359375 L 357.0277404785156 808.0558471679688 L 359.6258544921875 802.064697265625 L 362.26007080078125 796.2271118164062 L 364.9303894042969 790.543212890625 L 367.63677978515625 785.012939453125 L 370.3792419433594 779.6362915039062 L 373.1578063964844 774.4132690429688 L 375.97247314453125 769.3439331054688 L 378.8232116699219 764.42822265625 L 381.71002197265625 759.6661376953125 L 384.6329345703125 755.0576782226562 L 387.5919494628906 750.6028442382812 L 390.5870361328125 746.3016357421875 L 393.6181945800781 742.1541137695312 L 396.6854553222656 738.1602172851562 L 399.788818359375 734.3199462890625 L 402.9282531738281 730.63330078125 L 406.103759765625 727.1002807617188 L 409.31536865234375 723.720947265625 L 412.5630798339844 720.4952392578125 L 415.84686279296875 717.4231567382812 L 419.1667175292969 714.5046997070312 L 422.5226745605469 711.7398681640625 L 425.91473388671875 709.1287231445312 L 429.3428649902344 706.671142578125 L 432.80706787109375 704.3672485351562 L 436.307373046875 702.2169799804688 L 439.8437805175781 700.2203369140625 L 443.416259765625 698.3773803710938 L 447.02484130859375 696.68798828125 L 450.66949462890625 695.1522827148438 L 454.3502197265625 693.7702026367188 L 458.0670471191406 692.541748046875 L 461.8199768066406 691.4669189453125 L 465.6089782714844 690.5457153320312 L 469.43408203125 689.7781982421875 L 473.2952575683594 689.164306640625 L 477.1925048828125 688.7040405273438 L 481.1258850097656 688.3973999023438 L 485.0953063964844 688.2444458007812 L 489.100830078125 688.2450561523438 L 493.1424560546875 688.3993530273438 L 497.22015380859375 688.707275390625 L 501.3339538574219 689.1688232421875 L 505.48382568359375 689.7839965820312 L 509.6697692871094 690.5528564453125 L 513.891845703125 691.4752807617188 L 518.1499633789062 692.5513916015625 L 522.4442138671875 693.7811279296875 L 526.7745361328125 695.1644897460938 L 531.1409301757812 696.7015380859375 L 535.5433959960938 698.3921508789062 L 539.9819946289062 700.2364501953125 L 544.4566040039062 702.234375 L 548.9674072265625 704.3859252929688 L 553.5142211914062 706.6911010742188 L 558.0971069335938 709.1499633789062 L 562.7161254882812 711.7623901367188 L 567.3712158203125 714.5285034179688 L 572.0624389648438 717.4482421875 L 576.7896728515625 720.5216064453125 L 581.5530395507812 723.7486572265625 L 586.3524780273438 727.1292724609375 L 591.1880493164062 730.66357421875 L 596.0596313476562 734.3515014648438 L 600.9673461914062 738.1930541992188 L 605.9111328125 742.188232421875 L 610.8910522460938 746.3370971679688 L 615.906982421875 750.6395874023438 L 620.9590454101562 755.0956420898438 L 626.0471801757812 759.7053833007812 L 631.1714477539062 764.46875 L 636.3317260742188 769.3858032226562 L 641.5281372070312 774.4564819335938 L 646.7606201171875 779.6807250976562 L 652.0292358398438 785.0586547851562 L 657.3338623046875 790.5902099609375 L 662.6746215820312 796.2754516601562 L 668.0514526367188 802.1142578125 L 673.4644165039062 808.1067504882812 L 678.9134521484375 814.2528686523438 L 684.3984985351562 820.5525512695312 L 689.9197387695312 827.0059814453125 L 695.4769897460938 833.6129760742188" stroke-opacity="0.800000011920929" stroke-linejoin="bevel" stroke-miterlimit="10" stroke-width="3.640000104904175" stroke-dasharray="2,4" clip-path="url(#pssePDoQPrVs)"/><path fill="none" stroke="rgb(207,28,31)" paint-order="fill" d="M 320.3655700683594 924.809326171875 L 322.31768798828125 916.3447875976562 L 324.168701171875 908.00341796875 L 325.9186096191406 899.7852172851562 L 327.5674133300781 891.6902465820312 L 329.1150817871094 883.718505859375 L 330.5616455078125 875.8699951171875 L 331.9070739746094 868.1446533203125 L 333.15142822265625 860.54248046875 L 334.2946472167969 853.0635375976562 L 335.33673095703125 845.7078247070312 L 336.2777404785156 838.475341796875 L 337.11761474609375 831.3660278320312 L 337.85638427734375 824.3799438476562 L 338.4940185546875 817.5170288085938 L 339.0305480957031 810.77734375 L 339.4659729003906 804.1608276367188 L 339.80029296875 797.6676025390625 L 340.0334777832031 791.2975463867188 L 340.1655578613281 785.0506591796875 L 340.196533203125 778.927001953125 L 340.1263732910156 772.9265747070312 L 339.9551086425781 767.04931640625 L 339.6827392578125 761.2952880859375 L 339.3092346191406 755.6644897460938 L 338.8346252441406 750.1568603515625 L 338.2589111328125 744.7724609375 L 337.5820617675781 739.51123046875 L 336.80413818359375 734.373291015625 L 335.9250793457031 729.3584594726562 L 334.94488525390625 724.4668579101562 L 333.86358642578125 719.698486328125 L 332.6811828613281 715.0533447265625 L 331.3976745605469 710.5313720703125 L 330.0130310058594 706.1326293945312 L 328.52728271484375 701.8571166992188 L 326.9404296875 697.7047729492188 L 325.2524719238281 693.6755981445312 L 323.46337890625 689.7697143554688 L 321.5731506347656 685.9869384765625 L 319.58184814453125 682.3274536132812 L 317.4894104003906 678.7911376953125 L 315.2958679199219 675.3780517578125 L 313.001220703125 672.088134765625 L 310.6054382324219 668.9215087890625 L 308.1085510253906 665.8779907226562 L 305.51055908203125 662.9577026367188 L 302.8114318847656 660.16064453125 L 300.0111999511719 657.48681640625 L 297.10986328125 654.9361572265625 L 294.1073913574219 652.5087280273438 L 291.00384521484375 650.2044677734375 L 287.79913330078125 648.0234375 L 284.49334716796875 645.9656372070312 L 281.08642578125 644.031005859375 L 277.5783996582031 642.2196044921875 L 273.9692687988281 640.5314331054688 L 270.2590026855469 638.9664306640625 L 266.4476318359375 637.524658203125 L 262.53515625 636.2060546875 L 258.52154541015625 635.0106811523438 L 254.40682983398438 633.9385375976562 L 250.19100952148438 632.9895629882812 L 245.87405395507812 632.163818359375 L 241.4560089111328 631.4612426757812 L 236.9368438720703 630.8819580078125 L 232.31654357910156 630.42578125 L 227.59515380859375 630.0928955078125 L 222.77264404296875 629.8831787109375 L 217.84902954101562 629.796630859375 L 212.82427978515625 629.8333740234375 L 207.69842529296875 629.9932861328125 L 202.47146606445312 630.2763671875 L 197.14337158203125 630.6826782226562 L 191.71417236328125 631.2122192382812 L 186.18385314941406 631.8649291992188 L 180.5524444580078 632.640869140625 L 174.8199005126953 633.5400390625 L 168.9862518310547 634.5623779296875 L 163.05149841308594 635.7079467773438 L 157.01560974121094 636.9766845703125 L 150.8786163330078 638.36865234375 L 144.64051818847656 639.8838500976562 L 138.30126953125 641.5222778320312 L 131.86094665527344 643.2838745117188 L 125.31948852539062 645.1686401367188 L 118.67691802978516 647.1766357421875 L 111.93325805664062 649.307861328125 L 105.08844757080078 651.5623168945312 L 98.14254760742188 653.93994140625 L 91.09552001953125 656.4407958984375 L 83.94738006591797 659.0648193359375 L 76.69815063476562 661.8120727539062 L 69.34777069091797 664.6824951171875 L 61.896297454833984 667.6762084960938 L 54.34370803833008 670.7930908203125 L 46.689998626708984 674.0331420898438 L 38.93519592285156 677.3964233398438 L 31.079246520996094 680.8829345703125 L 23.12220573425293 684.4926147460938" stroke-opacity="0.800000011920929" stroke-linejoin="bevel" stroke-miterlimit="10" stroke-width="3.759999990463257" stroke-dasharray="2,4" clip-path="url(#pssePDoQPrVs)"/><path fill="none" stroke="rgb(211,32,32)" paint-order="fill" d="M 320.3655700683594 924.809326171875 L 322.3482360839844 916.283203125 L 324.29083251953125 907.7569580078125 L 326.1933898925781 899.2308349609375 L 328.0558776855469 890.70458984375 L 329.8783264160156 882.1784057617188 L 331.6607360839844 873.6522216796875 L 333.403076171875 865.1260375976562 L 335.1053466796875 856.599853515625 L 336.767578125 848.0736694335938 L 338.3897705078125 839.5474853515625 L 339.9718933105469 831.0213012695312 L 341.5139465332031 822.4951171875 L 343.0159606933594 813.9689331054688 L 344.4779357910156 805.4427490234375 L 345.89984130859375 796.9165649414062 L 347.2817077636719 788.390380859375 L 348.6235046386719 779.8641967773438 L 349.92523193359375 771.3380126953125 L 351.18695068359375 762.8118286132812 L 352.4085693359375 754.2855834960938 L 353.5901794433594 745.7594604492188 L 354.731689453125 737.2332153320312 L 355.83319091796875 728.7070922851562 L 356.89459228515625 720.1808471679688 L 357.9159851074219 711.6546630859375 L 358.8973083496094 703.1284790039062 L 359.83856201171875 694.602294921875 L 360.7397766113281 686.0761108398438 L 361.6009216308594 677.5499267578125 L 362.4220275878906 669.0237426757812 L 363.20306396484375 660.49755859375 L 363.9440612792969 651.9713745117188 L 364.64501953125 643.4451904296875 L 365.305908203125 634.9190063476562 L 365.9267272949219 626.392822265625 L 366.50750732421875 617.8666381835938 L 367.0482482910156 609.3404541015625 L 367.5489196777344 600.8142700195312 L 368.009521484375 592.2880859375 L 368.4300842285156 583.7618408203125 L 368.81060791015625 575.2356567382812 L 369.15106201171875 566.70947265625 L 369.45147705078125 558.1832885742188 L 369.7118225097656 549.6571044921875 L 369.9320983886719 541.1309204101562 L 370.11236572265625 532.604736328125 L 370.2525329589844 524.0785522460938 L 370.3526916503906 515.5523681640625 L 370.4127502441406 507.02618408203125 L 370.43280029296875 498.5 L 370.4127502441406 489.97381591796875 L 370.3526916503906 481.4476318359375 L 370.2525329589844 472.92144775390625 L 370.11236572265625 464.3952331542969 L 369.93212890625 455.8690490722656 L 369.7118225097656 447.3428649902344 L 369.45147705078125 438.8166809082031 L 369.15106201171875 430.2904968261719 L 368.81060791015625 421.7643127441406 L 368.43011474609375 413.2381286621094 L 368.0095520019531 404.7119445800781 L 367.5489196777344 396.1857604980469 L 367.0482482910156 387.6595764160156 L 366.50750732421875 379.1333923339844 L 365.9267578125 370.607177734375 L 365.305908203125 362.08099365234375 L 364.64501953125 353.5548095703125 L 363.944091796875 345.02862548828125 L 363.2030944824219 336.50244140625 L 362.4220275878906 327.97625732421875 L 361.6009216308594 319.4500427246094 L 360.7397766113281 310.9238586425781 L 359.83856201171875 302.3976745605469 L 358.8973083496094 293.8714904785156 L 357.9159851074219 285.3453063964844 L 356.8946228027344 276.8191223144531 L 355.83319091796875 268.2929382324219 L 354.7317199707031 259.7667541503906 L 353.5901794433594 251.2405548095703 L 352.4085998535156 242.71438598632812 L 351.18695068359375 234.1881866455078 L 349.9252624511719 225.66201782226562 L 348.6235046386719 217.1358184814453 L 347.2817077636719 208.60960388183594 L 345.8998718261719 200.08343505859375 L 344.47796630859375 191.55723571777344 L 343.0159912109375 183.03106689453125 L 341.51397705078125 174.50486755371094 L 339.9718933105469 165.9786834716797 L 338.3897705078125 157.45248413085938 L 336.7676086425781 148.9263153076172 L 335.1053771972656 140.40011596679688 L 333.403076171875 131.8739471435547 L 331.6607666015625 123.34774017333984 L 329.87835693359375 114.82156372070312 L 328.055908203125 106.29536437988281 L 326.19342041015625 97.7691879272461 L 324.2908630371094 89.24298858642578 L 322.3482360839844 80.7168197631836" stroke-opacity="0.800000011920929" stroke-linejoin="bevel" stroke-miterlimit="10" stroke-width="3.680000066757202" stroke-dasharray="2,4" clip-path="url(#pssePDoQPrVs)"/><path fill="none" stroke="rgb(213,34,33)" paint-order="fill" d="M 701.0703735351562 840.3736572265625 L 695.4464721679688 833.5892944335938 L 689.797607421875 826.9113159179688 L 684.123779296875 820.3396606445312 L 678.4249267578125 813.8743286132812 L 672.701171875 807.5152587890625 L 666.952392578125 801.2625732421875 L 661.1786499023438 795.1161499023438 L 655.3799438476562 789.0761108398438 L 649.5562744140625 783.142333984375 L 643.7076416015625 777.3148803710938 L 637.833984375 771.59375 L 631.9354248046875 765.97900390625 L 626.0118408203125 760.4705200195312 L 620.0632934570312 755.068359375 L 614.0897827148438 749.7725219726562 L 608.09130859375 744.5830078125 L 602.0678100585938 739.4998168945312 L 596.0194091796875 734.52294921875 L 589.9459838867188 729.6524047851562 L 583.8475952148438 724.8881225585938 L 577.7242431640625 720.230224609375 L 571.575927734375 715.6786499023438 L 565.402587890625 711.2333374023438 L 559.204345703125 706.8944091796875 L 552.9810791015625 702.6617431640625 L 546.7328491210938 698.5354614257812 L 540.4596557617188 694.5154418945312 L 534.1614990234375 690.6017456054688 L 527.83837890625 686.79443359375 L 521.490234375 683.0933837890625 L 515.1171264648438 679.4986572265625 L 508.7190856933594 676.01025390625 L 502.2960510253906 672.628173828125 L 495.8480529785156 669.3524169921875 L 489.37506103515625 666.1829833984375 L 482.8771057128906 663.119873046875 L 476.35418701171875 660.1630859375 L 469.8063049316406 657.3125610351562 L 463.2334289550781 654.5684204101562 L 456.6355895996094 651.9306030273438 L 450.01275634765625 649.3990478515625 L 443.3649597167969 646.973876953125 L 436.69219970703125 644.6549682617188 L 429.9944763183594 642.4424438476562 L 423.2717590332031 640.336181640625 L 416.5240783691406 638.3362426757812 L 409.75140380859375 636.4426879882812 L 402.9537658691406 634.6553955078125 L 396.13116455078125 632.9744262695312 L 389.2835998535156 631.3997802734375 L 382.4110412597656 629.9314575195312 L 375.5135192871094 628.5694580078125 L 368.5910339355469 627.3137817382812 L 361.6435546875 626.1644287109375 L 354.6711120605469 625.1213989257812 L 347.6737060546875 624.1846313476562 L 340.65130615234375 623.354248046875 L 333.60394287109375 622.6301879882812 L 326.5316162109375 622.0123901367188 L 319.4342956542969 621.5009765625 L 312.3120422363281 621.0958251953125 L 305.1647644042969 620.7970581054688 L 297.9925537109375 620.6045532226562 L 290.79534912109375 620.5183715820312 L 283.57318115234375 620.53857421875 L 276.3260498046875 620.6650390625 L 269.0539245605469 620.8978271484375 L 261.7568054199219 621.2369384765625 L 254.43475341796875 621.682373046875 L 247.0877227783203 622.234130859375 L 239.71571350097656 622.8922119140625 L 232.31871032714844 623.6566162109375 L 224.89675903320312 624.52734375 L 217.4498291015625 625.5043334960938 L 209.97792053222656 626.5877075195312 L 202.4810333251953 627.7774047851562 L 194.9591827392578 629.0733642578125 L 187.41236877441406 630.4757080078125 L 179.84056091308594 631.9843139648438 L 172.24380493164062 633.5993041992188 L 164.62205505371094 635.320556640625 L 156.97535705566406 637.1481323242188 L 149.30364990234375 639.0820922851562 L 141.60699462890625 641.122314453125 L 133.88534545898438 643.2688598632812 L 126.13874816894531 645.521728515625 L 118.36714935302734 647.8809204101562 L 110.57061767578125 650.346435546875 L 102.74907684326172 652.9182739257812 L 94.90257263183594 655.596435546875 L 87.03108978271484 658.380859375 L 79.1346435546875 661.2716674804688 L 71.21321868896484 664.268798828125 L 63.26682662963867 667.3721923828125 L 55.29546356201172 670.5819702148438 L 47.29912567138672 673.8980712890625 L 39.2778205871582 677.3204345703125 L 31.231542587280273 680.84912109375 L 23.16026496887207 684.4841918945312" stroke-opacity="0.800000011920929" stroke-linejoin="bevel" stroke-miterlimit="10" stroke-width="3.640000104904175" stroke-dasharray="2,4" clip-path="url(#pssePDoQPrVs)"/><path fill="none" stroke="rgb(216,36,34)" paint-order="fill" d="M 701.0703735351562 840.3736572265625 L 695.4769897460938 833.6129760742188 L 689.9197387695312 827.0059814453125 L 684.3984985351562 820.5525512695312 L 678.9134521484375 814.2528686523438 L 673.4644165039062 808.1067504882812 L 668.0514526367188 802.1142578125 L 662.6746215820312 796.2754516601562 L 657.3338623046875 790.5902099609375 L 652.0292358398438 785.0586547851562 L 646.7606201171875 779.6807250976562 L 641.5281372070312 774.4564819335938 L 636.3317260742188 769.3858032226562 L 631.1714477539062 764.46875 L 626.0471801757812 759.7053833007812 L 620.9590454101562 755.0956420898438 L 615.906982421875 750.6395874023438 L 610.8910522460938 746.3370971679688 L 605.9111328125 742.188232421875 L 600.9673461914062 738.1930541992188 L 596.0596313476562 734.3515014648438 L 591.1880493164062 730.66357421875 L 586.3524780273438 727.1292724609375 L 581.5530395507812 723.7486572265625 L 576.7896728515625 720.5216064453125 L 572.0624389648438 717.4482421875 L 567.3712158203125 714.5285034179688 L 562.7161254882812 711.7623901367188 L 558.0971069335938 709.1499633789062 L 553.5142211914062 706.6911010742188 L 548.9674072265625 704.3859252929688 L 544.4566040039062 702.234375 L 539.9819946289062 700.2364501953125 L 535.5433959960938 698.3921508789062 L 531.1409301757812 696.7015380859375 L 526.7745361328125 695.1644897460938 L 522.4442138671875 693.7811279296875 L 518.1499633789062 692.5513916015625 L 513.891845703125 691.4752807617188 L 509.6697692871094 690.5528564453125 L 505.48382568359375 689.7839965820312 L 501.3339538574219 689.1688232421875 L 497.22015380859375 688.707275390625 L 493.1424560546875 688.3993530273438 L 489.100830078125 688.2450561523438 L 485.0953063964844 688.2444458007812 L 481.1258850097656 688.3973999023438 L 477.1925048828125 688.7040405273438 L 473.2952575683594 689.164306640625 L 469.43408203125 689.7781982421875 L 465.6089782714844 690.5457153320312 L 461.8199768066406 691.4669189453125 L 458.0670471191406 692.541748046875 L 454.3502197265625 693.7702026367188 L 450.66949462890625 695.1522827148438 L 447.02484130859375 696.68798828125 L 443.416259765625 698.3773803710938 L 439.8437805175781 700.2203369140625 L 436.307373046875 702.2169799804688 L 432.80706787109375 704.3672485351562 L 429.3428649902344 706.671142578125 L 425.91473388671875 709.1287231445312 L 422.5226745605469 711.7398681640625 L 419.1667175292969 714.5046997070312 L 415.84686279296875 717.4231567382812 L 412.5630798339844 720.4952392578125 L 409.31536865234375 723.720947265625 L 406.103759765625 727.1002807617188 L 402.9282531738281 730.63330078125 L 399.788818359375 734.3199462890625 L 396.6854553222656 738.1602172851562 L 393.6181945800781 742.1541137695312 L 390.5870361328125 746.3016357421875 L 387.5919494628906 750.6028442382812 L 384.6329345703125 755.0576782226562 L 381.71002197265625 759.6661376953125 L 378.8232116699219 764.42822265625 L 375.97247314453125 769.3439331054688 L 373.1578063964844 774.4132690429688 L 370.3792419433594 779.6362915039062 L 367.63677978515625 785.012939453125 L 364.9303894042969 790.543212890625 L 362.26007080078125 796.2271118164062 L 359.6258544921875 802.064697265625 L 357.0277404785156 808.0558471679688 L 354.4656982421875 814.20068359375 L 351.93975830078125 820.4991455078125 L 349.44989013671875 826.9512329101562 L 346.99609375 833.5569458007812 L 344.5783996582031 840.3163452148438 L 342.1968078613281 847.2293090820312 L 339.8512878417969 854.2959594726562 L 337.5418701171875 861.5162353515625 L 335.2685241699219 868.89013671875 L 333.03125 876.417724609375 L 330.830078125 884.098876953125 L 328.6650085449219 891.9337158203125 L 326.5360107421875 899.9221801757812 L 324.443115234375 908.0642700195312 L 322.38629150390625 916.3599853515625" stroke-opacity="0.800000011920929" stroke-linejoin="bevel" stroke-miterlimit="10" stroke-width="3.5999999046325684" stroke-dasharray="2,4" clip-path="url(#pssePDoQPrVs)"/><path fill="none" stroke="none"/><path fill="rgb(226,0,39)" stroke="rgb(0,0,0)" paint-order="fill" d="M 878 498.5 A 7.5 7.5 0 1 1 877.9999962500003 498.49250000125" fill-opacity="1" clip-path="url(#pssePDoQPrVs)" stroke-opacity="1" stroke-linejoin="bevel" stroke-miterlimit="10" stroke-dasharray=""/><path fill="rgb(91,17,60)" stroke="rgb(0,0,0)" paint-order="fill" d="M 708.5704345703125 156.62640380859375 A 7.5 7.5 0 1 1 708.5704308203128 156.61890380984374" fill-opacity="1" clip-path="url(#pssePDoQPrVs)" stroke-opacity="1" stroke-linejoin="bevel" stroke-miterlimit="10" stroke-dasharray=""/><path fill="rgb(255,52,255)" stroke="rgb(0,0,0)" paint-order="fill" d="M 327.8656005859375 72.19062042236328 A 7.5 7.5 0 1 1 327.8655968359378 72.18312042361327" fill-opacity="1" clip-path="url(#pssePDoQPrVs)" stroke-opacity="1" stroke-linejoin="bevel" stroke-miterlimit="10" stroke-dasharray=""/><path fill="rgb(0,0,166)" stroke="rgb(0,0,0)" paint-order="fill" d="M 22.564044952392578 308.7744445800781 A 7.5 7.5 0 1 1 22.56404120239289 308.7669445813281" fill-opacity="1" clip-path="url(#pssePDoQPrVs)" stroke-opacity="1" stroke-linejoin="bevel" stroke-miterlimit="10" stroke-dasharray=""/><path fill="rgb(73,75,90)" stroke="rgb(0,0,0)" paint-order="fill" d="M 22.564044952392578 688.2255249023438 A 7.5 7.5 0 1 1 22.56404120239289 688.2180249035938" fill-opacity="1" clip-path="url(#pssePDoQPrVs)" stroke-opacity="1" stroke-linejoin="bevel" stroke-miterlimit="10" stroke-dasharray=""/><path fill="rgb(0,134,237)" stroke="rgb(0,0,0)" paint-order="fill" d="M 327.8655700683594 924.809326171875 A 7.5 7.5 0 1 1 327.8655663183597 924.801826173125" fill-opacity="1" clip-path="url(#pssePDoQPrVs)" stroke-opacity="1" stroke-linejoin="bevel" stroke-miterlimit="10" stroke-dasharray=""/><path fill="rgb(188,101,233)" stroke="rgb(0,0,0)" paint-order="fill" d="M 708.5703735351562 840.3736572265625 A 7.5 7.5 0 1 1 708.5703697851566 840.3661572278126" fill-opacity="1" clip-path="url(#pssePDoQPrVs)" stroke-opacity="1" stroke-linejoin="bevel" stroke-miterlimit="10" stroke-dasharray=""/><path fill="none" stroke="none"/><text fill="rgb(68,68,68)" stroke="none" font-family="helvetica" font-size="12px" font-style="normal" font-weight="normal" text-decoration="normal" x="0" y="0" text-anchor="start" dominant-baseline="text-after-edge" transform="matrix(1, 0, 0, 1, 875.5, 493.5)" fill-opacity="1">Miniopterus fuliginosus</text><path fill="none" stroke="none"/><text fill="rgb(68,68,68)" stroke="none" font-family="helvetica" font-size="12px" font-style="normal" font-weight="normal" text-decoration="normal" x="0" y="0" text-anchor="start" dominant-baseline="text-after-edge" transform="matrix(1, 0, 0, 1, 706.0704345703125, 151.62640380859375)" fill-opacity="1">Miniopterus magnater</text><path fill="none" stroke="none"/><text fill="rgb(68,68,68)" stroke="none" font-family="helvetica" font-size="12px" font-style="normal" font-weight="normal" text-decoration="normal" x="0" y="0" text-anchor="start" dominant-baseline="text-after-edge" transform="matrix(1, 0, 0, 1, 325.3656005859375, 67.19062042236328)" fill-opacity="1">Rhinolophus affinis</text><path fill="none" stroke="none"/><text fill="rgb(68,68,68)" stroke="none" font-family="helvetica" font-size="12px" font-style="normal" font-weight="normal" text-decoration="normal" x="0" y="0" text-anchor="start" dominant-baseline="text-after-edge" transform="matrix(1, 0, 0, 1, 20.064044952392578, 303.7744445800781)" fill-opacity="1">Rhinolophus sinicus</text><path fill="none" stroke="none"/><text fill="rgb(68,68,68)" stroke="none" font-family="helvetica" font-size="12px" font-style="normal" font-weight="normal" text-decoration="normal" x="0" y="0" text-anchor="start" dominant-baseline="text-after-edge" transform="matrix(1, 0, 0, 1, 20.064044952392578, 683.2255249023438)" fill-opacity="1">Rhinolophus macrotis</text><path fill="none" stroke="none"/><text fill="rgb(68,68,68)" stroke="none" font-family="helvetica" font-size="12px" font-style="normal" font-weight="normal" text-decoration="normal" x="0" y="0" text-anchor="start" dominant-baseline="text-after-edge" transform="matrix(1, 0, 0, 1, 325.3655700683594, 919.809326171875)" fill-opacity="1">Rhinolophus blasii</text><path fill="none" stroke="none"/><text fill="rgb(68,68,68)" stroke="none" font-family="helvetica" font-size="12px" font-style="normal" font-weight="normal" text-decoration="normal" x="0" y="0" text-anchor="start" dominant-baseline="text-after-edge" transform="matrix(1, 0, 0, 1, 706.0703735351562, 835.3736572265625)" fill-opacity="1">Rhinolophus pusillus</text><path fill="none" stroke="none"/><text fill="rgb(68,68,68)" stroke="none" font-family="helvetica" font-size="12pt" font-style="normal" font-weight="bold" text-decoration="normal" x="0" y="0" text-anchor="start" dominant-baseline="text-after-edge" transform="matrix(1, 0, 0, 1, 5.5, 28.5)" fill-opacity="1">Sequence similarity network</text></svg>