<svg version="1.1" xmlns="http://www.w3.org/2000/svg" xmlns:xlink="http://www.w3.org/1999/xlink" width="1000" height="1000"><defs><clipPath id="ZPosVgSQFXRR"><path fill="none" stroke="none" d="M 5.5 33.5 L 995.5 33.5 L 995.5 995.5 L 5.5 995.5 L 5.5 33.5"/></clipPath><clipPath id="NRhvGCuckEFL"><path fill="none" stroke="none" d="M 5.5 33.5 L 995.5 33.5 L 995.5 995.5 L 5.5 995.5 L 5.5 33.5"/></clipPath><clipPath id="pqiWSimaEPcV"><path fill="none" stroke="none" d="M 5.5 33.5 L 995.5 33.5 L 995.5 995.5 L 5.5 995.5 L 5.5 33.5"/></clipPath><clipPath id="JLSEOEogKqIb"><path fill="none" stroke="none" d="M 5.5 33.5 L 995.5 33.5 L 995.5 995.5 L 5.5 995.5 L 5.5 33.5"/></clipPath></defs><path fill="rgb(255,255,255)" stroke="none" paint-order="stroke" d="M 0.5 0.5 L 1000.5 0.5 L 1000.5 1000.5 L 0.5 1000.5 L 0.5 0.5" fill-opacity="1"/><rect fill="#FFFFFF" stroke="none" x="5" y="33" width="990" height="962" transform="matrix(1, 0, 0, 1, 0.5, 0.5)"/><path fill="rgb(255,255,255)" stroke="none" paint-order="stroke" d="M 5.5 33.5 L 995.5 33.5 L 995.5 995.5 L 5.5 995.5 L 5.5 33.5" fill-opacity="1"/><path fill="none" stroke="rgb(229,229,229)" paint-order="fill" d="M 5.5 33.5 L 995.5 33.5 L 995.5 995.5 L 5.5 995.5 L 5.5 33.5" stroke-opacity="1" stroke-linejoin="bevel" stroke-miterlimit="10" stroke-dasharray=""/><path fill="none" stroke="none"/><path fill="none" stroke="rgb(56,56,56)" paint-order="fill" d="M 869.5 478.5 L 700.0704345703125 136.62640380859375" stroke-opacity="0.800000011920929" stroke-linejoin="bevel" stroke-miterlimit="10" stroke-width="3.119999885559082" stroke-dasharray="" clip-path="url(#ZPosVgSQFXRR)"/><path fill="none" stroke="rgb(28,28,28)" paint-order="fill" d="M 319.3656005859375 52.190616607666016 L 14.064043998718262 288.7744445800781" stroke-opacity="0.800000011920929" stroke-linejoin="bevel" stroke-miterlimit="10" stroke-width="3.559999942779541" stroke-dasharray="" clip-path="url(#ZPosVgSQFXRR)"/><path fill="none" stroke="rgb(28,28,28)" paint-order="fill" d="M 319.3656005859375 52.190616607666016 L 14.064043998718262 668.2255249023438" stroke-opacity="0.800000011920929" stroke-linejoin="bevel" stroke-miterlimit="10" stroke-width="3.559999942779541" stroke-dasharray="" clip-path="url(#ZPosVgSQFXRR)"/><path fill="none" stroke="rgb(33,33,33)" paint-order="fill" d="M 319.3656005859375 52.190616607666016 L 319.3655700683594 904.809326171875" stroke-opacity="0.800000011920929" stroke-linejoin="bevel" stroke-miterlimit="10" stroke-width="3.4800000190734863" stroke-dasharray="" clip-path="url(#ZPosVgSQFXRR)"/><path fill="none" stroke="rgb(28,28,28)" paint-order="fill" d="M 319.3656005859375 52.190616607666016 L 700.0703735351562 820.3736572265625" stroke-opacity="0.800000011920929" stroke-linejoin="bevel" stroke-miterlimit="10" stroke-width="3.559999942779541" stroke-dasharray="" clip-path="url(#ZPosVgSQFXRR)"/><path fill="none" stroke="rgb(7,7,7)" paint-order="fill" d="M 14.064043998718262 288.7744445800781 L 14.064043998718262 668.2255249023438" stroke-opacity="0.800000011920929" stroke-linejoin="bevel" stroke-miterlimit="10" stroke-width="3.880000114440918" stroke-dasharray="" clip-path="url(#ZPosVgSQFXRR)"/><path fill="none" stroke="rgb(25,25,25)" paint-order="fill" d="M 14.064043998718262 288.7744445800781 L 319.3655700683594 904.809326171875" stroke-opacity="0.800000011920929" stroke-linejoin="bevel" stroke-miterlimit="10" stroke-width="3.5999999046325684" stroke-dasharray="" clip-path="url(#ZPosVgSQFXRR)"/><path fill="none" stroke="rgb(5,5,5)" paint-order="fill" d="M 14.064043998718262 288.7744445800781 L 700.0703735351562 820.3736572265625" stroke-opacity="0.800000011920929" stroke-linejoin="bevel" stroke-miterlimit="10" stroke-width="3.9200000762939453" stroke-dasharray="" clip-path="url(#ZPosVgSQFXRR)"/><path fill="none" stroke="rgb(28,28,28)" paint-order="fill" d="M 14.064043998718262 668.2255249023438 L 319.3655700683594 904.809326171875" stroke-opacity="0.800000011920929" stroke-linejoin="bevel" stroke-miterlimit="10" stroke-width="3.559999942779541" stroke-dasharray="" clip-path="url(#ZPosVgSQFXRR)"/><path fill="none" stroke="rgb(7,7,7)" paint-order="fill" d="M 14.064043998718262 668.2255249023438 L 700.0703735351562 820.3736572265625" stroke-opacity="0.800000011920929" stroke-linejoin="bevel" stroke-miterlimit="10" stroke-width="3.880000114440918" stroke-dasharray="" clip-path="url(#ZPosVgSQFXRR)"/><path fill="none" stroke="rgb(25,25,25)" paint-order="fill" d="M 319.3655700683594 904.809326171875 L 700.0703735351562 820.3736572265625" stroke-opacity="0.800000011920929" stroke-linejoin="bevel" stroke-miterlimit="10" stroke-width="3.5999999046325684" stroke-dasharray="" clip-path="url(#ZPosVgSQFXRR)"/><path fill="none" stroke="none"/><path fill="rgb(226,0,39)" stroke="rgb(0,0,0)" paint-order="fill" d="M 877 478.5 A 7.5 7.5 0 1 1 876.9999962500003 478.49250000125" fill-opacity="1" clip-path="url(#ZPosVgSQFXRR)" stroke-opacity="1" stroke-linejoin="bevel" stroke-miterlimit="10" stroke-dasharray=""/><path fill="rgb(91,17,60)" stroke="rgb(0,0,0)" paint-order="fill" d="M 707.5704345703125 136.62640380859375 A 7.5 7.5 0 1 1 707.5704308203128 136.61890380984374" fill-opacity="1" clip-path="url(#ZPosVgSQFXRR)" stroke-opacity="1" stroke-linejoin="bevel" stroke-miterlimit="10" stroke-dasharray=""/><path fill="rgb(255,52,255)" stroke="rgb(0,0,0)" paint-order="fill" d="M 326.8656005859375 52.190616607666016 A 7.5 7.5 0 1 1 326.8655968359378 52.18311660891601" fill-opacity="1" clip-path="url(#ZPosVgSQFXRR)" stroke-opacity="1" stroke-linejoin="bevel" stroke-miterlimit="10" stroke-dasharray=""/><path fill="rgb(0,0,166)" stroke="rgb(0,0,0)" paint-order="fill" d="M 21.56404399871826 288.7744445800781 A 7.5 7.5 0 1 1 21.564040248718573 288.7669445813281" fill-opacity="1" clip-path="url(#ZPosVgSQFXRR)" stroke-opacity="1" stroke-linejoin="bevel" stroke-miterlimit="10" stroke-dasharray=""/><path fill="rgb(73,75,90)" stroke="rgb(0,0,0)" paint-order="fill" d="M 21.56404399871826 668.2255249023438 A 7.5 7.5 0 1 1 21.564040248718573 668.2180249035938" fill-opacity="1" clip-path="url(#ZPosVgSQFXRR)" stroke-opacity="1" stroke-linejoin="bevel" stroke-miterlimit="10" stroke-dasharray=""/><path fill="rgb(0,134,237)" stroke="rgb(0,0,0)" paint-order="fill" d="M 326.8655700683594 904.809326171875 A 7.5 7.5 0 1 1 326.8655663183597 904.801826173125" fill-opacity="1" clip-path="url(#ZPosVgSQFXRR)" stroke-opacity="1" stroke-linejoin="bevel" stroke-miterlimit="10" stroke-dasharray=""/><path fill="rgb(188,101,233)" stroke="rgb(0,0,0)" paint-order="fill" d="M 707.5703735351562 820.3736572265625 A 7.5 7.5 0 1 1 707.5703697851566 820.3661572278126" fill-opacity="1" clip-path="url(#ZPosVgSQFXRR)" stroke-opacity="1" stroke-linejoin="bevel" stroke-miterlimit="10" stroke-dasharray=""/><path fill="none" stroke="none"/><path fill="none" stroke="rgb(195,22,27)" paint-order="fill" d="M 869.5 478.5 L 860.5730590820312 478.4658203125 L 851.792236328125 478.3632507324219 L 843.1575317382812 478.19232177734375 L 834.6688842773438 477.9530029296875 L 826.326416015625 477.64532470703125 L 818.1300659179688 477.2692565917969 L 810.0797729492188 476.8248291015625 L 802.1756591796875 476.31201171875 L 794.4176025390625 475.7308349609375 L 786.8057250976562 475.0812683105469 L 779.3399047851562 474.3633117675781 L 772.0202026367188 473.5770263671875 L 764.8466186523438 472.7223205566406 L 757.8191528320312 471.7992858886719 L 750.9378051757812 470.8078308105469 L 744.2025756835938 469.748046875 L 737.6134643554688 468.6198425292969 L 731.1704711914062 467.42327880859375 L 724.8735961914062 466.1583557128906 L 718.7228393554688 464.8250427246094 L 712.7181396484375 463.4233703613281 L 706.859619140625 461.95330810546875 L 701.1471557617188 460.4148864746094 L 695.5808715820312 458.8080749511719 L 690.16064453125 457.1329040527344 L 684.8865356445312 455.38934326171875 L 679.7586059570312 453.5774230957031 L 674.7767333984375 451.6971130371094 L 669.9409790039062 449.7484436035156 L 665.2513427734375 447.73138427734375 L 660.7078247070312 445.64593505859375 L 656.3104248046875 443.4921569824219 L 652.05908203125 441.26995849609375 L 647.9539184570312 438.9794006347656 L 643.994873046875 436.6204833984375 L 640.1819458007812 434.19317626953125 L 636.5150756835938 431.697509765625 L 632.994384765625 429.1334533691406 L 629.6197509765625 426.50103759765625 L 626.3912963867188 423.80023193359375 L 623.3088989257812 421.0310363769531 L 620.3726196289062 418.1935119628906 L 617.5824584960938 415.2875671386719 L 614.9384155273438 412.3132629394531 L 612.4404907226562 409.2705993652344 L 610.0886840820312 406.1595458984375 L 607.8829956054688 402.9801330566406 L 605.8234252929688 399.7323303222656 L 603.9099731445312 396.4161376953125 L 602.1426391601562 393.0316162109375 L 600.5213623046875 389.57867431640625 L 599.0462646484375 386.057373046875 L 597.7172241210938 382.46771240234375 L 596.5343627929688 378.8096618652344 L 595.49755859375 375.0832214355469 L 594.6068725585938 371.2884521484375 L 593.8623046875 367.4252624511719 L 593.263916015625 363.49371337890625 L 592.8115844726562 359.4938049316406 L 592.50537109375 355.4255065917969 L 592.3452758789062 351.288818359375 L 592.3312377929688 347.08380126953125 L 592.46337890625 342.81036376953125 L 592.7416381835938 338.46856689453125 L 593.166015625 334.05841064453125 L 593.7364501953125 329.5798645019531 L 594.4530639648438 325.032958984375 L 595.3157348632812 320.41766357421875 L 596.3245849609375 315.7339782714844 L 597.4794921875 310.98193359375 L 598.780517578125 306.1615295410156 L 600.2277221679688 301.2727355957031 L 601.8209838867188 296.3155517578125 L 603.5603637695312 291.2900085449219 L 605.4458618164062 286.19610595703125 L 607.4774780273438 281.0338134765625 L 609.6552124023438 275.80316162109375 L 611.97900390625 270.5041198730469 L 614.448974609375 265.1366882324219 L 617.0650634765625 259.7008972167969 L 619.8272705078125 254.1967315673828 L 622.7355346679688 248.62420654296875 L 625.7899780273438 242.9832763671875 L 628.990478515625 237.2740020751953 L 632.3370971679688 231.49632263183594 L 635.8298950195312 225.65028381347656 L 639.46875 219.73587036132812 L 643.2537231445312 213.75308227539062 L 647.184814453125 207.70191955566406 L 651.2620239257812 201.5823974609375 L 655.4853515625 195.3944854736328 L 659.8547973632812 189.13819885253906 L 664.370361328125 182.81353759765625 L 669.0320434570312 176.42050170898438 L 673.8397827148438 169.95907592773438 L 678.793701171875 163.42930603027344 L 683.8937377929688 156.8311309814453 L 689.1398315429688 150.16461181640625 L 694.5320434570312 143.42970275878906" stroke-opacity="0.800000011920929" stroke-linejoin="bevel" stroke-miterlimit="10" stroke-width="3.9600000381469727" stroke-dasharray="2,4" clip-path="url(#NRhvGCuckEFL)"/><path fill="none" stroke="rgb(195,22,27)" paint-order="fill" d="M 700.0704345703125 136.62640380859375 L 694.5320434570312 143.42970275878906 L 689.1398315429688 150.16461181640625 L 683.8937377929688 156.8311309814453 L 678.793701171875 163.42930603027344 L 673.8397827148438 169.95907592773438 L 669.0320434570312 176.42050170898438 L 664.370361328125 182.81353759765625 L 659.8547973632812 189.13819885253906 L 655.4853515625 195.3944854736328 L 651.2620239257812 201.5823974609375 L 647.184814453125 207.70191955566406 L 643.2537231445312 213.75308227539062 L 639.46875 219.73587036132812 L 635.8298950195312 225.65028381347656 L 632.3370971679688 231.49632263183594 L 628.990478515625 237.2740020751953 L 625.7899780273438 242.9832763671875 L 622.7355346679688 248.62420654296875 L 619.8272705078125 254.1967315673828 L 617.0650634765625 259.7008972167969 L 614.448974609375 265.1366882324219 L 611.97900390625 270.5041198730469 L 609.6552124023438 275.80316162109375 L 607.4774780273438 281.0338134765625 L 605.4458618164062 286.19610595703125 L 603.5603637695312 291.2900085449219 L 601.8209838867188 296.3155517578125 L 600.2277221679688 301.2727355957031 L 598.780517578125 306.1615295410156 L 597.4794921875 310.98193359375 L 596.3245849609375 315.7339782714844 L 595.3157348632812 320.41766357421875 L 594.4530639648438 325.032958984375 L 593.7364501953125 329.5798645019531 L 593.166015625 334.05841064453125 L 592.7416381835938 338.46856689453125 L 592.46337890625 342.81036376953125 L 592.3312377929688 347.08380126953125 L 592.3452758789062 351.288818359375 L 592.50537109375 355.4255065917969 L 592.8115844726562 359.4938049316406 L 593.263916015625 363.49371337890625 L 593.8623046875 367.4252624511719 L 594.6068725585938 371.2884521484375 L 595.49755859375 375.0832214355469 L 596.5343627929688 378.8096618652344 L 597.7172241210938 382.46771240234375 L 599.0462646484375 386.057373046875 L 600.5213623046875 389.57867431640625 L 602.1426391601562 393.0316162109375 L 603.9099731445312 396.4161376953125 L 605.8234252929688 399.7323303222656 L 607.8829956054688 402.9801330566406 L 610.0886840820312 406.1595458984375 L 612.4404907226562 409.2705993652344 L 614.9384155273438 412.3132629394531 L 617.5824584960938 415.2875671386719 L 620.3726196289062 418.1935119628906 L 623.3088989257812 421.0310363769531 L 626.3912963867188 423.80023193359375 L 629.6197509765625 426.50103759765625 L 632.994384765625 429.1334533691406 L 636.5150756835938 431.697509765625 L 640.1819458007812 434.19317626953125 L 643.994873046875 436.6204833984375 L 647.9539184570312 438.9794006347656 L 652.05908203125 441.26995849609375 L 656.3104248046875 443.4921569824219 L 660.7078247070312 445.64593505859375 L 665.2513427734375 447.73138427734375 L 669.9409790039062 449.7484436035156 L 674.7767333984375 451.6971130371094 L 679.7586059570312 453.5774230957031 L 684.8865356445312 455.38934326171875 L 690.16064453125 457.1329040527344 L 695.5808715820312 458.8080749511719 L 701.1471557617188 460.4148864746094 L 706.859619140625 461.95330810546875 L 712.7181396484375 463.4233703613281 L 718.7228393554688 464.8250427246094 L 724.8735961914062 466.1583557128906 L 731.1704711914062 467.42327880859375 L 737.6134643554688 468.6198425292969 L 744.2025756835938 469.748046875 L 750.9378051757812 470.8078308105469 L 757.8191528320312 471.7992858886719 L 764.8466186523438 472.7223205566406 L 772.0202026367188 473.5770263671875 L 779.3399047851562 474.3633117675781 L 786.8057250976562 475.0812683105469 L 794.4176025390625 475.7308349609375 L 802.1756591796875 476.31201171875 L 810.0797729492188 476.8248291015625 L 818.1300659179688 477.2692565917969 L 826.326416015625 477.64532470703125 L 834.6688842773438 477.9530029296875 L 843.1575317382812 478.19232177734375 L 851.792236328125 478.3632507324219 L 860.5730590820312 478.4658203125" stroke-opacity="0.800000011920929" stroke-linejoin="bevel" stroke-miterlimit="10" stroke-width="3.9600000381469727" stroke-dasharray="2,4" clip-path="url(#NRhvGCuckEFL)"/><path fill="none" stroke="rgb(197,23,28)" paint-order="fill" d="M 319.3656005859375 52.190616607666016 L 321.3177185058594 60.693153381347656 L 323.1687316894531 69.14835357666016 L 324.91864013671875 77.5562515258789 L 326.5674133300781 85.9168472290039 L 328.1151123046875 94.23011016845703 L 329.5616760253906 102.49604034423828 L 330.9071044921875 110.71469116210938 L 332.15142822265625 118.88597869873047 L 333.2946472167969 127.00997161865234 L 334.3367614746094 135.08665466308594 L 335.27777099609375 143.11602783203125 L 336.1176452636719 151.09808349609375 L 336.85638427734375 159.0327911376953 L 337.4940490722656 166.9202117919922 L 338.03057861328125 174.76031494140625 L 338.46600341796875 182.55308532714844 L 338.80029296875 190.29855346679688 L 339.03350830078125 197.99668884277344 L 339.16558837890625 205.64752197265625 L 339.196533203125 213.2510223388672 L 339.1263732910156 220.80722045898438 L 338.9551086425781 228.3160858154297 L 338.6827392578125 235.7776336669922 L 338.30926513671875 243.19189453125 L 337.83465576171875 250.55882263183594 L 337.2589111328125 257.87841796875 L 336.58209228515625 265.1507263183594 L 335.80413818359375 272.3757019042969 L 334.9250793457031 279.5533752441406 L 333.9449157714844 286.6837158203125 L 332.8636169433594 293.7667236328125 L 331.68121337890625 300.80242919921875 L 330.3976745605469 307.79083251953125 L 329.0130615234375 314.7319030761719 L 327.5273132324219 321.62567138671875 L 325.9404602050781 328.47210693359375 L 324.2524719238281 335.271240234375 L 322.46337890625 342.0230407714844 L 320.57318115234375 348.7275390625 L 318.58184814453125 355.38470458984375 L 316.48944091796875 361.99456787109375 L 314.2958984375 368.5570983886719 L 312.001220703125 375.07232666015625 L 309.6054382324219 381.5402526855469 L 307.1085510253906 387.9608459472656 L 304.51055908203125 394.3341064453125 L 301.8114318847656 400.6600646972656 L 299.0111999511719 406.938720703125 L 296.10986328125 413.1700439453125 L 293.1073913574219 419.3540344238281 L 290.00384521484375 425.49072265625 L 286.79913330078125 431.5801086425781 L 283.49334716796875 437.6221618652344 L 280.08642578125 443.6169128417969 L 276.5783996582031 449.5643310546875 L 272.9692687988281 455.46441650390625 L 269.2590026855469 461.3172302246094 L 265.4476318359375 467.1226806640625 L 261.53515625 472.880859375 L 257.52154541015625 478.5916748046875 L 253.40682983398438 484.2552185058594 L 249.19100952148438 489.8714294433594 L 244.8740692138672 495.4403076171875 L 240.45602416992188 500.9618835449219 L 235.9368438720703 506.4361267089844 L 231.31655883789062 511.8630676269531 L 226.5951690673828 517.24267578125 L 221.77264404296875 522.5750122070312 L 216.84902954101562 527.8599853515625 L 211.82427978515625 533.09765625 L 206.69842529296875 538.2880249023438 L 201.47146606445312 543.4310302734375 L 196.14337158203125 548.5267944335938 L 190.71417236328125 553.5751953125 L 185.1838836669922 558.5762939453125 L 179.5524444580078 563.530029296875 L 173.8199005126953 568.4365234375 L 167.9862518310547 573.295654296875 L 162.05149841308594 578.1074829101562 L 156.01560974121094 582.8719482421875 L 149.8786163330078 587.5891723632812 L 143.64051818847656 592.259033203125 L 137.30126953125 596.881591796875 L 130.86094665527344 601.456787109375 L 124.31948852539062 605.9847412109375 L 117.67691802978516 610.46533203125 L 110.93325805664062 614.8986206054688 L 104.08844757080078 619.2846069335938 L 97.14254760742188 623.6232299804688 L 90.09552001953125 627.9146118164062 L 82.94738006591797 632.1585693359375 L 75.69815063476562 636.3552856445312 L 68.34777069091797 640.5046997070312 L 60.896297454833984 644.6067504882812 L 53.34370803833008 648.6614990234375 L 45.689998626708984 652.6689453125 L 37.93519592285156 656.6290893554688 L 30.079246520996094 660.5418701171875 L 22.12220573425293 664.4073486328125" stroke-opacity="0.800000011920929" stroke-linejoin="bevel" stroke-miterlimit="10" stroke-width="3.9200000762939453" stroke-dasharray="2,4" clip-path="url(#NRhvGCuckEFL)"/><path fill="none" stroke="rgb(193,22,27)" paint-order="fill" d="M 319.3656005859375 52.190616607666016 L 321.3177185058594 60.65520477294922 L 323.1687316894531 68.99658966064453 L 324.91864013671875 77.2147445678711 L 326.5674133300781 85.30972290039062 L 328.1151123046875 93.2814712524414 L 329.5616760253906 101.1300277709961 L 330.9071044921875 108.8553695678711 L 332.15142822265625 116.45748901367188 L 333.2946472167969 123.93643188476562 L 334.3367614746094 131.29214477539062 L 335.27777099609375 138.524658203125 L 336.1176452636719 145.63397216796875 L 336.85638427734375 152.62008666992188 L 337.4940490722656 159.4829559326172 L 338.03057861328125 166.22264099121094 L 338.46600341796875 172.839111328125 L 338.80029296875 179.3323974609375 L 339.03350830078125 185.7024688720703 L 339.16558837890625 191.9493408203125 L 339.196533203125 198.07298278808594 L 339.1263732910156 204.0734100341797 L 338.9551086425781 209.95065307617188 L 338.6827392578125 215.70469665527344 L 338.30926513671875 221.3355255126953 L 337.83465576171875 226.84312438964844 L 337.2589111328125 232.2275390625 L 336.58209228515625 237.48873901367188 L 335.80413818359375 242.62673950195312 L 334.9250793457031 247.6415252685547 L 333.9449157714844 252.53309631347656 L 332.8636169433594 257.3014831542969 L 331.68121337890625 261.9466552734375 L 330.3976745605469 266.4685974121094 L 329.0130615234375 270.86737060546875 L 327.5273132324219 275.1429138183594 L 325.9404602050781 279.29522705078125 L 324.2524719238281 283.3243713378906 L 322.46337890625 287.2303161621094 L 320.57318115234375 291.0130310058594 L 318.58184814453125 294.6725158691406 L 316.48944091796875 298.2088317871094 L 314.2958984375 301.6219482421875 L 312.001220703125 304.9118347167969 L 309.6054382324219 308.0785217285156 L 307.1085510253906 311.1219787597656 L 304.51055908203125 314.0422668457031 L 301.8114318847656 316.8393249511719 L 299.0111999511719 319.51318359375 L 296.10986328125 322.0638122558594 L 293.1073913574219 324.49127197265625 L 290.00384521484375 326.7955017089844 L 286.79913330078125 328.9765319824219 L 283.49334716796875 331.03436279296875 L 280.08642578125 332.9689636230469 L 276.5783996582031 334.7803649902344 L 272.9692687988281 336.46856689453125 L 269.2590026855469 338.0335693359375 L 265.4476318359375 339.475341796875 L 261.53515625 340.7939147949219 L 257.52154541015625 341.9892883300781 L 253.40682983398438 343.06146240234375 L 249.19100952148438 344.0104064941406 L 244.8740692138672 344.836181640625 L 240.45602416992188 345.5387268066406 L 235.9368438720703 346.1180725097656 L 231.31655883789062 346.5741882324219 L 226.5951690673828 346.9071044921875 L 221.77264404296875 347.1168212890625 L 216.84902954101562 347.2033386230469 L 211.82427978515625 347.1666259765625 L 206.69842529296875 347.0067443847656 L 201.47146606445312 346.7236022949219 L 196.14337158203125 346.3172912597656 L 190.71417236328125 345.78778076171875 L 185.1838836669922 345.1350402832031 L 179.5524444580078 344.3591003417969 L 173.8199005126953 343.4599609375 L 167.9862518310547 342.4375915527344 L 162.05149841308594 341.29205322265625 L 156.01560974121094 340.02325439453125 L 149.8786163330078 338.63128662109375 L 143.64051818847656 337.1161193847656 L 137.30126953125 335.47772216796875 L 130.86094665527344 333.71612548828125 L 124.31948852539062 331.8313293457031 L 117.67691802978516 329.82330322265625 L 110.93325805664062 327.6921081542969 L 104.08844757080078 325.43768310546875 L 97.14254760742188 323.06005859375 L 90.09552001953125 320.5592041015625 L 82.94738006591797 317.9351501464844 L 75.69815063476562 315.1878967285156 L 68.34777069091797 312.31744384765625 L 60.896297454833984 309.32379150390625 L 53.34370803833008 306.2069091796875 L 45.689998626708984 302.9668273925781 L 37.93519592285156 299.6035461425781 L 30.079246520996094 296.1170349121094 L 22.12220573425293 292.5073547363281" stroke-opacity="0.800000011920929" stroke-linejoin="bevel" stroke-miterlimit="10" stroke-width="4" stroke-dasharray="2,4" clip-path="url(#NRhvGCuckEFL)"/><path fill="none" stroke="rgb(195,22,27)" paint-order="fill" d="M 319.3656005859375 52.190616607666016 L 321.3863220214844 60.7083740234375 L 323.4431457519531 69.20921325683594 L 325.5360412597656 77.69319152832031 L 327.6650390625 86.1602783203125 L 329.8301086425781 94.61048126220703 L 332.0312805175781 103.04378509521484 L 334.2685546875 111.460205078125 L 336.5418701171875 119.8597412109375 L 338.851318359375 128.2423858642578 L 341.19683837890625 136.60813903808594 L 343.57843017578125 144.95703125 L 345.9961242675781 153.28900146484375 L 348.44989013671875 161.6040802001953 L 350.93975830078125 169.90231323242188 L 353.4657287597656 178.1836395263672 L 356.02777099609375 186.44805908203125 L 358.6258850097656 194.69561767578125 L 361.2601013183594 202.92628479003906 L 363.9303894042969 211.1400604248047 L 366.63677978515625 219.33694458007812 L 369.3792724609375 227.51695251464844 L 372.1578369140625 235.6800537109375 L 374.97247314453125 243.82627868652344 L 377.8232116699219 251.9556427001953 L 380.7100524902344 260.0680847167969 L 383.6329650878906 268.16363525390625 L 386.5919494628906 276.2423095703125 L 389.5870361328125 284.3041076660156 L 392.61822509765625 292.3490295410156 L 395.68548583984375 300.3770446777344 L 398.788818359375 308.3881530761719 L 401.9282531738281 316.3824157714844 L 405.103759765625 324.3597717285156 L 408.31536865234375 332.3202209472656 L 411.5630798339844 340.2637939453125 L 414.84686279296875 348.1905212402344 L 418.166748046875 356.1003112792969 L 421.522705078125 363.99322509765625 L 424.91473388671875 371.8692626953125 L 428.3428649902344 379.7283935546875 L 431.8070983886719 387.5706481933594 L 435.3074035644531 395.3960266113281 L 438.8437805175781 403.20452880859375 L 442.416259765625 410.9961242675781 L 446.02484130859375 418.77081298828125 L 449.66949462890625 426.5286560058594 L 453.3502502441406 434.26959228515625 L 457.06707763671875 441.9936218261719 L 460.8199768066406 449.7007751464844 L 464.6089782714844 457.39105224609375 L 468.43408203125 465.064453125 L 472.2952575683594 472.720947265625 L 476.1925354003906 480.3605651855469 L 480.1258850097656 487.9832763671875 L 484.0953063964844 495.589111328125 L 488.100830078125 503.1780700683594 L 492.1424560546875 510.7501525878906 L 496.22015380859375 518.3052978515625 L 500.3339538574219 525.8436279296875 L 504.48382568359375 533.364990234375 L 508.6697692871094 540.8695068359375 L 512.891845703125 548.357177734375 L 517.1499633789062 555.827880859375 L 521.4442138671875 563.28173828125 L 525.7745361328125 570.7186889648438 L 530.1409301757812 578.1387939453125 L 534.5433959960938 585.5419921875 L 538.9819946289062 592.9282836914062 L 543.4566040039062 600.2977294921875 L 547.9674072265625 607.6502685546875 L 552.5142211914062 614.9859008789062 L 557.0971069335938 622.3046264648438 L 561.7161254882812 629.6065063476562 L 566.3712768554688 636.8914794921875 L 571.0624389648438 644.1596069335938 L 575.7896728515625 651.4107666015625 L 580.5530395507812 658.6451416015625 L 585.3524780273438 665.862548828125 L 590.1880493164062 673.0631103515625 L 595.0596313476562 680.2467651367188 L 599.9673461914062 687.4135131835938 L 604.9111328125 694.5634155273438 L 609.8910522460938 701.6964111328125 L 614.906982421875 708.8125 L 619.9590454101562 715.9117431640625 L 625.0471801757812 722.9940795898438 L 630.1714477539062 730.0595092773438 L 635.3317260742188 737.1080932617188 L 640.5281372070312 744.1397705078125 L 645.7606201171875 751.154541015625 L 651.0292358398438 758.1524658203125 L 656.3338623046875 765.1334838867188 L 661.6746215820312 772.0975952148438 L 667.0514526367188 779.0447998046875 L 672.4644165039062 785.9751586914062 L 677.9134521484375 792.888671875 L 683.3984985351562 799.7852172851562 L 688.9197387695312 806.6649169921875 L 694.4769897460938 813.5277099609375" stroke-opacity="0.800000011920929" stroke-linejoin="bevel" stroke-miterlimit="10" stroke-width="3.9600000381469727" stroke-dasharray="2,4" clip-path="url(#NRhvGCuckEFL)"/><path fill="none" stroke="rgb(195,22,27)" paint-order="fill" d="M 319.3656005859375 52.190616607666016 L 321.3482360839844 60.71681594848633 L 323.2908630371094 69.24298858642578 L 325.19342041015625 77.7691879272461 L 327.055908203125 86.29536437988281 L 328.87835693359375 94.82156372070312 L 330.6607666015625 103.34774017333984 L 332.403076171875 111.87393951416016 L 334.1053771972656 120.40011596679688 L 335.7676086425781 128.9263153076172 L 337.3897705078125 137.45248413085938 L 338.9718933105469 145.9786834716797 L 340.51397705078125 154.50486755371094 L 342.0159912109375 163.03106689453125 L 343.47796630859375 171.55723571777344 L 344.8998718261719 180.08343505859375 L 346.2817077636719 188.60960388183594 L 347.6235046386719 197.1358184814453 L 348.9252624511719 205.66201782226562 L 350.18695068359375 214.1881866455078 L 351.4085998535156 222.71438598632812 L 352.5901794433594 231.2405548095703 L 353.7317199707031 239.76675415039062 L 354.83319091796875 248.29293823242188 L 355.8946228027344 256.8191223144531 L 356.9159851074219 265.3453063964844 L 357.8973083496094 273.8714904785156 L 358.83856201171875 282.3976745605469 L 359.7397766113281 290.9238586425781 L 360.6009216308594 299.4500427246094 L 361.4220275878906 307.97625732421875 L 362.2030944824219 316.50244140625 L 362.944091796875 325.02862548828125 L 363.64501953125 333.5548095703125 L 364.305908203125 342.08099365234375 L 364.9267578125 350.607177734375 L 365.50750732421875 359.1333923339844 L 366.0482482910156 367.6595764160156 L 366.5489196777344 376.1857604980469 L 367.0095520019531 384.7119445800781 L 367.43011474609375 393.2381286621094 L 367.81060791015625 401.7643127441406 L 368.15106201171875 410.2904968261719 L 368.45147705078125 418.8166809082031 L 368.7118225097656 427.3428649902344 L 368.93212890625 435.8690490722656 L 369.11236572265625 444.3952331542969 L 369.2525329589844 452.92144775390625 L 369.3526916503906 461.4476318359375 L 369.4127502441406 469.97381591796875 L 369.43280029296875 478.5 L 369.4127502441406 487.02618408203125 L 369.3526916503906 495.5523681640625 L 369.2525329589844 504.07855224609375 L 369.11236572265625 512.604736328125 L 368.9320983886719 521.1309204101562 L 368.7118225097656 529.6571044921875 L 368.45147705078125 538.1832885742188 L 368.15106201171875 546.70947265625 L 367.81060791015625 555.2356567382812 L 367.4300842285156 563.7618408203125 L 367.009521484375 572.2880859375 L 366.5489196777344 580.8142700195312 L 366.0482482910156 589.3404541015625 L 365.50750732421875 597.8666381835938 L 364.9267272949219 606.392822265625 L 364.305908203125 614.9190063476562 L 363.64501953125 623.4451904296875 L 362.9440612792969 631.9713745117188 L 362.20306396484375 640.49755859375 L 361.4220275878906 649.0237426757812 L 360.6009216308594 657.5499267578125 L 359.7397766113281 666.0761108398438 L 358.83856201171875 674.602294921875 L 357.8973083496094 683.1284790039062 L 356.9159851074219 691.6546630859375 L 355.89459228515625 700.1808471679688 L 354.83319091796875 708.7070922851562 L 353.731689453125 717.2332153320312 L 352.5901794433594 725.7594604492188 L 351.4085693359375 734.2855834960938 L 350.18695068359375 742.8118286132812 L 348.92523193359375 751.3380126953125 L 347.6235046386719 759.8641967773438 L 346.2817077636719 768.390380859375 L 344.89984130859375 776.9165649414062 L 343.4779357910156 785.4427490234375 L 342.0159606933594 793.9689331054688 L 340.5139465332031 802.4951171875 L 338.9718933105469 811.0213012695312 L 337.3897705078125 819.5474853515625 L 335.767578125 828.0736694335938 L 334.1053466796875 836.599853515625 L 332.403076171875 845.1260375976562 L 330.6607360839844 853.6522216796875 L 328.8783264160156 862.1784057617188 L 327.0558776855469 870.70458984375 L 325.1933898925781 879.2308349609375 L 323.29083251953125 887.7569580078125 L 321.3482360839844 896.283203125" stroke-opacity="0.800000011920929" stroke-linejoin="bevel" stroke-miterlimit="10" stroke-width="3.9600000381469727" stroke-dasharray="2,4" clip-path="url(#NRhvGCuckEFL)"/><path fill="none" stroke="rgb(193,22,27)" paint-order="fill" d="M 14.064043998718262 288.7744445800781 L 22.16026496887207 292.58416748046875 L 30.231542587280273 296.42431640625 L 38.2778205871582 300.2948913574219 L 46.29912567138672 304.1959228515625 L 54.29546356201172 308.12738037109375 L 62.26682662963867 312.0892333984375 L 70.21321868896484 316.08154296875 L 78.1346435546875 320.1042785644531 L 86.03108978271484 324.1574401855469 L 93.90257263183594 328.24102783203125 L 101.74907684326172 332.35504150390625 L 109.57061767578125 336.49951171875 L 117.36714935302734 340.67437744140625 L 125.13874816894531 344.87969970703125 L 132.88534545898438 349.1154479980469 L 140.60699462890625 353.3816223144531 L 148.30364990234375 357.67822265625 L 155.97535705566406 362.0052490234375 L 163.62205505371094 366.3627014160156 L 171.24380493164062 370.7505798339844 L 178.84056091308594 375.1689147949219 L 186.41236877441406 379.6176452636719 L 193.9591827392578 384.0968322753906 L 201.4810333251953 388.6064453125 L 208.97792053222656 393.146484375 L 216.4498291015625 397.7169494628906 L 223.89675903320312 402.3178405761719 L 231.31871032714844 406.94915771484375 L 238.71571350097656 411.6109313964844 L 246.0877227783203 416.3031005859375 L 253.43475341796875 421.0257263183594 L 260.7568054199219 425.77874755859375 L 268.0539245605469 430.5622253417969 L 275.3260498046875 435.3761291503906 L 282.57318115234375 440.220458984375 L 289.79534912109375 445.0952453613281 L 296.9925537109375 450.00042724609375 L 304.1647644042969 454.93603515625 L 311.3120422363281 459.902099609375 L 318.4342956542969 464.8985900878906 L 325.5316162109375 469.92547607421875 L 332.60394287109375 474.9828186035156 L 339.65130615234375 480.0705871582031 L 346.6737060546875 485.1888122558594 L 353.6711120605469 490.3374328613281 L 360.6435546875 495.5164794921875 L 367.5910339355469 500.7259826660156 L 374.5135192871094 505.96588134765625 L 381.4110412597656 511.2362365722656 L 388.2835998535156 516.5370483398438 L 395.13116455078125 521.8682250976562 L 401.9537658691406 527.2298583984375 L 408.75140380859375 532.6219482421875 L 415.5240783691406 538.04443359375 L 422.2717590332031 543.4973754882812 L 428.9944763183594 548.980712890625 L 435.69219970703125 554.4945068359375 L 442.3649597167969 560.0386962890625 L 449.01275634765625 565.6133422851562 L 455.6355895996094 571.2184448242188 L 462.2334289550781 576.8539428710938 L 468.8063049316406 582.5198364257812 L 475.35418701171875 588.2161865234375 L 481.8771057128906 593.9429931640625 L 488.37506103515625 599.7001953125 L 494.8480529785156 605.4878540039062 L 501.2960510253906 611.3059692382812 L 507.7190856933594 617.1544799804688 L 514.1171264648438 623.0333862304688 L 520.490234375 628.9427490234375 L 526.83837890625 634.882568359375 L 533.1614990234375 640.8528442382812 L 539.4596557617188 646.8534545898438 L 545.7328491210938 652.8845825195312 L 551.9810791015625 658.946044921875 L 558.204345703125 665.0380249023438 L 564.402587890625 671.160400390625 L 570.575927734375 677.313232421875 L 576.7242431640625 683.4964599609375 L 582.8475952148438 689.7100830078125 L 588.9459838867188 695.9542236328125 L 595.0194091796875 702.2286987304688 L 601.0678100585938 708.53369140625 L 607.09130859375 714.8690795898438 L 613.0897827148438 721.23486328125 L 619.0632934570312 727.631103515625 L 625.0118408203125 734.0578002929688 L 630.9354248046875 740.514892578125 L 636.833984375 747.00244140625 L 642.7076416015625 753.5203857421875 L 648.5562744140625 760.0687866210938 L 654.3799438476562 766.6475830078125 L 660.1786499023438 773.2568359375 L 665.952392578125 779.8965454101562 L 671.701171875 786.566650390625 L 677.4249267578125 793.2671508789062 L 683.123779296875 799.9981689453125 L 688.797607421875 806.759521484375 L 694.4464721679688 813.5513916015625" stroke-opacity="0.800000011920929" stroke-linejoin="bevel" stroke-miterlimit="10" stroke-width="4" stroke-dasharray="2,4" clip-path="url(#NRhvGCuckEFL)"/><path fill="none" stroke="rgb(193,22,27)" paint-order="fill" d="M 14.064043998718262 288.7744445800781 L 22.0916805267334 292.5689697265625 L 29.957124710083008 296.36346435546875 L 37.660404205322266 300.1579895019531 L 45.201515197753906 303.9524841308594 L 52.58045959472656 307.74700927734375 L 59.797210693359375 311.54150390625 L 66.85179901123047 315.3360290527344 L 73.74421691894531 319.1305236816406 L 80.47444152832031 322.925048828125 L 87.04249572753906 326.71954345703125 L 93.44839477539062 330.5140686035156 L 99.6921157836914 334.3085632324219 L 105.77365112304688 338.10308837890625 L 111.6930160522461 341.8975830078125 L 117.4502182006836 345.6921081542969 L 123.04522705078125 349.48663330078125 L 128.47806549072266 353.2811279296875 L 133.74874877929688 357.0756530761719 L 138.8572235107422 360.8701477050781 L 143.8035430908203 364.6646728515625 L 148.5876922607422 368.45916748046875 L 153.2096710205078 372.2536926269531 L 157.66946411132812 376.0481872558594 L 161.9670867919922 379.84271240234375 L 166.10250854492188 383.63720703125 L 170.0758056640625 387.4317321777344 L 173.88690185546875 391.22625732421875 L 177.5358123779297 395.020751953125 L 181.02256774902344 398.8152770996094 L 184.34713745117188 402.6097717285156 L 187.50955200195312 406.404296875 L 190.509765625 410.19879150390625 L 193.3478240966797 413.9933166503906 L 196.02369689941406 417.7878112792969 L 198.5373992919922 421.58233642578125 L 200.88893127441406 425.3768310546875 L 203.07827758789062 429.1713562011719 L 205.10546875 432.9658508300781 L 206.97047424316406 436.7603759765625 L 208.67330932617188 440.55487060546875 L 210.21395874023438 444.3493957519531 L 211.59243774414062 448.1438903808594 L 212.80874633789062 451.93841552734375 L 213.86288452148438 455.7329406738281 L 214.7548370361328 459.5274353027344 L 215.484619140625 463.32196044921875 L 216.05223083496094 467.116455078125 L 216.45767211914062 470.9109802246094 L 216.70094299316406 474.7054748535156 L 216.7820281982422 478.5 L 216.70094299316406 482.29449462890625 L 216.45767211914062 486.0890197753906 L 216.05223083496094 489.8835144042969 L 215.484619140625 493.67803955078125 L 214.7548370361328 497.4725341796875 L 213.86288452148438 501.2670593261719 L 212.80874633789062 505.0615539550781 L 211.59243774414062 508.8560791015625 L 210.21395874023438 512.6505737304688 L 208.67330932617188 516.445068359375 L 206.97047424316406 520.2396240234375 L 205.10546875 524.0341186523438 L 203.07827758789062 527.82861328125 L 200.88893127441406 531.6231689453125 L 198.5373992919922 535.4176635742188 L 196.02369689941406 539.212158203125 L 193.3478240966797 543.0066528320312 L 190.509765625 546.8012084960938 L 187.50955200195312 550.595703125 L 184.34713745117188 554.3901977539062 L 181.02256774902344 558.1846923828125 L 177.5358123779297 561.979248046875 L 173.88690185546875 565.7737426757812 L 170.0758056640625 569.5682373046875 L 166.10250854492188 573.3627319335938 L 161.9670867919922 577.1572875976562 L 157.66946411132812 580.9517822265625 L 153.2096710205078 584.7462768554688 L 148.5876922607422 588.5408325195312 L 143.8035430908203 592.3353271484375 L 138.8572235107422 596.1298217773438 L 133.74874877929688 599.92431640625 L 128.47806549072266 603.7188720703125 L 123.04522705078125 607.5133666992188 L 117.4502182006836 611.307861328125 L 111.6930160522461 615.1023559570312 L 105.77365112304688 618.8969116210938 L 99.6921157836914 622.69140625 L 93.44839477539062 626.4859008789062 L 87.04249572753906 630.2803955078125 L 80.47444152832031 634.074951171875 L 73.74421691894531 637.8694458007812 L 66.85179901123047 641.6639404296875 L 59.797210693359375 645.45849609375 L 52.58045959472656 649.2529907226562 L 45.201515197753906 653.0474853515625 L 37.660404205322266 656.8419799804688 L 29.957124710083008 660.636474609375 L 22.0916805267334 664.4310302734375" stroke-opacity="0.800000011920929" stroke-linejoin="bevel" stroke-miterlimit="10" stroke-width="4" stroke-dasharray="2,4" clip-path="url(#NRhvGCuckEFL)"/><path fill="none" stroke="rgb(193,22,27)" paint-order="fill" d="M 14.064043998718262 288.7744445800781 L 22.12220573425293 292.5073547363281 L 30.079246520996094 296.1170349121094 L 37.93519592285156 299.6035461425781 L 45.689998626708984 302.9668273925781 L 53.34370803833008 306.2069091796875 L 60.896297454833984 309.32379150390625 L 68.34777069091797 312.31744384765625 L 75.69815063476562 315.1878967285156 L 82.94738006591797 317.9351501464844 L 90.09552001953125 320.5592041015625 L 97.14254760742188 323.06005859375 L 104.08844757080078 325.43768310546875 L 110.93325805664062 327.6921081542969 L 117.67691802978516 329.82330322265625 L 124.31948852539062 331.8313293457031 L 130.86094665527344 333.71612548828125 L 137.30126953125 335.47772216796875 L 143.64051818847656 337.1161193847656 L 149.8786163330078 338.63128662109375 L 156.01560974121094 340.02325439453125 L 162.05149841308594 341.29205322265625 L 167.9862518310547 342.4375915527344 L 173.8199005126953 343.4599609375 L 179.5524444580078 344.3591003417969 L 185.1838836669922 345.1350402832031 L 190.71417236328125 345.78778076171875 L 196.14337158203125 346.3172912597656 L 201.47146606445312 346.7236022949219 L 206.69842529296875 347.0067443847656 L 211.82427978515625 347.1666259765625 L 216.84902954101562 347.2033386230469 L 221.77264404296875 347.1168212890625 L 226.5951690673828 346.9071044921875 L 231.31655883789062 346.5741882324219 L 235.9368438720703 346.1180725097656 L 240.45602416992188 345.5387268066406 L 244.8740692138672 344.836181640625 L 249.19100952148438 344.0104064941406 L 253.40682983398438 343.06146240234375 L 257.52154541015625 341.9892883300781 L 261.53515625 340.7939147949219 L 265.4476318359375 339.475341796875 L 269.2590026855469 338.0335693359375 L 272.9692687988281 336.46856689453125 L 276.5783996582031 334.7803649902344 L 280.08642578125 332.9689636230469 L 283.49334716796875 331.03436279296875 L 286.79913330078125 328.9765319824219 L 290.00384521484375 326.7955017089844 L 293.1073913574219 324.49127197265625 L 296.10986328125 322.0638122558594 L 299.0111999511719 319.51318359375 L 301.8114318847656 316.8393249511719 L 304.51055908203125 314.0422668457031 L 307.1085510253906 311.1219787597656 L 309.6054382324219 308.0785217285156 L 312.001220703125 304.9118347167969 L 314.2958984375 301.6219482421875 L 316.48944091796875 298.2088317871094 L 318.58184814453125 294.6725158691406 L 320.57318115234375 291.0130310058594 L 322.46337890625 287.2303161621094 L 324.2524719238281 283.3243713378906 L 325.9404602050781 279.29522705078125 L 327.5273132324219 275.1429138183594 L 329.0130615234375 270.86737060546875 L 330.3976745605469 266.4685974121094 L 331.68121337890625 261.9466552734375 L 332.8636169433594 257.3014831542969 L 333.9449157714844 252.53309631347656 L 334.9250793457031 247.6415252685547 L 335.80413818359375 242.62673950195312 L 336.58209228515625 237.48873901367188 L 337.2589111328125 232.2275390625 L 337.83465576171875 226.84312438964844 L 338.30926513671875 221.3355255126953 L 338.6827392578125 215.70469665527344 L 338.9551086425781 209.95065307617188 L 339.1263732910156 204.0734100341797 L 339.196533203125 198.07298278808594 L 339.16558837890625 191.9493408203125 L 339.03350830078125 185.7024688720703 L 338.80029296875 179.3323974609375 L 338.46600341796875 172.839111328125 L 338.03057861328125 166.22264099121094 L 337.4940490722656 159.4829559326172 L 336.85638427734375 152.62008666992188 L 336.1176452636719 145.63397216796875 L 335.27777099609375 138.524658203125 L 334.3367614746094 131.29214477539062 L 333.2946472167969 123.93643188476562 L 332.15142822265625 116.45748901367188 L 330.9071044921875 108.8553695678711 L 329.5616760253906 101.1300277709961 L 328.1151123046875 93.2814712524414 L 326.5674133300781 85.30972290039062 L 324.91864013671875 77.2147445678711 L 323.1687316894531 68.99658966064453 L 321.3177185058594 60.65520477294922" stroke-opacity="0.800000011920929" stroke-linejoin="bevel" stroke-miterlimit="10" stroke-width="4" stroke-dasharray="2,4" clip-path="url(#NRhvGCuckEFL)"/><path fill="none" stroke="rgb(193,22,27)" paint-order="fill" d="M 14.064043998718262 288.7744445800781 L 22.12220573425293 292.5926208496094 L 30.079246520996094 296.4580993652344 L 37.93519592285156 300.37091064453125 L 45.689998626708984 304.3310241699219 L 53.34370803833008 308.3384704589844 L 60.896297454833984 312.3932189941406 L 68.34777069091797 316.4952697753906 L 75.69815063476562 320.6446533203125 L 82.94738006591797 324.84136962890625 L 90.09552001953125 329.08538818359375 L 97.14254760742188 333.3767395019531 L 104.08844757080078 337.71539306640625 L 110.93325805664062 342.1013488769531 L 117.67691802978516 346.5346374511719 L 124.31948852539062 351.0152282714844 L 130.86094665527344 355.54315185546875 L 137.30126953125 360.118408203125 L 143.64051818847656 364.740966796875 L 149.8786163330078 369.41082763671875 L 156.01560974121094 374.1280212402344 L 162.05149841308594 378.89251708984375 L 167.9862518310547 383.704345703125 L 173.8199005126953 388.5634765625 L 179.5524444580078 393.4699401855469 L 185.18385314941406 398.4237060546875 L 190.71417236328125 403.4248046875 L 196.14337158203125 408.47320556640625 L 201.47146606445312 413.5689392089844 L 206.69842529296875 418.71197509765625 L 211.82427978515625 423.9023132324219 L 216.84902954101562 429.1399841308594 L 221.77264404296875 434.42498779296875 L 226.59515380859375 439.7572937011719 L 231.31654357910156 445.13690185546875 L 235.9368438720703 450.5638427734375 L 240.4560089111328 456.0381164550781 L 244.87405395507812 461.5596923828125 L 249.19100952148438 467.1285705566406 L 253.40682983398438 472.7447814941406 L 257.52154541015625 478.4082946777344 L 261.53515625 484.119140625 L 265.4476318359375 489.8772888183594 L 269.2590026855469 495.6827697753906 L 272.9692687988281 501.5355529785156 L 276.5783996582031 507.4356689453125 L 280.08642578125 513.3831176757812 L 283.49334716796875 519.3778076171875 L 286.79913330078125 525.4198608398438 L 290.00384521484375 531.50927734375 L 293.1073913574219 537.6459350585938 L 296.10986328125 543.8299560546875 L 299.0111999511719 550.061279296875 L 301.8114318847656 556.3399047851562 L 304.51055908203125 562.6658935546875 L 307.1085510253906 569.0391845703125 L 309.6054382324219 575.4597778320312 L 312.001220703125 581.9276733398438 L 314.2958679199219 588.44287109375 L 316.4894104003906 595.0054321289062 L 318.58184814453125 601.6152954101562 L 320.5731506347656 608.2724609375 L 322.46337890625 614.9769287109375 L 324.2524719238281 621.728759765625 L 325.9404296875 628.5278930664062 L 327.52728271484375 635.3743286132812 L 329.0130310058594 642.26806640625 L 330.3976745605469 649.2091674804688 L 331.6811828613281 656.1975708007812 L 332.86358642578125 663.2332763671875 L 333.94488525390625 670.3162841796875 L 334.9250793457031 677.4466552734375 L 335.80413818359375 684.624267578125 L 336.5820617675781 691.8492431640625 L 337.2589111328125 699.12158203125 L 337.8346252441406 706.441162109375 L 338.3092346191406 713.80810546875 L 338.6827392578125 721.2223510742188 L 338.9551086425781 728.6838989257812 L 339.1263732910156 736.1928100585938 L 339.196533203125 743.7489624023438 L 339.1655578613281 751.3524780273438 L 339.0334777832031 759.0032958984375 L 338.80029296875 766.7014770507812 L 338.4659729003906 774.4468994140625 L 338.0305480957031 782.2396850585938 L 337.4940185546875 790.0797729492188 L 336.85638427734375 797.9672241210938 L 336.11761474609375 805.9019165039062 L 335.2777404785156 813.8839721679688 L 334.33673095703125 821.913330078125 L 333.2946472167969 829.989990234375 L 332.15142822265625 838.114013671875 L 330.9070739746094 846.2853393554688 L 329.5616455078125 854.50390625 L 328.1150817871094 862.7698974609375 L 326.5674133300781 871.0831298828125 L 324.9186096191406 879.4437255859375 L 323.168701171875 887.8516235351562 L 321.31768798828125 896.3068237304688" stroke-opacity="0.800000011920929" stroke-linejoin="bevel" stroke-miterlimit="10" stroke-width="4" stroke-dasharray="2,4" clip-path="url(#NRhvGCuckEFL)"/><path fill="none" stroke="rgb(193,22,27)" paint-order="fill" d="M 14.064043998718262 668.2255249023438 L 22.16026496887207 664.4841918945312 L 30.231542587280273 660.84912109375 L 38.2778205871582 657.3204345703125 L 46.29912567138672 653.8980712890625 L 54.29546356201172 650.5819702148438 L 62.26682662963867 647.3721923828125 L 70.21321868896484 644.268798828125 L 78.1346435546875 641.2716674804688 L 86.03108978271484 638.380859375 L 93.90257263183594 635.596435546875 L 101.74907684326172 632.9182739257812 L 109.57061767578125 630.346435546875 L 117.36714935302734 627.8809204101562 L 125.13874816894531 625.521728515625 L 132.88534545898438 623.2688598632812 L 140.60699462890625 621.122314453125 L 148.30364990234375 619.0820922851562 L 155.97535705566406 617.1481323242188 L 163.62205505371094 615.320556640625 L 171.24380493164062 613.5993041992188 L 178.84056091308594 611.9843139648438 L 186.41236877441406 610.4757080078125 L 193.9591827392578 609.0733642578125 L 201.4810333251953 607.7774047851562 L 208.97792053222656 606.5877075195312 L 216.4498291015625 605.5043334960938 L 223.89675903320312 604.52734375 L 231.31871032714844 603.6566162109375 L 238.71571350097656 602.8922119140625 L 246.0877227783203 602.234130859375 L 253.43475341796875 601.682373046875 L 260.7568054199219 601.2369384765625 L 268.0539245605469 600.8978271484375 L 275.3260498046875 600.6650390625 L 282.57318115234375 600.53857421875 L 289.79534912109375 600.5183715820312 L 296.9925537109375 600.6045532226562 L 304.1647644042969 600.7970581054688 L 311.3120422363281 601.0958251953125 L 318.4342956542969 601.5009765625 L 325.5316162109375 602.0123901367188 L 332.60394287109375 602.6301879882812 L 339.65130615234375 603.354248046875 L 346.6737060546875 604.1846313476562 L 353.6711120605469 605.1213989257812 L 360.6435546875 606.1644287109375 L 367.5910339355469 607.3137817382812 L 374.5135192871094 608.5694580078125 L 381.4110412597656 609.9314575195312 L 388.2835998535156 611.3997802734375 L 395.13116455078125 612.9744262695312 L 401.9537658691406 614.6553955078125 L 408.75140380859375 616.4426879882812 L 415.5240783691406 618.3362426757812 L 422.2717590332031 620.336181640625 L 428.9944763183594 622.4424438476562 L 435.69219970703125 624.6549682617188 L 442.3649597167969 626.973876953125 L 449.01275634765625 629.3990478515625 L 455.6355895996094 631.9306030273438 L 462.2334289550781 634.5684204101562 L 468.8063049316406 637.3125610351562 L 475.35418701171875 640.1630859375 L 481.8771057128906 643.119873046875 L 488.37506103515625 646.1829833984375 L 494.8480529785156 649.3524169921875 L 501.2960510253906 652.628173828125 L 507.7190856933594 656.01025390625 L 514.1171264648438 659.4986572265625 L 520.490234375 663.0933837890625 L 526.83837890625 666.79443359375 L 533.1614990234375 670.6017456054688 L 539.4596557617188 674.5154418945312 L 545.7328491210938 678.5354614257812 L 551.9810791015625 682.6617431640625 L 558.204345703125 686.8944091796875 L 564.402587890625 691.2333374023438 L 570.575927734375 695.6786499023438 L 576.7242431640625 700.230224609375 L 582.8475952148438 704.8881225585938 L 588.9459838867188 709.6524047851562 L 595.0194091796875 714.52294921875 L 601.0678100585938 719.4998168945312 L 607.09130859375 724.5830078125 L 613.0897827148438 729.7725219726562 L 619.0632934570312 735.068359375 L 625.0118408203125 740.4705200195312 L 630.9354248046875 745.97900390625 L 636.833984375 751.59375 L 642.7076416015625 757.3148803710938 L 648.5562744140625 763.142333984375 L 654.3799438476562 769.0761108398438 L 660.1786499023438 775.1161499023438 L 665.952392578125 781.2625732421875 L 671.701171875 787.5152587890625 L 677.4249267578125 793.8743286132812 L 683.123779296875 800.3396606445312 L 688.797607421875 806.9113159179688 L 694.4464721679688 813.5892944335938" stroke-opacity="0.800000011920929" stroke-linejoin="bevel" stroke-miterlimit="10" stroke-width="4" stroke-dasharray="2,4" clip-path="url(#NRhvGCuckEFL)"/><path fill="none" stroke="rgb(193,22,27)" paint-order="fill" d="M 14.064043998718262 668.2255249023438 L 22.0916805267334 664.4310302734375 L 29.957124710083008 660.636474609375 L 37.660404205322266 656.8419799804688 L 45.201515197753906 653.0474853515625 L 52.58045959472656 649.2529907226562 L 59.797210693359375 645.45849609375 L 66.85179901123047 641.6639404296875 L 73.74421691894531 637.8694458007812 L 80.47444152832031 634.074951171875 L 87.04249572753906 630.2803955078125 L 93.44839477539062 626.4859008789062 L 99.6921157836914 622.69140625 L 105.77365112304688 618.8969116210938 L 111.6930160522461 615.1023559570312 L 117.4502182006836 611.307861328125 L 123.04522705078125 607.5133666992188 L 128.47806549072266 603.7188720703125 L 133.74874877929688 599.92431640625 L 138.8572235107422 596.1298217773438 L 143.8035430908203 592.3353271484375 L 148.5876922607422 588.5408325195312 L 153.2096710205078 584.7462768554688 L 157.66946411132812 580.9517822265625 L 161.9670867919922 577.1572875976562 L 166.10250854492188 573.3627319335938 L 170.0758056640625 569.5682373046875 L 173.88690185546875 565.7737426757812 L 177.5358123779297 561.979248046875 L 181.02256774902344 558.1846923828125 L 184.34713745117188 554.3901977539062 L 187.50955200195312 550.595703125 L 190.509765625 546.8012084960938 L 193.3478240966797 543.0066528320312 L 196.02369689941406 539.212158203125 L 198.5373992919922 535.4176635742188 L 200.88893127441406 531.6231689453125 L 203.07827758789062 527.82861328125 L 205.10546875 524.0341186523438 L 206.97047424316406 520.2396240234375 L 208.67330932617188 516.445068359375 L 210.21395874023438 512.6505737304688 L 211.59243774414062 508.8560791015625 L 212.80874633789062 505.0615539550781 L 213.86288452148438 501.2670593261719 L 214.7548370361328 497.4725341796875 L 215.484619140625 493.67803955078125 L 216.05223083496094 489.8835144042969 L 216.45767211914062 486.0890197753906 L 216.70094299316406 482.29449462890625 L 216.7820281982422 478.5 L 216.70094299316406 474.7054748535156 L 216.45767211914062 470.9109802246094 L 216.05223083496094 467.116455078125 L 215.484619140625 463.32196044921875 L 214.7548370361328 459.5274353027344 L 213.86288452148438 455.7329406738281 L 212.80874633789062 451.93841552734375 L 211.59243774414062 448.1438903808594 L 210.21395874023438 444.3493957519531 L 208.67330932617188 440.55487060546875 L 206.97047424316406 436.7603759765625 L 205.10546875 432.9658508300781 L 203.07827758789062 429.1713562011719 L 200.88893127441406 425.3768310546875 L 198.5373992919922 421.58233642578125 L 196.02369689941406 417.7878112792969 L 193.3478240966797 413.9933166503906 L 190.509765625 410.19879150390625 L 187.50955200195312 406.404296875 L 184.34713745117188 402.6097717285156 L 181.02256774902344 398.8152770996094 L 177.5358123779297 395.020751953125 L 173.88690185546875 391.22625732421875 L 170.0758056640625 387.4317321777344 L 166.10250854492188 383.63720703125 L 161.9670867919922 379.84271240234375 L 157.66946411132812 376.0481872558594 L 153.2096710205078 372.2536926269531 L 148.5876922607422 368.45916748046875 L 143.8035430908203 364.6646728515625 L 138.8572235107422 360.8701477050781 L 133.74874877929688 357.0756530761719 L 128.47806549072266 353.2811279296875 L 123.04522705078125 349.48663330078125 L 117.4502182006836 345.6921081542969 L 111.6930160522461 341.8975830078125 L 105.77365112304688 338.10308837890625 L 99.6921157836914 334.3085632324219 L 93.44839477539062 330.5140686035156 L 87.04249572753906 326.71954345703125 L 80.47444152832031 322.925048828125 L 73.74421691894531 319.1305236816406 L 66.85179901123047 315.3360290527344 L 59.797210693359375 311.54150390625 L 52.58045959472656 307.74700927734375 L 45.201515197753906 303.9524841308594 L 37.660404205322266 300.1579895019531 L 29.957124710083008 296.36346435546875 L 22.0916805267334 292.5689697265625" stroke-opacity="0.800000011920929" stroke-linejoin="bevel" stroke-miterlimit="10" stroke-width="4" stroke-dasharray="2,4" clip-path="url(#NRhvGCuckEFL)"/><path fill="none" stroke="rgb(193,22,27)" paint-order="fill" d="M 14.064043998718262 668.2255249023438 L 22.12220573425293 664.4073486328125 L 30.079246520996094 660.5418701171875 L 37.93519592285156 656.6290893554688 L 45.689998626708984 652.6689453125 L 53.34370803833008 648.6614990234375 L 60.896297454833984 644.6067504882812 L 68.34777069091797 640.5046997070312 L 75.69815063476562 636.3552856445312 L 82.94738006591797 632.1585693359375 L 90.09552001953125 627.9146118164062 L 97.14254760742188 623.6232299804688 L 104.08844757080078 619.2846069335938 L 110.93325805664062 614.8986206054688 L 117.67691802978516 610.46533203125 L 124.31948852539062 605.9847412109375 L 130.86094665527344 601.456787109375 L 137.30126953125 596.881591796875 L 143.64051818847656 592.259033203125 L 149.8786163330078 587.5891723632812 L 156.01560974121094 582.8719482421875 L 162.05149841308594 578.1074829101562 L 167.9862518310547 573.295654296875 L 173.8199005126953 568.4365234375 L 179.5524444580078 563.530029296875 L 185.1838836669922 558.5762939453125 L 190.71417236328125 553.5751953125 L 196.14337158203125 548.5267944335938 L 201.47146606445312 543.4310302734375 L 206.69842529296875 538.2880249023438 L 211.82427978515625 533.09765625 L 216.84902954101562 527.8599853515625 L 221.77264404296875 522.5750122070312 L 226.5951690673828 517.24267578125 L 231.31655883789062 511.8630676269531 L 235.9368438720703 506.4361267089844 L 240.45602416992188 500.9618835449219 L 244.8740692138672 495.4403076171875 L 249.19100952148438 489.8714294433594 L 253.40682983398438 484.2552185058594 L 257.52154541015625 478.5916748046875 L 261.53515625 472.880859375 L 265.4476318359375 467.1226806640625 L 269.2590026855469 461.3172302246094 L 272.9692687988281 455.46441650390625 L 276.5783996582031 449.5643310546875 L 280.08642578125 443.6169128417969 L 283.49334716796875 437.6221618652344 L 286.79913330078125 431.5801086425781 L 290.00384521484375 425.49072265625 L 293.1073913574219 419.3540344238281 L 296.10986328125 413.1700439453125 L 299.0111999511719 406.938720703125 L 301.8114318847656 400.6600646972656 L 304.51055908203125 394.3341064453125 L 307.1085510253906 387.9608459472656 L 309.6054382324219 381.5402526855469 L 312.001220703125 375.07232666015625 L 314.2958984375 368.5570983886719 L 316.48944091796875 361.99456787109375 L 318.58184814453125 355.38470458984375 L 320.57318115234375 348.7275390625 L 322.46337890625 342.0230407714844 L 324.2524719238281 335.271240234375 L 325.9404602050781 328.47210693359375 L 327.5273132324219 321.62567138671875 L 329.0130615234375 314.7319030761719 L 330.3976745605469 307.79083251953125 L 331.68121337890625 300.80242919921875 L 332.8636169433594 293.7667236328125 L 333.9449157714844 286.6837158203125 L 334.9250793457031 279.5533752441406 L 335.80413818359375 272.3757019042969 L 336.58209228515625 265.1507263183594 L 337.2589111328125 257.87841796875 L 337.83465576171875 250.55882263183594 L 338.30926513671875 243.19189453125 L 338.6827392578125 235.7776336669922 L 338.9551086425781 228.3160858154297 L 339.1263732910156 220.80722045898438 L 339.196533203125 213.2510223388672 L 339.16558837890625 205.64752197265625 L 339.03350830078125 197.99668884277344 L 338.80029296875 190.29855346679688 L 338.46600341796875 182.55308532714844 L 338.03057861328125 174.76031494140625 L 337.4940490722656 166.9202117919922 L 336.85638427734375 159.0327911376953 L 336.1176452636719 151.09808349609375 L 335.27777099609375 143.11602783203125 L 334.3367614746094 135.08665466308594 L 333.2946472167969 127.00997161865234 L 332.15142822265625 118.88597869873047 L 330.9071044921875 110.71469116210938 L 329.5616760253906 102.49604034423828 L 328.1151123046875 94.23011016845703 L 326.5674133300781 85.9168472290039 L 324.91864013671875 77.5562515258789 L 323.1687316894531 69.14835357666016 L 321.3177185058594 60.693153381347656" stroke-opacity="0.800000011920929" stroke-linejoin="bevel" stroke-miterlimit="10" stroke-width="4" stroke-dasharray="2,4" clip-path="url(#NRhvGCuckEFL)"/><path fill="none" stroke="rgb(193,22,27)" paint-order="fill" d="M 319.3655700683594 904.809326171875 L 321.31768798828125 896.3068237304688 L 323.168701171875 887.8516235351562 L 324.9186096191406 879.4437255859375 L 326.5674133300781 871.0831298828125 L 328.1150817871094 862.7698974609375 L 329.5616455078125 854.50390625 L 330.9070739746094 846.2853393554688 L 332.15142822265625 838.114013671875 L 333.2946472167969 829.989990234375 L 334.33673095703125 821.913330078125 L 335.2777404785156 813.8839721679688 L 336.11761474609375 805.9019165039062 L 336.85638427734375 797.9672241210938 L 337.4940185546875 790.0797729492188 L 338.0305480957031 782.2396850585938 L 338.4659729003906 774.4468994140625 L 338.80029296875 766.7014770507812 L 339.0334777832031 759.0032958984375 L 339.1655578613281 751.3524780273438 L 339.196533203125 743.7489624023438 L 339.1263732910156 736.1928100585938 L 338.9551086425781 728.6838989257812 L 338.6827392578125 721.2223510742188 L 338.3092346191406 713.80810546875 L 337.8346252441406 706.441162109375 L 337.2589111328125 699.12158203125 L 336.5820617675781 691.8492431640625 L 335.80413818359375 684.624267578125 L 334.9250793457031 677.4466552734375 L 333.94488525390625 670.3162841796875 L 332.86358642578125 663.2332763671875 L 331.6811828613281 656.1975708007812 L 330.3976745605469 649.2091674804688 L 329.0130310058594 642.26806640625 L 327.52728271484375 635.3743286132812 L 325.9404296875 628.5278930664062 L 324.2524719238281 621.728759765625 L 322.46337890625 614.9769287109375 L 320.5731506347656 608.2724609375 L 318.58184814453125 601.6152954101562 L 316.4894104003906 595.0054321289062 L 314.2958679199219 588.44287109375 L 312.001220703125 581.9276733398438 L 309.6054382324219 575.4597778320312 L 307.1085510253906 569.0391845703125 L 304.51055908203125 562.6658935546875 L 301.8114318847656 556.3399047851562 L 299.0111999511719 550.061279296875 L 296.10986328125 543.8299560546875 L 293.1073913574219 537.6459350585938 L 290.00384521484375 531.50927734375 L 286.79913330078125 525.4198608398438 L 283.49334716796875 519.3778076171875 L 280.08642578125 513.3831176757812 L 276.5783996582031 507.4356689453125 L 272.9692687988281 501.5355529785156 L 269.2590026855469 495.6827697753906 L 265.4476318359375 489.8772888183594 L 261.53515625 484.119140625 L 257.52154541015625 478.4082946777344 L 253.40682983398438 472.7447814941406 L 249.19100952148438 467.1285705566406 L 244.87405395507812 461.5596923828125 L 240.4560089111328 456.0381164550781 L 235.9368438720703 450.5638427734375 L 231.31654357910156 445.13690185546875 L 226.59515380859375 439.7572937011719 L 221.77264404296875 434.42498779296875 L 216.84902954101562 429.1399841308594 L 211.82427978515625 423.9023132324219 L 206.69842529296875 418.71197509765625 L 201.47146606445312 413.5689392089844 L 196.14337158203125 408.47320556640625 L 190.71417236328125 403.4248046875 L 185.18385314941406 398.4237060546875 L 179.5524444580078 393.4699401855469 L 173.8199005126953 388.5634765625 L 167.9862518310547 383.704345703125 L 162.05149841308594 378.89251708984375 L 156.01560974121094 374.1280212402344 L 149.8786163330078 369.41082763671875 L 143.64051818847656 364.740966796875 L 137.30126953125 360.118408203125 L 130.86094665527344 355.54315185546875 L 124.31948852539062 351.0152282714844 L 117.67691802978516 346.5346374511719 L 110.93325805664062 342.1013488769531 L 104.08844757080078 337.71539306640625 L 97.14254760742188 333.3767395019531 L 90.09552001953125 329.08538818359375 L 82.94738006591797 324.84136962890625 L 75.69815063476562 320.6446533203125 L 68.34777069091797 316.4952697753906 L 60.896297454833984 312.3932189941406 L 53.34370803833008 308.3384704589844 L 45.689998626708984 304.3310241699219 L 37.93519592285156 300.37091064453125 L 30.079246520996094 296.4580993652344 L 22.12220573425293 292.5926208496094" stroke-opacity="0.800000011920929" stroke-linejoin="bevel" stroke-miterlimit="10" stroke-width="4" stroke-dasharray="2,4" clip-path="url(#NRhvGCuckEFL)"/><path fill="none" stroke="rgb(195,22,27)" paint-order="fill" d="M 319.3655700683594 904.809326171875 L 321.38629150390625 896.3599853515625 L 323.443115234375 888.0642700195312 L 325.5360107421875 879.9221801757812 L 327.6650085449219 871.9337158203125 L 329.830078125 864.098876953125 L 332.03125 856.417724609375 L 334.2685241699219 848.89013671875 L 336.5418701171875 841.5162353515625 L 338.8512878417969 834.2959594726562 L 341.1968078613281 827.2293090820312 L 343.5783996582031 820.3163452148438 L 345.99609375 813.5569458007812 L 348.44989013671875 806.9512329101562 L 350.93975830078125 800.4991455078125 L 353.4656982421875 794.20068359375 L 356.0277404785156 788.0558471679688 L 358.6258544921875 782.064697265625 L 361.26007080078125 776.2271118164062 L 363.9303894042969 770.543212890625 L 366.63677978515625 765.012939453125 L 369.3792419433594 759.6362915039062 L 372.1578063964844 754.4132690429688 L 374.97247314453125 749.3439331054688 L 377.8232116699219 744.42822265625 L 380.71002197265625 739.6661376953125 L 383.6329345703125 735.0576782226562 L 386.5919494628906 730.6028442382812 L 389.5870361328125 726.3016357421875 L 392.6181945800781 722.1541137695312 L 395.6854553222656 718.1602172851562 L 398.788818359375 714.3199462890625 L 401.9282531738281 710.63330078125 L 405.103759765625 707.1002807617188 L 408.31536865234375 703.720947265625 L 411.5630798339844 700.4952392578125 L 414.84686279296875 697.4231567382812 L 418.1667175292969 694.5046997070312 L 421.5226745605469 691.7398681640625 L 424.91473388671875 689.1287231445312 L 428.3428649902344 686.671142578125 L 431.80706787109375 684.3672485351562 L 435.307373046875 682.2169799804688 L 438.8437805175781 680.2203369140625 L 442.416259765625 678.3773803710938 L 446.02484130859375 676.68798828125 L 449.66949462890625 675.1522827148438 L 453.3502197265625 673.7702026367188 L 457.0670471191406 672.541748046875 L 460.8199768066406 671.4669189453125 L 464.6089782714844 670.5457153320312 L 468.43408203125 669.7781982421875 L 472.2952575683594 669.164306640625 L 476.1925048828125 668.7040405273438 L 480.1258850097656 668.3973999023438 L 484.0953063964844 668.2444458007812 L 488.100830078125 668.2450561523438 L 492.1424560546875 668.3993530273438 L 496.22015380859375 668.707275390625 L 500.3339538574219 669.1688232421875 L 504.48382568359375 669.7839965820312 L 508.6697692871094 670.5528564453125 L 512.891845703125 671.4752807617188 L 517.1499633789062 672.5513916015625 L 521.4442138671875 673.7811279296875 L 525.7745361328125 675.1644897460938 L 530.1409301757812 676.7015380859375 L 534.5433959960938 678.3921508789062 L 538.9819946289062 680.2364501953125 L 543.4566040039062 682.234375 L 547.9674072265625 684.3859252929688 L 552.5142211914062 686.6911010742188 L 557.0971069335938 689.1499633789062 L 561.7161254882812 691.7623901367188 L 566.3712158203125 694.5285034179688 L 571.0624389648438 697.4482421875 L 575.7896728515625 700.5216064453125 L 580.5530395507812 703.7486572265625 L 585.3524780273438 707.1292724609375 L 590.1880493164062 710.66357421875 L 595.0596313476562 714.3515014648438 L 599.9673461914062 718.1930541992188 L 604.9111328125 722.188232421875 L 609.8910522460938 726.3370971679688 L 614.906982421875 730.6395874023438 L 619.9590454101562 735.0956420898438 L 625.0471801757812 739.7053833007812 L 630.1714477539062 744.46875 L 635.3317260742188 749.3858032226562 L 640.5281372070312 754.4564819335938 L 645.7606201171875 759.6807250976562 L 651.0292358398438 765.0586547851562 L 656.3338623046875 770.5902099609375 L 661.6746215820312 776.2754516601562 L 667.0514526367188 782.1142578125 L 672.4644165039062 788.1067504882812 L 677.9134521484375 794.2528686523438 L 683.3984985351562 800.5525512695312 L 688.9197387695312 807.0059814453125 L 694.4769897460938 813.6129760742188" stroke-opacity="0.800000011920929" stroke-linejoin="bevel" stroke-miterlimit="10" stroke-width="3.9600000381469727" stroke-dasharray="2,4" clip-path="url(#NRhvGCuckEFL)"/><path fill="none" stroke="rgb(195,22,27)" paint-order="fill" d="M 319.3655700683594 904.809326171875 L 321.31768798828125 896.3447875976562 L 323.168701171875 888.00341796875 L 324.9186096191406 879.7852172851562 L 326.5674133300781 871.6902465820312 L 328.1150817871094 863.718505859375 L 329.5616455078125 855.8699951171875 L 330.9070739746094 848.1446533203125 L 332.15142822265625 840.54248046875 L 333.2946472167969 833.0635375976562 L 334.33673095703125 825.7078247070312 L 335.2777404785156 818.475341796875 L 336.11761474609375 811.3660278320312 L 336.85638427734375 804.3799438476562 L 337.4940185546875 797.5170288085938 L 338.0305480957031 790.77734375 L 338.4659729003906 784.1608276367188 L 338.80029296875 777.6676025390625 L 339.0334777832031 771.2975463867188 L 339.1655578613281 765.0506591796875 L 339.196533203125 758.927001953125 L 339.1263732910156 752.9265747070312 L 338.9551086425781 747.04931640625 L 338.6827392578125 741.2952880859375 L 338.3092346191406 735.6644897460938 L 337.8346252441406 730.1568603515625 L 337.2589111328125 724.7724609375 L 336.5820617675781 719.51123046875 L 335.80413818359375 714.373291015625 L 334.9250793457031 709.3584594726562 L 333.94488525390625 704.4668579101562 L 332.86358642578125 699.698486328125 L 331.6811828613281 695.0533447265625 L 330.3976745605469 690.5313720703125 L 329.0130310058594 686.1326293945312 L 327.52728271484375 681.8571166992188 L 325.9404296875 677.7047729492188 L 324.2524719238281 673.6755981445312 L 322.46337890625 669.7697143554688 L 320.5731506347656 665.9869384765625 L 318.58184814453125 662.3274536132812 L 316.4894104003906 658.7911376953125 L 314.2958679199219 655.3780517578125 L 312.001220703125 652.088134765625 L 309.6054382324219 648.9215087890625 L 307.1085510253906 645.8779907226562 L 304.51055908203125 642.9577026367188 L 301.8114318847656 640.16064453125 L 299.0111999511719 637.48681640625 L 296.10986328125 634.9361572265625 L 293.1073913574219 632.5087280273438 L 290.00384521484375 630.2044677734375 L 286.79913330078125 628.0234375 L 283.49334716796875 625.9656372070312 L 280.08642578125 624.031005859375 L 276.5783996582031 622.2196044921875 L 272.9692687988281 620.5314331054688 L 269.2590026855469 618.9664306640625 L 265.4476318359375 617.524658203125 L 261.53515625 616.2060546875 L 257.52154541015625 615.0106811523438 L 253.40682983398438 613.9385375976562 L 249.19100952148438 612.9895629882812 L 244.87405395507812 612.163818359375 L 240.4560089111328 611.4612426757812 L 235.9368438720703 610.8819580078125 L 231.31654357910156 610.42578125 L 226.59515380859375 610.0928955078125 L 221.77264404296875 609.8831787109375 L 216.84902954101562 609.796630859375 L 211.82427978515625 609.8333740234375 L 206.69842529296875 609.9932861328125 L 201.47146606445312 610.2763671875 L 196.14337158203125 610.6826782226562 L 190.71417236328125 611.2122192382812 L 185.18385314941406 611.8649291992188 L 179.5524444580078 612.640869140625 L 173.8199005126953 613.5400390625 L 167.9862518310547 614.5623779296875 L 162.05149841308594 615.7079467773438 L 156.01560974121094 616.9766845703125 L 149.8786163330078 618.36865234375 L 143.64051818847656 619.8838500976562 L 137.30126953125 621.5222778320312 L 130.86094665527344 623.2838745117188 L 124.31948852539062 625.1686401367188 L 117.67691802978516 627.1766357421875 L 110.93325805664062 629.307861328125 L 104.08844757080078 631.5623168945312 L 97.14254760742188 633.93994140625 L 90.09552001953125 636.4407958984375 L 82.94738006591797 639.0648193359375 L 75.69815063476562 641.8120727539062 L 68.34777069091797 644.6824951171875 L 60.896297454833984 647.6762084960938 L 53.34370803833008 650.7930908203125 L 45.689998626708984 654.0331420898438 L 37.93519592285156 657.3964233398438 L 30.079246520996094 660.8829345703125 L 22.12220573425293 664.4926147460938" stroke-opacity="0.800000011920929" stroke-linejoin="bevel" stroke-miterlimit="10" stroke-width="3.9600000381469727" stroke-dasharray="2,4" clip-path="url(#NRhvGCuckEFL)"/><path fill="none" stroke="rgb(193,22,27)" paint-order="fill" d="M 319.3655700683594 904.809326171875 L 321.3482360839844 896.283203125 L 323.29083251953125 887.7569580078125 L 325.1933898925781 879.2308349609375 L 327.0558776855469 870.70458984375 L 328.8783264160156 862.1784057617188 L 330.6607360839844 853.6522216796875 L 332.403076171875 845.1260375976562 L 334.1053466796875 836.599853515625 L 335.767578125 828.0736694335938 L 337.3897705078125 819.5474853515625 L 338.9718933105469 811.0213012695312 L 340.5139465332031 802.4951171875 L 342.0159606933594 793.9689331054688 L 343.4779357910156 785.4427490234375 L 344.89984130859375 776.9165649414062 L 346.2817077636719 768.390380859375 L 347.6235046386719 759.8641967773438 L 348.92523193359375 751.3380126953125 L 350.18695068359375 742.8118286132812 L 351.4085693359375 734.2855834960938 L 352.5901794433594 725.7594604492188 L 353.731689453125 717.2332153320312 L 354.83319091796875 708.7070922851562 L 355.89459228515625 700.1808471679688 L 356.9159851074219 691.6546630859375 L 357.8973083496094 683.1284790039062 L 358.83856201171875 674.602294921875 L 359.7397766113281 666.0761108398438 L 360.6009216308594 657.5499267578125 L 361.4220275878906 649.0237426757812 L 362.20306396484375 640.49755859375 L 362.9440612792969 631.9713745117188 L 363.64501953125 623.4451904296875 L 364.305908203125 614.9190063476562 L 364.9267272949219 606.392822265625 L 365.50750732421875 597.8666381835938 L 366.0482482910156 589.3404541015625 L 366.5489196777344 580.8142700195312 L 367.009521484375 572.2880859375 L 367.4300842285156 563.7618408203125 L 367.81060791015625 555.2356567382812 L 368.15106201171875 546.70947265625 L 368.45147705078125 538.1832885742188 L 368.7118225097656 529.6571044921875 L 368.9320983886719 521.1309204101562 L 369.11236572265625 512.604736328125 L 369.2525329589844 504.07855224609375 L 369.3526916503906 495.5523681640625 L 369.4127502441406 487.02618408203125 L 369.43280029296875 478.5 L 369.4127502441406 469.97381591796875 L 369.3526916503906 461.4476318359375 L 369.2525329589844 452.92144775390625 L 369.11236572265625 444.3952331542969 L 368.93212890625 435.8690490722656 L 368.7118225097656 427.3428649902344 L 368.45147705078125 418.8166809082031 L 368.15106201171875 410.2904968261719 L 367.81060791015625 401.7643127441406 L 367.43011474609375 393.2381286621094 L 367.0095520019531 384.7119445800781 L 366.5489196777344 376.1857604980469 L 366.0482482910156 367.6595764160156 L 365.50750732421875 359.1333923339844 L 364.9267578125 350.607177734375 L 364.305908203125 342.08099365234375 L 363.64501953125 333.5548095703125 L 362.944091796875 325.02862548828125 L 362.2030944824219 316.50244140625 L 361.4220275878906 307.97625732421875 L 360.6009216308594 299.4500427246094 L 359.7397766113281 290.9238586425781 L 358.83856201171875 282.3976745605469 L 357.8973083496094 273.8714904785156 L 356.9159851074219 265.3453063964844 L 355.8946228027344 256.8191223144531 L 354.83319091796875 248.29293823242188 L 353.7317199707031 239.76675415039062 L 352.5901794433594 231.2405548095703 L 351.4085998535156 222.71438598632812 L 350.18695068359375 214.1881866455078 L 348.9252624511719 205.66201782226562 L 347.6235046386719 197.1358184814453 L 346.2817077636719 188.60960388183594 L 344.8998718261719 180.08343505859375 L 343.47796630859375 171.55723571777344 L 342.0159912109375 163.03106689453125 L 340.51397705078125 154.50486755371094 L 338.9718933105469 145.9786834716797 L 337.3897705078125 137.45248413085938 L 335.7676086425781 128.9263153076172 L 334.1053771972656 120.40011596679688 L 332.403076171875 111.87393951416016 L 330.6607666015625 103.34774017333984 L 328.87835693359375 94.82156372070312 L 327.055908203125 86.29536437988281 L 325.19342041015625 77.7691879272461 L 323.2908630371094 69.24298858642578 L 321.3482360839844 60.71681594848633" stroke-opacity="0.800000011920929" stroke-linejoin="bevel" stroke-miterlimit="10" stroke-width="4" stroke-dasharray="2,4" clip-path="url(#NRhvGCuckEFL)"/><path fill="none" stroke="rgb(193,22,27)" paint-order="fill" d="M 700.0703735351562 820.3736572265625 L 694.4464721679688 813.5892944335938 L 688.797607421875 806.9113159179688 L 683.123779296875 800.3396606445312 L 677.4249267578125 793.8743286132812 L 671.701171875 787.5152587890625 L 665.952392578125 781.2625732421875 L 660.1786499023438 775.1161499023438 L 654.3799438476562 769.0761108398438 L 648.5562744140625 763.142333984375 L 642.7076416015625 757.3148803710938 L 636.833984375 751.59375 L 630.9354248046875 745.97900390625 L 625.0118408203125 740.4705200195312 L 619.0632934570312 735.068359375 L 613.0897827148438 729.7725219726562 L 607.09130859375 724.5830078125 L 601.0678100585938 719.4998168945312 L 595.0194091796875 714.52294921875 L 588.9459838867188 709.6524047851562 L 582.8475952148438 704.8881225585938 L 576.7242431640625 700.230224609375 L 570.575927734375 695.6786499023438 L 564.402587890625 691.2333374023438 L 558.204345703125 686.8944091796875 L 551.9810791015625 682.6617431640625 L 545.7328491210938 678.5354614257812 L 539.4596557617188 674.5154418945312 L 533.1614990234375 670.6017456054688 L 526.83837890625 666.79443359375 L 520.490234375 663.0933837890625 L 514.1171264648438 659.4986572265625 L 507.7190856933594 656.01025390625 L 501.2960510253906 652.628173828125 L 494.8480529785156 649.3524169921875 L 488.37506103515625 646.1829833984375 L 481.8771057128906 643.119873046875 L 475.35418701171875 640.1630859375 L 468.8063049316406 637.3125610351562 L 462.2334289550781 634.5684204101562 L 455.6355895996094 631.9306030273438 L 449.01275634765625 629.3990478515625 L 442.3649597167969 626.973876953125 L 435.69219970703125 624.6549682617188 L 428.9944763183594 622.4424438476562 L 422.2717590332031 620.336181640625 L 415.5240783691406 618.3362426757812 L 408.75140380859375 616.4426879882812 L 401.9537658691406 614.6553955078125 L 395.13116455078125 612.9744262695312 L 388.2835998535156 611.3997802734375 L 381.4110412597656 609.9314575195312 L 374.5135192871094 608.5694580078125 L 367.5910339355469 607.3137817382812 L 360.6435546875 606.1644287109375 L 353.6711120605469 605.1213989257812 L 346.6737060546875 604.1846313476562 L 339.65130615234375 603.354248046875 L 332.60394287109375 602.6301879882812 L 325.5316162109375 602.0123901367188 L 318.4342956542969 601.5009765625 L 311.3120422363281 601.0958251953125 L 304.1647644042969 600.7970581054688 L 296.9925537109375 600.6045532226562 L 289.79534912109375 600.5183715820312 L 282.57318115234375 600.53857421875 L 275.3260498046875 600.6650390625 L 268.0539245605469 600.8978271484375 L 260.7568054199219 601.2369384765625 L 253.43475341796875 601.682373046875 L 246.0877227783203 602.234130859375 L 238.71571350097656 602.8922119140625 L 231.31871032714844 603.6566162109375 L 223.89675903320312 604.52734375 L 216.4498291015625 605.5043334960938 L 208.97792053222656 606.5877075195312 L 201.4810333251953 607.7774047851562 L 193.9591827392578 609.0733642578125 L 186.41236877441406 610.4757080078125 L 178.84056091308594 611.9843139648438 L 171.24380493164062 613.5993041992188 L 163.62205505371094 615.320556640625 L 155.97535705566406 617.1481323242188 L 148.30364990234375 619.0820922851562 L 140.60699462890625 621.122314453125 L 132.88534545898438 623.2688598632812 L 125.13874816894531 625.521728515625 L 117.36714935302734 627.8809204101562 L 109.57061767578125 630.346435546875 L 101.74907684326172 632.9182739257812 L 93.90257263183594 635.596435546875 L 86.03108978271484 638.380859375 L 78.1346435546875 641.2716674804688 L 70.21321868896484 644.268798828125 L 62.26682662963867 647.3721923828125 L 54.29546356201172 650.5819702148438 L 46.29912567138672 653.8980712890625 L 38.2778205871582 657.3204345703125 L 30.231542587280273 660.84912109375 L 22.16026496887207 664.4841918945312" stroke-opacity="0.800000011920929" stroke-linejoin="bevel" stroke-miterlimit="10" stroke-width="4" stroke-dasharray="2,4" clip-path="url(#NRhvGCuckEFL)"/><path fill="none" stroke="rgb(193,22,27)" paint-order="fill" d="M 700.0703735351562 820.3736572265625 L 694.4464721679688 813.5513916015625 L 688.797607421875 806.759521484375 L 683.123779296875 799.9981689453125 L 677.4249267578125 793.2671508789062 L 671.701171875 786.566650390625 L 665.952392578125 779.8965454101562 L 660.1786499023438 773.2568359375 L 654.3799438476562 766.6475830078125 L 648.5562744140625 760.0687866210938 L 642.7076416015625 753.5203857421875 L 636.833984375 747.00244140625 L 630.9354248046875 740.514892578125 L 625.0118408203125 734.0578002929688 L 619.0632934570312 727.631103515625 L 613.0897827148438 721.23486328125 L 607.09130859375 714.8690795898438 L 601.0678100585938 708.53369140625 L 595.0194091796875 702.2286987304688 L 588.9459838867188 695.9542236328125 L 582.8475952148438 689.7100830078125 L 576.7242431640625 683.4964599609375 L 570.575927734375 677.313232421875 L 564.402587890625 671.160400390625 L 558.204345703125 665.0380249023438 L 551.9810791015625 658.946044921875 L 545.7328491210938 652.8845825195312 L 539.4596557617188 646.8534545898438 L 533.1614990234375 640.8528442382812 L 526.83837890625 634.882568359375 L 520.490234375 628.9427490234375 L 514.1171264648438 623.0333862304688 L 507.7190856933594 617.1544799804688 L 501.2960510253906 611.3059692382812 L 494.8480529785156 605.4878540039062 L 488.37506103515625 599.7001953125 L 481.8771057128906 593.9429931640625 L 475.35418701171875 588.2161865234375 L 468.8063049316406 582.5198364257812 L 462.2334289550781 576.8539428710938 L 455.6355895996094 571.2184448242188 L 449.01275634765625 565.6133422851562 L 442.3649597167969 560.0386962890625 L 435.69219970703125 554.4945068359375 L 428.9944763183594 548.980712890625 L 422.2717590332031 543.4973754882812 L 415.5240783691406 538.04443359375 L 408.75140380859375 532.6219482421875 L 401.9537658691406 527.2298583984375 L 395.13116455078125 521.8682250976562 L 388.2835998535156 516.5370483398438 L 381.4110412597656 511.2362365722656 L 374.5135192871094 505.96588134765625 L 367.5910339355469 500.7259826660156 L 360.6435546875 495.5164794921875 L 353.6711120605469 490.3374328613281 L 346.6737060546875 485.1888122558594 L 339.65130615234375 480.0705871582031 L 332.60394287109375 474.9828186035156 L 325.5316162109375 469.92547607421875 L 318.4342956542969 464.8985900878906 L 311.3120422363281 459.902099609375 L 304.1647644042969 454.93603515625 L 296.9925537109375 450.00042724609375 L 289.79534912109375 445.0952453613281 L 282.57318115234375 440.220458984375 L 275.3260498046875 435.3761291503906 L 268.0539245605469 430.5622253417969 L 260.7568054199219 425.77874755859375 L 253.43475341796875 421.0257263183594 L 246.0877227783203 416.3031005859375 L 238.71571350097656 411.6109313964844 L 231.31871032714844 406.94915771484375 L 223.89675903320312 402.3178405761719 L 216.4498291015625 397.7169494628906 L 208.97792053222656 393.146484375 L 201.4810333251953 388.6064453125 L 193.9591827392578 384.0968322753906 L 186.41236877441406 379.6176452636719 L 178.84056091308594 375.1689147949219 L 171.24380493164062 370.7505798339844 L 163.62205505371094 366.3627014160156 L 155.97535705566406 362.0052490234375 L 148.30364990234375 357.67822265625 L 140.60699462890625 353.3816223144531 L 132.88534545898438 349.1154479980469 L 125.13874816894531 344.87969970703125 L 117.36714935302734 340.67437744140625 L 109.57061767578125 336.49951171875 L 101.74907684326172 332.35504150390625 L 93.90257263183594 328.24102783203125 L 86.03108978271484 324.1574401855469 L 78.1346435546875 320.1042785644531 L 70.21321868896484 316.08154296875 L 62.26682662963867 312.0892333984375 L 54.29546356201172 308.12738037109375 L 46.29912567138672 304.1959228515625 L 38.2778205871582 300.2948913574219 L 30.231542587280273 296.42431640625 L 22.16026496887207 292.58416748046875" stroke-opacity="0.800000011920929" stroke-linejoin="bevel" stroke-miterlimit="10" stroke-width="4" stroke-dasharray="2,4" clip-path="url(#NRhvGCuckEFL)"/><path fill="none" stroke="rgb(193,22,27)" paint-order="fill" d="M 700.0703735351562 820.3736572265625 L 694.4769897460938 813.5277099609375 L 688.9197387695312 806.6649169921875 L 683.3984985351562 799.7852172851562 L 677.9134521484375 792.888671875 L 672.4644165039062 785.9751586914062 L 667.0514526367188 779.0447998046875 L 661.6746215820312 772.0975952148438 L 656.3338623046875 765.1334838867188 L 651.0292358398438 758.1524658203125 L 645.7606201171875 751.154541015625 L 640.5281372070312 744.1397705078125 L 635.3317260742188 737.1080932617188 L 630.1714477539062 730.0595092773438 L 625.0471801757812 722.9940795898438 L 619.9590454101562 715.9117431640625 L 614.906982421875 708.8125 L 609.8910522460938 701.6964111328125 L 604.9111328125 694.5634155273438 L 599.9673461914062 687.4135131835938 L 595.0596313476562 680.2467651367188 L 590.1880493164062 673.0631103515625 L 585.3524780273438 665.862548828125 L 580.5530395507812 658.6451416015625 L 575.7896728515625 651.4107666015625 L 571.0624389648438 644.1596069335938 L 566.3712768554688 636.8914794921875 L 561.7161254882812 629.6065063476562 L 557.0971069335938 622.3046264648438 L 552.5142211914062 614.9859008789062 L 547.9674072265625 607.6502685546875 L 543.4566040039062 600.2977294921875 L 538.9819946289062 592.9282836914062 L 534.5433959960938 585.5419921875 L 530.1409301757812 578.1387939453125 L 525.7745361328125 570.7186889648438 L 521.4442138671875 563.28173828125 L 517.1499633789062 555.827880859375 L 512.891845703125 548.357177734375 L 508.6697692871094 540.8695068359375 L 504.48382568359375 533.364990234375 L 500.3339538574219 525.8436279296875 L 496.22015380859375 518.3052978515625 L 492.1424560546875 510.7501525878906 L 488.100830078125 503.1780700683594 L 484.0953063964844 495.589111328125 L 480.1258850097656 487.9832763671875 L 476.1925354003906 480.3605651855469 L 472.2952575683594 472.720947265625 L 468.43408203125 465.064453125 L 464.6089782714844 457.39105224609375 L 460.8199768066406 449.7007751464844 L 457.06707763671875 441.9936218261719 L 453.3502502441406 434.26959228515625 L 449.66949462890625 426.5286560058594 L 446.02484130859375 418.77081298828125 L 442.416259765625 410.9961242675781 L 438.8437805175781 403.20452880859375 L 435.3074035644531 395.3960266113281 L 431.8070983886719 387.5706481933594 L 428.3428649902344 379.7283935546875 L 424.91473388671875 371.8692626953125 L 421.522705078125 363.99322509765625 L 418.166748046875 356.1003112792969 L 414.84686279296875 348.1905212402344 L 411.5630798339844 340.2637939453125 L 408.31536865234375 332.3202209472656 L 405.103759765625 324.3597717285156 L 401.9282531738281 316.3824157714844 L 398.788818359375 308.3881530761719 L 395.68548583984375 300.3770446777344 L 392.61822509765625 292.3490295410156 L 389.5870361328125 284.3041076660156 L 386.5919494628906 276.2423095703125 L 383.6329650878906 268.16363525390625 L 380.7100524902344 260.0680847167969 L 377.8232116699219 251.9556427001953 L 374.97247314453125 243.82627868652344 L 372.1578369140625 235.6800537109375 L 369.3792724609375 227.51695251464844 L 366.63677978515625 219.33694458007812 L 363.9303894042969 211.1400604248047 L 361.2601013183594 202.92628479003906 L 358.6258850097656 194.69561767578125 L 356.02777099609375 186.44805908203125 L 353.4657287597656 178.1836395263672 L 350.93975830078125 169.90231323242188 L 348.44989013671875 161.6040802001953 L 345.9961242675781 153.28900146484375 L 343.57843017578125 144.95703125 L 341.19683837890625 136.60813903808594 L 338.851318359375 128.2423858642578 L 336.5418701171875 119.8597412109375 L 334.2685546875 111.460205078125 L 332.0312805175781 103.04378509521484 L 329.8301086425781 94.61048126220703 L 327.6650390625 86.1602783203125 L 325.5360412597656 77.69319152832031 L 323.4431457519531 69.20921325683594 L 321.3863220214844 60.7083740234375" stroke-opacity="0.800000011920929" stroke-linejoin="bevel" stroke-miterlimit="10" stroke-width="4" stroke-dasharray="2,4" clip-path="url(#NRhvGCuckEFL)"/><path fill="none" stroke="none"/><path fill="rgb(226,0,39)" stroke="rgb(0,0,0)" paint-order="fill" d="M 877 478.5 A 7.5 7.5 0 1 1 876.9999962500003 478.49250000125" fill-opacity="1" clip-path="url(#NRhvGCuckEFL)" stroke-opacity="1" stroke-linejoin="bevel" stroke-miterlimit="10" stroke-dasharray=""/><path fill="rgb(91,17,60)" stroke="rgb(0,0,0)" paint-order="fill" d="M 707.5704345703125 136.62640380859375 A 7.5 7.5 0 1 1 707.5704308203128 136.61890380984374" fill-opacity="1" clip-path="url(#NRhvGCuckEFL)" stroke-opacity="1" stroke-linejoin="bevel" stroke-miterlimit="10" stroke-dasharray=""/><path fill="rgb(255,52,255)" stroke="rgb(0,0,0)" paint-order="fill" d="M 326.8656005859375 52.190616607666016 A 7.5 7.5 0 1 1 326.8655968359378 52.18311660891601" fill-opacity="1" clip-path="url(#NRhvGCuckEFL)" stroke-opacity="1" stroke-linejoin="bevel" stroke-miterlimit="10" stroke-dasharray=""/><path fill="rgb(0,0,166)" stroke="rgb(0,0,0)" paint-order="fill" d="M 21.56404399871826 288.7744445800781 A 7.5 7.5 0 1 1 21.564040248718573 288.7669445813281" fill-opacity="1" clip-path="url(#NRhvGCuckEFL)" stroke-opacity="1" stroke-linejoin="bevel" stroke-miterlimit="10" stroke-dasharray=""/><path fill="rgb(73,75,90)" stroke="rgb(0,0,0)" paint-order="fill" d="M 21.56404399871826 668.2255249023438 A 7.5 7.5 0 1 1 21.564040248718573 668.2180249035938" fill-opacity="1" clip-path="url(#NRhvGCuckEFL)" stroke-opacity="1" stroke-linejoin="bevel" stroke-miterlimit="10" stroke-dasharray=""/><path fill="rgb(0,134,237)" stroke="rgb(0,0,0)" paint-order="fill" d="M 326.8655700683594 904.809326171875 A 7.5 7.5 0 1 1 326.8655663183597 904.801826173125" fill-opacity="1" clip-path="url(#NRhvGCuckEFL)" stroke-opacity="1" stroke-linejoin="bevel" stroke-miterlimit="10" stroke-dasharray=""/><path fill="rgb(188,101,233)" stroke="rgb(0,0,0)" paint-order="fill" d="M 707.5703735351562 820.3736572265625 A 7.5 7.5 0 1 1 707.5703697851566 820.3661572278126" fill-opacity="1" clip-path="url(#NRhvGCuckEFL)" stroke-opacity="1" stroke-linejoin="bevel" stroke-miterlimit="10" stroke-dasharray=""/><path fill="none" stroke="none"/><text fill="rgb(68,68,68)" stroke="none" font-family="helvetica" font-size="12px" font-style="normal" font-weight="normal" text-decoration="normal" x="0" y="0" text-anchor="start" dominant-baseline="text-after-edge" transform="matrix(1, 0, 0, 1, 874.5, 473.5)" fill-opacity="1">Miniopterus fuliginosus</text><path fill="none" stroke="none"/><text fill="rgb(68,68,68)" stroke="none" font-family="helvetica" font-size="12px" font-style="normal" font-weight="normal" text-decoration="normal" x="0" y="0" text-anchor="start" dominant-baseline="text-after-edge" transform="matrix(1, 0, 0, 1, 705.0704345703125, 131.62640380859375)" fill-opacity="1">Miniopterus magnater</text><path fill="none" stroke="none"/><text fill="rgb(68,68,68)" stroke="none" font-family="helvetica" font-size="12px" font-style="normal" font-weight="normal" text-decoration="normal" x="0" y="0" text-anchor="start" dominant-baseline="text-after-edge" transform="matrix(1, 0, 0, 1, 324.3656005859375, 47.190616607666016)" fill-opacity="1">Rhinolophus affinis</text><path fill="none" stroke="none"/><text fill="rgb(68,68,68)" stroke="none" font-family="helvetica" font-size="12px" font-style="normal" font-weight="normal" text-decoration="normal" x="0" y="0" text-anchor="start" dominant-baseline="text-after-edge" transform="matrix(1, 0, 0, 1, 19.06404399871826, 283.7744445800781)" fill-opacity="1">Rhinolophus sinicus</text><path fill="none" stroke="none"/><text fill="rgb(68,68,68)" stroke="none" font-family="helvetica" font-size="12px" font-style="normal" font-weight="normal" text-decoration="normal" x="0" y="0" text-anchor="start" dominant-baseline="text-after-edge" transform="matrix(1, 0, 0, 1, 19.06404399871826, 663.2255249023438)" fill-opacity="1">Rhinolophus macrotis</text><path fill="none" stroke="none"/><text fill="rgb(68,68,68)" stroke="none" font-family="helvetica" font-size="12px" font-style="normal" font-weight="normal" text-decoration="normal" x="0" y="0" text-anchor="start" dominant-baseline="text-after-edge" transform="matrix(1, 0, 0, 1, 324.3655700683594, 899.809326171875)" fill-opacity="1">Rhinolophus blasii</text><path fill="none" stroke="none"/><text fill="rgb(68,68,68)" stroke="none" font-family="helvetica" font-size="12px" font-style="normal" font-weight="normal" text-decoration="normal" x="0" y="0" text-anchor="start" dominant-baseline="text-after-edge" transform="matrix(1, 0, 0, 1, 705.0703735351562, 815.3736572265625)" fill-opacity="1">Rhinolophus pusillus</text><path fill="none" stroke="none"/><text fill="rgb(68,68,68)" stroke="none" font-family="helvetica" font-size="12pt" font-style="normal" font-weight="bold" text-decoration="normal" x="0" y="0" text-anchor="start" dominant-baseline="text-after-edge" transform="matrix(1, 0, 0, 1, 5.5, 28.5)" fill-opacity="1">Sequence similarity network</text></svg>