<?xml version="1.0" encoding="iso-8859-1"?>
<!DOCTYPE svg PUBLIC "-//W3C//DTD SVG 1.0//EN" "http://www.w3.org/TR/2001/REC-SVG-20010904/DTD/svg10.dtd">
<svg width="912" height="780" xmlns="http://www.w3.org/2000/svg" xmlns:xlink="http://www.w3.org/1999/xlink">
<g style="stroke:black;fill:lightgreen" transform="translate(30,30)">
<line x1="259" y1="674" x2="259" y2="614" style="stroke:blue; stroke-width:1"/>
<line x1="259" y1="614" x2="381" y2="614" style="stroke:blue; stroke-width:1"/>
<line x1="259" y1="674" x2="259" y2="734" style="stroke:blue; stroke-width:1"/>
<line x1="259" y1="734" x2="381" y2="734" style="stroke:blue; stroke-width:1"/>
<line x1="259" y1="382" x2="259" y2="495" style="stroke:blue; stroke-width:1"/>
<line x1="259" y1="495" x2="381" y2="495" style="stroke:blue; stroke-width:1"/>
<line x1="381" y1="270" x2="381" y2="375" style="stroke:blue; stroke-width:1"/>
<line x1="381" y1="375" x2="503" y2="375" style="stroke:blue; stroke-width:1"/>
<line x1="624" y1="76" x2="624" y2="16" style="stroke:blue; stroke-width:1"/>
<line x1="624" y1="16" x2="746" y2="16" style="stroke:blue; stroke-width:1"/>
<line x1="624" y1="76" x2="624" y2="136" style="stroke:blue; stroke-width:1"/>
<line x1="624" y1="136" x2="746" y2="136" style="stroke:blue; stroke-width:1"/>
<line x1="503" y1="166" x2="503" y2="255" style="stroke:blue; stroke-width:1"/>
<line x1="503" y1="255" x2="624" y2="255" style="stroke:blue; stroke-width:1"/>
<line x1="138" y1="528" x2="138" y2="674" style="stroke:blue; stroke-width:1"/>
<line x1="138" y1="674" x2="259" y2="674" style="stroke:blue; stroke-width:1"/>
<line x1="138" y1="528" x2="138" y2="382" style="stroke:blue; stroke-width:1"/>
<line x1="138" y1="382" x2="259" y2="382" style="stroke:blue; stroke-width:1"/>
<line x1="259" y1="382" x2="259" y2="270" style="stroke:blue; stroke-width:1"/>
<line x1="259" y1="270" x2="381" y2="270" style="stroke:blue; stroke-width:1"/>
<line x1="503" y1="166" x2="503" y2="76" style="stroke:blue; stroke-width:1"/>
<line x1="503" y1="76" x2="624" y2="76" style="stroke:blue; stroke-width:1"/>
<line x1="381" y1="270" x2="381" y2="166" style="stroke:blue; stroke-width:1"/>
<line x1="381" y1="166" x2="503" y2="166" style="stroke:blue; stroke-width:1"/>
<line x1="16" y1="528" x2="16" y2="528" style="stroke:blue; stroke-width:1"/>
<line x1="16" y1="528" x2="138" y2="528" style="stroke:blue; stroke-width:1"/>
<text x="20" y="525" font-weight = "10" font-family="verdana" fill="black" font-size="18">Root</text>
<text x="385" y="741" font-weight = "10" font-family="verdana" fill="black" font-size="18">AB085735.1_Miniopterus_fuliginosus</text>
<text x="385" y="621" font-weight = "10" font-family="verdana" fill="black" font-size="18">ON640726.1_Miniopterus_magnater</text>
<text x="385" y="502" font-weight = "10" font-family="verdana" fill="black" font-size="18">HM134917.1_Rhinolophus_sinicus</text>
<text x="507" y="382" font-weight = "10" font-family="verdana" fill="black" font-size="18">KP972690.1_Rhinolophus_affinis</text>
<text x="628" y="262" font-weight = "10" font-family="verdana" fill="black" font-size="18">MZ936290.1_Rhinolophus_blasii</text>
<text x="750" y="143" font-weight = "10" font-family="verdana" fill="black" font-size="18">KX261916.1_Rhinolophus_macrotis</text>
<text x="750" y="23" font-weight = "10" font-family="verdana" fill="black" font-size="18">ON012504.1_Rhinolophus_pusillus</text>
<line x1="563.5" y1="255.33333333333" x2="323.73137816864" y2="491.16055316199" style="stroke:red; stroke-width:1;stroke-dasharray: 5, 5"/>
<line x1="320.22526466396" y1="487.59584166001" x2="327.23749167332" y2="494.72526466396" style="stroke:red; stroke-width:1"/>
<line x1="320.22526466396" y1="487.59584166001" x2="320.16666666667" y2="494.66666666667" style="stroke:red; stroke-width:1"/>
<line x1="320.16666666667" y1="494.66666666667" x2="327.23749167332" y2="494.72526466396" style="stroke:red; stroke-width:1"/>
<text x="441.83333333333" y="375" font-weight = "10" font-family="verdana" fill="red" font-size="18">2(100%)</text>
<line x1="563.5" y1="255.33333333333" x2="681.60195516469" y2="139.17278017135" style="stroke:red; stroke-width:1;stroke-dasharray: 5, 5"/>
<line x1="685.10806866937" y1="142.73749167332" x2="678.09584166001" y2="135.60806866937" style="stroke:red; stroke-width:1"/>
<line x1="685.10806866937" y1="142.73749167332" x2="685.16666666667" y2="135.66666666667" style="stroke:red; stroke-width:1"/>
<line x1="685.16666666667" y1="135.66666666667" x2="678.09584166001" y2="135.60806866937" style="stroke:red; stroke-width:1"/>
<text x="624.33333333333" y="195.5" font-weight = "10" font-family="verdana" fill="red" font-size="18">1(100%)</text>
</g></svg>