<svg version="1.1" xmlns="http://www.w3.org/2000/svg" xmlns:xlink="http://www.w3.org/1999/xlink" width="1000" height="1000"><defs><clipPath id="HMsPkvnXxJfh"><path fill="none" stroke="none" d="M 5.5 33.5 L 995.5 33.5 L 995.5 995.5 L 5.5 995.5 L 5.5 33.5"/></clipPath><clipPath id="pOLigxAmeKQN"><path fill="none" stroke="none" d="M 5.5 33.5 L 995.5 33.5 L 995.5 995.5 L 5.5 995.5 L 5.5 33.5"/></clipPath><clipPath id="BVvpTsAFqfyJ"><path fill="none" stroke="none" d="M 5.5 33.5 L 995.5 33.5 L 995.5 995.5 L 5.5 995.5 L 5.5 33.5"/></clipPath><clipPath id="XlMMruPZkkoD"><path fill="none" stroke="none" d="M 5.5 33.5 L 995.5 33.5 L 995.5 995.5 L 5.5 995.5 L 5.5 33.5"/></clipPath></defs><path fill="rgb(255,255,255)" stroke="none" paint-order="stroke" d="M 0.5 0.5 L 1000.5 0.5 L 1000.5 1000.5 L 0.5 1000.5 L 0.5 0.5" fill-opacity="1"/><rect fill="#FFFFFF" stroke="none" x="5" y="33" width="990" height="962" transform="matrix(1, 0, 0, 1, 0.5, 0.5)"/><path fill="rgb(255,255,255)" stroke="none" paint-order="stroke" d="M 5.5 33.5 L 995.5 33.5 L 995.5 995.5 L 5.5 995.5 L 5.5 33.5" fill-opacity="1"/><path fill="none" stroke="rgb(229,229,229)" paint-order="fill" d="M 5.5 33.5 L 995.5 33.5 L 995.5 995.5 L 5.5 995.5 L 5.5 33.5" stroke-opacity="1" stroke-linejoin="bevel" stroke-miterlimit="10" stroke-dasharray=""/><path fill="none" stroke="none"/><path fill="none" stroke="rgb(61,61,61)" paint-order="fill" d="M 873.5 502.5 L 704.0704345703125 160.62640380859375" stroke-opacity="0.800000011920929" stroke-linejoin="bevel" stroke-miterlimit="10" stroke-width="3.0399999618530273" stroke-dasharray="" clip-path="url(#HMsPkvnXxJfh)"/><path fill="none" stroke="rgb(35,35,35)" paint-order="fill" d="M 323.3656005859375 76.19062042236328 L 18.064044952392578 312.7744445800781" stroke-opacity="0.800000011920929" stroke-linejoin="bevel" stroke-miterlimit="10" stroke-width="3.440000057220459" stroke-dasharray="" clip-path="url(#HMsPkvnXxJfh)"/><path fill="none" stroke="rgb(35,35,35)" paint-order="fill" d="M 323.3656005859375 76.19062042236328 L 18.064044952392578 692.2255249023438" stroke-opacity="0.800000011920929" stroke-linejoin="bevel" stroke-miterlimit="10" stroke-width="3.440000057220459" stroke-dasharray="" clip-path="url(#HMsPkvnXxJfh)"/><path fill="none" stroke="rgb(43,43,43)" paint-order="fill" d="M 323.3656005859375 76.19062042236328 L 323.3655700683594 928.809326171875" stroke-opacity="0.800000011920929" stroke-linejoin="bevel" stroke-miterlimit="10" stroke-width="3.319999933242798" stroke-dasharray="" clip-path="url(#HMsPkvnXxJfh)"/><path fill="none" stroke="rgb(35,35,35)" paint-order="fill" d="M 323.3656005859375 76.19062042236328 L 704.0703735351562 844.3736572265625" stroke-opacity="0.800000011920929" stroke-linejoin="bevel" stroke-miterlimit="10" stroke-width="3.440000057220459" stroke-dasharray="" clip-path="url(#HMsPkvnXxJfh)"/><path fill="none" stroke="rgb(7,7,7)" paint-order="fill" d="M 18.064044952392578 312.7744445800781 L 18.064044952392578 692.2255249023438" stroke-opacity="0.800000011920929" stroke-linejoin="bevel" stroke-miterlimit="10" stroke-width="3.880000114440918" stroke-dasharray="" clip-path="url(#HMsPkvnXxJfh)"/><path fill="none" stroke="rgb(38,38,38)" paint-order="fill" d="M 18.064044952392578 312.7744445800781 L 323.3655700683594 928.809326171875" stroke-opacity="0.800000011920929" stroke-linejoin="bevel" stroke-miterlimit="10" stroke-width="3.4000000953674316" stroke-dasharray="" clip-path="url(#HMsPkvnXxJfh)"/><path fill="none" stroke="rgb(12,12,12)" paint-order="fill" d="M 18.064044952392578 312.7744445800781 L 704.0703735351562 844.3736572265625" stroke-opacity="0.800000011920929" stroke-linejoin="bevel" stroke-miterlimit="10" stroke-width="3.799999952316284" stroke-dasharray="" clip-path="url(#HMsPkvnXxJfh)"/><path fill="none" stroke="rgb(38,38,38)" paint-order="fill" d="M 18.064044952392578 692.2255249023438 L 323.3655700683594 928.809326171875" stroke-opacity="0.800000011920929" stroke-linejoin="bevel" stroke-miterlimit="10" stroke-width="3.4000000953674316" stroke-dasharray="" clip-path="url(#HMsPkvnXxJfh)"/><path fill="none" stroke="rgb(12,12,12)" paint-order="fill" d="M 18.064044952392578 692.2255249023438 L 704.0703735351562 844.3736572265625" stroke-opacity="0.800000011920929" stroke-linejoin="bevel" stroke-miterlimit="10" stroke-width="3.799999952316284" stroke-dasharray="" clip-path="url(#HMsPkvnXxJfh)"/><path fill="none" stroke="rgb(40,40,40)" paint-order="fill" d="M 323.3655700683594 928.809326171875 L 704.0703735351562 844.3736572265625" stroke-opacity="0.800000011920929" stroke-linejoin="bevel" stroke-miterlimit="10" stroke-width="3.359999895095825" stroke-dasharray="" clip-path="url(#HMsPkvnXxJfh)"/><path fill="none" stroke="none"/><path fill="rgb(226,0,39)" stroke="rgb(0,0,0)" paint-order="fill" d="M 881 502.5 A 7.5 7.5 0 1 1 880.9999962500003 502.49250000125" fill-opacity="1" clip-path="url(#HMsPkvnXxJfh)" stroke-opacity="1" stroke-linejoin="bevel" stroke-miterlimit="10" stroke-dasharray=""/><path fill="rgb(91,17,60)" stroke="rgb(0,0,0)" paint-order="fill" d="M 711.5704345703125 160.62640380859375 A 7.5 7.5 0 1 1 711.5704308203128 160.61890380984374" fill-opacity="1" clip-path="url(#HMsPkvnXxJfh)" stroke-opacity="1" stroke-linejoin="bevel" stroke-miterlimit="10" stroke-dasharray=""/><path fill="rgb(255,52,255)" stroke="rgb(0,0,0)" paint-order="fill" d="M 330.8656005859375 76.19062042236328 A 7.5 7.5 0 1 1 330.8655968359378 76.18312042361327" fill-opacity="1" clip-path="url(#HMsPkvnXxJfh)" stroke-opacity="1" stroke-linejoin="bevel" stroke-miterlimit="10" stroke-dasharray=""/><path fill="rgb(0,0,166)" stroke="rgb(0,0,0)" paint-order="fill" d="M 25.564044952392578 312.7744445800781 A 7.5 7.5 0 1 1 25.56404120239289 312.7669445813281" fill-opacity="1" clip-path="url(#HMsPkvnXxJfh)" stroke-opacity="1" stroke-linejoin="bevel" stroke-miterlimit="10" stroke-dasharray=""/><path fill="rgb(73,75,90)" stroke="rgb(0,0,0)" paint-order="fill" d="M 25.564044952392578 692.2255249023438 A 7.5 7.5 0 1 1 25.56404120239289 692.2180249035938" fill-opacity="1" clip-path="url(#HMsPkvnXxJfh)" stroke-opacity="1" stroke-linejoin="bevel" stroke-miterlimit="10" stroke-dasharray=""/><path fill="rgb(0,134,237)" stroke="rgb(0,0,0)" paint-order="fill" d="M 330.8655700683594 928.809326171875 A 7.5 7.5 0 1 1 330.8655663183597 928.801826173125" fill-opacity="1" clip-path="url(#HMsPkvnXxJfh)" stroke-opacity="1" stroke-linejoin="bevel" stroke-miterlimit="10" stroke-dasharray=""/><path fill="rgb(188,101,233)" stroke="rgb(0,0,0)" paint-order="fill" d="M 711.5703735351562 844.3736572265625 A 7.5 7.5 0 1 1 711.5703697851566 844.3661572278126" fill-opacity="1" clip-path="url(#HMsPkvnXxJfh)" stroke-opacity="1" stroke-linejoin="bevel" stroke-miterlimit="10" stroke-dasharray=""/><path fill="none" stroke="none"/><path fill="none" stroke="rgb(197,23,28)" paint-order="fill" d="M 873.5 502.5 L 864.5730590820312 502.4658203125 L 855.792236328125 502.3632507324219 L 847.1575317382812 502.19232177734375 L 838.6688842773438 501.9530029296875 L 830.326416015625 501.64532470703125 L 822.1300659179688 501.2692565917969 L 814.0797729492188 500.8248291015625 L 806.1756591796875 500.31201171875 L 798.4176025390625 499.7308349609375 L 790.8057250976562 499.0812683105469 L 783.3399047851562 498.3633117675781 L 776.0202026367188 497.5770263671875 L 768.8466186523438 496.7223205566406 L 761.8191528320312 495.7992858886719 L 754.9378051757812 494.8078308105469 L 748.2025756835938 493.748046875 L 741.6134643554688 492.6198425292969 L 735.1704711914062 491.42327880859375 L 728.8735961914062 490.1583557128906 L 722.7228393554688 488.8250427246094 L 716.7181396484375 487.4233703613281 L 710.859619140625 485.95330810546875 L 705.1471557617188 484.4148864746094 L 699.5808715820312 482.8080749511719 L 694.16064453125 481.1329040527344 L 688.8865356445312 479.38934326171875 L 683.7586059570312 477.5774230957031 L 678.7767333984375 475.6971130371094 L 673.9409790039062 473.7484436035156 L 669.2513427734375 471.73138427734375 L 664.7078247070312 469.64593505859375 L 660.3104248046875 467.4921569824219 L 656.05908203125 465.26995849609375 L 651.9539184570312 462.9794006347656 L 647.994873046875 460.6204833984375 L 644.1819458007812 458.19317626953125 L 640.5150756835938 455.697509765625 L 636.994384765625 453.1334533691406 L 633.6197509765625 450.50103759765625 L 630.3912963867188 447.80023193359375 L 627.3088989257812 445.0310363769531 L 624.3726196289062 442.1935119628906 L 621.5824584960938 439.2875671386719 L 618.9384155273438 436.3132629394531 L 616.4404907226562 433.2705993652344 L 614.0886840820312 430.1595458984375 L 611.8829956054688 426.9801330566406 L 609.8234252929688 423.7323303222656 L 607.9099731445312 420.4161376953125 L 606.1426391601562 417.0316162109375 L 604.5213623046875 413.57867431640625 L 603.0462646484375 410.057373046875 L 601.7172241210938 406.46771240234375 L 600.5343627929688 402.8096618652344 L 599.49755859375 399.0832214355469 L 598.6068725585938 395.2884521484375 L 597.8623046875 391.4252624511719 L 597.263916015625 387.49371337890625 L 596.8115844726562 383.4938049316406 L 596.50537109375 379.4255065917969 L 596.3452758789062 375.288818359375 L 596.3312377929688 371.08380126953125 L 596.46337890625 366.81036376953125 L 596.7416381835938 362.46856689453125 L 597.166015625 358.05841064453125 L 597.7364501953125 353.5798645019531 L 598.4530639648438 349.032958984375 L 599.3157348632812 344.41766357421875 L 600.3245849609375 339.7339782714844 L 601.4794921875 334.98193359375 L 602.780517578125 330.1615295410156 L 604.2277221679688 325.2727355957031 L 605.8209838867188 320.3155517578125 L 607.5603637695312 315.2900085449219 L 609.4458618164062 310.19610595703125 L 611.4774780273438 305.0338134765625 L 613.6552124023438 299.80316162109375 L 615.97900390625 294.5041198730469 L 618.448974609375 289.1366882324219 L 621.0650634765625 283.7008972167969 L 623.8272705078125 278.19671630859375 L 626.7355346679688 272.62420654296875 L 629.7899780273438 266.9832763671875 L 632.990478515625 261.27398681640625 L 636.3370971679688 255.49632263183594 L 639.8298950195312 249.65028381347656 L 643.46875 243.73587036132812 L 647.2537231445312 237.75308227539062 L 651.184814453125 231.70191955566406 L 655.2620239257812 225.5823974609375 L 659.4853515625 219.3944854736328 L 663.8547973632812 213.13819885253906 L 668.370361328125 206.81353759765625 L 673.0320434570312 200.42050170898438 L 677.8397827148438 193.95907592773438 L 682.793701171875 187.42930603027344 L 687.8937377929688 180.8311309814453 L 693.1398315429688 174.16461181640625 L 698.5320434570312 167.42970275878906" stroke-opacity="0.800000011920929" stroke-linejoin="bevel" stroke-miterlimit="10" stroke-width="3.9200000762939453" stroke-dasharray="2,4" clip-path="url(#pOLigxAmeKQN)"/><path fill="none" stroke="rgb(197,23,28)" paint-order="fill" d="M 704.0704345703125 160.62640380859375 L 698.5320434570312 167.42970275878906 L 693.1398315429688 174.16461181640625 L 687.8937377929688 180.8311309814453 L 682.793701171875 187.42930603027344 L 677.8397827148438 193.95907592773438 L 673.0320434570312 200.42050170898438 L 668.370361328125 206.81353759765625 L 663.8547973632812 213.13819885253906 L 659.4853515625 219.3944854736328 L 655.2620239257812 225.5823974609375 L 651.184814453125 231.70191955566406 L 647.2537231445312 237.75308227539062 L 643.46875 243.73587036132812 L 639.8298950195312 249.65028381347656 L 636.3370971679688 255.49632263183594 L 632.990478515625 261.27398681640625 L 629.7899780273438 266.9832763671875 L 626.7355346679688 272.62420654296875 L 623.8272705078125 278.19671630859375 L 621.0650634765625 283.7008972167969 L 618.448974609375 289.1366882324219 L 615.97900390625 294.5041198730469 L 613.6552124023438 299.80316162109375 L 611.4774780273438 305.0338134765625 L 609.4458618164062 310.19610595703125 L 607.5603637695312 315.2900085449219 L 605.8209838867188 320.3155517578125 L 604.2277221679688 325.2727355957031 L 602.780517578125 330.1615295410156 L 601.4794921875 334.98193359375 L 600.3245849609375 339.7339782714844 L 599.3157348632812 344.41766357421875 L 598.4530639648438 349.032958984375 L 597.7364501953125 353.5798645019531 L 597.166015625 358.05841064453125 L 596.7416381835938 362.46856689453125 L 596.46337890625 366.81036376953125 L 596.3312377929688 371.08380126953125 L 596.3452758789062 375.288818359375 L 596.50537109375 379.4255065917969 L 596.8115844726562 383.4938049316406 L 597.263916015625 387.49371337890625 L 597.8623046875 391.4252624511719 L 598.6068725585938 395.2884521484375 L 599.49755859375 399.0832214355469 L 600.5343627929688 402.8096618652344 L 601.7172241210938 406.46771240234375 L 603.0462646484375 410.057373046875 L 604.5213623046875 413.57867431640625 L 606.1426391601562 417.0316162109375 L 607.9099731445312 420.4161376953125 L 609.8234252929688 423.7323303222656 L 611.8829956054688 426.9801330566406 L 614.0886840820312 430.1595458984375 L 616.4404907226562 433.2705993652344 L 618.9384155273438 436.3132629394531 L 621.5824584960938 439.2875671386719 L 624.3726196289062 442.1935119628906 L 627.3088989257812 445.0310363769531 L 630.3912963867188 447.80023193359375 L 633.6197509765625 450.50103759765625 L 636.994384765625 453.1334533691406 L 640.5150756835938 455.697509765625 L 644.1819458007812 458.19317626953125 L 647.994873046875 460.6204833984375 L 651.9539184570312 462.9794006347656 L 656.05908203125 465.26995849609375 L 660.3104248046875 467.4921569824219 L 664.7078247070312 469.64593505859375 L 669.2513427734375 471.73138427734375 L 673.9409790039062 473.7484436035156 L 678.7767333984375 475.6971130371094 L 683.7586059570312 477.5774230957031 L 688.8865356445312 479.38934326171875 L 694.16064453125 481.1329040527344 L 699.5808715820312 482.8080749511719 L 705.1471557617188 484.4148864746094 L 710.859619140625 485.95330810546875 L 716.7181396484375 487.4233703613281 L 722.7228393554688 488.8250427246094 L 728.8735961914062 490.1583557128906 L 735.1704711914062 491.42327880859375 L 741.6134643554688 492.6198425292969 L 748.2025756835938 493.748046875 L 754.9378051757812 494.8078308105469 L 761.8191528320312 495.7992858886719 L 768.8466186523438 496.7223205566406 L 776.0202026367188 497.5770263671875 L 783.3399047851562 498.3633117675781 L 790.8057250976562 499.0812683105469 L 798.4176025390625 499.7308349609375 L 806.1756591796875 500.31201171875 L 814.0797729492188 500.8248291015625 L 822.1300659179688 501.2692565917969 L 830.326416015625 501.64532470703125 L 838.6688842773438 501.9530029296875 L 847.1575317382812 502.19232177734375 L 855.792236328125 502.3632507324219 L 864.5730590820312 502.4658203125" stroke-opacity="0.800000011920929" stroke-linejoin="bevel" stroke-miterlimit="10" stroke-width="3.9200000762939453" stroke-dasharray="2,4" clip-path="url(#pOLigxAmeKQN)"/><path fill="none" stroke="rgb(193,22,27)" paint-order="fill" d="M 323.3656005859375 76.19062042236328 L 325.3177185058594 84.65520477294922 L 327.1687316894531 92.99658966064453 L 328.91864013671875 101.2147445678711 L 330.5674133300781 109.30972290039062 L 332.1151123046875 117.2814712524414 L 333.5616760253906 125.1300277709961 L 334.9071044921875 132.85537719726562 L 336.15142822265625 140.45748901367188 L 337.2946472167969 147.93643188476562 L 338.3367614746094 155.29214477539062 L 339.27777099609375 162.524658203125 L 340.1176452636719 169.63397216796875 L 340.85638427734375 176.62008666992188 L 341.4940490722656 183.4829559326172 L 342.03057861328125 190.22264099121094 L 342.46600341796875 196.839111328125 L 342.80029296875 203.3323974609375 L 343.03350830078125 209.7024688720703 L 343.16558837890625 215.9493408203125 L 343.196533203125 222.07298278808594 L 343.1263732910156 228.0734100341797 L 342.9551086425781 233.95065307617188 L 342.6827392578125 239.70469665527344 L 342.30926513671875 245.3355255126953 L 341.83465576171875 250.84312438964844 L 341.2589111328125 256.2275390625 L 340.58209228515625 261.4887390136719 L 339.80413818359375 266.6267395019531 L 338.9250793457031 271.64154052734375 L 337.9449157714844 276.5331115722656 L 336.8636169433594 281.3014831542969 L 335.68121337890625 285.9466552734375 L 334.3976745605469 290.4685974121094 L 333.0130615234375 294.86737060546875 L 331.5273132324219 299.1429138183594 L 329.9404602050781 303.29522705078125 L 328.2524719238281 307.3243713378906 L 326.46337890625 311.2303161621094 L 324.57318115234375 315.0130310058594 L 322.58184814453125 318.6725158691406 L 320.48944091796875 322.2088317871094 L 318.2958984375 325.6219482421875 L 316.001220703125 328.9118347167969 L 313.6054382324219 332.0785217285156 L 311.1085510253906 335.1219787597656 L 308.51055908203125 338.0422668457031 L 305.8114318847656 340.8393249511719 L 303.0111999511719 343.51318359375 L 300.10986328125 346.0638122558594 L 297.1073913574219 348.49127197265625 L 294.00384521484375 350.7955017089844 L 290.79913330078125 352.9765319824219 L 287.49334716796875 355.03436279296875 L 284.08642578125 356.9689636230469 L 280.5783996582031 358.7803649902344 L 276.9692687988281 360.46856689453125 L 273.2590026855469 362.0335693359375 L 269.4476318359375 363.475341796875 L 265.53515625 364.7939147949219 L 261.52154541015625 365.9892883300781 L 257.4068298339844 367.06146240234375 L 253.19100952148438 368.0104064941406 L 248.8740692138672 368.836181640625 L 244.45602416992188 369.5387268066406 L 239.9368438720703 370.1180725097656 L 235.31655883789062 370.5741882324219 L 230.5951690673828 370.9071044921875 L 225.77264404296875 371.1168212890625 L 220.84902954101562 371.2033386230469 L 215.82427978515625 371.1666259765625 L 210.69842529296875 371.0067443847656 L 205.47146606445312 370.7236022949219 L 200.14337158203125 370.3172912597656 L 194.71417236328125 369.78778076171875 L 189.1838836669922 369.1350402832031 L 183.5524444580078 368.3591003417969 L 177.8199005126953 367.4599609375 L 171.9862518310547 366.4375915527344 L 166.05149841308594 365.29205322265625 L 160.01560974121094 364.02325439453125 L 153.8786163330078 362.63128662109375 L 147.64051818847656 361.1161193847656 L 141.30126953125 359.47772216796875 L 134.86094665527344 357.71612548828125 L 128.31948852539062 355.8313293457031 L 121.67691802978516 353.82330322265625 L 114.93325805664062 351.6921081542969 L 108.08844757080078 349.43768310546875 L 101.14254760742188 347.06005859375 L 94.09552001953125 344.5592041015625 L 86.94738006591797 341.9351501464844 L 79.69815063476562 339.1878967285156 L 72.34777069091797 336.31744384765625 L 64.89630126953125 333.32379150390625 L 57.34370803833008 330.2069091796875 L 49.689998626708984 326.9668273925781 L 41.93519592285156 323.6035461425781 L 34.079246520996094 320.1170349121094 L 26.12220573425293 316.5073547363281" stroke-opacity="0.800000011920929" stroke-linejoin="bevel" stroke-miterlimit="10" stroke-width="4" stroke-dasharray="2,4" clip-path="url(#pOLigxAmeKQN)"/><path fill="none" stroke="rgb(200,23,28)" paint-order="fill" d="M 323.3656005859375 76.19062042236328 L 325.3863220214844 84.7083740234375 L 327.4431457519531 93.20921325683594 L 329.5360412597656 101.69319152832031 L 331.6650390625 110.1602783203125 L 333.8301086425781 118.61048126220703 L 336.0312805175781 127.04378509521484 L 338.2685546875 135.460205078125 L 340.5418701171875 143.8597412109375 L 342.851318359375 152.2423858642578 L 345.19683837890625 160.60813903808594 L 347.57843017578125 168.95703125 L 349.9961242675781 177.28900146484375 L 352.44989013671875 185.6040802001953 L 354.93975830078125 193.90231323242188 L 357.4657287597656 202.1836395263672 L 360.02777099609375 210.44805908203125 L 362.6258850097656 218.69561767578125 L 365.2601013183594 226.92628479003906 L 367.9303894042969 235.1400604248047 L 370.63677978515625 243.33694458007812 L 373.3792724609375 251.51695251464844 L 376.1578369140625 259.6800537109375 L 378.97247314453125 267.8262634277344 L 381.8232116699219 275.95562744140625 L 384.7100524902344 284.0680847167969 L 387.6329650878906 292.16363525390625 L 390.5919494628906 300.2423095703125 L 393.5870361328125 308.3041076660156 L 396.61822509765625 316.3490295410156 L 399.68548583984375 324.3770446777344 L 402.788818359375 332.3881530761719 L 405.9282531738281 340.3824157714844 L 409.103759765625 348.3597717285156 L 412.31536865234375 356.3202209472656 L 415.5630798339844 364.2637939453125 L 418.84686279296875 372.1905212402344 L 422.166748046875 380.1003112792969 L 425.522705078125 387.99322509765625 L 428.91473388671875 395.8692626953125 L 432.3428649902344 403.7283935546875 L 435.8070983886719 411.5706481933594 L 439.3074035644531 419.3960266113281 L 442.8437805175781 427.20452880859375 L 446.416259765625 434.9961242675781 L 450.02484130859375 442.77081298828125 L 453.66949462890625 450.5286560058594 L 457.3502502441406 458.26959228515625 L 461.06707763671875 465.9936218261719 L 464.8199768066406 473.7007751464844 L 468.6089782714844 481.39105224609375 L 472.43408203125 489.064453125 L 476.2952575683594 496.720947265625 L 480.1925354003906 504.3605651855469 L 484.1258850097656 511.9832763671875 L 488.0953063964844 519.589111328125 L 492.100830078125 527.1781005859375 L 496.1424560546875 534.7501220703125 L 500.22015380859375 542.3052978515625 L 504.3339538574219 549.8436279296875 L 508.48382568359375 557.364990234375 L 512.6697998046875 564.8695068359375 L 516.891845703125 572.357177734375 L 521.1499633789062 579.827880859375 L 525.4442138671875 587.28173828125 L 529.7745361328125 594.7186889648438 L 534.1409301757812 602.1387939453125 L 538.5433959960938 609.5419921875 L 542.9819946289062 616.9282836914062 L 547.4566040039062 624.2977294921875 L 551.9674072265625 631.6502685546875 L 556.5142211914062 638.9859008789062 L 561.0971069335938 646.3046264648438 L 565.7161254882812 653.6065063476562 L 570.3712768554688 660.8914794921875 L 575.0624389648438 668.1596069335938 L 579.7896728515625 675.4107666015625 L 584.5530395507812 682.6451416015625 L 589.3524780273438 689.862548828125 L 594.1880493164062 697.0631103515625 L 599.0596313476562 704.2467651367188 L 603.9673461914062 711.4135131835938 L 608.9111328125 718.5634155273438 L 613.8910522460938 725.6964111328125 L 618.906982421875 732.8125 L 623.9590454101562 739.9117431640625 L 629.0471801757812 746.9940795898438 L 634.1714477539062 754.0595092773438 L 639.3317260742188 761.1080932617188 L 644.5281372070312 768.1397705078125 L 649.7606201171875 775.154541015625 L 655.0292358398438 782.1524658203125 L 660.3338623046875 789.1334838867188 L 665.6746215820312 796.0975952148438 L 671.0514526367188 803.0447998046875 L 676.4644165039062 809.9751586914062 L 681.9134521484375 816.888671875 L 687.3984985351562 823.7852172851562 L 692.9197387695312 830.6649169921875 L 698.4769897460938 837.5277099609375" stroke-opacity="0.800000011920929" stroke-linejoin="bevel" stroke-miterlimit="10" stroke-width="3.880000114440918" stroke-dasharray="2,4" clip-path="url(#pOLigxAmeKQN)"/><path fill="none" stroke="rgb(195,22,27)" paint-order="fill" d="M 323.3656005859375 76.19062042236328 L 325.3482360839844 84.7168197631836 L 327.2908630371094 93.24298858642578 L 329.19342041015625 101.7691879272461 L 331.055908203125 110.29536437988281 L 332.87835693359375 118.82156372070312 L 334.6607666015625 127.34774017333984 L 336.403076171875 135.8739471435547 L 338.1053771972656 144.40011596679688 L 339.7676086425781 152.9263153076172 L 341.3897705078125 161.45248413085938 L 342.9718933105469 169.9786834716797 L 344.51397705078125 178.50486755371094 L 346.0159912109375 187.03106689453125 L 347.47796630859375 195.55723571777344 L 348.8998718261719 204.08343505859375 L 350.2817077636719 212.60960388183594 L 351.6235046386719 221.1358184814453 L 352.9252624511719 229.66201782226562 L 354.18695068359375 238.1881866455078 L 355.4085998535156 246.71438598632812 L 356.5901794433594 255.2405548095703 L 357.7317199707031 263.7667541503906 L 358.83319091796875 272.2929382324219 L 359.8946228027344 280.8191223144531 L 360.9159851074219 289.3453063964844 L 361.8973083496094 297.8714904785156 L 362.83856201171875 306.3976745605469 L 363.7397766113281 314.9238586425781 L 364.6009216308594 323.4500427246094 L 365.4220275878906 331.97625732421875 L 366.2030944824219 340.50244140625 L 366.944091796875 349.02862548828125 L 367.64501953125 357.5548095703125 L 368.305908203125 366.08099365234375 L 368.9267578125 374.607177734375 L 369.50750732421875 383.1333923339844 L 370.0482482910156 391.6595764160156 L 370.5489196777344 400.1857604980469 L 371.0095520019531 408.7119445800781 L 371.43011474609375 417.2381286621094 L 371.81060791015625 425.7643127441406 L 372.15106201171875 434.2904968261719 L 372.45147705078125 442.8166809082031 L 372.7118225097656 451.3428649902344 L 372.93212890625 459.8690490722656 L 373.11236572265625 468.3952331542969 L 373.2525329589844 476.92144775390625 L 373.3526916503906 485.4476318359375 L 373.4127502441406 493.97381591796875 L 373.43280029296875 502.5 L 373.4127502441406 511.02618408203125 L 373.3526916503906 519.5523681640625 L 373.2525329589844 528.0785522460938 L 373.11236572265625 536.604736328125 L 372.9320983886719 545.1309204101562 L 372.7118225097656 553.6571044921875 L 372.45147705078125 562.1832885742188 L 372.15106201171875 570.70947265625 L 371.81060791015625 579.2356567382812 L 371.4300842285156 587.7618408203125 L 371.009521484375 596.2880859375 L 370.5489196777344 604.8142700195312 L 370.0482482910156 613.3404541015625 L 369.50750732421875 621.8666381835938 L 368.9267272949219 630.392822265625 L 368.305908203125 638.9190063476562 L 367.64501953125 647.4451904296875 L 366.9440612792969 655.9713745117188 L 366.20306396484375 664.49755859375 L 365.4220275878906 673.0237426757812 L 364.6009216308594 681.5499267578125 L 363.7397766113281 690.0761108398438 L 362.83856201171875 698.602294921875 L 361.8973083496094 707.1284790039062 L 360.9159851074219 715.6546630859375 L 359.89459228515625 724.1808471679688 L 358.83319091796875 732.7070922851562 L 357.731689453125 741.2332153320312 L 356.5901794433594 749.7594604492188 L 355.4085693359375 758.2855834960938 L 354.18695068359375 766.8118286132812 L 352.92523193359375 775.3380126953125 L 351.6235046386719 783.8641967773438 L 350.2817077636719 792.390380859375 L 348.89984130859375 800.9165649414062 L 347.4779357910156 809.4427490234375 L 346.0159606933594 817.9689331054688 L 344.5139465332031 826.4951171875 L 342.9718933105469 835.0213012695312 L 341.3897705078125 843.5474853515625 L 339.767578125 852.0736694335938 L 338.1053466796875 860.599853515625 L 336.403076171875 869.1260375976562 L 334.6607360839844 877.6522216796875 L 332.8783264160156 886.1784057617188 L 331.0558776855469 894.70458984375 L 329.1933898925781 903.2308349609375 L 327.29083251953125 911.7569580078125 L 325.3482360839844 920.283203125" stroke-opacity="0.800000011920929" stroke-linejoin="bevel" stroke-miterlimit="10" stroke-width="3.9600000381469727" stroke-dasharray="2,4" clip-path="url(#pOLigxAmeKQN)"/><path fill="none" stroke="rgb(197,23,28)" paint-order="fill" d="M 323.3656005859375 76.19062042236328 L 325.3177185058594 84.69315338134766 L 327.1687316894531 93.14835357666016 L 328.91864013671875 101.5562515258789 L 330.5674133300781 109.9168472290039 L 332.1151123046875 118.23011016845703 L 333.5616760253906 126.49604034423828 L 334.9071044921875 134.71469116210938 L 336.15142822265625 142.885986328125 L 337.2946472167969 151.0099639892578 L 338.3367614746094 159.08665466308594 L 339.27777099609375 167.11602783203125 L 340.1176452636719 175.09808349609375 L 340.85638427734375 183.0327911376953 L 341.4940490722656 190.9202117919922 L 342.03057861328125 198.76031494140625 L 342.46600341796875 206.55308532714844 L 342.80029296875 214.29855346679688 L 343.03350830078125 221.99668884277344 L 343.16558837890625 229.64752197265625 L 343.196533203125 237.2510223388672 L 343.1263732910156 244.80722045898438 L 342.9551086425781 252.3160858154297 L 342.6827392578125 259.77764892578125 L 342.30926513671875 267.19189453125 L 341.83465576171875 274.5588073730469 L 341.2589111328125 281.87841796875 L 340.58209228515625 289.1507263183594 L 339.80413818359375 296.3757019042969 L 338.9250793457031 303.5533752441406 L 337.9449157714844 310.6837158203125 L 336.8636169433594 317.7667236328125 L 335.68121337890625 324.80242919921875 L 334.3976745605469 331.79083251953125 L 333.0130615234375 338.7319030761719 L 331.5273132324219 345.62567138671875 L 329.9404602050781 352.47210693359375 L 328.2524719238281 359.271240234375 L 326.46337890625 366.0230407714844 L 324.57318115234375 372.7275390625 L 322.58184814453125 379.38470458984375 L 320.48944091796875 385.99456787109375 L 318.2958984375 392.5570983886719 L 316.001220703125 399.07232666015625 L 313.6054382324219 405.5402526855469 L 311.1085510253906 411.9608459472656 L 308.51055908203125 418.3341064453125 L 305.8114318847656 424.6600646972656 L 303.0111999511719 430.938720703125 L 300.10986328125 437.1700439453125 L 297.1073913574219 443.3540344238281 L 294.00384521484375 449.49072265625 L 290.79913330078125 455.5801086425781 L 287.49334716796875 461.6221618652344 L 284.08642578125 467.6169128417969 L 280.5783996582031 473.5643310546875 L 276.9692687988281 479.46441650390625 L 273.2590026855469 485.3172302246094 L 269.4476318359375 491.1226806640625 L 265.53515625 496.880859375 L 261.52154541015625 502.5916748046875 L 257.4068298339844 508.2552185058594 L 253.19100952148438 513.8713989257812 L 248.8740692138672 519.4403076171875 L 244.45602416992188 524.9618530273438 L 239.9368438720703 530.4361572265625 L 235.31655883789062 535.8630981445312 L 230.5951690673828 541.24267578125 L 225.77264404296875 546.5750122070312 L 220.84902954101562 551.8599853515625 L 215.82427978515625 557.09765625 L 210.69842529296875 562.2880249023438 L 205.47146606445312 567.4310302734375 L 200.14337158203125 572.5267944335938 L 194.71417236328125 577.5751953125 L 189.1838836669922 582.5762939453125 L 183.5524444580078 587.530029296875 L 177.8199005126953 592.4365234375 L 171.9862518310547 597.295654296875 L 166.05149841308594 602.1074829101562 L 160.01560974121094 606.8719482421875 L 153.8786163330078 611.5891723632812 L 147.64051818847656 616.259033203125 L 141.30126953125 620.881591796875 L 134.86094665527344 625.456787109375 L 128.31948852539062 629.9847412109375 L 121.67691802978516 634.46533203125 L 114.93325805664062 638.8986206054688 L 108.08844757080078 643.2846069335938 L 101.14254760742188 647.6232299804688 L 94.09552001953125 651.9146118164062 L 86.94738006591797 656.1585693359375 L 79.69815063476562 660.3552856445312 L 72.34777069091797 664.5046997070312 L 64.89630126953125 668.6067504882812 L 57.34370803833008 672.6614990234375 L 49.689998626708984 676.6689453125 L 41.93519592285156 680.6290893554688 L 34.079246520996094 684.5418701171875 L 26.12220573425293 688.4073486328125" stroke-opacity="0.800000011920929" stroke-linejoin="bevel" stroke-miterlimit="10" stroke-width="3.9200000762939453" stroke-dasharray="2,4" clip-path="url(#pOLigxAmeKQN)"/><path fill="none" stroke="rgb(193,22,27)" paint-order="fill" d="M 18.064044952392578 312.7744445800781 L 26.0916805267334 316.5689697265625 L 33.95712661743164 320.36346435546875 L 41.660404205322266 324.1579895019531 L 49.201515197753906 327.9524841308594 L 56.58045959472656 331.74700927734375 L 63.797210693359375 335.54150390625 L 70.85179901123047 339.3360290527344 L 77.74421691894531 343.1305236816406 L 84.47444152832031 346.925048828125 L 91.04249572753906 350.71954345703125 L 97.44839477539062 354.5140686035156 L 103.6921157836914 358.3085632324219 L 109.77365112304688 362.10308837890625 L 115.6930160522461 365.8975830078125 L 121.4502182006836 369.6921081542969 L 127.04522705078125 373.48663330078125 L 132.4780731201172 377.2811279296875 L 137.74874877929688 381.0756530761719 L 142.8572235107422 384.8701477050781 L 147.8035430908203 388.6646728515625 L 152.5876922607422 392.45916748046875 L 157.2096710205078 396.2536926269531 L 161.66946411132812 400.0481872558594 L 165.9670867919922 403.84271240234375 L 170.10250854492188 407.63720703125 L 174.0758056640625 411.4317321777344 L 177.88690185546875 415.22625732421875 L 181.5358123779297 419.020751953125 L 185.02256774902344 422.8152770996094 L 188.34713745117188 426.6097717285156 L 191.50955200195312 430.404296875 L 194.509765625 434.19879150390625 L 197.3478240966797 437.9933166503906 L 200.02369689941406 441.7878112792969 L 202.5373992919922 445.58233642578125 L 204.88893127441406 449.3768310546875 L 207.07827758789062 453.1713562011719 L 209.10546875 456.9658508300781 L 210.97047424316406 460.7603759765625 L 212.67330932617188 464.55487060546875 L 214.21395874023438 468.3493957519531 L 215.59243774414062 472.1438903808594 L 216.80874633789062 475.93841552734375 L 217.86288452148438 479.7329406738281 L 218.7548370361328 483.5274353027344 L 219.484619140625 487.32196044921875 L 220.05223083496094 491.116455078125 L 220.45767211914062 494.9109802246094 L 220.70094299316406 498.7054748535156 L 220.7820281982422 502.5 L 220.70094299316406 506.29449462890625 L 220.45767211914062 510.0890197753906 L 220.05223083496094 513.883544921875 L 219.484619140625 517.6780395507812 L 218.7548370361328 521.4725341796875 L 217.86288452148438 525.2670288085938 L 216.80874633789062 529.0615844726562 L 215.59243774414062 532.8560791015625 L 214.21395874023438 536.6505737304688 L 212.67330932617188 540.445068359375 L 210.97047424316406 544.2396240234375 L 209.10546875 548.0341186523438 L 207.07827758789062 551.82861328125 L 204.88893127441406 555.6231689453125 L 202.5373992919922 559.4176635742188 L 200.02369689941406 563.212158203125 L 197.3478240966797 567.0066528320312 L 194.509765625 570.8012084960938 L 191.50955200195312 574.595703125 L 188.34713745117188 578.3901977539062 L 185.02256774902344 582.1846923828125 L 181.5358123779297 585.979248046875 L 177.88690185546875 589.7737426757812 L 174.0758056640625 593.5682373046875 L 170.10250854492188 597.3627319335938 L 165.9670867919922 601.1572875976562 L 161.66946411132812 604.9517822265625 L 157.2096710205078 608.7462768554688 L 152.5876922607422 612.5408325195312 L 147.8035430908203 616.3353271484375 L 142.8572235107422 620.1298217773438 L 137.74874877929688 623.92431640625 L 132.4780731201172 627.7188720703125 L 127.04522705078125 631.5133666992188 L 121.4502182006836 635.307861328125 L 115.6930160522461 639.1023559570312 L 109.77365112304688 642.8969116210938 L 103.6921157836914 646.69140625 L 97.44839477539062 650.4859008789062 L 91.04249572753906 654.2803955078125 L 84.47444152832031 658.074951171875 L 77.74421691894531 661.8694458007812 L 70.85179901123047 665.6639404296875 L 63.797210693359375 669.45849609375 L 56.58045959472656 673.2529907226562 L 49.201515197753906 677.0474853515625 L 41.660404205322266 680.8419799804688 L 33.95712661743164 684.636474609375 L 26.0916805267334 688.4310302734375" stroke-opacity="0.800000011920929" stroke-linejoin="bevel" stroke-miterlimit="10" stroke-width="4" stroke-dasharray="2,4" clip-path="url(#pOLigxAmeKQN)"/><path fill="none" stroke="rgb(193,22,27)" paint-order="fill" d="M 18.064044952392578 312.7744445800781 L 26.16026496887207 316.58416748046875 L 34.23154067993164 320.42431640625 L 42.2778205871582 324.2948913574219 L 50.29912567138672 328.1959228515625 L 58.29546356201172 332.12738037109375 L 66.26683044433594 336.0892333984375 L 74.21321868896484 340.08154296875 L 82.1346435546875 344.1042785644531 L 90.03108978271484 348.1574401855469 L 97.90257263183594 352.24102783203125 L 105.74907684326172 356.35504150390625 L 113.57061767578125 360.49951171875 L 121.36714935302734 364.67437744140625 L 129.1387481689453 368.87969970703125 L 136.88534545898438 373.1154479980469 L 144.60699462890625 377.3816223144531 L 152.30364990234375 381.67822265625 L 159.97535705566406 386.0052490234375 L 167.62205505371094 390.3627014160156 L 175.24380493164062 394.7505798339844 L 182.84056091308594 399.1689147949219 L 190.41236877441406 403.6176452636719 L 197.9591827392578 408.0968322753906 L 205.4810333251953 412.6064453125 L 212.97792053222656 417.146484375 L 220.4498291015625 421.7169494628906 L 227.89675903320312 426.3178405761719 L 235.31871032714844 430.94915771484375 L 242.71571350097656 435.6109313964844 L 250.0877227783203 440.3031005859375 L 257.43475341796875 445.0257263183594 L 264.7568054199219 449.77874755859375 L 272.0539245605469 454.5622253417969 L 279.3260498046875 459.3761291503906 L 286.57318115234375 464.220458984375 L 293.79534912109375 469.0952453613281 L 300.9925537109375 474.00042724609375 L 308.1647644042969 478.93603515625 L 315.3120422363281 483.902099609375 L 322.4342956542969 488.8985900878906 L 329.5316162109375 493.92547607421875 L 336.60394287109375 498.9828186035156 L 343.65130615234375 504.0705871582031 L 350.6737060546875 509.1888122558594 L 357.6711120605469 514.33740234375 L 364.6435546875 519.5164794921875 L 371.5910339355469 524.7259521484375 L 378.5135192871094 529.9658813476562 L 385.4110412597656 535.2362670898438 L 392.2835998535156 540.5370483398438 L 399.13116455078125 545.8682250976562 L 405.9537658691406 551.2298583984375 L 412.75140380859375 556.6219482421875 L 419.5240783691406 562.04443359375 L 426.2717590332031 567.4973754882812 L 432.9944763183594 572.980712890625 L 439.69219970703125 578.4945068359375 L 446.3649597167969 584.0386962890625 L 453.01275634765625 589.6133422851562 L 459.6355895996094 595.2184448242188 L 466.2334289550781 600.8539428710938 L 472.8063049316406 606.5198364257812 L 479.35418701171875 612.2161865234375 L 485.8771057128906 617.9429931640625 L 492.37506103515625 623.7001953125 L 498.8480529785156 629.4878540039062 L 505.2960510253906 635.3059692382812 L 511.7190856933594 641.1544799804688 L 518.1171264648438 647.0333862304688 L 524.490234375 652.9427490234375 L 530.83837890625 658.882568359375 L 537.1614990234375 664.8528442382812 L 543.4596557617188 670.8534545898438 L 549.7328491210938 676.8845825195312 L 555.9810791015625 682.946044921875 L 562.204345703125 689.0380249023438 L 568.402587890625 695.160400390625 L 574.575927734375 701.313232421875 L 580.7242431640625 707.4964599609375 L 586.8475952148438 713.7100830078125 L 592.9459838867188 719.9542236328125 L 599.0194091796875 726.2286987304688 L 605.0678100585938 732.53369140625 L 611.09130859375 738.8690795898438 L 617.0897827148438 745.23486328125 L 623.0632934570312 751.631103515625 L 629.0118408203125 758.0578002929688 L 634.9354248046875 764.514892578125 L 640.833984375 771.00244140625 L 646.7076416015625 777.5203857421875 L 652.5562744140625 784.0687866210938 L 658.3799438476562 790.6475830078125 L 664.1786499023438 797.2568359375 L 669.952392578125 803.8965454101562 L 675.701171875 810.566650390625 L 681.4249267578125 817.2671508789062 L 687.123779296875 823.9981689453125 L 692.797607421875 830.759521484375 L 698.4464721679688 837.5513916015625" stroke-opacity="0.800000011920929" stroke-linejoin="bevel" stroke-miterlimit="10" stroke-width="4" stroke-dasharray="2,4" clip-path="url(#pOLigxAmeKQN)"/><path fill="none" stroke="rgb(193,22,27)" paint-order="fill" d="M 18.064044952392578 312.7744445800781 L 26.12220573425293 316.5073547363281 L 34.079246520996094 320.1170349121094 L 41.93519592285156 323.6035461425781 L 49.689998626708984 326.9668273925781 L 57.34370803833008 330.2069091796875 L 64.89630126953125 333.32379150390625 L 72.34777069091797 336.31744384765625 L 79.69815063476562 339.1878967285156 L 86.94738006591797 341.9351501464844 L 94.09552001953125 344.5592041015625 L 101.14254760742188 347.06005859375 L 108.08844757080078 349.43768310546875 L 114.93325805664062 351.6921081542969 L 121.67691802978516 353.82330322265625 L 128.31948852539062 355.8313293457031 L 134.86094665527344 357.71612548828125 L 141.30126953125 359.47772216796875 L 147.64051818847656 361.1161193847656 L 153.8786163330078 362.63128662109375 L 160.01560974121094 364.02325439453125 L 166.05149841308594 365.29205322265625 L 171.9862518310547 366.4375915527344 L 177.8199005126953 367.4599609375 L 183.5524444580078 368.3591003417969 L 189.1838836669922 369.1350402832031 L 194.71417236328125 369.78778076171875 L 200.14337158203125 370.3172912597656 L 205.47146606445312 370.7236022949219 L 210.69842529296875 371.0067443847656 L 215.82427978515625 371.1666259765625 L 220.84902954101562 371.2033386230469 L 225.77264404296875 371.1168212890625 L 230.5951690673828 370.9071044921875 L 235.31655883789062 370.5741882324219 L 239.9368438720703 370.1180725097656 L 244.45602416992188 369.5387268066406 L 248.8740692138672 368.836181640625 L 253.19100952148438 368.0104064941406 L 257.4068298339844 367.06146240234375 L 261.52154541015625 365.9892883300781 L 265.53515625 364.7939147949219 L 269.4476318359375 363.475341796875 L 273.2590026855469 362.0335693359375 L 276.9692687988281 360.46856689453125 L 280.5783996582031 358.7803649902344 L 284.08642578125 356.9689636230469 L 287.49334716796875 355.03436279296875 L 290.79913330078125 352.9765319824219 L 294.00384521484375 350.7955017089844 L 297.1073913574219 348.49127197265625 L 300.10986328125 346.0638122558594 L 303.0111999511719 343.51318359375 L 305.8114318847656 340.8393249511719 L 308.51055908203125 338.0422668457031 L 311.1085510253906 335.1219787597656 L 313.6054382324219 332.0785217285156 L 316.001220703125 328.9118347167969 L 318.2958984375 325.6219482421875 L 320.48944091796875 322.2088317871094 L 322.58184814453125 318.6725158691406 L 324.57318115234375 315.0130310058594 L 326.46337890625 311.2303161621094 L 328.2524719238281 307.3243713378906 L 329.9404602050781 303.29522705078125 L 331.5273132324219 299.1429138183594 L 333.0130615234375 294.86737060546875 L 334.3976745605469 290.4685974121094 L 335.68121337890625 285.9466552734375 L 336.8636169433594 281.3014831542969 L 337.9449157714844 276.5331115722656 L 338.9250793457031 271.64154052734375 L 339.80413818359375 266.6267395019531 L 340.58209228515625 261.4887390136719 L 341.2589111328125 256.2275390625 L 341.83465576171875 250.84312438964844 L 342.30926513671875 245.3355255126953 L 342.6827392578125 239.70469665527344 L 342.9551086425781 233.95065307617188 L 343.1263732910156 228.0734100341797 L 343.196533203125 222.07298278808594 L 343.16558837890625 215.9493408203125 L 343.03350830078125 209.7024688720703 L 342.80029296875 203.3323974609375 L 342.46600341796875 196.839111328125 L 342.03057861328125 190.22264099121094 L 341.4940490722656 183.4829559326172 L 340.85638427734375 176.62008666992188 L 340.1176452636719 169.63397216796875 L 339.27777099609375 162.524658203125 L 338.3367614746094 155.29214477539062 L 337.2946472167969 147.93643188476562 L 336.15142822265625 140.45748901367188 L 334.9071044921875 132.85537719726562 L 333.5616760253906 125.1300277709961 L 332.1151123046875 117.2814712524414 L 330.5674133300781 109.30972290039062 L 328.91864013671875 101.2147445678711 L 327.1687316894531 92.99658966064453 L 325.3177185058594 84.65520477294922" stroke-opacity="0.800000011920929" stroke-linejoin="bevel" stroke-miterlimit="10" stroke-width="4" stroke-dasharray="2,4" clip-path="url(#pOLigxAmeKQN)"/><path fill="none" stroke="rgb(193,22,27)" paint-order="fill" d="M 18.064044952392578 692.2255249023438 L 26.0916805267334 688.4310302734375 L 33.95712661743164 684.636474609375 L 41.660404205322266 680.8419799804688 L 49.201515197753906 677.0474853515625 L 56.58045959472656 673.2529907226562 L 63.797210693359375 669.45849609375 L 70.85179901123047 665.6639404296875 L 77.74421691894531 661.8694458007812 L 84.47444152832031 658.074951171875 L 91.04249572753906 654.2803955078125 L 97.44839477539062 650.4859008789062 L 103.6921157836914 646.69140625 L 109.77365112304688 642.8969116210938 L 115.6930160522461 639.1023559570312 L 121.4502182006836 635.307861328125 L 127.04522705078125 631.5133666992188 L 132.4780731201172 627.7188720703125 L 137.74874877929688 623.92431640625 L 142.8572235107422 620.1298217773438 L 147.8035430908203 616.3353271484375 L 152.5876922607422 612.5408325195312 L 157.2096710205078 608.7462768554688 L 161.66946411132812 604.9517822265625 L 165.9670867919922 601.1572875976562 L 170.10250854492188 597.3627319335938 L 174.0758056640625 593.5682373046875 L 177.88690185546875 589.7737426757812 L 181.5358123779297 585.979248046875 L 185.02256774902344 582.1846923828125 L 188.34713745117188 578.3901977539062 L 191.50955200195312 574.595703125 L 194.509765625 570.8012084960938 L 197.3478240966797 567.0066528320312 L 200.02369689941406 563.212158203125 L 202.5373992919922 559.4176635742188 L 204.88893127441406 555.6231689453125 L 207.07827758789062 551.82861328125 L 209.10546875 548.0341186523438 L 210.97047424316406 544.2396240234375 L 212.67330932617188 540.445068359375 L 214.21395874023438 536.6505737304688 L 215.59243774414062 532.8560791015625 L 216.80874633789062 529.0615844726562 L 217.86288452148438 525.2670288085938 L 218.7548370361328 521.4725341796875 L 219.484619140625 517.6780395507812 L 220.05223083496094 513.883544921875 L 220.45767211914062 510.0890197753906 L 220.70094299316406 506.29449462890625 L 220.7820281982422 502.5 L 220.70094299316406 498.7054748535156 L 220.45767211914062 494.9109802246094 L 220.05223083496094 491.116455078125 L 219.484619140625 487.32196044921875 L 218.7548370361328 483.5274353027344 L 217.86288452148438 479.7329406738281 L 216.80874633789062 475.93841552734375 L 215.59243774414062 472.1438903808594 L 214.21395874023438 468.3493957519531 L 212.67330932617188 464.55487060546875 L 210.97047424316406 460.7603759765625 L 209.10546875 456.9658508300781 L 207.07827758789062 453.1713562011719 L 204.88893127441406 449.3768310546875 L 202.5373992919922 445.58233642578125 L 200.02369689941406 441.7878112792969 L 197.3478240966797 437.9933166503906 L 194.509765625 434.19879150390625 L 191.50955200195312 430.404296875 L 188.34713745117188 426.6097717285156 L 185.02256774902344 422.8152770996094 L 181.5358123779297 419.020751953125 L 177.88690185546875 415.22625732421875 L 174.0758056640625 411.4317321777344 L 170.10250854492188 407.63720703125 L 165.9670867919922 403.84271240234375 L 161.66946411132812 400.0481872558594 L 157.2096710205078 396.2536926269531 L 152.5876922607422 392.45916748046875 L 147.8035430908203 388.6646728515625 L 142.8572235107422 384.8701477050781 L 137.74874877929688 381.0756530761719 L 132.4780731201172 377.2811279296875 L 127.04522705078125 373.48663330078125 L 121.4502182006836 369.6921081542969 L 115.6930160522461 365.8975830078125 L 109.77365112304688 362.10308837890625 L 103.6921157836914 358.3085632324219 L 97.44839477539062 354.5140686035156 L 91.04249572753906 350.71954345703125 L 84.47444152832031 346.925048828125 L 77.74421691894531 343.1305236816406 L 70.85179901123047 339.3360290527344 L 63.797210693359375 335.54150390625 L 56.58045959472656 331.74700927734375 L 49.201515197753906 327.9524841308594 L 41.660404205322266 324.1579895019531 L 33.95712661743164 320.36346435546875 L 26.0916805267334 316.5689697265625" stroke-opacity="0.800000011920929" stroke-linejoin="bevel" stroke-miterlimit="10" stroke-width="4" stroke-dasharray="2,4" clip-path="url(#pOLigxAmeKQN)"/><path fill="none" stroke="rgb(193,22,27)" paint-order="fill" d="M 18.064044952392578 692.2255249023438 L 26.16026496887207 688.4841918945312 L 34.23154067993164 684.84912109375 L 42.2778205871582 681.3204345703125 L 50.29912567138672 677.8980712890625 L 58.29546356201172 674.5819702148438 L 66.26683044433594 671.3721923828125 L 74.21321868896484 668.268798828125 L 82.1346435546875 665.2716674804688 L 90.03108978271484 662.380859375 L 97.90257263183594 659.596435546875 L 105.74907684326172 656.9182739257812 L 113.57061767578125 654.346435546875 L 121.36714935302734 651.8809204101562 L 129.1387481689453 649.521728515625 L 136.88534545898438 647.2688598632812 L 144.60699462890625 645.122314453125 L 152.30364990234375 643.0820922851562 L 159.97535705566406 641.1481323242188 L 167.62205505371094 639.320556640625 L 175.24380493164062 637.5993041992188 L 182.84056091308594 635.9843139648438 L 190.41236877441406 634.4757080078125 L 197.9591827392578 633.0733642578125 L 205.4810333251953 631.7774047851562 L 212.97792053222656 630.5877075195312 L 220.4498291015625 629.5043334960938 L 227.89675903320312 628.52734375 L 235.31871032714844 627.6566162109375 L 242.71571350097656 626.8922119140625 L 250.0877227783203 626.234130859375 L 257.43475341796875 625.682373046875 L 264.7568054199219 625.2369384765625 L 272.0539245605469 624.8978271484375 L 279.3260498046875 624.6650390625 L 286.57318115234375 624.53857421875 L 293.79534912109375 624.5183715820312 L 300.9925537109375 624.6045532226562 L 308.1647644042969 624.7970581054688 L 315.3120422363281 625.0958251953125 L 322.4342956542969 625.5009765625 L 329.5316162109375 626.0123901367188 L 336.60394287109375 626.6301879882812 L 343.65130615234375 627.354248046875 L 350.6737060546875 628.1846313476562 L 357.6711120605469 629.1213989257812 L 364.6435546875 630.1644287109375 L 371.5910339355469 631.3137817382812 L 378.5135192871094 632.5694580078125 L 385.4110412597656 633.9314575195312 L 392.2835998535156 635.3997802734375 L 399.13116455078125 636.9744262695312 L 405.9537658691406 638.6553955078125 L 412.75140380859375 640.4426879882812 L 419.5240783691406 642.3362426757812 L 426.2717590332031 644.336181640625 L 432.9944763183594 646.4424438476562 L 439.69219970703125 648.6549682617188 L 446.3649597167969 650.973876953125 L 453.01275634765625 653.3990478515625 L 459.6355895996094 655.9306030273438 L 466.2334289550781 658.5684204101562 L 472.8063049316406 661.3125610351562 L 479.35418701171875 664.1630859375 L 485.8771057128906 667.119873046875 L 492.37506103515625 670.1829833984375 L 498.8480529785156 673.3524169921875 L 505.2960510253906 676.628173828125 L 511.7190856933594 680.01025390625 L 518.1171264648438 683.4986572265625 L 524.490234375 687.0933837890625 L 530.83837890625 690.79443359375 L 537.1614990234375 694.6017456054688 L 543.4596557617188 698.5154418945312 L 549.7328491210938 702.5354614257812 L 555.9810791015625 706.6617431640625 L 562.204345703125 710.8944091796875 L 568.402587890625 715.2333374023438 L 574.575927734375 719.6786499023438 L 580.7242431640625 724.230224609375 L 586.8475952148438 728.8881225585938 L 592.9459838867188 733.6524047851562 L 599.0194091796875 738.52294921875 L 605.0678100585938 743.4998168945312 L 611.09130859375 748.5830078125 L 617.0897827148438 753.7725219726562 L 623.0632934570312 759.068359375 L 629.0118408203125 764.4705200195312 L 634.9354248046875 769.97900390625 L 640.833984375 775.59375 L 646.7076416015625 781.3148803710938 L 652.5562744140625 787.142333984375 L 658.3799438476562 793.0761108398438 L 664.1786499023438 799.1161499023438 L 669.952392578125 805.2625732421875 L 675.701171875 811.5152587890625 L 681.4249267578125 817.8743286132812 L 687.123779296875 824.3396606445312 L 692.797607421875 830.9113159179688 L 698.4464721679688 837.5892944335938" stroke-opacity="0.800000011920929" stroke-linejoin="bevel" stroke-miterlimit="10" stroke-width="4" stroke-dasharray="2,4" clip-path="url(#pOLigxAmeKQN)"/><path fill="none" stroke="rgb(193,22,27)" paint-order="fill" d="M 18.064044952392578 692.2255249023438 L 26.12220573425293 688.4073486328125 L 34.079246520996094 684.5418701171875 L 41.93519592285156 680.6290893554688 L 49.689998626708984 676.6689453125 L 57.34370803833008 672.6614990234375 L 64.89630126953125 668.6067504882812 L 72.34777069091797 664.5046997070312 L 79.69815063476562 660.3552856445312 L 86.94738006591797 656.1585693359375 L 94.09552001953125 651.9146118164062 L 101.14254760742188 647.6232299804688 L 108.08844757080078 643.2846069335938 L 114.93325805664062 638.8986206054688 L 121.67691802978516 634.46533203125 L 128.31948852539062 629.9847412109375 L 134.86094665527344 625.456787109375 L 141.30126953125 620.881591796875 L 147.64051818847656 616.259033203125 L 153.8786163330078 611.5891723632812 L 160.01560974121094 606.8719482421875 L 166.05149841308594 602.1074829101562 L 171.9862518310547 597.295654296875 L 177.8199005126953 592.4365234375 L 183.5524444580078 587.530029296875 L 189.1838836669922 582.5762939453125 L 194.71417236328125 577.5751953125 L 200.14337158203125 572.5267944335938 L 205.47146606445312 567.4310302734375 L 210.69842529296875 562.2880249023438 L 215.82427978515625 557.09765625 L 220.84902954101562 551.8599853515625 L 225.77264404296875 546.5750122070312 L 230.5951690673828 541.24267578125 L 235.31655883789062 535.8630981445312 L 239.9368438720703 530.4361572265625 L 244.45602416992188 524.9618530273438 L 248.8740692138672 519.4403076171875 L 253.19100952148438 513.8713989257812 L 257.4068298339844 508.2552185058594 L 261.52154541015625 502.5916748046875 L 265.53515625 496.880859375 L 269.4476318359375 491.1226806640625 L 273.2590026855469 485.3172302246094 L 276.9692687988281 479.46441650390625 L 280.5783996582031 473.5643310546875 L 284.08642578125 467.6169128417969 L 287.49334716796875 461.6221618652344 L 290.79913330078125 455.5801086425781 L 294.00384521484375 449.49072265625 L 297.1073913574219 443.3540344238281 L 300.10986328125 437.1700439453125 L 303.0111999511719 430.938720703125 L 305.8114318847656 424.6600646972656 L 308.51055908203125 418.3341064453125 L 311.1085510253906 411.9608459472656 L 313.6054382324219 405.5402526855469 L 316.001220703125 399.07232666015625 L 318.2958984375 392.5570983886719 L 320.48944091796875 385.99456787109375 L 322.58184814453125 379.38470458984375 L 324.57318115234375 372.7275390625 L 326.46337890625 366.0230407714844 L 328.2524719238281 359.271240234375 L 329.9404602050781 352.47210693359375 L 331.5273132324219 345.62567138671875 L 333.0130615234375 338.7319030761719 L 334.3976745605469 331.79083251953125 L 335.68121337890625 324.80242919921875 L 336.8636169433594 317.7667236328125 L 337.9449157714844 310.6837158203125 L 338.9250793457031 303.5533752441406 L 339.80413818359375 296.3757019042969 L 340.58209228515625 289.1507263183594 L 341.2589111328125 281.87841796875 L 341.83465576171875 274.5588073730469 L 342.30926513671875 267.19189453125 L 342.6827392578125 259.77764892578125 L 342.9551086425781 252.3160858154297 L 343.1263732910156 244.80722045898438 L 343.196533203125 237.2510223388672 L 343.16558837890625 229.64752197265625 L 343.03350830078125 221.99668884277344 L 342.80029296875 214.29855346679688 L 342.46600341796875 206.55308532714844 L 342.03057861328125 198.76031494140625 L 341.4940490722656 190.9202117919922 L 340.85638427734375 183.0327911376953 L 340.1176452636719 175.09808349609375 L 339.27777099609375 167.11602783203125 L 338.3367614746094 159.08665466308594 L 337.2946472167969 151.0099639892578 L 336.15142822265625 142.885986328125 L 334.9071044921875 134.71469116210938 L 333.5616760253906 126.49604034423828 L 332.1151123046875 118.23011016845703 L 330.5674133300781 109.9168472290039 L 328.91864013671875 101.5562515258789 L 327.1687316894531 93.14835357666016 L 325.3177185058594 84.69315338134766" stroke-opacity="0.800000011920929" stroke-linejoin="bevel" stroke-miterlimit="10" stroke-width="4" stroke-dasharray="2,4" clip-path="url(#pOLigxAmeKQN)"/><path fill="none" stroke="rgb(193,22,27)" paint-order="fill" d="M 323.3655700683594 928.809326171875 L 325.31768798828125 920.3068237304688 L 327.168701171875 911.8516235351562 L 328.9186096191406 903.4437255859375 L 330.5674133300781 895.0831298828125 L 332.1150817871094 886.7698974609375 L 333.5616455078125 878.50390625 L 334.9070739746094 870.2853393554688 L 336.15142822265625 862.114013671875 L 337.2946472167969 853.989990234375 L 338.33673095703125 845.913330078125 L 339.2777404785156 837.8839721679688 L 340.11761474609375 829.9019165039062 L 340.85638427734375 821.9672241210938 L 341.4940185546875 814.0797729492188 L 342.0305480957031 806.2396850585938 L 342.4659729003906 798.4468994140625 L 342.80029296875 790.7014770507812 L 343.0334777832031 783.0032958984375 L 343.1655578613281 775.3524780273438 L 343.196533203125 767.7489624023438 L 343.1263732910156 760.1928100585938 L 342.9551086425781 752.6838989257812 L 342.6827392578125 745.2223510742188 L 342.3092346191406 737.80810546875 L 341.8346252441406 730.441162109375 L 341.2589111328125 723.12158203125 L 340.5820617675781 715.8492431640625 L 339.80413818359375 708.624267578125 L 338.9250793457031 701.4466552734375 L 337.94488525390625 694.3162841796875 L 336.86358642578125 687.2332763671875 L 335.6811828613281 680.1975708007812 L 334.3976745605469 673.2091674804688 L 333.0130310058594 666.26806640625 L 331.52728271484375 659.3743286132812 L 329.9404296875 652.5278930664062 L 328.2524719238281 645.728759765625 L 326.46337890625 638.9769287109375 L 324.5731506347656 632.2724609375 L 322.58184814453125 625.6152954101562 L 320.4894104003906 619.0054321289062 L 318.2958679199219 612.44287109375 L 316.001220703125 605.9276733398438 L 313.6054382324219 599.4597778320312 L 311.1085510253906 593.0391845703125 L 308.51055908203125 586.6658935546875 L 305.8114318847656 580.3399047851562 L 303.0111999511719 574.061279296875 L 300.10986328125 567.8299560546875 L 297.1073913574219 561.6459350585938 L 294.00384521484375 555.50927734375 L 290.79913330078125 549.4198608398438 L 287.49334716796875 543.3778076171875 L 284.08642578125 537.3831176757812 L 280.5783996582031 531.4356689453125 L 276.9692687988281 525.5355834960938 L 273.2590026855469 519.6827392578125 L 269.4476318359375 513.8773193359375 L 265.53515625 508.119140625 L 261.52154541015625 502.4082946777344 L 257.4068298339844 496.7447814941406 L 253.19100952148438 491.1285705566406 L 248.87405395507812 485.5596923828125 L 244.4560089111328 480.0381164550781 L 239.9368438720703 474.5638427734375 L 235.31654357910156 469.13690185546875 L 230.59515380859375 463.7572937011719 L 225.77264404296875 458.42498779296875 L 220.84902954101562 453.1399841308594 L 215.82427978515625 447.9023132324219 L 210.69842529296875 442.71197509765625 L 205.47146606445312 437.5689392089844 L 200.14337158203125 432.47320556640625 L 194.71417236328125 427.4248046875 L 189.18385314941406 422.4237060546875 L 183.5524444580078 417.4699401855469 L 177.8199005126953 412.5634765625 L 171.9862518310547 407.704345703125 L 166.05149841308594 402.89251708984375 L 160.01560974121094 398.1280212402344 L 153.8786163330078 393.41082763671875 L 147.64051818847656 388.740966796875 L 141.30126953125 384.118408203125 L 134.86094665527344 379.54315185546875 L 128.31948852539062 375.0152282714844 L 121.67691802978516 370.5346374511719 L 114.93325805664062 366.1013488769531 L 108.08844757080078 361.71539306640625 L 101.14254760742188 357.3767395019531 L 94.09552001953125 353.08538818359375 L 86.94738006591797 348.84136962890625 L 79.69815063476562 344.6446533203125 L 72.34777069091797 340.4952697753906 L 64.89630126953125 336.3932189941406 L 57.34370803833008 332.3384704589844 L 49.689998626708984 328.3310241699219 L 41.93519592285156 324.37091064453125 L 34.079246520996094 320.4580993652344 L 26.12220573425293 316.5926208496094" stroke-opacity="0.800000011920929" stroke-linejoin="bevel" stroke-miterlimit="10" stroke-width="4" stroke-dasharray="2,4" clip-path="url(#pOLigxAmeKQN)"/><path fill="none" stroke="rgb(202,24,29)" paint-order="fill" d="M 323.3655700683594 928.809326171875 L 325.31768798828125 920.3447875976562 L 327.168701171875 912.00341796875 L 328.9186096191406 903.7852172851562 L 330.5674133300781 895.6902465820312 L 332.1150817871094 887.718505859375 L 333.5616455078125 879.8699951171875 L 334.9070739746094 872.1446533203125 L 336.15142822265625 864.54248046875 L 337.2946472167969 857.0635375976562 L 338.33673095703125 849.7078247070312 L 339.2777404785156 842.475341796875 L 340.11761474609375 835.3660278320312 L 340.85638427734375 828.3799438476562 L 341.4940185546875 821.5170288085938 L 342.0305480957031 814.77734375 L 342.4659729003906 808.1608276367188 L 342.80029296875 801.6676025390625 L 343.0334777832031 795.2975463867188 L 343.1655578613281 789.0506591796875 L 343.196533203125 782.927001953125 L 343.1263732910156 776.9265747070312 L 342.9551086425781 771.04931640625 L 342.6827392578125 765.2952880859375 L 342.3092346191406 759.6644897460938 L 341.8346252441406 754.1568603515625 L 341.2589111328125 748.7724609375 L 340.5820617675781 743.51123046875 L 339.80413818359375 738.373291015625 L 338.9250793457031 733.3584594726562 L 337.94488525390625 728.4668579101562 L 336.86358642578125 723.698486328125 L 335.6811828613281 719.0533447265625 L 334.3976745605469 714.5313720703125 L 333.0130310058594 710.1326293945312 L 331.52728271484375 705.8571166992188 L 329.9404296875 701.7047729492188 L 328.2524719238281 697.6755981445312 L 326.46337890625 693.7697143554688 L 324.5731506347656 689.9869384765625 L 322.58184814453125 686.3274536132812 L 320.4894104003906 682.7911376953125 L 318.2958679199219 679.3780517578125 L 316.001220703125 676.088134765625 L 313.6054382324219 672.9215087890625 L 311.1085510253906 669.8779907226562 L 308.51055908203125 666.9577026367188 L 305.8114318847656 664.16064453125 L 303.0111999511719 661.48681640625 L 300.10986328125 658.9361572265625 L 297.1073913574219 656.5087280273438 L 294.00384521484375 654.2044677734375 L 290.79913330078125 652.0234375 L 287.49334716796875 649.9656372070312 L 284.08642578125 648.031005859375 L 280.5783996582031 646.2196044921875 L 276.9692687988281 644.5314331054688 L 273.2590026855469 642.9664306640625 L 269.4476318359375 641.524658203125 L 265.53515625 640.2060546875 L 261.52154541015625 639.0106811523438 L 257.4068298339844 637.9385375976562 L 253.19100952148438 636.9895629882812 L 248.87405395507812 636.163818359375 L 244.4560089111328 635.4612426757812 L 239.9368438720703 634.8819580078125 L 235.31654357910156 634.42578125 L 230.59515380859375 634.0928955078125 L 225.77264404296875 633.8831787109375 L 220.84902954101562 633.796630859375 L 215.82427978515625 633.8333740234375 L 210.69842529296875 633.9932861328125 L 205.47146606445312 634.2763671875 L 200.14337158203125 634.6826782226562 L 194.71417236328125 635.2122192382812 L 189.18385314941406 635.8649291992188 L 183.5524444580078 636.640869140625 L 177.8199005126953 637.5400390625 L 171.9862518310547 638.5623779296875 L 166.05149841308594 639.7079467773438 L 160.01560974121094 640.9766845703125 L 153.8786163330078 642.36865234375 L 147.64051818847656 643.8838500976562 L 141.30126953125 645.5222778320312 L 134.86094665527344 647.2838745117188 L 128.31948852539062 649.1686401367188 L 121.67691802978516 651.1766357421875 L 114.93325805664062 653.307861328125 L 108.08844757080078 655.5623168945312 L 101.14254760742188 657.93994140625 L 94.09552001953125 660.4407958984375 L 86.94738006591797 663.0648193359375 L 79.69815063476562 665.8120727539062 L 72.34777069091797 668.6824951171875 L 64.89630126953125 671.6762084960938 L 57.34370803833008 674.7930908203125 L 49.689998626708984 678.0331420898438 L 41.93519592285156 681.3964233398438 L 34.079246520996094 684.8829345703125 L 26.12220573425293 688.4926147460938" stroke-opacity="0.800000011920929" stroke-linejoin="bevel" stroke-miterlimit="10" stroke-width="3.8399999141693115" stroke-dasharray="2,4" clip-path="url(#pOLigxAmeKQN)"/><path fill="none" stroke="rgb(195,22,27)" paint-order="fill" d="M 323.3655700683594 928.809326171875 L 325.3482360839844 920.283203125 L 327.29083251953125 911.7569580078125 L 329.1933898925781 903.2308349609375 L 331.0558776855469 894.70458984375 L 332.8783264160156 886.1784057617188 L 334.6607360839844 877.6522216796875 L 336.403076171875 869.1260375976562 L 338.1053466796875 860.599853515625 L 339.767578125 852.0736694335938 L 341.3897705078125 843.5474853515625 L 342.9718933105469 835.0213012695312 L 344.5139465332031 826.4951171875 L 346.0159606933594 817.9689331054688 L 347.4779357910156 809.4427490234375 L 348.89984130859375 800.9165649414062 L 350.2817077636719 792.390380859375 L 351.6235046386719 783.8641967773438 L 352.92523193359375 775.3380126953125 L 354.18695068359375 766.8118286132812 L 355.4085693359375 758.2855834960938 L 356.5901794433594 749.7594604492188 L 357.731689453125 741.2332153320312 L 358.83319091796875 732.7070922851562 L 359.89459228515625 724.1808471679688 L 360.9159851074219 715.6546630859375 L 361.8973083496094 707.1284790039062 L 362.83856201171875 698.602294921875 L 363.7397766113281 690.0761108398438 L 364.6009216308594 681.5499267578125 L 365.4220275878906 673.0237426757812 L 366.20306396484375 664.49755859375 L 366.9440612792969 655.9713745117188 L 367.64501953125 647.4451904296875 L 368.305908203125 638.9190063476562 L 368.9267272949219 630.392822265625 L 369.50750732421875 621.8666381835938 L 370.0482482910156 613.3404541015625 L 370.5489196777344 604.8142700195312 L 371.009521484375 596.2880859375 L 371.4300842285156 587.7618408203125 L 371.81060791015625 579.2356567382812 L 372.15106201171875 570.70947265625 L 372.45147705078125 562.1832885742188 L 372.7118225097656 553.6571044921875 L 372.9320983886719 545.1309204101562 L 373.11236572265625 536.604736328125 L 373.2525329589844 528.0785522460938 L 373.3526916503906 519.5523681640625 L 373.4127502441406 511.02618408203125 L 373.43280029296875 502.5 L 373.4127502441406 493.97381591796875 L 373.3526916503906 485.4476318359375 L 373.2525329589844 476.92144775390625 L 373.11236572265625 468.3952331542969 L 372.93212890625 459.8690490722656 L 372.7118225097656 451.3428649902344 L 372.45147705078125 442.8166809082031 L 372.15106201171875 434.2904968261719 L 371.81060791015625 425.7643127441406 L 371.43011474609375 417.2381286621094 L 371.0095520019531 408.7119445800781 L 370.5489196777344 400.1857604980469 L 370.0482482910156 391.6595764160156 L 369.50750732421875 383.1333923339844 L 368.9267578125 374.607177734375 L 368.305908203125 366.08099365234375 L 367.64501953125 357.5548095703125 L 366.944091796875 349.02862548828125 L 366.2030944824219 340.50244140625 L 365.4220275878906 331.97625732421875 L 364.6009216308594 323.4500427246094 L 363.7397766113281 314.9238586425781 L 362.83856201171875 306.3976745605469 L 361.8973083496094 297.8714904785156 L 360.9159851074219 289.3453063964844 L 359.8946228027344 280.8191223144531 L 358.83319091796875 272.2929382324219 L 357.7317199707031 263.7667541503906 L 356.5901794433594 255.2405548095703 L 355.4085998535156 246.71438598632812 L 354.18695068359375 238.1881866455078 L 352.9252624511719 229.66201782226562 L 351.6235046386719 221.1358184814453 L 350.2817077636719 212.60960388183594 L 348.8998718261719 204.08343505859375 L 347.47796630859375 195.55723571777344 L 346.0159912109375 187.03106689453125 L 344.51397705078125 178.50486755371094 L 342.9718933105469 169.9786834716797 L 341.3897705078125 161.45248413085938 L 339.7676086425781 152.9263153076172 L 338.1053771972656 144.40011596679688 L 336.403076171875 135.8739471435547 L 334.6607666015625 127.34774017333984 L 332.87835693359375 118.82156372070312 L 331.055908203125 110.29536437988281 L 329.19342041015625 101.7691879272461 L 327.2908630371094 93.24298858642578 L 325.3482360839844 84.7168197631836" stroke-opacity="0.800000011920929" stroke-linejoin="bevel" stroke-miterlimit="10" stroke-width="3.9600000381469727" stroke-dasharray="2,4" clip-path="url(#pOLigxAmeKQN)"/><path fill="none" stroke="rgb(197,23,28)" paint-order="fill" d="M 323.3655700683594 928.809326171875 L 325.38629150390625 920.3599853515625 L 327.443115234375 912.0642700195312 L 329.5360107421875 903.9221801757812 L 331.6650085449219 895.9337158203125 L 333.830078125 888.098876953125 L 336.03125 880.417724609375 L 338.2685241699219 872.89013671875 L 340.5418701171875 865.5162353515625 L 342.8512878417969 858.2959594726562 L 345.1968078613281 851.2293090820312 L 347.5783996582031 844.3163452148438 L 349.99609375 837.5569458007812 L 352.44989013671875 830.9512329101562 L 354.93975830078125 824.4991455078125 L 357.4656982421875 818.20068359375 L 360.0277404785156 812.0558471679688 L 362.6258544921875 806.064697265625 L 365.26007080078125 800.2271118164062 L 367.9303894042969 794.543212890625 L 370.63677978515625 789.012939453125 L 373.3792419433594 783.6362915039062 L 376.1578063964844 778.4132690429688 L 378.97247314453125 773.3439331054688 L 381.8232116699219 768.42822265625 L 384.71002197265625 763.6661376953125 L 387.6329345703125 759.0576782226562 L 390.5919494628906 754.6028442382812 L 393.5870361328125 750.3016357421875 L 396.6181945800781 746.1541137695312 L 399.6854553222656 742.1602172851562 L 402.788818359375 738.3199462890625 L 405.9282531738281 734.63330078125 L 409.103759765625 731.1002807617188 L 412.31536865234375 727.720947265625 L 415.5630798339844 724.4952392578125 L 418.84686279296875 721.4231567382812 L 422.1667175292969 718.5046997070312 L 425.5226745605469 715.7398681640625 L 428.91473388671875 713.1287231445312 L 432.3428649902344 710.671142578125 L 435.80706787109375 708.3672485351562 L 439.307373046875 706.2169799804688 L 442.8437805175781 704.2203369140625 L 446.416259765625 702.3773803710938 L 450.02484130859375 700.68798828125 L 453.66949462890625 699.1522827148438 L 457.3502197265625 697.7702026367188 L 461.0670471191406 696.541748046875 L 464.8199768066406 695.4669189453125 L 468.6089782714844 694.5457153320312 L 472.43408203125 693.7781982421875 L 476.2952575683594 693.164306640625 L 480.1925048828125 692.7040405273438 L 484.1258850097656 692.3973999023438 L 488.0953063964844 692.2444458007812 L 492.100830078125 692.2450561523438 L 496.1424560546875 692.3993530273438 L 500.22015380859375 692.707275390625 L 504.3339538574219 693.1688232421875 L 508.48382568359375 693.7839965820312 L 512.6697998046875 694.5528564453125 L 516.891845703125 695.4752807617188 L 521.1499633789062 696.5513916015625 L 525.4442138671875 697.7811279296875 L 529.7745361328125 699.1644897460938 L 534.1409301757812 700.7015380859375 L 538.5433959960938 702.3921508789062 L 542.9819946289062 704.2364501953125 L 547.4566040039062 706.234375 L 551.9674072265625 708.3859252929688 L 556.5142211914062 710.6911010742188 L 561.0971069335938 713.1499633789062 L 565.7161254882812 715.7623901367188 L 570.3712158203125 718.5285034179688 L 575.0624389648438 721.4482421875 L 579.7896728515625 724.5216064453125 L 584.5530395507812 727.7486572265625 L 589.3524780273438 731.1292724609375 L 594.1880493164062 734.66357421875 L 599.0596313476562 738.3515014648438 L 603.9673461914062 742.1930541992188 L 608.9111328125 746.188232421875 L 613.8910522460938 750.3370971679688 L 618.906982421875 754.6395874023438 L 623.9590454101562 759.0956420898438 L 629.0471801757812 763.7053833007812 L 634.1714477539062 768.46875 L 639.3317260742188 773.3858032226562 L 644.5281372070312 778.4564819335938 L 649.7606201171875 783.6807250976562 L 655.0292358398438 789.0586547851562 L 660.3338623046875 794.5902099609375 L 665.6746215820312 800.2754516601562 L 671.0514526367188 806.1142578125 L 676.4644165039062 812.1067504882812 L 681.9134521484375 818.2528686523438 L 687.3984985351562 824.5525512695312 L 692.9197387695312 831.0059814453125 L 698.4769897460938 837.6129760742188" stroke-opacity="0.800000011920929" stroke-linejoin="bevel" stroke-miterlimit="10" stroke-width="3.9200000762939453" stroke-dasharray="2,4" clip-path="url(#pOLigxAmeKQN)"/><path fill="none" stroke="rgb(193,22,27)" paint-order="fill" d="M 704.0703735351562 844.3736572265625 L 698.4464721679688 837.5513916015625 L 692.797607421875 830.759521484375 L 687.123779296875 823.9981689453125 L 681.4249267578125 817.2671508789062 L 675.701171875 810.566650390625 L 669.952392578125 803.8965454101562 L 664.1786499023438 797.2568359375 L 658.3799438476562 790.6475830078125 L 652.5562744140625 784.0687866210938 L 646.7076416015625 777.5203857421875 L 640.833984375 771.00244140625 L 634.9354248046875 764.514892578125 L 629.0118408203125 758.0578002929688 L 623.0632934570312 751.631103515625 L 617.0897827148438 745.23486328125 L 611.09130859375 738.8690795898438 L 605.0678100585938 732.53369140625 L 599.0194091796875 726.2286987304688 L 592.9459838867188 719.9542236328125 L 586.8475952148438 713.7100830078125 L 580.7242431640625 707.4964599609375 L 574.575927734375 701.313232421875 L 568.402587890625 695.160400390625 L 562.204345703125 689.0380249023438 L 555.9810791015625 682.946044921875 L 549.7328491210938 676.8845825195312 L 543.4596557617188 670.8534545898438 L 537.1614990234375 664.8528442382812 L 530.83837890625 658.882568359375 L 524.490234375 652.9427490234375 L 518.1171264648438 647.0333862304688 L 511.7190856933594 641.1544799804688 L 505.2960510253906 635.3059692382812 L 498.8480529785156 629.4878540039062 L 492.37506103515625 623.7001953125 L 485.8771057128906 617.9429931640625 L 479.35418701171875 612.2161865234375 L 472.8063049316406 606.5198364257812 L 466.2334289550781 600.8539428710938 L 459.6355895996094 595.2184448242188 L 453.01275634765625 589.6133422851562 L 446.3649597167969 584.0386962890625 L 439.69219970703125 578.4945068359375 L 432.9944763183594 572.980712890625 L 426.2717590332031 567.4973754882812 L 419.5240783691406 562.04443359375 L 412.75140380859375 556.6219482421875 L 405.9537658691406 551.2298583984375 L 399.13116455078125 545.8682250976562 L 392.2835998535156 540.5370483398438 L 385.4110412597656 535.2362670898438 L 378.5135192871094 529.9658813476562 L 371.5910339355469 524.7259521484375 L 364.6435546875 519.5164794921875 L 357.6711120605469 514.33740234375 L 350.6737060546875 509.1888122558594 L 343.65130615234375 504.0705871582031 L 336.60394287109375 498.9828186035156 L 329.5316162109375 493.92547607421875 L 322.4342956542969 488.8985900878906 L 315.3120422363281 483.902099609375 L 308.1647644042969 478.93603515625 L 300.9925537109375 474.00042724609375 L 293.79534912109375 469.0952453613281 L 286.57318115234375 464.220458984375 L 279.3260498046875 459.3761291503906 L 272.0539245605469 454.5622253417969 L 264.7568054199219 449.77874755859375 L 257.43475341796875 445.0257263183594 L 250.0877227783203 440.3031005859375 L 242.71571350097656 435.6109313964844 L 235.31871032714844 430.94915771484375 L 227.89675903320312 426.3178405761719 L 220.4498291015625 421.7169494628906 L 212.97792053222656 417.146484375 L 205.4810333251953 412.6064453125 L 197.9591827392578 408.0968322753906 L 190.41236877441406 403.6176452636719 L 182.84056091308594 399.1689147949219 L 175.24380493164062 394.7505798339844 L 167.62205505371094 390.3627014160156 L 159.97535705566406 386.0052490234375 L 152.30364990234375 381.67822265625 L 144.60699462890625 377.3816223144531 L 136.88534545898438 373.1154479980469 L 129.1387481689453 368.87969970703125 L 121.36714935302734 364.67437744140625 L 113.57061767578125 360.49951171875 L 105.74907684326172 356.35504150390625 L 97.90257263183594 352.24102783203125 L 90.03108978271484 348.1574401855469 L 82.1346435546875 344.1042785644531 L 74.21321868896484 340.08154296875 L 66.26683044433594 336.0892333984375 L 58.29546356201172 332.12738037109375 L 50.29912567138672 328.1959228515625 L 42.2778205871582 324.2948913574219 L 34.23154067993164 320.42431640625 L 26.16026496887207 316.58416748046875" stroke-opacity="0.800000011920929" stroke-linejoin="bevel" stroke-miterlimit="10" stroke-width="4" stroke-dasharray="2,4" clip-path="url(#pOLigxAmeKQN)"/><path fill="none" stroke="rgb(193,22,27)" paint-order="fill" d="M 704.0703735351562 844.3736572265625 L 698.4464721679688 837.5892944335938 L 692.797607421875 830.9113159179688 L 687.123779296875 824.3396606445312 L 681.4249267578125 817.8743286132812 L 675.701171875 811.5152587890625 L 669.952392578125 805.2625732421875 L 664.1786499023438 799.1161499023438 L 658.3799438476562 793.0761108398438 L 652.5562744140625 787.142333984375 L 646.7076416015625 781.3148803710938 L 640.833984375 775.59375 L 634.9354248046875 769.97900390625 L 629.0118408203125 764.4705200195312 L 623.0632934570312 759.068359375 L 617.0897827148438 753.7725219726562 L 611.09130859375 748.5830078125 L 605.0678100585938 743.4998168945312 L 599.0194091796875 738.52294921875 L 592.9459838867188 733.6524047851562 L 586.8475952148438 728.8881225585938 L 580.7242431640625 724.230224609375 L 574.575927734375 719.6786499023438 L 568.402587890625 715.2333374023438 L 562.204345703125 710.8944091796875 L 555.9810791015625 706.6617431640625 L 549.7328491210938 702.5354614257812 L 543.4596557617188 698.5154418945312 L 537.1614990234375 694.6017456054688 L 530.83837890625 690.79443359375 L 524.490234375 687.0933837890625 L 518.1171264648438 683.4986572265625 L 511.7190856933594 680.01025390625 L 505.2960510253906 676.628173828125 L 498.8480529785156 673.3524169921875 L 492.37506103515625 670.1829833984375 L 485.8771057128906 667.119873046875 L 479.35418701171875 664.1630859375 L 472.8063049316406 661.3125610351562 L 466.2334289550781 658.5684204101562 L 459.6355895996094 655.9306030273438 L 453.01275634765625 653.3990478515625 L 446.3649597167969 650.973876953125 L 439.69219970703125 648.6549682617188 L 432.9944763183594 646.4424438476562 L 426.2717590332031 644.336181640625 L 419.5240783691406 642.3362426757812 L 412.75140380859375 640.4426879882812 L 405.9537658691406 638.6553955078125 L 399.13116455078125 636.9744262695312 L 392.2835998535156 635.3997802734375 L 385.4110412597656 633.9314575195312 L 378.5135192871094 632.5694580078125 L 371.5910339355469 631.3137817382812 L 364.6435546875 630.1644287109375 L 357.6711120605469 629.1213989257812 L 350.6737060546875 628.1846313476562 L 343.65130615234375 627.354248046875 L 336.60394287109375 626.6301879882812 L 329.5316162109375 626.0123901367188 L 322.4342956542969 625.5009765625 L 315.3120422363281 625.0958251953125 L 308.1647644042969 624.7970581054688 L 300.9925537109375 624.6045532226562 L 293.79534912109375 624.5183715820312 L 286.57318115234375 624.53857421875 L 279.3260498046875 624.6650390625 L 272.0539245605469 624.8978271484375 L 264.7568054199219 625.2369384765625 L 257.43475341796875 625.682373046875 L 250.0877227783203 626.234130859375 L 242.71571350097656 626.8922119140625 L 235.31871032714844 627.6566162109375 L 227.89675903320312 628.52734375 L 220.4498291015625 629.5043334960938 L 212.97792053222656 630.5877075195312 L 205.4810333251953 631.7774047851562 L 197.9591827392578 633.0733642578125 L 190.41236877441406 634.4757080078125 L 182.84056091308594 635.9843139648438 L 175.24380493164062 637.5993041992188 L 167.62205505371094 639.320556640625 L 159.97535705566406 641.1481323242188 L 152.30364990234375 643.0820922851562 L 144.60699462890625 645.122314453125 L 136.88534545898438 647.2688598632812 L 129.1387481689453 649.521728515625 L 121.36714935302734 651.8809204101562 L 113.57061767578125 654.346435546875 L 105.74907684326172 656.9182739257812 L 97.90257263183594 659.596435546875 L 90.03108978271484 662.380859375 L 82.1346435546875 665.2716674804688 L 74.21321868896484 668.268798828125 L 66.26683044433594 671.3721923828125 L 58.29546356201172 674.5819702148438 L 50.29912567138672 677.8980712890625 L 42.2778205871582 681.3204345703125 L 34.23154067993164 684.84912109375 L 26.16026496887207 688.4841918945312" stroke-opacity="0.800000011920929" stroke-linejoin="bevel" stroke-miterlimit="10" stroke-width="4" stroke-dasharray="2,4" clip-path="url(#pOLigxAmeKQN)"/><path fill="none" stroke="rgb(193,22,27)" paint-order="fill" d="M 704.0703735351562 844.3736572265625 L 698.4769897460938 837.5277099609375 L 692.9197387695312 830.6649169921875 L 687.3984985351562 823.7852172851562 L 681.9134521484375 816.888671875 L 676.4644165039062 809.9751586914062 L 671.0514526367188 803.0447998046875 L 665.6746215820312 796.0975952148438 L 660.3338623046875 789.1334838867188 L 655.0292358398438 782.1524658203125 L 649.7606201171875 775.154541015625 L 644.5281372070312 768.1397705078125 L 639.3317260742188 761.1080932617188 L 634.1714477539062 754.0595092773438 L 629.0471801757812 746.9940795898438 L 623.9590454101562 739.9117431640625 L 618.906982421875 732.8125 L 613.8910522460938 725.6964111328125 L 608.9111328125 718.5634155273438 L 603.9673461914062 711.4135131835938 L 599.0596313476562 704.2467651367188 L 594.1880493164062 697.0631103515625 L 589.3524780273438 689.862548828125 L 584.5530395507812 682.6451416015625 L 579.7896728515625 675.4107666015625 L 575.0624389648438 668.1596069335938 L 570.3712768554688 660.8914794921875 L 565.7161254882812 653.6065063476562 L 561.0971069335938 646.3046264648438 L 556.5142211914062 638.9859008789062 L 551.9674072265625 631.6502685546875 L 547.4566040039062 624.2977294921875 L 542.9819946289062 616.9282836914062 L 538.5433959960938 609.5419921875 L 534.1409301757812 602.1387939453125 L 529.7745361328125 594.7186889648438 L 525.4442138671875 587.28173828125 L 521.1499633789062 579.827880859375 L 516.891845703125 572.357177734375 L 512.6697998046875 564.8695068359375 L 508.48382568359375 557.364990234375 L 504.3339538574219 549.8436279296875 L 500.22015380859375 542.3052978515625 L 496.1424560546875 534.7501220703125 L 492.100830078125 527.1781005859375 L 488.0953063964844 519.589111328125 L 484.1258850097656 511.9832763671875 L 480.1925354003906 504.3605651855469 L 476.2952575683594 496.720947265625 L 472.43408203125 489.064453125 L 468.6089782714844 481.39105224609375 L 464.8199768066406 473.7007751464844 L 461.06707763671875 465.9936218261719 L 457.3502502441406 458.26959228515625 L 453.66949462890625 450.5286560058594 L 450.02484130859375 442.77081298828125 L 446.416259765625 434.9961242675781 L 442.8437805175781 427.20452880859375 L 439.3074035644531 419.3960266113281 L 435.8070983886719 411.5706481933594 L 432.3428649902344 403.7283935546875 L 428.91473388671875 395.8692626953125 L 425.522705078125 387.99322509765625 L 422.166748046875 380.1003112792969 L 418.84686279296875 372.1905212402344 L 415.5630798339844 364.2637939453125 L 412.31536865234375 356.3202209472656 L 409.103759765625 348.3597717285156 L 405.9282531738281 340.3824157714844 L 402.788818359375 332.3881530761719 L 399.68548583984375 324.3770446777344 L 396.61822509765625 316.3490295410156 L 393.5870361328125 308.3041076660156 L 390.5919494628906 300.2423095703125 L 387.6329650878906 292.16363525390625 L 384.7100524902344 284.0680847167969 L 381.8232116699219 275.95562744140625 L 378.97247314453125 267.8262634277344 L 376.1578369140625 259.6800537109375 L 373.3792724609375 251.51695251464844 L 370.63677978515625 243.33694458007812 L 367.9303894042969 235.1400604248047 L 365.2601013183594 226.92628479003906 L 362.6258850097656 218.69561767578125 L 360.02777099609375 210.44805908203125 L 357.4657287597656 202.1836395263672 L 354.93975830078125 193.90231323242188 L 352.44989013671875 185.6040802001953 L 349.9961242675781 177.28900146484375 L 347.57843017578125 168.95703125 L 345.19683837890625 160.60813903808594 L 342.851318359375 152.2423858642578 L 340.5418701171875 143.8597412109375 L 338.2685546875 135.460205078125 L 336.0312805175781 127.04378509521484 L 333.8301086425781 118.61048126220703 L 331.6650390625 110.1602783203125 L 329.5360412597656 101.69319152832031 L 327.4431457519531 93.20921325683594 L 325.3863220214844 84.7083740234375" stroke-opacity="0.800000011920929" stroke-linejoin="bevel" stroke-miterlimit="10" stroke-width="4" stroke-dasharray="2,4" clip-path="url(#pOLigxAmeKQN)"/><path fill="none" stroke="none"/><path fill="rgb(226,0,39)" stroke="rgb(0,0,0)" paint-order="fill" d="M 881 502.5 A 7.5 7.5 0 1 1 880.9999962500003 502.49250000125" fill-opacity="1" clip-path="url(#pOLigxAmeKQN)" stroke-opacity="1" stroke-linejoin="bevel" stroke-miterlimit="10" stroke-dasharray=""/><path fill="rgb(91,17,60)" stroke="rgb(0,0,0)" paint-order="fill" d="M 711.5704345703125 160.62640380859375 A 7.5 7.5 0 1 1 711.5704308203128 160.61890380984374" fill-opacity="1" clip-path="url(#pOLigxAmeKQN)" stroke-opacity="1" stroke-linejoin="bevel" stroke-miterlimit="10" stroke-dasharray=""/><path fill="rgb(255,52,255)" stroke="rgb(0,0,0)" paint-order="fill" d="M 330.8656005859375 76.19062042236328 A 7.5 7.5 0 1 1 330.8655968359378 76.18312042361327" fill-opacity="1" clip-path="url(#pOLigxAmeKQN)" stroke-opacity="1" stroke-linejoin="bevel" stroke-miterlimit="10" stroke-dasharray=""/><path fill="rgb(0,0,166)" stroke="rgb(0,0,0)" paint-order="fill" d="M 25.564044952392578 312.7744445800781 A 7.5 7.5 0 1 1 25.56404120239289 312.7669445813281" fill-opacity="1" clip-path="url(#pOLigxAmeKQN)" stroke-opacity="1" stroke-linejoin="bevel" stroke-miterlimit="10" stroke-dasharray=""/><path fill="rgb(73,75,90)" stroke="rgb(0,0,0)" paint-order="fill" d="M 25.564044952392578 692.2255249023438 A 7.5 7.5 0 1 1 25.56404120239289 692.2180249035938" fill-opacity="1" clip-path="url(#pOLigxAmeKQN)" stroke-opacity="1" stroke-linejoin="bevel" stroke-miterlimit="10" stroke-dasharray=""/><path fill="rgb(0,134,237)" stroke="rgb(0,0,0)" paint-order="fill" d="M 330.8655700683594 928.809326171875 A 7.5 7.5 0 1 1 330.8655663183597 928.801826173125" fill-opacity="1" clip-path="url(#pOLigxAmeKQN)" stroke-opacity="1" stroke-linejoin="bevel" stroke-miterlimit="10" stroke-dasharray=""/><path fill="rgb(188,101,233)" stroke="rgb(0,0,0)" paint-order="fill" d="M 711.5703735351562 844.3736572265625 A 7.5 7.5 0 1 1 711.5703697851566 844.3661572278126" fill-opacity="1" clip-path="url(#pOLigxAmeKQN)" stroke-opacity="1" stroke-linejoin="bevel" stroke-miterlimit="10" stroke-dasharray=""/><path fill="none" stroke="none"/><text fill="rgb(68,68,68)" stroke="none" font-family="helvetica" font-size="12px" font-style="normal" font-weight="normal" text-decoration="normal" x="0" y="0" text-anchor="start" dominant-baseline="text-after-edge" transform="matrix(1, 0, 0, 1, 878.5, 497.5)" fill-opacity="1">Miniopterus fuliginosus</text><path fill="none" stroke="none"/><text fill="rgb(68,68,68)" stroke="none" font-family="helvetica" font-size="12px" font-style="normal" font-weight="normal" text-decoration="normal" x="0" y="0" text-anchor="start" dominant-baseline="text-after-edge" transform="matrix(1, 0, 0, 1, 709.0704345703125, 155.62640380859375)" fill-opacity="1">Miniopterus magnater</text><path fill="none" stroke="none"/><text fill="rgb(68,68,68)" stroke="none" font-family="helvetica" font-size="12px" font-style="normal" font-weight="normal" text-decoration="normal" x="0" y="0" text-anchor="start" dominant-baseline="text-after-edge" transform="matrix(1, 0, 0, 1, 328.3656005859375, 71.19062042236328)" fill-opacity="1">Rhinolophus affinis</text><path fill="none" stroke="none"/><text fill="rgb(68,68,68)" stroke="none" font-family="helvetica" font-size="12px" font-style="normal" font-weight="normal" text-decoration="normal" x="0" y="0" text-anchor="start" dominant-baseline="text-after-edge" transform="matrix(1, 0, 0, 1, 23.064044952392578, 307.7744445800781)" fill-opacity="1">Rhinolophus sinicus</text><path fill="none" stroke="none"/><text fill="rgb(68,68,68)" stroke="none" font-family="helvetica" font-size="12px" font-style="normal" font-weight="normal" text-decoration="normal" x="0" y="0" text-anchor="start" dominant-baseline="text-after-edge" transform="matrix(1, 0, 0, 1, 23.064044952392578, 687.2255249023438)" fill-opacity="1">Rhinolophus macrotis</text><path fill="none" stroke="none"/><text fill="rgb(68,68,68)" stroke="none" font-family="helvetica" font-size="12px" font-style="normal" font-weight="normal" text-decoration="normal" x="0" y="0" text-anchor="start" dominant-baseline="text-after-edge" transform="matrix(1, 0, 0, 1, 328.3655700683594, 923.809326171875)" fill-opacity="1">Rhinolophus blasii</text><path fill="none" stroke="none"/><text fill="rgb(68,68,68)" stroke="none" font-family="helvetica" font-size="12px" font-style="normal" font-weight="normal" text-decoration="normal" x="0" y="0" text-anchor="start" dominant-baseline="text-after-edge" transform="matrix(1, 0, 0, 1, 709.0703735351562, 839.3736572265625)" fill-opacity="1">Rhinolophus pusillus</text><path fill="none" stroke="none"/><text fill="rgb(68,68,68)" stroke="none" font-family="helvetica" font-size="12pt" font-style="normal" font-weight="bold" text-decoration="normal" x="0" y="0" text-anchor="start" dominant-baseline="text-after-edge" transform="matrix(1, 0, 0, 1, 5.5, 28.5)" fill-opacity="1">Sequence similarity network</text></svg>