<svg version="1.1" xmlns="http://www.w3.org/2000/svg" xmlns:xlink="http://www.w3.org/1999/xlink" width="1000" height="1000"><defs><clipPath id="EcfuxBKwFUUt"><path fill="none" stroke="none" d="M 5.5 33.5 L 995.5 33.5 L 995.5 995.5 L 5.5 995.5 L 5.5 33.5"/></clipPath><clipPath id="GlsdDdRkhkeg"><path fill="none" stroke="none" d="M 5.5 33.5 L 995.5 33.5 L 995.5 995.5 L 5.5 995.5 L 5.5 33.5"/></clipPath><clipPath id="dTEiEHdRWOsI"><path fill="none" stroke="none" d="M 5.5 33.5 L 995.5 33.5 L 995.5 995.5 L 5.5 995.5 L 5.5 33.5"/></clipPath><clipPath id="ZOqgNCSAFfUx"><path fill="none" stroke="none" d="M 5.5 33.5 L 995.5 33.5 L 995.5 995.5 L 5.5 995.5 L 5.5 33.5"/></clipPath></defs><path fill="rgb(255,255,255)" stroke="none" paint-order="stroke" d="M 0.5 0.5 L 1000.5 0.5 L 1000.5 1000.5 L 0.5 1000.5 L 0.5 0.5" fill-opacity="1"/><rect fill="#FFFFFF" stroke="none" x="5" y="33" width="990" height="962" transform="matrix(1, 0, 0, 1, 0.5, 0.5)"/><path fill="rgb(255,255,255)" stroke="none" paint-order="stroke" d="M 5.5 33.5 L 995.5 33.5 L 995.5 995.5 L 5.5 995.5 L 5.5 33.5" fill-opacity="1"/><path fill="none" stroke="rgb(229,229,229)" paint-order="fill" d="M 5.5 33.5 L 995.5 33.5 L 995.5 995.5 L 5.5 995.5 L 5.5 33.5" stroke-opacity="1" stroke-linejoin="bevel" stroke-miterlimit="10" stroke-dasharray=""/><path fill="none" stroke="none"/><path fill="none" stroke="rgb(56,56,56)" paint-order="fill" d="M 950.5 514.5 L 781.0704345703125 172.62640380859375" stroke-opacity="0.800000011920929" stroke-linejoin="bevel" stroke-miterlimit="10" stroke-width="3.119999885559082" stroke-dasharray="" clip-path="url(#EcfuxBKwFUUt)"/><path fill="none" stroke="rgb(28,28,28)" paint-order="fill" d="M 400.3656005859375 88.19062042236328 L 95.06404113769531 324.7744445800781" stroke-opacity="0.800000011920929" stroke-linejoin="bevel" stroke-miterlimit="10" stroke-width="3.559999942779541" stroke-dasharray="" clip-path="url(#EcfuxBKwFUUt)"/><path fill="none" stroke="rgb(28,28,28)" paint-order="fill" d="M 400.3656005859375 88.19062042236328 L 95.06404113769531 704.2255249023438" stroke-opacity="0.800000011920929" stroke-linejoin="bevel" stroke-miterlimit="10" stroke-width="3.559999942779541" stroke-dasharray="" clip-path="url(#EcfuxBKwFUUt)"/><path fill="none" stroke="rgb(33,33,33)" paint-order="fill" d="M 400.3656005859375 88.19062042236328 L 400.3655700683594 940.809326171875" stroke-opacity="0.800000011920929" stroke-linejoin="bevel" stroke-miterlimit="10" stroke-width="3.4800000190734863" stroke-dasharray="" clip-path="url(#EcfuxBKwFUUt)"/><path fill="none" stroke="rgb(28,28,28)" paint-order="fill" d="M 400.3656005859375 88.19062042236328 L 781.0703735351562 856.3736572265625" stroke-opacity="0.800000011920929" stroke-linejoin="bevel" stroke-miterlimit="10" stroke-width="3.559999942779541" stroke-dasharray="" clip-path="url(#EcfuxBKwFUUt)"/><path fill="none" stroke="rgb(7,7,7)" paint-order="fill" d="M 95.06404113769531 324.7744445800781 L 95.06404113769531 704.2255249023438" stroke-opacity="0.800000011920929" stroke-linejoin="bevel" stroke-miterlimit="10" stroke-width="3.880000114440918" stroke-dasharray="" clip-path="url(#EcfuxBKwFUUt)"/><path fill="none" stroke="rgb(25,25,25)" paint-order="fill" d="M 95.06404113769531 324.7744445800781 L 400.3655700683594 940.809326171875" stroke-opacity="0.800000011920929" stroke-linejoin="bevel" stroke-miterlimit="10" stroke-width="3.5999999046325684" stroke-dasharray="" clip-path="url(#EcfuxBKwFUUt)"/><path fill="none" stroke="rgb(5,5,5)" paint-order="fill" d="M 95.06404113769531 324.7744445800781 L 781.0703735351562 856.3736572265625" stroke-opacity="0.800000011920929" stroke-linejoin="bevel" stroke-miterlimit="10" stroke-width="3.9200000762939453" stroke-dasharray="" clip-path="url(#EcfuxBKwFUUt)"/><path fill="none" stroke="rgb(28,28,28)" paint-order="fill" d="M 95.06404113769531 704.2255249023438 L 400.3655700683594 940.809326171875" stroke-opacity="0.800000011920929" stroke-linejoin="bevel" stroke-miterlimit="10" stroke-width="3.559999942779541" stroke-dasharray="" clip-path="url(#EcfuxBKwFUUt)"/><path fill="none" stroke="rgb(7,7,7)" paint-order="fill" d="M 95.06404113769531 704.2255249023438 L 781.0703735351562 856.3736572265625" stroke-opacity="0.800000011920929" stroke-linejoin="bevel" stroke-miterlimit="10" stroke-width="3.880000114440918" stroke-dasharray="" clip-path="url(#EcfuxBKwFUUt)"/><path fill="none" stroke="rgb(25,25,25)" paint-order="fill" d="M 400.3655700683594 940.809326171875 L 781.0703735351562 856.3736572265625" stroke-opacity="0.800000011920929" stroke-linejoin="bevel" stroke-miterlimit="10" stroke-width="3.5999999046325684" stroke-dasharray="" clip-path="url(#EcfuxBKwFUUt)"/><path fill="none" stroke="none"/><path fill="rgb(226,0,39)" stroke="rgb(0,0,0)" paint-order="fill" d="M 958 514.5 A 7.5 7.5 0 1 1 957.9999962500003 514.49250000125" fill-opacity="1" clip-path="url(#EcfuxBKwFUUt)" stroke-opacity="1" stroke-linejoin="bevel" stroke-miterlimit="10" stroke-dasharray=""/><path fill="rgb(91,17,60)" stroke="rgb(0,0,0)" paint-order="fill" d="M 788.5704345703125 172.62640380859375 A 7.5 7.5 0 1 1 788.5704308203128 172.61890380984374" fill-opacity="1" clip-path="url(#EcfuxBKwFUUt)" stroke-opacity="1" stroke-linejoin="bevel" stroke-miterlimit="10" stroke-dasharray=""/><path fill="rgb(255,52,255)" stroke="rgb(0,0,0)" paint-order="fill" d="M 407.8656005859375 88.19062042236328 A 7.5 7.5 0 1 1 407.8655968359378 88.18312042361327" fill-opacity="1" clip-path="url(#EcfuxBKwFUUt)" stroke-opacity="1" stroke-linejoin="bevel" stroke-miterlimit="10" stroke-dasharray=""/><path fill="rgb(0,0,166)" stroke="rgb(0,0,0)" paint-order="fill" d="M 102.56404113769531 324.7744445800781 A 7.5 7.5 0 1 1 102.56403738769562 324.7669445813281" fill-opacity="1" clip-path="url(#EcfuxBKwFUUt)" stroke-opacity="1" stroke-linejoin="bevel" stroke-miterlimit="10" stroke-dasharray=""/><path fill="rgb(73,75,90)" stroke="rgb(0,0,0)" paint-order="fill" d="M 102.56404113769531 704.2255249023438 A 7.5 7.5 0 1 1 102.56403738769562 704.2180249035938" fill-opacity="1" clip-path="url(#EcfuxBKwFUUt)" stroke-opacity="1" stroke-linejoin="bevel" stroke-miterlimit="10" stroke-dasharray=""/><path fill="rgb(0,134,237)" stroke="rgb(0,0,0)" paint-order="fill" d="M 407.8655700683594 940.809326171875 A 7.5 7.5 0 1 1 407.8655663183597 940.801826173125" fill-opacity="1" clip-path="url(#EcfuxBKwFUUt)" stroke-opacity="1" stroke-linejoin="bevel" stroke-miterlimit="10" stroke-dasharray=""/><path fill="rgb(188,101,233)" stroke="rgb(0,0,0)" paint-order="fill" d="M 788.5703735351562 856.3736572265625 A 7.5 7.5 0 1 1 788.5703697851566 856.3661572278126" fill-opacity="1" clip-path="url(#EcfuxBKwFUUt)" stroke-opacity="1" stroke-linejoin="bevel" stroke-miterlimit="10" stroke-dasharray=""/><path fill="none" stroke="none"/><path fill="none" stroke="rgb(195,22,27)" paint-order="fill" d="M 950.5 514.5 L 941.5730590820312 514.4658203125 L 932.792236328125 514.3632202148438 L 924.1575317382812 514.1923217773438 L 915.6688842773438 513.9530029296875 L 907.326416015625 513.6453247070312 L 899.1300659179688 513.2692260742188 L 891.0797729492188 512.8248291015625 L 883.1756591796875 512.31201171875 L 875.4176025390625 511.7308349609375 L 867.8057250976562 511.0812683105469 L 860.3399047851562 510.3633117675781 L 853.0202026367188 509.5770263671875 L 845.8466186523438 508.7223205566406 L 838.8191528320312 507.7992858886719 L 831.9378051757812 506.8078308105469 L 825.2025756835938 505.748046875 L 818.6134643554688 504.6198425292969 L 812.1704711914062 503.42327880859375 L 805.8735961914062 502.1583557128906 L 799.7228393554688 500.8250427246094 L 793.7181396484375 499.4233703613281 L 787.859619140625 497.95330810546875 L 782.1471557617188 496.4148864746094 L 776.5808715820312 494.8080749511719 L 771.16064453125 493.1329040527344 L 765.8865356445312 491.38934326171875 L 760.7586059570312 489.5774230957031 L 755.7767333984375 487.6971130371094 L 750.9409790039062 485.7484436035156 L 746.2513427734375 483.73138427734375 L 741.7078247070312 481.64593505859375 L 737.3104248046875 479.4921569824219 L 733.05908203125 477.26995849609375 L 728.9539184570312 474.9794006347656 L 724.994873046875 472.6204833984375 L 721.1819458007812 470.19317626953125 L 717.5150756835938 467.697509765625 L 713.994384765625 465.1334533691406 L 710.6197509765625 462.50103759765625 L 707.3912963867188 459.80023193359375 L 704.3088989257812 457.0310363769531 L 701.3726196289062 454.1935119628906 L 698.5824584960938 451.2875671386719 L 695.9384155273438 448.3132629394531 L 693.4404907226562 445.2705993652344 L 691.0886840820312 442.1595458984375 L 688.8829956054688 438.9801330566406 L 686.8234252929688 435.7323303222656 L 684.9099731445312 432.4161376953125 L 683.1426391601562 429.0316162109375 L 681.5213623046875 425.57867431640625 L 680.0462646484375 422.057373046875 L 678.7172241210938 418.46771240234375 L 677.5343627929688 414.8096618652344 L 676.49755859375 411.0832214355469 L 675.6068725585938 407.2884521484375 L 674.8623046875 403.4252624511719 L 674.263916015625 399.49371337890625 L 673.8115844726562 395.4938049316406 L 673.50537109375 391.4255065917969 L 673.3452758789062 387.288818359375 L 673.3312377929688 383.08380126953125 L 673.46337890625 378.81036376953125 L 673.7416381835938 374.46856689453125 L 674.166015625 370.05841064453125 L 674.7364501953125 365.5798645019531 L 675.4530639648438 361.032958984375 L 676.3157348632812 356.41766357421875 L 677.3245849609375 351.7339782714844 L 678.4794921875 346.98193359375 L 679.780517578125 342.1615295410156 L 681.2277221679688 337.2727355957031 L 682.8209838867188 332.3155517578125 L 684.5603637695312 327.2900085449219 L 686.4458618164062 322.19610595703125 L 688.4774780273438 317.0338134765625 L 690.6552124023438 311.80316162109375 L 692.97900390625 306.5041198730469 L 695.448974609375 301.1366882324219 L 698.0650634765625 295.7008972167969 L 700.8272705078125 290.19671630859375 L 703.7355346679688 284.62420654296875 L 706.7899780273438 278.9832763671875 L 709.990478515625 273.27398681640625 L 713.3370971679688 267.4963073730469 L 716.8298950195312 261.6502685546875 L 720.46875 255.73587036132812 L 724.2537231445312 249.75308227539062 L 728.184814453125 243.70191955566406 L 732.2620239257812 237.5823974609375 L 736.4853515625 231.3944854736328 L 740.8547973632812 225.13819885253906 L 745.370361328125 218.81353759765625 L 750.0320434570312 212.42050170898438 L 754.8397827148438 205.95907592773438 L 759.793701171875 199.42930603027344 L 764.8937377929688 192.8311309814453 L 770.1398315429688 186.16461181640625 L 775.5320434570312 179.42970275878906" stroke-opacity="0.800000011920929" stroke-linejoin="bevel" stroke-miterlimit="10" stroke-width="3.9600000381469727" stroke-dasharray="2,4" clip-path="url(#GlsdDdRkhkeg)"/><path fill="none" stroke="rgb(195,22,27)" paint-order="fill" d="M 781.0704345703125 172.62640380859375 L 775.5320434570312 179.42970275878906 L 770.1398315429688 186.16461181640625 L 764.8937377929688 192.8311309814453 L 759.793701171875 199.42930603027344 L 754.8397827148438 205.95907592773438 L 750.0320434570312 212.42050170898438 L 745.370361328125 218.81353759765625 L 740.8547973632812 225.13819885253906 L 736.4853515625 231.3944854736328 L 732.2620239257812 237.5823974609375 L 728.184814453125 243.70191955566406 L 724.2537231445312 249.75308227539062 L 720.46875 255.73587036132812 L 716.8298950195312 261.6502685546875 L 713.3370971679688 267.4963073730469 L 709.990478515625 273.27398681640625 L 706.7899780273438 278.9832763671875 L 703.7355346679688 284.62420654296875 L 700.8272705078125 290.19671630859375 L 698.0650634765625 295.7008972167969 L 695.448974609375 301.1366882324219 L 692.97900390625 306.5041198730469 L 690.6552124023438 311.80316162109375 L 688.4774780273438 317.0338134765625 L 686.4458618164062 322.19610595703125 L 684.5603637695312 327.2900085449219 L 682.8209838867188 332.3155517578125 L 681.2277221679688 337.2727355957031 L 679.780517578125 342.1615295410156 L 678.4794921875 346.98193359375 L 677.3245849609375 351.7339782714844 L 676.3157348632812 356.41766357421875 L 675.4530639648438 361.032958984375 L 674.7364501953125 365.5798645019531 L 674.166015625 370.05841064453125 L 673.7416381835938 374.46856689453125 L 673.46337890625 378.81036376953125 L 673.3312377929688 383.08380126953125 L 673.3452758789062 387.288818359375 L 673.50537109375 391.4255065917969 L 673.8115844726562 395.4938049316406 L 674.263916015625 399.49371337890625 L 674.8623046875 403.4252624511719 L 675.6068725585938 407.2884521484375 L 676.49755859375 411.0832214355469 L 677.5343627929688 414.8096618652344 L 678.7172241210938 418.46771240234375 L 680.0462646484375 422.057373046875 L 681.5213623046875 425.57867431640625 L 683.1426391601562 429.0316162109375 L 684.9099731445312 432.4161376953125 L 686.8234252929688 435.7323303222656 L 688.8829956054688 438.9801330566406 L 691.0886840820312 442.1595458984375 L 693.4404907226562 445.2705993652344 L 695.9384155273438 448.3132629394531 L 698.5824584960938 451.2875671386719 L 701.3726196289062 454.1935119628906 L 704.3088989257812 457.0310363769531 L 707.3912963867188 459.80023193359375 L 710.6197509765625 462.50103759765625 L 713.994384765625 465.1334533691406 L 717.5150756835938 467.697509765625 L 721.1819458007812 470.19317626953125 L 724.994873046875 472.6204833984375 L 728.9539184570312 474.9794006347656 L 733.05908203125 477.26995849609375 L 737.3104248046875 479.4921569824219 L 741.7078247070312 481.64593505859375 L 746.2513427734375 483.73138427734375 L 750.9409790039062 485.7484436035156 L 755.7767333984375 487.6971130371094 L 760.7586059570312 489.5774230957031 L 765.8865356445312 491.38934326171875 L 771.16064453125 493.1329040527344 L 776.5808715820312 494.8080749511719 L 782.1471557617188 496.4148864746094 L 787.859619140625 497.95330810546875 L 793.7181396484375 499.4233703613281 L 799.7228393554688 500.8250427246094 L 805.8735961914062 502.1583557128906 L 812.1704711914062 503.42327880859375 L 818.6134643554688 504.6198425292969 L 825.2025756835938 505.748046875 L 831.9378051757812 506.8078308105469 L 838.8191528320312 507.7992858886719 L 845.8466186523438 508.7223205566406 L 853.0202026367188 509.5770263671875 L 860.3399047851562 510.3633117675781 L 867.8057250976562 511.0812683105469 L 875.4176025390625 511.7308349609375 L 883.1756591796875 512.31201171875 L 891.0797729492188 512.8248291015625 L 899.1300659179688 513.2692260742188 L 907.326416015625 513.6453247070312 L 915.6688842773438 513.9530029296875 L 924.1575317382812 514.1923217773438 L 932.792236328125 514.3632202148438 L 941.5730590820312 514.4658203125" stroke-opacity="0.800000011920929" stroke-linejoin="bevel" stroke-miterlimit="10" stroke-width="3.9600000381469727" stroke-dasharray="2,4" clip-path="url(#GlsdDdRkhkeg)"/><path fill="none" stroke="rgb(197,23,28)" paint-order="fill" d="M 400.3656005859375 88.19062042236328 L 402.3177185058594 96.69315338134766 L 404.1687316894531 105.14835357666016 L 405.91864013671875 113.5562515258789 L 407.5674133300781 121.9168472290039 L 409.1151123046875 130.2301025390625 L 410.5616760253906 138.49603271484375 L 411.9071044921875 146.71469116210938 L 413.15142822265625 154.885986328125 L 414.2946472167969 163.0099639892578 L 415.3367614746094 171.08665466308594 L 416.27777099609375 179.11602783203125 L 417.1176452636719 187.09808349609375 L 417.85638427734375 195.0327911376953 L 418.4940490722656 202.9202117919922 L 419.03057861328125 210.76031494140625 L 419.46600341796875 218.55308532714844 L 419.80029296875 226.29855346679688 L 420.03350830078125 233.99668884277344 L 420.16558837890625 241.64752197265625 L 420.196533203125 249.2510223388672 L 420.1263732910156 256.8072204589844 L 419.9551086425781 264.3160705566406 L 419.6827392578125 271.77764892578125 L 419.30926513671875 279.19189453125 L 418.83465576171875 286.5588073730469 L 418.2589111328125 293.87841796875 L 417.58209228515625 301.1507263183594 L 416.80413818359375 308.3757019042969 L 415.9250793457031 315.5533752441406 L 414.9449157714844 322.6837158203125 L 413.8636169433594 329.7667236328125 L 412.68121337890625 336.80242919921875 L 411.3976745605469 343.79083251953125 L 410.0130615234375 350.7319030761719 L 408.5273132324219 357.62567138671875 L 406.9404602050781 364.47210693359375 L 405.2524719238281 371.271240234375 L 403.46337890625 378.0230407714844 L 401.57318115234375 384.7275390625 L 399.58184814453125 391.38470458984375 L 397.48944091796875 397.99456787109375 L 395.2958984375 404.5570983886719 L 393.001220703125 411.07232666015625 L 390.6054382324219 417.5402526855469 L 388.1085510253906 423.9608459472656 L 385.51055908203125 430.3341064453125 L 382.8114318847656 436.6600646972656 L 380.0111999511719 442.938720703125 L 377.10986328125 449.1700439453125 L 374.1073913574219 455.3540344238281 L 371.00384521484375 461.49072265625 L 367.79913330078125 467.5801086425781 L 364.49334716796875 473.6221618652344 L 361.08642578125 479.6169128417969 L 357.5783996582031 485.5643310546875 L 353.9692687988281 491.46441650390625 L 350.2590026855469 497.3172302246094 L 346.4476318359375 503.1226806640625 L 342.53515625 508.880859375 L 338.52154541015625 514.5916748046875 L 334.4068298339844 520.2551879882812 L 330.1910095214844 525.8713989257812 L 325.87408447265625 531.4403076171875 L 321.4560241699219 536.9618530273438 L 316.93682861328125 542.4361572265625 L 312.3165588378906 547.8630981445312 L 307.59515380859375 553.24267578125 L 302.77264404296875 558.5750122070312 L 297.8490295410156 563.8599853515625 L 292.82427978515625 569.09765625 L 287.69842529296875 574.2880249023438 L 282.4714660644531 579.4310302734375 L 277.14337158203125 584.5267944335938 L 271.71417236328125 589.5751953125 L 266.1838684082031 594.5762939453125 L 260.5524597167969 599.530029296875 L 254.8199005126953 604.4365234375 L 248.9862518310547 609.295654296875 L 243.05149841308594 614.1074829101562 L 237.01560974121094 618.8719482421875 L 230.8786163330078 623.5891723632812 L 224.64051818847656 628.259033203125 L 218.30126953125 632.881591796875 L 211.86094665527344 637.456787109375 L 205.31948852539062 641.9847412109375 L 198.6769256591797 646.46533203125 L 191.93325805664062 650.8986206054688 L 185.08843994140625 655.2846069335938 L 178.14254760742188 659.6232299804688 L 171.09552001953125 663.9146118164062 L 163.9473876953125 668.1585693359375 L 156.69815063476562 672.3552856445312 L 149.3477783203125 676.5046997070312 L 141.89630126953125 680.6067504882812 L 134.3437042236328 684.6614990234375 L 126.68999481201172 688.6689453125 L 118.93519592285156 692.6290893554688 L 111.0792465209961 696.5418701171875 L 103.12220764160156 700.4073486328125" stroke-opacity="0.800000011920929" stroke-linejoin="bevel" stroke-miterlimit="10" stroke-width="3.9200000762939453" stroke-dasharray="2,4" clip-path="url(#GlsdDdRkhkeg)"/><path fill="none" stroke="rgb(193,22,27)" paint-order="fill" d="M 400.3656005859375 88.19062042236328 L 402.3177185058594 96.65520477294922 L 404.1687316894531 104.99658966064453 L 405.91864013671875 113.2147445678711 L 407.5674133300781 121.30972290039062 L 409.1151123046875 129.28147888183594 L 410.5616760253906 137.13002014160156 L 411.9071044921875 144.85537719726562 L 413.15142822265625 152.45748901367188 L 414.2946472167969 159.93643188476562 L 415.3367614746094 167.29214477539062 L 416.27777099609375 174.524658203125 L 417.1176452636719 181.63397216796875 L 417.85638427734375 188.62008666992188 L 418.4940490722656 195.4829559326172 L 419.03057861328125 202.22264099121094 L 419.46600341796875 208.839111328125 L 419.80029296875 215.3323974609375 L 420.03350830078125 221.7024688720703 L 420.16558837890625 227.9493408203125 L 420.196533203125 234.07298278808594 L 420.1263732910156 240.0734100341797 L 419.9551086425781 245.95065307617188 L 419.6827392578125 251.70469665527344 L 419.30926513671875 257.33551025390625 L 418.83465576171875 262.8431396484375 L 418.2589111328125 268.2275390625 L 417.58209228515625 273.4887390136719 L 416.80413818359375 278.6267395019531 L 415.9250793457031 283.64154052734375 L 414.9449157714844 288.5331115722656 L 413.8636169433594 293.3014831542969 L 412.68121337890625 297.9466552734375 L 411.3976745605469 302.4685974121094 L 410.0130615234375 306.86737060546875 L 408.5273132324219 311.1429138183594 L 406.9404602050781 315.29522705078125 L 405.2524719238281 319.3243713378906 L 403.46337890625 323.2303161621094 L 401.57318115234375 327.0130310058594 L 399.58184814453125 330.6725158691406 L 397.48944091796875 334.2088317871094 L 395.2958984375 337.6219482421875 L 393.001220703125 340.9118347167969 L 390.6054382324219 344.0785217285156 L 388.1085510253906 347.1219787597656 L 385.51055908203125 350.0422668457031 L 382.8114318847656 352.8393249511719 L 380.0111999511719 355.51318359375 L 377.10986328125 358.0638122558594 L 374.1073913574219 360.49127197265625 L 371.00384521484375 362.7955017089844 L 367.79913330078125 364.9765319824219 L 364.49334716796875 367.03436279296875 L 361.08642578125 368.9689636230469 L 357.5783996582031 370.7803649902344 L 353.9692687988281 372.46856689453125 L 350.2590026855469 374.0335693359375 L 346.4476318359375 375.475341796875 L 342.53515625 376.7939147949219 L 338.52154541015625 377.9892883300781 L 334.4068298339844 379.06146240234375 L 330.1910095214844 380.0104064941406 L 325.87408447265625 380.836181640625 L 321.4560241699219 381.5387268066406 L 316.93682861328125 382.1180725097656 L 312.3165588378906 382.5741882324219 L 307.59515380859375 382.9071044921875 L 302.77264404296875 383.1168212890625 L 297.8490295410156 383.2033386230469 L 292.82427978515625 383.1666259765625 L 287.69842529296875 383.0067443847656 L 282.4714660644531 382.7236022949219 L 277.14337158203125 382.3172912597656 L 271.71417236328125 381.78778076171875 L 266.1838684082031 381.1350402832031 L 260.5524597167969 380.3591003417969 L 254.8199005126953 379.4599609375 L 248.9862518310547 378.4375915527344 L 243.05149841308594 377.29205322265625 L 237.01560974121094 376.02325439453125 L 230.8786163330078 374.63128662109375 L 224.64051818847656 373.1161193847656 L 218.30126953125 371.47772216796875 L 211.86094665527344 369.71612548828125 L 205.31948852539062 367.8313293457031 L 198.6769256591797 365.82330322265625 L 191.93325805664062 363.6921081542969 L 185.08843994140625 361.43768310546875 L 178.14254760742188 359.06005859375 L 171.09552001953125 356.5592041015625 L 163.9473876953125 353.9351501464844 L 156.69815063476562 351.1878967285156 L 149.3477783203125 348.31744384765625 L 141.89630126953125 345.32379150390625 L 134.3437042236328 342.2069091796875 L 126.68999481201172 338.9668273925781 L 118.93519592285156 335.6035461425781 L 111.0792465209961 332.1170349121094 L 103.12220764160156 328.5073547363281" stroke-opacity="0.800000011920929" stroke-linejoin="bevel" stroke-miterlimit="10" stroke-width="4" stroke-dasharray="2,4" clip-path="url(#GlsdDdRkhkeg)"/><path fill="none" stroke="rgb(195,22,27)" paint-order="fill" d="M 400.3656005859375 88.19062042236328 L 402.3863220214844 96.7083740234375 L 404.4431457519531 105.20921325683594 L 406.5360412597656 113.69319152832031 L 408.6650390625 122.1602783203125 L 410.8301086425781 130.6104736328125 L 413.0312805175781 139.04379272460938 L 415.2685546875 147.460205078125 L 417.5418701171875 155.8597412109375 L 419.851318359375 164.2423858642578 L 422.19683837890625 172.60813903808594 L 424.57843017578125 180.95703125 L 426.9961242675781 189.28900146484375 L 429.44989013671875 197.6040802001953 L 431.93975830078125 205.90231323242188 L 434.4657287597656 214.1836395263672 L 437.02777099609375 222.44805908203125 L 439.6258850097656 230.69561767578125 L 442.2601013183594 238.92628479003906 L 444.9303894042969 247.1400604248047 L 447.63677978515625 255.33694458007812 L 450.3792724609375 263.5169372558594 L 453.1578369140625 271.6800537109375 L 455.97247314453125 279.8262634277344 L 458.8232116699219 287.95562744140625 L 461.7100524902344 296.0680847167969 L 464.6329650878906 304.16363525390625 L 467.5919494628906 312.2423095703125 L 470.5870361328125 320.3041076660156 L 473.61822509765625 328.3490295410156 L 476.68548583984375 336.3770446777344 L 479.788818359375 344.3881530761719 L 482.9282531738281 352.3824157714844 L 486.103759765625 360.3597717285156 L 489.31536865234375 368.3202209472656 L 492.5630798339844 376.2637939453125 L 495.84686279296875 384.1905212402344 L 499.166748046875 392.1003112792969 L 502.522705078125 399.99322509765625 L 505.91473388671875 407.8692626953125 L 509.3428649902344 415.7283935546875 L 512.8070678710938 423.5706481933594 L 516.307373046875 431.3960266113281 L 519.8438110351562 439.20452880859375 L 523.416259765625 446.9961242675781 L 527.0248413085938 454.77081298828125 L 530.6694946289062 462.5286560058594 L 534.3502197265625 470.26959228515625 L 538.0670776367188 477.9936218261719 L 541.8200073242188 485.7007751464844 L 545.6090087890625 493.39105224609375 L 549.43408203125 501.064453125 L 553.2952880859375 508.720947265625 L 557.1925048828125 516.3605346679688 L 561.1258544921875 523.9832763671875 L 565.0953369140625 531.589111328125 L 569.100830078125 539.1781005859375 L 573.1424560546875 546.7501220703125 L 577.2201538085938 554.3052978515625 L 581.3339233398438 561.8436279296875 L 585.4838256835938 569.364990234375 L 589.6697998046875 576.8695068359375 L 593.891845703125 584.357177734375 L 598.1499633789062 591.827880859375 L 602.4442138671875 599.28173828125 L 606.7745361328125 606.7186889648438 L 611.1409301757812 614.1387939453125 L 615.5433959960938 621.5419921875 L 619.9819946289062 628.9282836914062 L 624.4566040039062 636.2977294921875 L 628.9674072265625 643.6502685546875 L 633.5142211914062 650.9859008789062 L 638.0971069335938 658.3046264648438 L 642.7161254882812 665.6065063476562 L 647.3712768554688 672.8914794921875 L 652.0624389648438 680.1596069335938 L 656.7896728515625 687.4107666015625 L 661.5530395507812 694.6451416015625 L 666.3524780273438 701.862548828125 L 671.1880493164062 709.0631103515625 L 676.0596313476562 716.2467651367188 L 680.9673461914062 723.4135131835938 L 685.9111328125 730.5634155273438 L 690.8910522460938 737.6964111328125 L 695.906982421875 744.8125 L 700.9590454101562 751.9117431640625 L 706.0471801757812 758.9940795898438 L 711.1714477539062 766.0595092773438 L 716.3317260742188 773.1080932617188 L 721.5281372070312 780.1397705078125 L 726.7606201171875 787.154541015625 L 732.0292358398438 794.1524658203125 L 737.3338623046875 801.1334838867188 L 742.6746215820312 808.0975952148438 L 748.0514526367188 815.0447998046875 L 753.4644165039062 821.9751586914062 L 758.9134521484375 828.888671875 L 764.3984985351562 835.7852172851562 L 769.9197387695312 842.6649169921875 L 775.4769897460938 849.5277099609375" stroke-opacity="0.800000011920929" stroke-linejoin="bevel" stroke-miterlimit="10" stroke-width="3.9600000381469727" stroke-dasharray="2,4" clip-path="url(#GlsdDdRkhkeg)"/><path fill="none" stroke="rgb(195,22,27)" paint-order="fill" d="M 400.3656005859375 88.19062042236328 L 402.3482360839844 96.7168197631836 L 404.2908630371094 105.24298858642578 L 406.19342041015625 113.7691879272461 L 408.055908203125 122.29536437988281 L 409.87835693359375 130.82156372070312 L 411.6607666015625 139.3477325439453 L 413.403076171875 147.8739471435547 L 415.1053771972656 156.40011596679688 L 416.7676086425781 164.9263153076172 L 418.3897705078125 173.45248413085938 L 419.9718933105469 181.9786834716797 L 421.51397705078125 190.50486755371094 L 423.0159912109375 199.03106689453125 L 424.47796630859375 207.55723571777344 L 425.8998718261719 216.08343505859375 L 427.2817077636719 224.60960388183594 L 428.6235046386719 233.1358184814453 L 429.9252624511719 241.66201782226562 L 431.18695068359375 250.1881866455078 L 432.4085998535156 258.7143859863281 L 433.5901794433594 267.2405700683594 L 434.7317199707031 275.7667541503906 L 435.83319091796875 284.2929382324219 L 436.8946228027344 292.8191223144531 L 437.9159851074219 301.3453063964844 L 438.8973083496094 309.8714904785156 L 439.83856201171875 318.3976745605469 L 440.7397766113281 326.9238586425781 L 441.6009216308594 335.4500427246094 L 442.4220275878906 343.97625732421875 L 443.2030944824219 352.50244140625 L 443.944091796875 361.02862548828125 L 444.64501953125 369.5548095703125 L 445.305908203125 378.08099365234375 L 445.9267578125 386.607177734375 L 446.50750732421875 395.1333923339844 L 447.0482482910156 403.6595764160156 L 447.5489196777344 412.1857604980469 L 448.0095520019531 420.7119445800781 L 448.43011474609375 429.2381286621094 L 448.81060791015625 437.7643127441406 L 449.15106201171875 446.2904968261719 L 449.45147705078125 454.8166809082031 L 449.7118225097656 463.3428649902344 L 449.93212890625 471.8690490722656 L 450.11236572265625 480.3952331542969 L 450.2525329589844 488.92144775390625 L 450.3526916503906 497.4476318359375 L 450.4127502441406 505.97381591796875 L 450.43280029296875 514.5 L 450.4127502441406 523.0261840820312 L 450.3526916503906 531.5523681640625 L 450.2525329589844 540.0785522460938 L 450.11236572265625 548.604736328125 L 449.9320983886719 557.1309204101562 L 449.7118225097656 565.6571044921875 L 449.45147705078125 574.1832885742188 L 449.15106201171875 582.70947265625 L 448.81060791015625 591.2356567382812 L 448.4300842285156 599.7618408203125 L 448.009521484375 608.2880859375 L 447.5489196777344 616.8142700195312 L 447.0482482910156 625.3404541015625 L 446.50750732421875 633.8666381835938 L 445.9267272949219 642.392822265625 L 445.305908203125 650.9190063476562 L 444.64501953125 659.4451904296875 L 443.9440612792969 667.9713745117188 L 443.20306396484375 676.49755859375 L 442.4220275878906 685.0237426757812 L 441.6009216308594 693.5499267578125 L 440.7397766113281 702.0761108398438 L 439.83856201171875 710.602294921875 L 438.8973083496094 719.1284790039062 L 437.9159851074219 727.6546630859375 L 436.89459228515625 736.1808471679688 L 435.83319091796875 744.7070922851562 L 434.731689453125 753.2332153320312 L 433.5901794433594 761.7594604492188 L 432.4085693359375 770.2855834960938 L 431.18695068359375 778.8118286132812 L 429.92523193359375 787.3380126953125 L 428.6235046386719 795.8641967773438 L 427.2817077636719 804.390380859375 L 425.89984130859375 812.9165649414062 L 424.4779357910156 821.4427490234375 L 423.0159606933594 829.9689331054688 L 421.5139465332031 838.4951171875 L 419.9718933105469 847.0213012695312 L 418.3897705078125 855.5474853515625 L 416.767578125 864.0736694335938 L 415.1053466796875 872.599853515625 L 413.403076171875 881.1260375976562 L 411.6607360839844 889.6522216796875 L 409.8783264160156 898.1784057617188 L 408.0558776855469 906.70458984375 L 406.1933898925781 915.2308349609375 L 404.29083251953125 923.7569580078125 L 402.3482360839844 932.283203125" stroke-opacity="0.800000011920929" stroke-linejoin="bevel" stroke-miterlimit="10" stroke-width="3.9600000381469727" stroke-dasharray="2,4" clip-path="url(#GlsdDdRkhkeg)"/><path fill="none" stroke="rgb(193,22,27)" paint-order="fill" d="M 95.06404113769531 324.7744445800781 L 103.16026306152344 328.58416748046875 L 111.2315444946289 332.42431640625 L 119.27781677246094 336.2948913574219 L 127.29912567138672 340.1959228515625 L 135.2954559326172 344.12738037109375 L 143.26683044433594 348.0892333984375 L 151.21322631835938 352.08154296875 L 159.1346435546875 356.1042785644531 L 167.03109741210938 360.1574401855469 L 174.90257263183594 364.24102783203125 L 182.74908447265625 368.35504150390625 L 190.57061767578125 372.49951171875 L 198.36715698242188 376.67437744140625 L 206.1387481689453 380.87969970703125 L 213.88534545898438 385.1154479980469 L 221.60699462890625 389.3816223144531 L 229.30364990234375 393.67822265625 L 236.97535705566406 398.0052490234375 L 244.62205505371094 402.3627014160156 L 252.24380493164062 406.7505798339844 L 259.840576171875 411.1689147949219 L 267.412353515625 415.6176452636719 L 274.9591979980469 420.0968322753906 L 282.4810485839844 424.6064453125 L 289.9779052734375 429.146484375 L 297.4498291015625 433.7169494628906 L 304.8967590332031 438.3178405761719 L 312.3186950683594 442.94915771484375 L 319.7156982421875 447.6109313964844 L 327.08770751953125 452.3031005859375 L 334.43475341796875 457.0257263183594 L 341.7568054199219 461.77874755859375 L 349.0539245605469 466.5622253417969 L 356.3260498046875 471.3761291503906 L 363.57318115234375 476.220458984375 L 370.79534912109375 481.0952453613281 L 377.9925537109375 486.00042724609375 L 385.1647644042969 490.93603515625 L 392.3120422363281 495.902099609375 L 399.4342956542969 500.8985900878906 L 406.5316162109375 505.92547607421875 L 413.60394287109375 510.9828186035156 L 420.65130615234375 516.0706176757812 L 427.6737060546875 521.1887817382812 L 434.6711120605469 526.33740234375 L 441.6435546875 531.5164794921875 L 448.5910339355469 536.7259521484375 L 455.5135192871094 541.9658813476562 L 462.4110412597656 547.2362670898438 L 469.2835998535156 552.5370483398438 L 476.13116455078125 557.8682250976562 L 482.9537658691406 563.2298583984375 L 489.75140380859375 568.6219482421875 L 496.5240783691406 574.04443359375 L 503.2717590332031 579.4973754882812 L 509.9944763183594 584.980712890625 L 516.6921997070312 590.4945068359375 L 523.364990234375 596.0386962890625 L 530.0127563476562 601.6133422851562 L 536.6355590820312 607.2184448242188 L 543.2333984375 612.8539428710938 L 549.8062744140625 618.5198364257812 L 556.3541870117188 624.2161865234375 L 562.8771362304688 629.9429931640625 L 569.3750610351562 635.7001953125 L 575.8480224609375 641.4878540039062 L 582.2960815429688 647.3059692382812 L 588.7191162109375 653.1544799804688 L 595.1171264648438 659.0333862304688 L 601.490234375 664.9427490234375 L 607.83837890625 670.882568359375 L 614.1614990234375 676.8528442382812 L 620.4596557617188 682.8534545898438 L 626.7328491210938 688.8845825195312 L 632.9810791015625 694.946044921875 L 639.204345703125 701.0380249023438 L 645.402587890625 707.160400390625 L 651.575927734375 713.313232421875 L 657.7242431640625 719.4964599609375 L 663.8475952148438 725.7100830078125 L 669.9459838867188 731.9542236328125 L 676.0194091796875 738.2286987304688 L 682.0678100585938 744.53369140625 L 688.09130859375 750.8690795898438 L 694.0897827148438 757.23486328125 L 700.0632934570312 763.631103515625 L 706.0118408203125 770.0578002929688 L 711.9354248046875 776.514892578125 L 717.833984375 783.00244140625 L 723.7076416015625 789.5203857421875 L 729.5562744140625 796.0687866210938 L 735.3799438476562 802.6475830078125 L 741.1786499023438 809.2568359375 L 746.952392578125 815.8965454101562 L 752.701171875 822.566650390625 L 758.4249267578125 829.2671508789062 L 764.123779296875 835.9981689453125 L 769.797607421875 842.759521484375 L 775.4464721679688 849.5513916015625" stroke-opacity="0.800000011920929" stroke-linejoin="bevel" stroke-miterlimit="10" stroke-width="4" stroke-dasharray="2,4" clip-path="url(#GlsdDdRkhkeg)"/><path fill="none" stroke="rgb(193,22,27)" paint-order="fill" d="M 95.06404113769531 324.7744445800781 L 103.09168243408203 328.5689697265625 L 110.95712280273438 332.36346435546875 L 118.660400390625 336.1579895019531 L 126.2015151977539 339.9524841308594 L 133.58045959472656 343.74700927734375 L 140.79721069335938 347.54150390625 L 147.85179138183594 351.3360290527344 L 154.7442169189453 355.1305236816406 L 161.4744415283203 358.925048828125 L 168.04249572753906 362.71954345703125 L 174.44839477539062 366.5140686035156 L 180.69212341308594 370.3085632324219 L 186.77365112304688 374.10308837890625 L 192.69302368164062 377.8975830078125 L 198.45022583007812 381.6921081542969 L 204.04522705078125 385.48663330078125 L 209.4780731201172 389.2811279296875 L 214.74874877929688 393.0756530761719 L 219.8572235107422 396.8701477050781 L 224.8035430908203 400.6646728515625 L 229.5876922607422 404.45916748046875 L 234.2096710205078 408.2536926269531 L 238.66946411132812 412.0481872558594 L 242.9670867919922 415.84271240234375 L 247.10250854492188 419.63720703125 L 251.0758056640625 423.4317321777344 L 254.88690185546875 427.22625732421875 L 258.5357971191406 431.020751953125 L 262.0225830078125 434.8152770996094 L 265.3471374511719 438.6097717285156 L 268.5095520019531 442.404296875 L 271.509765625 446.19879150390625 L 274.34783935546875 449.9933166503906 L 277.023681640625 453.7878112792969 L 279.5373840332031 457.58233642578125 L 281.888916015625 461.3768310546875 L 284.0782775878906 465.1713562011719 L 286.10546875 468.9658508300781 L 287.9704895019531 472.7603759765625 L 289.6733093261719 476.55487060546875 L 291.2139587402344 480.3493957519531 L 292.5924377441406 484.1438903808594 L 293.8087463378906 487.93841552734375 L 294.8628845214844 491.7329406738281 L 295.75482177734375 495.5274353027344 L 296.484619140625 499.32196044921875 L 297.05224609375 503.116455078125 L 297.4576721191406 506.9109802246094 L 297.700927734375 510.7054748535156 L 297.7820129394531 514.5 L 297.700927734375 518.2944946289062 L 297.4576721191406 522.0889892578125 L 297.05224609375 525.883544921875 L 296.484619140625 529.6780395507812 L 295.75482177734375 533.4725341796875 L 294.8628845214844 537.2670288085938 L 293.8087463378906 541.0615844726562 L 292.5924377441406 544.8560791015625 L 291.2139587402344 548.6505737304688 L 289.6733093261719 552.445068359375 L 287.9704895019531 556.2396240234375 L 286.10546875 560.0341186523438 L 284.0782775878906 563.82861328125 L 281.888916015625 567.6231689453125 L 279.5373840332031 571.4176635742188 L 277.023681640625 575.212158203125 L 274.34783935546875 579.0066528320312 L 271.509765625 582.8012084960938 L 268.5095520019531 586.595703125 L 265.3471374511719 590.3901977539062 L 262.0225830078125 594.1846923828125 L 258.5357971191406 597.979248046875 L 254.88690185546875 601.7737426757812 L 251.0758056640625 605.5682373046875 L 247.10250854492188 609.3627319335938 L 242.9670867919922 613.1572875976562 L 238.66946411132812 616.9517822265625 L 234.2096710205078 620.7462768554688 L 229.5876922607422 624.5408325195312 L 224.8035430908203 628.3353271484375 L 219.8572235107422 632.1298217773438 L 214.74874877929688 635.92431640625 L 209.4780731201172 639.7188720703125 L 204.04522705078125 643.5133666992188 L 198.45022583007812 647.307861328125 L 192.69302368164062 651.1023559570312 L 186.77365112304688 654.8969116210938 L 180.69212341308594 658.69140625 L 174.44839477539062 662.4859008789062 L 168.04249572753906 666.2803955078125 L 161.4744415283203 670.074951171875 L 154.7442169189453 673.8694458007812 L 147.85179138183594 677.6639404296875 L 140.79721069335938 681.45849609375 L 133.58045959472656 685.2529907226562 L 126.2015151977539 689.0474853515625 L 118.660400390625 692.8419799804688 L 110.95712280273438 696.636474609375 L 103.09168243408203 700.4310302734375" stroke-opacity="0.800000011920929" stroke-linejoin="bevel" stroke-miterlimit="10" stroke-width="4" stroke-dasharray="2,4" clip-path="url(#GlsdDdRkhkeg)"/><path fill="none" stroke="rgb(193,22,27)" paint-order="fill" d="M 95.06404113769531 324.7744445800781 L 103.12220764160156 328.5073547363281 L 111.0792465209961 332.1170349121094 L 118.93519592285156 335.6035461425781 L 126.68999481201172 338.9668273925781 L 134.3437042236328 342.2069091796875 L 141.89630126953125 345.32379150390625 L 149.3477783203125 348.31744384765625 L 156.69815063476562 351.1878967285156 L 163.9473876953125 353.9351501464844 L 171.09552001953125 356.5592041015625 L 178.14254760742188 359.06005859375 L 185.08843994140625 361.43768310546875 L 191.93325805664062 363.6921081542969 L 198.6769256591797 365.82330322265625 L 205.31948852539062 367.8313293457031 L 211.86094665527344 369.71612548828125 L 218.30126953125 371.47772216796875 L 224.64051818847656 373.1161193847656 L 230.8786163330078 374.63128662109375 L 237.01560974121094 376.02325439453125 L 243.05149841308594 377.29205322265625 L 248.9862518310547 378.4375915527344 L 254.8199005126953 379.4599609375 L 260.5524597167969 380.3591003417969 L 266.1838684082031 381.1350402832031 L 271.71417236328125 381.78778076171875 L 277.14337158203125 382.3172912597656 L 282.4714660644531 382.7236022949219 L 287.69842529296875 383.0067443847656 L 292.82427978515625 383.1666259765625 L 297.8490295410156 383.2033386230469 L 302.77264404296875 383.1168212890625 L 307.59515380859375 382.9071044921875 L 312.3165588378906 382.5741882324219 L 316.93682861328125 382.1180725097656 L 321.4560241699219 381.5387268066406 L 325.87408447265625 380.836181640625 L 330.1910095214844 380.0104064941406 L 334.4068298339844 379.06146240234375 L 338.52154541015625 377.9892883300781 L 342.53515625 376.7939147949219 L 346.4476318359375 375.475341796875 L 350.2590026855469 374.0335693359375 L 353.9692687988281 372.46856689453125 L 357.5783996582031 370.7803649902344 L 361.08642578125 368.9689636230469 L 364.49334716796875 367.03436279296875 L 367.79913330078125 364.9765319824219 L 371.00384521484375 362.7955017089844 L 374.1073913574219 360.49127197265625 L 377.10986328125 358.0638122558594 L 380.0111999511719 355.51318359375 L 382.8114318847656 352.8393249511719 L 385.51055908203125 350.0422668457031 L 388.1085510253906 347.1219787597656 L 390.6054382324219 344.0785217285156 L 393.001220703125 340.9118347167969 L 395.2958984375 337.6219482421875 L 397.48944091796875 334.2088317871094 L 399.58184814453125 330.6725158691406 L 401.57318115234375 327.0130310058594 L 403.46337890625 323.2303161621094 L 405.2524719238281 319.3243713378906 L 406.9404602050781 315.29522705078125 L 408.5273132324219 311.1429138183594 L 410.0130615234375 306.86737060546875 L 411.3976745605469 302.4685974121094 L 412.68121337890625 297.9466552734375 L 413.8636169433594 293.3014831542969 L 414.9449157714844 288.5331115722656 L 415.9250793457031 283.64154052734375 L 416.80413818359375 278.6267395019531 L 417.58209228515625 273.4887390136719 L 418.2589111328125 268.2275390625 L 418.83465576171875 262.8431396484375 L 419.30926513671875 257.33551025390625 L 419.6827392578125 251.70469665527344 L 419.9551086425781 245.95065307617188 L 420.1263732910156 240.0734100341797 L 420.196533203125 234.07298278808594 L 420.16558837890625 227.9493408203125 L 420.03350830078125 221.7024688720703 L 419.80029296875 215.3323974609375 L 419.46600341796875 208.839111328125 L 419.03057861328125 202.22264099121094 L 418.4940490722656 195.4829559326172 L 417.85638427734375 188.62008666992188 L 417.1176452636719 181.63397216796875 L 416.27777099609375 174.524658203125 L 415.3367614746094 167.29214477539062 L 414.2946472167969 159.93643188476562 L 413.15142822265625 152.45748901367188 L 411.9071044921875 144.85537719726562 L 410.5616760253906 137.13002014160156 L 409.1151123046875 129.28147888183594 L 407.5674133300781 121.30972290039062 L 405.91864013671875 113.2147445678711 L 404.1687316894531 104.99658966064453 L 402.3177185058594 96.65520477294922" stroke-opacity="0.800000011920929" stroke-linejoin="bevel" stroke-miterlimit="10" stroke-width="4" stroke-dasharray="2,4" clip-path="url(#GlsdDdRkhkeg)"/><path fill="none" stroke="rgb(193,22,27)" paint-order="fill" d="M 95.06404113769531 324.7744445800781 L 103.12220764160156 328.5926208496094 L 111.0792465209961 332.4580993652344 L 118.93519592285156 336.37091064453125 L 126.68999481201172 340.3310241699219 L 134.3437042236328 344.3384704589844 L 141.89630126953125 348.3932189941406 L 149.3477783203125 352.4952697753906 L 156.69815063476562 356.6446533203125 L 163.9473876953125 360.84136962890625 L 171.09552001953125 365.08538818359375 L 178.14254760742188 369.3767395019531 L 185.08843994140625 373.71539306640625 L 191.93325805664062 378.1013488769531 L 198.6769256591797 382.5346374511719 L 205.31948852539062 387.0152282714844 L 211.86094665527344 391.54315185546875 L 218.30126953125 396.118408203125 L 224.64051818847656 400.740966796875 L 230.8786163330078 405.41082763671875 L 237.01560974121094 410.1280212402344 L 243.05149841308594 414.89251708984375 L 248.9862518310547 419.704345703125 L 254.8199005126953 424.5634765625 L 260.5524597167969 429.4699401855469 L 266.1838684082031 434.4237060546875 L 271.71417236328125 439.4248046875 L 277.14337158203125 444.47320556640625 L 282.4714660644531 449.5689392089844 L 287.69842529296875 454.71197509765625 L 292.82427978515625 459.9023132324219 L 297.8490295410156 465.1399841308594 L 302.77264404296875 470.42498779296875 L 307.59515380859375 475.7572937011719 L 312.3165588378906 481.13690185546875 L 316.93682861328125 486.5638427734375 L 321.45599365234375 492.0381164550781 L 325.8740539550781 497.5596923828125 L 330.1910095214844 503.1285705566406 L 334.4068298339844 508.7447814941406 L 338.52154541015625 514.4083251953125 L 342.53515625 520.119140625 L 346.4476318359375 525.8773193359375 L 350.2590026855469 531.6827392578125 L 353.9692687988281 537.5355834960938 L 357.5783996582031 543.4356689453125 L 361.08642578125 549.3831176757812 L 364.49334716796875 555.3778076171875 L 367.79913330078125 561.4198608398438 L 371.00384521484375 567.50927734375 L 374.1073913574219 573.6459350585938 L 377.10986328125 579.8299560546875 L 380.0111999511719 586.061279296875 L 382.8114318847656 592.3399047851562 L 385.51055908203125 598.6658935546875 L 388.1085510253906 605.0391845703125 L 390.6054382324219 611.4597778320312 L 393.001220703125 617.9276733398438 L 395.2958679199219 624.44287109375 L 397.4894104003906 631.0054321289062 L 399.58184814453125 637.6152954101562 L 401.5731506347656 644.2724609375 L 403.46337890625 650.9769287109375 L 405.2524719238281 657.728759765625 L 406.9404296875 664.5278930664062 L 408.52728271484375 671.3743286132812 L 410.0130310058594 678.26806640625 L 411.3976745605469 685.2091674804688 L 412.6811828613281 692.1975708007812 L 413.86358642578125 699.2332763671875 L 414.94488525390625 706.3162841796875 L 415.9250793457031 713.4466552734375 L 416.80413818359375 720.624267578125 L 417.5820617675781 727.8492431640625 L 418.2589111328125 735.12158203125 L 418.8346252441406 742.441162109375 L 419.3092346191406 749.80810546875 L 419.6827392578125 757.2223510742188 L 419.9551086425781 764.6838989257812 L 420.1263732910156 772.1928100585938 L 420.196533203125 779.7489624023438 L 420.1655578613281 787.3524780273438 L 420.0334777832031 795.0032958984375 L 419.80029296875 802.7014770507812 L 419.4659729003906 810.4468994140625 L 419.0305480957031 818.2396850585938 L 418.4940185546875 826.0797729492188 L 417.85638427734375 833.9672241210938 L 417.11761474609375 841.9019165039062 L 416.2777404785156 849.8839721679688 L 415.33673095703125 857.913330078125 L 414.2946472167969 865.989990234375 L 413.15142822265625 874.114013671875 L 411.9070739746094 882.2853393554688 L 410.5616455078125 890.50390625 L 409.1150817871094 898.7698974609375 L 407.5674133300781 907.0831298828125 L 405.9186096191406 915.4437255859375 L 404.168701171875 923.8516235351562 L 402.31768798828125 932.3068237304688" stroke-opacity="0.800000011920929" stroke-linejoin="bevel" stroke-miterlimit="10" stroke-width="4" stroke-dasharray="2,4" clip-path="url(#GlsdDdRkhkeg)"/><path fill="none" stroke="rgb(193,22,27)" paint-order="fill" d="M 95.06404113769531 704.2255249023438 L 103.16026306152344 700.4841918945312 L 111.2315444946289 696.84912109375 L 119.27781677246094 693.3204345703125 L 127.29912567138672 689.8980712890625 L 135.2954559326172 686.5819702148438 L 143.26683044433594 683.3721923828125 L 151.21322631835938 680.268798828125 L 159.1346435546875 677.2716674804688 L 167.03109741210938 674.380859375 L 174.90257263183594 671.596435546875 L 182.74908447265625 668.9182739257812 L 190.57061767578125 666.346435546875 L 198.36715698242188 663.8809204101562 L 206.1387481689453 661.521728515625 L 213.88534545898438 659.2688598632812 L 221.60699462890625 657.122314453125 L 229.30364990234375 655.0820922851562 L 236.97535705566406 653.1481323242188 L 244.62205505371094 651.320556640625 L 252.24380493164062 649.5993041992188 L 259.840576171875 647.9843139648438 L 267.412353515625 646.4757080078125 L 274.9591979980469 645.0733642578125 L 282.4810485839844 643.7774047851562 L 289.9779052734375 642.5877075195312 L 297.4498291015625 641.5043334960938 L 304.8967590332031 640.52734375 L 312.3186950683594 639.6566162109375 L 319.7156982421875 638.8922119140625 L 327.08770751953125 638.234130859375 L 334.43475341796875 637.682373046875 L 341.7568054199219 637.2369384765625 L 349.0539245605469 636.8978271484375 L 356.3260498046875 636.6650390625 L 363.57318115234375 636.53857421875 L 370.79534912109375 636.5183715820312 L 377.9925537109375 636.6045532226562 L 385.1647644042969 636.7970581054688 L 392.3120422363281 637.0958251953125 L 399.4342956542969 637.5009765625 L 406.5316162109375 638.0123901367188 L 413.60394287109375 638.6301879882812 L 420.65130615234375 639.354248046875 L 427.6737060546875 640.1846313476562 L 434.6711120605469 641.1213989257812 L 441.6435546875 642.1644287109375 L 448.5910339355469 643.3137817382812 L 455.5135192871094 644.5694580078125 L 462.4110412597656 645.9314575195312 L 469.2835998535156 647.3997802734375 L 476.13116455078125 648.9744262695312 L 482.9537658691406 650.6553955078125 L 489.75140380859375 652.4426879882812 L 496.5240783691406 654.3362426757812 L 503.2717590332031 656.336181640625 L 509.9944763183594 658.4424438476562 L 516.6921997070312 660.6549682617188 L 523.364990234375 662.973876953125 L 530.0127563476562 665.3990478515625 L 536.6355590820312 667.9306030273438 L 543.2333984375 670.5684204101562 L 549.8062744140625 673.3125610351562 L 556.3541870117188 676.1630859375 L 562.8771362304688 679.119873046875 L 569.3750610351562 682.1829833984375 L 575.8480224609375 685.3524169921875 L 582.2960815429688 688.628173828125 L 588.7191162109375 692.01025390625 L 595.1171264648438 695.4986572265625 L 601.490234375 699.0933837890625 L 607.83837890625 702.79443359375 L 614.1614990234375 706.6017456054688 L 620.4596557617188 710.5154418945312 L 626.7328491210938 714.5354614257812 L 632.9810791015625 718.6617431640625 L 639.204345703125 722.8944091796875 L 645.402587890625 727.2333374023438 L 651.575927734375 731.6786499023438 L 657.7242431640625 736.230224609375 L 663.8475952148438 740.8881225585938 L 669.9459838867188 745.6524047851562 L 676.0194091796875 750.52294921875 L 682.0678100585938 755.4998168945312 L 688.09130859375 760.5830078125 L 694.0897827148438 765.7725219726562 L 700.0632934570312 771.068359375 L 706.0118408203125 776.4705200195312 L 711.9354248046875 781.97900390625 L 717.833984375 787.59375 L 723.7076416015625 793.3148803710938 L 729.5562744140625 799.142333984375 L 735.3799438476562 805.0761108398438 L 741.1786499023438 811.1161499023438 L 746.952392578125 817.2625732421875 L 752.701171875 823.5152587890625 L 758.4249267578125 829.8743286132812 L 764.123779296875 836.3396606445312 L 769.797607421875 842.9113159179688 L 775.4464721679688 849.5892944335938" stroke-opacity="0.800000011920929" stroke-linejoin="bevel" stroke-miterlimit="10" stroke-width="4" stroke-dasharray="2,4" clip-path="url(#GlsdDdRkhkeg)"/><path fill="none" stroke="rgb(193,22,27)" paint-order="fill" d="M 95.06404113769531 704.2255249023438 L 103.09168243408203 700.4310302734375 L 110.95712280273438 696.636474609375 L 118.660400390625 692.8419799804688 L 126.2015151977539 689.0474853515625 L 133.58045959472656 685.2529907226562 L 140.79721069335938 681.45849609375 L 147.85179138183594 677.6639404296875 L 154.7442169189453 673.8694458007812 L 161.4744415283203 670.074951171875 L 168.04249572753906 666.2803955078125 L 174.44839477539062 662.4859008789062 L 180.69212341308594 658.69140625 L 186.77365112304688 654.8969116210938 L 192.69302368164062 651.1023559570312 L 198.45022583007812 647.307861328125 L 204.04522705078125 643.5133666992188 L 209.4780731201172 639.7188720703125 L 214.74874877929688 635.92431640625 L 219.8572235107422 632.1298217773438 L 224.8035430908203 628.3353271484375 L 229.5876922607422 624.5408325195312 L 234.2096710205078 620.7462768554688 L 238.66946411132812 616.9517822265625 L 242.9670867919922 613.1572875976562 L 247.10250854492188 609.3627319335938 L 251.0758056640625 605.5682373046875 L 254.88690185546875 601.7737426757812 L 258.5357971191406 597.979248046875 L 262.0225830078125 594.1846923828125 L 265.3471374511719 590.3901977539062 L 268.5095520019531 586.595703125 L 271.509765625 582.8012084960938 L 274.34783935546875 579.0066528320312 L 277.023681640625 575.212158203125 L 279.5373840332031 571.4176635742188 L 281.888916015625 567.6231689453125 L 284.0782775878906 563.82861328125 L 286.10546875 560.0341186523438 L 287.9704895019531 556.2396240234375 L 289.6733093261719 552.445068359375 L 291.2139587402344 548.6505737304688 L 292.5924377441406 544.8560791015625 L 293.8087463378906 541.0615844726562 L 294.8628845214844 537.2670288085938 L 295.75482177734375 533.4725341796875 L 296.484619140625 529.6780395507812 L 297.05224609375 525.883544921875 L 297.4576721191406 522.0889892578125 L 297.700927734375 518.2944946289062 L 297.7820129394531 514.5 L 297.700927734375 510.7054748535156 L 297.4576721191406 506.9109802246094 L 297.05224609375 503.116455078125 L 296.484619140625 499.32196044921875 L 295.75482177734375 495.5274353027344 L 294.8628845214844 491.7329406738281 L 293.8087463378906 487.93841552734375 L 292.5924377441406 484.1438903808594 L 291.2139587402344 480.3493957519531 L 289.6733093261719 476.55487060546875 L 287.9704895019531 472.7603759765625 L 286.10546875 468.9658508300781 L 284.0782775878906 465.1713562011719 L 281.888916015625 461.3768310546875 L 279.5373840332031 457.58233642578125 L 277.023681640625 453.7878112792969 L 274.34783935546875 449.9933166503906 L 271.509765625 446.19879150390625 L 268.5095520019531 442.404296875 L 265.3471374511719 438.6097717285156 L 262.0225830078125 434.8152770996094 L 258.5357971191406 431.020751953125 L 254.88690185546875 427.22625732421875 L 251.0758056640625 423.4317321777344 L 247.10250854492188 419.63720703125 L 242.9670867919922 415.84271240234375 L 238.66946411132812 412.0481872558594 L 234.2096710205078 408.2536926269531 L 229.5876922607422 404.45916748046875 L 224.8035430908203 400.6646728515625 L 219.8572235107422 396.8701477050781 L 214.74874877929688 393.0756530761719 L 209.4780731201172 389.2811279296875 L 204.04522705078125 385.48663330078125 L 198.45022583007812 381.6921081542969 L 192.69302368164062 377.8975830078125 L 186.77365112304688 374.10308837890625 L 180.69212341308594 370.3085632324219 L 174.44839477539062 366.5140686035156 L 168.04249572753906 362.71954345703125 L 161.4744415283203 358.925048828125 L 154.7442169189453 355.1305236816406 L 147.85179138183594 351.3360290527344 L 140.79721069335938 347.54150390625 L 133.58045959472656 343.74700927734375 L 126.2015151977539 339.9524841308594 L 118.660400390625 336.1579895019531 L 110.95712280273438 332.36346435546875 L 103.09168243408203 328.5689697265625" stroke-opacity="0.800000011920929" stroke-linejoin="bevel" stroke-miterlimit="10" stroke-width="4" stroke-dasharray="2,4" clip-path="url(#GlsdDdRkhkeg)"/><path fill="none" stroke="rgb(193,22,27)" paint-order="fill" d="M 95.06404113769531 704.2255249023438 L 103.12220764160156 700.4073486328125 L 111.0792465209961 696.5418701171875 L 118.93519592285156 692.6290893554688 L 126.68999481201172 688.6689453125 L 134.3437042236328 684.6614990234375 L 141.89630126953125 680.6067504882812 L 149.3477783203125 676.5046997070312 L 156.69815063476562 672.3552856445312 L 163.9473876953125 668.1585693359375 L 171.09552001953125 663.9146118164062 L 178.14254760742188 659.6232299804688 L 185.08843994140625 655.2846069335938 L 191.93325805664062 650.8986206054688 L 198.6769256591797 646.46533203125 L 205.31948852539062 641.9847412109375 L 211.86094665527344 637.456787109375 L 218.30126953125 632.881591796875 L 224.64051818847656 628.259033203125 L 230.8786163330078 623.5891723632812 L 237.01560974121094 618.8719482421875 L 243.05149841308594 614.1074829101562 L 248.9862518310547 609.295654296875 L 254.8199005126953 604.4365234375 L 260.5524597167969 599.530029296875 L 266.1838684082031 594.5762939453125 L 271.71417236328125 589.5751953125 L 277.14337158203125 584.5267944335938 L 282.4714660644531 579.4310302734375 L 287.69842529296875 574.2880249023438 L 292.82427978515625 569.09765625 L 297.8490295410156 563.8599853515625 L 302.77264404296875 558.5750122070312 L 307.59515380859375 553.24267578125 L 312.3165588378906 547.8630981445312 L 316.93682861328125 542.4361572265625 L 321.4560241699219 536.9618530273438 L 325.87408447265625 531.4403076171875 L 330.1910095214844 525.8713989257812 L 334.4068298339844 520.2551879882812 L 338.52154541015625 514.5916748046875 L 342.53515625 508.880859375 L 346.4476318359375 503.1226806640625 L 350.2590026855469 497.3172302246094 L 353.9692687988281 491.46441650390625 L 357.5783996582031 485.5643310546875 L 361.08642578125 479.6169128417969 L 364.49334716796875 473.6221618652344 L 367.79913330078125 467.5801086425781 L 371.00384521484375 461.49072265625 L 374.1073913574219 455.3540344238281 L 377.10986328125 449.1700439453125 L 380.0111999511719 442.938720703125 L 382.8114318847656 436.6600646972656 L 385.51055908203125 430.3341064453125 L 388.1085510253906 423.9608459472656 L 390.6054382324219 417.5402526855469 L 393.001220703125 411.07232666015625 L 395.2958984375 404.5570983886719 L 397.48944091796875 397.99456787109375 L 399.58184814453125 391.38470458984375 L 401.57318115234375 384.7275390625 L 403.46337890625 378.0230407714844 L 405.2524719238281 371.271240234375 L 406.9404602050781 364.47210693359375 L 408.5273132324219 357.62567138671875 L 410.0130615234375 350.7319030761719 L 411.3976745605469 343.79083251953125 L 412.68121337890625 336.80242919921875 L 413.8636169433594 329.7667236328125 L 414.9449157714844 322.6837158203125 L 415.9250793457031 315.5533752441406 L 416.80413818359375 308.3757019042969 L 417.58209228515625 301.1507263183594 L 418.2589111328125 293.87841796875 L 418.83465576171875 286.5588073730469 L 419.30926513671875 279.19189453125 L 419.6827392578125 271.77764892578125 L 419.9551086425781 264.3160705566406 L 420.1263732910156 256.8072204589844 L 420.196533203125 249.2510223388672 L 420.16558837890625 241.64752197265625 L 420.03350830078125 233.99668884277344 L 419.80029296875 226.29855346679688 L 419.46600341796875 218.55308532714844 L 419.03057861328125 210.76031494140625 L 418.4940490722656 202.9202117919922 L 417.85638427734375 195.0327911376953 L 417.1176452636719 187.09808349609375 L 416.27777099609375 179.11602783203125 L 415.3367614746094 171.08665466308594 L 414.2946472167969 163.0099639892578 L 413.15142822265625 154.885986328125 L 411.9071044921875 146.71469116210938 L 410.5616760253906 138.49603271484375 L 409.1151123046875 130.2301025390625 L 407.5674133300781 121.9168472290039 L 405.91864013671875 113.5562515258789 L 404.1687316894531 105.14835357666016 L 402.3177185058594 96.69315338134766" stroke-opacity="0.800000011920929" stroke-linejoin="bevel" stroke-miterlimit="10" stroke-width="4" stroke-dasharray="2,4" clip-path="url(#GlsdDdRkhkeg)"/><path fill="none" stroke="rgb(193,22,27)" paint-order="fill" d="M 400.3655700683594 940.809326171875 L 402.31768798828125 932.3068237304688 L 404.168701171875 923.8516235351562 L 405.9186096191406 915.4437255859375 L 407.5674133300781 907.0831298828125 L 409.1150817871094 898.7698974609375 L 410.5616455078125 890.50390625 L 411.9070739746094 882.2853393554688 L 413.15142822265625 874.114013671875 L 414.2946472167969 865.989990234375 L 415.33673095703125 857.913330078125 L 416.2777404785156 849.8839721679688 L 417.11761474609375 841.9019165039062 L 417.85638427734375 833.9672241210938 L 418.4940185546875 826.0797729492188 L 419.0305480957031 818.2396850585938 L 419.4659729003906 810.4468994140625 L 419.80029296875 802.7014770507812 L 420.0334777832031 795.0032958984375 L 420.1655578613281 787.3524780273438 L 420.196533203125 779.7489624023438 L 420.1263732910156 772.1928100585938 L 419.9551086425781 764.6838989257812 L 419.6827392578125 757.2223510742188 L 419.3092346191406 749.80810546875 L 418.8346252441406 742.441162109375 L 418.2589111328125 735.12158203125 L 417.5820617675781 727.8492431640625 L 416.80413818359375 720.624267578125 L 415.9250793457031 713.4466552734375 L 414.94488525390625 706.3162841796875 L 413.86358642578125 699.2332763671875 L 412.6811828613281 692.1975708007812 L 411.3976745605469 685.2091674804688 L 410.0130310058594 678.26806640625 L 408.52728271484375 671.3743286132812 L 406.9404296875 664.5278930664062 L 405.2524719238281 657.728759765625 L 403.46337890625 650.9769287109375 L 401.5731506347656 644.2724609375 L 399.58184814453125 637.6152954101562 L 397.4894104003906 631.0054321289062 L 395.2958679199219 624.44287109375 L 393.001220703125 617.9276733398438 L 390.6054382324219 611.4597778320312 L 388.1085510253906 605.0391845703125 L 385.51055908203125 598.6658935546875 L 382.8114318847656 592.3399047851562 L 380.0111999511719 586.061279296875 L 377.10986328125 579.8299560546875 L 374.1073913574219 573.6459350585938 L 371.00384521484375 567.50927734375 L 367.79913330078125 561.4198608398438 L 364.49334716796875 555.3778076171875 L 361.08642578125 549.3831176757812 L 357.5783996582031 543.4356689453125 L 353.9692687988281 537.5355834960938 L 350.2590026855469 531.6827392578125 L 346.4476318359375 525.8773193359375 L 342.53515625 520.119140625 L 338.52154541015625 514.4083251953125 L 334.4068298339844 508.7447814941406 L 330.1910095214844 503.1285705566406 L 325.8740539550781 497.5596923828125 L 321.45599365234375 492.0381164550781 L 316.93682861328125 486.5638427734375 L 312.3165588378906 481.13690185546875 L 307.59515380859375 475.7572937011719 L 302.77264404296875 470.42498779296875 L 297.8490295410156 465.1399841308594 L 292.82427978515625 459.9023132324219 L 287.69842529296875 454.71197509765625 L 282.4714660644531 449.5689392089844 L 277.14337158203125 444.47320556640625 L 271.71417236328125 439.4248046875 L 266.1838684082031 434.4237060546875 L 260.5524597167969 429.4699401855469 L 254.8199005126953 424.5634765625 L 248.9862518310547 419.704345703125 L 243.05149841308594 414.89251708984375 L 237.01560974121094 410.1280212402344 L 230.8786163330078 405.41082763671875 L 224.64051818847656 400.740966796875 L 218.30126953125 396.118408203125 L 211.86094665527344 391.54315185546875 L 205.31948852539062 387.0152282714844 L 198.6769256591797 382.5346374511719 L 191.93325805664062 378.1013488769531 L 185.08843994140625 373.71539306640625 L 178.14254760742188 369.3767395019531 L 171.09552001953125 365.08538818359375 L 163.9473876953125 360.84136962890625 L 156.69815063476562 356.6446533203125 L 149.3477783203125 352.4952697753906 L 141.89630126953125 348.3932189941406 L 134.3437042236328 344.3384704589844 L 126.68999481201172 340.3310241699219 L 118.93519592285156 336.37091064453125 L 111.0792465209961 332.4580993652344 L 103.12220764160156 328.5926208496094" stroke-opacity="0.800000011920929" stroke-linejoin="bevel" stroke-miterlimit="10" stroke-width="4" stroke-dasharray="2,4" clip-path="url(#GlsdDdRkhkeg)"/><path fill="none" stroke="rgb(195,22,27)" paint-order="fill" d="M 400.3655700683594 940.809326171875 L 402.38629150390625 932.3599853515625 L 404.443115234375 924.0642700195312 L 406.5360107421875 915.9221801757812 L 408.6650085449219 907.9337158203125 L 410.830078125 900.098876953125 L 413.03125 892.417724609375 L 415.2685241699219 884.89013671875 L 417.5418701171875 877.5162353515625 L 419.8512878417969 870.2959594726562 L 422.1968078613281 863.2293090820312 L 424.5783996582031 856.3163452148438 L 426.99609375 849.5569458007812 L 429.44989013671875 842.9512329101562 L 431.93975830078125 836.4991455078125 L 434.4656982421875 830.20068359375 L 437.0277404785156 824.0558471679688 L 439.6258544921875 818.064697265625 L 442.26007080078125 812.2271118164062 L 444.9303894042969 806.543212890625 L 447.63677978515625 801.012939453125 L 450.3792419433594 795.6362915039062 L 453.1578063964844 790.4132690429688 L 455.97247314453125 785.3439331054688 L 458.8232116699219 780.42822265625 L 461.71002197265625 775.6661376953125 L 464.6329345703125 771.0576782226562 L 467.5919494628906 766.6028442382812 L 470.5870361328125 762.3016357421875 L 473.6181945800781 758.1541137695312 L 476.6854553222656 754.1602172851562 L 479.788818359375 750.3199462890625 L 482.9282531738281 746.63330078125 L 486.103759765625 743.1002807617188 L 489.31536865234375 739.720947265625 L 492.5630798339844 736.4952392578125 L 495.84686279296875 733.4231567382812 L 499.1667175292969 730.5046997070312 L 502.5226745605469 727.7398681640625 L 505.91473388671875 725.1287231445312 L 509.3428649902344 722.671142578125 L 512.8070678710938 720.3672485351562 L 516.307373046875 718.2169799804688 L 519.84375 716.2203369140625 L 523.416259765625 714.3773803710938 L 527.0248413085938 712.68798828125 L 530.6694946289062 711.1522827148438 L 534.3502197265625 709.7702026367188 L 538.0670776367188 708.541748046875 L 541.8199462890625 707.4669189453125 L 545.6090087890625 706.5457153320312 L 549.43408203125 705.7781982421875 L 553.2952270507812 705.164306640625 L 557.1925048828125 704.7040405273438 L 561.1258544921875 704.3973999023438 L 565.0953369140625 704.2444458007812 L 569.100830078125 704.2450561523438 L 573.1424560546875 704.3993530273438 L 577.2201538085938 704.707275390625 L 581.3339233398438 705.1688232421875 L 585.4838256835938 705.7839965820312 L 589.6697998046875 706.5528564453125 L 593.891845703125 707.4752807617188 L 598.1499633789062 708.5513916015625 L 602.4442138671875 709.7811279296875 L 606.7745361328125 711.1644897460938 L 611.1409301757812 712.7015380859375 L 615.5433959960938 714.3921508789062 L 619.9819946289062 716.2364501953125 L 624.4566040039062 718.234375 L 628.9674072265625 720.3859252929688 L 633.5142211914062 722.6911010742188 L 638.0971069335938 725.1499633789062 L 642.7161254882812 727.7623901367188 L 647.3712158203125 730.5285034179688 L 652.0624389648438 733.4482421875 L 656.7896728515625 736.5216064453125 L 661.5530395507812 739.7486572265625 L 666.3524780273438 743.1292724609375 L 671.1880493164062 746.66357421875 L 676.0596313476562 750.3515014648438 L 680.9673461914062 754.1930541992188 L 685.9111328125 758.188232421875 L 690.8910522460938 762.3370971679688 L 695.906982421875 766.6395874023438 L 700.9590454101562 771.0956420898438 L 706.0471801757812 775.7053833007812 L 711.1714477539062 780.46875 L 716.3317260742188 785.3858032226562 L 721.5281372070312 790.4564819335938 L 726.7606201171875 795.6807250976562 L 732.0292358398438 801.0586547851562 L 737.3338623046875 806.5902099609375 L 742.6746215820312 812.2754516601562 L 748.0514526367188 818.1142578125 L 753.4644165039062 824.1067504882812 L 758.9134521484375 830.2528686523438 L 764.3984985351562 836.5525512695312 L 769.9197387695312 843.0059814453125 L 775.4769897460938 849.6129760742188" stroke-opacity="0.800000011920929" stroke-linejoin="bevel" stroke-miterlimit="10" stroke-width="3.9600000381469727" stroke-dasharray="2,4" clip-path="url(#GlsdDdRkhkeg)"/><path fill="none" stroke="rgb(195,22,27)" paint-order="fill" d="M 400.3655700683594 940.809326171875 L 402.31768798828125 932.3447875976562 L 404.168701171875 924.00341796875 L 405.9186096191406 915.7852172851562 L 407.5674133300781 907.6902465820312 L 409.1150817871094 899.718505859375 L 410.5616455078125 891.8699951171875 L 411.9070739746094 884.1446533203125 L 413.15142822265625 876.54248046875 L 414.2946472167969 869.0635375976562 L 415.33673095703125 861.7078247070312 L 416.2777404785156 854.475341796875 L 417.11761474609375 847.3660278320312 L 417.85638427734375 840.3799438476562 L 418.4940185546875 833.5170288085938 L 419.0305480957031 826.77734375 L 419.4659729003906 820.1608276367188 L 419.80029296875 813.6676025390625 L 420.0334777832031 807.2975463867188 L 420.1655578613281 801.0506591796875 L 420.196533203125 794.927001953125 L 420.1263732910156 788.9265747070312 L 419.9551086425781 783.04931640625 L 419.6827392578125 777.2952880859375 L 419.3092346191406 771.6644897460938 L 418.8346252441406 766.1568603515625 L 418.2589111328125 760.7724609375 L 417.5820617675781 755.51123046875 L 416.80413818359375 750.373291015625 L 415.9250793457031 745.3584594726562 L 414.94488525390625 740.4668579101562 L 413.86358642578125 735.698486328125 L 412.6811828613281 731.0533447265625 L 411.3976745605469 726.5313720703125 L 410.0130310058594 722.1326293945312 L 408.52728271484375 717.8571166992188 L 406.9404296875 713.7047729492188 L 405.2524719238281 709.6755981445312 L 403.46337890625 705.7697143554688 L 401.5731506347656 701.9869384765625 L 399.58184814453125 698.3274536132812 L 397.4894104003906 694.7911376953125 L 395.2958679199219 691.3780517578125 L 393.001220703125 688.088134765625 L 390.6054382324219 684.9215087890625 L 388.1085510253906 681.8779907226562 L 385.51055908203125 678.9577026367188 L 382.8114318847656 676.16064453125 L 380.0111999511719 673.48681640625 L 377.10986328125 670.9361572265625 L 374.1073913574219 668.5087280273438 L 371.00384521484375 666.2044677734375 L 367.79913330078125 664.0234375 L 364.49334716796875 661.9656372070312 L 361.08642578125 660.031005859375 L 357.5783996582031 658.2196044921875 L 353.9692687988281 656.5314331054688 L 350.2590026855469 654.9664306640625 L 346.4476318359375 653.524658203125 L 342.53515625 652.2060546875 L 338.52154541015625 651.0106811523438 L 334.4068298339844 649.9385375976562 L 330.1910095214844 648.9895629882812 L 325.8740539550781 648.163818359375 L 321.45599365234375 647.4612426757812 L 316.93682861328125 646.8819580078125 L 312.3165588378906 646.42578125 L 307.59515380859375 646.0928955078125 L 302.77264404296875 645.8831787109375 L 297.8490295410156 645.796630859375 L 292.82427978515625 645.8333740234375 L 287.69842529296875 645.9932861328125 L 282.4714660644531 646.2763671875 L 277.14337158203125 646.6826782226562 L 271.71417236328125 647.2122192382812 L 266.1838684082031 647.8649291992188 L 260.5524597167969 648.640869140625 L 254.8199005126953 649.5400390625 L 248.9862518310547 650.5623779296875 L 243.05149841308594 651.7079467773438 L 237.01560974121094 652.9766845703125 L 230.8786163330078 654.36865234375 L 224.64051818847656 655.8838500976562 L 218.30126953125 657.5222778320312 L 211.86094665527344 659.2838745117188 L 205.31948852539062 661.1686401367188 L 198.6769256591797 663.1766357421875 L 191.93325805664062 665.307861328125 L 185.08843994140625 667.5623168945312 L 178.14254760742188 669.93994140625 L 171.09552001953125 672.4407958984375 L 163.9473876953125 675.0648193359375 L 156.69815063476562 677.8120727539062 L 149.3477783203125 680.6824951171875 L 141.89630126953125 683.6762084960938 L 134.3437042236328 686.7930908203125 L 126.68999481201172 690.0331420898438 L 118.93519592285156 693.3964233398438 L 111.0792465209961 696.8829345703125 L 103.12220764160156 700.4926147460938" stroke-opacity="0.800000011920929" stroke-linejoin="bevel" stroke-miterlimit="10" stroke-width="3.9600000381469727" stroke-dasharray="2,4" clip-path="url(#GlsdDdRkhkeg)"/><path fill="none" stroke="rgb(193,22,27)" paint-order="fill" d="M 400.3655700683594 940.809326171875 L 402.3482360839844 932.283203125 L 404.29083251953125 923.7569580078125 L 406.1933898925781 915.2308349609375 L 408.0558776855469 906.70458984375 L 409.8783264160156 898.1784057617188 L 411.6607360839844 889.6522216796875 L 413.403076171875 881.1260375976562 L 415.1053466796875 872.599853515625 L 416.767578125 864.0736694335938 L 418.3897705078125 855.5474853515625 L 419.9718933105469 847.0213012695312 L 421.5139465332031 838.4951171875 L 423.0159606933594 829.9689331054688 L 424.4779357910156 821.4427490234375 L 425.89984130859375 812.9165649414062 L 427.2817077636719 804.390380859375 L 428.6235046386719 795.8641967773438 L 429.92523193359375 787.3380126953125 L 431.18695068359375 778.8118286132812 L 432.4085693359375 770.2855834960938 L 433.5901794433594 761.7594604492188 L 434.731689453125 753.2332153320312 L 435.83319091796875 744.7070922851562 L 436.89459228515625 736.1808471679688 L 437.9159851074219 727.6546630859375 L 438.8973083496094 719.1284790039062 L 439.83856201171875 710.602294921875 L 440.7397766113281 702.0761108398438 L 441.6009216308594 693.5499267578125 L 442.4220275878906 685.0237426757812 L 443.20306396484375 676.49755859375 L 443.9440612792969 667.9713745117188 L 444.64501953125 659.4451904296875 L 445.305908203125 650.9190063476562 L 445.9267272949219 642.392822265625 L 446.50750732421875 633.8666381835938 L 447.0482482910156 625.3404541015625 L 447.5489196777344 616.8142700195312 L 448.009521484375 608.2880859375 L 448.4300842285156 599.7618408203125 L 448.81060791015625 591.2356567382812 L 449.15106201171875 582.70947265625 L 449.45147705078125 574.1832885742188 L 449.7118225097656 565.6571044921875 L 449.9320983886719 557.1309204101562 L 450.11236572265625 548.604736328125 L 450.2525329589844 540.0785522460938 L 450.3526916503906 531.5523681640625 L 450.4127502441406 523.0261840820312 L 450.43280029296875 514.5 L 450.4127502441406 505.97381591796875 L 450.3526916503906 497.4476318359375 L 450.2525329589844 488.92144775390625 L 450.11236572265625 480.3952331542969 L 449.93212890625 471.8690490722656 L 449.7118225097656 463.3428649902344 L 449.45147705078125 454.8166809082031 L 449.15106201171875 446.2904968261719 L 448.81060791015625 437.7643127441406 L 448.43011474609375 429.2381286621094 L 448.0095520019531 420.7119445800781 L 447.5489196777344 412.1857604980469 L 447.0482482910156 403.6595764160156 L 446.50750732421875 395.1333923339844 L 445.9267578125 386.607177734375 L 445.305908203125 378.08099365234375 L 444.64501953125 369.5548095703125 L 443.944091796875 361.02862548828125 L 443.2030944824219 352.50244140625 L 442.4220275878906 343.97625732421875 L 441.6009216308594 335.4500427246094 L 440.7397766113281 326.9238586425781 L 439.83856201171875 318.3976745605469 L 438.8973083496094 309.8714904785156 L 437.9159851074219 301.3453063964844 L 436.8946228027344 292.8191223144531 L 435.83319091796875 284.2929382324219 L 434.7317199707031 275.7667541503906 L 433.5901794433594 267.2405700683594 L 432.4085998535156 258.7143859863281 L 431.18695068359375 250.1881866455078 L 429.9252624511719 241.66201782226562 L 428.6235046386719 233.1358184814453 L 427.2817077636719 224.60960388183594 L 425.8998718261719 216.08343505859375 L 424.47796630859375 207.55723571777344 L 423.0159912109375 199.03106689453125 L 421.51397705078125 190.50486755371094 L 419.9718933105469 181.9786834716797 L 418.3897705078125 173.45248413085938 L 416.7676086425781 164.9263153076172 L 415.1053771972656 156.40011596679688 L 413.403076171875 147.8739471435547 L 411.6607666015625 139.3477325439453 L 409.87835693359375 130.82156372070312 L 408.055908203125 122.29536437988281 L 406.19342041015625 113.7691879272461 L 404.2908630371094 105.24298858642578 L 402.3482360839844 96.7168197631836" stroke-opacity="0.800000011920929" stroke-linejoin="bevel" stroke-miterlimit="10" stroke-width="4" stroke-dasharray="2,4" clip-path="url(#GlsdDdRkhkeg)"/><path fill="none" stroke="rgb(193,22,27)" paint-order="fill" d="M 781.0703735351562 856.3736572265625 L 775.4464721679688 849.5892944335938 L 769.797607421875 842.9113159179688 L 764.123779296875 836.3396606445312 L 758.4249267578125 829.8743286132812 L 752.701171875 823.5152587890625 L 746.952392578125 817.2625732421875 L 741.1786499023438 811.1161499023438 L 735.3799438476562 805.0761108398438 L 729.5562744140625 799.142333984375 L 723.7076416015625 793.3148803710938 L 717.833984375 787.59375 L 711.9354248046875 781.97900390625 L 706.0118408203125 776.4705200195312 L 700.0632934570312 771.068359375 L 694.0897827148438 765.7725219726562 L 688.09130859375 760.5830078125 L 682.0678100585938 755.4998168945312 L 676.0194091796875 750.52294921875 L 669.9459838867188 745.6524047851562 L 663.8475952148438 740.8881225585938 L 657.7242431640625 736.230224609375 L 651.575927734375 731.6786499023438 L 645.402587890625 727.2333374023438 L 639.204345703125 722.8944091796875 L 632.9810791015625 718.6617431640625 L 626.7328491210938 714.5354614257812 L 620.4596557617188 710.5154418945312 L 614.1614990234375 706.6017456054688 L 607.83837890625 702.79443359375 L 601.490234375 699.0933837890625 L 595.1171264648438 695.4986572265625 L 588.7191162109375 692.01025390625 L 582.2960815429688 688.628173828125 L 575.8480224609375 685.3524169921875 L 569.3750610351562 682.1829833984375 L 562.8771362304688 679.119873046875 L 556.3541870117188 676.1630859375 L 549.8062744140625 673.3125610351562 L 543.2333984375 670.5684204101562 L 536.6355590820312 667.9306030273438 L 530.0127563476562 665.3990478515625 L 523.364990234375 662.973876953125 L 516.6921997070312 660.6549682617188 L 509.9944763183594 658.4424438476562 L 503.2717590332031 656.336181640625 L 496.5240783691406 654.3362426757812 L 489.75140380859375 652.4426879882812 L 482.9537658691406 650.6553955078125 L 476.13116455078125 648.9744262695312 L 469.2835998535156 647.3997802734375 L 462.4110412597656 645.9314575195312 L 455.5135192871094 644.5694580078125 L 448.5910339355469 643.3137817382812 L 441.6435546875 642.1644287109375 L 434.6711120605469 641.1213989257812 L 427.6737060546875 640.1846313476562 L 420.65130615234375 639.354248046875 L 413.60394287109375 638.6301879882812 L 406.5316162109375 638.0123901367188 L 399.4342956542969 637.5009765625 L 392.3120422363281 637.0958251953125 L 385.1647644042969 636.7970581054688 L 377.9925537109375 636.6045532226562 L 370.79534912109375 636.5183715820312 L 363.57318115234375 636.53857421875 L 356.3260498046875 636.6650390625 L 349.0539245605469 636.8978271484375 L 341.7568054199219 637.2369384765625 L 334.43475341796875 637.682373046875 L 327.08770751953125 638.234130859375 L 319.7156982421875 638.8922119140625 L 312.3186950683594 639.6566162109375 L 304.8967590332031 640.52734375 L 297.4498291015625 641.5043334960938 L 289.9779052734375 642.5877075195312 L 282.4810485839844 643.7774047851562 L 274.9591979980469 645.0733642578125 L 267.412353515625 646.4757080078125 L 259.840576171875 647.9843139648438 L 252.24380493164062 649.5993041992188 L 244.62205505371094 651.320556640625 L 236.97535705566406 653.1481323242188 L 229.30364990234375 655.0820922851562 L 221.60699462890625 657.122314453125 L 213.88534545898438 659.2688598632812 L 206.1387481689453 661.521728515625 L 198.36715698242188 663.8809204101562 L 190.57061767578125 666.346435546875 L 182.74908447265625 668.9182739257812 L 174.90257263183594 671.596435546875 L 167.03109741210938 674.380859375 L 159.1346435546875 677.2716674804688 L 151.21322631835938 680.268798828125 L 143.26683044433594 683.3721923828125 L 135.2954559326172 686.5819702148438 L 127.29912567138672 689.8980712890625 L 119.27781677246094 693.3204345703125 L 111.2315444946289 696.84912109375 L 103.16026306152344 700.4841918945312" stroke-opacity="0.800000011920929" stroke-linejoin="bevel" stroke-miterlimit="10" stroke-width="4" stroke-dasharray="2,4" clip-path="url(#GlsdDdRkhkeg)"/><path fill="none" stroke="rgb(193,22,27)" paint-order="fill" d="M 781.0703735351562 856.3736572265625 L 775.4464721679688 849.5513916015625 L 769.797607421875 842.759521484375 L 764.123779296875 835.9981689453125 L 758.4249267578125 829.2671508789062 L 752.701171875 822.566650390625 L 746.952392578125 815.8965454101562 L 741.1786499023438 809.2568359375 L 735.3799438476562 802.6475830078125 L 729.5562744140625 796.0687866210938 L 723.7076416015625 789.5203857421875 L 717.833984375 783.00244140625 L 711.9354248046875 776.514892578125 L 706.0118408203125 770.0578002929688 L 700.0632934570312 763.631103515625 L 694.0897827148438 757.23486328125 L 688.09130859375 750.8690795898438 L 682.0678100585938 744.53369140625 L 676.0194091796875 738.2286987304688 L 669.9459838867188 731.9542236328125 L 663.8475952148438 725.7100830078125 L 657.7242431640625 719.4964599609375 L 651.575927734375 713.313232421875 L 645.402587890625 707.160400390625 L 639.204345703125 701.0380249023438 L 632.9810791015625 694.946044921875 L 626.7328491210938 688.8845825195312 L 620.4596557617188 682.8534545898438 L 614.1614990234375 676.8528442382812 L 607.83837890625 670.882568359375 L 601.490234375 664.9427490234375 L 595.1171264648438 659.0333862304688 L 588.7191162109375 653.1544799804688 L 582.2960815429688 647.3059692382812 L 575.8480224609375 641.4878540039062 L 569.3750610351562 635.7001953125 L 562.8771362304688 629.9429931640625 L 556.3541870117188 624.2161865234375 L 549.8062744140625 618.5198364257812 L 543.2333984375 612.8539428710938 L 536.6355590820312 607.2184448242188 L 530.0127563476562 601.6133422851562 L 523.364990234375 596.0386962890625 L 516.6921997070312 590.4945068359375 L 509.9944763183594 584.980712890625 L 503.2717590332031 579.4973754882812 L 496.5240783691406 574.04443359375 L 489.75140380859375 568.6219482421875 L 482.9537658691406 563.2298583984375 L 476.13116455078125 557.8682250976562 L 469.2835998535156 552.5370483398438 L 462.4110412597656 547.2362670898438 L 455.5135192871094 541.9658813476562 L 448.5910339355469 536.7259521484375 L 441.6435546875 531.5164794921875 L 434.6711120605469 526.33740234375 L 427.6737060546875 521.1887817382812 L 420.65130615234375 516.0706176757812 L 413.60394287109375 510.9828186035156 L 406.5316162109375 505.92547607421875 L 399.4342956542969 500.8985900878906 L 392.3120422363281 495.902099609375 L 385.1647644042969 490.93603515625 L 377.9925537109375 486.00042724609375 L 370.79534912109375 481.0952453613281 L 363.57318115234375 476.220458984375 L 356.3260498046875 471.3761291503906 L 349.0539245605469 466.5622253417969 L 341.7568054199219 461.77874755859375 L 334.43475341796875 457.0257263183594 L 327.08770751953125 452.3031005859375 L 319.7156982421875 447.6109313964844 L 312.3186950683594 442.94915771484375 L 304.8967590332031 438.3178405761719 L 297.4498291015625 433.7169494628906 L 289.9779052734375 429.146484375 L 282.4810485839844 424.6064453125 L 274.9591979980469 420.0968322753906 L 267.412353515625 415.6176452636719 L 259.840576171875 411.1689147949219 L 252.24380493164062 406.7505798339844 L 244.62205505371094 402.3627014160156 L 236.97535705566406 398.0052490234375 L 229.30364990234375 393.67822265625 L 221.60699462890625 389.3816223144531 L 213.88534545898438 385.1154479980469 L 206.1387481689453 380.87969970703125 L 198.36715698242188 376.67437744140625 L 190.57061767578125 372.49951171875 L 182.74908447265625 368.35504150390625 L 174.90257263183594 364.24102783203125 L 167.03109741210938 360.1574401855469 L 159.1346435546875 356.1042785644531 L 151.21322631835938 352.08154296875 L 143.26683044433594 348.0892333984375 L 135.2954559326172 344.12738037109375 L 127.29912567138672 340.1959228515625 L 119.27781677246094 336.2948913574219 L 111.2315444946289 332.42431640625 L 103.16026306152344 328.58416748046875" stroke-opacity="0.800000011920929" stroke-linejoin="bevel" stroke-miterlimit="10" stroke-width="4" stroke-dasharray="2,4" clip-path="url(#GlsdDdRkhkeg)"/><path fill="none" stroke="rgb(193,22,27)" paint-order="fill" d="M 781.0703735351562 856.3736572265625 L 775.4769897460938 849.5277099609375 L 769.9197387695312 842.6649169921875 L 764.3984985351562 835.7852172851562 L 758.9134521484375 828.888671875 L 753.4644165039062 821.9751586914062 L 748.0514526367188 815.0447998046875 L 742.6746215820312 808.0975952148438 L 737.3338623046875 801.1334838867188 L 732.0292358398438 794.1524658203125 L 726.7606201171875 787.154541015625 L 721.5281372070312 780.1397705078125 L 716.3317260742188 773.1080932617188 L 711.1714477539062 766.0595092773438 L 706.0471801757812 758.9940795898438 L 700.9590454101562 751.9117431640625 L 695.906982421875 744.8125 L 690.8910522460938 737.6964111328125 L 685.9111328125 730.5634155273438 L 680.9673461914062 723.4135131835938 L 676.0596313476562 716.2467651367188 L 671.1880493164062 709.0631103515625 L 666.3524780273438 701.862548828125 L 661.5530395507812 694.6451416015625 L 656.7896728515625 687.4107666015625 L 652.0624389648438 680.1596069335938 L 647.3712768554688 672.8914794921875 L 642.7161254882812 665.6065063476562 L 638.0971069335938 658.3046264648438 L 633.5142211914062 650.9859008789062 L 628.9674072265625 643.6502685546875 L 624.4566040039062 636.2977294921875 L 619.9819946289062 628.9282836914062 L 615.5433959960938 621.5419921875 L 611.1409301757812 614.1387939453125 L 606.7745361328125 606.7186889648438 L 602.4442138671875 599.28173828125 L 598.1499633789062 591.827880859375 L 593.891845703125 584.357177734375 L 589.6697998046875 576.8695068359375 L 585.4838256835938 569.364990234375 L 581.3339233398438 561.8436279296875 L 577.2201538085938 554.3052978515625 L 573.1424560546875 546.7501220703125 L 569.100830078125 539.1781005859375 L 565.0953369140625 531.589111328125 L 561.1258544921875 523.9832763671875 L 557.1925048828125 516.3605346679688 L 553.2952880859375 508.720947265625 L 549.43408203125 501.064453125 L 545.6090087890625 493.39105224609375 L 541.8200073242188 485.7007751464844 L 538.0670776367188 477.9936218261719 L 534.3502197265625 470.26959228515625 L 530.6694946289062 462.5286560058594 L 527.0248413085938 454.77081298828125 L 523.416259765625 446.9961242675781 L 519.8438110351562 439.20452880859375 L 516.307373046875 431.3960266113281 L 512.8070678710938 423.5706481933594 L 509.3428649902344 415.7283935546875 L 505.91473388671875 407.8692626953125 L 502.522705078125 399.99322509765625 L 499.166748046875 392.1003112792969 L 495.84686279296875 384.1905212402344 L 492.5630798339844 376.2637939453125 L 489.31536865234375 368.3202209472656 L 486.103759765625 360.3597717285156 L 482.9282531738281 352.3824157714844 L 479.788818359375 344.3881530761719 L 476.68548583984375 336.3770446777344 L 473.61822509765625 328.3490295410156 L 470.5870361328125 320.3041076660156 L 467.5919494628906 312.2423095703125 L 464.6329650878906 304.16363525390625 L 461.7100524902344 296.0680847167969 L 458.8232116699219 287.95562744140625 L 455.97247314453125 279.8262634277344 L 453.1578369140625 271.6800537109375 L 450.3792724609375 263.5169372558594 L 447.63677978515625 255.33694458007812 L 444.9303894042969 247.1400604248047 L 442.2601013183594 238.92628479003906 L 439.6258850097656 230.69561767578125 L 437.02777099609375 222.44805908203125 L 434.4657287597656 214.1836395263672 L 431.93975830078125 205.90231323242188 L 429.44989013671875 197.6040802001953 L 426.9961242675781 189.28900146484375 L 424.57843017578125 180.95703125 L 422.19683837890625 172.60813903808594 L 419.851318359375 164.2423858642578 L 417.5418701171875 155.8597412109375 L 415.2685546875 147.460205078125 L 413.0312805175781 139.04379272460938 L 410.8301086425781 130.6104736328125 L 408.6650390625 122.1602783203125 L 406.5360412597656 113.69319152832031 L 404.4431457519531 105.20921325683594 L 402.3863220214844 96.7083740234375" stroke-opacity="0.800000011920929" stroke-linejoin="bevel" stroke-miterlimit="10" stroke-width="4" stroke-dasharray="2,4" clip-path="url(#GlsdDdRkhkeg)"/><path fill="none" stroke="none"/><path fill="rgb(226,0,39)" stroke="rgb(0,0,0)" paint-order="fill" d="M 958 514.5 A 7.5 7.5 0 1 1 957.9999962500003 514.49250000125" fill-opacity="1" clip-path="url(#GlsdDdRkhkeg)" stroke-opacity="1" stroke-linejoin="bevel" stroke-miterlimit="10" stroke-dasharray=""/><path fill="rgb(91,17,60)" stroke="rgb(0,0,0)" paint-order="fill" d="M 788.5704345703125 172.62640380859375 A 7.5 7.5 0 1 1 788.5704308203128 172.61890380984374" fill-opacity="1" clip-path="url(#GlsdDdRkhkeg)" stroke-opacity="1" stroke-linejoin="bevel" stroke-miterlimit="10" stroke-dasharray=""/><path fill="rgb(255,52,255)" stroke="rgb(0,0,0)" paint-order="fill" d="M 407.8656005859375 88.19062042236328 A 7.5 7.5 0 1 1 407.8655968359378 88.18312042361327" fill-opacity="1" clip-path="url(#GlsdDdRkhkeg)" stroke-opacity="1" stroke-linejoin="bevel" stroke-miterlimit="10" stroke-dasharray=""/><path fill="rgb(0,0,166)" stroke="rgb(0,0,0)" paint-order="fill" d="M 102.56404113769531 324.7744445800781 A 7.5 7.5 0 1 1 102.56403738769562 324.7669445813281" fill-opacity="1" clip-path="url(#GlsdDdRkhkeg)" stroke-opacity="1" stroke-linejoin="bevel" stroke-miterlimit="10" stroke-dasharray=""/><path fill="rgb(73,75,90)" stroke="rgb(0,0,0)" paint-order="fill" d="M 102.56404113769531 704.2255249023438 A 7.5 7.5 0 1 1 102.56403738769562 704.2180249035938" fill-opacity="1" clip-path="url(#GlsdDdRkhkeg)" stroke-opacity="1" stroke-linejoin="bevel" stroke-miterlimit="10" stroke-dasharray=""/><path fill="rgb(0,134,237)" stroke="rgb(0,0,0)" paint-order="fill" d="M 407.8655700683594 940.809326171875 A 7.5 7.5 0 1 1 407.8655663183597 940.801826173125" fill-opacity="1" clip-path="url(#GlsdDdRkhkeg)" stroke-opacity="1" stroke-linejoin="bevel" stroke-miterlimit="10" stroke-dasharray=""/><path fill="rgb(188,101,233)" stroke="rgb(0,0,0)" paint-order="fill" d="M 788.5703735351562 856.3736572265625 A 7.5 7.5 0 1 1 788.5703697851566 856.3661572278126" fill-opacity="1" clip-path="url(#GlsdDdRkhkeg)" stroke-opacity="1" stroke-linejoin="bevel" stroke-miterlimit="10" stroke-dasharray=""/><path fill="none" stroke="none"/><text fill="rgb(68,68,68)" stroke="none" font-family="helvetica" font-size="12px" font-style="normal" font-weight="normal" text-decoration="normal" x="0" y="0" text-anchor="start" dominant-baseline="text-after-edge" transform="matrix(1, 0, 0, 1, 955.5, 509.5)" fill-opacity="1">AB085735.1_Miniopterus fuliginosus</text><path fill="none" stroke="none"/><text fill="rgb(68,68,68)" stroke="none" font-family="helvetica" font-size="12px" font-style="normal" font-weight="normal" text-decoration="normal" x="0" y="0" text-anchor="start" dominant-baseline="text-after-edge" transform="matrix(1, 0, 0, 1, 786.0704345703125, 167.62640380859375)" fill-opacity="1">ON640726.1_Miniopterus magnater</text><path fill="none" stroke="none"/><text fill="rgb(68,68,68)" stroke="none" font-family="helvetica" font-size="12px" font-style="normal" font-weight="normal" text-decoration="normal" x="0" y="0" text-anchor="start" dominant-baseline="text-after-edge" transform="matrix(1, 0, 0, 1, 405.3656005859375, 83.19062042236328)" fill-opacity="1">KP972690.1_Rhinolophus affinis</text><path fill="none" stroke="none"/><text fill="rgb(68,68,68)" stroke="none" font-family="helvetica" font-size="12px" font-style="normal" font-weight="normal" text-decoration="normal" x="0" y="0" text-anchor="start" dominant-baseline="text-after-edge" transform="matrix(1, 0, 0, 1, 100.06404113769531, 319.7744445800781)" fill-opacity="1">HM134917.1_Rhinolophus sinicus</text><path fill="none" stroke="none"/><text fill="rgb(68,68,68)" stroke="none" font-family="helvetica" font-size="12px" font-style="normal" font-weight="normal" text-decoration="normal" x="0" y="0" text-anchor="start" dominant-baseline="text-after-edge" transform="matrix(1, 0, 0, 1, 100.06404113769531, 699.2255249023438)" fill-opacity="1">KX261916.1_Rhinolophus macrotis</text><path fill="none" stroke="none"/><text fill="rgb(68,68,68)" stroke="none" font-family="helvetica" font-size="12px" font-style="normal" font-weight="normal" text-decoration="normal" x="0" y="0" text-anchor="start" dominant-baseline="text-after-edge" transform="matrix(1, 0, 0, 1, 405.3655700683594, 935.809326171875)" fill-opacity="1">MZ936290.1_Rhinolophus blasii</text><path fill="none" stroke="none"/><text fill="rgb(68,68,68)" stroke="none" font-family="helvetica" font-size="12px" font-style="normal" font-weight="normal" text-decoration="normal" x="0" y="0" text-anchor="start" dominant-baseline="text-after-edge" transform="matrix(1, 0, 0, 1, 786.0703735351562, 851.3736572265625)" fill-opacity="1">ON012504.1_Rhinolophus pusillus</text><path fill="none" stroke="none"/><text fill="rgb(68,68,68)" stroke="none" font-family="helvetica" font-size="12pt" font-style="normal" font-weight="bold" text-decoration="normal" x="0" y="0" text-anchor="start" dominant-baseline="text-after-edge" transform="matrix(1, 0, 0, 1, 5.5, 28.5)" fill-opacity="1">Sequence similarity network</text></svg>