<?xml version="1.0" encoding="iso-8859-1"?>
<!DOCTYPE svg PUBLIC "-//W3C//DTD SVG 1.0//EN" "http://www.w3.org/TR/2001/REC-SVG-20010904/DTD/svg10.dtd">
<svg width="1154" height="820" xmlns="http://www.w3.org/2000/svg" xmlns:xlink="http://www.w3.org/1999/xlink">
<g style="stroke:black;fill:lightgreen" transform="translate(30,30)">
<line x1="363" y1="601" x2="363" y2="593" style="stroke:blue; stroke-width:1"/>
<line x1="363" y1="593" x2="433" y2="593" style="stroke:blue; stroke-width:1"/>
<line x1="363" y1="601" x2="363" y2="609" style="stroke:blue; stroke-width:1"/>
<line x1="363" y1="609" x2="433" y2="609" style="stroke:blue; stroke-width:1"/>
<line x1="294" y1="749" x2="294" y2="758" style="stroke:blue; stroke-width:1"/>
<line x1="294" y1="758" x2="363" y2="758" style="stroke:blue; stroke-width:1"/>
<line x1="294" y1="749" x2="294" y2="741" style="stroke:blue; stroke-width:1"/>
<line x1="294" y1="741" x2="363" y2="741" style="stroke:blue; stroke-width:1"/>
<line x1="224" y1="762" x2="224" y2="774" style="stroke:blue; stroke-width:1"/>
<line x1="224" y1="774" x2="294" y2="774" style="stroke:blue; stroke-width:1"/>
<line x1="363" y1="683" x2="363" y2="675" style="stroke:blue; stroke-width:1"/>
<line x1="363" y1="675" x2="433" y2="675" style="stroke:blue; stroke-width:1"/>
<line x1="363" y1="683" x2="363" y2="692" style="stroke:blue; stroke-width:1"/>
<line x1="363" y1="692" x2="433" y2="692" style="stroke:blue; stroke-width:1"/>
<line x1="294" y1="696" x2="294" y2="708" style="stroke:blue; stroke-width:1"/>
<line x1="294" y1="708" x2="363" y2="708" style="stroke:blue; stroke-width:1"/>
<line x1="224" y1="710" x2="224" y2="725" style="stroke:blue; stroke-width:1"/>
<line x1="224" y1="725" x2="294" y2="725" style="stroke:blue; stroke-width:1"/>
<line x1="433" y1="568" x2="433" y2="560" style="stroke:blue; stroke-width:1"/>
<line x1="433" y1="560" x2="502" y2="560" style="stroke:blue; stroke-width:1"/>
<line x1="433" y1="568" x2="433" y2="576" style="stroke:blue; stroke-width:1"/>
<line x1="433" y1="576" x2="502" y2="576" style="stroke:blue; stroke-width:1"/>
<line x1="433" y1="535" x2="433" y2="543" style="stroke:blue; stroke-width:1"/>
<line x1="433" y1="543" x2="502" y2="543" style="stroke:blue; stroke-width:1"/>
<line x1="433" y1="535" x2="433" y2="527" style="stroke:blue; stroke-width:1"/>
<line x1="433" y1="527" x2="502" y2="527" style="stroke:blue; stroke-width:1"/>
<line x1="502" y1="486" x2="502" y2="494" style="stroke:blue; stroke-width:1"/>
<line x1="502" y1="494" x2="571" y2="494" style="stroke:blue; stroke-width:1"/>
<line x1="502" y1="486" x2="502" y2="477" style="stroke:blue; stroke-width:1"/>
<line x1="502" y1="477" x2="571" y2="477" style="stroke:blue; stroke-width:1"/>
<line x1="849" y1="271" x2="849" y2="263" style="stroke:blue; stroke-width:1"/>
<line x1="849" y1="263" x2="919" y2="263" style="stroke:blue; stroke-width:1"/>
<line x1="849" y1="271" x2="849" y2="280" style="stroke:blue; stroke-width:1"/>
<line x1="849" y1="280" x2="919" y2="280" style="stroke:blue; stroke-width:1"/>
<line x1="849" y1="238" x2="849" y2="247" style="stroke:blue; stroke-width:1"/>
<line x1="849" y1="247" x2="919" y2="247" style="stroke:blue; stroke-width:1"/>
<line x1="849" y1="238" x2="849" y2="230" style="stroke:blue; stroke-width:1"/>
<line x1="849" y1="230" x2="919" y2="230" style="stroke:blue; stroke-width:1"/>
<line x1="780" y1="304" x2="780" y2="313" style="stroke:blue; stroke-width:1"/>
<line x1="780" y1="313" x2="849" y2="313" style="stroke:blue; stroke-width:1"/>
<line x1="780" y1="304" x2="780" y2="296" style="stroke:blue; stroke-width:1"/>
<line x1="780" y1="296" x2="849" y2="296" style="stroke:blue; stroke-width:1"/>
<line x1="780" y1="337" x2="780" y2="346" style="stroke:blue; stroke-width:1"/>
<line x1="780" y1="346" x2="849" y2="346" style="stroke:blue; stroke-width:1"/>
<line x1="780" y1="337" x2="780" y2="329" style="stroke:blue; stroke-width:1"/>
<line x1="780" y1="329" x2="849" y2="329" style="stroke:blue; stroke-width:1"/>
<line x1="710" y1="350" x2="710" y2="362" style="stroke:blue; stroke-width:1"/>
<line x1="710" y1="362" x2="780" y2="362" style="stroke:blue; stroke-width:1"/>
<line x1="710" y1="387" x2="710" y2="395" style="stroke:blue; stroke-width:1"/>
<line x1="710" y1="395" x2="780" y2="395" style="stroke:blue; stroke-width:1"/>
<line x1="710" y1="387" x2="710" y2="379" style="stroke:blue; stroke-width:1"/>
<line x1="710" y1="379" x2="780" y2="379" style="stroke:blue; stroke-width:1"/>
<line x1="641" y1="399" x2="641" y2="411" style="stroke:blue; stroke-width:1"/>
<line x1="641" y1="411" x2="710" y2="411" style="stroke:blue; stroke-width:1"/>
<line x1="641" y1="436" x2="641" y2="428" style="stroke:blue; stroke-width:1"/>
<line x1="641" y1="428" x2="710" y2="428" style="stroke:blue; stroke-width:1"/>
<line x1="641" y1="436" x2="641" y2="444" style="stroke:blue; stroke-width:1"/>
<line x1="641" y1="444" x2="710" y2="444" style="stroke:blue; stroke-width:1"/>
<line x1="571" y1="449" x2="571" y2="461" style="stroke:blue; stroke-width:1"/>
<line x1="571" y1="461" x2="641" y2="461" style="stroke:blue; stroke-width:1"/>
<line x1="363" y1="477" x2="363" y2="510" style="stroke:blue; stroke-width:1"/>
<line x1="363" y1="510" x2="433" y2="510" style="stroke:blue; stroke-width:1"/>
<line x1="502" y1="156" x2="502" y2="164" style="stroke:blue; stroke-width:1"/>
<line x1="502" y1="164" x2="571" y2="164" style="stroke:blue; stroke-width:1"/>
<line x1="502" y1="156" x2="502" y2="148" style="stroke:blue; stroke-width:1"/>
<line x1="502" y1="148" x2="571" y2="148" style="stroke:blue; stroke-width:1"/>
<line x1="919" y1="24" x2="919" y2="32" style="stroke:blue; stroke-width:1"/>
<line x1="919" y1="32" x2="988" y2="32" style="stroke:blue; stroke-width:1"/>
<line x1="919" y1="24" x2="919" y2="16" style="stroke:blue; stroke-width:1"/>
<line x1="919" y1="16" x2="988" y2="16" style="stroke:blue; stroke-width:1"/>
<line x1="849" y1="37" x2="849" y2="49" style="stroke:blue; stroke-width:1"/>
<line x1="849" y1="49" x2="919" y2="49" style="stroke:blue; stroke-width:1"/>
<line x1="780" y1="51" x2="780" y2="65" style="stroke:blue; stroke-width:1"/>
<line x1="780" y1="65" x2="849" y2="65" style="stroke:blue; stroke-width:1"/>
<line x1="710" y1="66" x2="710" y2="82" style="stroke:blue; stroke-width:1"/>
<line x1="710" y1="82" x2="780" y2="82" style="stroke:blue; stroke-width:1"/>
<line x1="641" y1="82" x2="641" y2="98" style="stroke:blue; stroke-width:1"/>
<line x1="641" y1="98" x2="710" y2="98" style="stroke:blue; stroke-width:1"/>
<line x1="571" y1="99" x2="571" y2="115" style="stroke:blue; stroke-width:1"/>
<line x1="571" y1="115" x2="641" y2="115" style="stroke:blue; stroke-width:1"/>
<line x1="502" y1="115" x2="502" y2="131" style="stroke:blue; stroke-width:1"/>
<line x1="502" y1="131" x2="571" y2="131" style="stroke:blue; stroke-width:1"/>
<line x1="363" y1="158" x2="363" y2="181" style="stroke:blue; stroke-width:1"/>
<line x1="363" y1="181" x2="433" y2="181" style="stroke:blue; stroke-width:1"/>
<line x1="363" y1="205" x2="363" y2="214" style="stroke:blue; stroke-width:1"/>
<line x1="363" y1="214" x2="433" y2="214" style="stroke:blue; stroke-width:1"/>
<line x1="363" y1="205" x2="363" y2="197" style="stroke:blue; stroke-width:1"/>
<line x1="363" y1="197" x2="433" y2="197" style="stroke:blue; stroke-width:1"/>
<line x1="294" y1="650" x2="294" y2="659" style="stroke:blue; stroke-width:1"/>
<line x1="294" y1="659" x2="363" y2="659" style="stroke:blue; stroke-width:1"/>
<line x1="294" y1="650" x2="294" y2="642" style="stroke:blue; stroke-width:1"/>
<line x1="294" y1="642" x2="363" y2="642" style="stroke:blue; stroke-width:1"/>
<line x1="294" y1="613" x2="294" y2="626" style="stroke:blue; stroke-width:1"/>
<line x1="294" y1="626" x2="363" y2="626" style="stroke:blue; stroke-width:1"/>
<line x1="294" y1="613" x2="294" y2="601" style="stroke:blue; stroke-width:1"/>
<line x1="294" y1="601" x2="363" y2="601" style="stroke:blue; stroke-width:1"/>
<line x1="224" y1="762" x2="224" y2="749" style="stroke:blue; stroke-width:1"/>
<line x1="224" y1="749" x2="294" y2="749" style="stroke:blue; stroke-width:1"/>
<line x1="155" y1="736" x2="155" y2="762" style="stroke:blue; stroke-width:1"/>
<line x1="155" y1="762" x2="224" y2="762" style="stroke:blue; stroke-width:1"/>
<line x1="85" y1="613" x2="85" y2="736" style="stroke:blue; stroke-width:1"/>
<line x1="85" y1="736" x2="155" y2="736" style="stroke:blue; stroke-width:1"/>
<line x1="155" y1="736" x2="155" y2="710" style="stroke:blue; stroke-width:1"/>
<line x1="155" y1="710" x2="224" y2="710" style="stroke:blue; stroke-width:1"/>
<line x1="224" y1="710" x2="224" y2="696" style="stroke:blue; stroke-width:1"/>
<line x1="224" y1="696" x2="294" y2="696" style="stroke:blue; stroke-width:1"/>
<line x1="294" y1="696" x2="294" y2="683" style="stroke:blue; stroke-width:1"/>
<line x1="294" y1="683" x2="363" y2="683" style="stroke:blue; stroke-width:1"/>
<line x1="85" y1="613" x2="85" y2="490" style="stroke:blue; stroke-width:1"/>
<line x1="85" y1="490" x2="155" y2="490" style="stroke:blue; stroke-width:1"/>
<line x1="294" y1="182" x2="294" y2="205" style="stroke:blue; stroke-width:1"/>
<line x1="294" y1="205" x2="363" y2="205" style="stroke:blue; stroke-width:1"/>
<line x1="224" y1="348" x2="224" y2="182" style="stroke:blue; stroke-width:1"/>
<line x1="224" y1="182" x2="294" y2="182" style="stroke:blue; stroke-width:1"/>
<line x1="294" y1="182" x2="294" y2="158" style="stroke:blue; stroke-width:1"/>
<line x1="294" y1="158" x2="363" y2="158" style="stroke:blue; stroke-width:1"/>
<line x1="433" y1="136" x2="433" y2="156" style="stroke:blue; stroke-width:1"/>
<line x1="433" y1="156" x2="502" y2="156" style="stroke:blue; stroke-width:1"/>
<line x1="363" y1="158" x2="363" y2="136" style="stroke:blue; stroke-width:1"/>
<line x1="363" y1="136" x2="433" y2="136" style="stroke:blue; stroke-width:1"/>
<line x1="502" y1="115" x2="502" y2="99" style="stroke:blue; stroke-width:1"/>
<line x1="502" y1="99" x2="571" y2="99" style="stroke:blue; stroke-width:1"/>
<line x1="641" y1="82" x2="641" y2="66" style="stroke:blue; stroke-width:1"/>
<line x1="641" y1="66" x2="710" y2="66" style="stroke:blue; stroke-width:1"/>
<line x1="849" y1="37" x2="849" y2="24" style="stroke:blue; stroke-width:1"/>
<line x1="849" y1="24" x2="919" y2="24" style="stroke:blue; stroke-width:1"/>
<line x1="780" y1="51" x2="780" y2="37" style="stroke:blue; stroke-width:1"/>
<line x1="780" y1="37" x2="849" y2="37" style="stroke:blue; stroke-width:1"/>
<line x1="710" y1="66" x2="710" y2="51" style="stroke:blue; stroke-width:1"/>
<line x1="710" y1="51" x2="780" y2="51" style="stroke:blue; stroke-width:1"/>
<line x1="571" y1="99" x2="571" y2="82" style="stroke:blue; stroke-width:1"/>
<line x1="571" y1="82" x2="641" y2="82" style="stroke:blue; stroke-width:1"/>
<line x1="433" y1="136" x2="433" y2="115" style="stroke:blue; stroke-width:1"/>
<line x1="433" y1="115" x2="502" y2="115" style="stroke:blue; stroke-width:1"/>
<line x1="155" y1="490" x2="155" y2="348" style="stroke:blue; stroke-width:1"/>
<line x1="155" y1="348" x2="224" y2="348" style="stroke:blue; stroke-width:1"/>
<line x1="363" y1="552" x2="363" y2="568" style="stroke:blue; stroke-width:1"/>
<line x1="363" y1="568" x2="433" y2="568" style="stroke:blue; stroke-width:1"/>
<line x1="294" y1="514" x2="294" y2="552" style="stroke:blue; stroke-width:1"/>
<line x1="294" y1="552" x2="363" y2="552" style="stroke:blue; stroke-width:1"/>
<line x1="363" y1="552" x2="363" y2="535" style="stroke:blue; stroke-width:1"/>
<line x1="363" y1="535" x2="433" y2="535" style="stroke:blue; stroke-width:1"/>
<line x1="224" y1="348" x2="224" y2="514" style="stroke:blue; stroke-width:1"/>
<line x1="224" y1="514" x2="294" y2="514" style="stroke:blue; stroke-width:1"/>
<line x1="294" y1="514" x2="294" y2="477" style="stroke:blue; stroke-width:1"/>
<line x1="294" y1="477" x2="363" y2="477" style="stroke:blue; stroke-width:1"/>
<line x1="433" y1="444" x2="433" y2="486" style="stroke:blue; stroke-width:1"/>
<line x1="433" y1="486" x2="502" y2="486" style="stroke:blue; stroke-width:1"/>
<line x1="363" y1="477" x2="363" y2="444" style="stroke:blue; stroke-width:1"/>
<line x1="363" y1="444" x2="433" y2="444" style="stroke:blue; stroke-width:1"/>
<line x1="571" y1="449" x2="571" y2="436" style="stroke:blue; stroke-width:1"/>
<line x1="571" y1="436" x2="641" y2="436" style="stroke:blue; stroke-width:1"/>
<line x1="502" y1="403" x2="502" y2="449" style="stroke:blue; stroke-width:1"/>
<line x1="502" y1="449" x2="571" y2="449" style="stroke:blue; stroke-width:1"/>
<line x1="433" y1="444" x2="433" y2="403" style="stroke:blue; stroke-width:1"/>
<line x1="433" y1="403" x2="502" y2="403" style="stroke:blue; stroke-width:1"/>
<line x1="710" y1="280" x2="710" y2="304" style="stroke:blue; stroke-width:1"/>
<line x1="710" y1="304" x2="780" y2="304" style="stroke:blue; stroke-width:1"/>
<line x1="641" y1="315" x2="641" y2="280" style="stroke:blue; stroke-width:1"/>
<line x1="641" y1="280" x2="710" y2="280" style="stroke:blue; stroke-width:1"/>
<line x1="780" y1="255" x2="780" y2="271" style="stroke:blue; stroke-width:1"/>
<line x1="780" y1="271" x2="849" y2="271" style="stroke:blue; stroke-width:1"/>
<line x1="710" y1="280" x2="710" y2="255" style="stroke:blue; stroke-width:1"/>
<line x1="710" y1="255" x2="780" y2="255" style="stroke:blue; stroke-width:1"/>
<line x1="780" y1="255" x2="780" y2="238" style="stroke:blue; stroke-width:1"/>
<line x1="780" y1="238" x2="849" y2="238" style="stroke:blue; stroke-width:1"/>
<line x1="571" y1="357" x2="571" y2="315" style="stroke:blue; stroke-width:1"/>
<line x1="571" y1="315" x2="641" y2="315" style="stroke:blue; stroke-width:1"/>
<line x1="710" y1="350" x2="710" y2="337" style="stroke:blue; stroke-width:1"/>
<line x1="710" y1="337" x2="780" y2="337" style="stroke:blue; stroke-width:1"/>
<line x1="641" y1="315" x2="641" y2="350" style="stroke:blue; stroke-width:1"/>
<line x1="641" y1="350" x2="710" y2="350" style="stroke:blue; stroke-width:1"/>
<line x1="502" y1="403" x2="502" y2="357" style="stroke:blue; stroke-width:1"/>
<line x1="502" y1="357" x2="571" y2="357" style="stroke:blue; stroke-width:1"/>
<line x1="641" y1="399" x2="641" y2="387" style="stroke:blue; stroke-width:1"/>
<line x1="641" y1="387" x2="710" y2="387" style="stroke:blue; stroke-width:1"/>
<line x1="571" y1="357" x2="571" y2="399" style="stroke:blue; stroke-width:1"/>
<line x1="571" y1="399" x2="641" y2="399" style="stroke:blue; stroke-width:1"/>
<line x1="155" y1="490" x2="155" y2="632" style="stroke:blue; stroke-width:1"/>
<line x1="155" y1="632" x2="224" y2="632" style="stroke:blue; stroke-width:1"/>
<line x1="224" y1="632" x2="224" y2="650" style="stroke:blue; stroke-width:1"/>
<line x1="224" y1="650" x2="294" y2="650" style="stroke:blue; stroke-width:1"/>
<line x1="224" y1="632" x2="224" y2="613" style="stroke:blue; stroke-width:1"/>
<line x1="224" y1="613" x2="294" y2="613" style="stroke:blue; stroke-width:1"/>
<line x1="16" y1="613" x2="16" y2="613" style="stroke:blue; stroke-width:1"/>
<line x1="16" y1="613" x2="85" y2="613" style="stroke:blue; stroke-width:1"/>
<text x="20" y="607" font-weight = "10" font-family="verdana" fill="black" font-size="15">Root</text>
<text x="298" y="778" font-weight = "10" font-family="verdana" fill="black" font-size="15">KJ473795-AB085735</text>
<text x="367" y="762" font-weight = "10" font-family="verdana" fill="black" font-size="15">KJ473796-AB085735</text>
<text x="367" y="745" font-weight = "10" font-family="verdana" fill="black" font-size="15">EU420138-ON640726</text>
<text x="298" y="729" font-weight = "10" font-family="verdana" fill="black" font-size="15">KJ473797-AB085735</text>
<text x="367" y="712" font-weight = "10" font-family="verdana" fill="black" font-size="15">KJ473800-AB085735</text>
<text x="437" y="696" font-weight = "10" font-family="verdana" fill="black" font-size="15">KJ473799-AB085735</text>
<text x="437" y="679" font-weight = "10" font-family="verdana" fill="black" font-size="15">KJ473798-AB085735</text>
<text x="367" y="663" font-weight = "10" font-family="verdana" fill="black" font-size="15">GU190215-MZ936290</text>
<text x="367" y="646" font-weight = "10" font-family="verdana" fill="black" font-size="15">NC_014470-MZ936290</text>
<text x="367" y="630" font-weight = "10" font-family="verdana" fill="black" font-size="15">MN996532-KP972690</text>
<text x="437" y="613" font-weight = "10" font-family="verdana" fill="black" font-size="15">MG772934-HM134917</text>
<text x="437" y="597" font-weight = "10" font-family="verdana" fill="black" font-size="15">MG772933-HM134917</text>
<text x="506" y="580" font-weight = "10" font-family="verdana" fill="black" font-size="15">DQ648857-KX261916</text>
<text x="506" y="564" font-weight = "10" font-family="verdana" fill="black" font-size="15">DQ412043-KX261916</text>
<text x="506" y="547" font-weight = "10" font-family="verdana" fill="black" font-size="15">JX993987-ON012504</text>
<text x="506" y="531" font-weight = "10" font-family="verdana" fill="black" font-size="15">KJ473814-HM134917</text>
<text x="437" y="514" font-weight = "10" font-family="verdana" fill="black" font-size="15">KJ473815-HM134917</text>
<text x="575" y="498" font-weight = "10" font-family="verdana" fill="black" font-size="15">KY417147-HM134917</text>
<text x="575" y="481" font-weight = "10" font-family="verdana" fill="black" font-size="15">KY417148-HM134917</text>
<text x="645" y="465" font-weight = "10" font-family="verdana" fill="black" font-size="15">FJ588686-HM134917</text>
<text x="714" y="448" font-weight = "10" font-family="verdana" fill="black" font-size="15">KY417143-HM134917</text>
<text x="714" y="432" font-weight = "10" font-family="verdana" fill="black" font-size="15">KY417149-HM134917</text>
<text x="714" y="415" font-weight = "10" font-family="verdana" fill="black" font-size="15">KJ473816-HM134917</text>
<text x="784" y="399" font-weight = "10" font-family="verdana" fill="black" font-size="15">KY770858-HM134917</text>
<text x="784" y="383" font-weight = "10" font-family="verdana" fill="black" font-size="15">KY770859-HM134917</text>
<text x="784" y="366" font-weight = "10" font-family="verdana" fill="black" font-size="15">KY417146-HM134917</text>
<text x="853" y="350" font-weight = "10" font-family="verdana" fill="black" font-size="15">KT444582-HM134917</text>
<text x="853" y="333" font-weight = "10" font-family="verdana" fill="black" font-size="15">KY417150-HM134917</text>
<text x="853" y="317" font-weight = "10" font-family="verdana" fill="black" font-size="15">KY417151-HM134917</text>
<text x="853" y="300" font-weight = "10" font-family="verdana" fill="black" font-size="15">KY417152-HM134917</text>
<text x="923" y="284" font-weight = "10" font-family="verdana" fill="black" font-size="15">KC881005-HM134917</text>
<text x="923" y="267" font-weight = "10" font-family="verdana" fill="black" font-size="15">KY417144-HM134917</text>
<text x="923" y="251" font-weight = "10" font-family="verdana" fill="black" font-size="15">KF367457-HM134917</text>
<text x="923" y="234" font-weight = "10" font-family="verdana" fill="black" font-size="15">KC881006-HM134917</text>
<text x="437" y="218" font-weight = "10" font-family="verdana" fill="black" font-size="15">GQ153543-HM134917</text>
<text x="437" y="201" font-weight = "10" font-family="verdana" fill="black" font-size="15">GQ153542-HM134917</text>
<text x="437" y="185" font-weight = "10" font-family="verdana" fill="black" font-size="15">GQ153547-HM134917</text>
<text x="575" y="168" font-weight = "10" font-family="verdana" fill="black" font-size="15">DQ084200-HM134917</text>
<text x="575" y="152" font-weight = "10" font-family="verdana" fill="black" font-size="15">DQ022305-HM134917</text>
<text x="575" y="135" font-weight = "10" font-family="verdana" fill="black" font-size="15">DQ084199-HM134917</text>
<text x="645" y="119" font-weight = "10" font-family="verdana" fill="black" font-size="15">GQ153541-HM134917</text>
<text x="714" y="102" font-weight = "10" font-family="verdana" fill="black" font-size="15">GQ153539-HM134917</text>
<text x="784" y="86" font-weight = "10" font-family="verdana" fill="black" font-size="15">GQ153540-HM134917</text>
<text x="853" y="69" font-weight = "10" font-family="verdana" fill="black" font-size="15">GQ153548-HM134917</text>
<text x="923" y="53" font-weight = "10" font-family="verdana" fill="black" font-size="15">GQ153546-HM134917</text>
<text x="992" y="36" font-weight = "10" font-family="verdana" fill="black" font-size="15">GQ153545-HM134917</text>
<text x="992" y="20" font-weight = "10" font-family="verdana" fill="black" font-size="15">GQ153544-HM134917</text>
<line x1="328.42857142857" y1="708.08695652174" x2="392.99228648366" y2="692.76332653058" style="stroke:red; stroke-width:1;stroke-dasharray: 5, 5"/>
<line x1="394.14691736207" y1="697.62818290407" x2="391.83765560525" y2="687.8984701571" style="stroke:red; stroke-width:1"/>
<line x1="394.14691736207" y1="697.62818290407" x2="397.85714285714" y2="691.60869565217" style="stroke:red; stroke-width:1"/>
<line x1="397.85714285714" y1="691.60869565217" x2="391.83765560525" y2="687.8984701571" style="stroke:red; stroke-width:1"/>
<text x="363.14285714286" y="699.84782608696" font-weight = "10" font-family="verdana" fill="red" font-size="15">2</text>
<line x1="814.42857142857" y1="65.434782608696" x2="879.55711994882" y2="26.790561991362" style="stroke:red; stroke-width:1;stroke-dasharray: 5, 5"/>
<line x1="882.1085515054" y1="31.090584899684" x2="877.00568839224" y2="22.49053908304" style="stroke:red; stroke-width:1"/>
<line x1="882.1085515054" y1="31.090584899684" x2="883.85714285714" y2="24.239130434783" style="stroke:red; stroke-width:1"/>
<line x1="883.85714285714" y1="24.239130434783" x2="877.00568839224" y2="22.49053908304" style="stroke:red; stroke-width:1"/>
<text x="849.14285714286" y="44.836956521739" font-weight = "10" font-family="verdana" fill="red" font-size="15">3</text>
<line x1="397.85714285714" y1="568.02173913043" x2="462.57531959683" y2="544.98130395996" style="stroke:red; stroke-width:1;stroke-dasharray: 5, 5"/>
<line x1="464.2522757307" y1="549.69169864884" x2="460.89836346296" y2="540.27090927107" style="stroke:red; stroke-width:1"/>
<line x1="464.2522757307" y1="549.69169864884" x2="467.28571428571" y2="543.30434782609" style="stroke:red; stroke-width:1"/>
<line x1="467.28571428571" y1="543.30434782609" x2="460.89836346296" y2="540.27090927107" style="stroke:red; stroke-width:1"/>
<text x="432.57142857143" y="555.66304347826" font-weight = "10" font-family="verdana" fill="red" font-size="15">4</text>
<line x1="675.57142857143" y1="427.95652173913" x2="811.47326914292" y2="242.4896580374" style="stroke:red; stroke-width:1;stroke-dasharray: 5, 5"/>
<line x1="815.50640544119" y1="245.44496032305" x2="807.44013284465" y2="239.53435575175" style="stroke:red; stroke-width:1"/>
<line x1="815.50640544119" y1="245.44496032305" x2="814.42857142857" y2="238.45652173913" style="stroke:red; stroke-width:1"/>
<line x1="814.42857142857" y1="238.45652173913" x2="807.44013284465" y2="239.53435575175" style="stroke:red; stroke-width:1"/>
<text x="745" y="333.20652173913" font-weight = "10" font-family="verdana" fill="red" font-size="15">5</text>
<line x1="675.57142857143" y1="444.4347826087" x2="879.935903849" y2="282.75441256295" style="stroke:red; stroke-width:1;stroke-dasharray: 5, 5"/>
<line x1="883.03814249891" y1="286.6756515711" x2="876.83366519909" y2="278.83317355481" style="stroke:red; stroke-width:1"/>
<line x1="883.03814249891" y1="286.6756515711" x2="883.85714285714" y2="279.65217391304" style="stroke:red; stroke-width:1"/>
<line x1="883.85714285714" y1="279.65217391304" x2="876.83366519909" y2="278.83317355481" style="stroke:red; stroke-width:1"/>
<text x="779.71428571429" y="362.04347826087" font-weight = "10" font-family="verdana" fill="red" font-size="15">6</text>
<line x1="606.14285714286" y1="114.86956521739" x2="402.62414437701" y2="179.27406750973" style="stroke:red; stroke-width:1;stroke-dasharray: 5, 5"/>
<line x1="401.11560319108" y1="174.50706598987" x2="404.13268556293" y2="184.04106902959" style="stroke:red; stroke-width:1"/>
<line x1="401.11560319108" y1="174.50706598987" x2="397.85714285714" y2="180.78260869565" style="stroke:red; stroke-width:1"/>
<line x1="397.85714285714" y1="180.78260869565" x2="404.13268556293" y2="184.04106902959" style="stroke:red; stroke-width:1"/>
<text x="502" y="147.82608695652" font-weight = "10" font-family="verdana" fill="red" font-size="15">7</text>
<line x1="745" y1="81.913043478261" x2="611.00771351634" y2="113.71493433898" style="stroke:red; stroke-width:1;stroke-dasharray: 5, 5"/>
<line x1="609.85308263793" y1="108.8500779655" x2="612.16234439475" y2="118.57979071247" style="stroke:red; stroke-width:1"/>
<line x1="609.85308263793" y1="108.8500779655" x2="606.14285714286" y2="114.86956521739" style="stroke:red; stroke-width:1"/>
<line x1="606.14285714286" y1="114.86956521739" x2="612.16234439475" y2="118.57979071247" style="stroke:red; stroke-width:1"/>
<text x="675.57142857143" y="98.391304347826" font-weight = "10" font-family="verdana" fill="red" font-size="15">8</text>
<line x1="814.42857142857" y1="296.13043478261" x2="679.19757564517" y2="424.51398526153" style="stroke:red; stroke-width:1;stroke-dasharray: 5, 5"/>
<line x1="675.75503916758" y1="420.88783818779" x2="682.64011212277" y2="428.14013233528" style="stroke:red; stroke-width:1"/>
<line x1="675.75503916758" y1="420.88783818779" x2="675.57142857143" y2="427.95652173913" style="stroke:red; stroke-width:1"/>
<line x1="675.57142857143" y1="427.95652173913" x2="682.64011212277" y2="428.14013233528" style="stroke:red; stroke-width:1"/>
<text x="745" y="362.04347826087" font-weight = "10" font-family="verdana" fill="red" font-size="15">9</text>
<line x1="814.42857142857" y1="345.5652173913" x2="679.64444912081" y2="441.53469578167" style="stroke:red; stroke-width:1;stroke-dasharray: 5, 5"/>
<line x1="676.74436229378" y1="437.46167523228" x2="682.54453594784" y2="445.60771633105" style="stroke:red; stroke-width:1"/>
<line x1="676.74436229378" y1="437.46167523228" x2="675.57142857143" y2="444.4347826087" style="stroke:red; stroke-width:1"/>
<line x1="675.57142857143" y1="444.4347826087" x2="682.54453594784" y2="445.60771633105" style="stroke:red; stroke-width:1"/>
<text x="745" y="395" font-weight = "10" font-family="verdana" fill="red" font-size="15">10</text>
<line x1="536.71428571429" y1="147.82608695652" x2="671.25742913957" y2="68.992401924891" style="stroke:red; stroke-width:1;stroke-dasharray: 5, 5"/>
<line x1="673.78515715141" y1="73.306401356755" x2="668.72970112772" y2="64.678402493028" style="stroke:red; stroke-width:1"/>
<line x1="673.78515715141" y1="73.306401356755" x2="675.57142857143" y2="66.464673913043" style="stroke:red; stroke-width:1"/>
<line x1="675.57142857143" y1="66.464673913043" x2="668.72970112772" y2="64.678402493028" style="stroke:red; stroke-width:1"/>
<text x="606.14285714286" y="107.14538043478" font-weight = "10" font-family="verdana" fill="red" font-size="15">11</text>
<line x1="814.42857142857" y1="312.60869565217" x2="814.42857142857" y2="340.5652173913" style="stroke:red; stroke-width:1;stroke-dasharray: 5, 5"/>
<line x1="809.42857142857" y1="340.5652173913" x2="819.42857142857" y2="340.5652173913" style="stroke:red; stroke-width:1"/>
<line x1="809.42857142857" y1="340.5652173913" x2="814.42857142857" y2="345.5652173913" style="stroke:red; stroke-width:1"/>
<line x1="814.42857142857" y1="345.5652173913" x2="819.42857142857" y2="340.5652173913" style="stroke:red; stroke-width:1"/>
<text x="814.42857142857" y="329.08695652174" font-weight = "10" font-family="verdana" fill="red" font-size="15">12</text>
<line x1="536.71428571429" y1="147.82608695652" x2="536.71428571429" y2="136.34782608696" style="stroke:red; stroke-width:1;stroke-dasharray: 5, 5"/>
<line x1="541.71428571429" y1="136.34782608696" x2="531.71428571429" y2="136.34782608696" style="stroke:red; stroke-width:1"/>
<line x1="541.71428571429" y1="136.34782608696" x2="536.71428571429" y2="131.34782608696" style="stroke:red; stroke-width:1"/>
<line x1="536.71428571429" y1="131.34782608696" x2="531.71428571429" y2="136.34782608696" style="stroke:red; stroke-width:1"/>
<text x="536.71428571429" y="139.58695652174" font-weight = "10" font-family="verdana" fill="red" font-size="15">13</text>
<line x1="536.71428571429" y1="147.82608695652" x2="673.24147659675" y2="407.05431197794" style="stroke:red; stroke-width:1;stroke-dasharray: 5, 5"/>
<line x1="668.81752770513" y1="409.38426395262" x2="677.66542548837" y2="404.72436000326" style="stroke:red; stroke-width:1"/>
<line x1="668.81752770513" y1="409.38426395262" x2="675.57142857143" y2="411.47826086957" style="stroke:red; stroke-width:1"/>
<line x1="675.57142857143" y1="411.47826086957" x2="677.66542548837" y2="404.72436000326" style="stroke:red; stroke-width:1"/>
<text x="606.14285714286" y="279.65217391304" font-weight = "10" font-family="verdana" fill="red" font-size="15">14</text>
<line x1="814.42857142857" y1="312.60869565217" x2="402.37408618897" y2="508.20371253188" style="stroke:red; stroke-width:1;stroke-dasharray: 5, 5"/>
<line x1="400.22997263389" y1="503.68676920005" x2="404.51819974405" y2="512.7206558637" style="stroke:red; stroke-width:1"/>
<line x1="400.22997263389" y1="503.68676920005" x2="397.85714285714" y2="510.34782608696" style="stroke:red; stroke-width:1"/>
<line x1="397.85714285714" y1="510.34782608696" x2="404.51819974405" y2="512.7206558637" style="stroke:red; stroke-width:1"/>
<text x="606.14285714286" y="411.47826086957" font-weight = "10" font-family="verdana" fill="red" font-size="15">15</text>
<line x1="536.71428571429" y1="477.39130434783" x2="810.12854852025" y2="315.16012720875" style="stroke:red; stroke-width:1;stroke-dasharray: 5, 5"/>
<line x1="812.67998007683" y1="319.46015011707" x2="807.57711696367" y2="310.86010430043" style="stroke:red; stroke-width:1"/>
<line x1="812.67998007683" y1="319.46015011707" x2="814.42857142857" y2="312.60869565217" style="stroke:red; stroke-width:1"/>
<line x1="814.42857142857" y1="312.60869565217" x2="807.57711696367" y2="310.86010430043" style="stroke:red; stroke-width:1"/>
<text x="675.57142857143" y="395" font-weight = "10" font-family="verdana" fill="red" font-size="15">16</text>
<line x1="397.85714285714" y1="213.73913043478" x2="532.19734238246" y2="149.9702005116" style="stroke:red; stroke-width:1;stroke-dasharray: 5, 5"/>
<line x1="534.34145593754" y1="154.48714384343" x2="530.05322882738" y2="145.45325717977" style="stroke:red; stroke-width:1"/>
<line x1="534.34145593754" y1="154.48714384343" x2="536.71428571429" y2="147.82608695652" style="stroke:red; stroke-width:1"/>
<line x1="536.71428571429" y1="147.82608695652" x2="530.05322882738" y2="145.45325717977" style="stroke:red; stroke-width:1"/>
<text x="467.28571428571" y="180.78260869565" font-weight = "10" font-family="verdana" fill="red" font-size="15">17</text>
<line x1="467.28571428571" y1="485.63043478261" x2="809.87058281253" y2="331.14237369985" style="stroke:red; stroke-width:1;stroke-dasharray: 5, 5"/>
<line x1="811.92599999064" y1="335.70036231588" x2="807.81516563443" y2="326.58438508381" style="stroke:red; stroke-width:1"/>
<line x1="811.92599999064" y1="335.70036231588" x2="814.42857142857" y2="329.08695652174" style="stroke:red; stroke-width:1"/>
<line x1="814.42857142857" y1="329.08695652174" x2="807.81516563443" y2="326.58438508381" style="stroke:red; stroke-width:1"/>
<text x="640.85714285714" y="407.35869565217" font-weight = "10" font-family="verdana" fill="red" font-size="15">18</text>
<line x1="675.57142857143" y1="98.391304347826" x2="333.20632184082" y2="204.02585584212" style="stroke:red; stroke-width:1;stroke-dasharray: 5, 5"/>
<line x1="331.73217768294" y1="199.24810542986" x2="334.68046599871" y2="208.80360625437" style="stroke:red; stroke-width:1"/>
<line x1="331.73217768294" y1="199.24810542986" x2="328.42857142857" y2="205.5" style="stroke:red; stroke-width:1"/>
<line x1="328.42857142857" y1="205.5" x2="334.68046599871" y2="208.80360625437" style="stroke:red; stroke-width:1"/>
<text x="502" y="151.94565217391" font-weight = "10" font-family="verdana" fill="red" font-size="15">19</text>
<line x1="467.28571428571" y1="526.82608695652" x2="398.73066465592" y2="140.45486418852" style="stroke:red; stroke-width:1;stroke-dasharray: 5, 5"/>
<line x1="403.65376933357" y1="139.58134238974" x2="393.80755997828" y2="141.32838598729" style="stroke:red; stroke-width:1"/>
<line x1="403.65376933357" y1="139.58134238974" x2="397.85714285714" y2="135.53175951087" style="stroke:red; stroke-width:1"/>
<line x1="397.85714285714" y1="135.53175951087" x2="393.80755997828" y2="141.32838598729" style="stroke:red; stroke-width:1"/>
<text x="432.57142857143" y="331.1789232337" font-weight = "10" font-family="verdana" fill="red" font-size="15">20</text>
<line x1="467.28571428571" y1="485.63043478261" x2="740.33493716062" y2="380.32095804558" style="stroke:red; stroke-width:1;stroke-dasharray: 5, 5"/>
<line x1="742.13415607576" y1="384.98602088496" x2="738.53571824548" y2="375.65589520619" style="stroke:red; stroke-width:1"/>
<line x1="742.13415607576" y1="384.98602088496" x2="745" y2="378.52173913043" style="stroke:red; stroke-width:1"/>
<line x1="745" y1="378.52173913043" x2="738.53571824548" y2="375.65589520619" style="stroke:red; stroke-width:1"/>
<text x="606.14285714286" y="432.07608695652" font-weight = "10" font-family="verdana" fill="red" font-size="15">21</text>
<line x1="467.28571428571" y1="485.63043478261" x2="879.44663211922" y2="265.52920390252" style="stroke:red; stroke-width:1;stroke-dasharray: 5, 5"/>
<line x1="881.80192297826" y1="269.93971464044" x2="877.09134126018" y2="261.1186931646" style="stroke:red; stroke-width:1"/>
<line x1="881.80192297826" y1="269.93971464044" x2="883.85714285714" y2="263.17391304348" style="stroke:red; stroke-width:1"/>
<line x1="883.85714285714" y1="263.17391304348" x2="877.09134126018" y2="261.1186931646" style="stroke:red; stroke-width:1"/>
<text x="675.57142857143" y="374.40217391304" font-weight = "10" font-family="verdana" fill="red" font-size="15">22</text>
<line x1="745" y1="362.04347826087" x2="471.85380461095" y2="483.59756715767" style="stroke:red; stroke-width:1;stroke-dasharray: 5, 5"/>
<line x1="469.82093698601" y1="479.02947683244" x2="473.88667223589" y2="488.1656574829" style="stroke:red; stroke-width:1"/>
<line x1="469.82093698601" y1="479.02947683244" x2="467.28571428571" y2="485.63043478261" style="stroke:red; stroke-width:1"/>
<line x1="467.28571428571" y1="485.63043478261" x2="473.88667223589" y2="488.1656574829" style="stroke:red; stroke-width:1"/>
<text x="606.14285714286" y="423.83695652174" font-weight = "10" font-family="verdana" fill="red" font-size="15">23</text>
<line x1="606.14285714286" y1="314.66847826087" x2="606.14285714286" y2="455.91304347826" style="stroke:red; stroke-width:1;stroke-dasharray: 5, 5"/>
<line x1="601.14285714286" y1="455.91304347826" x2="611.14285714286" y2="455.91304347826" style="stroke:red; stroke-width:1"/>
<line x1="601.14285714286" y1="455.91304347826" x2="606.14285714286" y2="460.91304347826" style="stroke:red; stroke-width:1"/>
<line x1="606.14285714286" y1="460.91304347826" x2="611.14285714286" y2="455.91304347826" style="stroke:red; stroke-width:1"/>
<text x="606.14285714286" y="387.79076086957" font-weight = "10" font-family="verdana" fill="red" font-size="15">24</text>
<line x1="259" y1="650.41304347826" x2="259" y2="519.40302309783" style="stroke:red; stroke-width:1;stroke-dasharray: 5, 5"/>
<line x1="264" y1="519.40302309783" x2="254" y2="519.40302309783" style="stroke:red; stroke-width:1"/>
<line x1="264" y1="519.40302309783" x2="259" y2="514.40302309783" style="stroke:red; stroke-width:1"/>
<line x1="259" y1="514.40302309783" x2="254" y2="519.40302309783" style="stroke:red; stroke-width:1"/>
<text x="259" y="582.40803328804" font-weight = "10" font-family="verdana" fill="red" font-size="15">25</text>
<line x1="328.42857142857" y1="600.97826086957" x2="263.07302054938" y2="647.51295665123" style="stroke:red; stroke-width:1;stroke-dasharray: 5, 5"/>
<line x1="260.17293372235" y1="643.43993610185" x2="265.97310737641" y2="651.58597720061" style="stroke:red; stroke-width:1"/>
<line x1="260.17293372235" y1="643.43993610185" x2="259" y2="650.41304347826" style="stroke:red; stroke-width:1"/>
<line x1="259" y1="650.41304347826" x2="265.97310737641" y2="651.58597720061" style="stroke:red; stroke-width:1"/>
<text x="293.71428571429" y="625.69565217391" font-weight = "10" font-family="verdana" fill="red" font-size="15">26</text>
<line x1="328.42857142857" y1="741.04347826087" x2="263.51694333183" y2="771.85588644492" style="stroke:red; stroke-width:1;stroke-dasharray: 5, 5"/>
<line x1="261.37282977675" y1="767.3389431131" x2="265.6610568869" y2="776.37282977675" style="stroke:red; stroke-width:1"/>
<line x1="261.37282977675" y1="767.3389431131" x2="259" y2="774" style="stroke:red; stroke-width:1"/>
<line x1="259" y1="774" x2="265.6610568869" y2="776.37282977675" style="stroke:red; stroke-width:1"/>
<text x="293.71428571429" y="757.52173913043" font-weight = "10" font-family="verdana" fill="red" font-size="15">1</text>
</g></svg>