<?xml version="1.0" encoding="iso-8859-1"?>
<!DOCTYPE svg PUBLIC "-//W3C//DTD SVG 1.0//EN" "http://www.w3.org/TR/2001/REC-SVG-20010904/DTD/svg10.dtd">
<svg width="1199" height="868" xmlns="http://www.w3.org/2000/svg" xmlns:xlink="http://www.w3.org/1999/xlink">
<g style="stroke:black;fill:lightgreen" transform="translate(30,30)">
<line x1="685" y1="243" x2="685" y2="268" style="stroke:blue; stroke-width:1"/>
<line x1="685" y1="268" x2="964" y2="268" style="stroke:blue; stroke-width:1"/>
<line x1="685" y1="243" x2="685" y2="217" style="stroke:blue; stroke-width:1"/>
<line x1="685" y1="217" x2="1033" y2="217" style="stroke:blue; stroke-width:1"/>
<line x1="545" y1="280" x2="545" y2="318" style="stroke:blue; stroke-width:1"/>
<line x1="545" y1="318" x2="816" y2="318" style="stroke:blue; stroke-width:1"/>
<line x1="425" y1="325" x2="425" y2="369" style="stroke:blue; stroke-width:1"/>
<line x1="425" y1="369" x2="664" y2="369" style="stroke:blue; stroke-width:1"/>
<line x1="156" y1="696" x2="156" y2="721" style="stroke:blue; stroke-width:1"/>
<line x1="156" y1="721" x2="278" y2="721" style="stroke:blue; stroke-width:1"/>
<line x1="156" y1="696" x2="156" y2="671" style="stroke:blue; stroke-width:1"/>
<line x1="156" y1="671" x2="228" y2="671" style="stroke:blue; stroke-width:1"/>
<line x1="170" y1="545" x2="170" y2="570" style="stroke:blue; stroke-width:1"/>
<line x1="170" y1="570" x2="291" y2="570" style="stroke:blue; stroke-width:1"/>
<line x1="170" y1="545" x2="170" y2="520" style="stroke:blue; stroke-width:1"/>
<line x1="170" y1="520" x2="283" y2="520" style="stroke:blue; stroke-width:1"/>
<line x1="177" y1="444" x2="177" y2="469" style="stroke:blue; stroke-width:1"/>
<line x1="177" y1="469" x2="266" y2="469" style="stroke:blue; stroke-width:1"/>
<line x1="177" y1="444" x2="177" y2="419" style="stroke:blue; stroke-width:1"/>
<line x1="177" y1="419" x2="233" y2="419" style="stroke:blue; stroke-width:1"/>
<line x1="136" y1="558" x2="136" y2="620" style="stroke:blue; stroke-width:1"/>
<line x1="136" y1="620" x2="283" y2="620" style="stroke:blue; stroke-width:1"/>
<line x1="92" y1="797" x2="92" y2="822" style="stroke:blue; stroke-width:1"/>
<line x1="92" y1="822" x2="317" y2="822" style="stroke:blue; stroke-width:1"/>
<line x1="92" y1="797" x2="92" y2="772" style="stroke:blue; stroke-width:1"/>
<line x1="92" y1="772" x2="323" y2="772" style="stroke:blue; stroke-width:1"/>
<line x1="672" y1="41" x2="672" y2="66" style="stroke:blue; stroke-width:1"/>
<line x1="672" y1="66" x2="713" y2="66" style="stroke:blue; stroke-width:1"/>
<line x1="672" y1="41" x2="672" y2="16" style="stroke:blue; stroke-width:1"/>
<line x1="672" y1="16" x2="739" y2="16" style="stroke:blue; stroke-width:1"/>
<line x1="630" y1="79" x2="630" y2="117" style="stroke:blue; stroke-width:1"/>
<line x1="630" y1="117" x2="807" y2="117" style="stroke:blue; stroke-width:1"/>
<line x1="335" y1="123" x2="335" y2="167" style="stroke:blue; stroke-width:1"/>
<line x1="335" y1="167" x2="706" y2="167" style="stroke:blue; stroke-width:1"/>
<line x1="545" y1="280" x2="545" y2="243" style="stroke:blue; stroke-width:1"/>
<line x1="545" y1="243" x2="685" y2="243" style="stroke:blue; stroke-width:1"/>
<line x1="425" y1="325" x2="425" y2="280" style="stroke:blue; stroke-width:1"/>
<line x1="425" y1="280" x2="545" y2="280" style="stroke:blue; stroke-width:1"/>
<line x1="259" y1="224" x2="259" y2="325" style="stroke:blue; stroke-width:1"/>
<line x1="259" y1="325" x2="425" y2="325" style="stroke:blue; stroke-width:1"/>
<line x1="121" y1="627" x2="121" y2="696" style="stroke:blue; stroke-width:1"/>
<line x1="121" y1="696" x2="156" y2="696" style="stroke:blue; stroke-width:1"/>
<line x1="139" y1="495" x2="139" y2="545" style="stroke:blue; stroke-width:1"/>
<line x1="139" y1="545" x2="170" y2="545" style="stroke:blue; stroke-width:1"/>
<line x1="139" y1="495" x2="139" y2="444" style="stroke:blue; stroke-width:1"/>
<line x1="139" y1="444" x2="177" y2="444" style="stroke:blue; stroke-width:1"/>
<line x1="136" y1="558" x2="136" y2="495" style="stroke:blue; stroke-width:1"/>
<line x1="136" y1="495" x2="139" y2="495" style="stroke:blue; stroke-width:1"/>
<line x1="121" y1="627" x2="121" y2="558" style="stroke:blue; stroke-width:1"/>
<line x1="121" y1="558" x2="136" y2="558" style="stroke:blue; stroke-width:1"/>
<line x1="16" y1="627" x2="16" y2="627" style="stroke:blue; stroke-width:1"/>
<line x1="16" y1="627" x2="121" y2="627" style="stroke:blue; stroke-width:1"/>
<line x1="16" y1="627" x2="16" y2="797" style="stroke:blue; stroke-width:1"/>
<line x1="16" y1="797" x2="92" y2="797" style="stroke:blue; stroke-width:1"/>
<line x1="16" y1="627" x2="16" y2="224" style="stroke:blue; stroke-width:1"/>
<line x1="16" y1="224" x2="259" y2="224" style="stroke:blue; stroke-width:1"/>
<line x1="630" y1="79" x2="630" y2="41" style="stroke:blue; stroke-width:1"/>
<line x1="630" y1="41" x2="672" y2="41" style="stroke:blue; stroke-width:1"/>
<line x1="335" y1="123" x2="335" y2="79" style="stroke:blue; stroke-width:1"/>
<line x1="335" y1="79" x2="630" y2="79" style="stroke:blue; stroke-width:1"/>
<line x1="259" y1="224" x2="259" y2="123" style="stroke:blue; stroke-width:1"/>
<line x1="259" y1="123" x2="335" y2="123" style="stroke:blue; stroke-width:1"/>
<text x="321" y="828" font-weight = "10" font-family="verdana" fill="black" font-size="17">OP894116.1_Hipposideros-pratti</text>
<text x="327" y="778" font-weight = "10" font-family="verdana" fill="black" font-size="17">DQ888677.1_Aselliscus-stoliczkanus</text>
<text x="282" y="727" font-weight = "10" font-family="verdana" fill="black" font-size="17">AB085731.1_Rhinolophus-ferrumequinum</text>
<text x="232" y="677" font-weight = "10" font-family="verdana" fill="black" font-size="17">MZ936290.1_Rhinolophus-blasii</text>
<text x="287" y="626" font-weight = "10" font-family="verdana" fill="black" font-size="17">JX502551.1_Rhinolophus-pearsonii</text>
<text x="295" y="576" font-weight = "10" font-family="verdana" fill="black" font-size="17">KP972690.1_Rhinolophus-affinis</text>
<text x="287" y="526" font-weight = "10" font-family="verdana" fill="black" font-size="17">HM134917.1_Rhinolophus-sinicus</text>
<text x="270" y="475" font-weight = "10" font-family="verdana" fill="black" font-size="17">ON012504.1_Rhinolophus-pusillus</text>
<text x="237" y="425" font-weight = "10" font-family="verdana" fill="black" font-size="17">KX261916.1_Rhinolophus-macrotis</text>
<text x="668" y="375" font-weight = "10" font-family="verdana" fill="black" font-size="17">AB106608.1_Myotis-ricketti</text>
<text x="820" y="324" font-weight = "10" font-family="verdana" fill="black" font-size="17">AB085739.2_Pipistrellus-abramus</text>
<text x="968" y="274" font-weight = "10" font-family="verdana" fill="black" font-size="17">ON640722.1_Tylonycteris-pachypus</text>
<text x="1037" y="223" font-weight = "10" font-family="verdana" fill="black" font-size="17">AB085738.1_Vespertilio-superans</text>
<text x="710" y="173" font-weight = "10" font-family="verdana" fill="black" font-size="17">ON640662.1_Chaerephon-plicatus</text>
<text x="811" y="123" font-weight = "10" font-family="verdana" fill="black" font-size="17">MN366288.1_Miniopterus-pusillus</text>
<text x="717" y="72" font-weight = "10" font-family="verdana" fill="black" font-size="17">ON640726.1_Miniopterus-magnater</text>
<text x="743" y="22" font-weight = "10" font-family="verdana" fill="black" font-size="17">AB085735.1_Miniopterus-fuliginosus</text>
<text x="600.33530923135" y="242.6875" font-weight = "10" font-family="verdana" fill="magenta" font-size="13">99%</text>
<text x="469.88953154372" y="280.46875" font-weight = "10" font-family="verdana" fill="magenta" font-size="13">97%</text>
<text x="139.73458955906" y="544.9375" font-weight = "10" font-family="verdana" fill="magenta" font-size="13">78%</text>
<text x="142.95339985172" y="444.1875" font-weight = "10" font-family="verdana" fill="magenta" font-size="13">94%</text>
<text x="122.79971443699" y="494.5625" font-weight = "10" font-family="verdana" fill="magenta" font-size="13">13%</text>
<text x="123.18969876686" y="696.0625" font-weight = "10" font-family="verdana" fill="magenta" font-size="13">94%</text>
<text x="113.60088463943" y="557.53125" font-weight = "10" font-family="verdana" fill="magenta" font-size="13">38%</text>
<text x="53.392642687554" y="626.796875" font-weight = "10" font-family="verdana" fill="magenta" font-size="13">100%</text>
<text x="39.186586528429" y="796.8125" font-weight = "10" font-family="verdana" fill="magenta" font-size="13">58%</text>
<text x="326.55841515356" y="324.546875" font-weight = "10" font-family="verdana" fill="magenta" font-size="13">100%</text>
<text x="122.30139627227" y="223.796875" font-weight = "10" font-family="verdana" fill="magenta" font-size="13">100%</text>
<text x="635.86017414319" y="41.1875" font-weight = "10" font-family="verdana" fill="magenta" font-size="13">85%</text>
<text x="281.96087200287" y="123.046875" font-weight = "10" font-family="verdana" fill="magenta" font-size="13">66%</text>
<text x="467.5525576422" y="78.96875" font-weight = "10" font-family="verdana" fill="magenta" font-size="13">100%</text>
</g></svg>