<?xml version="1.0" encoding="iso-8859-1"?>
<!DOCTYPE svg PUBLIC "-//W3C//DTD SVG 1.0//EN" "http://www.w3.org/TR/2001/REC-SVG-20010904/DTD/svg10.dtd">
<svg width="912" height="723" xmlns="http://www.w3.org/2000/svg" xmlns:xlink="http://www.w3.org/1999/xlink">
<g style="stroke:black;fill:lightgreen" transform="translate(30,30)">
<line x1="277" y1="526" x2="277" y2="519" style="stroke:blue; stroke-width:1"/>
<line x1="277" y1="519" x2="329" y2="519" style="stroke:blue; stroke-width:1"/>
<line x1="277" y1="526" x2="277" y2="533" style="stroke:blue; stroke-width:1"/>
<line x1="277" y1="533" x2="329" y2="533" style="stroke:blue; stroke-width:1"/>
<line x1="225" y1="537" x2="225" y2="548" style="stroke:blue; stroke-width:1"/>
<line x1="225" y1="548" x2="277" y2="548" style="stroke:blue; stroke-width:1"/>
<line x1="225" y1="655" x2="225" y2="663" style="stroke:blue; stroke-width:1"/>
<line x1="225" y1="663" x2="277" y2="663" style="stroke:blue; stroke-width:1"/>
<line x1="225" y1="655" x2="225" y2="648" style="stroke:blue; stroke-width:1"/>
<line x1="225" y1="648" x2="277" y2="648" style="stroke:blue; stroke-width:1"/>
<line x1="172" y1="666" x2="172" y2="677" style="stroke:blue; stroke-width:1"/>
<line x1="172" y1="677" x2="225" y2="677" style="stroke:blue; stroke-width:1"/>
<line x1="277" y1="598" x2="277" y2="605" style="stroke:blue; stroke-width:1"/>
<line x1="277" y1="605" x2="329" y2="605" style="stroke:blue; stroke-width:1"/>
<line x1="277" y1="598" x2="277" y2="591" style="stroke:blue; stroke-width:1"/>
<line x1="277" y1="591" x2="329" y2="591" style="stroke:blue; stroke-width:1"/>
<line x1="225" y1="609" x2="225" y2="620" style="stroke:blue; stroke-width:1"/>
<line x1="225" y1="620" x2="277" y2="620" style="stroke:blue; stroke-width:1"/>
<line x1="172" y1="621" x2="172" y2="634" style="stroke:blue; stroke-width:1"/>
<line x1="172" y1="634" x2="225" y2="634" style="stroke:blue; stroke-width:1"/>
<line x1="329" y1="497" x2="329" y2="505" style="stroke:blue; stroke-width:1"/>
<line x1="329" y1="505" x2="381" y2="505" style="stroke:blue; stroke-width:1"/>
<line x1="329" y1="497" x2="329" y2="490" style="stroke:blue; stroke-width:1"/>
<line x1="329" y1="490" x2="381" y2="490" style="stroke:blue; stroke-width:1"/>
<line x1="329" y1="469" x2="329" y2="461" style="stroke:blue; stroke-width:1"/>
<line x1="329" y1="461" x2="381" y2="461" style="stroke:blue; stroke-width:1"/>
<line x1="329" y1="469" x2="329" y2="476" style="stroke:blue; stroke-width:1"/>
<line x1="329" y1="476" x2="381" y2="476" style="stroke:blue; stroke-width:1"/>
<line x1="381" y1="426" x2="381" y2="433" style="stroke:blue; stroke-width:1"/>
<line x1="381" y1="433" x2="433" y2="433" style="stroke:blue; stroke-width:1"/>
<line x1="381" y1="426" x2="381" y2="418" style="stroke:blue; stroke-width:1"/>
<line x1="381" y1="418" x2="433" y2="418" style="stroke:blue; stroke-width:1"/>
<line x1="642" y1="210" x2="642" y2="203" style="stroke:blue; stroke-width:1"/>
<line x1="642" y1="203" x2="694" y2="203" style="stroke:blue; stroke-width:1"/>
<line x1="642" y1="210" x2="642" y2="217" style="stroke:blue; stroke-width:1"/>
<line x1="642" y1="217" x2="694" y2="217" style="stroke:blue; stroke-width:1"/>
<line x1="642" y1="239" x2="642" y2="246" style="stroke:blue; stroke-width:1"/>
<line x1="642" y1="246" x2="694" y2="246" style="stroke:blue; stroke-width:1"/>
<line x1="642" y1="239" x2="642" y2="232" style="stroke:blue; stroke-width:1"/>
<line x1="642" y1="232" x2="694" y2="232" style="stroke:blue; stroke-width:1"/>
<line x1="590" y1="267" x2="590" y2="260" style="stroke:blue; stroke-width:1"/>
<line x1="590" y1="260" x2="642" y2="260" style="stroke:blue; stroke-width:1"/>
<line x1="590" y1="267" x2="590" y2="275" style="stroke:blue; stroke-width:1"/>
<line x1="590" y1="275" x2="642" y2="275" style="stroke:blue; stroke-width:1"/>
<line x1="590" y1="296" x2="590" y2="303" style="stroke:blue; stroke-width:1"/>
<line x1="590" y1="303" x2="642" y2="303" style="stroke:blue; stroke-width:1"/>
<line x1="590" y1="296" x2="590" y2="289" style="stroke:blue; stroke-width:1"/>
<line x1="590" y1="289" x2="642" y2="289" style="stroke:blue; stroke-width:1"/>
<line x1="537" y1="307" x2="537" y2="318" style="stroke:blue; stroke-width:1"/>
<line x1="537" y1="318" x2="590" y2="318" style="stroke:blue; stroke-width:1"/>
<line x1="537" y1="339" x2="537" y2="332" style="stroke:blue; stroke-width:1"/>
<line x1="537" y1="332" x2="590" y2="332" style="stroke:blue; stroke-width:1"/>
<line x1="537" y1="339" x2="537" y2="346" style="stroke:blue; stroke-width:1"/>
<line x1="537" y1="346" x2="590" y2="346" style="stroke:blue; stroke-width:1"/>
<line x1="485" y1="350" x2="485" y2="361" style="stroke:blue; stroke-width:1"/>
<line x1="485" y1="361" x2="537" y2="361" style="stroke:blue; stroke-width:1"/>
<line x1="485" y1="382" x2="485" y2="375" style="stroke:blue; stroke-width:1"/>
<line x1="485" y1="375" x2="537" y2="375" style="stroke:blue; stroke-width:1"/>
<line x1="485" y1="382" x2="485" y2="390" style="stroke:blue; stroke-width:1"/>
<line x1="485" y1="390" x2="537" y2="390" style="stroke:blue; stroke-width:1"/>
<line x1="433" y1="393" x2="433" y2="404" style="stroke:blue; stroke-width:1"/>
<line x1="433" y1="404" x2="485" y2="404" style="stroke:blue; stroke-width:1"/>
<line x1="277" y1="418" x2="277" y2="447" style="stroke:blue; stroke-width:1"/>
<line x1="277" y1="447" x2="329" y2="447" style="stroke:blue; stroke-width:1"/>
<line x1="381" y1="138" x2="381" y2="145" style="stroke:blue; stroke-width:1"/>
<line x1="381" y1="145" x2="433" y2="145" style="stroke:blue; stroke-width:1"/>
<line x1="381" y1="138" x2="381" y2="131" style="stroke:blue; stroke-width:1"/>
<line x1="381" y1="131" x2="433" y2="131" style="stroke:blue; stroke-width:1"/>
<line x1="694" y1="23" x2="694" y2="30" style="stroke:blue; stroke-width:1"/>
<line x1="694" y1="30" x2="746" y2="30" style="stroke:blue; stroke-width:1"/>
<line x1="694" y1="23" x2="694" y2="16" style="stroke:blue; stroke-width:1"/>
<line x1="694" y1="16" x2="746" y2="16" style="stroke:blue; stroke-width:1"/>
<line x1="642" y1="34" x2="642" y2="45" style="stroke:blue; stroke-width:1"/>
<line x1="642" y1="45" x2="694" y2="45" style="stroke:blue; stroke-width:1"/>
<line x1="590" y1="47" x2="590" y2="59" style="stroke:blue; stroke-width:1"/>
<line x1="590" y1="59" x2="642" y2="59" style="stroke:blue; stroke-width:1"/>
<line x1="537" y1="60" x2="537" y2="73" style="stroke:blue; stroke-width:1"/>
<line x1="537" y1="73" x2="590" y2="73" style="stroke:blue; stroke-width:1"/>
<line x1="485" y1="74" x2="485" y2="88" style="stroke:blue; stroke-width:1"/>
<line x1="485" y1="88" x2="537" y2="88" style="stroke:blue; stroke-width:1"/>
<line x1="433" y1="88" x2="433" y2="102" style="stroke:blue; stroke-width:1"/>
<line x1="433" y1="102" x2="485" y2="102" style="stroke:blue; stroke-width:1"/>
<line x1="381" y1="102" x2="381" y2="117" style="stroke:blue; stroke-width:1"/>
<line x1="381" y1="117" x2="433" y2="117" style="stroke:blue; stroke-width:1"/>
<line x1="277" y1="140" x2="277" y2="160" style="stroke:blue; stroke-width:1"/>
<line x1="277" y1="160" x2="329" y2="160" style="stroke:blue; stroke-width:1"/>
<line x1="277" y1="181" x2="277" y2="188" style="stroke:blue; stroke-width:1"/>
<line x1="277" y1="188" x2="329" y2="188" style="stroke:blue; stroke-width:1"/>
<line x1="277" y1="181" x2="277" y2="174" style="stroke:blue; stroke-width:1"/>
<line x1="277" y1="174" x2="329" y2="174" style="stroke:blue; stroke-width:1"/>
<line x1="225" y1="569" x2="225" y2="576" style="stroke:blue; stroke-width:1"/>
<line x1="225" y1="576" x2="277" y2="576" style="stroke:blue; stroke-width:1"/>
<line x1="225" y1="569" x2="225" y2="562" style="stroke:blue; stroke-width:1"/>
<line x1="225" y1="562" x2="277" y2="562" style="stroke:blue; stroke-width:1"/>
<line x1="225" y1="537" x2="225" y2="526" style="stroke:blue; stroke-width:1"/>
<line x1="225" y1="526" x2="277" y2="526" style="stroke:blue; stroke-width:1"/>
<line x1="172" y1="553" x2="172" y2="537" style="stroke:blue; stroke-width:1"/>
<line x1="172" y1="537" x2="225" y2="537" style="stroke:blue; stroke-width:1"/>
<line x1="277" y1="483" x2="277" y2="497" style="stroke:blue; stroke-width:1"/>
<line x1="277" y1="497" x2="329" y2="497" style="stroke:blue; stroke-width:1"/>
<line x1="225" y1="451" x2="225" y2="483" style="stroke:blue; stroke-width:1"/>
<line x1="225" y1="483" x2="277" y2="483" style="stroke:blue; stroke-width:1"/>
<line x1="277" y1="483" x2="277" y2="469" style="stroke:blue; stroke-width:1"/>
<line x1="277" y1="469" x2="329" y2="469" style="stroke:blue; stroke-width:1"/>
<line x1="172" y1="306" x2="172" y2="451" style="stroke:blue; stroke-width:1"/>
<line x1="172" y1="451" x2="225" y2="451" style="stroke:blue; stroke-width:1"/>
<line x1="225" y1="451" x2="225" y2="418" style="stroke:blue; stroke-width:1"/>
<line x1="225" y1="418" x2="277" y2="418" style="stroke:blue; stroke-width:1"/>
<line x1="329" y1="389" x2="329" y2="426" style="stroke:blue; stroke-width:1"/>
<line x1="329" y1="426" x2="381" y2="426" style="stroke:blue; stroke-width:1"/>
<line x1="277" y1="418" x2="277" y2="389" style="stroke:blue; stroke-width:1"/>
<line x1="277" y1="389" x2="329" y2="389" style="stroke:blue; stroke-width:1"/>
<line x1="433" y1="393" x2="433" y2="382" style="stroke:blue; stroke-width:1"/>
<line x1="433" y1="382" x2="485" y2="382" style="stroke:blue; stroke-width:1"/>
<line x1="381" y1="353" x2="381" y2="393" style="stroke:blue; stroke-width:1"/>
<line x1="381" y1="393" x2="433" y2="393" style="stroke:blue; stroke-width:1"/>
<line x1="329" y1="389" x2="329" y2="353" style="stroke:blue; stroke-width:1"/>
<line x1="329" y1="353" x2="381" y2="353" style="stroke:blue; stroke-width:1"/>
<line x1="485" y1="350" x2="485" y2="339" style="stroke:blue; stroke-width:1"/>
<line x1="485" y1="339" x2="537" y2="339" style="stroke:blue; stroke-width:1"/>
<line x1="433" y1="313" x2="433" y2="350" style="stroke:blue; stroke-width:1"/>
<line x1="433" y1="350" x2="485" y2="350" style="stroke:blue; stroke-width:1"/>
<line x1="381" y1="353" x2="381" y2="313" style="stroke:blue; stroke-width:1"/>
<line x1="381" y1="313" x2="433" y2="313" style="stroke:blue; stroke-width:1"/>
<line x1="590" y1="224" x2="590" y2="239" style="stroke:blue; stroke-width:1"/>
<line x1="590" y1="239" x2="642" y2="239" style="stroke:blue; stroke-width:1"/>
<line x1="537" y1="246" x2="537" y2="224" style="stroke:blue; stroke-width:1"/>
<line x1="537" y1="224" x2="590" y2="224" style="stroke:blue; stroke-width:1"/>
<line x1="590" y1="224" x2="590" y2="210" style="stroke:blue; stroke-width:1"/>
<line x1="590" y1="210" x2="642" y2="210" style="stroke:blue; stroke-width:1"/>
<line x1="485" y1="276" x2="485" y2="246" style="stroke:blue; stroke-width:1"/>
<line x1="485" y1="246" x2="537" y2="246" style="stroke:blue; stroke-width:1"/>
<line x1="537" y1="246" x2="537" y2="267" style="stroke:blue; stroke-width:1"/>
<line x1="537" y1="267" x2="590" y2="267" style="stroke:blue; stroke-width:1"/>
<line x1="433" y1="313" x2="433" y2="276" style="stroke:blue; stroke-width:1"/>
<line x1="433" y1="276" x2="485" y2="276" style="stroke:blue; stroke-width:1"/>
<line x1="485" y1="276" x2="485" y2="307" style="stroke:blue; stroke-width:1"/>
<line x1="485" y1="307" x2="537" y2="307" style="stroke:blue; stroke-width:1"/>
<line x1="537" y1="307" x2="537" y2="296" style="stroke:blue; stroke-width:1"/>
<line x1="537" y1="296" x2="590" y2="296" style="stroke:blue; stroke-width:1"/>
<line x1="120" y1="429" x2="120" y2="306" style="stroke:blue; stroke-width:1"/>
<line x1="120" y1="306" x2="172" y2="306" style="stroke:blue; stroke-width:1"/>
<line x1="225" y1="161" x2="225" y2="140" style="stroke:blue; stroke-width:1"/>
<line x1="225" y1="140" x2="277" y2="140" style="stroke:blue; stroke-width:1"/>
<line x1="329" y1="120" x2="329" y2="138" style="stroke:blue; stroke-width:1"/>
<line x1="329" y1="138" x2="381" y2="138" style="stroke:blue; stroke-width:1"/>
<line x1="277" y1="140" x2="277" y2="120" style="stroke:blue; stroke-width:1"/>
<line x1="277" y1="120" x2="329" y2="120" style="stroke:blue; stroke-width:1"/>
<line x1="329" y1="120" x2="329" y2="102" style="stroke:blue; stroke-width:1"/>
<line x1="329" y1="102" x2="381" y2="102" style="stroke:blue; stroke-width:1"/>
<line x1="381" y1="102" x2="381" y2="88" style="stroke:blue; stroke-width:1"/>
<line x1="381" y1="88" x2="433" y2="88" style="stroke:blue; stroke-width:1"/>
<line x1="433" y1="88" x2="433" y2="74" style="stroke:blue; stroke-width:1"/>
<line x1="433" y1="74" x2="485" y2="74" style="stroke:blue; stroke-width:1"/>
<line x1="485" y1="74" x2="485" y2="60" style="stroke:blue; stroke-width:1"/>
<line x1="485" y1="60" x2="537" y2="60" style="stroke:blue; stroke-width:1"/>
<line x1="590" y1="47" x2="590" y2="34" style="stroke:blue; stroke-width:1"/>
<line x1="590" y1="34" x2="642" y2="34" style="stroke:blue; stroke-width:1"/>
<line x1="642" y1="34" x2="642" y2="23" style="stroke:blue; stroke-width:1"/>
<line x1="642" y1="23" x2="694" y2="23" style="stroke:blue; stroke-width:1"/>
<line x1="537" y1="60" x2="537" y2="47" style="stroke:blue; stroke-width:1"/>
<line x1="537" y1="47" x2="590" y2="47" style="stroke:blue; stroke-width:1"/>
<line x1="172" y1="306" x2="172" y2="161" style="stroke:blue; stroke-width:1"/>
<line x1="172" y1="161" x2="225" y2="161" style="stroke:blue; stroke-width:1"/>
<line x1="225" y1="161" x2="225" y2="181" style="stroke:blue; stroke-width:1"/>
<line x1="225" y1="181" x2="277" y2="181" style="stroke:blue; stroke-width:1"/>
<line x1="68" y1="537" x2="68" y2="429" style="stroke:blue; stroke-width:1"/>
<line x1="68" y1="429" x2="120" y2="429" style="stroke:blue; stroke-width:1"/>
<line x1="120" y1="644" x2="120" y2="666" style="stroke:blue; stroke-width:1"/>
<line x1="120" y1="666" x2="172" y2="666" style="stroke:blue; stroke-width:1"/>
<line x1="172" y1="666" x2="172" y2="655" style="stroke:blue; stroke-width:1"/>
<line x1="172" y1="655" x2="225" y2="655" style="stroke:blue; stroke-width:1"/>
<line x1="68" y1="537" x2="68" y2="644" style="stroke:blue; stroke-width:1"/>
<line x1="68" y1="644" x2="120" y2="644" style="stroke:blue; stroke-width:1"/>
<line x1="225" y1="609" x2="225" y2="598" style="stroke:blue; stroke-width:1"/>
<line x1="225" y1="598" x2="277" y2="598" style="stroke:blue; stroke-width:1"/>
<line x1="172" y1="621" x2="172" y2="609" style="stroke:blue; stroke-width:1"/>
<line x1="172" y1="609" x2="225" y2="609" style="stroke:blue; stroke-width:1"/>
<line x1="120" y1="644" x2="120" y2="621" style="stroke:blue; stroke-width:1"/>
<line x1="120" y1="621" x2="172" y2="621" style="stroke:blue; stroke-width:1"/>
<line x1="120" y1="429" x2="120" y2="553" style="stroke:blue; stroke-width:1"/>
<line x1="120" y1="553" x2="172" y2="553" style="stroke:blue; stroke-width:1"/>
<line x1="172" y1="553" x2="172" y2="569" style="stroke:blue; stroke-width:1"/>
<line x1="172" y1="569" x2="225" y2="569" style="stroke:blue; stroke-width:1"/>
<line x1="16" y1="537" x2="16" y2="537" style="stroke:blue; stroke-width:1"/>
<line x1="16" y1="537" x2="68" y2="537" style="stroke:blue; stroke-width:1"/>
<text x="20" y="531" font-weight = "10" font-family="verdana" fill="black" font-size="15">Root</text>
<text x="229" y="681" font-weight = "10" font-family="verdana" fill="black" font-size="15">KJ473795-AB085735</text>
<text x="281" y="667" font-weight = "10" font-family="verdana" fill="black" font-size="15">KJ473796-AB085735</text>
<text x="281" y="652" font-weight = "10" font-family="verdana" fill="black" font-size="15">EU420138-ON640726</text>
<text x="229" y="638" font-weight = "10" font-family="verdana" fill="black" font-size="15">KJ473797-AB085735</text>
<text x="281" y="624" font-weight = "10" font-family="verdana" fill="black" font-size="15">KJ473800-AB085735</text>
<text x="333" y="609" font-weight = "10" font-family="verdana" fill="black" font-size="15">KJ473798-AB085735</text>
<text x="333" y="595" font-weight = "10" font-family="verdana" fill="black" font-size="15">KJ473799-AB085735</text>
<text x="281" y="580" font-weight = "10" font-family="verdana" fill="black" font-size="15">NC_014470-MZ936290</text>
<text x="281" y="566" font-weight = "10" font-family="verdana" fill="black" font-size="15">GU190215-MZ936290</text>
<text x="281" y="552" font-weight = "10" font-family="verdana" fill="black" font-size="15">MN996532-KP972690</text>
<text x="333" y="537" font-weight = "10" font-family="verdana" fill="black" font-size="15">MG772934-HM134917</text>
<text x="333" y="523" font-weight = "10" font-family="verdana" fill="black" font-size="15">MG772933-HM134917</text>
<text x="385" y="509" font-weight = "10" font-family="verdana" fill="black" font-size="15">DQ412043-KX261916</text>
<text x="385" y="494" font-weight = "10" font-family="verdana" fill="black" font-size="15">DQ648857-KX261916</text>
<text x="385" y="480" font-weight = "10" font-family="verdana" fill="black" font-size="15">KJ473814-HM134917</text>
<text x="385" y="465" font-weight = "10" font-family="verdana" fill="black" font-size="15">JX993987-ON012504</text>
<text x="333" y="451" font-weight = "10" font-family="verdana" fill="black" font-size="15">KJ473815-HM134917</text>
<text x="437" y="437" font-weight = "10" font-family="verdana" fill="black" font-size="15">KY417147-HM134917</text>
<text x="437" y="422" font-weight = "10" font-family="verdana" fill="black" font-size="15">KY417148-HM134917</text>
<text x="489" y="408" font-weight = "10" font-family="verdana" fill="black" font-size="15">FJ588686-HM134917</text>
<text x="541" y="394" font-weight = "10" font-family="verdana" fill="black" font-size="15">KY417143-HM134917</text>
<text x="541" y="379" font-weight = "10" font-family="verdana" fill="black" font-size="15">KY417149-HM134917</text>
<text x="541" y="365" font-weight = "10" font-family="verdana" fill="black" font-size="15">KJ473816-HM134917</text>
<text x="594" y="350" font-weight = "10" font-family="verdana" fill="black" font-size="15">KY770859-HM134917</text>
<text x="594" y="336" font-weight = "10" font-family="verdana" fill="black" font-size="15">KY770858-HM134917</text>
<text x="594" y="322" font-weight = "10" font-family="verdana" fill="black" font-size="15">KY417146-HM134917</text>
<text x="646" y="307" font-weight = "10" font-family="verdana" fill="black" font-size="15">KT444582-HM134917</text>
<text x="646" y="293" font-weight = "10" font-family="verdana" fill="black" font-size="15">KY417150-HM134917</text>
<text x="646" y="279" font-weight = "10" font-family="verdana" fill="black" font-size="15">KY417152-HM134917</text>
<text x="646" y="264" font-weight = "10" font-family="verdana" fill="black" font-size="15">KY417151-HM134917</text>
<text x="698" y="250" font-weight = "10" font-family="verdana" fill="black" font-size="15">KF367457-HM134917</text>
<text x="698" y="236" font-weight = "10" font-family="verdana" fill="black" font-size="15">KC881006-HM134917</text>
<text x="698" y="221" font-weight = "10" font-family="verdana" fill="black" font-size="15">KC881005-HM134917</text>
<text x="698" y="207" font-weight = "10" font-family="verdana" fill="black" font-size="15">KY417144-HM134917</text>
<text x="333" y="192" font-weight = "10" font-family="verdana" fill="black" font-size="15">GQ153543-HM134917</text>
<text x="333" y="178" font-weight = "10" font-family="verdana" fill="black" font-size="15">GQ153542-HM134917</text>
<text x="333" y="164" font-weight = "10" font-family="verdana" fill="black" font-size="15">GQ153547-HM134917</text>
<text x="437" y="149" font-weight = "10" font-family="verdana" fill="black" font-size="15">DQ084200-HM134917</text>
<text x="437" y="135" font-weight = "10" font-family="verdana" fill="black" font-size="15">DQ022305-HM134917</text>
<text x="437" y="121" font-weight = "10" font-family="verdana" fill="black" font-size="15">DQ084199-HM134917</text>
<text x="489" y="106" font-weight = "10" font-family="verdana" fill="black" font-size="15">GQ153541-HM134917</text>
<text x="541" y="92" font-weight = "10" font-family="verdana" fill="black" font-size="15">GQ153539-HM134917</text>
<text x="594" y="77" font-weight = "10" font-family="verdana" fill="black" font-size="15">GQ153540-HM134917</text>
<text x="646" y="63" font-weight = "10" font-family="verdana" fill="black" font-size="15">GQ153548-HM134917</text>
<text x="698" y="49" font-weight = "10" font-family="verdana" fill="black" font-size="15">GQ153546-HM134917</text>
<text x="750" y="34" font-weight = "10" font-family="verdana" fill="black" font-size="15">GQ153545-HM134917</text>
<text x="750" y="20" font-weight = "10" font-family="verdana" fill="black" font-size="15">GQ153544-HM134917</text>
<line x1="407.07142857143" y1="418.34782608696" x2="611.52544007311" y2="277.48887563754" style="stroke:red; stroke-width:1;stroke-dasharray: 5, 5"/>
<line x1="614.36214179761" y1="281.60629270729" x2="608.68873834861" y2="273.37145856779" style="stroke:red; stroke-width:1"/>
<line x1="614.36214179761" y1="281.60629270729" x2="615.64285714286" y2="274.65217391304" style="stroke:red; stroke-width:1"/>
<line x1="615.64285714286" y1="274.65217391304" x2="608.68873834861" y2="273.37145856779" style="stroke:red; stroke-width:1"/>
<text x="511.35714285714" y="346.5" font-weight = "10" font-family="verdana" fill="red" font-size="15">2(100%)</text>
<line x1="563.5" y1="332.13043478261" x2="463.33170278403" y2="401.14155914507" style="stroke:red; stroke-width:1;stroke-dasharray: 5, 5"/>
<line x1="460.49500105954" y1="397.02414207532" x2="466.16840450853" y2="405.25897621482" style="stroke:red; stroke-width:1"/>
<line x1="460.49500105954" y1="397.02414207532" x2="459.21428571429" y2="403.97826086957" style="stroke:red; stroke-width:1"/>
<line x1="459.21428571429" y1="403.97826086957" x2="466.16840450853" y2="405.25897621482" style="stroke:red; stroke-width:1"/>
<text x="511.35714285714" y="368.05434782609" font-weight = "10" font-family="verdana" fill="red" font-size="15">3(100%)</text>
<line x1="302.78571428571" y1="605.15217391304" x2="255.46316775438" y2="618.1933545444" style="stroke:red; stroke-width:1;stroke-dasharray: 5, 5"/>
<line x1="254.13478316835" y1="613.37304393287" x2="256.79155234042" y2="623.01366515593" style="stroke:red; stroke-width:1"/>
<line x1="254.13478316835" y1="613.37304393287" x2="250.64285714286" y2="619.52173913043" style="stroke:red; stroke-width:1"/>
<line x1="250.64285714286" y1="619.52173913043" x2="256.79155234042" y2="623.01366515593" style="stroke:red; stroke-width:1"/>
<text x="276.71428571429" y="612.33695652174" font-weight = "10" font-family="verdana" fill="red" font-size="15">4(100%)</text>
<line x1="146.35714285714" y1="666.22282608696" x2="194.25059422404" y2="636.52617636582" style="stroke:red; stroke-width:1;stroke-dasharray: 5, 5"/>
<line x1="196.88546624203" y1="640.77558214178" x2="191.61572220604" y2="632.27677058986" style="stroke:red; stroke-width:1"/>
<line x1="196.88546624203" y1="640.77558214178" x2="198.5" y2="633.89130434783" style="stroke:red; stroke-width:1"/>
<line x1="198.5" y1="633.89130434783" x2="191.61572220604" y2="632.27677058986" style="stroke:red; stroke-width:1"/>
<text x="172.42857142857" y="650.05706521739" font-weight = "10" font-family="verdana" fill="red" font-size="15">5(100%)</text>
<line x1="302.78571428571" y1="159.69565217391" x2="506.62976578095" y2="89.476293458276" style="stroke:red; stroke-width:1;stroke-dasharray: 5, 5"/>
<line x1="508.25823315227" y1="94.203670534472" x2="505.00129840963" y2="84.748916382079" style="stroke:red; stroke-width:1"/>
<line x1="508.25823315227" y1="94.203670534472" x2="511.35714285714" y2="87.847826086957" style="stroke:red; stroke-width:1"/>
<line x1="511.35714285714" y1="87.847826086957" x2="505.00129840963" y2="84.748916382079" style="stroke:red; stroke-width:1"/>
<text x="407.07142857143" y="123.77173913043" font-weight = "10" font-family="verdana" fill="red" font-size="15">6(100%)</text>
<line x1="511.35714285714" y1="360.86956521739" x2="664.10349596223" y2="220.55640742163" style="stroke:red; stroke-width:1;stroke-dasharray: 5, 5"/>
<line x1="667.48599034038" y1="224.23862574511" x2="660.72100158408" y2="216.87418909815" style="stroke:red; stroke-width:1"/>
<line x1="667.48599034038" y1="224.23862574511" x2="667.78571428571" y2="217.17391304348" style="stroke:red; stroke-width:1"/>
<line x1="667.78571428571" y1="217.17391304348" x2="660.72100158408" y2="216.87418909815" style="stroke:red; stroke-width:1"/>
<text x="589.57142857143" y="289.02173913043" font-weight = "10" font-family="verdana" fill="red" font-size="15">7(100%)</text>
<line x1="563.5" y1="296.20652173913" x2="663.53630850975" y2="234.17835027886" style="stroke:red; stroke-width:1;stroke-dasharray: 5, 5"/>
<line x1="666.17118052774" y1="238.42775605483" x2="660.90143649176" y2="229.9289445029" style="stroke:red; stroke-width:1"/>
<line x1="666.17118052774" y1="238.42775605483" x2="667.78571428571" y2="231.54347826087" style="stroke:red; stroke-width:1"/>
<line x1="667.78571428571" y1="231.54347826087" x2="660.90143649176" y2="229.9289445029" style="stroke:red; stroke-width:1"/>
<text x="615.64285714286" y="263.875" font-weight = "10" font-family="verdana" fill="red" font-size="15">8(100%)</text>
<line x1="302.78571428571" y1="159.69565217391" x2="610.88282840668" y2="60.639096394046" style="stroke:red; stroke-width:1;stroke-dasharray: 5, 5"/>
<line x1="612.41322914855" y1="65.399125130228" x2="609.3524276648" y2="55.879067657864" style="stroke:red; stroke-width:1"/>
<line x1="612.41322914855" y1="65.399125130228" x2="615.64285714286" y2="59.108695652174" style="stroke:red; stroke-width:1"/>
<line x1="615.64285714286" y1="59.108695652174" x2="609.3524276648" y2="55.879067657864" style="stroke:red; stroke-width:1"/>
<text x="459.21428571429" y="109.40217391304" font-weight = "10" font-family="verdana" fill="red" font-size="15">9(100%)</text>
<line x1="302.78571428571" y1="159.69565217391" x2="402.2511179599" y2="132.28490632517" style="stroke:red; stroke-width:1;stroke-dasharray: 5, 5"/>
<line x1="403.57950254594" y1="137.10521693669" x2="400.92273337387" y2="127.46459571364" style="stroke:red; stroke-width:1"/>
<line x1="403.57950254594" y1="137.10521693669" x2="407.07142857143" y2="130.95652173913" style="stroke:red; stroke-width:1"/>
<line x1="407.07142857143" y1="130.95652173913" x2="400.92273337387" y2="127.46459571364" style="stroke:red; stroke-width:1"/>
<text x="354.92857142857" y="145.32608695652" font-weight = "10" font-family="verdana" fill="red" font-size="15">10(100%)</text>
<line x1="302.78571428571" y1="159.69565217391" x2="558.75284213421" y2="75.04813099071" style="stroke:red; stroke-width:1;stroke-dasharray: 5, 5"/>
<line x1="560.32271225535" y1="79.7952888565" x2="557.18297201306" y2="70.300973124919" style="stroke:red; stroke-width:1"/>
<line x1="560.32271225535" y1="79.7952888565" x2="563.5" y2="73.478260869565" style="stroke:red; stroke-width:1"/>
<line x1="563.5" y1="73.478260869565" x2="557.18297201306" y2="70.300973124919" style="stroke:red; stroke-width:1"/>
<text x="433.14285714286" y="116.58695652174" font-weight = "10" font-family="verdana" fill="red" font-size="15">11(100%)</text>
<line x1="459.21428571429" y1="102.21739130435" x2="307.47892027922" y2="157.97117616582" style="stroke:red; stroke-width:1;stroke-dasharray: 5, 5"/>
<line x1="305.75444427113" y1="153.27797017231" x2="309.20339628732" y2="162.66438215932" style="stroke:red; stroke-width:1"/>
<line x1="305.75444427113" y1="153.27797017231" x2="302.78571428571" y2="159.69565217391" style="stroke:red; stroke-width:1"/>
<line x1="302.78571428571" y1="159.69565217391" x2="309.20339628732" y2="162.66438215932" style="stroke:red; stroke-width:1"/>
<text x="381" y="130.95652173913" font-weight = "10" font-family="verdana" fill="red" font-size="15">12(100%)</text>
<line x1="719.92857142857" y1="16" x2="463.96144358008" y2="100.6475211832" style="stroke:red; stroke-width:1;stroke-dasharray: 5, 5"/>
<line x1="462.39157345893" y1="95.900363317413" x2="465.53131370122" y2="105.39467904899" style="stroke:red; stroke-width:1"/>
<line x1="462.39157345893" y1="95.900363317413" x2="459.21428571429" y2="102.21739130435" style="stroke:red; stroke-width:1"/>
<line x1="459.21428571429" y1="102.21739130435" x2="465.53131370122" y2="105.39467904899" style="stroke:red; stroke-width:1"/>
<text x="589.57142857143" y="59.108695652174" font-weight = "10" font-family="verdana" fill="red" font-size="15">13(100%)</text>
<line x1="511.35714285714" y1="389.60869565217" x2="612.50426844451" y2="264.17481385245" style="stroke:red; stroke-width:1;stroke-dasharray: 5, 5"/>
<line x1="616.39647360131" y1="267.3134025508" x2="608.61206328771" y2="261.0362251541" style="stroke:red; stroke-width:1"/>
<line x1="616.39647360131" y1="267.3134025508" x2="615.64285714286" y2="260.28260869565" style="stroke:red; stroke-width:1"/>
<line x1="615.64285714286" y1="260.28260869565" x2="608.61206328771" y2="261.0362251541" style="stroke:red; stroke-width:1"/>
<text x="563.5" y="324.94565217391" font-weight = "10" font-family="verdana" fill="red" font-size="15">14(100%)</text>
<line x1="459.21428571429" y1="350.09239130435" x2="507.50357403383" y2="310.16960326602" style="stroke:red; stroke-width:1;stroke-dasharray: 5, 5"/>
<line x1="510.68948164767" y1="314.02317208934" x2="504.31766641998" y2="306.3160344427" style="stroke:red; stroke-width:1"/>
<line x1="510.68948164767" y1="314.02317208934" x2="511.35714285714" y2="306.98369565217" style="stroke:red; stroke-width:1"/>
<line x1="511.35714285714" y1="306.98369565217" x2="504.31766641998" y2="306.3160344427" style="stroke:red; stroke-width:1"/>
<text x="485.28571428571" y="328.53804347826" font-weight = "10" font-family="verdana" fill="red" font-size="15">15(100%)</text>
<line x1="459.21428571429" y1="350.09239130435" x2="663.31266624388" y2="248.14728635124" style="stroke:red; stroke-width:1;stroke-dasharray: 5, 5"/>
<line x1="665.54690911686" y1="252.62033439307" x2="661.0784233709" y2="243.67423830941" style="stroke:red; stroke-width:1"/>
<line x1="665.54690911686" y1="252.62033439307" x2="667.78571428571" y2="245.91304347826" style="stroke:red; stroke-width:1"/>
<line x1="667.78571428571" y1="245.91304347826" x2="661.0784233709" y2="243.67423830941" style="stroke:red; stroke-width:1"/>
<text x="563.5" y="298.0027173913" font-weight = "10" font-family="verdana" fill="red" font-size="15">16(100%)</text>
<line x1="459.21428571429" y1="350.09239130435" x2="507.37220230901" y2="386.58872068078" style="stroke:red; stroke-width:1;stroke-dasharray: 5, 5"/>
<line x1="504.35222733762" y1="390.57366122892" x2="510.3921772804" y2="382.60378013265" style="stroke:red; stroke-width:1"/>
<line x1="504.35222733762" y1="390.57366122892" x2="511.35714285714" y2="389.60869565217" style="stroke:red; stroke-width:1"/>
<line x1="511.35714285714" y1="389.60869565217" x2="510.3921772804" y2="382.60378013265" style="stroke:red; stroke-width:1"/>
<text x="485.28571428571" y="369.85054347826" font-weight = "10" font-family="verdana" fill="red" font-size="15">17(100%)</text>
<line x1="354.92857142857" y1="425.53260869565" x2="455.16315421342" y2="353.02297717797" style="stroke:red; stroke-width:1;stroke-dasharray: 5, 5"/>
<line x1="458.09374008704" y1="357.07410867884" x2="452.2325683398" y2="348.9718456771" style="stroke:red; stroke-width:1"/>
<line x1="458.09374008704" y1="357.07410867884" x2="459.21428571429" y2="350.09239130435" style="stroke:red; stroke-width:1"/>
<line x1="459.21428571429" y1="350.09239130435" x2="452.2325683398" y2="348.9718456771" style="stroke:red; stroke-width:1"/>
<text x="407.07142857143" y="387.8125" font-weight = "10" font-family="verdana" fill="red" font-size="15">18(100%)</text>
<line x1="354.92857142857" y1="425.53260869565" x2="506.59711412096" y2="376.76953117665" style="stroke:red; stroke-width:1;stroke-dasharray: 5, 5"/>
<line x1="508.12751486283" y1="381.52955991284" x2="505.06671337909" y2="372.00950244047" style="stroke:red; stroke-width:1"/>
<line x1="508.12751486283" y1="381.52955991284" x2="511.35714285714" y2="375.23913043478" style="stroke:red; stroke-width:1"/>
<line x1="511.35714285714" y1="375.23913043478" x2="505.06671337909" y2="372.00950244047" style="stroke:red; stroke-width:1"/>
<text x="433.14285714286" y="400.38586956522" font-weight = "10" font-family="verdana" fill="red" font-size="15">19(100%)</text>
<line x1="146.35714285714" y1="305.61549974524" x2="197.52979288297" y2="564.32329418771" style="stroke:red; stroke-width:1;stroke-dasharray: 5, 5"/>
<line x1="192.62482620112" y1="565.29350130474" x2="202.43475956482" y2="563.35308707069" style="stroke:red; stroke-width:1"/>
<line x1="192.62482620112" y1="565.29350130474" x2="198.5" y2="569.22826086957" style="stroke:red; stroke-width:1"/>
<line x1="198.5" y1="569.22826086957" x2="202.43475956482" y2="563.35308707069" style="stroke:red; stroke-width:1"/>
<text x="172.42857142857" y="437.4218803074" font-weight = "10" font-family="verdana" fill="red" font-size="15">20(100%)</text>
<line x1="615.64285714286" y1="303.39130434783" x2="307.32937131424" y2="445.00004952641" style="stroke:red; stroke-width:1;stroke-dasharray: 5, 5"/>
<line x1="305.2424643189" y1="440.45639249789" x2="309.41627830957" y2="449.54370655493" style="stroke:red; stroke-width:1"/>
<line x1="305.2424643189" y1="440.45639249789" x2="302.78571428571" y2="447.08695652174" style="stroke:red; stroke-width:1"/>
<line x1="302.78571428571" y1="447.08695652174" x2="309.41627830957" y2="449.54370655493" style="stroke:red; stroke-width:1"/>
<text x="459.21428571429" y="375.23913043478" font-weight = "10" font-family="verdana" fill="red" font-size="15">1(100%)</text>
</g></svg>