<?xml version="1.0" encoding="iso-8859-1"?>
<!DOCTYPE svg PUBLIC "-//W3C//DTD SVG 1.0//EN" "http://www.w3.org/TR/2001/REC-SVG-20010904/DTD/svg10.dtd">
<svg width="912" height="723" xmlns="http://www.w3.org/2000/svg" xmlns:xlink="http://www.w3.org/1999/xlink">
<g style="stroke:black;fill:lightgreen" transform="translate(30,30)">
<line x1="277" y1="526" x2="277" y2="519" style="stroke:blue; stroke-width:1"/>
<line x1="277" y1="519" x2="329" y2="519" style="stroke:blue; stroke-width:1"/>
<line x1="277" y1="526" x2="277" y2="533" style="stroke:blue; stroke-width:1"/>
<line x1="277" y1="533" x2="329" y2="533" style="stroke:blue; stroke-width:1"/>
<line x1="225" y1="537" x2="225" y2="548" style="stroke:blue; stroke-width:1"/>
<line x1="225" y1="548" x2="277" y2="548" style="stroke:blue; stroke-width:1"/>
<line x1="225" y1="655" x2="225" y2="663" style="stroke:blue; stroke-width:1"/>
<line x1="225" y1="663" x2="277" y2="663" style="stroke:blue; stroke-width:1"/>
<line x1="225" y1="655" x2="225" y2="648" style="stroke:blue; stroke-width:1"/>
<line x1="225" y1="648" x2="277" y2="648" style="stroke:blue; stroke-width:1"/>
<line x1="172" y1="666" x2="172" y2="677" style="stroke:blue; stroke-width:1"/>
<line x1="172" y1="677" x2="225" y2="677" style="stroke:blue; stroke-width:1"/>
<line x1="277" y1="598" x2="277" y2="605" style="stroke:blue; stroke-width:1"/>
<line x1="277" y1="605" x2="329" y2="605" style="stroke:blue; stroke-width:1"/>
<line x1="277" y1="598" x2="277" y2="591" style="stroke:blue; stroke-width:1"/>
<line x1="277" y1="591" x2="329" y2="591" style="stroke:blue; stroke-width:1"/>
<line x1="225" y1="609" x2="225" y2="620" style="stroke:blue; stroke-width:1"/>
<line x1="225" y1="620" x2="277" y2="620" style="stroke:blue; stroke-width:1"/>
<line x1="172" y1="621" x2="172" y2="634" style="stroke:blue; stroke-width:1"/>
<line x1="172" y1="634" x2="225" y2="634" style="stroke:blue; stroke-width:1"/>
<line x1="329" y1="497" x2="329" y2="505" style="stroke:blue; stroke-width:1"/>
<line x1="329" y1="505" x2="381" y2="505" style="stroke:blue; stroke-width:1"/>
<line x1="329" y1="497" x2="329" y2="490" style="stroke:blue; stroke-width:1"/>
<line x1="329" y1="490" x2="381" y2="490" style="stroke:blue; stroke-width:1"/>
<line x1="329" y1="469" x2="329" y2="461" style="stroke:blue; stroke-width:1"/>
<line x1="329" y1="461" x2="381" y2="461" style="stroke:blue; stroke-width:1"/>
<line x1="329" y1="469" x2="329" y2="476" style="stroke:blue; stroke-width:1"/>
<line x1="329" y1="476" x2="381" y2="476" style="stroke:blue; stroke-width:1"/>
<line x1="381" y1="426" x2="381" y2="433" style="stroke:blue; stroke-width:1"/>
<line x1="381" y1="433" x2="433" y2="433" style="stroke:blue; stroke-width:1"/>
<line x1="381" y1="426" x2="381" y2="418" style="stroke:blue; stroke-width:1"/>
<line x1="381" y1="418" x2="433" y2="418" style="stroke:blue; stroke-width:1"/>
<line x1="642" y1="210" x2="642" y2="203" style="stroke:blue; stroke-width:1"/>
<line x1="642" y1="203" x2="694" y2="203" style="stroke:blue; stroke-width:1"/>
<line x1="642" y1="210" x2="642" y2="217" style="stroke:blue; stroke-width:1"/>
<line x1="642" y1="217" x2="694" y2="217" style="stroke:blue; stroke-width:1"/>
<line x1="642" y1="239" x2="642" y2="246" style="stroke:blue; stroke-width:1"/>
<line x1="642" y1="246" x2="694" y2="246" style="stroke:blue; stroke-width:1"/>
<line x1="642" y1="239" x2="642" y2="232" style="stroke:blue; stroke-width:1"/>
<line x1="642" y1="232" x2="694" y2="232" style="stroke:blue; stroke-width:1"/>
<line x1="590" y1="267" x2="590" y2="260" style="stroke:blue; stroke-width:1"/>
<line x1="590" y1="260" x2="642" y2="260" style="stroke:blue; stroke-width:1"/>
<line x1="590" y1="267" x2="590" y2="275" style="stroke:blue; stroke-width:1"/>
<line x1="590" y1="275" x2="642" y2="275" style="stroke:blue; stroke-width:1"/>
<line x1="590" y1="296" x2="590" y2="303" style="stroke:blue; stroke-width:1"/>
<line x1="590" y1="303" x2="642" y2="303" style="stroke:blue; stroke-width:1"/>
<line x1="590" y1="296" x2="590" y2="289" style="stroke:blue; stroke-width:1"/>
<line x1="590" y1="289" x2="642" y2="289" style="stroke:blue; stroke-width:1"/>
<line x1="537" y1="307" x2="537" y2="318" style="stroke:blue; stroke-width:1"/>
<line x1="537" y1="318" x2="590" y2="318" style="stroke:blue; stroke-width:1"/>
<line x1="537" y1="339" x2="537" y2="332" style="stroke:blue; stroke-width:1"/>
<line x1="537" y1="332" x2="590" y2="332" style="stroke:blue; stroke-width:1"/>
<line x1="537" y1="339" x2="537" y2="346" style="stroke:blue; stroke-width:1"/>
<line x1="537" y1="346" x2="590" y2="346" style="stroke:blue; stroke-width:1"/>
<line x1="485" y1="350" x2="485" y2="361" style="stroke:blue; stroke-width:1"/>
<line x1="485" y1="361" x2="537" y2="361" style="stroke:blue; stroke-width:1"/>
<line x1="485" y1="382" x2="485" y2="375" style="stroke:blue; stroke-width:1"/>
<line x1="485" y1="375" x2="537" y2="375" style="stroke:blue; stroke-width:1"/>
<line x1="485" y1="382" x2="485" y2="390" style="stroke:blue; stroke-width:1"/>
<line x1="485" y1="390" x2="537" y2="390" style="stroke:blue; stroke-width:1"/>
<line x1="433" y1="393" x2="433" y2="404" style="stroke:blue; stroke-width:1"/>
<line x1="433" y1="404" x2="485" y2="404" style="stroke:blue; stroke-width:1"/>
<line x1="277" y1="418" x2="277" y2="447" style="stroke:blue; stroke-width:1"/>
<line x1="277" y1="447" x2="329" y2="447" style="stroke:blue; stroke-width:1"/>
<line x1="381" y1="138" x2="381" y2="145" style="stroke:blue; stroke-width:1"/>
<line x1="381" y1="145" x2="433" y2="145" style="stroke:blue; stroke-width:1"/>
<line x1="381" y1="138" x2="381" y2="131" style="stroke:blue; stroke-width:1"/>
<line x1="381" y1="131" x2="433" y2="131" style="stroke:blue; stroke-width:1"/>
<line x1="694" y1="23" x2="694" y2="30" style="stroke:blue; stroke-width:1"/>
<line x1="694" y1="30" x2="746" y2="30" style="stroke:blue; stroke-width:1"/>
<line x1="694" y1="23" x2="694" y2="16" style="stroke:blue; stroke-width:1"/>
<line x1="694" y1="16" x2="746" y2="16" style="stroke:blue; stroke-width:1"/>
<line x1="642" y1="34" x2="642" y2="45" style="stroke:blue; stroke-width:1"/>
<line x1="642" y1="45" x2="694" y2="45" style="stroke:blue; stroke-width:1"/>
<line x1="590" y1="47" x2="590" y2="59" style="stroke:blue; stroke-width:1"/>
<line x1="590" y1="59" x2="642" y2="59" style="stroke:blue; stroke-width:1"/>
<line x1="537" y1="60" x2="537" y2="73" style="stroke:blue; stroke-width:1"/>
<line x1="537" y1="73" x2="590" y2="73" style="stroke:blue; stroke-width:1"/>
<line x1="485" y1="74" x2="485" y2="88" style="stroke:blue; stroke-width:1"/>
<line x1="485" y1="88" x2="537" y2="88" style="stroke:blue; stroke-width:1"/>
<line x1="433" y1="88" x2="433" y2="102" style="stroke:blue; stroke-width:1"/>
<line x1="433" y1="102" x2="485" y2="102" style="stroke:blue; stroke-width:1"/>
<line x1="381" y1="102" x2="381" y2="117" style="stroke:blue; stroke-width:1"/>
<line x1="381" y1="117" x2="433" y2="117" style="stroke:blue; stroke-width:1"/>
<line x1="277" y1="140" x2="277" y2="160" style="stroke:blue; stroke-width:1"/>
<line x1="277" y1="160" x2="329" y2="160" style="stroke:blue; stroke-width:1"/>
<line x1="277" y1="181" x2="277" y2="188" style="stroke:blue; stroke-width:1"/>
<line x1="277" y1="188" x2="329" y2="188" style="stroke:blue; stroke-width:1"/>
<line x1="277" y1="181" x2="277" y2="174" style="stroke:blue; stroke-width:1"/>
<line x1="277" y1="174" x2="329" y2="174" style="stroke:blue; stroke-width:1"/>
<line x1="225" y1="569" x2="225" y2="576" style="stroke:blue; stroke-width:1"/>
<line x1="225" y1="576" x2="277" y2="576" style="stroke:blue; stroke-width:1"/>
<line x1="225" y1="569" x2="225" y2="562" style="stroke:blue; stroke-width:1"/>
<line x1="225" y1="562" x2="277" y2="562" style="stroke:blue; stroke-width:1"/>
<line x1="225" y1="537" x2="225" y2="526" style="stroke:blue; stroke-width:1"/>
<line x1="225" y1="526" x2="277" y2="526" style="stroke:blue; stroke-width:1"/>
<line x1="172" y1="553" x2="172" y2="537" style="stroke:blue; stroke-width:1"/>
<line x1="172" y1="537" x2="225" y2="537" style="stroke:blue; stroke-width:1"/>
<line x1="277" y1="483" x2="277" y2="497" style="stroke:blue; stroke-width:1"/>
<line x1="277" y1="497" x2="329" y2="497" style="stroke:blue; stroke-width:1"/>
<line x1="225" y1="451" x2="225" y2="483" style="stroke:blue; stroke-width:1"/>
<line x1="225" y1="483" x2="277" y2="483" style="stroke:blue; stroke-width:1"/>
<line x1="277" y1="483" x2="277" y2="469" style="stroke:blue; stroke-width:1"/>
<line x1="277" y1="469" x2="329" y2="469" style="stroke:blue; stroke-width:1"/>
<line x1="172" y1="306" x2="172" y2="451" style="stroke:blue; stroke-width:1"/>
<line x1="172" y1="451" x2="225" y2="451" style="stroke:blue; stroke-width:1"/>
<line x1="225" y1="451" x2="225" y2="418" style="stroke:blue; stroke-width:1"/>
<line x1="225" y1="418" x2="277" y2="418" style="stroke:blue; stroke-width:1"/>
<line x1="329" y1="389" x2="329" y2="426" style="stroke:blue; stroke-width:1"/>
<line x1="329" y1="426" x2="381" y2="426" style="stroke:blue; stroke-width:1"/>
<line x1="277" y1="418" x2="277" y2="389" style="stroke:blue; stroke-width:1"/>
<line x1="277" y1="389" x2="329" y2="389" style="stroke:blue; stroke-width:1"/>
<line x1="433" y1="393" x2="433" y2="382" style="stroke:blue; stroke-width:1"/>
<line x1="433" y1="382" x2="485" y2="382" style="stroke:blue; stroke-width:1"/>
<line x1="381" y1="353" x2="381" y2="393" style="stroke:blue; stroke-width:1"/>
<line x1="381" y1="393" x2="433" y2="393" style="stroke:blue; stroke-width:1"/>
<line x1="329" y1="389" x2="329" y2="353" style="stroke:blue; stroke-width:1"/>
<line x1="329" y1="353" x2="381" y2="353" style="stroke:blue; stroke-width:1"/>
<line x1="485" y1="350" x2="485" y2="339" style="stroke:blue; stroke-width:1"/>
<line x1="485" y1="339" x2="537" y2="339" style="stroke:blue; stroke-width:1"/>
<line x1="433" y1="313" x2="433" y2="350" style="stroke:blue; stroke-width:1"/>
<line x1="433" y1="350" x2="485" y2="350" style="stroke:blue; stroke-width:1"/>
<line x1="381" y1="353" x2="381" y2="313" style="stroke:blue; stroke-width:1"/>
<line x1="381" y1="313" x2="433" y2="313" style="stroke:blue; stroke-width:1"/>
<line x1="590" y1="224" x2="590" y2="239" style="stroke:blue; stroke-width:1"/>
<line x1="590" y1="239" x2="642" y2="239" style="stroke:blue; stroke-width:1"/>
<line x1="537" y1="246" x2="537" y2="224" style="stroke:blue; stroke-width:1"/>
<line x1="537" y1="224" x2="590" y2="224" style="stroke:blue; stroke-width:1"/>
<line x1="590" y1="224" x2="590" y2="210" style="stroke:blue; stroke-width:1"/>
<line x1="590" y1="210" x2="642" y2="210" style="stroke:blue; stroke-width:1"/>
<line x1="485" y1="276" x2="485" y2="246" style="stroke:blue; stroke-width:1"/>
<line x1="485" y1="246" x2="537" y2="246" style="stroke:blue; stroke-width:1"/>
<line x1="537" y1="246" x2="537" y2="267" style="stroke:blue; stroke-width:1"/>
<line x1="537" y1="267" x2="590" y2="267" style="stroke:blue; stroke-width:1"/>
<line x1="433" y1="313" x2="433" y2="276" style="stroke:blue; stroke-width:1"/>
<line x1="433" y1="276" x2="485" y2="276" style="stroke:blue; stroke-width:1"/>
<line x1="485" y1="276" x2="485" y2="307" style="stroke:blue; stroke-width:1"/>
<line x1="485" y1="307" x2="537" y2="307" style="stroke:blue; stroke-width:1"/>
<line x1="537" y1="307" x2="537" y2="296" style="stroke:blue; stroke-width:1"/>
<line x1="537" y1="296" x2="590" y2="296" style="stroke:blue; stroke-width:1"/>
<line x1="120" y1="429" x2="120" y2="306" style="stroke:blue; stroke-width:1"/>
<line x1="120" y1="306" x2="172" y2="306" style="stroke:blue; stroke-width:1"/>
<line x1="225" y1="161" x2="225" y2="140" style="stroke:blue; stroke-width:1"/>
<line x1="225" y1="140" x2="277" y2="140" style="stroke:blue; stroke-width:1"/>
<line x1="329" y1="120" x2="329" y2="138" style="stroke:blue; stroke-width:1"/>
<line x1="329" y1="138" x2="381" y2="138" style="stroke:blue; stroke-width:1"/>
<line x1="277" y1="140" x2="277" y2="120" style="stroke:blue; stroke-width:1"/>
<line x1="277" y1="120" x2="329" y2="120" style="stroke:blue; stroke-width:1"/>
<line x1="329" y1="120" x2="329" y2="102" style="stroke:blue; stroke-width:1"/>
<line x1="329" y1="102" x2="381" y2="102" style="stroke:blue; stroke-width:1"/>
<line x1="381" y1="102" x2="381" y2="88" style="stroke:blue; stroke-width:1"/>
<line x1="381" y1="88" x2="433" y2="88" style="stroke:blue; stroke-width:1"/>
<line x1="433" y1="88" x2="433" y2="74" style="stroke:blue; stroke-width:1"/>
<line x1="433" y1="74" x2="485" y2="74" style="stroke:blue; stroke-width:1"/>
<line x1="485" y1="74" x2="485" y2="60" style="stroke:blue; stroke-width:1"/>
<line x1="485" y1="60" x2="537" y2="60" style="stroke:blue; stroke-width:1"/>
<line x1="590" y1="47" x2="590" y2="34" style="stroke:blue; stroke-width:1"/>
<line x1="590" y1="34" x2="642" y2="34" style="stroke:blue; stroke-width:1"/>
<line x1="642" y1="34" x2="642" y2="23" style="stroke:blue; stroke-width:1"/>
<line x1="642" y1="23" x2="694" y2="23" style="stroke:blue; stroke-width:1"/>
<line x1="537" y1="60" x2="537" y2="47" style="stroke:blue; stroke-width:1"/>
<line x1="537" y1="47" x2="590" y2="47" style="stroke:blue; stroke-width:1"/>
<line x1="172" y1="306" x2="172" y2="161" style="stroke:blue; stroke-width:1"/>
<line x1="172" y1="161" x2="225" y2="161" style="stroke:blue; stroke-width:1"/>
<line x1="225" y1="161" x2="225" y2="181" style="stroke:blue; stroke-width:1"/>
<line x1="225" y1="181" x2="277" y2="181" style="stroke:blue; stroke-width:1"/>
<line x1="68" y1="537" x2="68" y2="429" style="stroke:blue; stroke-width:1"/>
<line x1="68" y1="429" x2="120" y2="429" style="stroke:blue; stroke-width:1"/>
<line x1="120" y1="644" x2="120" y2="666" style="stroke:blue; stroke-width:1"/>
<line x1="120" y1="666" x2="172" y2="666" style="stroke:blue; stroke-width:1"/>
<line x1="172" y1="666" x2="172" y2="655" style="stroke:blue; stroke-width:1"/>
<line x1="172" y1="655" x2="225" y2="655" style="stroke:blue; stroke-width:1"/>
<line x1="68" y1="537" x2="68" y2="644" style="stroke:blue; stroke-width:1"/>
<line x1="68" y1="644" x2="120" y2="644" style="stroke:blue; stroke-width:1"/>
<line x1="225" y1="609" x2="225" y2="598" style="stroke:blue; stroke-width:1"/>
<line x1="225" y1="598" x2="277" y2="598" style="stroke:blue; stroke-width:1"/>
<line x1="172" y1="621" x2="172" y2="609" style="stroke:blue; stroke-width:1"/>
<line x1="172" y1="609" x2="225" y2="609" style="stroke:blue; stroke-width:1"/>
<line x1="120" y1="644" x2="120" y2="621" style="stroke:blue; stroke-width:1"/>
<line x1="120" y1="621" x2="172" y2="621" style="stroke:blue; stroke-width:1"/>
<line x1="120" y1="429" x2="120" y2="553" style="stroke:blue; stroke-width:1"/>
<line x1="120" y1="553" x2="172" y2="553" style="stroke:blue; stroke-width:1"/>
<line x1="172" y1="553" x2="172" y2="569" style="stroke:blue; stroke-width:1"/>
<line x1="172" y1="569" x2="225" y2="569" style="stroke:blue; stroke-width:1"/>
<line x1="16" y1="537" x2="16" y2="537" style="stroke:blue; stroke-width:1"/>
<line x1="16" y1="537" x2="68" y2="537" style="stroke:blue; stroke-width:1"/>
<text x="20" y="531" font-weight = "10" font-family="verdana" fill="black" font-size="15">Root</text>
<text x="229" y="681" font-weight = "10" font-family="verdana" fill="black" font-size="15">KJ473795-AB085735</text>
<text x="281" y="667" font-weight = "10" font-family="verdana" fill="black" font-size="15">KJ473796-AB085735</text>
<text x="281" y="652" font-weight = "10" font-family="verdana" fill="black" font-size="15">EU420138-ON640726</text>
<text x="229" y="638" font-weight = "10" font-family="verdana" fill="black" font-size="15">KJ473797-AB085735</text>
<text x="281" y="624" font-weight = "10" font-family="verdana" fill="black" font-size="15">KJ473800-AB085735</text>
<text x="333" y="609" font-weight = "10" font-family="verdana" fill="black" font-size="15">KJ473798-AB085735</text>
<text x="333" y="595" font-weight = "10" font-family="verdana" fill="black" font-size="15">KJ473799-AB085735</text>
<text x="281" y="580" font-weight = "10" font-family="verdana" fill="black" font-size="15">NC_014470-MZ936290</text>
<text x="281" y="566" font-weight = "10" font-family="verdana" fill="black" font-size="15">GU190215-MZ936290</text>
<text x="281" y="552" font-weight = "10" font-family="verdana" fill="black" font-size="15">MN996532-KP972690</text>
<text x="333" y="537" font-weight = "10" font-family="verdana" fill="black" font-size="15">MG772934-HM134917</text>
<text x="333" y="523" font-weight = "10" font-family="verdana" fill="black" font-size="15">MG772933-HM134917</text>
<text x="385" y="509" font-weight = "10" font-family="verdana" fill="black" font-size="15">DQ412043-KX261916</text>
<text x="385" y="494" font-weight = "10" font-family="verdana" fill="black" font-size="15">DQ648857-KX261916</text>
<text x="385" y="480" font-weight = "10" font-family="verdana" fill="black" font-size="15">KJ473814-HM134917</text>
<text x="385" y="465" font-weight = "10" font-family="verdana" fill="black" font-size="15">JX993987-ON012504</text>
<text x="333" y="451" font-weight = "10" font-family="verdana" fill="black" font-size="15">KJ473815-HM134917</text>
<text x="437" y="437" font-weight = "10" font-family="verdana" fill="black" font-size="15">KY417147-HM134917</text>
<text x="437" y="422" font-weight = "10" font-family="verdana" fill="black" font-size="15">KY417148-HM134917</text>
<text x="489" y="408" font-weight = "10" font-family="verdana" fill="black" font-size="15">FJ588686-HM134917</text>
<text x="541" y="394" font-weight = "10" font-family="verdana" fill="black" font-size="15">KY417143-HM134917</text>
<text x="541" y="379" font-weight = "10" font-family="verdana" fill="black" font-size="15">KY417149-HM134917</text>
<text x="541" y="365" font-weight = "10" font-family="verdana" fill="black" font-size="15">KJ473816-HM134917</text>
<text x="594" y="350" font-weight = "10" font-family="verdana" fill="black" font-size="15">KY770859-HM134917</text>
<text x="594" y="336" font-weight = "10" font-family="verdana" fill="black" font-size="15">KY770858-HM134917</text>
<text x="594" y="322" font-weight = "10" font-family="verdana" fill="black" font-size="15">KY417146-HM134917</text>
<text x="646" y="307" font-weight = "10" font-family="verdana" fill="black" font-size="15">KT444582-HM134917</text>
<text x="646" y="293" font-weight = "10" font-family="verdana" fill="black" font-size="15">KY417150-HM134917</text>
<text x="646" y="279" font-weight = "10" font-family="verdana" fill="black" font-size="15">KY417152-HM134917</text>
<text x="646" y="264" font-weight = "10" font-family="verdana" fill="black" font-size="15">KY417151-HM134917</text>
<text x="698" y="250" font-weight = "10" font-family="verdana" fill="black" font-size="15">KF367457-HM134917</text>
<text x="698" y="236" font-weight = "10" font-family="verdana" fill="black" font-size="15">KC881006-HM134917</text>
<text x="698" y="221" font-weight = "10" font-family="verdana" fill="black" font-size="15">KC881005-HM134917</text>
<text x="698" y="207" font-weight = "10" font-family="verdana" fill="black" font-size="15">KY417144-HM134917</text>
<text x="333" y="192" font-weight = "10" font-family="verdana" fill="black" font-size="15">GQ153543-HM134917</text>
<text x="333" y="178" font-weight = "10" font-family="verdana" fill="black" font-size="15">GQ153542-HM134917</text>
<text x="333" y="164" font-weight = "10" font-family="verdana" fill="black" font-size="15">GQ153547-HM134917</text>
<text x="437" y="149" font-weight = "10" font-family="verdana" fill="black" font-size="15">DQ084200-HM134917</text>
<text x="437" y="135" font-weight = "10" font-family="verdana" fill="black" font-size="15">DQ022305-HM134917</text>
<text x="437" y="121" font-weight = "10" font-family="verdana" fill="black" font-size="15">DQ084199-HM134917</text>
<text x="489" y="106" font-weight = "10" font-family="verdana" fill="black" font-size="15">GQ153541-HM134917</text>
<text x="541" y="92" font-weight = "10" font-family="verdana" fill="black" font-size="15">GQ153539-HM134917</text>
<text x="594" y="77" font-weight = "10" font-family="verdana" fill="black" font-size="15">GQ153540-HM134917</text>
<text x="646" y="63" font-weight = "10" font-family="verdana" fill="black" font-size="15">GQ153548-HM134917</text>
<text x="698" y="49" font-weight = "10" font-family="verdana" fill="black" font-size="15">GQ153546-HM134917</text>
<text x="750" y="34" font-weight = "10" font-family="verdana" fill="black" font-size="15">GQ153545-HM134917</text>
<text x="750" y="20" font-weight = "10" font-family="verdana" fill="black" font-size="15">GQ153544-HM134917</text>
<line x1="250.64285714286" y1="662.63043478261" x2="203.32031061153" y2="675.67161541397" style="stroke:red; stroke-width:1;stroke-dasharray: 5, 5"/>
<line x1="201.99192602549" y1="670.85130480244" x2="204.64869519756" y2="680.49192602549" style="stroke:red; stroke-width:1"/>
<line x1="201.99192602549" y1="670.85130480244" x2="198.5" y2="677" style="stroke:red; stroke-width:1"/>
<line x1="198.5" y1="677" x2="204.64869519756" y2="680.49192602549" style="stroke:red; stroke-width:1"/>
<text x="224.57142857143" y="669.8152173913" font-weight = "10" font-family="verdana" fill="red" font-size="15">2(100%)</text>
<line x1="198.5" y1="633.89130434783" x2="198.5" y2="650.44565217391" style="stroke:red; stroke-width:1;stroke-dasharray: 5, 5"/>
<line x1="193.5" y1="650.44565217391" x2="203.5" y2="650.44565217391" style="stroke:red; stroke-width:1"/>
<line x1="193.5" y1="650.44565217391" x2="198.5" y2="655.44565217391" style="stroke:red; stroke-width:1"/>
<line x1="198.5" y1="655.44565217391" x2="203.5" y2="650.44565217391" style="stroke:red; stroke-width:1"/>
<text x="198.5" y="644.66847826087" font-weight = "10" font-family="verdana" fill="red" font-size="15">3(100%)</text>
<line x1="250.64285714286" y1="547.67391304348" x2="663.86668291951" y2="220.27894012077" style="stroke:red; stroke-width:1;stroke-dasharray: 5, 5"/>
<line x1="666.97170999681" y1="224.19797148697" x2="660.76165584222" y2="216.35990875457" style="stroke:red; stroke-width:1"/>
<line x1="666.97170999681" y1="224.19797148697" x2="667.78571428571" y2="217.17391304348" style="stroke:red; stroke-width:1"/>
<line x1="667.78571428571" y1="217.17391304348" x2="660.76165584222" y2="216.35990875457" style="stroke:red; stroke-width:1"/>
<text x="459.21428571429" y="382.42391304348" font-weight = "10" font-family="verdana" fill="red" font-size="15">4(100%)</text>
<line x1="667.78571428571" y1="231.54347826087" x2="515.21071168046" y2="357.68365760355" style="stroke:red; stroke-width:1;stroke-dasharray: 5, 5"/>
<line x1="512.02480406661" y1="353.83008878023" x2="518.39661929431" y2="361.53722642686" style="stroke:red; stroke-width:1"/>
<line x1="512.02480406661" y1="353.83008878023" x2="511.35714285714" y2="360.86956521739" style="stroke:red; stroke-width:1"/>
<line x1="511.35714285714" y1="360.86956521739" x2="518.39661929431" y2="361.53722642686" style="stroke:red; stroke-width:1"/>
<text x="589.57142857143" y="296.20652173913" font-weight = "10" font-family="verdana" fill="red" font-size="15">5(100%)</text>
<line x1="563.5" y1="317.76086956522" x2="255.22560026962" y2="183.24961632173" style="stroke:red; stroke-width:1;stroke-dasharray: 5, 5"/>
<line x1="257.22521659135" y1="178.66687319497" x2="253.22598394788" y2="187.83235944849" style="stroke:red; stroke-width:1"/>
<line x1="257.22521659135" y1="178.66687319497" x2="250.64285714286" y2="181.25" style="stroke:red; stroke-width:1"/>
<line x1="250.64285714286" y1="181.25" x2="253.22598394788" y2="187.83235944849" style="stroke:red; stroke-width:1"/>
<text x="407.07142857143" y="249.50543478261" font-weight = "10" font-family="verdana" fill="red" font-size="15">6(100%)</text>
<line x1="407.07142857143" y1="145.32608695652" x2="455.36071689097" y2="105.40329891819" style="stroke:red; stroke-width:1;stroke-dasharray: 5, 5"/>
<line x1="458.54662450481" y1="109.25686774151" x2="452.17480927712" y2="101.54973009488" style="stroke:red; stroke-width:1"/>
<line x1="458.54662450481" y1="109.25686774151" x2="459.21428571429" y2="102.21739130435" style="stroke:red; stroke-width:1"/>
<line x1="459.21428571429" y1="102.21739130435" x2="452.17480927712" y2="101.54973009488" style="stroke:red; stroke-width:1"/>
<text x="433.14285714286" y="123.77173913043" font-weight = "10" font-family="verdana" fill="red" font-size="15">7(100%)</text>
<line x1="250.64285714286" y1="547.67391304348" x2="297.96540367419" y2="534.63273241212" style="stroke:red; stroke-width:1;stroke-dasharray: 5, 5"/>
<line x1="299.29378826022" y1="539.45304302365" x2="296.63701908815" y2="529.8124218006" style="stroke:red; stroke-width:1"/>
<line x1="299.29378826022" y1="539.45304302365" x2="302.78571428571" y2="533.30434782609" style="stroke:red; stroke-width:1"/>
<line x1="302.78571428571" y1="533.30434782609" x2="296.63701908815" y2="529.8124218006" style="stroke:red; stroke-width:1"/>
<text x="276.71428571429" y="540.48913043478" font-weight = "10" font-family="verdana" fill="red" font-size="15">8(100%)</text>
<line x1="667.78571428571" y1="44.739130434783" x2="411.7362822573" y2="143.52632583643" style="stroke:red; stroke-width:1;stroke-dasharray: 5, 5"/>
<line x1="409.93652113721" y1="138.86147215056" x2="413.53604337739" y2="148.1911795223" style="stroke:red; stroke-width:1"/>
<line x1="409.93652113721" y1="138.86147215056" x2="407.07142857143" y2="145.32608695652" style="stroke:red; stroke-width:1"/>
<line x1="407.07142857143" y1="145.32608695652" x2="413.53604337739" y2="148.1911795223" style="stroke:red; stroke-width:1"/>
<text x="537.42857142857" y="95.032608695652" font-weight = "10" font-family="verdana" fill="red" font-size="15">9(100%)</text>
<line x1="615.64285714286" y1="260.28260869565" x2="663.40678400073" y2="233.95697563176" style="stroke:red; stroke-width:1;stroke-dasharray: 5, 5"/>
<line x1="665.82028137162" y1="238.33590591674" x2="660.99328662985" y2="229.57804534678" style="stroke:red; stroke-width:1"/>
<line x1="665.82028137162" y1="238.33590591674" x2="667.78571428571" y2="231.54347826087" style="stroke:red; stroke-width:1"/>
<line x1="667.78571428571" y1="231.54347826087" x2="660.99328662985" y2="229.57804534678" style="stroke:red; stroke-width:1"/>
<text x="641.71428571429" y="245.91304347826" font-weight = "10" font-family="verdana" fill="red" font-size="15">10(100%)</text>
<line x1="302.78571428571" y1="159.69565217391" x2="663.01665187517" y2="46.241143658544" style="stroke:red; stroke-width:1;stroke-dasharray: 5, 5"/>
<line x1="664.51866509893" y1="51.010206069086" x2="661.51463865141" y2="41.472081248001" style="stroke:red; stroke-width:1"/>
<line x1="664.51866509893" y1="51.010206069086" x2="667.78571428571" y2="44.739130434783" style="stroke:red; stroke-width:1"/>
<line x1="667.78571428571" y1="44.739130434783" x2="661.51463865141" y2="41.472081248001" style="stroke:red; stroke-width:1"/>
<text x="485.28571428571" y="102.21739130435" font-weight = "10" font-family="verdana" fill="red" font-size="15">11(100%)</text>
<line x1="302.78571428571" y1="159.69565217391" x2="715.20119435237" y2="17.628467371319" style="stroke:red; stroke-width:1;stroke-dasharray: 5, 5"/>
<line x1="716.82966172369" y1="22.355844447516" x2="713.57272698106" y2="12.901090295123" style="stroke:red; stroke-width:1"/>
<line x1="716.82966172369" y1="22.355844447516" x2="719.92857142857" y2="16" style="stroke:red; stroke-width:1"/>
<line x1="719.92857142857" y1="16" x2="713.57272698106" y2="12.901090295123" style="stroke:red; stroke-width:1"/>
<text x="511.35714285714" y="87.847826086957" font-weight = "10" font-family="verdana" fill="red" font-size="15">12(100%)</text>
<line x1="302.78571428571" y1="159.69565217391" x2="402.45065570692" y2="118.49705027196" style="stroke:red; stroke-width:1;stroke-dasharray: 5, 5"/>
<line x1="404.36074945714" y1="123.11782313646" x2="400.5405619567" y2="113.87627740745" style="stroke:red; stroke-width:1"/>
<line x1="404.36074945714" y1="123.11782313646" x2="407.07142857143" y2="116.58695652174" style="stroke:red; stroke-width:1"/>
<line x1="407.07142857143" y1="116.58695652174" x2="400.5405619567" y2="113.87627740745" style="stroke:red; stroke-width:1"/>
<text x="354.92857142857" y="138.14130434783" font-weight = "10" font-family="verdana" fill="red" font-size="15">13(100%)</text>
<line x1="302.78571428571" y1="159.69565217391" x2="558.75284213421" y2="75.04813099071" style="stroke:red; stroke-width:1;stroke-dasharray: 5, 5"/>
<line x1="560.32271225535" y1="79.7952888565" x2="557.18297201306" y2="70.300973124919" style="stroke:red; stroke-width:1"/>
<line x1="560.32271225535" y1="79.7952888565" x2="563.5" y2="73.478260869565" style="stroke:red; stroke-width:1"/>
<line x1="563.5" y1="73.478260869565" x2="557.18297201306" y2="70.300973124919" style="stroke:red; stroke-width:1"/>
<text x="433.14285714286" y="116.58695652174" font-weight = "10" font-family="verdana" fill="red" font-size="15">14(100%)</text>
<line x1="302.78571428571" y1="159.69565217391" x2="506.62976578095" y2="89.476293458276" style="stroke:red; stroke-width:1;stroke-dasharray: 5, 5"/>
<line x1="508.25823315227" y1="94.203670534472" x2="505.00129840963" y2="84.748916382079" style="stroke:red; stroke-width:1"/>
<line x1="508.25823315227" y1="94.203670534472" x2="511.35714285714" y2="87.847826086957" style="stroke:red; stroke-width:1"/>
<line x1="511.35714285714" y1="87.847826086957" x2="505.00129840963" y2="84.748916382079" style="stroke:red; stroke-width:1"/>
<text x="407.07142857143" y="123.77173913043" font-weight = "10" font-family="verdana" fill="red" font-size="15">15(100%)</text>
<line x1="302.78571428571" y1="159.69565217391" x2="610.88282840668" y2="60.639096394046" style="stroke:red; stroke-width:1;stroke-dasharray: 5, 5"/>
<line x1="612.41322914855" y1="65.399125130228" x2="609.3524276648" y2="55.879067657864" style="stroke:red; stroke-width:1"/>
<line x1="612.41322914855" y1="65.399125130228" x2="615.64285714286" y2="59.108695652174" style="stroke:red; stroke-width:1"/>
<line x1="615.64285714286" y1="59.108695652174" x2="609.3524276648" y2="55.879067657864" style="stroke:red; stroke-width:1"/>
<text x="459.21428571429" y="109.40217391304" font-weight = "10" font-family="verdana" fill="red" font-size="15">16(100%)</text>
<line x1="302.78571428571" y1="159.69565217391" x2="402.2511179599" y2="132.28490632517" style="stroke:red; stroke-width:1;stroke-dasharray: 5, 5"/>
<line x1="403.57950254594" y1="137.10521693669" x2="400.92273337387" y2="127.46459571364" style="stroke:red; stroke-width:1"/>
<line x1="403.57950254594" y1="137.10521693669" x2="407.07142857143" y2="130.95652173913" style="stroke:red; stroke-width:1"/>
<line x1="407.07142857143" y1="130.95652173913" x2="400.92273337387" y2="127.46459571364" style="stroke:red; stroke-width:1"/>
<text x="354.92857142857" y="145.32608695652" font-weight = "10" font-family="verdana" fill="red" font-size="15">17(100%)</text>
<line x1="250.64285714286" y1="547.67391304348" x2="250.64285714286" y2="144.96556555707" style="stroke:red; stroke-width:1;stroke-dasharray: 5, 5"/>
<line x1="255.64285714286" y1="144.96556555707" x2="245.64285714286" y2="144.96556555707" style="stroke:red; stroke-width:1"/>
<line x1="255.64285714286" y1="144.96556555707" x2="250.64285714286" y2="139.96556555707" style="stroke:red; stroke-width:1"/>
<line x1="250.64285714286" y1="139.96556555707" x2="245.64285714286" y2="144.96556555707" style="stroke:red; stroke-width:1"/>
<text x="250.64285714286" y="343.81973930027" font-weight = "10" font-family="verdana" fill="red" font-size="15">18(100%)</text>
<line x1="563.5" y1="346.5" x2="202.93311370767" y2="534.58427229719" style="stroke:red; stroke-width:1;stroke-dasharray: 5, 5"/>
<line x1="200.62064687442" y1="530.15115858952" x2="205.24558054092" y2="539.01738600486" style="stroke:red; stroke-width:1"/>
<line x1="200.62064687442" y1="530.15115858952" x2="198.5" y2="536.89673913043" style="stroke:red; stroke-width:1"/>
<line x1="198.5" y1="536.89673913043" x2="205.24558054092" y2="539.01738600486" style="stroke:red; stroke-width:1"/>
<text x="381" y="441.69836956522" font-weight = "10" font-family="verdana" fill="red" font-size="15">19(100%)</text>
<line x1="354.92857142857" y1="475.82608695652" x2="508.54451454745" y2="250.04694260518" style="stroke:red; stroke-width:1;stroke-dasharray: 5, 5"/>
<line x1="512.67841367437" y1="252.85957091487" x2="504.41061542054" y2="247.23431429549" style="stroke:red; stroke-width:1"/>
<line x1="512.67841367437" y1="252.85957091487" x2="511.35714285714" y2="245.91304347826" style="stroke:red; stroke-width:1"/>
<line x1="511.35714285714" y1="245.91304347826" x2="504.41061542054" y2="247.23431429549" style="stroke:red; stroke-width:1"/>
<text x="433.14285714286" y="360.86956521739" font-weight = "10" font-family="verdana" fill="red" font-size="15">20(100%)</text>
<line x1="667.78571428571" y1="245.91304347826" x2="567.09877775001" y2="343.02886204452" style="stroke:red; stroke-width:1;stroke-dasharray: 5, 5"/>
<line x1="563.62763979453" y1="339.4300842945" x2="570.5699157055" y2="346.62763979453" style="stroke:red; stroke-width:1"/>
<line x1="563.62763979453" y1="339.4300842945" x2="563.5" y2="346.5" style="stroke:red; stroke-width:1"/>
<line x1="563.5" y1="346.5" x2="570.5699157055" y2="346.62763979453" style="stroke:red; stroke-width:1"/>
<text x="615.64285714286" y="296.20652173913" font-weight = "10" font-family="verdana" fill="red" font-size="15">21(100%)</text>
<line x1="354.92857142857" y1="475.82608695652" x2="559.38258293025" y2="334.9671365071" style="stroke:red; stroke-width:1;stroke-dasharray: 5, 5"/>
<line x1="562.21928465475" y1="339.08455357685" x2="556.54588120576" y2="330.84971943736" style="stroke:red; stroke-width:1"/>
<line x1="562.21928465475" y1="339.08455357685" x2="563.5" y2="332.13043478261" style="stroke:red; stroke-width:1"/>
<line x1="563.5" y1="332.13043478261" x2="556.54588120576" y2="330.84971943736" style="stroke:red; stroke-width:1"/>
<text x="459.21428571429" y="403.97826086957" font-weight = "10" font-family="verdana" fill="red" font-size="15">22(100%)</text>
<line x1="615.64285714286" y1="303.39130434783" x2="664.42623623099" y2="249.6162727717" style="stroke:red; stroke-width:1;stroke-dasharray: 5, 5"/>
<line x1="668.12946552443" y1="252.97575082643" x2="660.72300693755" y2="246.25679471698" style="stroke:red; stroke-width:1"/>
<line x1="668.12946552443" y1="252.97575082643" x2="667.78571428571" y2="245.91304347826" style="stroke:red; stroke-width:1"/>
<line x1="667.78571428571" y1="245.91304347826" x2="660.72300693755" y2="246.25679471698" style="stroke:red; stroke-width:1"/>
<text x="641.71428571429" y="274.65217391304" font-weight = "10" font-family="verdana" fill="red" font-size="15">23(100%)</text>
<line x1="354.92857142857" y1="475.82608695652" x2="403.7119505167" y2="422.0510553804" style="stroke:red; stroke-width:1;stroke-dasharray: 5, 5"/>
<line x1="407.41517981014" y1="425.41053343513" x2="400.00872122326" y2="418.69157732567" style="stroke:red; stroke-width:1"/>
<line x1="407.41517981014" y1="425.41053343513" x2="407.07142857143" y2="418.34782608696" style="stroke:red; stroke-width:1"/>
<line x1="407.07142857143" y1="418.34782608696" x2="400.00872122326" y2="418.69157732567" style="stroke:red; stroke-width:1"/>
<text x="381" y="447.08695652174" font-weight = "10" font-family="verdana" fill="red" font-size="15">24(100%)</text>
<line x1="511.35714285714" y1="375.23913043478" x2="611.52544007311" y2="306.22800607232" style="stroke:red; stroke-width:1;stroke-dasharray: 5, 5"/>
<line x1="614.36214179761" y1="310.34542314207" x2="608.68873834861" y2="302.11058900258" style="stroke:red; stroke-width:1"/>
<line x1="614.36214179761" y1="310.34542314207" x2="615.64285714286" y2="303.39130434783" style="stroke:red; stroke-width:1"/>
<line x1="615.64285714286" y1="303.39130434783" x2="608.68873834861" y2="302.11058900258" style="stroke:red; stroke-width:1"/>
<text x="563.5" y="339.3152173913" font-weight = "10" font-family="verdana" fill="red" font-size="15">25(100%)</text>
<line x1="511.35714285714" y1="375.23913043478" x2="463.59321599927" y2="401.56476349868" style="stroke:red; stroke-width:1;stroke-dasharray: 5, 5"/>
<line x1="461.17971862838" y1="397.1858332137" x2="466.00671337015" y2="405.94369378366" style="stroke:red; stroke-width:1"/>
<line x1="461.17971862838" y1="397.1858332137" x2="459.21428571429" y2="403.97826086957" style="stroke:red; stroke-width:1"/>
<line x1="459.21428571429" y1="403.97826086957" x2="466.00671337015" y2="405.94369378366" style="stroke:red; stroke-width:1"/>
<text x="485.28571428571" y="389.60869565217" font-weight = "10" font-family="verdana" fill="red" font-size="15">26(100%)</text>
<line x1="511.35714285714" y1="375.23913043478" x2="411.45035885641" y2="430.30389393346" style="stroke:red; stroke-width:1;stroke-dasharray: 5, 5"/>
<line x1="409.03686148552" y1="425.92496364848" x2="413.8638562273" y2="434.68282421844" style="stroke:red; stroke-width:1"/>
<line x1="409.03686148552" y1="425.92496364848" x2="407.07142857143" y2="432.71739130435" style="stroke:red; stroke-width:1"/>
<line x1="407.07142857143" y1="432.71739130435" x2="413.8638562273" y2="434.68282421844" style="stroke:red; stroke-width:1"/>
<text x="459.21428571429" y="403.97826086957" font-weight = "10" font-family="verdana" fill="red" font-size="15">27(100%)</text>
<line x1="511.35714285714" y1="375.23913043478" x2="359.30750171355" y2="459.04302436824" style="stroke:red; stroke-width:1;stroke-dasharray: 5, 5"/>
<line x1="356.89400434266" y1="454.66409408326" x2="361.72099908444" y2="463.42195465322" style="stroke:red; stroke-width:1"/>
<line x1="356.89400434266" y1="454.66409408326" x2="354.92857142857" y2="461.45652173913" style="stroke:red; stroke-width:1"/>
<line x1="354.92857142857" y1="461.45652173913" x2="361.72099908444" y2="463.42195465322" style="stroke:red; stroke-width:1"/>
<text x="433.14285714286" y="418.34782608696" font-weight = "10" font-family="verdana" fill="red" font-size="15">28(100%)</text>
<line x1="511.35714285714" y1="375.23913043478" x2="612.04407939284" y2="278.12331186853" style="stroke:red; stroke-width:1;stroke-dasharray: 5, 5"/>
<line x1="615.51521734833" y1="281.72208961854" x2="608.57294143736" y2="274.52453411851" style="stroke:red; stroke-width:1"/>
<line x1="615.51521734833" y1="281.72208961854" x2="615.64285714286" y2="274.65217391304" style="stroke:red; stroke-width:1"/>
<line x1="615.64285714286" y1="274.65217391304" x2="608.57294143736" y2="274.52453411851" style="stroke:red; stroke-width:1"/>
<text x="563.5" y="324.94565217391" font-weight = "10" font-family="verdana" fill="red" font-size="15">29(100%)</text>
<line x1="511.35714285714" y1="375.23913043478" x2="307.51309136191" y2="445.45848915042" style="stroke:red; stroke-width:1;stroke-dasharray: 5, 5"/>
<line x1="305.88462399059" y1="440.73111207422" x2="309.14155873323" y2="450.18586622662" style="stroke:red; stroke-width:1"/>
<line x1="305.88462399059" y1="440.73111207422" x2="302.78571428571" y2="447.08695652174" style="stroke:red; stroke-width:1"/>
<line x1="302.78571428571" y1="447.08695652174" x2="309.14155873323" y2="450.18586622662" style="stroke:red; stroke-width:1"/>
<text x="407.07142857143" y="411.16304347826" font-weight = "10" font-family="verdana" fill="red" font-size="15">30(100%)</text>
<line x1="459.21428571429" y1="382.42391304348" x2="358.65311098393" y2="472.49025046464" style="stroke:red; stroke-width:1;stroke-dasharray: 5, 5"/>
<line x1="355.31727449205" y1="468.76571090928" x2="361.98894747581" y2="476.21479002" style="stroke:red; stroke-width:1"/>
<line x1="355.31727449205" y1="468.76571090928" x2="354.92857142857" y2="475.82608695652" style="stroke:red; stroke-width:1"/>
<line x1="354.92857142857" y1="475.82608695652" x2="361.98894747581" y2="476.21479002" style="stroke:red; stroke-width:1"/>
<text x="407.07142857143" y="429.125" font-weight = "10" font-family="verdana" fill="red" font-size="15">31(100%)</text>
<line x1="459.21428571429" y1="382.42391304348" x2="611.3498938206" y2="291.58503113755" style="stroke:red; stroke-width:1;stroke-dasharray: 5, 5"/>
<line x1="613.91318582772" y1="295.87799445981" x2="608.78660181348" y2="287.2920678153" style="stroke:red; stroke-width:1"/>
<line x1="613.91318582772" y1="295.87799445981" x2="615.64285714286" y2="289.02173913043" style="stroke:red; stroke-width:1"/>
<line x1="615.64285714286" y1="289.02173913043" x2="608.78660181348" y2="287.2920678153" style="stroke:red; stroke-width:1"/>
<text x="537.42857142857" y="335.72282608696" font-weight = "10" font-family="verdana" fill="red" font-size="15">32(100%)</text>
<line x1="354.92857142857" y1="353.23573369565" x2="354.92857142857" y2="485.19565217391" style="stroke:red; stroke-width:1;stroke-dasharray: 5, 5"/>
<line x1="349.92857142857" y1="485.19565217391" x2="359.92857142857" y2="485.19565217391" style="stroke:red; stroke-width:1"/>
<line x1="349.92857142857" y1="485.19565217391" x2="354.92857142857" y2="490.19565217391" style="stroke:red; stroke-width:1"/>
<line x1="354.92857142857" y1="490.19565217391" x2="359.92857142857" y2="485.19565217391" style="stroke:red; stroke-width:1"/>
<text x="354.92857142857" y="421.71569293478" font-weight = "10" font-family="verdana" fill="red" font-size="15">33(100%)</text>
<line x1="302.78571428571" y1="590.78260869565" x2="255.02178742784" y2="617.10824175955" style="stroke:red; stroke-width:1;stroke-dasharray: 5, 5"/>
<line x1="252.60829005695" y1="612.72931147457" x2="257.43528479873" y2="621.48717204453" style="stroke:red; stroke-width:1"/>
<line x1="252.60829005695" y1="612.72931147457" x2="250.64285714286" y2="619.52173913043" style="stroke:red; stroke-width:1"/>
<line x1="250.64285714286" y1="619.52173913043" x2="257.43528479873" y2="621.48717204453" style="stroke:red; stroke-width:1"/>
<text x="276.71428571429" y="605.15217391304" font-weight = "10" font-family="verdana" fill="red" font-size="15">1(100%)</text>
</g></svg>