<?xml version="1.0" encoding="iso-8859-1"?>
<!DOCTYPE svg PUBLIC "-//W3C//DTD SVG 1.0//EN" "http://www.w3.org/TR/2001/REC-SVG-20010904/DTD/svg10.dtd">
<svg width="912" height="723" xmlns="http://www.w3.org/2000/svg" xmlns:xlink="http://www.w3.org/1999/xlink">
<g style="stroke:black;fill:lightgreen" transform="translate(30,30)">
<line x1="277" y1="526" x2="277" y2="519" style="stroke:blue; stroke-width:1"/>
<line x1="277" y1="519" x2="329" y2="519" style="stroke:blue; stroke-width:1"/>
<line x1="277" y1="526" x2="277" y2="533" style="stroke:blue; stroke-width:1"/>
<line x1="277" y1="533" x2="329" y2="533" style="stroke:blue; stroke-width:1"/>
<line x1="225" y1="537" x2="225" y2="548" style="stroke:blue; stroke-width:1"/>
<line x1="225" y1="548" x2="277" y2="548" style="stroke:blue; stroke-width:1"/>
<line x1="225" y1="655" x2="225" y2="663" style="stroke:blue; stroke-width:1"/>
<line x1="225" y1="663" x2="277" y2="663" style="stroke:blue; stroke-width:1"/>
<line x1="225" y1="655" x2="225" y2="648" style="stroke:blue; stroke-width:1"/>
<line x1="225" y1="648" x2="277" y2="648" style="stroke:blue; stroke-width:1"/>
<line x1="172" y1="666" x2="172" y2="677" style="stroke:blue; stroke-width:1"/>
<line x1="172" y1="677" x2="225" y2="677" style="stroke:blue; stroke-width:1"/>
<line x1="277" y1="598" x2="277" y2="605" style="stroke:blue; stroke-width:1"/>
<line x1="277" y1="605" x2="329" y2="605" style="stroke:blue; stroke-width:1"/>
<line x1="277" y1="598" x2="277" y2="591" style="stroke:blue; stroke-width:1"/>
<line x1="277" y1="591" x2="329" y2="591" style="stroke:blue; stroke-width:1"/>
<line x1="225" y1="609" x2="225" y2="620" style="stroke:blue; stroke-width:1"/>
<line x1="225" y1="620" x2="277" y2="620" style="stroke:blue; stroke-width:1"/>
<line x1="172" y1="621" x2="172" y2="634" style="stroke:blue; stroke-width:1"/>
<line x1="172" y1="634" x2="225" y2="634" style="stroke:blue; stroke-width:1"/>
<line x1="329" y1="497" x2="329" y2="505" style="stroke:blue; stroke-width:1"/>
<line x1="329" y1="505" x2="381" y2="505" style="stroke:blue; stroke-width:1"/>
<line x1="329" y1="497" x2="329" y2="490" style="stroke:blue; stroke-width:1"/>
<line x1="329" y1="490" x2="381" y2="490" style="stroke:blue; stroke-width:1"/>
<line x1="329" y1="469" x2="329" y2="461" style="stroke:blue; stroke-width:1"/>
<line x1="329" y1="461" x2="381" y2="461" style="stroke:blue; stroke-width:1"/>
<line x1="329" y1="469" x2="329" y2="476" style="stroke:blue; stroke-width:1"/>
<line x1="329" y1="476" x2="381" y2="476" style="stroke:blue; stroke-width:1"/>
<line x1="381" y1="426" x2="381" y2="433" style="stroke:blue; stroke-width:1"/>
<line x1="381" y1="433" x2="433" y2="433" style="stroke:blue; stroke-width:1"/>
<line x1="381" y1="426" x2="381" y2="418" style="stroke:blue; stroke-width:1"/>
<line x1="381" y1="418" x2="433" y2="418" style="stroke:blue; stroke-width:1"/>
<line x1="642" y1="210" x2="642" y2="203" style="stroke:blue; stroke-width:1"/>
<line x1="642" y1="203" x2="694" y2="203" style="stroke:blue; stroke-width:1"/>
<line x1="642" y1="210" x2="642" y2="217" style="stroke:blue; stroke-width:1"/>
<line x1="642" y1="217" x2="694" y2="217" style="stroke:blue; stroke-width:1"/>
<line x1="642" y1="239" x2="642" y2="246" style="stroke:blue; stroke-width:1"/>
<line x1="642" y1="246" x2="694" y2="246" style="stroke:blue; stroke-width:1"/>
<line x1="642" y1="239" x2="642" y2="232" style="stroke:blue; stroke-width:1"/>
<line x1="642" y1="232" x2="694" y2="232" style="stroke:blue; stroke-width:1"/>
<line x1="590" y1="267" x2="590" y2="260" style="stroke:blue; stroke-width:1"/>
<line x1="590" y1="260" x2="642" y2="260" style="stroke:blue; stroke-width:1"/>
<line x1="590" y1="267" x2="590" y2="275" style="stroke:blue; stroke-width:1"/>
<line x1="590" y1="275" x2="642" y2="275" style="stroke:blue; stroke-width:1"/>
<line x1="590" y1="296" x2="590" y2="303" style="stroke:blue; stroke-width:1"/>
<line x1="590" y1="303" x2="642" y2="303" style="stroke:blue; stroke-width:1"/>
<line x1="590" y1="296" x2="590" y2="289" style="stroke:blue; stroke-width:1"/>
<line x1="590" y1="289" x2="642" y2="289" style="stroke:blue; stroke-width:1"/>
<line x1="537" y1="307" x2="537" y2="318" style="stroke:blue; stroke-width:1"/>
<line x1="537" y1="318" x2="590" y2="318" style="stroke:blue; stroke-width:1"/>
<line x1="537" y1="339" x2="537" y2="332" style="stroke:blue; stroke-width:1"/>
<line x1="537" y1="332" x2="590" y2="332" style="stroke:blue; stroke-width:1"/>
<line x1="537" y1="339" x2="537" y2="346" style="stroke:blue; stroke-width:1"/>
<line x1="537" y1="346" x2="590" y2="346" style="stroke:blue; stroke-width:1"/>
<line x1="485" y1="350" x2="485" y2="361" style="stroke:blue; stroke-width:1"/>
<line x1="485" y1="361" x2="537" y2="361" style="stroke:blue; stroke-width:1"/>
<line x1="485" y1="382" x2="485" y2="375" style="stroke:blue; stroke-width:1"/>
<line x1="485" y1="375" x2="537" y2="375" style="stroke:blue; stroke-width:1"/>
<line x1="485" y1="382" x2="485" y2="390" style="stroke:blue; stroke-width:1"/>
<line x1="485" y1="390" x2="537" y2="390" style="stroke:blue; stroke-width:1"/>
<line x1="433" y1="393" x2="433" y2="404" style="stroke:blue; stroke-width:1"/>
<line x1="433" y1="404" x2="485" y2="404" style="stroke:blue; stroke-width:1"/>
<line x1="277" y1="418" x2="277" y2="447" style="stroke:blue; stroke-width:1"/>
<line x1="277" y1="447" x2="329" y2="447" style="stroke:blue; stroke-width:1"/>
<line x1="381" y1="138" x2="381" y2="145" style="stroke:blue; stroke-width:1"/>
<line x1="381" y1="145" x2="433" y2="145" style="stroke:blue; stroke-width:1"/>
<line x1="381" y1="138" x2="381" y2="131" style="stroke:blue; stroke-width:1"/>
<line x1="381" y1="131" x2="433" y2="131" style="stroke:blue; stroke-width:1"/>
<line x1="694" y1="23" x2="694" y2="30" style="stroke:blue; stroke-width:1"/>
<line x1="694" y1="30" x2="746" y2="30" style="stroke:blue; stroke-width:1"/>
<line x1="694" y1="23" x2="694" y2="16" style="stroke:blue; stroke-width:1"/>
<line x1="694" y1="16" x2="746" y2="16" style="stroke:blue; stroke-width:1"/>
<line x1="642" y1="34" x2="642" y2="45" style="stroke:blue; stroke-width:1"/>
<line x1="642" y1="45" x2="694" y2="45" style="stroke:blue; stroke-width:1"/>
<line x1="590" y1="47" x2="590" y2="59" style="stroke:blue; stroke-width:1"/>
<line x1="590" y1="59" x2="642" y2="59" style="stroke:blue; stroke-width:1"/>
<line x1="537" y1="60" x2="537" y2="73" style="stroke:blue; stroke-width:1"/>
<line x1="537" y1="73" x2="590" y2="73" style="stroke:blue; stroke-width:1"/>
<line x1="485" y1="74" x2="485" y2="88" style="stroke:blue; stroke-width:1"/>
<line x1="485" y1="88" x2="537" y2="88" style="stroke:blue; stroke-width:1"/>
<line x1="433" y1="88" x2="433" y2="102" style="stroke:blue; stroke-width:1"/>
<line x1="433" y1="102" x2="485" y2="102" style="stroke:blue; stroke-width:1"/>
<line x1="381" y1="102" x2="381" y2="117" style="stroke:blue; stroke-width:1"/>
<line x1="381" y1="117" x2="433" y2="117" style="stroke:blue; stroke-width:1"/>
<line x1="277" y1="140" x2="277" y2="160" style="stroke:blue; stroke-width:1"/>
<line x1="277" y1="160" x2="329" y2="160" style="stroke:blue; stroke-width:1"/>
<line x1="277" y1="181" x2="277" y2="188" style="stroke:blue; stroke-width:1"/>
<line x1="277" y1="188" x2="329" y2="188" style="stroke:blue; stroke-width:1"/>
<line x1="277" y1="181" x2="277" y2="174" style="stroke:blue; stroke-width:1"/>
<line x1="277" y1="174" x2="329" y2="174" style="stroke:blue; stroke-width:1"/>
<line x1="225" y1="569" x2="225" y2="576" style="stroke:blue; stroke-width:1"/>
<line x1="225" y1="576" x2="277" y2="576" style="stroke:blue; stroke-width:1"/>
<line x1="225" y1="569" x2="225" y2="562" style="stroke:blue; stroke-width:1"/>
<line x1="225" y1="562" x2="277" y2="562" style="stroke:blue; stroke-width:1"/>
<line x1="225" y1="537" x2="225" y2="526" style="stroke:blue; stroke-width:1"/>
<line x1="225" y1="526" x2="277" y2="526" style="stroke:blue; stroke-width:1"/>
<line x1="172" y1="553" x2="172" y2="537" style="stroke:blue; stroke-width:1"/>
<line x1="172" y1="537" x2="225" y2="537" style="stroke:blue; stroke-width:1"/>
<line x1="277" y1="483" x2="277" y2="497" style="stroke:blue; stroke-width:1"/>
<line x1="277" y1="497" x2="329" y2="497" style="stroke:blue; stroke-width:1"/>
<line x1="225" y1="451" x2="225" y2="483" style="stroke:blue; stroke-width:1"/>
<line x1="225" y1="483" x2="277" y2="483" style="stroke:blue; stroke-width:1"/>
<line x1="277" y1="483" x2="277" y2="469" style="stroke:blue; stroke-width:1"/>
<line x1="277" y1="469" x2="329" y2="469" style="stroke:blue; stroke-width:1"/>
<line x1="172" y1="306" x2="172" y2="451" style="stroke:blue; stroke-width:1"/>
<line x1="172" y1="451" x2="225" y2="451" style="stroke:blue; stroke-width:1"/>
<line x1="225" y1="451" x2="225" y2="418" style="stroke:blue; stroke-width:1"/>
<line x1="225" y1="418" x2="277" y2="418" style="stroke:blue; stroke-width:1"/>
<line x1="329" y1="389" x2="329" y2="426" style="stroke:blue; stroke-width:1"/>
<line x1="329" y1="426" x2="381" y2="426" style="stroke:blue; stroke-width:1"/>
<line x1="277" y1="418" x2="277" y2="389" style="stroke:blue; stroke-width:1"/>
<line x1="277" y1="389" x2="329" y2="389" style="stroke:blue; stroke-width:1"/>
<line x1="433" y1="393" x2="433" y2="382" style="stroke:blue; stroke-width:1"/>
<line x1="433" y1="382" x2="485" y2="382" style="stroke:blue; stroke-width:1"/>
<line x1="381" y1="353" x2="381" y2="393" style="stroke:blue; stroke-width:1"/>
<line x1="381" y1="393" x2="433" y2="393" style="stroke:blue; stroke-width:1"/>
<line x1="329" y1="389" x2="329" y2="353" style="stroke:blue; stroke-width:1"/>
<line x1="329" y1="353" x2="381" y2="353" style="stroke:blue; stroke-width:1"/>
<line x1="485" y1="350" x2="485" y2="339" style="stroke:blue; stroke-width:1"/>
<line x1="485" y1="339" x2="537" y2="339" style="stroke:blue; stroke-width:1"/>
<line x1="433" y1="313" x2="433" y2="350" style="stroke:blue; stroke-width:1"/>
<line x1="433" y1="350" x2="485" y2="350" style="stroke:blue; stroke-width:1"/>
<line x1="381" y1="353" x2="381" y2="313" style="stroke:blue; stroke-width:1"/>
<line x1="381" y1="313" x2="433" y2="313" style="stroke:blue; stroke-width:1"/>
<line x1="590" y1="224" x2="590" y2="239" style="stroke:blue; stroke-width:1"/>
<line x1="590" y1="239" x2="642" y2="239" style="stroke:blue; stroke-width:1"/>
<line x1="537" y1="246" x2="537" y2="224" style="stroke:blue; stroke-width:1"/>
<line x1="537" y1="224" x2="590" y2="224" style="stroke:blue; stroke-width:1"/>
<line x1="590" y1="224" x2="590" y2="210" style="stroke:blue; stroke-width:1"/>
<line x1="590" y1="210" x2="642" y2="210" style="stroke:blue; stroke-width:1"/>
<line x1="485" y1="276" x2="485" y2="246" style="stroke:blue; stroke-width:1"/>
<line x1="485" y1="246" x2="537" y2="246" style="stroke:blue; stroke-width:1"/>
<line x1="537" y1="246" x2="537" y2="267" style="stroke:blue; stroke-width:1"/>
<line x1="537" y1="267" x2="590" y2="267" style="stroke:blue; stroke-width:1"/>
<line x1="433" y1="313" x2="433" y2="276" style="stroke:blue; stroke-width:1"/>
<line x1="433" y1="276" x2="485" y2="276" style="stroke:blue; stroke-width:1"/>
<line x1="485" y1="276" x2="485" y2="307" style="stroke:blue; stroke-width:1"/>
<line x1="485" y1="307" x2="537" y2="307" style="stroke:blue; stroke-width:1"/>
<line x1="537" y1="307" x2="537" y2="296" style="stroke:blue; stroke-width:1"/>
<line x1="537" y1="296" x2="590" y2="296" style="stroke:blue; stroke-width:1"/>
<line x1="120" y1="429" x2="120" y2="306" style="stroke:blue; stroke-width:1"/>
<line x1="120" y1="306" x2="172" y2="306" style="stroke:blue; stroke-width:1"/>
<line x1="225" y1="161" x2="225" y2="140" style="stroke:blue; stroke-width:1"/>
<line x1="225" y1="140" x2="277" y2="140" style="stroke:blue; stroke-width:1"/>
<line x1="329" y1="120" x2="329" y2="138" style="stroke:blue; stroke-width:1"/>
<line x1="329" y1="138" x2="381" y2="138" style="stroke:blue; stroke-width:1"/>
<line x1="277" y1="140" x2="277" y2="120" style="stroke:blue; stroke-width:1"/>
<line x1="277" y1="120" x2="329" y2="120" style="stroke:blue; stroke-width:1"/>
<line x1="329" y1="120" x2="329" y2="102" style="stroke:blue; stroke-width:1"/>
<line x1="329" y1="102" x2="381" y2="102" style="stroke:blue; stroke-width:1"/>
<line x1="381" y1="102" x2="381" y2="88" style="stroke:blue; stroke-width:1"/>
<line x1="381" y1="88" x2="433" y2="88" style="stroke:blue; stroke-width:1"/>
<line x1="433" y1="88" x2="433" y2="74" style="stroke:blue; stroke-width:1"/>
<line x1="433" y1="74" x2="485" y2="74" style="stroke:blue; stroke-width:1"/>
<line x1="485" y1="74" x2="485" y2="60" style="stroke:blue; stroke-width:1"/>
<line x1="485" y1="60" x2="537" y2="60" style="stroke:blue; stroke-width:1"/>
<line x1="590" y1="47" x2="590" y2="34" style="stroke:blue; stroke-width:1"/>
<line x1="590" y1="34" x2="642" y2="34" style="stroke:blue; stroke-width:1"/>
<line x1="642" y1="34" x2="642" y2="23" style="stroke:blue; stroke-width:1"/>
<line x1="642" y1="23" x2="694" y2="23" style="stroke:blue; stroke-width:1"/>
<line x1="537" y1="60" x2="537" y2="47" style="stroke:blue; stroke-width:1"/>
<line x1="537" y1="47" x2="590" y2="47" style="stroke:blue; stroke-width:1"/>
<line x1="172" y1="306" x2="172" y2="161" style="stroke:blue; stroke-width:1"/>
<line x1="172" y1="161" x2="225" y2="161" style="stroke:blue; stroke-width:1"/>
<line x1="225" y1="161" x2="225" y2="181" style="stroke:blue; stroke-width:1"/>
<line x1="225" y1="181" x2="277" y2="181" style="stroke:blue; stroke-width:1"/>
<line x1="68" y1="537" x2="68" y2="429" style="stroke:blue; stroke-width:1"/>
<line x1="68" y1="429" x2="120" y2="429" style="stroke:blue; stroke-width:1"/>
<line x1="120" y1="644" x2="120" y2="666" style="stroke:blue; stroke-width:1"/>
<line x1="120" y1="666" x2="172" y2="666" style="stroke:blue; stroke-width:1"/>
<line x1="172" y1="666" x2="172" y2="655" style="stroke:blue; stroke-width:1"/>
<line x1="172" y1="655" x2="225" y2="655" style="stroke:blue; stroke-width:1"/>
<line x1="68" y1="537" x2="68" y2="644" style="stroke:blue; stroke-width:1"/>
<line x1="68" y1="644" x2="120" y2="644" style="stroke:blue; stroke-width:1"/>
<line x1="225" y1="609" x2="225" y2="598" style="stroke:blue; stroke-width:1"/>
<line x1="225" y1="598" x2="277" y2="598" style="stroke:blue; stroke-width:1"/>
<line x1="172" y1="621" x2="172" y2="609" style="stroke:blue; stroke-width:1"/>
<line x1="172" y1="609" x2="225" y2="609" style="stroke:blue; stroke-width:1"/>
<line x1="120" y1="644" x2="120" y2="621" style="stroke:blue; stroke-width:1"/>
<line x1="120" y1="621" x2="172" y2="621" style="stroke:blue; stroke-width:1"/>
<line x1="120" y1="429" x2="120" y2="553" style="stroke:blue; stroke-width:1"/>
<line x1="120" y1="553" x2="172" y2="553" style="stroke:blue; stroke-width:1"/>
<line x1="172" y1="553" x2="172" y2="569" style="stroke:blue; stroke-width:1"/>
<line x1="172" y1="569" x2="225" y2="569" style="stroke:blue; stroke-width:1"/>
<line x1="16" y1="537" x2="16" y2="537" style="stroke:blue; stroke-width:1"/>
<line x1="16" y1="537" x2="68" y2="537" style="stroke:blue; stroke-width:1"/>
<text x="20" y="531" font-weight = "10" font-family="verdana" fill="black" font-size="15">Root</text>
<text x="229" y="681" font-weight = "10" font-family="verdana" fill="black" font-size="15">KJ473795-AB085735</text>
<text x="281" y="667" font-weight = "10" font-family="verdana" fill="black" font-size="15">KJ473796-AB085735</text>
<text x="281" y="652" font-weight = "10" font-family="verdana" fill="black" font-size="15">EU420138-ON640726</text>
<text x="229" y="638" font-weight = "10" font-family="verdana" fill="black" font-size="15">KJ473797-AB085735</text>
<text x="281" y="624" font-weight = "10" font-family="verdana" fill="black" font-size="15">KJ473800-AB085735</text>
<text x="333" y="609" font-weight = "10" font-family="verdana" fill="black" font-size="15">KJ473798-AB085735</text>
<text x="333" y="595" font-weight = "10" font-family="verdana" fill="black" font-size="15">KJ473799-AB085735</text>
<text x="281" y="580" font-weight = "10" font-family="verdana" fill="black" font-size="15">NC_014470-MZ936290</text>
<text x="281" y="566" font-weight = "10" font-family="verdana" fill="black" font-size="15">GU190215-MZ936290</text>
<text x="281" y="552" font-weight = "10" font-family="verdana" fill="black" font-size="15">MN996532-KP972690</text>
<text x="333" y="537" font-weight = "10" font-family="verdana" fill="black" font-size="15">MG772934-HM134917</text>
<text x="333" y="523" font-weight = "10" font-family="verdana" fill="black" font-size="15">MG772933-HM134917</text>
<text x="385" y="509" font-weight = "10" font-family="verdana" fill="black" font-size="15">DQ412043-KX261916</text>
<text x="385" y="494" font-weight = "10" font-family="verdana" fill="black" font-size="15">DQ648857-KX261916</text>
<text x="385" y="480" font-weight = "10" font-family="verdana" fill="black" font-size="15">KJ473814-HM134917</text>
<text x="385" y="465" font-weight = "10" font-family="verdana" fill="black" font-size="15">JX993987-ON012504</text>
<text x="333" y="451" font-weight = "10" font-family="verdana" fill="black" font-size="15">KJ473815-HM134917</text>
<text x="437" y="437" font-weight = "10" font-family="verdana" fill="black" font-size="15">KY417147-HM134917</text>
<text x="437" y="422" font-weight = "10" font-family="verdana" fill="black" font-size="15">KY417148-HM134917</text>
<text x="489" y="408" font-weight = "10" font-family="verdana" fill="black" font-size="15">FJ588686-HM134917</text>
<text x="541" y="394" font-weight = "10" font-family="verdana" fill="black" font-size="15">KY417143-HM134917</text>
<text x="541" y="379" font-weight = "10" font-family="verdana" fill="black" font-size="15">KY417149-HM134917</text>
<text x="541" y="365" font-weight = "10" font-family="verdana" fill="black" font-size="15">KJ473816-HM134917</text>
<text x="594" y="350" font-weight = "10" font-family="verdana" fill="black" font-size="15">KY770859-HM134917</text>
<text x="594" y="336" font-weight = "10" font-family="verdana" fill="black" font-size="15">KY770858-HM134917</text>
<text x="594" y="322" font-weight = "10" font-family="verdana" fill="black" font-size="15">KY417146-HM134917</text>
<text x="646" y="307" font-weight = "10" font-family="verdana" fill="black" font-size="15">KT444582-HM134917</text>
<text x="646" y="293" font-weight = "10" font-family="verdana" fill="black" font-size="15">KY417150-HM134917</text>
<text x="646" y="279" font-weight = "10" font-family="verdana" fill="black" font-size="15">KY417152-HM134917</text>
<text x="646" y="264" font-weight = "10" font-family="verdana" fill="black" font-size="15">KY417151-HM134917</text>
<text x="698" y="250" font-weight = "10" font-family="verdana" fill="black" font-size="15">KF367457-HM134917</text>
<text x="698" y="236" font-weight = "10" font-family="verdana" fill="black" font-size="15">KC881006-HM134917</text>
<text x="698" y="221" font-weight = "10" font-family="verdana" fill="black" font-size="15">KC881005-HM134917</text>
<text x="698" y="207" font-weight = "10" font-family="verdana" fill="black" font-size="15">KY417144-HM134917</text>
<text x="333" y="192" font-weight = "10" font-family="verdana" fill="black" font-size="15">GQ153543-HM134917</text>
<text x="333" y="178" font-weight = "10" font-family="verdana" fill="black" font-size="15">GQ153542-HM134917</text>
<text x="333" y="164" font-weight = "10" font-family="verdana" fill="black" font-size="15">GQ153547-HM134917</text>
<text x="437" y="149" font-weight = "10" font-family="verdana" fill="black" font-size="15">DQ084200-HM134917</text>
<text x="437" y="135" font-weight = "10" font-family="verdana" fill="black" font-size="15">DQ022305-HM134917</text>
<text x="437" y="121" font-weight = "10" font-family="verdana" fill="black" font-size="15">DQ084199-HM134917</text>
<text x="489" y="106" font-weight = "10" font-family="verdana" fill="black" font-size="15">GQ153541-HM134917</text>
<text x="541" y="92" font-weight = "10" font-family="verdana" fill="black" font-size="15">GQ153539-HM134917</text>
<text x="594" y="77" font-weight = "10" font-family="verdana" fill="black" font-size="15">GQ153540-HM134917</text>
<text x="646" y="63" font-weight = "10" font-family="verdana" fill="black" font-size="15">GQ153548-HM134917</text>
<text x="698" y="49" font-weight = "10" font-family="verdana" fill="black" font-size="15">GQ153546-HM134917</text>
<text x="750" y="34" font-weight = "10" font-family="verdana" fill="black" font-size="15">GQ153545-HM134917</text>
<text x="750" y="20" font-weight = "10" font-family="verdana" fill="black" font-size="15">GQ153544-HM134917</text>
<line x1="198.5" y1="633.89130434783" x2="297.96540367419" y2="606.48055849908" style="stroke:red; stroke-width:1;stroke-dasharray: 5, 5"/>
<line x1="299.29378826022" y1="611.3008691106" x2="296.63701908815" y2="601.66024788755" style="stroke:red; stroke-width:1"/>
<line x1="299.29378826022" y1="611.3008691106" x2="302.78571428571" y2="605.15217391304" style="stroke:red; stroke-width:1"/>
<line x1="302.78571428571" y1="605.15217391304" x2="296.63701908815" y2="601.66024788755" style="stroke:red; stroke-width:1"/>
<text x="250.64285714286" y="619.52173913043" font-weight = "10" font-family="verdana" fill="red" font-size="15">2(100%)</text>
<line x1="354.92857142857" y1="138.14130434783" x2="558.72425158238" y2="74.958877988052" style="stroke:red; stroke-width:1;stroke-dasharray: 5, 5"/>
<line x1="560.20486870086" y1="79.734626405677" x2="557.24363446389" y2="70.183129570427" style="stroke:red; stroke-width:1"/>
<line x1="560.20486870086" y1="79.734626405677" x2="563.5" y2="73.478260869565" style="stroke:red; stroke-width:1"/>
<line x1="563.5" y1="73.478260869565" x2="557.24363446389" y2="70.183129570427" style="stroke:red; stroke-width:1"/>
<text x="459.21428571429" y="105.8097826087" font-weight = "10" font-family="verdana" fill="red" font-size="15">3(100%)</text>
<line x1="250.64285714286" y1="619.52173913043" x2="203.32031061153" y2="632.56291976179" style="stroke:red; stroke-width:1;stroke-dasharray: 5, 5"/>
<line x1="201.99192602549" y1="627.74260915027" x2="204.64869519756" y2="637.38323037332" style="stroke:red; stroke-width:1"/>
<line x1="201.99192602549" y1="627.74260915027" x2="198.5" y2="633.89130434783" style="stroke:red; stroke-width:1"/>
<line x1="198.5" y1="633.89130434783" x2="204.64869519756" y2="637.38323037332" style="stroke:red; stroke-width:1"/>
<text x="224.57142857143" y="626.70652173913" font-weight = "10" font-family="verdana" fill="red" font-size="15">4(100%)</text>
<line x1="354.92857142857" y1="138.14130434783" x2="454.48690863809" y2="103.84585867567" style="stroke:red; stroke-width:1;stroke-dasharray: 5, 5"/>
<line x1="456.11537600941" y1="108.57323575186" x2="452.85844126677" y2="99.118481599471" style="stroke:red; stroke-width:1"/>
<line x1="456.11537600941" y1="108.57323575186" x2="459.21428571429" y2="102.21739130435" style="stroke:red; stroke-width:1"/>
<line x1="459.21428571429" y1="102.21739130435" x2="452.85844126677" y2="99.118481599471" style="stroke:red; stroke-width:1"/>
<text x="407.07142857143" y="120.17934782609" font-weight = "10" font-family="verdana" fill="red" font-size="15">5(100%)</text>
<line x1="354.92857142857" y1="138.14130434783" x2="662.99466951366" y2="46.169476543995" style="stroke:red; stroke-width:1;stroke-dasharray: 5, 5"/>
<line x1="664.42501562287" y1="50.960521316052" x2="661.56432340444" y2="41.378431771937" style="stroke:red; stroke-width:1"/>
<line x1="664.42501562287" y1="50.960521316052" x2="667.78571428571" y2="44.739130434783" style="stroke:red; stroke-width:1"/>
<line x1="667.78571428571" y1="44.739130434783" x2="661.56432340444" y2="41.378431771937" style="stroke:red; stroke-width:1"/>
<text x="511.35714285714" y="91.440217391304" font-weight = "10" font-family="verdana" fill="red" font-size="15">6(100%)</text>
<line x1="354.92857142857" y1="138.14130434783" x2="506.59711412096" y2="89.378226828829" style="stroke:red; stroke-width:1;stroke-dasharray: 5, 5"/>
<line x1="508.12751486283" y1="94.13825556501" x2="505.06671337909" y2="84.618198092647" style="stroke:red; stroke-width:1"/>
<line x1="508.12751486283" y1="94.13825556501" x2="511.35714285714" y2="87.847826086957" style="stroke:red; stroke-width:1"/>
<line x1="511.35714285714" y1="87.847826086957" x2="505.06671337909" y2="84.618198092647" style="stroke:red; stroke-width:1"/>
<text x="433.14285714286" y="112.99456521739" font-weight = "10" font-family="verdana" fill="red" font-size="15">7(100%)</text>
<line x1="354.92857142857" y1="138.14130434783" x2="715.13323602331" y2="31.785460111469" style="stroke:red; stroke-width:1;stroke-dasharray: 5, 5"/>
<line x1="716.54913091739" y1="36.580795516728" x2="713.71734112924" y2="26.990124706211" style="stroke:red; stroke-width:1"/>
<line x1="716.54913091739" y1="36.580795516728" x2="719.92857142857" y2="30.369565217391" style="stroke:red; stroke-width:1"/>
<line x1="719.92857142857" y1="30.369565217391" x2="713.71734112924" y2="26.990124706211" style="stroke:red; stroke-width:1"/>
<text x="537.42857142857" y="84.255434782609" font-weight = "10" font-family="verdana" fill="red" font-size="15">8(100%)</text>
<line x1="407.07142857143" y1="116.58695652174" x2="359.54934429308" y2="136.23121059761" style="stroke:red; stroke-width:1;stroke-dasharray: 5, 5"/>
<line x1="357.63925054286" y1="131.6104377331" x2="361.4594380433" y2="140.85198346212" style="stroke:red; stroke-width:1"/>
<line x1="357.63925054286" y1="131.6104377331" x2="354.92857142857" y2="138.14130434783" style="stroke:red; stroke-width:1"/>
<line x1="354.92857142857" y1="138.14130434783" x2="361.4594380433" y2="140.85198346212" style="stroke:red; stroke-width:1"/>
<text x="381" y="127.36413043478" font-weight = "10" font-family="verdana" fill="red" font-size="15">9(100%)</text>
<line x1="250.64285714286" y1="576.41304347826" x2="300.91601937501" y2="451.72422305935" style="stroke:red; stroke-width:1;stroke-dasharray: 5, 5"/>
<line x1="305.55328591262" y1="453.59391797006" x2="296.27875283739" y2="449.85452814865" style="stroke:red; stroke-width:1"/>
<line x1="305.55328591262" y1="453.59391797006" x2="302.78571428571" y2="447.08695652174" style="stroke:red; stroke-width:1"/>
<line x1="302.78571428571" y1="447.08695652174" x2="296.27875283739" y2="449.85452814865" style="stroke:red; stroke-width:1"/>
<text x="276.71428571429" y="511.75" font-weight = "10" font-family="verdana" fill="red" font-size="15">10(100%)</text>
<line x1="302.78571428571" y1="188.4347826087" x2="507.50357403383" y2="357.68365760355" style="stroke:red; stroke-width:1;stroke-dasharray: 5, 5"/>
<line x1="504.31766641998" y1="361.53722642686" x2="510.68948164767" y2="353.83008878023" style="stroke:red; stroke-width:1"/>
<line x1="504.31766641998" y1="361.53722642686" x2="511.35714285714" y2="360.86956521739" style="stroke:red; stroke-width:1"/>
<line x1="511.35714285714" y1="360.86956521739" x2="510.68948164767" y2="353.83008878023" style="stroke:red; stroke-width:1"/>
<text x="407.07142857143" y="274.65217391304" font-weight = "10" font-family="verdana" fill="red" font-size="15">11(100%)</text>
<line x1="667.78571428571" y1="245.91304347826" x2="620.02178742784" y2="272.23867654216" style="stroke:red; stroke-width:1;stroke-dasharray: 5, 5"/>
<line x1="617.60829005695" y1="267.85974625718" x2="622.43528479873" y2="276.61760682714" style="stroke:red; stroke-width:1"/>
<line x1="617.60829005695" y1="267.85974625718" x2="615.64285714286" y2="274.65217391304" style="stroke:red; stroke-width:1"/>
<line x1="615.64285714286" y1="274.65217391304" x2="622.43528479873" y2="276.61760682714" style="stroke:red; stroke-width:1"/>
<text x="641.71428571429" y="260.28260869565" font-weight = "10" font-family="verdana" fill="red" font-size="15">12(100%)</text>
<line x1="354.92857142857" y1="490.19565217391" x2="354.92857142857" y2="107.32965353261" style="stroke:red; stroke-width:1;stroke-dasharray: 5, 5"/>
<line x1="359.92857142857" y1="107.32965353261" x2="349.92857142857" y2="107.32965353261" style="stroke:red; stroke-width:1"/>
<line x1="359.92857142857" y1="107.32965353261" x2="354.92857142857" y2="102.32965353261" style="stroke:red; stroke-width:1"/>
<line x1="354.92857142857" y1="102.32965353261" x2="349.92857142857" y2="107.32965353261" style="stroke:red; stroke-width:1"/>
<text x="354.92857142857" y="296.26265285326" font-weight = "10" font-family="verdana" fill="red" font-size="15">13(100%)</text>
<line x1="667.78571428571" y1="245.91304347826" x2="306.71413751569" y2="530.2112117272" style="stroke:red; stroke-width:1;stroke-dasharray: 5, 5"/>
<line x1="303.6210014168" y1="526.28278849723" x2="309.80727361457" y2="534.13963495718" style="stroke:red; stroke-width:1"/>
<line x1="303.6210014168" y1="526.28278849723" x2="302.78571428571" y2="533.30434782609" style="stroke:red; stroke-width:1"/>
<line x1="302.78571428571" y1="533.30434782609" x2="309.80727361457" y2="534.13963495718" style="stroke:red; stroke-width:1"/>
<text x="485.28571428571" y="389.60869565217" font-weight = "10" font-family="verdana" fill="red" font-size="15">14(100%)</text>
<line x1="407.07142857143" y1="432.71739130435" x2="254.32507546634" y2="573.03054910011" style="stroke:red; stroke-width:1;stroke-dasharray: 5, 5"/>
<line x1="250.94258108819" y1="569.34833077663" x2="257.70756984449" y2="576.71276742359" style="stroke:red; stroke-width:1"/>
<line x1="250.94258108819" y1="569.34833077663" x2="250.64285714286" y2="576.41304347826" style="stroke:red; stroke-width:1"/>
<line x1="250.64285714286" y1="576.41304347826" x2="257.70756984449" y2="576.71276742359" style="stroke:red; stroke-width:1"/>
<text x="328.85714285714" y="504.5652173913" font-weight = "10" font-family="verdana" fill="red" font-size="15">15(100%)</text>
<line x1="302.78571428571" y1="188.4347826087" x2="354.1148610639" y2="499.63187415954" style="stroke:red; stroke-width:1;stroke-dasharray: 5, 5"/>
<line x1="349.18151783213" y1="500.44558452421" x2="359.04820429567" y2="498.81816379487" style="stroke:red; stroke-width:1"/>
<line x1="349.18151783213" y1="500.44558452421" x2="354.92857142857" y2="504.5652173913" style="stroke:red; stroke-width:1"/>
<line x1="354.92857142857" y1="504.5652173913" x2="359.04820429567" y2="498.81816379487" style="stroke:red; stroke-width:1"/>
<text x="328.85714285714" y="346.5" font-weight = "10" font-family="verdana" fill="red" font-size="15">16(100%)</text>
<line x1="511.35714285714" y1="389.60869565217" x2="359.13414909313" y2="487.49137472747" style="stroke:red; stroke-width:1;stroke-dasharray: 5, 5"/>
<line x1="356.42987164669" y1="483.28579706291" x2="361.83842653958" y2="491.69695239203" style="stroke:red; stroke-width:1"/>
<line x1="356.42987164669" y1="483.28579706291" x2="354.92857142857" y2="490.19565217391" style="stroke:red; stroke-width:1"/>
<line x1="354.92857142857" y1="490.19565217391" x2="361.83842653958" y2="491.69695239203" style="stroke:red; stroke-width:1"/>
<text x="433.14285714286" y="439.90217391304" font-weight = "10" font-family="verdana" fill="red" font-size="15">17(100%)</text>
<line x1="615.64285714286" y1="289.02173913043" x2="514.95592060716" y2="386.13755769669" style="stroke:red; stroke-width:1;stroke-dasharray: 5, 5"/>
<line x1="511.48478265167" y1="382.53877994668" x2="518.42705856264" y2="389.7363354467" style="stroke:red; stroke-width:1"/>
<line x1="511.48478265167" y1="382.53877994668" x2="511.35714285714" y2="389.60869565217" style="stroke:red; stroke-width:1"/>
<line x1="511.35714285714" y1="389.60869565217" x2="518.42705856264" y2="389.7363354467" style="stroke:red; stroke-width:1"/>
<text x="563.5" y="339.3152173913" font-weight = "10" font-family="verdana" fill="red" font-size="15">18(100%)</text>
<line x1="615.64285714286" y1="289.02173913043" x2="411.32083434739" y2="415.71295406896" style="stroke:red; stroke-width:1;stroke-dasharray: 5, 5"/>
<line x1="408.6859623294" y1="411.463548293" x2="413.95570636539" y2="419.96235984493" style="stroke:red; stroke-width:1"/>
<line x1="408.6859623294" y1="411.463548293" x2="407.07142857143" y2="418.34782608696" style="stroke:red; stroke-width:1"/>
<line x1="407.07142857143" y1="418.34782608696" x2="413.95570636539" y2="419.96235984493" style="stroke:red; stroke-width:1"/>
<text x="511.35714285714" y="353.6847826087" font-weight = "10" font-family="verdana" fill="red" font-size="15">19(100%)</text>
<line x1="615.64285714286" y1="289.02173913043" x2="254.64668839634" y2="559.04859340605" style="stroke:red; stroke-width:1;stroke-dasharray: 5, 5"/>
<line x1="251.65180354152" y1="555.04476215257" x2="257.64157325116" y2="563.05242465953" style="stroke:red; stroke-width:1"/>
<line x1="251.65180354152" y1="555.04476215257" x2="250.64285714286" y2="562.04347826087" style="stroke:red; stroke-width:1"/>
<line x1="250.64285714286" y1="562.04347826087" x2="257.64157325116" y2="563.05242465953" style="stroke:red; stroke-width:1"/>
<text x="433.14285714286" y="425.53260869565" font-weight = "10" font-family="verdana" fill="red" font-size="15">20(100%)</text>
<line x1="615.64285714286" y1="289.02173913043" x2="359.09894441073" y2="458.69826337747" style="stroke:red; stroke-width:1;stroke-dasharray: 5, 5"/>
<line x1="356.34068604907" y1="454.52789039531" x2="361.85720277239" y2="462.86863635963" style="stroke:red; stroke-width:1"/>
<line x1="356.34068604907" y1="454.52789039531" x2="354.92857142857" y2="461.45652173913" style="stroke:red; stroke-width:1"/>
<line x1="354.92857142857" y1="461.45652173913" x2="361.85720277239" y2="462.86863635963" style="stroke:red; stroke-width:1"/>
<text x="485.28571428571" y="375.23913043478" font-weight = "10" font-family="verdana" fill="red" font-size="15">21(100%)</text>
<line x1="563.5" y1="296.20652173913" x2="514.11066730031" y2="371.06563032805" style="stroke:red; stroke-width:1;stroke-dasharray: 5, 5"/>
<line x1="509.93716719358" y1="368.31210588488" x2="518.28416740704" y2="373.81915477122" style="stroke:red; stroke-width:1"/>
<line x1="509.93716719358" y1="368.31210588488" x2="511.35714285714" y2="375.23913043478" style="stroke:red; stroke-width:1"/>
<line x1="511.35714285714" y1="375.23913043478" x2="518.28416740704" y2="373.81915477122" style="stroke:red; stroke-width:1"/>
<text x="537.42857142857" y="335.72282608696" font-weight = "10" font-family="verdana" fill="red" font-size="15">22(100%)</text>
<line x1="563.5" y1="346.5" x2="563.5" y2="301.20652173913" style="stroke:red; stroke-width:1;stroke-dasharray: 5, 5"/>
<line x1="568.5" y1="301.20652173913" x2="558.5" y2="301.20652173913" style="stroke:red; stroke-width:1"/>
<line x1="568.5" y1="301.20652173913" x2="563.5" y2="296.20652173913" style="stroke:red; stroke-width:1"/>
<line x1="563.5" y1="296.20652173913" x2="558.5" y2="301.20652173913" style="stroke:red; stroke-width:1"/>
<text x="563.5" y="321.35326086957" font-weight = "10" font-family="verdana" fill="red" font-size="15">23(100%)</text>
<line x1="563.5" y1="346.5" x2="359.17797720454" y2="473.19121493853" style="stroke:red; stroke-width:1;stroke-dasharray: 5, 5"/>
<line x1="356.54310518654" y1="468.94180916256" x2="361.81284922253" y2="477.44062071449" style="stroke:red; stroke-width:1"/>
<line x1="356.54310518654" y1="468.94180916256" x2="354.92857142857" y2="475.82608695652" style="stroke:red; stroke-width:1"/>
<line x1="354.92857142857" y1="475.82608695652" x2="361.81284922253" y2="477.44062071449" style="stroke:red; stroke-width:1"/>
<text x="459.21428571429" y="411.16304347826" font-weight = "10" font-family="verdana" fill="red" font-size="15">24(100%)</text>
<line x1="667.78571428571" y1="245.91304347826" x2="567.09877775001" y2="343.02886204452" style="stroke:red; stroke-width:1;stroke-dasharray: 5, 5"/>
<line x1="563.62763979453" y1="339.4300842945" x2="570.5699157055" y2="346.62763979453" style="stroke:red; stroke-width:1"/>
<line x1="563.62763979453" y1="339.4300842945" x2="563.5" y2="346.5" style="stroke:red; stroke-width:1"/>
<line x1="563.5" y1="346.5" x2="570.5699157055" y2="346.62763979453" style="stroke:red; stroke-width:1"/>
<text x="615.64285714286" y="296.20652173913" font-weight = "10" font-family="verdana" fill="red" font-size="15">25(100%)</text>
<line x1="667.78571428571" y1="245.91304347826" x2="620.46316775438" y2="258.95422410962" style="stroke:red; stroke-width:1;stroke-dasharray: 5, 5"/>
<line x1="619.13478316835" y1="254.13391349809" x2="621.79155234042" y2="263.77453472114" style="stroke:red; stroke-width:1"/>
<line x1="619.13478316835" y1="254.13391349809" x2="615.64285714286" y2="260.28260869565" style="stroke:red; stroke-width:1"/>
<line x1="615.64285714286" y1="260.28260869565" x2="621.79155234042" y2="263.77453472114" style="stroke:red; stroke-width:1"/>
<text x="641.71428571429" y="253.09782608696" font-weight = "10" font-family="verdana" fill="red" font-size="15">26(100%)</text>
<line x1="667.78571428571" y1="245.91304347826" x2="307.65180244456" y2="160.8450807408" style="stroke:red; stroke-width:1;stroke-dasharray: 5, 5"/>
<line x1="308.80123101144" y1="155.97899258195" x2="306.50237387767" y2="165.71116889964" style="stroke:red; stroke-width:1"/>
<line x1="308.80123101144" y1="155.97899258195" x2="302.78571428571" y2="159.69565217391" style="stroke:red; stroke-width:1"/>
<line x1="302.78571428571" y1="159.69565217391" x2="306.50237387767" y2="165.71116889964" style="stroke:red; stroke-width:1"/>
<text x="485.28571428571" y="202.80434782609" font-weight = "10" font-family="verdana" fill="red" font-size="15">27(100%)</text>
<line x1="667.78571428571" y1="245.91304347826" x2="411.13581601104" y2="429.805217762" style="stroke:red; stroke-width:1;stroke-dasharray: 5, 5"/>
<line x1="408.22364246869" y1="425.74083032239" x2="414.04798955338" y2="433.86960520161" style="stroke:red; stroke-width:1"/>
<line x1="408.22364246869" y1="425.74083032239" x2="407.07142857143" y2="432.71739130435" style="stroke:red; stroke-width:1"/>
<line x1="407.07142857143" y1="432.71739130435" x2="414.04798955338" y2="433.86960520161" style="stroke:red; stroke-width:1"/>
<text x="537.42857142857" y="339.3152173913" font-weight = "10" font-family="verdana" fill="red" font-size="15">28(100%)</text>
<line x1="615.64285714286" y1="238.72826086957" x2="462.65157204247" y2="400.34713670506" style="stroke:red; stroke-width:1;stroke-dasharray: 5, 5"/>
<line x1="459.02044787797" y1="396.90985037687" x2="466.28269620698" y2="403.78442303325" style="stroke:red; stroke-width:1"/>
<line x1="459.02044787797" y1="396.90985037687" x2="459.21428571429" y2="403.97826086957" style="stroke:red; stroke-width:1"/>
<line x1="459.21428571429" y1="403.97826086957" x2="466.28269620698" y2="403.78442303325" style="stroke:red; stroke-width:1"/>
<text x="537.42857142857" y="321.35326086957" font-weight = "10" font-family="verdana" fill="red" font-size="15">29(100%)</text>
<line x1="615.64285714286" y1="238.72826086957" x2="306.51025384108" y2="515.59894611682" style="stroke:red; stroke-width:1;stroke-dasharray: 5, 5"/>
<line x1="303.1744173492" y1="511.87440656146" x2="309.84609033295" y2="519.32348567218" style="stroke:red; stroke-width:1"/>
<line x1="303.1744173492" y1="511.87440656146" x2="302.78571428571" y2="518.9347826087" style="stroke:red; stroke-width:1"/>
<line x1="302.78571428571" y1="518.9347826087" x2="309.84609033295" y2="519.32348567218" style="stroke:red; stroke-width:1"/>
<text x="459.21428571429" y="378.83152173913" font-weight = "10" font-family="verdana" fill="red" font-size="15">30(100%)</text>
<line x1="667.78571428571" y1="217.17391304348" x2="620.26363000737" y2="236.81816711935" style="stroke:red; stroke-width:1;stroke-dasharray: 5, 5"/>
<line x1="618.35353625715" y1="232.19739425484" x2="622.17372375758" y2="241.43893998386" style="stroke:red; stroke-width:1"/>
<line x1="618.35353625715" y1="232.19739425484" x2="615.64285714286" y2="238.72826086957" style="stroke:red; stroke-width:1"/>
<line x1="615.64285714286" y1="238.72826086957" x2="622.17372375758" y2="241.43893998386" style="stroke:red; stroke-width:1"/>
<text x="641.71428571429" y="227.95108695652" font-weight = "10" font-family="verdana" fill="red" font-size="15">31(100%)</text>
<line x1="667.78571428571" y1="217.17391304348" x2="566.85947805473" y2="328.42720548917" style="stroke:red; stroke-width:1;stroke-dasharray: 5, 5"/>
<line x1="563.15624876129" y1="325.06772743444" x2="570.56270734817" y2="331.78668354389" style="stroke:red; stroke-width:1"/>
<line x1="563.15624876129" y1="325.06772743444" x2="563.5" y2="332.13043478261" style="stroke:red; stroke-width:1"/>
<line x1="563.5" y1="332.13043478261" x2="570.56270734817" y2="331.78668354389" style="stroke:red; stroke-width:1"/>
<text x="615.64285714286" y="274.65217391304" font-weight = "10" font-family="verdana" fill="red" font-size="15">32(100%)</text>
<line x1="615.64285714286" y1="209.98913043478" x2="307.75307457592" y2="174.63559599123" style="stroke:red; stroke-width:1;stroke-dasharray: 5, 5"/>
<line x1="308.32345317585" y1="169.66823570103" x2="307.18269597599" y2="179.60295628144" style="stroke:red; stroke-width:1"/>
<line x1="308.32345317585" y1="169.66823570103" x2="302.78571428571" y2="174.0652173913" style="stroke:red; stroke-width:1"/>
<line x1="302.78571428571" y1="174.0652173913" x2="307.18269597599" y2="179.60295628144" style="stroke:red; stroke-width:1"/>
<text x="459.21428571429" y="192.02717391304" font-weight = "10" font-family="verdana" fill="red" font-size="15">33(100%)</text>
<line x1="407.07142857143" y1="145.32608695652" x2="611.02208427835" y2="61.01878940239" style="stroke:red; stroke-width:1;stroke-dasharray: 5, 5"/>
<line x1="612.93217802856" y1="65.639562266899" x2="609.11199052813" y2="56.398016537881" style="stroke:red; stroke-width:1"/>
<line x1="612.93217802856" y1="65.639562266899" x2="615.64285714286" y2="59.108695652174" style="stroke:red; stroke-width:1"/>
<line x1="615.64285714286" y1="59.108695652174" x2="609.11199052813" y2="56.398016537881" style="stroke:red; stroke-width:1"/>
<text x="511.35714285714" y="102.21739130435" font-weight = "10" font-family="verdana" fill="red" font-size="15">1(100%)</text>
</g></svg>