<?xml version="1.0" encoding="iso-8859-1"?>
<!DOCTYPE svg PUBLIC "-//W3C//DTD SVG 1.0//EN" "http://www.w3.org/TR/2001/REC-SVG-20010904/DTD/svg10.dtd">
<svg width="912" height="723" xmlns="http://www.w3.org/2000/svg" xmlns:xlink="http://www.w3.org/1999/xlink">
<g style="stroke:black;fill:lightgreen" transform="translate(30,30)">
<line x1="277" y1="526" x2="277" y2="519" style="stroke:blue; stroke-width:1"/>
<line x1="277" y1="519" x2="329" y2="519" style="stroke:blue; stroke-width:1"/>
<line x1="277" y1="526" x2="277" y2="533" style="stroke:blue; stroke-width:1"/>
<line x1="277" y1="533" x2="329" y2="533" style="stroke:blue; stroke-width:1"/>
<line x1="225" y1="537" x2="225" y2="548" style="stroke:blue; stroke-width:1"/>
<line x1="225" y1="548" x2="277" y2="548" style="stroke:blue; stroke-width:1"/>
<line x1="225" y1="655" x2="225" y2="663" style="stroke:blue; stroke-width:1"/>
<line x1="225" y1="663" x2="277" y2="663" style="stroke:blue; stroke-width:1"/>
<line x1="225" y1="655" x2="225" y2="648" style="stroke:blue; stroke-width:1"/>
<line x1="225" y1="648" x2="277" y2="648" style="stroke:blue; stroke-width:1"/>
<line x1="172" y1="666" x2="172" y2="677" style="stroke:blue; stroke-width:1"/>
<line x1="172" y1="677" x2="225" y2="677" style="stroke:blue; stroke-width:1"/>
<line x1="277" y1="598" x2="277" y2="605" style="stroke:blue; stroke-width:1"/>
<line x1="277" y1="605" x2="329" y2="605" style="stroke:blue; stroke-width:1"/>
<line x1="277" y1="598" x2="277" y2="591" style="stroke:blue; stroke-width:1"/>
<line x1="277" y1="591" x2="329" y2="591" style="stroke:blue; stroke-width:1"/>
<line x1="225" y1="609" x2="225" y2="620" style="stroke:blue; stroke-width:1"/>
<line x1="225" y1="620" x2="277" y2="620" style="stroke:blue; stroke-width:1"/>
<line x1="172" y1="621" x2="172" y2="634" style="stroke:blue; stroke-width:1"/>
<line x1="172" y1="634" x2="225" y2="634" style="stroke:blue; stroke-width:1"/>
<line x1="329" y1="497" x2="329" y2="505" style="stroke:blue; stroke-width:1"/>
<line x1="329" y1="505" x2="381" y2="505" style="stroke:blue; stroke-width:1"/>
<line x1="329" y1="497" x2="329" y2="490" style="stroke:blue; stroke-width:1"/>
<line x1="329" y1="490" x2="381" y2="490" style="stroke:blue; stroke-width:1"/>
<line x1="329" y1="469" x2="329" y2="461" style="stroke:blue; stroke-width:1"/>
<line x1="329" y1="461" x2="381" y2="461" style="stroke:blue; stroke-width:1"/>
<line x1="329" y1="469" x2="329" y2="476" style="stroke:blue; stroke-width:1"/>
<line x1="329" y1="476" x2="381" y2="476" style="stroke:blue; stroke-width:1"/>
<line x1="381" y1="426" x2="381" y2="433" style="stroke:blue; stroke-width:1"/>
<line x1="381" y1="433" x2="433" y2="433" style="stroke:blue; stroke-width:1"/>
<line x1="381" y1="426" x2="381" y2="418" style="stroke:blue; stroke-width:1"/>
<line x1="381" y1="418" x2="433" y2="418" style="stroke:blue; stroke-width:1"/>
<line x1="642" y1="210" x2="642" y2="203" style="stroke:blue; stroke-width:1"/>
<line x1="642" y1="203" x2="694" y2="203" style="stroke:blue; stroke-width:1"/>
<line x1="642" y1="210" x2="642" y2="217" style="stroke:blue; stroke-width:1"/>
<line x1="642" y1="217" x2="694" y2="217" style="stroke:blue; stroke-width:1"/>
<line x1="642" y1="239" x2="642" y2="246" style="stroke:blue; stroke-width:1"/>
<line x1="642" y1="246" x2="694" y2="246" style="stroke:blue; stroke-width:1"/>
<line x1="642" y1="239" x2="642" y2="232" style="stroke:blue; stroke-width:1"/>
<line x1="642" y1="232" x2="694" y2="232" style="stroke:blue; stroke-width:1"/>
<line x1="590" y1="267" x2="590" y2="260" style="stroke:blue; stroke-width:1"/>
<line x1="590" y1="260" x2="642" y2="260" style="stroke:blue; stroke-width:1"/>
<line x1="590" y1="267" x2="590" y2="275" style="stroke:blue; stroke-width:1"/>
<line x1="590" y1="275" x2="642" y2="275" style="stroke:blue; stroke-width:1"/>
<line x1="590" y1="296" x2="590" y2="303" style="stroke:blue; stroke-width:1"/>
<line x1="590" y1="303" x2="642" y2="303" style="stroke:blue; stroke-width:1"/>
<line x1="590" y1="296" x2="590" y2="289" style="stroke:blue; stroke-width:1"/>
<line x1="590" y1="289" x2="642" y2="289" style="stroke:blue; stroke-width:1"/>
<line x1="537" y1="307" x2="537" y2="318" style="stroke:blue; stroke-width:1"/>
<line x1="537" y1="318" x2="590" y2="318" style="stroke:blue; stroke-width:1"/>
<line x1="537" y1="339" x2="537" y2="332" style="stroke:blue; stroke-width:1"/>
<line x1="537" y1="332" x2="590" y2="332" style="stroke:blue; stroke-width:1"/>
<line x1="537" y1="339" x2="537" y2="346" style="stroke:blue; stroke-width:1"/>
<line x1="537" y1="346" x2="590" y2="346" style="stroke:blue; stroke-width:1"/>
<line x1="485" y1="350" x2="485" y2="361" style="stroke:blue; stroke-width:1"/>
<line x1="485" y1="361" x2="537" y2="361" style="stroke:blue; stroke-width:1"/>
<line x1="485" y1="382" x2="485" y2="375" style="stroke:blue; stroke-width:1"/>
<line x1="485" y1="375" x2="537" y2="375" style="stroke:blue; stroke-width:1"/>
<line x1="485" y1="382" x2="485" y2="390" style="stroke:blue; stroke-width:1"/>
<line x1="485" y1="390" x2="537" y2="390" style="stroke:blue; stroke-width:1"/>
<line x1="433" y1="393" x2="433" y2="404" style="stroke:blue; stroke-width:1"/>
<line x1="433" y1="404" x2="485" y2="404" style="stroke:blue; stroke-width:1"/>
<line x1="277" y1="418" x2="277" y2="447" style="stroke:blue; stroke-width:1"/>
<line x1="277" y1="447" x2="329" y2="447" style="stroke:blue; stroke-width:1"/>
<line x1="381" y1="138" x2="381" y2="145" style="stroke:blue; stroke-width:1"/>
<line x1="381" y1="145" x2="433" y2="145" style="stroke:blue; stroke-width:1"/>
<line x1="381" y1="138" x2="381" y2="131" style="stroke:blue; stroke-width:1"/>
<line x1="381" y1="131" x2="433" y2="131" style="stroke:blue; stroke-width:1"/>
<line x1="694" y1="23" x2="694" y2="30" style="stroke:blue; stroke-width:1"/>
<line x1="694" y1="30" x2="746" y2="30" style="stroke:blue; stroke-width:1"/>
<line x1="694" y1="23" x2="694" y2="16" style="stroke:blue; stroke-width:1"/>
<line x1="694" y1="16" x2="746" y2="16" style="stroke:blue; stroke-width:1"/>
<line x1="642" y1="34" x2="642" y2="45" style="stroke:blue; stroke-width:1"/>
<line x1="642" y1="45" x2="694" y2="45" style="stroke:blue; stroke-width:1"/>
<line x1="590" y1="47" x2="590" y2="59" style="stroke:blue; stroke-width:1"/>
<line x1="590" y1="59" x2="642" y2="59" style="stroke:blue; stroke-width:1"/>
<line x1="537" y1="60" x2="537" y2="73" style="stroke:blue; stroke-width:1"/>
<line x1="537" y1="73" x2="590" y2="73" style="stroke:blue; stroke-width:1"/>
<line x1="485" y1="74" x2="485" y2="88" style="stroke:blue; stroke-width:1"/>
<line x1="485" y1="88" x2="537" y2="88" style="stroke:blue; stroke-width:1"/>
<line x1="433" y1="88" x2="433" y2="102" style="stroke:blue; stroke-width:1"/>
<line x1="433" y1="102" x2="485" y2="102" style="stroke:blue; stroke-width:1"/>
<line x1="381" y1="102" x2="381" y2="117" style="stroke:blue; stroke-width:1"/>
<line x1="381" y1="117" x2="433" y2="117" style="stroke:blue; stroke-width:1"/>
<line x1="277" y1="140" x2="277" y2="160" style="stroke:blue; stroke-width:1"/>
<line x1="277" y1="160" x2="329" y2="160" style="stroke:blue; stroke-width:1"/>
<line x1="277" y1="181" x2="277" y2="188" style="stroke:blue; stroke-width:1"/>
<line x1="277" y1="188" x2="329" y2="188" style="stroke:blue; stroke-width:1"/>
<line x1="277" y1="181" x2="277" y2="174" style="stroke:blue; stroke-width:1"/>
<line x1="277" y1="174" x2="329" y2="174" style="stroke:blue; stroke-width:1"/>
<line x1="225" y1="569" x2="225" y2="576" style="stroke:blue; stroke-width:1"/>
<line x1="225" y1="576" x2="277" y2="576" style="stroke:blue; stroke-width:1"/>
<line x1="225" y1="569" x2="225" y2="562" style="stroke:blue; stroke-width:1"/>
<line x1="225" y1="562" x2="277" y2="562" style="stroke:blue; stroke-width:1"/>
<line x1="225" y1="537" x2="225" y2="526" style="stroke:blue; stroke-width:1"/>
<line x1="225" y1="526" x2="277" y2="526" style="stroke:blue; stroke-width:1"/>
<line x1="172" y1="553" x2="172" y2="537" style="stroke:blue; stroke-width:1"/>
<line x1="172" y1="537" x2="225" y2="537" style="stroke:blue; stroke-width:1"/>
<line x1="277" y1="483" x2="277" y2="497" style="stroke:blue; stroke-width:1"/>
<line x1="277" y1="497" x2="329" y2="497" style="stroke:blue; stroke-width:1"/>
<line x1="225" y1="451" x2="225" y2="483" style="stroke:blue; stroke-width:1"/>
<line x1="225" y1="483" x2="277" y2="483" style="stroke:blue; stroke-width:1"/>
<line x1="277" y1="483" x2="277" y2="469" style="stroke:blue; stroke-width:1"/>
<line x1="277" y1="469" x2="329" y2="469" style="stroke:blue; stroke-width:1"/>
<line x1="172" y1="306" x2="172" y2="451" style="stroke:blue; stroke-width:1"/>
<line x1="172" y1="451" x2="225" y2="451" style="stroke:blue; stroke-width:1"/>
<line x1="225" y1="451" x2="225" y2="418" style="stroke:blue; stroke-width:1"/>
<line x1="225" y1="418" x2="277" y2="418" style="stroke:blue; stroke-width:1"/>
<line x1="329" y1="389" x2="329" y2="426" style="stroke:blue; stroke-width:1"/>
<line x1="329" y1="426" x2="381" y2="426" style="stroke:blue; stroke-width:1"/>
<line x1="277" y1="418" x2="277" y2="389" style="stroke:blue; stroke-width:1"/>
<line x1="277" y1="389" x2="329" y2="389" style="stroke:blue; stroke-width:1"/>
<line x1="433" y1="393" x2="433" y2="382" style="stroke:blue; stroke-width:1"/>
<line x1="433" y1="382" x2="485" y2="382" style="stroke:blue; stroke-width:1"/>
<line x1="381" y1="353" x2="381" y2="393" style="stroke:blue; stroke-width:1"/>
<line x1="381" y1="393" x2="433" y2="393" style="stroke:blue; stroke-width:1"/>
<line x1="329" y1="389" x2="329" y2="353" style="stroke:blue; stroke-width:1"/>
<line x1="329" y1="353" x2="381" y2="353" style="stroke:blue; stroke-width:1"/>
<line x1="485" y1="350" x2="485" y2="339" style="stroke:blue; stroke-width:1"/>
<line x1="485" y1="339" x2="537" y2="339" style="stroke:blue; stroke-width:1"/>
<line x1="433" y1="313" x2="433" y2="350" style="stroke:blue; stroke-width:1"/>
<line x1="433" y1="350" x2="485" y2="350" style="stroke:blue; stroke-width:1"/>
<line x1="381" y1="353" x2="381" y2="313" style="stroke:blue; stroke-width:1"/>
<line x1="381" y1="313" x2="433" y2="313" style="stroke:blue; stroke-width:1"/>
<line x1="590" y1="224" x2="590" y2="239" style="stroke:blue; stroke-width:1"/>
<line x1="590" y1="239" x2="642" y2="239" style="stroke:blue; stroke-width:1"/>
<line x1="537" y1="246" x2="537" y2="224" style="stroke:blue; stroke-width:1"/>
<line x1="537" y1="224" x2="590" y2="224" style="stroke:blue; stroke-width:1"/>
<line x1="590" y1="224" x2="590" y2="210" style="stroke:blue; stroke-width:1"/>
<line x1="590" y1="210" x2="642" y2="210" style="stroke:blue; stroke-width:1"/>
<line x1="485" y1="276" x2="485" y2="246" style="stroke:blue; stroke-width:1"/>
<line x1="485" y1="246" x2="537" y2="246" style="stroke:blue; stroke-width:1"/>
<line x1="537" y1="246" x2="537" y2="267" style="stroke:blue; stroke-width:1"/>
<line x1="537" y1="267" x2="590" y2="267" style="stroke:blue; stroke-width:1"/>
<line x1="433" y1="313" x2="433" y2="276" style="stroke:blue; stroke-width:1"/>
<line x1="433" y1="276" x2="485" y2="276" style="stroke:blue; stroke-width:1"/>
<line x1="485" y1="276" x2="485" y2="307" style="stroke:blue; stroke-width:1"/>
<line x1="485" y1="307" x2="537" y2="307" style="stroke:blue; stroke-width:1"/>
<line x1="537" y1="307" x2="537" y2="296" style="stroke:blue; stroke-width:1"/>
<line x1="537" y1="296" x2="590" y2="296" style="stroke:blue; stroke-width:1"/>
<line x1="120" y1="429" x2="120" y2="306" style="stroke:blue; stroke-width:1"/>
<line x1="120" y1="306" x2="172" y2="306" style="stroke:blue; stroke-width:1"/>
<line x1="225" y1="161" x2="225" y2="140" style="stroke:blue; stroke-width:1"/>
<line x1="225" y1="140" x2="277" y2="140" style="stroke:blue; stroke-width:1"/>
<line x1="329" y1="120" x2="329" y2="138" style="stroke:blue; stroke-width:1"/>
<line x1="329" y1="138" x2="381" y2="138" style="stroke:blue; stroke-width:1"/>
<line x1="277" y1="140" x2="277" y2="120" style="stroke:blue; stroke-width:1"/>
<line x1="277" y1="120" x2="329" y2="120" style="stroke:blue; stroke-width:1"/>
<line x1="329" y1="120" x2="329" y2="102" style="stroke:blue; stroke-width:1"/>
<line x1="329" y1="102" x2="381" y2="102" style="stroke:blue; stroke-width:1"/>
<line x1="381" y1="102" x2="381" y2="88" style="stroke:blue; stroke-width:1"/>
<line x1="381" y1="88" x2="433" y2="88" style="stroke:blue; stroke-width:1"/>
<line x1="433" y1="88" x2="433" y2="74" style="stroke:blue; stroke-width:1"/>
<line x1="433" y1="74" x2="485" y2="74" style="stroke:blue; stroke-width:1"/>
<line x1="485" y1="74" x2="485" y2="60" style="stroke:blue; stroke-width:1"/>
<line x1="485" y1="60" x2="537" y2="60" style="stroke:blue; stroke-width:1"/>
<line x1="590" y1="47" x2="590" y2="34" style="stroke:blue; stroke-width:1"/>
<line x1="590" y1="34" x2="642" y2="34" style="stroke:blue; stroke-width:1"/>
<line x1="642" y1="34" x2="642" y2="23" style="stroke:blue; stroke-width:1"/>
<line x1="642" y1="23" x2="694" y2="23" style="stroke:blue; stroke-width:1"/>
<line x1="537" y1="60" x2="537" y2="47" style="stroke:blue; stroke-width:1"/>
<line x1="537" y1="47" x2="590" y2="47" style="stroke:blue; stroke-width:1"/>
<line x1="172" y1="306" x2="172" y2="161" style="stroke:blue; stroke-width:1"/>
<line x1="172" y1="161" x2="225" y2="161" style="stroke:blue; stroke-width:1"/>
<line x1="225" y1="161" x2="225" y2="181" style="stroke:blue; stroke-width:1"/>
<line x1="225" y1="181" x2="277" y2="181" style="stroke:blue; stroke-width:1"/>
<line x1="68" y1="537" x2="68" y2="429" style="stroke:blue; stroke-width:1"/>
<line x1="68" y1="429" x2="120" y2="429" style="stroke:blue; stroke-width:1"/>
<line x1="120" y1="644" x2="120" y2="666" style="stroke:blue; stroke-width:1"/>
<line x1="120" y1="666" x2="172" y2="666" style="stroke:blue; stroke-width:1"/>
<line x1="172" y1="666" x2="172" y2="655" style="stroke:blue; stroke-width:1"/>
<line x1="172" y1="655" x2="225" y2="655" style="stroke:blue; stroke-width:1"/>
<line x1="68" y1="537" x2="68" y2="644" style="stroke:blue; stroke-width:1"/>
<line x1="68" y1="644" x2="120" y2="644" style="stroke:blue; stroke-width:1"/>
<line x1="225" y1="609" x2="225" y2="598" style="stroke:blue; stroke-width:1"/>
<line x1="225" y1="598" x2="277" y2="598" style="stroke:blue; stroke-width:1"/>
<line x1="172" y1="621" x2="172" y2="609" style="stroke:blue; stroke-width:1"/>
<line x1="172" y1="609" x2="225" y2="609" style="stroke:blue; stroke-width:1"/>
<line x1="120" y1="644" x2="120" y2="621" style="stroke:blue; stroke-width:1"/>
<line x1="120" y1="621" x2="172" y2="621" style="stroke:blue; stroke-width:1"/>
<line x1="120" y1="429" x2="120" y2="553" style="stroke:blue; stroke-width:1"/>
<line x1="120" y1="553" x2="172" y2="553" style="stroke:blue; stroke-width:1"/>
<line x1="172" y1="553" x2="172" y2="569" style="stroke:blue; stroke-width:1"/>
<line x1="172" y1="569" x2="225" y2="569" style="stroke:blue; stroke-width:1"/>
<line x1="16" y1="537" x2="16" y2="537" style="stroke:blue; stroke-width:1"/>
<line x1="16" y1="537" x2="68" y2="537" style="stroke:blue; stroke-width:1"/>
<text x="20" y="531" font-weight = "10" font-family="verdana" fill="black" font-size="15">Root</text>
<text x="229" y="681" font-weight = "10" font-family="verdana" fill="black" font-size="15">KJ473795-AB085735</text>
<text x="281" y="667" font-weight = "10" font-family="verdana" fill="black" font-size="15">KJ473796-AB085735</text>
<text x="281" y="652" font-weight = "10" font-family="verdana" fill="black" font-size="15">EU420138-ON640726</text>
<text x="229" y="638" font-weight = "10" font-family="verdana" fill="black" font-size="15">KJ473797-AB085735</text>
<text x="281" y="624" font-weight = "10" font-family="verdana" fill="black" font-size="15">KJ473800-AB085735</text>
<text x="333" y="609" font-weight = "10" font-family="verdana" fill="black" font-size="15">KJ473798-AB085735</text>
<text x="333" y="595" font-weight = "10" font-family="verdana" fill="black" font-size="15">KJ473799-AB085735</text>
<text x="281" y="580" font-weight = "10" font-family="verdana" fill="black" font-size="15">NC_014470-MZ936290</text>
<text x="281" y="566" font-weight = "10" font-family="verdana" fill="black" font-size="15">GU190215-MZ936290</text>
<text x="281" y="552" font-weight = "10" font-family="verdana" fill="black" font-size="15">MN996532-KP972690</text>
<text x="333" y="537" font-weight = "10" font-family="verdana" fill="black" font-size="15">MG772934-HM134917</text>
<text x="333" y="523" font-weight = "10" font-family="verdana" fill="black" font-size="15">MG772933-HM134917</text>
<text x="385" y="509" font-weight = "10" font-family="verdana" fill="black" font-size="15">DQ412043-KX261916</text>
<text x="385" y="494" font-weight = "10" font-family="verdana" fill="black" font-size="15">DQ648857-KX261916</text>
<text x="385" y="480" font-weight = "10" font-family="verdana" fill="black" font-size="15">KJ473814-HM134917</text>
<text x="385" y="465" font-weight = "10" font-family="verdana" fill="black" font-size="15">JX993987-ON012504</text>
<text x="333" y="451" font-weight = "10" font-family="verdana" fill="black" font-size="15">KJ473815-HM134917</text>
<text x="437" y="437" font-weight = "10" font-family="verdana" fill="black" font-size="15">KY417147-HM134917</text>
<text x="437" y="422" font-weight = "10" font-family="verdana" fill="black" font-size="15">KY417148-HM134917</text>
<text x="489" y="408" font-weight = "10" font-family="verdana" fill="black" font-size="15">FJ588686-HM134917</text>
<text x="541" y="394" font-weight = "10" font-family="verdana" fill="black" font-size="15">KY417143-HM134917</text>
<text x="541" y="379" font-weight = "10" font-family="verdana" fill="black" font-size="15">KY417149-HM134917</text>
<text x="541" y="365" font-weight = "10" font-family="verdana" fill="black" font-size="15">KJ473816-HM134917</text>
<text x="594" y="350" font-weight = "10" font-family="verdana" fill="black" font-size="15">KY770859-HM134917</text>
<text x="594" y="336" font-weight = "10" font-family="verdana" fill="black" font-size="15">KY770858-HM134917</text>
<text x="594" y="322" font-weight = "10" font-family="verdana" fill="black" font-size="15">KY417146-HM134917</text>
<text x="646" y="307" font-weight = "10" font-family="verdana" fill="black" font-size="15">KT444582-HM134917</text>
<text x="646" y="293" font-weight = "10" font-family="verdana" fill="black" font-size="15">KY417150-HM134917</text>
<text x="646" y="279" font-weight = "10" font-family="verdana" fill="black" font-size="15">KY417152-HM134917</text>
<text x="646" y="264" font-weight = "10" font-family="verdana" fill="black" font-size="15">KY417151-HM134917</text>
<text x="698" y="250" font-weight = "10" font-family="verdana" fill="black" font-size="15">KF367457-HM134917</text>
<text x="698" y="236" font-weight = "10" font-family="verdana" fill="black" font-size="15">KC881006-HM134917</text>
<text x="698" y="221" font-weight = "10" font-family="verdana" fill="black" font-size="15">KC881005-HM134917</text>
<text x="698" y="207" font-weight = "10" font-family="verdana" fill="black" font-size="15">KY417144-HM134917</text>
<text x="333" y="192" font-weight = "10" font-family="verdana" fill="black" font-size="15">GQ153543-HM134917</text>
<text x="333" y="178" font-weight = "10" font-family="verdana" fill="black" font-size="15">GQ153542-HM134917</text>
<text x="333" y="164" font-weight = "10" font-family="verdana" fill="black" font-size="15">GQ153547-HM134917</text>
<text x="437" y="149" font-weight = "10" font-family="verdana" fill="black" font-size="15">DQ084200-HM134917</text>
<text x="437" y="135" font-weight = "10" font-family="verdana" fill="black" font-size="15">DQ022305-HM134917</text>
<text x="437" y="121" font-weight = "10" font-family="verdana" fill="black" font-size="15">DQ084199-HM134917</text>
<text x="489" y="106" font-weight = "10" font-family="verdana" fill="black" font-size="15">GQ153541-HM134917</text>
<text x="541" y="92" font-weight = "10" font-family="verdana" fill="black" font-size="15">GQ153539-HM134917</text>
<text x="594" y="77" font-weight = "10" font-family="verdana" fill="black" font-size="15">GQ153540-HM134917</text>
<text x="646" y="63" font-weight = "10" font-family="verdana" fill="black" font-size="15">GQ153548-HM134917</text>
<text x="698" y="49" font-weight = "10" font-family="verdana" fill="black" font-size="15">GQ153546-HM134917</text>
<text x="750" y="34" font-weight = "10" font-family="verdana" fill="black" font-size="15">GQ153545-HM134917</text>
<text x="750" y="20" font-weight = "10" font-family="verdana" fill="black" font-size="15">GQ153544-HM134917</text>
<line x1="250.64285714286" y1="662.63043478261" x2="203.32031061153" y2="675.67161541397" style="stroke:red; stroke-width:1;stroke-dasharray: 5, 5"/>
<line x1="201.99192602549" y1="670.85130480244" x2="204.64869519756" y2="680.49192602549" style="stroke:red; stroke-width:1"/>
<line x1="201.99192602549" y1="670.85130480244" x2="198.5" y2="677" style="stroke:red; stroke-width:1"/>
<line x1="198.5" y1="677" x2="204.64869519756" y2="680.49192602549" style="stroke:red; stroke-width:1"/>
<text x="224.57142857143" y="669.8152173913" font-weight = "10" font-family="verdana" fill="red" font-size="15">2(100%)</text>
<line x1="302.78571428571" y1="590.78260869565" x2="255.02178742784" y2="617.10824175955" style="stroke:red; stroke-width:1;stroke-dasharray: 5, 5"/>
<line x1="252.60829005695" y1="612.72931147457" x2="257.43528479873" y2="621.48717204453" style="stroke:red; stroke-width:1"/>
<line x1="252.60829005695" y1="612.72931147457" x2="250.64285714286" y2="619.52173913043" style="stroke:red; stroke-width:1"/>
<line x1="250.64285714286" y1="619.52173913043" x2="257.43528479873" y2="621.48717204453" style="stroke:red; stroke-width:1"/>
<text x="276.71428571429" y="605.15217391304" font-weight = "10" font-family="verdana" fill="red" font-size="15">3(100%)</text>
<line x1="354.92857142857" y1="138.14130434783" x2="506.59711412096" y2="89.378226828829" style="stroke:red; stroke-width:1;stroke-dasharray: 5, 5"/>
<line x1="508.12751486283" y1="94.13825556501" x2="505.06671337909" y2="84.618198092647" style="stroke:red; stroke-width:1"/>
<line x1="508.12751486283" y1="94.13825556501" x2="511.35714285714" y2="87.847826086957" style="stroke:red; stroke-width:1"/>
<line x1="511.35714285714" y1="87.847826086957" x2="505.06671337909" y2="84.618198092647" style="stroke:red; stroke-width:1"/>
<text x="433.14285714286" y="112.99456521739" font-weight = "10" font-family="verdana" fill="red" font-size="15">4(100%)</text>
<line x1="354.92857142857" y1="138.14130434783" x2="610.85787919715" y2="60.559207995845" style="stroke:red; stroke-width:1;stroke-dasharray: 5, 5"/>
<line x1="612.30839154083" y1="65.344185941547" x2="609.40736685348" y2="55.774230050143" style="stroke:red; stroke-width:1"/>
<line x1="612.30839154083" y1="65.344185941547" x2="615.64285714286" y2="59.108695652174" style="stroke:red; stroke-width:1"/>
<line x1="615.64285714286" y1="59.108695652174" x2="609.40736685348" y2="55.774230050143" style="stroke:red; stroke-width:1"/>
<text x="485.28571428571" y="98.625" font-weight = "10" font-family="verdana" fill="red" font-size="15">5(100%)</text>
<line x1="354.92857142857" y1="138.14130434783" x2="558.72425158238" y2="74.958877988052" style="stroke:red; stroke-width:1;stroke-dasharray: 5, 5"/>
<line x1="560.20486870086" y1="79.734626405677" x2="557.24363446389" y2="70.183129570427" style="stroke:red; stroke-width:1"/>
<line x1="560.20486870086" y1="79.734626405677" x2="563.5" y2="73.478260869565" style="stroke:red; stroke-width:1"/>
<line x1="563.5" y1="73.478260869565" x2="557.24363446389" y2="70.183129570427" style="stroke:red; stroke-width:1"/>
<text x="459.21428571429" y="105.8097826087" font-weight = "10" font-family="verdana" fill="red" font-size="15">6(100%)</text>
<line x1="354.92857142857" y1="138.14130434783" x2="454.48690863809" y2="103.84585867567" style="stroke:red; stroke-width:1;stroke-dasharray: 5, 5"/>
<line x1="456.11537600941" y1="108.57323575186" x2="452.85844126677" y2="99.118481599471" style="stroke:red; stroke-width:1"/>
<line x1="456.11537600941" y1="108.57323575186" x2="459.21428571429" y2="102.21739130435" style="stroke:red; stroke-width:1"/>
<line x1="459.21428571429" y1="102.21739130435" x2="452.85844126677" y2="99.118481599471" style="stroke:red; stroke-width:1"/>
<text x="407.07142857143" y="120.17934782609" font-weight = "10" font-family="verdana" fill="red" font-size="15">7(100%)</text>
<line x1="719.92857142857" y1="16" x2="359.67013492651" y2="136.55461736074" style="stroke:red; stroke-width:1;stroke-dasharray: 5, 5"/>
<line x1="358.08344793943" y1="131.8130538628" x2="361.2568219136" y2="141.29618085868" style="stroke:red; stroke-width:1"/>
<line x1="358.08344793943" y1="131.8130538628" x2="354.92857142857" y2="138.14130434783" style="stroke:red; stroke-width:1"/>
<line x1="354.92857142857" y1="138.14130434783" x2="361.2568219136" y2="141.29618085868" style="stroke:red; stroke-width:1"/>
<text x="537.42857142857" y="77.070652173913" font-weight = "10" font-family="verdana" fill="red" font-size="15">8(100%)</text>
<line x1="302.78571428571" y1="188.4347826087" x2="611.15956694074" y2="36.175575496088" style="stroke:red; stroke-width:1;stroke-dasharray: 5, 5"/>
<line x1="613.37318591509" y1="40.658865698205" x2="608.94594796639" y2="31.69228529397" style="stroke:red; stroke-width:1"/>
<line x1="613.37318591509" y1="40.658865698205" x2="615.64285714286" y2="33.961956521739" style="stroke:red; stroke-width:1"/>
<line x1="615.64285714286" y1="33.961956521739" x2="608.94594796639" y2="31.69228529397" style="stroke:red; stroke-width:1"/>
<text x="459.21428571429" y="111.19836956522" font-weight = "10" font-family="verdana" fill="red" font-size="15">9(100%)</text>
<line x1="302.78571428571" y1="533.30434782609" x2="302.78571428571" y2="164.69565217391" style="stroke:red; stroke-width:1;stroke-dasharray: 5, 5"/>
<line x1="307.78571428571" y1="164.69565217391" x2="297.78571428571" y2="164.69565217391" style="stroke:red; stroke-width:1"/>
<line x1="307.78571428571" y1="164.69565217391" x2="302.78571428571" y2="159.69565217391" style="stroke:red; stroke-width:1"/>
<line x1="302.78571428571" y1="159.69565217391" x2="297.78571428571" y2="164.69565217391" style="stroke:red; stroke-width:1"/>
<text x="302.78571428571" y="346.5" font-weight = "10" font-family="verdana" fill="red" font-size="15">10(100%)</text>
<line x1="302.78571428571" y1="468.64130434783" x2="559.07046697833" y2="334.44975304666" style="stroke:red; stroke-width:1;stroke-dasharray: 5, 5"/>
<line x1="561.38978524238" y1="338.87928606833" x2="556.75114871428" y2="330.02022002499" style="stroke:red; stroke-width:1"/>
<line x1="561.38978524238" y1="338.87928606833" x2="563.5" y2="332.13043478261" style="stroke:red; stroke-width:1"/>
<line x1="563.5" y1="332.13043478261" x2="556.75114871428" y2="330.02022002499" style="stroke:red; stroke-width:1"/>
<text x="433.14285714286" y="400.38586956522" font-weight = "10" font-family="verdana" fill="red" font-size="15">11(100%)</text>
<line x1="615.64285714286" y1="274.65217391304" x2="255.48677480134" y2="182.4895409303" style="stroke:red; stroke-width:1;stroke-dasharray: 5, 5"/>
<line x1="256.72631573163" y1="177.64562327182" x2="254.24723387104" y2="187.33345858877" style="stroke:red; stroke-width:1"/>
<line x1="256.72631573163" y1="177.64562327182" x2="250.64285714286" y2="181.25" style="stroke:red; stroke-width:1"/>
<line x1="250.64285714286" y1="181.25" x2="254.24723387104" y2="187.33345858877" style="stroke:red; stroke-width:1"/>
<text x="433.14285714286" y="227.95108695652" font-weight = "10" font-family="verdana" fill="red" font-size="15">12(100%)</text>
<line x1="302.78571428571" y1="533.30434782609" x2="302.78571428571" y2="502.38043478261" style="stroke:red; stroke-width:1;stroke-dasharray: 5, 5"/>
<line x1="307.78571428571" y1="502.38043478261" x2="297.78571428571" y2="502.38043478261" style="stroke:red; stroke-width:1"/>
<line x1="307.78571428571" y1="502.38043478261" x2="302.78571428571" y2="497.38043478261" style="stroke:red; stroke-width:1"/>
<line x1="302.78571428571" y1="497.38043478261" x2="297.78571428571" y2="502.38043478261" style="stroke:red; stroke-width:1"/>
<text x="302.78571428571" y="515.34239130435" font-weight = "10" font-family="verdana" fill="red" font-size="15">13(100%)</text>
<line x1="511.35714285714" y1="389.60869565217" x2="612.28337908813" y2="278.35540320649" style="stroke:red; stroke-width:1;stroke-dasharray: 5, 5"/>
<line x1="615.98660838157" y1="281.71488126121" x2="608.58014979469" y2="274.99592515176" style="stroke:red; stroke-width:1"/>
<line x1="615.98660838157" y1="281.71488126121" x2="615.64285714286" y2="274.65217391304" style="stroke:red; stroke-width:1"/>
<line x1="615.64285714286" y1="274.65217391304" x2="608.58014979469" y2="274.99592515176" style="stroke:red; stroke-width:1"/>
<text x="563.5" y="332.13043478261" font-weight = "10" font-family="verdana" fill="red" font-size="15">14(100%)</text>
<line x1="511.35714285714" y1="389.60869565217" x2="511.35714285714" y2="365.86956521739" style="stroke:red; stroke-width:1;stroke-dasharray: 5, 5"/>
<line x1="516.35714285714" y1="365.86956521739" x2="506.35714285714" y2="365.86956521739" style="stroke:red; stroke-width:1"/>
<line x1="516.35714285714" y1="365.86956521739" x2="511.35714285714" y2="360.86956521739" style="stroke:red; stroke-width:1"/>
<line x1="511.35714285714" y1="360.86956521739" x2="506.35714285714" y2="365.86956521739" style="stroke:red; stroke-width:1"/>
<text x="511.35714285714" y="375.23913043478" font-weight = "10" font-family="verdana" fill="red" font-size="15">15(100%)</text>
<line x1="511.35714285714" y1="389.60869565217" x2="464.03459632581" y2="402.64987628353" style="stroke:red; stroke-width:1;stroke-dasharray: 5, 5"/>
<line x1="462.70621173978" y1="397.829565672" x2="465.36298091185" y2="407.47018689506" style="stroke:red; stroke-width:1"/>
<line x1="462.70621173978" y1="397.829565672" x2="459.21428571429" y2="403.97826086957" style="stroke:red; stroke-width:1"/>
<line x1="459.21428571429" y1="403.97826086957" x2="465.36298091185" y2="407.47018689506" style="stroke:red; stroke-width:1"/>
<text x="485.28571428571" y="396.79347826087" font-weight = "10" font-family="verdana" fill="red" font-size="15">16(100%)</text>
<line x1="667.78571428571" y1="217.17391304348" x2="463.13331708049" y2="379.31888596618" style="stroke:red; stroke-width:1;stroke-dasharray: 5, 5"/>
<line x1="460.02829000319" y1="375.39985459998" x2="466.23834415778" y2="383.23791733238" style="stroke:red; stroke-width:1"/>
<line x1="460.02829000319" y1="375.39985459998" x2="459.21428571429" y2="382.42391304348" style="stroke:red; stroke-width:1"/>
<line x1="459.21428571429" y1="382.42391304348" x2="466.23834415778" y2="383.23791733238" style="stroke:red; stroke-width:1"/>
<text x="563.5" y="299.79891304348" font-weight = "10" font-family="verdana" fill="red" font-size="15">17(100%)</text>
<line x1="667.78571428571" y1="217.17391304348" x2="618.57965804504" y2="284.97511084741" style="stroke:red; stroke-width:1;stroke-dasharray: 5, 5"/>
<line x1="614.53302976202" y1="282.03830994523" x2="622.62628632806" y2="287.91191174959" style="stroke:red; stroke-width:1"/>
<line x1="614.53302976202" y1="282.03830994523" x2="615.64285714286" y2="289.02173913043" style="stroke:red; stroke-width:1"/>
<line x1="615.64285714286" y1="289.02173913043" x2="622.62628632806" y2="287.91191174959" style="stroke:red; stroke-width:1"/>
<text x="641.71428571429" y="253.09782608696" font-weight = "10" font-family="verdana" fill="red" font-size="15">18(100%)</text>
<line x1="667.78571428571" y1="231.54347826087" x2="667.78571428571" y2="222.17391304348" style="stroke:red; stroke-width:1;stroke-dasharray: 5, 5"/>
<line x1="672.78571428571" y1="222.17391304348" x2="662.78571428571" y2="222.17391304348" style="stroke:red; stroke-width:1"/>
<line x1="672.78571428571" y1="222.17391304348" x2="667.78571428571" y2="217.17391304348" style="stroke:red; stroke-width:1"/>
<line x1="667.78571428571" y1="217.17391304348" x2="662.78571428571" y2="222.17391304348" style="stroke:red; stroke-width:1"/>
<text x="667.78571428571" y="224.35869565217" font-weight = "10" font-family="verdana" fill="red" font-size="15">19(100%)</text>
<line x1="667.78571428571" y1="231.54347826087" x2="411.02996191553" y2="429.66288418148" style="stroke:red; stroke-width:1;stroke-dasharray: 5, 5"/>
<line x1="407.97545479267" y1="425.70435083738" x2="414.0844690384" y2="433.62141752559" style="stroke:red; stroke-width:1"/>
<line x1="407.97545479267" y1="425.70435083738" x2="407.07142857143" y2="432.71739130435" style="stroke:red; stroke-width:1"/>
<line x1="407.07142857143" y1="432.71739130435" x2="414.0844690384" y2="433.62141752559" style="stroke:red; stroke-width:1"/>
<text x="537.42857142857" y="332.13043478261" font-weight = "10" font-family="verdana" fill="red" font-size="15">20(100%)</text>
<line x1="667.78571428571" y1="231.54347826087" x2="254.62779769099" y2="544.65393807209" style="stroke:red; stroke-width:1;stroke-dasharray: 5, 5"/>
<line x1="251.6078227196" y1="540.66899752395" x2="257.64777266238" y2="548.63887862023" style="stroke:red; stroke-width:1"/>
<line x1="251.6078227196" y1="540.66899752395" x2="250.64285714286" y2="547.67391304348" style="stroke:red; stroke-width:1"/>
<line x1="250.64285714286" y1="547.67391304348" x2="257.64777266238" y2="548.63887862023" style="stroke:red; stroke-width:1"/>
<text x="459.21428571429" y="389.60869565217" font-weight = "10" font-family="verdana" fill="red" font-size="15">21(100%)</text>
<line x1="667.78571428571" y1="231.54347826087" x2="620.02178742784" y2="257.86911132476" style="stroke:red; stroke-width:1;stroke-dasharray: 5, 5"/>
<line x1="617.60829005695" y1="253.49018103978" x2="622.43528479873" y2="262.24804160974" style="stroke:red; stroke-width:1"/>
<line x1="617.60829005695" y1="253.49018103978" x2="615.64285714286" y2="260.28260869565" style="stroke:red; stroke-width:1"/>
<line x1="615.64285714286" y1="260.28260869565" x2="622.43528479873" y2="262.24804160974" style="stroke:red; stroke-width:1"/>
<text x="641.71428571429" y="245.91304347826" font-weight = "10" font-family="verdana" fill="red" font-size="15">22(100%)</text>
<line x1="563.5" y1="317.76086956522" x2="612.88933269969" y2="242.90176097629" style="stroke:red; stroke-width:1;stroke-dasharray: 5, 5"/>
<line x1="617.06283280642" y1="245.65528541946" x2="608.71583259296" y2="240.14823653313" style="stroke:red; stroke-width:1"/>
<line x1="617.06283280642" y1="245.65528541946" x2="615.64285714286" y2="238.72826086957" style="stroke:red; stroke-width:1"/>
<line x1="615.64285714286" y1="238.72826086957" x2="608.71583259296" y2="240.14823653313" style="stroke:red; stroke-width:1"/>
<text x="589.57142857143" y="278.24456521739" font-weight = "10" font-family="verdana" fill="red" font-size="15">23(100%)</text>
<line x1="511.35714285714" y1="306.98369565217" x2="306.93624476862" y2="444.29892913478" style="stroke:red; stroke-width:1;stroke-dasharray: 5, 5"/>
<line x1="304.14821738167" y1="440.14839865187" x2="309.72427215558" y2="448.44945961769" style="stroke:red; stroke-width:1"/>
<line x1="304.14821738167" y1="440.14839865187" x2="302.78571428571" y2="447.08695652174" style="stroke:red; stroke-width:1"/>
<line x1="302.78571428571" y1="447.08695652174" x2="309.72427215558" y2="448.44945961769" style="stroke:red; stroke-width:1"/>
<text x="407.07142857143" y="377.03532608696" font-weight = "10" font-family="verdana" fill="red" font-size="15">24(100%)</text>
<line x1="407.07142857143" y1="418.34782608696" x2="507.93949867333" y2="310.63331319828" style="stroke:red; stroke-width:1;stroke-dasharray: 5, 5"/>
<line x1="511.58911621944" y1="314.05095738209" x2="504.28988112722" y2="307.21566901447" style="stroke:red; stroke-width:1"/>
<line x1="511.58911621944" y1="314.05095738209" x2="511.35714285714" y2="306.98369565217" style="stroke:red; stroke-width:1"/>
<line x1="511.35714285714" y1="306.98369565217" x2="504.28988112722" y2="307.21566901447" style="stroke:red; stroke-width:1"/>
<text x="459.21428571429" y="362.66576086957" font-weight = "10" font-family="verdana" fill="red" font-size="15">25(100%)</text>
<line x1="407.07142857143" y1="418.34782608696" x2="306.38449203573" y2="515.46364465321" style="stroke:red; stroke-width:1;stroke-dasharray: 5, 5"/>
<line x1="302.91335408024" y1="511.8648669032" x2="309.85562999121" y2="519.06242240322" style="stroke:red; stroke-width:1"/>
<line x1="302.91335408024" y1="511.8648669032" x2="302.78571428571" y2="518.9347826087" style="stroke:red; stroke-width:1"/>
<line x1="302.78571428571" y1="518.9347826087" x2="309.85562999121" y2="519.06242240322" style="stroke:red; stroke-width:1"/>
<text x="354.92857142857" y="468.64130434783" font-weight = "10" font-family="verdana" fill="red" font-size="15">26(100%)</text>
<line x1="407.07142857143" y1="418.34782608696" x2="558.95634297148" y2="348.58690699533" style="stroke:red; stroke-width:1;stroke-dasharray: 5, 5"/>
<line x1="561.04324996681" y1="353.13056402385" x2="556.86943597615" y2="344.04324996681" style="stroke:red; stroke-width:1"/>
<line x1="561.04324996681" y1="353.13056402385" x2="563.5" y2="346.5" style="stroke:red; stroke-width:1"/>
<line x1="563.5" y1="346.5" x2="556.86943597615" y2="344.04324996681" style="stroke:red; stroke-width:1"/>
<text x="485.28571428571" y="382.42391304348" font-weight = "10" font-family="verdana" fill="red" font-size="15">27(100%)</text>
<line x1="407.07142857143" y1="418.34782608696" x2="306.14519234044" y2="529.60111853265" style="stroke:red; stroke-width:1;stroke-dasharray: 5, 5"/>
<line x1="302.441963047" y1="526.24164047792" x2="309.84842163388" y2="532.96059658737" style="stroke:red; stroke-width:1"/>
<line x1="302.441963047" y1="526.24164047792" x2="302.78571428571" y2="533.30434782609" style="stroke:red; stroke-width:1"/>
<line x1="302.78571428571" y1="533.30434782609" x2="309.84842163388" y2="532.96059658737" style="stroke:red; stroke-width:1"/>
<text x="354.92857142857" y="475.82608695652" font-weight = "10" font-family="verdana" fill="red" font-size="15">28(100%)</text>
<line x1="302.78571428571" y1="468.64130434783" x2="402.56780254928" y2="420.51977282953" style="stroke:red; stroke-width:1;stroke-dasharray: 5, 5"/>
<line x1="404.73974929185" y1="425.02339885169" x2="400.3958558067" y2="416.01614680738" style="stroke:red; stroke-width:1"/>
<line x1="404.73974929185" y1="425.02339885169" x2="407.07142857143" y2="418.34782608696" style="stroke:red; stroke-width:1"/>
<line x1="407.07142857143" y1="418.34782608696" x2="400.3958558067" y2="416.01614680738" style="stroke:red; stroke-width:1"/>
<text x="354.92857142857" y="443.49456521739" font-weight = "10" font-family="verdana" fill="red" font-size="15">29(100%)</text>
<line x1="198.5" y1="569.22826086957" x2="299.1869365357" y2="472.11244230331" style="stroke:red; stroke-width:1;stroke-dasharray: 5, 5"/>
<line x1="302.65807449119" y1="475.71122005332" x2="295.71579858022" y2="468.5136645533" style="stroke:red; stroke-width:1"/>
<line x1="302.65807449119" y1="475.71122005332" x2="302.78571428571" y2="468.64130434783" style="stroke:red; stroke-width:1"/>
<line x1="302.78571428571" y1="468.64130434783" x2="295.71579858022" y2="468.5136645533" style="stroke:red; stroke-width:1"/>
<text x="250.64285714286" y="518.9347826087" font-weight = "10" font-family="verdana" fill="red" font-size="15">30(100%)</text>
<line x1="354.92857142857" y1="138.14130434783" x2="402.45065570692" y2="118.49705027196" style="stroke:red; stroke-width:1;stroke-dasharray: 5, 5"/>
<line x1="404.36074945714" y1="123.11782313646" x2="400.5405619567" y2="113.87627740745" style="stroke:red; stroke-width:1"/>
<line x1="404.36074945714" y1="123.11782313646" x2="407.07142857143" y2="116.58695652174" style="stroke:red; stroke-width:1"/>
<line x1="407.07142857143" y1="116.58695652174" x2="400.5405619567" y2="113.87627740745" style="stroke:red; stroke-width:1"/>
<text x="381" y="127.36413043478" font-weight = "10" font-family="verdana" fill="red" font-size="15">1(100%)</text>
</g></svg>