<?xml version="1.0" encoding="iso-8859-1"?>
<!DOCTYPE svg PUBLIC "-//W3C//DTD SVG 1.0//EN" "http://www.w3.org/TR/2001/REC-SVG-20010904/DTD/svg10.dtd">
<svg width="1154" height="820" xmlns="http://www.w3.org/2000/svg" xmlns:xlink="http://www.w3.org/1999/xlink">
<g style="stroke:black;fill:lightgreen" transform="translate(30,30)">
<line x1="363" y1="601" x2="363" y2="593" style="stroke:blue; stroke-width:1"/>
<line x1="363" y1="593" x2="433" y2="593" style="stroke:blue; stroke-width:1"/>
<line x1="363" y1="601" x2="363" y2="609" style="stroke:blue; stroke-width:1"/>
<line x1="363" y1="609" x2="433" y2="609" style="stroke:blue; stroke-width:1"/>
<line x1="294" y1="749" x2="294" y2="758" style="stroke:blue; stroke-width:1"/>
<line x1="294" y1="758" x2="363" y2="758" style="stroke:blue; stroke-width:1"/>
<line x1="294" y1="749" x2="294" y2="741" style="stroke:blue; stroke-width:1"/>
<line x1="294" y1="741" x2="363" y2="741" style="stroke:blue; stroke-width:1"/>
<line x1="224" y1="762" x2="224" y2="774" style="stroke:blue; stroke-width:1"/>
<line x1="224" y1="774" x2="294" y2="774" style="stroke:blue; stroke-width:1"/>
<line x1="363" y1="683" x2="363" y2="675" style="stroke:blue; stroke-width:1"/>
<line x1="363" y1="675" x2="433" y2="675" style="stroke:blue; stroke-width:1"/>
<line x1="363" y1="683" x2="363" y2="692" style="stroke:blue; stroke-width:1"/>
<line x1="363" y1="692" x2="433" y2="692" style="stroke:blue; stroke-width:1"/>
<line x1="294" y1="696" x2="294" y2="708" style="stroke:blue; stroke-width:1"/>
<line x1="294" y1="708" x2="363" y2="708" style="stroke:blue; stroke-width:1"/>
<line x1="224" y1="710" x2="224" y2="725" style="stroke:blue; stroke-width:1"/>
<line x1="224" y1="725" x2="294" y2="725" style="stroke:blue; stroke-width:1"/>
<line x1="433" y1="568" x2="433" y2="560" style="stroke:blue; stroke-width:1"/>
<line x1="433" y1="560" x2="502" y2="560" style="stroke:blue; stroke-width:1"/>
<line x1="433" y1="568" x2="433" y2="576" style="stroke:blue; stroke-width:1"/>
<line x1="433" y1="576" x2="502" y2="576" style="stroke:blue; stroke-width:1"/>
<line x1="433" y1="535" x2="433" y2="543" style="stroke:blue; stroke-width:1"/>
<line x1="433" y1="543" x2="502" y2="543" style="stroke:blue; stroke-width:1"/>
<line x1="433" y1="535" x2="433" y2="527" style="stroke:blue; stroke-width:1"/>
<line x1="433" y1="527" x2="502" y2="527" style="stroke:blue; stroke-width:1"/>
<line x1="502" y1="486" x2="502" y2="494" style="stroke:blue; stroke-width:1"/>
<line x1="502" y1="494" x2="571" y2="494" style="stroke:blue; stroke-width:1"/>
<line x1="502" y1="486" x2="502" y2="477" style="stroke:blue; stroke-width:1"/>
<line x1="502" y1="477" x2="571" y2="477" style="stroke:blue; stroke-width:1"/>
<line x1="849" y1="271" x2="849" y2="263" style="stroke:blue; stroke-width:1"/>
<line x1="849" y1="263" x2="919" y2="263" style="stroke:blue; stroke-width:1"/>
<line x1="849" y1="271" x2="849" y2="280" style="stroke:blue; stroke-width:1"/>
<line x1="849" y1="280" x2="919" y2="280" style="stroke:blue; stroke-width:1"/>
<line x1="849" y1="238" x2="849" y2="247" style="stroke:blue; stroke-width:1"/>
<line x1="849" y1="247" x2="919" y2="247" style="stroke:blue; stroke-width:1"/>
<line x1="849" y1="238" x2="849" y2="230" style="stroke:blue; stroke-width:1"/>
<line x1="849" y1="230" x2="919" y2="230" style="stroke:blue; stroke-width:1"/>
<line x1="780" y1="304" x2="780" y2="313" style="stroke:blue; stroke-width:1"/>
<line x1="780" y1="313" x2="849" y2="313" style="stroke:blue; stroke-width:1"/>
<line x1="780" y1="304" x2="780" y2="296" style="stroke:blue; stroke-width:1"/>
<line x1="780" y1="296" x2="849" y2="296" style="stroke:blue; stroke-width:1"/>
<line x1="780" y1="337" x2="780" y2="346" style="stroke:blue; stroke-width:1"/>
<line x1="780" y1="346" x2="849" y2="346" style="stroke:blue; stroke-width:1"/>
<line x1="780" y1="337" x2="780" y2="329" style="stroke:blue; stroke-width:1"/>
<line x1="780" y1="329" x2="849" y2="329" style="stroke:blue; stroke-width:1"/>
<line x1="710" y1="350" x2="710" y2="362" style="stroke:blue; stroke-width:1"/>
<line x1="710" y1="362" x2="780" y2="362" style="stroke:blue; stroke-width:1"/>
<line x1="710" y1="387" x2="710" y2="395" style="stroke:blue; stroke-width:1"/>
<line x1="710" y1="395" x2="780" y2="395" style="stroke:blue; stroke-width:1"/>
<line x1="710" y1="387" x2="710" y2="379" style="stroke:blue; stroke-width:1"/>
<line x1="710" y1="379" x2="780" y2="379" style="stroke:blue; stroke-width:1"/>
<line x1="641" y1="399" x2="641" y2="411" style="stroke:blue; stroke-width:1"/>
<line x1="641" y1="411" x2="710" y2="411" style="stroke:blue; stroke-width:1"/>
<line x1="641" y1="436" x2="641" y2="428" style="stroke:blue; stroke-width:1"/>
<line x1="641" y1="428" x2="710" y2="428" style="stroke:blue; stroke-width:1"/>
<line x1="641" y1="436" x2="641" y2="444" style="stroke:blue; stroke-width:1"/>
<line x1="641" y1="444" x2="710" y2="444" style="stroke:blue; stroke-width:1"/>
<line x1="571" y1="449" x2="571" y2="461" style="stroke:blue; stroke-width:1"/>
<line x1="571" y1="461" x2="641" y2="461" style="stroke:blue; stroke-width:1"/>
<line x1="363" y1="477" x2="363" y2="510" style="stroke:blue; stroke-width:1"/>
<line x1="363" y1="510" x2="433" y2="510" style="stroke:blue; stroke-width:1"/>
<line x1="502" y1="156" x2="502" y2="164" style="stroke:blue; stroke-width:1"/>
<line x1="502" y1="164" x2="571" y2="164" style="stroke:blue; stroke-width:1"/>
<line x1="502" y1="156" x2="502" y2="148" style="stroke:blue; stroke-width:1"/>
<line x1="502" y1="148" x2="571" y2="148" style="stroke:blue; stroke-width:1"/>
<line x1="919" y1="24" x2="919" y2="32" style="stroke:blue; stroke-width:1"/>
<line x1="919" y1="32" x2="988" y2="32" style="stroke:blue; stroke-width:1"/>
<line x1="919" y1="24" x2="919" y2="16" style="stroke:blue; stroke-width:1"/>
<line x1="919" y1="16" x2="988" y2="16" style="stroke:blue; stroke-width:1"/>
<line x1="849" y1="37" x2="849" y2="49" style="stroke:blue; stroke-width:1"/>
<line x1="849" y1="49" x2="919" y2="49" style="stroke:blue; stroke-width:1"/>
<line x1="780" y1="51" x2="780" y2="65" style="stroke:blue; stroke-width:1"/>
<line x1="780" y1="65" x2="849" y2="65" style="stroke:blue; stroke-width:1"/>
<line x1="710" y1="66" x2="710" y2="82" style="stroke:blue; stroke-width:1"/>
<line x1="710" y1="82" x2="780" y2="82" style="stroke:blue; stroke-width:1"/>
<line x1="641" y1="82" x2="641" y2="98" style="stroke:blue; stroke-width:1"/>
<line x1="641" y1="98" x2="710" y2="98" style="stroke:blue; stroke-width:1"/>
<line x1="571" y1="99" x2="571" y2="115" style="stroke:blue; stroke-width:1"/>
<line x1="571" y1="115" x2="641" y2="115" style="stroke:blue; stroke-width:1"/>
<line x1="502" y1="115" x2="502" y2="131" style="stroke:blue; stroke-width:1"/>
<line x1="502" y1="131" x2="571" y2="131" style="stroke:blue; stroke-width:1"/>
<line x1="363" y1="158" x2="363" y2="181" style="stroke:blue; stroke-width:1"/>
<line x1="363" y1="181" x2="433" y2="181" style="stroke:blue; stroke-width:1"/>
<line x1="363" y1="205" x2="363" y2="214" style="stroke:blue; stroke-width:1"/>
<line x1="363" y1="214" x2="433" y2="214" style="stroke:blue; stroke-width:1"/>
<line x1="363" y1="205" x2="363" y2="197" style="stroke:blue; stroke-width:1"/>
<line x1="363" y1="197" x2="433" y2="197" style="stroke:blue; stroke-width:1"/>
<line x1="294" y1="650" x2="294" y2="659" style="stroke:blue; stroke-width:1"/>
<line x1="294" y1="659" x2="363" y2="659" style="stroke:blue; stroke-width:1"/>
<line x1="294" y1="650" x2="294" y2="642" style="stroke:blue; stroke-width:1"/>
<line x1="294" y1="642" x2="363" y2="642" style="stroke:blue; stroke-width:1"/>
<line x1="294" y1="613" x2="294" y2="626" style="stroke:blue; stroke-width:1"/>
<line x1="294" y1="626" x2="363" y2="626" style="stroke:blue; stroke-width:1"/>
<line x1="294" y1="613" x2="294" y2="601" style="stroke:blue; stroke-width:1"/>
<line x1="294" y1="601" x2="363" y2="601" style="stroke:blue; stroke-width:1"/>
<line x1="224" y1="762" x2="224" y2="749" style="stroke:blue; stroke-width:1"/>
<line x1="224" y1="749" x2="294" y2="749" style="stroke:blue; stroke-width:1"/>
<line x1="155" y1="736" x2="155" y2="762" style="stroke:blue; stroke-width:1"/>
<line x1="155" y1="762" x2="224" y2="762" style="stroke:blue; stroke-width:1"/>
<line x1="85" y1="613" x2="85" y2="736" style="stroke:blue; stroke-width:1"/>
<line x1="85" y1="736" x2="155" y2="736" style="stroke:blue; stroke-width:1"/>
<line x1="155" y1="736" x2="155" y2="710" style="stroke:blue; stroke-width:1"/>
<line x1="155" y1="710" x2="224" y2="710" style="stroke:blue; stroke-width:1"/>
<line x1="224" y1="710" x2="224" y2="696" style="stroke:blue; stroke-width:1"/>
<line x1="224" y1="696" x2="294" y2="696" style="stroke:blue; stroke-width:1"/>
<line x1="294" y1="696" x2="294" y2="683" style="stroke:blue; stroke-width:1"/>
<line x1="294" y1="683" x2="363" y2="683" style="stroke:blue; stroke-width:1"/>
<line x1="85" y1="613" x2="85" y2="490" style="stroke:blue; stroke-width:1"/>
<line x1="85" y1="490" x2="155" y2="490" style="stroke:blue; stroke-width:1"/>
<line x1="294" y1="182" x2="294" y2="205" style="stroke:blue; stroke-width:1"/>
<line x1="294" y1="205" x2="363" y2="205" style="stroke:blue; stroke-width:1"/>
<line x1="224" y1="348" x2="224" y2="182" style="stroke:blue; stroke-width:1"/>
<line x1="224" y1="182" x2="294" y2="182" style="stroke:blue; stroke-width:1"/>
<line x1="294" y1="182" x2="294" y2="158" style="stroke:blue; stroke-width:1"/>
<line x1="294" y1="158" x2="363" y2="158" style="stroke:blue; stroke-width:1"/>
<line x1="433" y1="136" x2="433" y2="156" style="stroke:blue; stroke-width:1"/>
<line x1="433" y1="156" x2="502" y2="156" style="stroke:blue; stroke-width:1"/>
<line x1="363" y1="158" x2="363" y2="136" style="stroke:blue; stroke-width:1"/>
<line x1="363" y1="136" x2="433" y2="136" style="stroke:blue; stroke-width:1"/>
<line x1="502" y1="115" x2="502" y2="99" style="stroke:blue; stroke-width:1"/>
<line x1="502" y1="99" x2="571" y2="99" style="stroke:blue; stroke-width:1"/>
<line x1="641" y1="82" x2="641" y2="66" style="stroke:blue; stroke-width:1"/>
<line x1="641" y1="66" x2="710" y2="66" style="stroke:blue; stroke-width:1"/>
<line x1="849" y1="37" x2="849" y2="24" style="stroke:blue; stroke-width:1"/>
<line x1="849" y1="24" x2="919" y2="24" style="stroke:blue; stroke-width:1"/>
<line x1="780" y1="51" x2="780" y2="37" style="stroke:blue; stroke-width:1"/>
<line x1="780" y1="37" x2="849" y2="37" style="stroke:blue; stroke-width:1"/>
<line x1="710" y1="66" x2="710" y2="51" style="stroke:blue; stroke-width:1"/>
<line x1="710" y1="51" x2="780" y2="51" style="stroke:blue; stroke-width:1"/>
<line x1="571" y1="99" x2="571" y2="82" style="stroke:blue; stroke-width:1"/>
<line x1="571" y1="82" x2="641" y2="82" style="stroke:blue; stroke-width:1"/>
<line x1="433" y1="136" x2="433" y2="115" style="stroke:blue; stroke-width:1"/>
<line x1="433" y1="115" x2="502" y2="115" style="stroke:blue; stroke-width:1"/>
<line x1="155" y1="490" x2="155" y2="348" style="stroke:blue; stroke-width:1"/>
<line x1="155" y1="348" x2="224" y2="348" style="stroke:blue; stroke-width:1"/>
<line x1="363" y1="552" x2="363" y2="568" style="stroke:blue; stroke-width:1"/>
<line x1="363" y1="568" x2="433" y2="568" style="stroke:blue; stroke-width:1"/>
<line x1="294" y1="514" x2="294" y2="552" style="stroke:blue; stroke-width:1"/>
<line x1="294" y1="552" x2="363" y2="552" style="stroke:blue; stroke-width:1"/>
<line x1="363" y1="552" x2="363" y2="535" style="stroke:blue; stroke-width:1"/>
<line x1="363" y1="535" x2="433" y2="535" style="stroke:blue; stroke-width:1"/>
<line x1="224" y1="348" x2="224" y2="514" style="stroke:blue; stroke-width:1"/>
<line x1="224" y1="514" x2="294" y2="514" style="stroke:blue; stroke-width:1"/>
<line x1="294" y1="514" x2="294" y2="477" style="stroke:blue; stroke-width:1"/>
<line x1="294" y1="477" x2="363" y2="477" style="stroke:blue; stroke-width:1"/>
<line x1="433" y1="444" x2="433" y2="486" style="stroke:blue; stroke-width:1"/>
<line x1="433" y1="486" x2="502" y2="486" style="stroke:blue; stroke-width:1"/>
<line x1="363" y1="477" x2="363" y2="444" style="stroke:blue; stroke-width:1"/>
<line x1="363" y1="444" x2="433" y2="444" style="stroke:blue; stroke-width:1"/>
<line x1="571" y1="449" x2="571" y2="436" style="stroke:blue; stroke-width:1"/>
<line x1="571" y1="436" x2="641" y2="436" style="stroke:blue; stroke-width:1"/>
<line x1="502" y1="403" x2="502" y2="449" style="stroke:blue; stroke-width:1"/>
<line x1="502" y1="449" x2="571" y2="449" style="stroke:blue; stroke-width:1"/>
<line x1="433" y1="444" x2="433" y2="403" style="stroke:blue; stroke-width:1"/>
<line x1="433" y1="403" x2="502" y2="403" style="stroke:blue; stroke-width:1"/>
<line x1="710" y1="280" x2="710" y2="304" style="stroke:blue; stroke-width:1"/>
<line x1="710" y1="304" x2="780" y2="304" style="stroke:blue; stroke-width:1"/>
<line x1="641" y1="315" x2="641" y2="280" style="stroke:blue; stroke-width:1"/>
<line x1="641" y1="280" x2="710" y2="280" style="stroke:blue; stroke-width:1"/>
<line x1="780" y1="255" x2="780" y2="271" style="stroke:blue; stroke-width:1"/>
<line x1="780" y1="271" x2="849" y2="271" style="stroke:blue; stroke-width:1"/>
<line x1="710" y1="280" x2="710" y2="255" style="stroke:blue; stroke-width:1"/>
<line x1="710" y1="255" x2="780" y2="255" style="stroke:blue; stroke-width:1"/>
<line x1="780" y1="255" x2="780" y2="238" style="stroke:blue; stroke-width:1"/>
<line x1="780" y1="238" x2="849" y2="238" style="stroke:blue; stroke-width:1"/>
<line x1="571" y1="357" x2="571" y2="315" style="stroke:blue; stroke-width:1"/>
<line x1="571" y1="315" x2="641" y2="315" style="stroke:blue; stroke-width:1"/>
<line x1="710" y1="350" x2="710" y2="337" style="stroke:blue; stroke-width:1"/>
<line x1="710" y1="337" x2="780" y2="337" style="stroke:blue; stroke-width:1"/>
<line x1="641" y1="315" x2="641" y2="350" style="stroke:blue; stroke-width:1"/>
<line x1="641" y1="350" x2="710" y2="350" style="stroke:blue; stroke-width:1"/>
<line x1="502" y1="403" x2="502" y2="357" style="stroke:blue; stroke-width:1"/>
<line x1="502" y1="357" x2="571" y2="357" style="stroke:blue; stroke-width:1"/>
<line x1="641" y1="399" x2="641" y2="387" style="stroke:blue; stroke-width:1"/>
<line x1="641" y1="387" x2="710" y2="387" style="stroke:blue; stroke-width:1"/>
<line x1="571" y1="357" x2="571" y2="399" style="stroke:blue; stroke-width:1"/>
<line x1="571" y1="399" x2="641" y2="399" style="stroke:blue; stroke-width:1"/>
<line x1="155" y1="490" x2="155" y2="632" style="stroke:blue; stroke-width:1"/>
<line x1="155" y1="632" x2="224" y2="632" style="stroke:blue; stroke-width:1"/>
<line x1="224" y1="632" x2="224" y2="650" style="stroke:blue; stroke-width:1"/>
<line x1="224" y1="650" x2="294" y2="650" style="stroke:blue; stroke-width:1"/>
<line x1="224" y1="632" x2="224" y2="613" style="stroke:blue; stroke-width:1"/>
<line x1="224" y1="613" x2="294" y2="613" style="stroke:blue; stroke-width:1"/>
<line x1="16" y1="613" x2="16" y2="613" style="stroke:blue; stroke-width:1"/>
<line x1="16" y1="613" x2="85" y2="613" style="stroke:blue; stroke-width:1"/>
<text x="20" y="607" font-weight = "10" font-family="verdana" fill="black" font-size="15">Root</text>
<text x="298" y="778" font-weight = "10" font-family="verdana" fill="black" font-size="15">KJ473795-AB085735</text>
<text x="367" y="762" font-weight = "10" font-family="verdana" fill="black" font-size="15">KJ473796-AB085735</text>
<text x="367" y="745" font-weight = "10" font-family="verdana" fill="black" font-size="15">EU420138-ON640726</text>
<text x="298" y="729" font-weight = "10" font-family="verdana" fill="black" font-size="15">KJ473797-AB085735</text>
<text x="367" y="712" font-weight = "10" font-family="verdana" fill="black" font-size="15">KJ473800-AB085735</text>
<text x="437" y="696" font-weight = "10" font-family="verdana" fill="black" font-size="15">KJ473799-AB085735</text>
<text x="437" y="679" font-weight = "10" font-family="verdana" fill="black" font-size="15">KJ473798-AB085735</text>
<text x="367" y="663" font-weight = "10" font-family="verdana" fill="black" font-size="15">GU190215-MZ936290</text>
<text x="367" y="646" font-weight = "10" font-family="verdana" fill="black" font-size="15">NC_014470-MZ936290</text>
<text x="367" y="630" font-weight = "10" font-family="verdana" fill="black" font-size="15">MN996532-KP972690</text>
<text x="437" y="613" font-weight = "10" font-family="verdana" fill="black" font-size="15">MG772934-HM134917</text>
<text x="437" y="597" font-weight = "10" font-family="verdana" fill="black" font-size="15">MG772933-HM134917</text>
<text x="506" y="580" font-weight = "10" font-family="verdana" fill="black" font-size="15">DQ648857-KX261916</text>
<text x="506" y="564" font-weight = "10" font-family="verdana" fill="black" font-size="15">DQ412043-KX261916</text>
<text x="506" y="547" font-weight = "10" font-family="verdana" fill="black" font-size="15">JX993987-ON012504</text>
<text x="506" y="531" font-weight = "10" font-family="verdana" fill="black" font-size="15">KJ473814-HM134917</text>
<text x="437" y="514" font-weight = "10" font-family="verdana" fill="black" font-size="15">KJ473815-HM134917</text>
<text x="575" y="498" font-weight = "10" font-family="verdana" fill="black" font-size="15">KY417147-HM134917</text>
<text x="575" y="481" font-weight = "10" font-family="verdana" fill="black" font-size="15">KY417148-HM134917</text>
<text x="645" y="465" font-weight = "10" font-family="verdana" fill="black" font-size="15">FJ588686-HM134917</text>
<text x="714" y="448" font-weight = "10" font-family="verdana" fill="black" font-size="15">KY417143-HM134917</text>
<text x="714" y="432" font-weight = "10" font-family="verdana" fill="black" font-size="15">KY417149-HM134917</text>
<text x="714" y="415" font-weight = "10" font-family="verdana" fill="black" font-size="15">KJ473816-HM134917</text>
<text x="784" y="399" font-weight = "10" font-family="verdana" fill="black" font-size="15">KY770858-HM134917</text>
<text x="784" y="383" font-weight = "10" font-family="verdana" fill="black" font-size="15">KY770859-HM134917</text>
<text x="784" y="366" font-weight = "10" font-family="verdana" fill="black" font-size="15">KY417146-HM134917</text>
<text x="853" y="350" font-weight = "10" font-family="verdana" fill="black" font-size="15">KT444582-HM134917</text>
<text x="853" y="333" font-weight = "10" font-family="verdana" fill="black" font-size="15">KY417150-HM134917</text>
<text x="853" y="317" font-weight = "10" font-family="verdana" fill="black" font-size="15">KY417151-HM134917</text>
<text x="853" y="300" font-weight = "10" font-family="verdana" fill="black" font-size="15">KY417152-HM134917</text>
<text x="923" y="284" font-weight = "10" font-family="verdana" fill="black" font-size="15">KC881005-HM134917</text>
<text x="923" y="267" font-weight = "10" font-family="verdana" fill="black" font-size="15">KY417144-HM134917</text>
<text x="923" y="251" font-weight = "10" font-family="verdana" fill="black" font-size="15">KF367457-HM134917</text>
<text x="923" y="234" font-weight = "10" font-family="verdana" fill="black" font-size="15">KC881006-HM134917</text>
<text x="437" y="218" font-weight = "10" font-family="verdana" fill="black" font-size="15">GQ153543-HM134917</text>
<text x="437" y="201" font-weight = "10" font-family="verdana" fill="black" font-size="15">GQ153542-HM134917</text>
<text x="437" y="185" font-weight = "10" font-family="verdana" fill="black" font-size="15">GQ153547-HM134917</text>
<text x="575" y="168" font-weight = "10" font-family="verdana" fill="black" font-size="15">DQ084200-HM134917</text>
<text x="575" y="152" font-weight = "10" font-family="verdana" fill="black" font-size="15">DQ022305-HM134917</text>
<text x="575" y="135" font-weight = "10" font-family="verdana" fill="black" font-size="15">DQ084199-HM134917</text>
<text x="645" y="119" font-weight = "10" font-family="verdana" fill="black" font-size="15">GQ153541-HM134917</text>
<text x="714" y="102" font-weight = "10" font-family="verdana" fill="black" font-size="15">GQ153539-HM134917</text>
<text x="784" y="86" font-weight = "10" font-family="verdana" fill="black" font-size="15">GQ153540-HM134917</text>
<text x="853" y="69" font-weight = "10" font-family="verdana" fill="black" font-size="15">GQ153548-HM134917</text>
<text x="923" y="53" font-weight = "10" font-family="verdana" fill="black" font-size="15">GQ153546-HM134917</text>
<text x="992" y="36" font-weight = "10" font-family="verdana" fill="black" font-size="15">GQ153545-HM134917</text>
<text x="992" y="20" font-weight = "10" font-family="verdana" fill="black" font-size="15">GQ153544-HM134917</text>
<line x1="814.42857142857" y1="345.5652173913" x2="679.64444912081" y2="441.53469578167" style="stroke:red; stroke-width:1;stroke-dasharray: 5, 5"/>
<line x1="676.74436229378" y1="437.46167523228" x2="682.54453594784" y2="445.60771633105" style="stroke:red; stroke-width:1"/>
<line x1="676.74436229378" y1="437.46167523228" x2="675.57142857143" y2="444.4347826087" style="stroke:red; stroke-width:1"/>
<line x1="675.57142857143" y1="444.4347826087" x2="682.54453594784" y2="445.60771633105" style="stroke:red; stroke-width:1"/>
<text x="745" y="395" font-weight = "10" font-family="verdana" fill="red" font-size="15">2</text>
<line x1="328.42857142857" y1="741.04347826087" x2="263.51694333183" y2="771.85588644492" style="stroke:red; stroke-width:1;stroke-dasharray: 5, 5"/>
<line x1="261.37282977675" y1="767.3389431131" x2="265.6610568869" y2="776.37282977675" style="stroke:red; stroke-width:1"/>
<line x1="261.37282977675" y1="767.3389431131" x2="259" y2="774" style="stroke:red; stroke-width:1"/>
<line x1="259" y1="774" x2="265.6610568869" y2="776.37282977675" style="stroke:red; stroke-width:1"/>
<text x="293.71428571429" y="757.52173913043" font-weight = "10" font-family="verdana" fill="red" font-size="15">3</text>
<line x1="883.85714285714" y1="230.21739130435" x2="818.72859433689" y2="268.86161192168" style="stroke:red; stroke-width:1;stroke-dasharray: 5, 5"/>
<line x1="816.17716278031" y1="264.56158901336" x2="821.28002589347" y2="273.16163483" style="stroke:red; stroke-width:1"/>
<line x1="816.17716278031" y1="264.56158901336" x2="814.42857142857" y2="271.41304347826" style="stroke:red; stroke-width:1"/>
<line x1="814.42857142857" y1="271.41304347826" x2="821.28002589347" y2="273.16163483" style="stroke:red; stroke-width:1"/>
<text x="849.14285714286" y="250.8152173913" font-weight = "10" font-family="verdana" fill="red" font-size="15">4</text>
<line x1="259" y1="749.28260869565" x2="259" y2="729.5652173913" style="stroke:red; stroke-width:1;stroke-dasharray: 5, 5"/>
<line x1="264" y1="729.5652173913" x2="254" y2="729.5652173913" style="stroke:red; stroke-width:1"/>
<line x1="264" y1="729.5652173913" x2="259" y2="724.5652173913" style="stroke:red; stroke-width:1"/>
<line x1="259" y1="724.5652173913" x2="254" y2="729.5652173913" style="stroke:red; stroke-width:1"/>
<text x="259" y="736.92391304348" font-weight = "10" font-family="verdana" fill="red" font-size="15">5</text>
<line x1="745" y1="81.913043478261" x2="611.00771351634" y2="113.71493433898" style="stroke:red; stroke-width:1;stroke-dasharray: 5, 5"/>
<line x1="609.85308263793" y1="108.8500779655" x2="612.16234439475" y2="118.57979071247" style="stroke:red; stroke-width:1"/>
<line x1="609.85308263793" y1="108.8500779655" x2="606.14285714286" y2="114.86956521739" style="stroke:red; stroke-width:1"/>
<line x1="606.14285714286" y1="114.86956521739" x2="612.16234439475" y2="118.57979071247" style="stroke:red; stroke-width:1"/>
<text x="675.57142857143" y="98.391304347826" font-weight = "10" font-family="verdana" fill="red" font-size="15">6</text>
<line x1="467.28571428571" y1="543.30434782609" x2="402.56753754603" y2="566.34478299656" style="stroke:red; stroke-width:1;stroke-dasharray: 5, 5"/>
<line x1="400.89058141216" y1="561.63438830768" x2="404.2444936799" y2="571.05517768545" style="stroke:red; stroke-width:1"/>
<line x1="400.89058141216" y1="561.63438830768" x2="397.85714285714" y2="568.02173913043" style="stroke:red; stroke-width:1"/>
<line x1="397.85714285714" y1="568.02173913043" x2="404.2444936799" y2="571.05517768545" style="stroke:red; stroke-width:1"/>
<text x="432.57142857143" y="555.66304347826" font-weight = "10" font-family="verdana" fill="red" font-size="15">7</text>
<line x1="675.57142857143" y1="427.95652173913" x2="675.57142857143" y2="284.65217391304" style="stroke:red; stroke-width:1;stroke-dasharray: 5, 5"/>
<line x1="680.57142857143" y1="284.65217391304" x2="670.57142857143" y2="284.65217391304" style="stroke:red; stroke-width:1"/>
<line x1="680.57142857143" y1="284.65217391304" x2="675.57142857143" y2="279.65217391304" style="stroke:red; stroke-width:1"/>
<line x1="675.57142857143" y1="279.65217391304" x2="670.57142857143" y2="284.65217391304" style="stroke:red; stroke-width:1"/>
<text x="675.57142857143" y="353.80434782609" font-weight = "10" font-family="verdana" fill="red" font-size="15">8</text>
<line x1="328.42857142857" y1="708.08695652174" x2="393.34019952532" y2="677.27454833769" style="stroke:red; stroke-width:1;stroke-dasharray: 5, 5"/>
<line x1="395.4843130804" y1="681.79149166951" x2="391.19608597024" y2="672.75760500586" style="stroke:red; stroke-width:1"/>
<line x1="395.4843130804" y1="681.79149166951" x2="397.85714285714" y2="675.13043478261" style="stroke:red; stroke-width:1"/>
<line x1="397.85714285714" y1="675.13043478261" x2="391.19608597024" y2="672.75760500586" style="stroke:red; stroke-width:1"/>
<text x="363.14285714286" y="691.60869565217" font-weight = "10" font-family="verdana" fill="red" font-size="15">9</text>
<line x1="328.42857142857" y1="708.08695652174" x2="263.30002290832" y2="746.73117713907" style="stroke:red; stroke-width:1;stroke-dasharray: 5, 5"/>
<line x1="260.74859135174" y1="742.43115423075" x2="265.8514544649" y2="751.03120004739" style="stroke:red; stroke-width:1"/>
<line x1="260.74859135174" y1="742.43115423075" x2="259" y2="749.28260869565" style="stroke:red; stroke-width:1"/>
<line x1="259" y1="749.28260869565" x2="265.8514544649" y2="751.03120004739" style="stroke:red; stroke-width:1"/>
<text x="293.71428571429" y="728.6847826087" font-weight = "10" font-family="verdana" fill="red" font-size="15">10</text>
<line x1="953.28571428571" y1="32.478260869565" x2="749.86485637348" y2="80.758412599852" style="stroke:red; stroke-width:1;stroke-dasharray: 5, 5"/>
<line x1="748.71022549508" y1="75.893556226369" x2="751.01948725189" y2="85.623268973336" style="stroke:red; stroke-width:1"/>
<line x1="748.71022549508" y1="75.893556226369" x2="745" y2="81.913043478261" style="stroke:red; stroke-width:1"/>
<line x1="745" y1="81.913043478261" x2="751.01948725189" y2="85.623268973336" style="stroke:red; stroke-width:1"/>
<text x="849.14285714286" y="57.195652173913" font-weight = "10" font-family="verdana" fill="red" font-size="15">11</text>
<line x1="675.57142857143" y1="427.95652173913" x2="402.15716576546" y2="590.1876988782" style="stroke:red; stroke-width:1;stroke-dasharray: 5, 5"/>
<line x1="399.60573420889" y1="585.88767596988" x2="404.70859732204" y2="594.48772178652" style="stroke:red; stroke-width:1"/>
<line x1="399.60573420889" y1="585.88767596988" x2="397.85714285714" y2="592.73913043478" style="stroke:red; stroke-width:1"/>
<line x1="397.85714285714" y1="592.73913043478" x2="404.70859732204" y2="594.48772178652" style="stroke:red; stroke-width:1"/>
<text x="536.71428571429" y="510.34782608696" font-weight = "10" font-family="verdana" fill="red" font-size="15">12</text>
<line x1="953.28571428571" y1="32.478260869565" x2="541.53296681054" y2="146.49180344369" style="stroke:red; stroke-width:1;stroke-dasharray: 5, 5"/>
<line x1="540.19868329771" y1="141.67312234744" x2="542.86725032337" y2="151.31048453994" style="stroke:red; stroke-width:1"/>
<line x1="540.19868329771" y1="141.67312234744" x2="536.71428571429" y2="147.82608695652" style="stroke:red; stroke-width:1"/>
<line x1="536.71428571429" y1="147.82608695652" x2="542.86725032337" y2="151.31048453994" style="stroke:red; stroke-width:1"/>
<text x="745" y="90.152173913043" font-weight = "10" font-family="verdana" fill="red" font-size="15">13</text>
<line x1="953.28571428571" y1="32.478260869565" x2="541.57914208777" y2="130.19319520855" style="stroke:red; stroke-width:1;stroke-dasharray: 5, 5"/>
<line x1="540.42451120936" y1="125.32833883506" x2="542.73377296618" y2="135.05805158203" style="stroke:red; stroke-width:1"/>
<line x1="540.42451120936" y1="125.32833883506" x2="536.71428571429" y2="131.34782608696" style="stroke:red; stroke-width:1"/>
<line x1="536.71428571429" y1="131.34782608696" x2="542.73377296618" y2="135.05805158203" style="stroke:red; stroke-width:1"/>
<text x="745" y="81.913043478261" font-weight = "10" font-family="verdana" fill="red" font-size="15">14</text>
<line x1="814.42857142857" y1="65.434782608696" x2="879.55711994882" y2="26.790561991362" style="stroke:red; stroke-width:1;stroke-dasharray: 5, 5"/>
<line x1="882.1085515054" y1="31.090584899684" x2="877.00568839224" y2="22.49053908304" style="stroke:red; stroke-width:1"/>
<line x1="882.1085515054" y1="31.090584899684" x2="883.85714285714" y2="24.239130434783" style="stroke:red; stroke-width:1"/>
<line x1="883.85714285714" y1="24.239130434783" x2="877.00568839224" y2="22.49053908304" style="stroke:red; stroke-width:1"/>
<text x="849.14285714286" y="44.836956521739" font-weight = "10" font-family="verdana" fill="red" font-size="15">15</text>
<line x1="397.85714285714" y1="213.73913043478" x2="809.71817673969" y2="67.111738742567" style="stroke:red; stroke-width:1;stroke-dasharray: 5, 5"/>
<line x1="811.39513287356" y1="71.822133431452" x2="808.04122060582" y2="62.401344053683" style="stroke:red; stroke-width:1"/>
<line x1="811.39513287356" y1="71.822133431452" x2="814.42857142857" y2="65.434782608696" style="stroke:red; stroke-width:1"/>
<line x1="814.42857142857" y1="65.434782608696" x2="808.04122060582" y2="62.401344053683" style="stroke:red; stroke-width:1"/>
<text x="606.14285714286" y="139.58695652174" font-weight = "10" font-family="verdana" fill="red" font-size="15">16</text>
<line x1="883.85714285714" y1="48.95652173913" x2="333.24108200165" y2="204.14362911267" style="stroke:red; stroke-width:1;stroke-dasharray: 5, 5"/>
<line x1="331.88471111432" y1="199.33111853959" x2="334.59745288898" y2="208.95613968575" style="stroke:red; stroke-width:1"/>
<line x1="331.88471111432" y1="199.33111853959" x2="328.42857142857" y2="205.5" style="stroke:red; stroke-width:1"/>
<line x1="328.42857142857" y1="205.5" x2="334.59745288898" y2="208.95613968575" style="stroke:red; stroke-width:1"/>
<text x="606.14285714286" y="127.22826086957" font-weight = "10" font-family="verdana" fill="red" font-size="15">17</text>
<line x1="259" y1="650.41304347826" x2="327.73027456963" y2="163.10818213364" style="stroke:red; stroke-width:1;stroke-dasharray: 5, 5"/>
<line x1="332.68127260001" y1="163.80647899257" x2="322.77927653926" y2="162.4098852747" style="stroke:red; stroke-width:1"/>
<line x1="332.68127260001" y1="163.80647899257" x2="328.42857142857" y2="158.15718410326" style="stroke:red; stroke-width:1"/>
<line x1="328.42857142857" y1="158.15718410326" x2="322.77927653926" y2="162.4098852747" style="stroke:red; stroke-width:1"/>
<text x="293.71428571429" y="404.28511379076" font-weight = "10" font-family="verdana" fill="red" font-size="15">18</text>
<line x1="259" y1="650.41304347826" x2="393.06364901586" y2="610.63950831555" style="stroke:red; stroke-width:1;stroke-dasharray: 5, 5"/>
<line x1="394.48576602705" y1="615.43300215683" x2="391.64153200466" y2="605.84601447426" style="stroke:red; stroke-width:1"/>
<line x1="394.48576602705" y1="615.43300215683" x2="397.85714285714" y2="609.21739130435" style="stroke:red; stroke-width:1"/>
<line x1="397.85714285714" y1="609.21739130435" x2="391.64153200466" y2="605.84601447426" style="stroke:red; stroke-width:1"/>
<text x="328.42857142857" y="629.8152173913" font-weight = "10" font-family="verdana" fill="red" font-size="15">19</text>
<line x1="467.28571428571" y1="543.30434782609" x2="263.44652298413" y2="648.12646670246" style="stroke:red; stroke-width:1;stroke-dasharray: 5, 5"/>
<line x1="261.15994620832" y1="643.67994371833" x2="265.73309975993" y2="652.57298968658" style="stroke:red; stroke-width:1"/>
<line x1="261.15994620832" y1="643.67994371833" x2="259" y2="650.41304347826" style="stroke:red; stroke-width:1"/>
<line x1="259" y1="650.41304347826" x2="265.73309975993" y2="652.57298968658" style="stroke:red; stroke-width:1"/>
<text x="363.14285714286" y="596.85869565217" font-weight = "10" font-family="verdana" fill="red" font-size="15">20</text>
<line x1="675.57142857143" y1="427.95652173913" x2="402.52220569653" y2="533.26599847616" style="stroke:red; stroke-width:1;stroke-dasharray: 5, 5"/>
<line x1="400.72298678139" y1="528.60093563678" x2="404.32142461167" y2="537.93106131555" style="stroke:red; stroke-width:1"/>
<line x1="400.72298678139" y1="528.60093563678" x2="397.85714285714" y2="535.0652173913" style="stroke:red; stroke-width:1"/>
<line x1="397.85714285714" y1="535.0652173913" x2="404.32142461167" y2="537.93106131555" style="stroke:red; stroke-width:1"/>
<text x="536.71428571429" y="481.51086956522" font-weight = "10" font-family="verdana" fill="red" font-size="15">21</text>
<line x1="745" y1="395" x2="541.5567774936" y2="447.30924808421" style="stroke:red; stroke-width:1;stroke-dasharray: 5, 5"/>
<line x1="540.31167775172" y1="442.46675630489" x2="542.80187723549" y2="452.15173986352" style="stroke:red; stroke-width:1"/>
<line x1="540.31167775172" y1="442.46675630489" x2="536.71428571429" y2="448.55434782609" style="stroke:red; stroke-width:1"/>
<line x1="536.71428571429" y1="448.55434782609" x2="542.80187723549" y2="452.15173986352" style="stroke:red; stroke-width:1"/>
<text x="640.85714285714" y="421.77717391304" font-weight = "10" font-family="verdana" fill="red" font-size="15">22</text>
<line x1="745" y1="395" x2="745" y2="367.04347826087" style="stroke:red; stroke-width:1;stroke-dasharray: 5, 5"/>
<line x1="750" y1="367.04347826087" x2="740" y2="367.04347826087" style="stroke:red; stroke-width:1"/>
<line x1="750" y1="367.04347826087" x2="745" y2="362.04347826087" style="stroke:red; stroke-width:1"/>
<line x1="745" y1="362.04347826087" x2="740" y2="367.04347826087" style="stroke:red; stroke-width:1"/>
<text x="745" y="378.52173913043" font-weight = "10" font-family="verdana" fill="red" font-size="15">23</text>
<line x1="536.71428571429" y1="493.86956521739" x2="671.61238393542" y2="389.81471395714" style="stroke:red; stroke-width:1;stroke-dasharray: 5, 5"/>
<line x1="674.66622832733" y1="393.77375859315" x2="668.5585395435" y2="385.85566932112" style="stroke:red; stroke-width:1"/>
<line x1="674.66622832733" y1="393.77375859315" x2="675.57142857143" y2="386.76086956522" style="stroke:red; stroke-width:1"/>
<line x1="675.57142857143" y1="386.76086956522" x2="668.5585395435" y2="385.85566932112" style="stroke:red; stroke-width:1"/>
<text x="606.14285714286" y="440.3152173913" font-weight = "10" font-family="verdana" fill="red" font-size="15">24</text>
<line x1="467.28571428571" y1="485.63043478261" x2="402.56753754603" y2="508.67086995309" style="stroke:red; stroke-width:1;stroke-dasharray: 5, 5"/>
<line x1="400.89058141216" y1="503.9604752642" x2="404.2444936799" y2="513.38126464197" style="stroke:red; stroke-width:1"/>
<line x1="400.89058141216" y1="503.9604752642" x2="397.85714285714" y2="510.34782608696" style="stroke:red; stroke-width:1"/>
<line x1="397.85714285714" y1="510.34782608696" x2="404.2444936799" y2="513.38126464197" style="stroke:red; stroke-width:1"/>
<text x="432.57142857143" y="497.98913043478" font-weight = "10" font-family="verdana" fill="red" font-size="15">25</text>
<line x1="883.85714285714" y1="279.65217391304" x2="818.9455147604" y2="310.4645820971" style="stroke:red; stroke-width:1;stroke-dasharray: 5, 5"/>
<line x1="816.80140120532" y1="305.94763876527" x2="821.08962831548" y2="314.98152542892" style="stroke:red; stroke-width:1"/>
<line x1="816.80140120532" y1="305.94763876527" x2="814.42857142857" y2="312.60869565217" style="stroke:red; stroke-width:1"/>
<line x1="814.42857142857" y1="312.60869565217" x2="821.08962831548" y2="314.98152542892" style="stroke:red; stroke-width:1"/>
<text x="849.14285714286" y="296.13043478261" font-weight = "10" font-family="verdana" fill="red" font-size="15">1</text>
</g></svg>