<?xml version="1.0" encoding="iso-8859-1"?>
<!DOCTYPE svg PUBLIC "-//W3C//DTD SVG 1.0//EN" "http://www.w3.org/TR/2001/REC-SVG-20010904/DTD/svg10.dtd">
<svg width="1154" height="820" xmlns="http://www.w3.org/2000/svg" xmlns:xlink="http://www.w3.org/1999/xlink">
<g style="stroke:black;fill:lightgreen" transform="translate(30,30)">
<line x1="363" y1="601" x2="363" y2="593" style="stroke:blue; stroke-width:1"/>
<line x1="363" y1="593" x2="433" y2="593" style="stroke:blue; stroke-width:1"/>
<line x1="363" y1="601" x2="363" y2="609" style="stroke:blue; stroke-width:1"/>
<line x1="363" y1="609" x2="433" y2="609" style="stroke:blue; stroke-width:1"/>
<line x1="294" y1="749" x2="294" y2="758" style="stroke:blue; stroke-width:1"/>
<line x1="294" y1="758" x2="363" y2="758" style="stroke:blue; stroke-width:1"/>
<line x1="294" y1="749" x2="294" y2="741" style="stroke:blue; stroke-width:1"/>
<line x1="294" y1="741" x2="363" y2="741" style="stroke:blue; stroke-width:1"/>
<line x1="224" y1="762" x2="224" y2="774" style="stroke:blue; stroke-width:1"/>
<line x1="224" y1="774" x2="294" y2="774" style="stroke:blue; stroke-width:1"/>
<line x1="363" y1="683" x2="363" y2="675" style="stroke:blue; stroke-width:1"/>
<line x1="363" y1="675" x2="433" y2="675" style="stroke:blue; stroke-width:1"/>
<line x1="363" y1="683" x2="363" y2="692" style="stroke:blue; stroke-width:1"/>
<line x1="363" y1="692" x2="433" y2="692" style="stroke:blue; stroke-width:1"/>
<line x1="294" y1="696" x2="294" y2="708" style="stroke:blue; stroke-width:1"/>
<line x1="294" y1="708" x2="363" y2="708" style="stroke:blue; stroke-width:1"/>
<line x1="224" y1="710" x2="224" y2="725" style="stroke:blue; stroke-width:1"/>
<line x1="224" y1="725" x2="294" y2="725" style="stroke:blue; stroke-width:1"/>
<line x1="433" y1="568" x2="433" y2="560" style="stroke:blue; stroke-width:1"/>
<line x1="433" y1="560" x2="502" y2="560" style="stroke:blue; stroke-width:1"/>
<line x1="433" y1="568" x2="433" y2="576" style="stroke:blue; stroke-width:1"/>
<line x1="433" y1="576" x2="502" y2="576" style="stroke:blue; stroke-width:1"/>
<line x1="433" y1="535" x2="433" y2="543" style="stroke:blue; stroke-width:1"/>
<line x1="433" y1="543" x2="502" y2="543" style="stroke:blue; stroke-width:1"/>
<line x1="433" y1="535" x2="433" y2="527" style="stroke:blue; stroke-width:1"/>
<line x1="433" y1="527" x2="502" y2="527" style="stroke:blue; stroke-width:1"/>
<line x1="502" y1="486" x2="502" y2="494" style="stroke:blue; stroke-width:1"/>
<line x1="502" y1="494" x2="571" y2="494" style="stroke:blue; stroke-width:1"/>
<line x1="502" y1="486" x2="502" y2="477" style="stroke:blue; stroke-width:1"/>
<line x1="502" y1="477" x2="571" y2="477" style="stroke:blue; stroke-width:1"/>
<line x1="849" y1="271" x2="849" y2="263" style="stroke:blue; stroke-width:1"/>
<line x1="849" y1="263" x2="919" y2="263" style="stroke:blue; stroke-width:1"/>
<line x1="849" y1="271" x2="849" y2="280" style="stroke:blue; stroke-width:1"/>
<line x1="849" y1="280" x2="919" y2="280" style="stroke:blue; stroke-width:1"/>
<line x1="849" y1="238" x2="849" y2="247" style="stroke:blue; stroke-width:1"/>
<line x1="849" y1="247" x2="919" y2="247" style="stroke:blue; stroke-width:1"/>
<line x1="849" y1="238" x2="849" y2="230" style="stroke:blue; stroke-width:1"/>
<line x1="849" y1="230" x2="919" y2="230" style="stroke:blue; stroke-width:1"/>
<line x1="780" y1="304" x2="780" y2="313" style="stroke:blue; stroke-width:1"/>
<line x1="780" y1="313" x2="849" y2="313" style="stroke:blue; stroke-width:1"/>
<line x1="780" y1="304" x2="780" y2="296" style="stroke:blue; stroke-width:1"/>
<line x1="780" y1="296" x2="849" y2="296" style="stroke:blue; stroke-width:1"/>
<line x1="780" y1="337" x2="780" y2="346" style="stroke:blue; stroke-width:1"/>
<line x1="780" y1="346" x2="849" y2="346" style="stroke:blue; stroke-width:1"/>
<line x1="780" y1="337" x2="780" y2="329" style="stroke:blue; stroke-width:1"/>
<line x1="780" y1="329" x2="849" y2="329" style="stroke:blue; stroke-width:1"/>
<line x1="710" y1="350" x2="710" y2="362" style="stroke:blue; stroke-width:1"/>
<line x1="710" y1="362" x2="780" y2="362" style="stroke:blue; stroke-width:1"/>
<line x1="710" y1="387" x2="710" y2="395" style="stroke:blue; stroke-width:1"/>
<line x1="710" y1="395" x2="780" y2="395" style="stroke:blue; stroke-width:1"/>
<line x1="710" y1="387" x2="710" y2="379" style="stroke:blue; stroke-width:1"/>
<line x1="710" y1="379" x2="780" y2="379" style="stroke:blue; stroke-width:1"/>
<line x1="641" y1="399" x2="641" y2="411" style="stroke:blue; stroke-width:1"/>
<line x1="641" y1="411" x2="710" y2="411" style="stroke:blue; stroke-width:1"/>
<line x1="641" y1="436" x2="641" y2="428" style="stroke:blue; stroke-width:1"/>
<line x1="641" y1="428" x2="710" y2="428" style="stroke:blue; stroke-width:1"/>
<line x1="641" y1="436" x2="641" y2="444" style="stroke:blue; stroke-width:1"/>
<line x1="641" y1="444" x2="710" y2="444" style="stroke:blue; stroke-width:1"/>
<line x1="571" y1="449" x2="571" y2="461" style="stroke:blue; stroke-width:1"/>
<line x1="571" y1="461" x2="641" y2="461" style="stroke:blue; stroke-width:1"/>
<line x1="363" y1="477" x2="363" y2="510" style="stroke:blue; stroke-width:1"/>
<line x1="363" y1="510" x2="433" y2="510" style="stroke:blue; stroke-width:1"/>
<line x1="502" y1="156" x2="502" y2="164" style="stroke:blue; stroke-width:1"/>
<line x1="502" y1="164" x2="571" y2="164" style="stroke:blue; stroke-width:1"/>
<line x1="502" y1="156" x2="502" y2="148" style="stroke:blue; stroke-width:1"/>
<line x1="502" y1="148" x2="571" y2="148" style="stroke:blue; stroke-width:1"/>
<line x1="919" y1="24" x2="919" y2="32" style="stroke:blue; stroke-width:1"/>
<line x1="919" y1="32" x2="988" y2="32" style="stroke:blue; stroke-width:1"/>
<line x1="919" y1="24" x2="919" y2="16" style="stroke:blue; stroke-width:1"/>
<line x1="919" y1="16" x2="988" y2="16" style="stroke:blue; stroke-width:1"/>
<line x1="849" y1="37" x2="849" y2="49" style="stroke:blue; stroke-width:1"/>
<line x1="849" y1="49" x2="919" y2="49" style="stroke:blue; stroke-width:1"/>
<line x1="780" y1="51" x2="780" y2="65" style="stroke:blue; stroke-width:1"/>
<line x1="780" y1="65" x2="849" y2="65" style="stroke:blue; stroke-width:1"/>
<line x1="710" y1="66" x2="710" y2="82" style="stroke:blue; stroke-width:1"/>
<line x1="710" y1="82" x2="780" y2="82" style="stroke:blue; stroke-width:1"/>
<line x1="641" y1="82" x2="641" y2="98" style="stroke:blue; stroke-width:1"/>
<line x1="641" y1="98" x2="710" y2="98" style="stroke:blue; stroke-width:1"/>
<line x1="571" y1="99" x2="571" y2="115" style="stroke:blue; stroke-width:1"/>
<line x1="571" y1="115" x2="641" y2="115" style="stroke:blue; stroke-width:1"/>
<line x1="502" y1="115" x2="502" y2="131" style="stroke:blue; stroke-width:1"/>
<line x1="502" y1="131" x2="571" y2="131" style="stroke:blue; stroke-width:1"/>
<line x1="363" y1="158" x2="363" y2="181" style="stroke:blue; stroke-width:1"/>
<line x1="363" y1="181" x2="433" y2="181" style="stroke:blue; stroke-width:1"/>
<line x1="363" y1="205" x2="363" y2="214" style="stroke:blue; stroke-width:1"/>
<line x1="363" y1="214" x2="433" y2="214" style="stroke:blue; stroke-width:1"/>
<line x1="363" y1="205" x2="363" y2="197" style="stroke:blue; stroke-width:1"/>
<line x1="363" y1="197" x2="433" y2="197" style="stroke:blue; stroke-width:1"/>
<line x1="294" y1="650" x2="294" y2="659" style="stroke:blue; stroke-width:1"/>
<line x1="294" y1="659" x2="363" y2="659" style="stroke:blue; stroke-width:1"/>
<line x1="294" y1="650" x2="294" y2="642" style="stroke:blue; stroke-width:1"/>
<line x1="294" y1="642" x2="363" y2="642" style="stroke:blue; stroke-width:1"/>
<line x1="294" y1="613" x2="294" y2="626" style="stroke:blue; stroke-width:1"/>
<line x1="294" y1="626" x2="363" y2="626" style="stroke:blue; stroke-width:1"/>
<line x1="294" y1="613" x2="294" y2="601" style="stroke:blue; stroke-width:1"/>
<line x1="294" y1="601" x2="363" y2="601" style="stroke:blue; stroke-width:1"/>
<line x1="224" y1="762" x2="224" y2="749" style="stroke:blue; stroke-width:1"/>
<line x1="224" y1="749" x2="294" y2="749" style="stroke:blue; stroke-width:1"/>
<line x1="155" y1="736" x2="155" y2="762" style="stroke:blue; stroke-width:1"/>
<line x1="155" y1="762" x2="224" y2="762" style="stroke:blue; stroke-width:1"/>
<line x1="85" y1="613" x2="85" y2="736" style="stroke:blue; stroke-width:1"/>
<line x1="85" y1="736" x2="155" y2="736" style="stroke:blue; stroke-width:1"/>
<line x1="155" y1="736" x2="155" y2="710" style="stroke:blue; stroke-width:1"/>
<line x1="155" y1="710" x2="224" y2="710" style="stroke:blue; stroke-width:1"/>
<line x1="224" y1="710" x2="224" y2="696" style="stroke:blue; stroke-width:1"/>
<line x1="224" y1="696" x2="294" y2="696" style="stroke:blue; stroke-width:1"/>
<line x1="294" y1="696" x2="294" y2="683" style="stroke:blue; stroke-width:1"/>
<line x1="294" y1="683" x2="363" y2="683" style="stroke:blue; stroke-width:1"/>
<line x1="85" y1="613" x2="85" y2="490" style="stroke:blue; stroke-width:1"/>
<line x1="85" y1="490" x2="155" y2="490" style="stroke:blue; stroke-width:1"/>
<line x1="294" y1="182" x2="294" y2="205" style="stroke:blue; stroke-width:1"/>
<line x1="294" y1="205" x2="363" y2="205" style="stroke:blue; stroke-width:1"/>
<line x1="224" y1="348" x2="224" y2="182" style="stroke:blue; stroke-width:1"/>
<line x1="224" y1="182" x2="294" y2="182" style="stroke:blue; stroke-width:1"/>
<line x1="294" y1="182" x2="294" y2="158" style="stroke:blue; stroke-width:1"/>
<line x1="294" y1="158" x2="363" y2="158" style="stroke:blue; stroke-width:1"/>
<line x1="433" y1="136" x2="433" y2="156" style="stroke:blue; stroke-width:1"/>
<line x1="433" y1="156" x2="502" y2="156" style="stroke:blue; stroke-width:1"/>
<line x1="363" y1="158" x2="363" y2="136" style="stroke:blue; stroke-width:1"/>
<line x1="363" y1="136" x2="433" y2="136" style="stroke:blue; stroke-width:1"/>
<line x1="502" y1="115" x2="502" y2="99" style="stroke:blue; stroke-width:1"/>
<line x1="502" y1="99" x2="571" y2="99" style="stroke:blue; stroke-width:1"/>
<line x1="641" y1="82" x2="641" y2="66" style="stroke:blue; stroke-width:1"/>
<line x1="641" y1="66" x2="710" y2="66" style="stroke:blue; stroke-width:1"/>
<line x1="849" y1="37" x2="849" y2="24" style="stroke:blue; stroke-width:1"/>
<line x1="849" y1="24" x2="919" y2="24" style="stroke:blue; stroke-width:1"/>
<line x1="780" y1="51" x2="780" y2="37" style="stroke:blue; stroke-width:1"/>
<line x1="780" y1="37" x2="849" y2="37" style="stroke:blue; stroke-width:1"/>
<line x1="710" y1="66" x2="710" y2="51" style="stroke:blue; stroke-width:1"/>
<line x1="710" y1="51" x2="780" y2="51" style="stroke:blue; stroke-width:1"/>
<line x1="571" y1="99" x2="571" y2="82" style="stroke:blue; stroke-width:1"/>
<line x1="571" y1="82" x2="641" y2="82" style="stroke:blue; stroke-width:1"/>
<line x1="433" y1="136" x2="433" y2="115" style="stroke:blue; stroke-width:1"/>
<line x1="433" y1="115" x2="502" y2="115" style="stroke:blue; stroke-width:1"/>
<line x1="155" y1="490" x2="155" y2="348" style="stroke:blue; stroke-width:1"/>
<line x1="155" y1="348" x2="224" y2="348" style="stroke:blue; stroke-width:1"/>
<line x1="363" y1="552" x2="363" y2="568" style="stroke:blue; stroke-width:1"/>
<line x1="363" y1="568" x2="433" y2="568" style="stroke:blue; stroke-width:1"/>
<line x1="294" y1="514" x2="294" y2="552" style="stroke:blue; stroke-width:1"/>
<line x1="294" y1="552" x2="363" y2="552" style="stroke:blue; stroke-width:1"/>
<line x1="363" y1="552" x2="363" y2="535" style="stroke:blue; stroke-width:1"/>
<line x1="363" y1="535" x2="433" y2="535" style="stroke:blue; stroke-width:1"/>
<line x1="224" y1="348" x2="224" y2="514" style="stroke:blue; stroke-width:1"/>
<line x1="224" y1="514" x2="294" y2="514" style="stroke:blue; stroke-width:1"/>
<line x1="294" y1="514" x2="294" y2="477" style="stroke:blue; stroke-width:1"/>
<line x1="294" y1="477" x2="363" y2="477" style="stroke:blue; stroke-width:1"/>
<line x1="433" y1="444" x2="433" y2="486" style="stroke:blue; stroke-width:1"/>
<line x1="433" y1="486" x2="502" y2="486" style="stroke:blue; stroke-width:1"/>
<line x1="363" y1="477" x2="363" y2="444" style="stroke:blue; stroke-width:1"/>
<line x1="363" y1="444" x2="433" y2="444" style="stroke:blue; stroke-width:1"/>
<line x1="571" y1="449" x2="571" y2="436" style="stroke:blue; stroke-width:1"/>
<line x1="571" y1="436" x2="641" y2="436" style="stroke:blue; stroke-width:1"/>
<line x1="502" y1="403" x2="502" y2="449" style="stroke:blue; stroke-width:1"/>
<line x1="502" y1="449" x2="571" y2="449" style="stroke:blue; stroke-width:1"/>
<line x1="433" y1="444" x2="433" y2="403" style="stroke:blue; stroke-width:1"/>
<line x1="433" y1="403" x2="502" y2="403" style="stroke:blue; stroke-width:1"/>
<line x1="710" y1="280" x2="710" y2="304" style="stroke:blue; stroke-width:1"/>
<line x1="710" y1="304" x2="780" y2="304" style="stroke:blue; stroke-width:1"/>
<line x1="641" y1="315" x2="641" y2="280" style="stroke:blue; stroke-width:1"/>
<line x1="641" y1="280" x2="710" y2="280" style="stroke:blue; stroke-width:1"/>
<line x1="780" y1="255" x2="780" y2="271" style="stroke:blue; stroke-width:1"/>
<line x1="780" y1="271" x2="849" y2="271" style="stroke:blue; stroke-width:1"/>
<line x1="710" y1="280" x2="710" y2="255" style="stroke:blue; stroke-width:1"/>
<line x1="710" y1="255" x2="780" y2="255" style="stroke:blue; stroke-width:1"/>
<line x1="780" y1="255" x2="780" y2="238" style="stroke:blue; stroke-width:1"/>
<line x1="780" y1="238" x2="849" y2="238" style="stroke:blue; stroke-width:1"/>
<line x1="571" y1="357" x2="571" y2="315" style="stroke:blue; stroke-width:1"/>
<line x1="571" y1="315" x2="641" y2="315" style="stroke:blue; stroke-width:1"/>
<line x1="710" y1="350" x2="710" y2="337" style="stroke:blue; stroke-width:1"/>
<line x1="710" y1="337" x2="780" y2="337" style="stroke:blue; stroke-width:1"/>
<line x1="641" y1="315" x2="641" y2="350" style="stroke:blue; stroke-width:1"/>
<line x1="641" y1="350" x2="710" y2="350" style="stroke:blue; stroke-width:1"/>
<line x1="502" y1="403" x2="502" y2="357" style="stroke:blue; stroke-width:1"/>
<line x1="502" y1="357" x2="571" y2="357" style="stroke:blue; stroke-width:1"/>
<line x1="641" y1="399" x2="641" y2="387" style="stroke:blue; stroke-width:1"/>
<line x1="641" y1="387" x2="710" y2="387" style="stroke:blue; stroke-width:1"/>
<line x1="571" y1="357" x2="571" y2="399" style="stroke:blue; stroke-width:1"/>
<line x1="571" y1="399" x2="641" y2="399" style="stroke:blue; stroke-width:1"/>
<line x1="155" y1="490" x2="155" y2="632" style="stroke:blue; stroke-width:1"/>
<line x1="155" y1="632" x2="224" y2="632" style="stroke:blue; stroke-width:1"/>
<line x1="224" y1="632" x2="224" y2="650" style="stroke:blue; stroke-width:1"/>
<line x1="224" y1="650" x2="294" y2="650" style="stroke:blue; stroke-width:1"/>
<line x1="224" y1="632" x2="224" y2="613" style="stroke:blue; stroke-width:1"/>
<line x1="224" y1="613" x2="294" y2="613" style="stroke:blue; stroke-width:1"/>
<line x1="16" y1="613" x2="16" y2="613" style="stroke:blue; stroke-width:1"/>
<line x1="16" y1="613" x2="85" y2="613" style="stroke:blue; stroke-width:1"/>
<text x="20" y="607" font-weight = "10" font-family="verdana" fill="black" font-size="15">Root</text>
<text x="298" y="778" font-weight = "10" font-family="verdana" fill="black" font-size="15">KJ473795-AB085735</text>
<text x="367" y="762" font-weight = "10" font-family="verdana" fill="black" font-size="15">KJ473796-AB085735</text>
<text x="367" y="745" font-weight = "10" font-family="verdana" fill="black" font-size="15">EU420138-ON640726</text>
<text x="298" y="729" font-weight = "10" font-family="verdana" fill="black" font-size="15">KJ473797-AB085735</text>
<text x="367" y="712" font-weight = "10" font-family="verdana" fill="black" font-size="15">KJ473800-AB085735</text>
<text x="437" y="696" font-weight = "10" font-family="verdana" fill="black" font-size="15">KJ473799-AB085735</text>
<text x="437" y="679" font-weight = "10" font-family="verdana" fill="black" font-size="15">KJ473798-AB085735</text>
<text x="367" y="663" font-weight = "10" font-family="verdana" fill="black" font-size="15">GU190215-MZ936290</text>
<text x="367" y="646" font-weight = "10" font-family="verdana" fill="black" font-size="15">NC_014470-MZ936290</text>
<text x="367" y="630" font-weight = "10" font-family="verdana" fill="black" font-size="15">MN996532-KP972690</text>
<text x="437" y="613" font-weight = "10" font-family="verdana" fill="black" font-size="15">MG772934-HM134917</text>
<text x="437" y="597" font-weight = "10" font-family="verdana" fill="black" font-size="15">MG772933-HM134917</text>
<text x="506" y="580" font-weight = "10" font-family="verdana" fill="black" font-size="15">DQ648857-KX261916</text>
<text x="506" y="564" font-weight = "10" font-family="verdana" fill="black" font-size="15">DQ412043-KX261916</text>
<text x="506" y="547" font-weight = "10" font-family="verdana" fill="black" font-size="15">JX993987-ON012504</text>
<text x="506" y="531" font-weight = "10" font-family="verdana" fill="black" font-size="15">KJ473814-HM134917</text>
<text x="437" y="514" font-weight = "10" font-family="verdana" fill="black" font-size="15">KJ473815-HM134917</text>
<text x="575" y="498" font-weight = "10" font-family="verdana" fill="black" font-size="15">KY417147-HM134917</text>
<text x="575" y="481" font-weight = "10" font-family="verdana" fill="black" font-size="15">KY417148-HM134917</text>
<text x="645" y="465" font-weight = "10" font-family="verdana" fill="black" font-size="15">FJ588686-HM134917</text>
<text x="714" y="448" font-weight = "10" font-family="verdana" fill="black" font-size="15">KY417143-HM134917</text>
<text x="714" y="432" font-weight = "10" font-family="verdana" fill="black" font-size="15">KY417149-HM134917</text>
<text x="714" y="415" font-weight = "10" font-family="verdana" fill="black" font-size="15">KJ473816-HM134917</text>
<text x="784" y="399" font-weight = "10" font-family="verdana" fill="black" font-size="15">KY770858-HM134917</text>
<text x="784" y="383" font-weight = "10" font-family="verdana" fill="black" font-size="15">KY770859-HM134917</text>
<text x="784" y="366" font-weight = "10" font-family="verdana" fill="black" font-size="15">KY417146-HM134917</text>
<text x="853" y="350" font-weight = "10" font-family="verdana" fill="black" font-size="15">KT444582-HM134917</text>
<text x="853" y="333" font-weight = "10" font-family="verdana" fill="black" font-size="15">KY417150-HM134917</text>
<text x="853" y="317" font-weight = "10" font-family="verdana" fill="black" font-size="15">KY417151-HM134917</text>
<text x="853" y="300" font-weight = "10" font-family="verdana" fill="black" font-size="15">KY417152-HM134917</text>
<text x="923" y="284" font-weight = "10" font-family="verdana" fill="black" font-size="15">KC881005-HM134917</text>
<text x="923" y="267" font-weight = "10" font-family="verdana" fill="black" font-size="15">KY417144-HM134917</text>
<text x="923" y="251" font-weight = "10" font-family="verdana" fill="black" font-size="15">KF367457-HM134917</text>
<text x="923" y="234" font-weight = "10" font-family="verdana" fill="black" font-size="15">KC881006-HM134917</text>
<text x="437" y="218" font-weight = "10" font-family="verdana" fill="black" font-size="15">GQ153543-HM134917</text>
<text x="437" y="201" font-weight = "10" font-family="verdana" fill="black" font-size="15">GQ153542-HM134917</text>
<text x="437" y="185" font-weight = "10" font-family="verdana" fill="black" font-size="15">GQ153547-HM134917</text>
<text x="575" y="168" font-weight = "10" font-family="verdana" fill="black" font-size="15">DQ084200-HM134917</text>
<text x="575" y="152" font-weight = "10" font-family="verdana" fill="black" font-size="15">DQ022305-HM134917</text>
<text x="575" y="135" font-weight = "10" font-family="verdana" fill="black" font-size="15">DQ084199-HM134917</text>
<text x="645" y="119" font-weight = "10" font-family="verdana" fill="black" font-size="15">GQ153541-HM134917</text>
<text x="714" y="102" font-weight = "10" font-family="verdana" fill="black" font-size="15">GQ153539-HM134917</text>
<text x="784" y="86" font-weight = "10" font-family="verdana" fill="black" font-size="15">GQ153540-HM134917</text>
<text x="853" y="69" font-weight = "10" font-family="verdana" fill="black" font-size="15">GQ153548-HM134917</text>
<text x="923" y="53" font-weight = "10" font-family="verdana" fill="black" font-size="15">GQ153546-HM134917</text>
<text x="992" y="36" font-weight = "10" font-family="verdana" fill="black" font-size="15">GQ153545-HM134917</text>
<text x="992" y="20" font-weight = "10" font-family="verdana" fill="black" font-size="15">GQ153544-HM134917</text>
<line x1="467.28571428571" y1="543.30434782609" x2="402.56753754603" y2="566.34478299656" style="stroke:red; stroke-width:1;stroke-dasharray: 5, 5"/>
<line x1="400.89058141216" y1="561.63438830768" x2="404.2444936799" y2="571.05517768545" style="stroke:red; stroke-width:1"/>
<line x1="400.89058141216" y1="561.63438830768" x2="397.85714285714" y2="568.02173913043" style="stroke:red; stroke-width:1"/>
<line x1="397.85714285714" y1="568.02173913043" x2="404.2444936799" y2="571.05517768545" style="stroke:red; stroke-width:1"/>
<text x="432.57142857143" y="555.66304347826" font-weight = "10" font-family="verdana" fill="red" font-size="15">2</text>
<line x1="259" y1="774" x2="323.91162809675" y2="743.18759181595" style="stroke:red; stroke-width:1;stroke-dasharray: 5, 5"/>
<line x1="326.05574165182" y1="747.70453514777" x2="321.76751454167" y2="738.67064848412" style="stroke:red; stroke-width:1"/>
<line x1="326.05574165182" y1="747.70453514777" x2="328.42857142857" y2="741.04347826087" style="stroke:red; stroke-width:1"/>
<line x1="328.42857142857" y1="741.04347826087" x2="321.76751454167" y2="738.67064848412" style="stroke:red; stroke-width:1"/>
<text x="293.71428571429" y="757.52173913043" font-weight = "10" font-family="verdana" fill="red" font-size="15">3</text>
<line x1="328.42857142857" y1="708.08695652174" x2="393.34019952532" y2="677.27454833769" style="stroke:red; stroke-width:1;stroke-dasharray: 5, 5"/>
<line x1="395.4843130804" y1="681.79149166951" x2="391.19608597024" y2="672.75760500586" style="stroke:red; stroke-width:1"/>
<line x1="395.4843130804" y1="681.79149166951" x2="397.85714285714" y2="675.13043478261" style="stroke:red; stroke-width:1"/>
<line x1="397.85714285714" y1="675.13043478261" x2="391.19608597024" y2="672.75760500586" style="stroke:red; stroke-width:1"/>
<text x="363.14285714286" y="691.60869565217" font-weight = "10" font-family="verdana" fill="red" font-size="15">4</text>
<line x1="953.28571428571" y1="32.478260869565" x2="541.57914208777" y2="130.19319520855" style="stroke:red; stroke-width:1;stroke-dasharray: 5, 5"/>
<line x1="540.42451120936" y1="125.32833883506" x2="542.73377296618" y2="135.05805158203" style="stroke:red; stroke-width:1"/>
<line x1="540.42451120936" y1="125.32833883506" x2="536.71428571429" y2="131.34782608696" style="stroke:red; stroke-width:1"/>
<line x1="536.71428571429" y1="131.34782608696" x2="542.73377296618" y2="135.05805158203" style="stroke:red; stroke-width:1"/>
<text x="745" y="81.913043478261" font-weight = "10" font-family="verdana" fill="red" font-size="15">5</text>
<line x1="397.85714285714" y1="592.73913043478" x2="397.85714285714" y2="540.0652173913" style="stroke:red; stroke-width:1;stroke-dasharray: 5, 5"/>
<line x1="402.85714285714" y1="540.0652173913" x2="392.85714285714" y2="540.0652173913" style="stroke:red; stroke-width:1"/>
<line x1="402.85714285714" y1="540.0652173913" x2="397.85714285714" y2="535.0652173913" style="stroke:red; stroke-width:1"/>
<line x1="397.85714285714" y1="535.0652173913" x2="392.85714285714" y2="540.0652173913" style="stroke:red; stroke-width:1"/>
<text x="397.85714285714" y="563.90217391304" font-weight = "10" font-family="verdana" fill="red" font-size="15">6</text>
<line x1="675.57142857143" y1="427.95652173913" x2="741.37385292626" y2="365.48601473847" style="stroke:red; stroke-width:1;stroke-dasharray: 5, 5"/>
<line x1="744.81638940385" y1="369.11216181221" x2="737.93131644866" y2="361.85986766472" style="stroke:red; stroke-width:1"/>
<line x1="744.81638940385" y1="369.11216181221" x2="745" y2="362.04347826087" style="stroke:red; stroke-width:1"/>
<line x1="745" y1="362.04347826087" x2="737.93131644866" y2="361.85986766472" style="stroke:red; stroke-width:1"/>
<text x="710.28571428571" y="395" font-weight = "10" font-family="verdana" fill="red" font-size="15">7</text>
<line x1="814.42857142857" y1="312.60869565217" x2="679.19757564517" y2="440.9922461311" style="stroke:red; stroke-width:1;stroke-dasharray: 5, 5"/>
<line x1="675.75503916758" y1="437.36609905736" x2="682.64011212277" y2="444.61839320484" style="stroke:red; stroke-width:1"/>
<line x1="675.75503916758" y1="437.36609905736" x2="675.57142857143" y2="444.4347826087" style="stroke:red; stroke-width:1"/>
<line x1="675.57142857143" y1="444.4347826087" x2="682.64011212277" y2="444.61839320484" style="stroke:red; stroke-width:1"/>
<text x="745" y="378.52173913043" font-weight = "10" font-family="verdana" fill="red" font-size="15">8</text>
<line x1="675.57142857143" y1="411.47826086957" x2="402.56753754603" y2="508.67086995309" style="stroke:red; stroke-width:1;stroke-dasharray: 5, 5"/>
<line x1="400.89058141216" y1="503.9604752642" x2="404.2444936799" y2="513.38126464197" style="stroke:red; stroke-width:1"/>
<line x1="400.89058141216" y1="503.9604752642" x2="397.85714285714" y2="510.34782608696" style="stroke:red; stroke-width:1"/>
<line x1="397.85714285714" y1="510.34782608696" x2="404.2444936799" y2="513.38126464197" style="stroke:red; stroke-width:1"/>
<text x="536.71428571429" y="460.91304347826" font-weight = "10" font-family="verdana" fill="red" font-size="15">9</text>
<line x1="883.85714285714" y1="24.239130434783" x2="818.72859433689" y2="62.883351052116" style="stroke:red; stroke-width:1;stroke-dasharray: 5, 5"/>
<line x1="816.17716278031" y1="58.583328143795" x2="821.28002589347" y2="67.183373960438" style="stroke:red; stroke-width:1"/>
<line x1="816.17716278031" y1="58.583328143795" x2="814.42857142857" y2="65.434782608696" style="stroke:red; stroke-width:1"/>
<line x1="814.42857142857" y1="65.434782608696" x2="821.28002589347" y2="67.183373960438" style="stroke:red; stroke-width:1"/>
<text x="849.14285714286" y="44.836956521739" font-weight = "10" font-family="verdana" fill="red" font-size="15">10</text>
<line x1="675.57142857143" y1="98.391304347826" x2="879.14674816826" y2="25.916086568654" style="stroke:red; stroke-width:1;stroke-dasharray: 5, 5"/>
<line x1="880.82370430213" y1="30.626481257539" x2="877.46979203439" y2="21.20569187977" style="stroke:red; stroke-width:1"/>
<line x1="880.82370430213" y1="30.626481257539" x2="883.85714285714" y2="24.239130434783" style="stroke:red; stroke-width:1"/>
<line x1="883.85714285714" y1="24.239130434783" x2="877.46979203439" y2="21.20569187977" style="stroke:red; stroke-width:1"/>
<text x="779.71428571429" y="61.315217391304" font-weight = "10" font-family="verdana" fill="red" font-size="15">11</text>
<line x1="745" y1="81.913043478261" x2="680.43628494491" y2="97.236673469417" style="stroke:red; stroke-width:1;stroke-dasharray: 5, 5"/>
<line x1="679.2816540665" y1="92.371817095934" x2="681.59091582332" y2="102.1015298429" style="stroke:red; stroke-width:1"/>
<line x1="679.2816540665" y1="92.371817095934" x2="675.57142857143" y2="98.391304347826" style="stroke:red; stroke-width:1"/>
<line x1="675.57142857143" y1="98.391304347826" x2="681.59091582332" y2="102.1015298429" style="stroke:red; stroke-width:1"/>
<text x="710.28571428571" y="90.152173913043" font-weight = "10" font-family="verdana" fill="red" font-size="15">12</text>
<line x1="536.71428571429" y1="164.30434782609" x2="671.48413428158" y2="69.344608875532" style="stroke:red; stroke-width:1;stroke-dasharray: 5, 5"/>
<line x1="674.36406924407" y1="73.431903165382" x2="668.60419931909" y2="65.257314585682" style="stroke:red; stroke-width:1"/>
<line x1="674.36406924407" y1="73.431903165382" x2="675.57142857143" y2="66.464673913043" style="stroke:red; stroke-width:1"/>
<line x1="675.57142857143" y1="66.464673913043" x2="668.60419931909" y2="65.257314585682" style="stroke:red; stroke-width:1"/>
<text x="606.14285714286" y="115.38451086957" font-weight = "10" font-family="verdana" fill="red" font-size="15">13</text>
<line x1="259" y1="181.82859205163" x2="327.61149725302" y2="596.04547364613" style="stroke:red; stroke-width:1;stroke-dasharray: 5, 5"/>
<line x1="322.67871002959" y1="596.86254782169" x2="332.54428447645" y2="595.22839947058" style="stroke:red; stroke-width:1"/>
<line x1="322.67871002959" y1="596.86254782169" x2="328.42857142857" y2="600.97826086957" style="stroke:red; stroke-width:1"/>
<line x1="328.42857142857" y1="600.97826086957" x2="332.54428447645" y2="595.22839947058" style="stroke:red; stroke-width:1"/>
<text x="293.71428571429" y="391.4034264606" font-weight = "10" font-family="verdana" fill="red" font-size="15">14</text>
<line x1="259" y1="181.82859205163" x2="602.2460271438" y2="457.78019877121" style="stroke:red; stroke-width:1;stroke-dasharray: 5, 5"/>
<line x1="599.11318243676" y1="461.67702877027" x2="605.37887185085" y2="453.88336877216" style="stroke:red; stroke-width:1"/>
<line x1="599.11318243676" y1="461.67702877027" x2="606.14285714286" y2="460.91304347826" style="stroke:red; stroke-width:1"/>
<line x1="606.14285714286" y1="460.91304347826" x2="605.37887185085" y2="453.88336877216" style="stroke:red; stroke-width:1"/>
<text x="432.57142857143" y="321.37081776495" font-weight = "10" font-family="verdana" fill="red" font-size="15">15</text>
<line x1="814.42857142857" y1="312.60869565217" x2="748.62614707374" y2="375.07920265284" style="stroke:red; stroke-width:1;stroke-dasharray: 5, 5"/>
<line x1="745.18361059615" y1="371.45305557909" x2="752.06868355134" y2="378.70534972658" style="stroke:red; stroke-width:1"/>
<line x1="745.18361059615" y1="371.45305557909" x2="745" y2="378.52173913043" style="stroke:red; stroke-width:1"/>
<line x1="745" y1="378.52173913043" x2="752.06868355134" y2="378.70534972658" style="stroke:red; stroke-width:1"/>
<text x="779.71428571429" y="345.5652173913" font-weight = "10" font-family="verdana" fill="red" font-size="15">16</text>
<line x1="814.42857142857" y1="345.5652173913" x2="679.87145147975" y2="425.40509018255" style="stroke:red; stroke-width:1;stroke-dasharray: 5, 5"/>
<line x1="677.32001992317" y1="421.10506727423" x2="682.42288303633" y2="429.70511309087" style="stroke:red; stroke-width:1"/>
<line x1="677.32001992317" y1="421.10506727423" x2="675.57142857143" y2="427.95652173913" style="stroke:red; stroke-width:1"/>
<line x1="675.57142857143" y1="427.95652173913" x2="682.42288303633" y2="429.70511309087" style="stroke:red; stroke-width:1"/>
<text x="745" y="386.76086956522" font-weight = "10" font-family="verdana" fill="red" font-size="15">17</text>
<line x1="814.42857142857" y1="345.5652173913" x2="263.79594939406" y2="183.24240583342" style="stroke:red; stroke-width:1;stroke-dasharray: 5, 5"/>
<line x1="265.20976317585" y1="178.44645643935" x2="262.38213561228" y2="188.03835522748" style="stroke:red; stroke-width:1"/>
<line x1="265.20976317585" y1="178.44645643935" x2="259" y2="181.82859205163" style="stroke:red; stroke-width:1"/>
<line x1="259" y1="181.82859205163" x2="262.38213561228" y2="188.03835522748" style="stroke:red; stroke-width:1"/>
<text x="536.71428571429" y="263.69690472147" font-weight = "10" font-family="verdana" fill="red" font-size="15">18</text>
<line x1="745" y1="337.32608695652" x2="678.98879959768" y2="407.82838754725" style="stroke:red; stroke-width:1;stroke-dasharray: 5, 5"/>
<line x1="675.33892627536" y1="404.411016521" x2="682.63867291999" y2="411.2457585735" style="stroke:red; stroke-width:1"/>
<line x1="675.33892627536" y1="404.411016521" x2="675.57142857143" y2="411.47826086957" style="stroke:red; stroke-width:1"/>
<line x1="675.57142857143" y1="411.47826086957" x2="682.63867291999" y2="411.2457585735" style="stroke:red; stroke-width:1"/>
<text x="710.28571428571" y="374.40217391304" font-weight = "10" font-family="verdana" fill="red" font-size="15">19</text>
<line x1="883.85714285714" y1="263.17391304348" x2="818.50159197795" y2="309.70860882514" style="stroke:red; stroke-width:1;stroke-dasharray: 5, 5"/>
<line x1="815.60150515092" y1="305.63558827576" x2="821.40167880498" y2="313.78162937453" style="stroke:red; stroke-width:1"/>
<line x1="815.60150515092" y1="305.63558827576" x2="814.42857142857" y2="312.60869565217" style="stroke:red; stroke-width:1"/>
<line x1="814.42857142857" y1="312.60869565217" x2="821.40167880498" y2="313.78162937453" style="stroke:red; stroke-width:1"/>
<text x="849.14285714286" y="287.89130434783" font-weight = "10" font-family="verdana" fill="red" font-size="15">20</text>
<line x1="883.85714285714" y1="263.17391304348" x2="540.87859060494" y2="491.10215401237" style="stroke:red; stroke-width:1;stroke-dasharray: 5, 5"/>
<line x1="538.11117939992" y1="486.93784912172" x2="543.64600180996" y2="495.26645890302" style="stroke:red; stroke-width:1"/>
<line x1="538.11117939992" y1="486.93784912172" x2="536.71428571429" y2="493.86956521739" style="stroke:red; stroke-width:1"/>
<line x1="536.71428571429" y1="493.86956521739" x2="543.64600180996" y2="495.26645890302" style="stroke:red; stroke-width:1"/>
<text x="710.28571428571" y="378.52173913043" font-weight = "10" font-family="verdana" fill="red" font-size="15">21</text>
<line x1="814.42857142857" y1="296.13043478261" x2="814.42857142857" y2="276.41304347826" style="stroke:red; stroke-width:1;stroke-dasharray: 5, 5"/>
<line x1="819.42857142857" y1="276.41304347826" x2="809.42857142857" y2="276.41304347826" style="stroke:red; stroke-width:1"/>
<line x1="819.42857142857" y1="276.41304347826" x2="814.42857142857" y2="271.41304347826" style="stroke:red; stroke-width:1"/>
<line x1="814.42857142857" y1="271.41304347826" x2="809.42857142857" y2="276.41304347826" style="stroke:red; stroke-width:1"/>
<text x="814.42857142857" y="283.77173913043" font-weight = "10" font-family="verdana" fill="red" font-size="15">22</text>
<line x1="883.85714285714" y1="230.21739130435" x2="818.05471850232" y2="292.68789830501" style="stroke:red; stroke-width:1;stroke-dasharray: 5, 5"/>
<line x1="814.61218202472" y1="289.06175123127" x2="821.49725497991" y2="296.31404537876" style="stroke:red; stroke-width:1"/>
<line x1="814.61218202472" y1="289.06175123127" x2="814.42857142857" y2="296.13043478261" style="stroke:red; stroke-width:1"/>
<line x1="814.42857142857" y1="296.13043478261" x2="821.49725497991" y2="296.31404537876" style="stroke:red; stroke-width:1"/>
<text x="849.14285714286" y="263.17391304348" font-weight = "10" font-family="verdana" fill="red" font-size="15">23</text>
<line x1="883.85714285714" y1="230.21739130435" x2="748.22193895863" y2="391.17650561046" style="stroke:red; stroke-width:1;stroke-dasharray: 5, 5"/>
<line x1="744.39844456909" y1="387.95456665183" x2="752.04543334817" y2="394.39844456909" style="stroke:red; stroke-width:1"/>
<line x1="744.39844456909" y1="387.95456665183" x2="745" y2="395" style="stroke:red; stroke-width:1"/>
<line x1="745" y1="395" x2="752.04543334817" y2="394.39844456909" style="stroke:red; stroke-width:1"/>
<text x="814.42857142857" y="312.60869565217" font-weight = "10" font-family="verdana" fill="red" font-size="15">24</text>
<line x1="814.42857142857" y1="238.45652173913" x2="540.50453354924" y2="474.13031962697" style="stroke:red; stroke-width:1;stroke-dasharray: 5, 5"/>
<line x1="537.24354882838" y1="470.34007179202" x2="543.76551827009" y2="477.92056746192" style="stroke:red; stroke-width:1"/>
<line x1="537.24354882838" y1="470.34007179202" x2="536.71428571429" y2="477.39130434783" style="stroke:red; stroke-width:1"/>
<line x1="536.71428571429" y1="477.39130434783" x2="543.76551827009" y2="477.92056746192" style="stroke:red; stroke-width:1"/>
<text x="675.57142857143" y="357.92391304348" font-weight = "10" font-family="verdana" fill="red" font-size="15">25</text>
<line x1="259" y1="650.41304347826" x2="602.54881112804" y2="318.14451526346" style="stroke:red; stroke-width:1;stroke-dasharray: 5, 5"/>
<line x1="606.02484813064" y1="321.73856127828" x2="599.07277412545" y2="314.55046924865" style="stroke:red; stroke-width:1"/>
<line x1="606.02484813064" y1="321.73856127828" x2="606.14285714286" y2="314.66847826087" style="stroke:red; stroke-width:1"/>
<line x1="606.14285714286" y1="314.66847826087" x2="599.07277412545" y2="314.55046924865" style="stroke:red; stroke-width:1"/>
<text x="432.57142857143" y="482.54076086957" font-weight = "10" font-family="verdana" fill="red" font-size="15">26</text>
<line x1="536.71428571429" y1="131.34782608696" x2="601.27800076937" y2="116.0241960958" style="stroke:red; stroke-width:1;stroke-dasharray: 5, 5"/>
<line x1="602.43263164778" y1="120.88905246928" x2="600.12336989096" y2="111.15933972232" style="stroke:red; stroke-width:1"/>
<line x1="602.43263164778" y1="120.88905246928" x2="606.14285714286" y2="114.86956521739" style="stroke:red; stroke-width:1"/>
<line x1="606.14285714286" y1="114.86956521739" x2="600.12336989096" y2="111.15933972232" style="stroke:red; stroke-width:1"/>
<text x="571.42857142857" y="123.10869565217" font-weight = "10" font-family="verdana" fill="red" font-size="15">1</text>
</g></svg>