<?xml version="1.0" encoding="iso-8859-1"?>
<!DOCTYPE svg PUBLIC "-//W3C//DTD SVG 1.0//EN" "http://www.w3.org/TR/2001/REC-SVG-20010904/DTD/svg10.dtd">
<svg width="1154" height="820" xmlns="http://www.w3.org/2000/svg" xmlns:xlink="http://www.w3.org/1999/xlink">
<g style="stroke:black;fill:lightgreen" transform="translate(30,30)">
<line x1="363" y1="601" x2="363" y2="593" style="stroke:blue; stroke-width:1"/>
<line x1="363" y1="593" x2="433" y2="593" style="stroke:blue; stroke-width:1"/>
<line x1="363" y1="601" x2="363" y2="609" style="stroke:blue; stroke-width:1"/>
<line x1="363" y1="609" x2="433" y2="609" style="stroke:blue; stroke-width:1"/>
<line x1="294" y1="749" x2="294" y2="758" style="stroke:blue; stroke-width:1"/>
<line x1="294" y1="758" x2="363" y2="758" style="stroke:blue; stroke-width:1"/>
<line x1="294" y1="749" x2="294" y2="741" style="stroke:blue; stroke-width:1"/>
<line x1="294" y1="741" x2="363" y2="741" style="stroke:blue; stroke-width:1"/>
<line x1="224" y1="762" x2="224" y2="774" style="stroke:blue; stroke-width:1"/>
<line x1="224" y1="774" x2="294" y2="774" style="stroke:blue; stroke-width:1"/>
<line x1="363" y1="683" x2="363" y2="675" style="stroke:blue; stroke-width:1"/>
<line x1="363" y1="675" x2="433" y2="675" style="stroke:blue; stroke-width:1"/>
<line x1="363" y1="683" x2="363" y2="692" style="stroke:blue; stroke-width:1"/>
<line x1="363" y1="692" x2="433" y2="692" style="stroke:blue; stroke-width:1"/>
<line x1="294" y1="696" x2="294" y2="708" style="stroke:blue; stroke-width:1"/>
<line x1="294" y1="708" x2="363" y2="708" style="stroke:blue; stroke-width:1"/>
<line x1="224" y1="710" x2="224" y2="725" style="stroke:blue; stroke-width:1"/>
<line x1="224" y1="725" x2="294" y2="725" style="stroke:blue; stroke-width:1"/>
<line x1="433" y1="568" x2="433" y2="560" style="stroke:blue; stroke-width:1"/>
<line x1="433" y1="560" x2="502" y2="560" style="stroke:blue; stroke-width:1"/>
<line x1="433" y1="568" x2="433" y2="576" style="stroke:blue; stroke-width:1"/>
<line x1="433" y1="576" x2="502" y2="576" style="stroke:blue; stroke-width:1"/>
<line x1="433" y1="535" x2="433" y2="543" style="stroke:blue; stroke-width:1"/>
<line x1="433" y1="543" x2="502" y2="543" style="stroke:blue; stroke-width:1"/>
<line x1="433" y1="535" x2="433" y2="527" style="stroke:blue; stroke-width:1"/>
<line x1="433" y1="527" x2="502" y2="527" style="stroke:blue; stroke-width:1"/>
<line x1="502" y1="486" x2="502" y2="494" style="stroke:blue; stroke-width:1"/>
<line x1="502" y1="494" x2="571" y2="494" style="stroke:blue; stroke-width:1"/>
<line x1="502" y1="486" x2="502" y2="477" style="stroke:blue; stroke-width:1"/>
<line x1="502" y1="477" x2="571" y2="477" style="stroke:blue; stroke-width:1"/>
<line x1="849" y1="271" x2="849" y2="263" style="stroke:blue; stroke-width:1"/>
<line x1="849" y1="263" x2="919" y2="263" style="stroke:blue; stroke-width:1"/>
<line x1="849" y1="271" x2="849" y2="280" style="stroke:blue; stroke-width:1"/>
<line x1="849" y1="280" x2="919" y2="280" style="stroke:blue; stroke-width:1"/>
<line x1="849" y1="238" x2="849" y2="247" style="stroke:blue; stroke-width:1"/>
<line x1="849" y1="247" x2="919" y2="247" style="stroke:blue; stroke-width:1"/>
<line x1="849" y1="238" x2="849" y2="230" style="stroke:blue; stroke-width:1"/>
<line x1="849" y1="230" x2="919" y2="230" style="stroke:blue; stroke-width:1"/>
<line x1="780" y1="304" x2="780" y2="313" style="stroke:blue; stroke-width:1"/>
<line x1="780" y1="313" x2="849" y2="313" style="stroke:blue; stroke-width:1"/>
<line x1="780" y1="304" x2="780" y2="296" style="stroke:blue; stroke-width:1"/>
<line x1="780" y1="296" x2="849" y2="296" style="stroke:blue; stroke-width:1"/>
<line x1="780" y1="337" x2="780" y2="346" style="stroke:blue; stroke-width:1"/>
<line x1="780" y1="346" x2="849" y2="346" style="stroke:blue; stroke-width:1"/>
<line x1="780" y1="337" x2="780" y2="329" style="stroke:blue; stroke-width:1"/>
<line x1="780" y1="329" x2="849" y2="329" style="stroke:blue; stroke-width:1"/>
<line x1="710" y1="350" x2="710" y2="362" style="stroke:blue; stroke-width:1"/>
<line x1="710" y1="362" x2="780" y2="362" style="stroke:blue; stroke-width:1"/>
<line x1="710" y1="387" x2="710" y2="395" style="stroke:blue; stroke-width:1"/>
<line x1="710" y1="395" x2="780" y2="395" style="stroke:blue; stroke-width:1"/>
<line x1="710" y1="387" x2="710" y2="379" style="stroke:blue; stroke-width:1"/>
<line x1="710" y1="379" x2="780" y2="379" style="stroke:blue; stroke-width:1"/>
<line x1="641" y1="399" x2="641" y2="411" style="stroke:blue; stroke-width:1"/>
<line x1="641" y1="411" x2="710" y2="411" style="stroke:blue; stroke-width:1"/>
<line x1="641" y1="436" x2="641" y2="428" style="stroke:blue; stroke-width:1"/>
<line x1="641" y1="428" x2="710" y2="428" style="stroke:blue; stroke-width:1"/>
<line x1="641" y1="436" x2="641" y2="444" style="stroke:blue; stroke-width:1"/>
<line x1="641" y1="444" x2="710" y2="444" style="stroke:blue; stroke-width:1"/>
<line x1="571" y1="449" x2="571" y2="461" style="stroke:blue; stroke-width:1"/>
<line x1="571" y1="461" x2="641" y2="461" style="stroke:blue; stroke-width:1"/>
<line x1="363" y1="477" x2="363" y2="510" style="stroke:blue; stroke-width:1"/>
<line x1="363" y1="510" x2="433" y2="510" style="stroke:blue; stroke-width:1"/>
<line x1="502" y1="156" x2="502" y2="164" style="stroke:blue; stroke-width:1"/>
<line x1="502" y1="164" x2="571" y2="164" style="stroke:blue; stroke-width:1"/>
<line x1="502" y1="156" x2="502" y2="148" style="stroke:blue; stroke-width:1"/>
<line x1="502" y1="148" x2="571" y2="148" style="stroke:blue; stroke-width:1"/>
<line x1="919" y1="24" x2="919" y2="32" style="stroke:blue; stroke-width:1"/>
<line x1="919" y1="32" x2="988" y2="32" style="stroke:blue; stroke-width:1"/>
<line x1="919" y1="24" x2="919" y2="16" style="stroke:blue; stroke-width:1"/>
<line x1="919" y1="16" x2="988" y2="16" style="stroke:blue; stroke-width:1"/>
<line x1="849" y1="37" x2="849" y2="49" style="stroke:blue; stroke-width:1"/>
<line x1="849" y1="49" x2="919" y2="49" style="stroke:blue; stroke-width:1"/>
<line x1="780" y1="51" x2="780" y2="65" style="stroke:blue; stroke-width:1"/>
<line x1="780" y1="65" x2="849" y2="65" style="stroke:blue; stroke-width:1"/>
<line x1="710" y1="66" x2="710" y2="82" style="stroke:blue; stroke-width:1"/>
<line x1="710" y1="82" x2="780" y2="82" style="stroke:blue; stroke-width:1"/>
<line x1="641" y1="82" x2="641" y2="98" style="stroke:blue; stroke-width:1"/>
<line x1="641" y1="98" x2="710" y2="98" style="stroke:blue; stroke-width:1"/>
<line x1="571" y1="99" x2="571" y2="115" style="stroke:blue; stroke-width:1"/>
<line x1="571" y1="115" x2="641" y2="115" style="stroke:blue; stroke-width:1"/>
<line x1="502" y1="115" x2="502" y2="131" style="stroke:blue; stroke-width:1"/>
<line x1="502" y1="131" x2="571" y2="131" style="stroke:blue; stroke-width:1"/>
<line x1="363" y1="158" x2="363" y2="181" style="stroke:blue; stroke-width:1"/>
<line x1="363" y1="181" x2="433" y2="181" style="stroke:blue; stroke-width:1"/>
<line x1="363" y1="205" x2="363" y2="214" style="stroke:blue; stroke-width:1"/>
<line x1="363" y1="214" x2="433" y2="214" style="stroke:blue; stroke-width:1"/>
<line x1="363" y1="205" x2="363" y2="197" style="stroke:blue; stroke-width:1"/>
<line x1="363" y1="197" x2="433" y2="197" style="stroke:blue; stroke-width:1"/>
<line x1="294" y1="650" x2="294" y2="659" style="stroke:blue; stroke-width:1"/>
<line x1="294" y1="659" x2="363" y2="659" style="stroke:blue; stroke-width:1"/>
<line x1="294" y1="650" x2="294" y2="642" style="stroke:blue; stroke-width:1"/>
<line x1="294" y1="642" x2="363" y2="642" style="stroke:blue; stroke-width:1"/>
<line x1="294" y1="613" x2="294" y2="626" style="stroke:blue; stroke-width:1"/>
<line x1="294" y1="626" x2="363" y2="626" style="stroke:blue; stroke-width:1"/>
<line x1="294" y1="613" x2="294" y2="601" style="stroke:blue; stroke-width:1"/>
<line x1="294" y1="601" x2="363" y2="601" style="stroke:blue; stroke-width:1"/>
<line x1="224" y1="762" x2="224" y2="749" style="stroke:blue; stroke-width:1"/>
<line x1="224" y1="749" x2="294" y2="749" style="stroke:blue; stroke-width:1"/>
<line x1="155" y1="736" x2="155" y2="762" style="stroke:blue; stroke-width:1"/>
<line x1="155" y1="762" x2="224" y2="762" style="stroke:blue; stroke-width:1"/>
<line x1="85" y1="613" x2="85" y2="736" style="stroke:blue; stroke-width:1"/>
<line x1="85" y1="736" x2="155" y2="736" style="stroke:blue; stroke-width:1"/>
<line x1="155" y1="736" x2="155" y2="710" style="stroke:blue; stroke-width:1"/>
<line x1="155" y1="710" x2="224" y2="710" style="stroke:blue; stroke-width:1"/>
<line x1="224" y1="710" x2="224" y2="696" style="stroke:blue; stroke-width:1"/>
<line x1="224" y1="696" x2="294" y2="696" style="stroke:blue; stroke-width:1"/>
<line x1="294" y1="696" x2="294" y2="683" style="stroke:blue; stroke-width:1"/>
<line x1="294" y1="683" x2="363" y2="683" style="stroke:blue; stroke-width:1"/>
<line x1="85" y1="613" x2="85" y2="490" style="stroke:blue; stroke-width:1"/>
<line x1="85" y1="490" x2="155" y2="490" style="stroke:blue; stroke-width:1"/>
<line x1="294" y1="182" x2="294" y2="205" style="stroke:blue; stroke-width:1"/>
<line x1="294" y1="205" x2="363" y2="205" style="stroke:blue; stroke-width:1"/>
<line x1="224" y1="348" x2="224" y2="182" style="stroke:blue; stroke-width:1"/>
<line x1="224" y1="182" x2="294" y2="182" style="stroke:blue; stroke-width:1"/>
<line x1="294" y1="182" x2="294" y2="158" style="stroke:blue; stroke-width:1"/>
<line x1="294" y1="158" x2="363" y2="158" style="stroke:blue; stroke-width:1"/>
<line x1="433" y1="136" x2="433" y2="156" style="stroke:blue; stroke-width:1"/>
<line x1="433" y1="156" x2="502" y2="156" style="stroke:blue; stroke-width:1"/>
<line x1="363" y1="158" x2="363" y2="136" style="stroke:blue; stroke-width:1"/>
<line x1="363" y1="136" x2="433" y2="136" style="stroke:blue; stroke-width:1"/>
<line x1="502" y1="115" x2="502" y2="99" style="stroke:blue; stroke-width:1"/>
<line x1="502" y1="99" x2="571" y2="99" style="stroke:blue; stroke-width:1"/>
<line x1="641" y1="82" x2="641" y2="66" style="stroke:blue; stroke-width:1"/>
<line x1="641" y1="66" x2="710" y2="66" style="stroke:blue; stroke-width:1"/>
<line x1="849" y1="37" x2="849" y2="24" style="stroke:blue; stroke-width:1"/>
<line x1="849" y1="24" x2="919" y2="24" style="stroke:blue; stroke-width:1"/>
<line x1="780" y1="51" x2="780" y2="37" style="stroke:blue; stroke-width:1"/>
<line x1="780" y1="37" x2="849" y2="37" style="stroke:blue; stroke-width:1"/>
<line x1="710" y1="66" x2="710" y2="51" style="stroke:blue; stroke-width:1"/>
<line x1="710" y1="51" x2="780" y2="51" style="stroke:blue; stroke-width:1"/>
<line x1="571" y1="99" x2="571" y2="82" style="stroke:blue; stroke-width:1"/>
<line x1="571" y1="82" x2="641" y2="82" style="stroke:blue; stroke-width:1"/>
<line x1="433" y1="136" x2="433" y2="115" style="stroke:blue; stroke-width:1"/>
<line x1="433" y1="115" x2="502" y2="115" style="stroke:blue; stroke-width:1"/>
<line x1="155" y1="490" x2="155" y2="348" style="stroke:blue; stroke-width:1"/>
<line x1="155" y1="348" x2="224" y2="348" style="stroke:blue; stroke-width:1"/>
<line x1="363" y1="552" x2="363" y2="568" style="stroke:blue; stroke-width:1"/>
<line x1="363" y1="568" x2="433" y2="568" style="stroke:blue; stroke-width:1"/>
<line x1="294" y1="514" x2="294" y2="552" style="stroke:blue; stroke-width:1"/>
<line x1="294" y1="552" x2="363" y2="552" style="stroke:blue; stroke-width:1"/>
<line x1="363" y1="552" x2="363" y2="535" style="stroke:blue; stroke-width:1"/>
<line x1="363" y1="535" x2="433" y2="535" style="stroke:blue; stroke-width:1"/>
<line x1="224" y1="348" x2="224" y2="514" style="stroke:blue; stroke-width:1"/>
<line x1="224" y1="514" x2="294" y2="514" style="stroke:blue; stroke-width:1"/>
<line x1="294" y1="514" x2="294" y2="477" style="stroke:blue; stroke-width:1"/>
<line x1="294" y1="477" x2="363" y2="477" style="stroke:blue; stroke-width:1"/>
<line x1="433" y1="444" x2="433" y2="486" style="stroke:blue; stroke-width:1"/>
<line x1="433" y1="486" x2="502" y2="486" style="stroke:blue; stroke-width:1"/>
<line x1="363" y1="477" x2="363" y2="444" style="stroke:blue; stroke-width:1"/>
<line x1="363" y1="444" x2="433" y2="444" style="stroke:blue; stroke-width:1"/>
<line x1="571" y1="449" x2="571" y2="436" style="stroke:blue; stroke-width:1"/>
<line x1="571" y1="436" x2="641" y2="436" style="stroke:blue; stroke-width:1"/>
<line x1="502" y1="403" x2="502" y2="449" style="stroke:blue; stroke-width:1"/>
<line x1="502" y1="449" x2="571" y2="449" style="stroke:blue; stroke-width:1"/>
<line x1="433" y1="444" x2="433" y2="403" style="stroke:blue; stroke-width:1"/>
<line x1="433" y1="403" x2="502" y2="403" style="stroke:blue; stroke-width:1"/>
<line x1="710" y1="280" x2="710" y2="304" style="stroke:blue; stroke-width:1"/>
<line x1="710" y1="304" x2="780" y2="304" style="stroke:blue; stroke-width:1"/>
<line x1="641" y1="315" x2="641" y2="280" style="stroke:blue; stroke-width:1"/>
<line x1="641" y1="280" x2="710" y2="280" style="stroke:blue; stroke-width:1"/>
<line x1="780" y1="255" x2="780" y2="271" style="stroke:blue; stroke-width:1"/>
<line x1="780" y1="271" x2="849" y2="271" style="stroke:blue; stroke-width:1"/>
<line x1="710" y1="280" x2="710" y2="255" style="stroke:blue; stroke-width:1"/>
<line x1="710" y1="255" x2="780" y2="255" style="stroke:blue; stroke-width:1"/>
<line x1="780" y1="255" x2="780" y2="238" style="stroke:blue; stroke-width:1"/>
<line x1="780" y1="238" x2="849" y2="238" style="stroke:blue; stroke-width:1"/>
<line x1="571" y1="357" x2="571" y2="315" style="stroke:blue; stroke-width:1"/>
<line x1="571" y1="315" x2="641" y2="315" style="stroke:blue; stroke-width:1"/>
<line x1="710" y1="350" x2="710" y2="337" style="stroke:blue; stroke-width:1"/>
<line x1="710" y1="337" x2="780" y2="337" style="stroke:blue; stroke-width:1"/>
<line x1="641" y1="315" x2="641" y2="350" style="stroke:blue; stroke-width:1"/>
<line x1="641" y1="350" x2="710" y2="350" style="stroke:blue; stroke-width:1"/>
<line x1="502" y1="403" x2="502" y2="357" style="stroke:blue; stroke-width:1"/>
<line x1="502" y1="357" x2="571" y2="357" style="stroke:blue; stroke-width:1"/>
<line x1="641" y1="399" x2="641" y2="387" style="stroke:blue; stroke-width:1"/>
<line x1="641" y1="387" x2="710" y2="387" style="stroke:blue; stroke-width:1"/>
<line x1="571" y1="357" x2="571" y2="399" style="stroke:blue; stroke-width:1"/>
<line x1="571" y1="399" x2="641" y2="399" style="stroke:blue; stroke-width:1"/>
<line x1="155" y1="490" x2="155" y2="632" style="stroke:blue; stroke-width:1"/>
<line x1="155" y1="632" x2="224" y2="632" style="stroke:blue; stroke-width:1"/>
<line x1="224" y1="632" x2="224" y2="650" style="stroke:blue; stroke-width:1"/>
<line x1="224" y1="650" x2="294" y2="650" style="stroke:blue; stroke-width:1"/>
<line x1="224" y1="632" x2="224" y2="613" style="stroke:blue; stroke-width:1"/>
<line x1="224" y1="613" x2="294" y2="613" style="stroke:blue; stroke-width:1"/>
<line x1="16" y1="613" x2="16" y2="613" style="stroke:blue; stroke-width:1"/>
<line x1="16" y1="613" x2="85" y2="613" style="stroke:blue; stroke-width:1"/>
<text x="20" y="607" font-weight = "10" font-family="verdana" fill="black" font-size="15">Root</text>
<text x="298" y="778" font-weight = "10" font-family="verdana" fill="black" font-size="15">KJ473795-AB085735</text>
<text x="367" y="762" font-weight = "10" font-family="verdana" fill="black" font-size="15">KJ473796-AB085735</text>
<text x="367" y="745" font-weight = "10" font-family="verdana" fill="black" font-size="15">EU420138-ON640726</text>
<text x="298" y="729" font-weight = "10" font-family="verdana" fill="black" font-size="15">KJ473797-AB085735</text>
<text x="367" y="712" font-weight = "10" font-family="verdana" fill="black" font-size="15">KJ473800-AB085735</text>
<text x="437" y="696" font-weight = "10" font-family="verdana" fill="black" font-size="15">KJ473799-AB085735</text>
<text x="437" y="679" font-weight = "10" font-family="verdana" fill="black" font-size="15">KJ473798-AB085735</text>
<text x="367" y="663" font-weight = "10" font-family="verdana" fill="black" font-size="15">GU190215-MZ936290</text>
<text x="367" y="646" font-weight = "10" font-family="verdana" fill="black" font-size="15">NC_014470-MZ936290</text>
<text x="367" y="630" font-weight = "10" font-family="verdana" fill="black" font-size="15">MN996532-KP972690</text>
<text x="437" y="613" font-weight = "10" font-family="verdana" fill="black" font-size="15">MG772934-HM134917</text>
<text x="437" y="597" font-weight = "10" font-family="verdana" fill="black" font-size="15">MG772933-HM134917</text>
<text x="506" y="580" font-weight = "10" font-family="verdana" fill="black" font-size="15">DQ648857-KX261916</text>
<text x="506" y="564" font-weight = "10" font-family="verdana" fill="black" font-size="15">DQ412043-KX261916</text>
<text x="506" y="547" font-weight = "10" font-family="verdana" fill="black" font-size="15">JX993987-ON012504</text>
<text x="506" y="531" font-weight = "10" font-family="verdana" fill="black" font-size="15">KJ473814-HM134917</text>
<text x="437" y="514" font-weight = "10" font-family="verdana" fill="black" font-size="15">KJ473815-HM134917</text>
<text x="575" y="498" font-weight = "10" font-family="verdana" fill="black" font-size="15">KY417147-HM134917</text>
<text x="575" y="481" font-weight = "10" font-family="verdana" fill="black" font-size="15">KY417148-HM134917</text>
<text x="645" y="465" font-weight = "10" font-family="verdana" fill="black" font-size="15">FJ588686-HM134917</text>
<text x="714" y="448" font-weight = "10" font-family="verdana" fill="black" font-size="15">KY417143-HM134917</text>
<text x="714" y="432" font-weight = "10" font-family="verdana" fill="black" font-size="15">KY417149-HM134917</text>
<text x="714" y="415" font-weight = "10" font-family="verdana" fill="black" font-size="15">KJ473816-HM134917</text>
<text x="784" y="399" font-weight = "10" font-family="verdana" fill="black" font-size="15">KY770858-HM134917</text>
<text x="784" y="383" font-weight = "10" font-family="verdana" fill="black" font-size="15">KY770859-HM134917</text>
<text x="784" y="366" font-weight = "10" font-family="verdana" fill="black" font-size="15">KY417146-HM134917</text>
<text x="853" y="350" font-weight = "10" font-family="verdana" fill="black" font-size="15">KT444582-HM134917</text>
<text x="853" y="333" font-weight = "10" font-family="verdana" fill="black" font-size="15">KY417150-HM134917</text>
<text x="853" y="317" font-weight = "10" font-family="verdana" fill="black" font-size="15">KY417151-HM134917</text>
<text x="853" y="300" font-weight = "10" font-family="verdana" fill="black" font-size="15">KY417152-HM134917</text>
<text x="923" y="284" font-weight = "10" font-family="verdana" fill="black" font-size="15">KC881005-HM134917</text>
<text x="923" y="267" font-weight = "10" font-family="verdana" fill="black" font-size="15">KY417144-HM134917</text>
<text x="923" y="251" font-weight = "10" font-family="verdana" fill="black" font-size="15">KF367457-HM134917</text>
<text x="923" y="234" font-weight = "10" font-family="verdana" fill="black" font-size="15">KC881006-HM134917</text>
<text x="437" y="218" font-weight = "10" font-family="verdana" fill="black" font-size="15">GQ153543-HM134917</text>
<text x="437" y="201" font-weight = "10" font-family="verdana" fill="black" font-size="15">GQ153542-HM134917</text>
<text x="437" y="185" font-weight = "10" font-family="verdana" fill="black" font-size="15">GQ153547-HM134917</text>
<text x="575" y="168" font-weight = "10" font-family="verdana" fill="black" font-size="15">DQ084200-HM134917</text>
<text x="575" y="152" font-weight = "10" font-family="verdana" fill="black" font-size="15">DQ022305-HM134917</text>
<text x="575" y="135" font-weight = "10" font-family="verdana" fill="black" font-size="15">DQ084199-HM134917</text>
<text x="645" y="119" font-weight = "10" font-family="verdana" fill="black" font-size="15">GQ153541-HM134917</text>
<text x="714" y="102" font-weight = "10" font-family="verdana" fill="black" font-size="15">GQ153539-HM134917</text>
<text x="784" y="86" font-weight = "10" font-family="verdana" fill="black" font-size="15">GQ153540-HM134917</text>
<text x="853" y="69" font-weight = "10" font-family="verdana" fill="black" font-size="15">GQ153548-HM134917</text>
<text x="923" y="53" font-weight = "10" font-family="verdana" fill="black" font-size="15">GQ153546-HM134917</text>
<text x="992" y="36" font-weight = "10" font-family="verdana" fill="black" font-size="15">GQ153545-HM134917</text>
<text x="992" y="20" font-weight = "10" font-family="verdana" fill="black" font-size="15">GQ153544-HM134917</text>
<line x1="467.28571428571" y1="526.82608695652" x2="402.15716576546" y2="565.47030757386" style="stroke:red; stroke-width:1;stroke-dasharray: 5, 5"/>
<line x1="399.60573420889" y1="561.17028466553" x2="404.70859732204" y2="569.77033048218" style="stroke:red; stroke-width:1"/>
<line x1="399.60573420889" y1="561.17028466553" x2="397.85714285714" y2="568.02173913043" style="stroke:red; stroke-width:1"/>
<line x1="397.85714285714" y1="568.02173913043" x2="404.70859732204" y2="569.77033048218" style="stroke:red; stroke-width:1"/>
<text x="432.57142857143" y="547.42391304348" font-weight = "10" font-family="verdana" fill="red" font-size="15">2</text>
<line x1="328.42857142857" y1="708.08695652174" x2="392.99228648366" y2="692.76332653058" style="stroke:red; stroke-width:1;stroke-dasharray: 5, 5"/>
<line x1="394.14691736207" y1="697.62818290407" x2="391.83765560525" y2="687.8984701571" style="stroke:red; stroke-width:1"/>
<line x1="394.14691736207" y1="697.62818290407" x2="397.85714285714" y2="691.60869565217" style="stroke:red; stroke-width:1"/>
<line x1="397.85714285714" y1="691.60869565217" x2="391.83765560525" y2="687.8984701571" style="stroke:red; stroke-width:1"/>
<text x="363.14285714286" y="699.84782608696" font-weight = "10" font-family="verdana" fill="red" font-size="15">3</text>
<line x1="259" y1="774" x2="193.25163888274" y2="713.53141814986" style="stroke:red; stroke-width:1;stroke-dasharray: 5, 5"/>
<line x1="196.63631790216" y1="709.85120783855" x2="189.86695986331" y2="717.21162846117" style="stroke:red; stroke-width:1"/>
<line x1="196.63631790216" y1="709.85120783855" x2="189.57142857143" y2="710.14673913043" style="stroke:red; stroke-width:1"/>
<line x1="189.57142857143" y1="710.14673913043" x2="189.86695986331" y2="717.21162846117" style="stroke:red; stroke-width:1"/>
<text x="224.28571428571" y="742.07336956522" font-weight = "10" font-family="verdana" fill="red" font-size="15">4</text>
<line x1="259" y1="774" x2="323.56371505509" y2="758.67637000884" style="stroke:red; stroke-width:1;stroke-dasharray: 5, 5"/>
<line x1="324.7183459335" y1="763.54122638233" x2="322.40908417668" y2="753.81151363536" style="stroke:red; stroke-width:1"/>
<line x1="324.7183459335" y1="763.54122638233" x2="328.42857142857" y2="757.52173913043" style="stroke:red; stroke-width:1"/>
<line x1="328.42857142857" y1="757.52173913043" x2="322.40908417668" y2="753.81151363536" style="stroke:red; stroke-width:1"/>
<text x="293.71428571429" y="765.76086956522" font-weight = "10" font-family="verdana" fill="red" font-size="15">5</text>
<line x1="814.42857142857" y1="329.08695652174" x2="749.51694333183" y2="359.89936470579" style="stroke:red; stroke-width:1;stroke-dasharray: 5, 5"/>
<line x1="747.37282977675" y1="355.38242137396" x2="751.6610568869" y2="364.41630803762" style="stroke:red; stroke-width:1"/>
<line x1="747.37282977675" y1="355.38242137396" x2="745" y2="362.04347826087" style="stroke:red; stroke-width:1"/>
<line x1="745" y1="362.04347826087" x2="751.6610568869" y2="364.41630803762" style="stroke:red; stroke-width:1"/>
<text x="779.71428571429" y="345.5652173913" font-weight = "10" font-family="verdana" fill="red" font-size="15">6</text>
<line x1="814.42857142857" y1="296.13043478261" x2="814.42857142857" y2="243.45652173913" style="stroke:red; stroke-width:1;stroke-dasharray: 5, 5"/>
<line x1="819.42857142857" y1="243.45652173913" x2="809.42857142857" y2="243.45652173913" style="stroke:red; stroke-width:1"/>
<line x1="819.42857142857" y1="243.45652173913" x2="814.42857142857" y2="238.45652173913" style="stroke:red; stroke-width:1"/>
<line x1="814.42857142857" y1="238.45652173913" x2="809.42857142857" y2="243.45652173913" style="stroke:red; stroke-width:1"/>
<text x="814.42857142857" y="267.29347826087" font-weight = "10" font-family="verdana" fill="red" font-size="15">7</text>
<line x1="606.14285714286" y1="114.86956521739" x2="540.78730626367" y2="161.40426099906" style="stroke:red; stroke-width:1;stroke-dasharray: 5, 5"/>
<line x1="537.88721943664" y1="157.33124044968" x2="543.6873930907" y2="165.47728154844" style="stroke:red; stroke-width:1"/>
<line x1="537.88721943664" y1="157.33124044968" x2="536.71428571429" y2="164.30434782609" style="stroke:red; stroke-width:1"/>
<line x1="536.71428571429" y1="164.30434782609" x2="543.6873930907" y2="165.47728154844" style="stroke:red; stroke-width:1"/>
<text x="571.42857142857" y="139.58695652174" font-weight = "10" font-family="verdana" fill="red" font-size="15">8</text>
<line x1="606.14285714286" y1="114.86956521739" x2="402.37408618897" y2="211.5950168797" style="stroke:red; stroke-width:1;stroke-dasharray: 5, 5"/>
<line x1="400.22997263389" y1="207.07807354788" x2="404.51819974405" y2="216.11196021153" style="stroke:red; stroke-width:1"/>
<line x1="400.22997263389" y1="207.07807354788" x2="397.85714285714" y2="213.73913043478" style="stroke:red; stroke-width:1"/>
<line x1="397.85714285714" y1="213.73913043478" x2="404.51819974405" y2="216.11196021153" style="stroke:red; stroke-width:1"/>
<text x="502" y="164.30434782609" font-weight = "10" font-family="verdana" fill="red" font-size="15">9</text>
<line x1="814.42857142857" y1="329.08695652174" x2="880.2309957834" y2="266.61644952107" style="stroke:red; stroke-width:1;stroke-dasharray: 5, 5"/>
<line x1="883.673532261" y1="270.24259659482" x2="876.7884593058" y2="262.99030244733" style="stroke:red; stroke-width:1"/>
<line x1="883.673532261" y1="270.24259659482" x2="883.85714285714" y2="263.17391304348" style="stroke:red; stroke-width:1"/>
<line x1="883.85714285714" y1="263.17391304348" x2="876.7884593058" y2="262.99030244733" style="stroke:red; stroke-width:1"/>
<text x="849.14285714286" y="296.13043478261" font-weight = "10" font-family="verdana" fill="red" font-size="15">10</text>
<line x1="814.42857142857" y1="296.13043478261" x2="540.78730626367" y2="490.96947839036" style="stroke:red; stroke-width:1;stroke-dasharray: 5, 5"/>
<line x1="537.88721943664" y1="486.89645784098" x2="543.6873930907" y2="495.04249893974" style="stroke:red; stroke-width:1"/>
<line x1="537.88721943664" y1="486.89645784098" x2="536.71428571429" y2="493.86956521739" style="stroke:red; stroke-width:1"/>
<line x1="536.71428571429" y1="493.86956521739" x2="543.6873930907" y2="495.04249893974" style="stroke:red; stroke-width:1"/>
<text x="675.57142857143" y="395" font-weight = "10" font-family="verdana" fill="red" font-size="15">11</text>
<line x1="536.71428571429" y1="477.39130434783" x2="810.01806069065" y2="331.44224738078" style="stroke:red; stroke-width:1;stroke-dasharray: 5, 5"/>
<line x1="812.37335154969" y1="335.8527581187" x2="807.66276983161" y2="327.03173664286" style="stroke:red; stroke-width:1"/>
<line x1="812.37335154969" y1="335.8527581187" x2="814.42857142857" y2="329.08695652174" style="stroke:red; stroke-width:1"/>
<line x1="814.42857142857" y1="329.08695652174" x2="807.66276983161" y2="327.03173664286" style="stroke:red; stroke-width:1"/>
<text x="675.57142857143" y="403.23913043478" font-weight = "10" font-family="verdana" fill="red" font-size="15">12</text>
<line x1="675.57142857143" y1="444.4347826087" x2="541.57914208777" y2="476.23667346942" style="stroke:red; stroke-width:1;stroke-dasharray: 5, 5"/>
<line x1="540.42451120936" y1="471.37181709593" x2="542.73377296618" y2="481.1015298429" style="stroke:red; stroke-width:1"/>
<line x1="540.42451120936" y1="471.37181709593" x2="536.71428571429" y2="477.39130434783" style="stroke:red; stroke-width:1"/>
<line x1="536.71428571429" y1="477.39130434783" x2="542.73377296618" y2="481.1015298429" style="stroke:red; stroke-width:1"/>
<text x="606.14285714286" y="460.91304347826" font-weight = "10" font-family="verdana" fill="red" font-size="15">13</text>
<line x1="814.42857142857" y1="345.5652173913" x2="610.72763231307" y2="434.20069938283" style="stroke:red; stroke-width:1;stroke-dasharray: 5, 5"/>
<line x1="608.73267952198" y1="429.61592421262" x2="612.72258510415" y2="438.78547455304" style="stroke:red; stroke-width:1"/>
<line x1="608.73267952198" y1="429.61592421262" x2="606.14285714286" y2="436.19565217391" style="stroke:red; stroke-width:1"/>
<line x1="606.14285714286" y1="436.19565217391" x2="612.72258510415" y2="438.78547455304" style="stroke:red; stroke-width:1"/>
<text x="710.28571428571" y="390.88043478261" font-weight = "10" font-family="verdana" fill="red" font-size="15">14</text>
<line x1="814.42857142857" y1="296.13043478261" x2="878.99228648366" y2="280.80680479145" style="stroke:red; stroke-width:1;stroke-dasharray: 5, 5"/>
<line x1="880.14691736207" y1="285.67166116494" x2="877.83765560525" y2="275.94194841797" style="stroke:red; stroke-width:1"/>
<line x1="880.14691736207" y1="285.67166116494" x2="883.85714285714" y2="279.65217391304" style="stroke:red; stroke-width:1"/>
<line x1="883.85714285714" y1="279.65217391304" x2="877.83765560525" y2="275.94194841797" style="stroke:red; stroke-width:1"/>
<text x="849.14285714286" y="287.89130434783" font-weight = "10" font-family="verdana" fill="red" font-size="15">15</text>
<line x1="883.85714285714" y1="48.95652173913" x2="611.00771351634" y2="113.71493433898" style="stroke:red; stroke-width:1;stroke-dasharray: 5, 5"/>
<line x1="609.85308263793" y1="108.8500779655" x2="612.16234439475" y2="118.57979071247" style="stroke:red; stroke-width:1"/>
<line x1="609.85308263793" y1="108.8500779655" x2="606.14285714286" y2="114.86956521739" style="stroke:red; stroke-width:1"/>
<line x1="606.14285714286" y1="114.86956521739" x2="612.16234439475" y2="118.57979071247" style="stroke:red; stroke-width:1"/>
<text x="745" y="81.913043478261" font-weight = "10" font-family="verdana" fill="red" font-size="15">16</text>
<line x1="814.42857142857" y1="296.13043478261" x2="679.75849577213" y2="384.02801972361" style="stroke:red; stroke-width:1;stroke-dasharray: 5, 5"/>
<line x1="677.02564593052" y1="379.8409525229" x2="682.49134561374" y2="388.21508692431" style="stroke:red; stroke-width:1"/>
<line x1="677.02564593052" y1="379.8409525229" x2="675.57142857143" y2="386.76086956522" style="stroke:red; stroke-width:1"/>
<line x1="675.57142857143" y1="386.76086956522" x2="682.49134561374" y2="388.21508692431" style="stroke:red; stroke-width:1"/>
<text x="745" y="341.44565217391" font-weight = "10" font-family="verdana" fill="red" font-size="15">17</text>
<line x1="397.85714285714" y1="180.78260869565" x2="879.0315151604" y2="50.265459221375" style="stroke:red; stroke-width:1;stroke-dasharray: 5, 5"/>
<line x1="880.34045264264" y1="55.091086918118" x2="877.72257767816" y2="45.439831524631" style="stroke:red; stroke-width:1"/>
<line x1="880.34045264264" y1="55.091086918118" x2="883.85714285714" y2="48.95652173913" style="stroke:red; stroke-width:1"/>
<line x1="883.85714285714" y1="48.95652173913" x2="877.72257767816" y2="45.439831524631" style="stroke:red; stroke-width:1"/>
<text x="640.85714285714" y="114.86956521739" font-weight = "10" font-family="verdana" fill="red" font-size="15">18</text>
<line x1="814.42857142857" y1="345.5652173913" x2="680.08837190325" y2="409.33414731449" style="stroke:red; stroke-width:1;stroke-dasharray: 5, 5"/>
<line x1="677.94425834818" y1="404.81720398266" x2="682.23248545833" y2="413.85109064631" style="stroke:red; stroke-width:1"/>
<line x1="677.94425834818" y1="404.81720398266" x2="675.57142857143" y2="411.47826086957" style="stroke:red; stroke-width:1"/>
<line x1="675.57142857143" y1="411.47826086957" x2="682.23248545833" y2="413.85109064631" style="stroke:red; stroke-width:1"/>
<text x="745" y="378.52173913043" font-weight = "10" font-family="verdana" fill="red" font-size="15">19</text>
<line x1="397.85714285714" y1="180.78260869565" x2="948.49222044443" y2="17.422117011198" style="stroke:red; stroke-width:1;stroke-dasharray: 5, 5"/>
<line x1="949.91433745562" y1="22.215610852485" x2="947.07010343323" y2="12.62862316991" style="stroke:red; stroke-width:1"/>
<line x1="949.91433745562" y1="22.215610852485" x2="953.28571428571" y2="16" style="stroke:red; stroke-width:1"/>
<line x1="953.28571428571" y1="16" x2="947.07010343323" y2="12.62862316991" style="stroke:red; stroke-width:1"/>
<text x="675.57142857143" y="98.391304347826" font-weight = "10" font-family="verdana" fill="red" font-size="15">20</text>
<line x1="397.85714285714" y1="180.78260869565" x2="532.0038910254" y2="133.02478222083" style="stroke:red; stroke-width:1;stroke-dasharray: 5, 5"/>
<line x1="533.68084715927" y1="137.73517690971" x2="530.32693489153" y2="128.31438753194" style="stroke:red; stroke-width:1"/>
<line x1="533.68084715927" y1="137.73517690971" x2="536.71428571429" y2="131.34782608696" style="stroke:red; stroke-width:1"/>
<line x1="536.71428571429" y1="131.34782608696" x2="530.32693489153" y2="128.31438753194" style="stroke:red; stroke-width:1"/>
<text x="467.28571428571" y="156.0652173913" font-weight = "10" font-family="verdana" fill="red" font-size="15">21</text>
<line x1="397.85714285714" y1="180.78260869565" x2="740.19123258225" y2="83.28262586788" style="stroke:red; stroke-width:1;stroke-dasharray: 5, 5"/>
<line x1="741.56081497187" y1="88.091393285633" x2="738.82165019263" y2="78.473858450126" style="stroke:red; stroke-width:1"/>
<line x1="741.56081497187" y1="88.091393285633" x2="745" y2="81.913043478261" style="stroke:red; stroke-width:1"/>
<line x1="745" y1="81.913043478261" x2="738.82165019263" y2="78.473858450126" style="stroke:red; stroke-width:1"/>
<text x="571.42857142857" y="131.34782608696" font-weight = "10" font-family="verdana" fill="red" font-size="15">22</text>
<line x1="397.85714285714" y1="180.78260869565" x2="670.77793473014" y2="99.813421359024" style="stroke:red; stroke-width:1;stroke-dasharray: 5, 5"/>
<line x1="672.20005174134" y1="104.60691520031" x2="669.35581771894" y2="95.019927517736" style="stroke:red; stroke-width:1"/>
<line x1="672.20005174134" y1="104.60691520031" x2="675.57142857143" y2="98.391304347826" style="stroke:red; stroke-width:1"/>
<line x1="675.57142857143" y1="98.391304347826" x2="669.35581771894" y2="95.019927517736" style="stroke:red; stroke-width:1"/>
<text x="536.71428571429" y="139.58695652174" font-weight = "10" font-family="verdana" fill="red" font-size="15">23</text>
<line x1="397.85714285714" y1="180.78260869565" x2="809.60989033232" y2="66.769066121526" style="stroke:red; stroke-width:1;stroke-dasharray: 5, 5"/>
<line x1="810.94417384515" y1="71.587747217779" x2="808.27560681949" y2="61.950385025273" style="stroke:red; stroke-width:1"/>
<line x1="810.94417384515" y1="71.587747217779" x2="814.42857142857" y2="65.434782608696" style="stroke:red; stroke-width:1"/>
<line x1="814.42857142857" y1="65.434782608696" x2="808.27560681949" y2="61.950385025273" style="stroke:red; stroke-width:1"/>
<text x="606.14285714286" y="123.10869565217" font-weight = "10" font-family="verdana" fill="red" font-size="15">24</text>
<line x1="536.71428571429" y1="147.82608695652" x2="402.72199923063" y2="179.62797781724" style="stroke:red; stroke-width:1;stroke-dasharray: 5, 5"/>
<line x1="401.56736835222" y1="174.76312144376" x2="403.87663010904" y2="184.49283419073" style="stroke:red; stroke-width:1"/>
<line x1="401.56736835222" y1="174.76312144376" x2="397.85714285714" y2="180.78260869565" style="stroke:red; stroke-width:1"/>
<line x1="397.85714285714" y1="180.78260869565" x2="403.87663010904" y2="184.49283419073" style="stroke:red; stroke-width:1"/>
<text x="467.28571428571" y="164.30434782609" font-weight = "10" font-family="verdana" fill="red" font-size="15">25</text>
<line x1="397.85714285714" y1="535.0652173913" x2="260.82923883775" y2="186.48196558859" style="stroke:red; stroke-width:1;stroke-dasharray: 5, 5"/>
<line x1="265.48261237471" y1="184.65272675083" x2="256.1758653008" y2="188.31120442634" style="stroke:red; stroke-width:1"/>
<line x1="265.48261237471" y1="184.65272675083" x2="259" y2="181.82859205163" style="stroke:red; stroke-width:1"/>
<line x1="259" y1="181.82859205163" x2="256.1758653008" y2="188.31120442634" style="stroke:red; stroke-width:1"/>
<text x="328.42857142857" y="358.44690472147" font-weight = "10" font-family="verdana" fill="red" font-size="15">26</text>
<line x1="397.85714285714" y1="535.0652173913" x2="397.85714285714" y2="515.34782608696" style="stroke:red; stroke-width:1;stroke-dasharray: 5, 5"/>
<line x1="402.85714285714" y1="515.34782608696" x2="392.85714285714" y2="515.34782608696" style="stroke:red; stroke-width:1"/>
<line x1="402.85714285714" y1="515.34782608696" x2="397.85714285714" y2="510.34782608696" style="stroke:red; stroke-width:1"/>
<line x1="397.85714285714" y1="510.34782608696" x2="392.85714285714" y2="515.34782608696" style="stroke:red; stroke-width:1"/>
<text x="397.85714285714" y="522.70652173913" font-weight = "10" font-family="verdana" fill="red" font-size="15">27</text>
<line x1="259" y1="514.40302309783" x2="259" y2="608.33695652174" style="stroke:red; stroke-width:1;stroke-dasharray: 5, 5"/>
<line x1="254" y1="608.33695652174" x2="264" y2="608.33695652174" style="stroke:red; stroke-width:1"/>
<line x1="254" y1="608.33695652174" x2="259" y2="613.33695652174" style="stroke:red; stroke-width:1"/>
<line x1="259" y1="613.33695652174" x2="264" y2="608.33695652174" style="stroke:red; stroke-width:1"/>
<text x="259" y="563.86998980978" font-weight = "10" font-family="verdana" fill="red" font-size="15">28</text>
<line x1="328.42857142857" y1="625.69565217391" x2="393.34019952532" y2="594.88324398986" style="stroke:red; stroke-width:1;stroke-dasharray: 5, 5"/>
<line x1="395.4843130804" y1="599.40018732169" x2="391.19608597024" y2="590.36630065804" style="stroke:red; stroke-width:1"/>
<line x1="395.4843130804" y1="599.40018732169" x2="397.85714285714" y2="592.73913043478" style="stroke:red; stroke-width:1"/>
<line x1="397.85714285714" y1="592.73913043478" x2="391.19608597024" y2="590.36630065804" style="stroke:red; stroke-width:1"/>
<text x="363.14285714286" y="609.21739130435" font-weight = "10" font-family="verdana" fill="red" font-size="15">1</text>
</g></svg>